<?xml version="1.0" encoding="UTF-8" standalone="no"?>
<!DOCTYPE svg PUBLIC "-//W3C//DTD SVG 1.1//EN" "http://www.w3.org/Graphics/SVG/1.1/DTD/svg11.dtd">
<svg width="100%" height="100%" viewBox="0 0 2254 860" version="1.1" xmlns="http://www.w3.org/2000/svg" xmlns:xlink="http://www.w3.org/1999/xlink" xml:space="preserve" xmlns:serif="http://www.serif.com/" style="fill-rule:evenodd;clip-rule:evenodd;stroke-linecap:round;stroke-linejoin:round;stroke-miterlimit:1.5;">
    <g>
        <g>
            <path d="M2211.83,68c0,-9.934 -8.065,-18 -18,-18l-1769.41,0c-9.935,0 -18,8.066 -18,18l-0,324c-0,9.934 8.065,18 18,18l1769.41,0c9.935,0 18,-8.066 18,-18l0,-324Z" style="fill:none;stroke:black;stroke-width:7px;"/>
            <g>
                <g>
                    <path d="M1284.89,180c0,-5.519 -4.481,-10 -10,-10l-380,0c-5.519,0 -10,4.481 -10,10l-0,180c-0,5.519 4.481,10 10,10l380,-0c5.519,-0 10,-4.481 10,-10l0,-180Z" style="fill:none;stroke:rgb(137,194,212);stroke-width:7px;"/>
                    <g transform="matrix(1,0,0,1,523.88,-0.862981)">
                        <g transform="matrix(64,0,0,64,524.687,260.879)">
                            <path d="M0.515,-0.22c0,-0.13 -0.103,-0.213 -0.213,-0.213c-0.11,0 -0.167,0.063 -0.195,0.128c-0,-0.138 0.029,-0.35 0.208,-0.35c0.07,0 0.115,0.03 0.152,0.065l0.03,-0.037c-0,0 -0.057,-0.073 -0.18,-0.073c-0.201,0 -0.262,0.202 -0.262,0.37c-0,0.159 0.042,0.342 0.24,0.342c0.135,0 0.22,-0.102 0.22,-0.232Zm-0.055,0.009c-0,0.09 -0.053,0.175 -0.165,0.175c-0.113,0 -0.168,-0.085 -0.168,-0.175c-0,-0.09 0.055,-0.175 0.168,-0.175c0.112,0 0.165,0.085 0.165,0.175Z" style="fill-rule:nonzero;"/>
                        </g>
                        <g transform="matrix(64,0,0,64,560.527,260.879)">
                            <path d="M0.54,-0.16l0,-0.05l-0.106,0l-0,-0.485l-0.049,0l-0.36,0.495l-0,0.04l0.356,0l-0,0.16l0.053,0l-0,-0.16l0.106,0Zm-0.159,-0.05l-0.296,0l0.296,-0.405l0,0.405Z" style="fill-rule:nonzero;"/>
                        </g>
                        <g transform="matrix(64,0,0,64,511.727,324.879)">
                            <path d="M0.255,-0l0,-0.69l-0.195,0l0,0.045l0.142,0l0,0.645l0.053,-0Z" style="fill-rule:nonzero;"/>
                        </g>
                        <g transform="matrix(64,0,0,64,538.287,324.879)">
                            <path d="M0.505,-0.36c0,-0.159 -0.043,-0.34 -0.24,-0.34c-0.135,-0 -0.22,0.102 -0.22,0.232c-0,0.13 0.102,0.213 0.212,0.213c0.11,0 0.168,-0.065 0.195,-0.13c0,0.13 -0.025,0.22 -0.06,0.273c-0.035,0.052 -0.075,0.077 -0.145,0.077c-0.069,-0 -0.122,-0.027 -0.16,-0.062l-0.03,0.037c0.01,0.01 0.065,0.072 0.19,0.072c0.199,-0 0.258,-0.207 0.258,-0.372Zm-0.073,-0.118c0,0.09 -0.055,0.175 -0.167,0.175c-0.113,-0 -0.165,-0.085 -0.165,-0.175c0,-0.09 0.052,-0.175 0.165,-0.175c0.112,0 0.167,0.085 0.167,0.175Z" style="fill-rule:nonzero;"/>
                        </g>
                        <g transform="matrix(64,0,0,64,573.487,324.879)">
                            <path d="M0.515,-0l0,-0.05l-0.375,0l0.2,-0.195c0.035,-0.035 0.147,-0.13 0.147,-0.252c0,-0.123 -0.092,-0.203 -0.217,-0.203c-0.125,-0 -0.185,0.09 -0.21,0.145l0.04,0.025c0.02,-0.045 0.07,-0.122 0.17,-0.122c0.1,-0 0.162,0.067 0.162,0.157c-0,0.09 -0.072,0.165 -0.117,0.21l-0.25,0.245l0.01,0.04l0.44,-0Z" style="fill-rule:nonzero;"/>
                        </g>
                    </g>
                </g>
                <path d="M1043.89,93.056l-0,-3.136l-29.696,-0l-0,3.136l13.12,-0l-0,41.024l3.456,0l-0,-41.024l13.12,0Z" style="fill-rule:nonzero;"/>
                <path d="M1068.86,134.08l-0,-17.6c-0,-7.872 -3.584,-12.608 -11.84,-12.608c-4.48,-0 -8,1.728 -9.92,3.008l1.28,2.432c0.64,-0.512 4.16,-2.56 8.768,-2.56c4.672,-0 8.32,2.688 8.32,8.128l-0,1.6l-8.128,0.32c-8,0.32 -11.84,3.84 -11.84,8.96c-0,5.12 4.16,8.96 9.92,8.96c5.76,-0 8.96,-3.52 10.048,-4.8l-0,4.16l3.392,0Zm-3.392,-15.04l-0,7.36c-1.408,2.24 -4.608,5.44 -9.408,5.44c-4.8,0 -7.232,-2.88 -7.232,-6.08c-0,-3.2 1.984,-5.888 8.192,-6.208l8.448,-0.512Z" style="fill-rule:nonzero;"/>
                <path d="M1095.86,125.952c0,-5.632 -5.568,-7.552 -9.28,-8.832c-3.648,-1.28 -6.848,-2.624 -6.848,-5.696c0,-3.072 2.368,-4.736 5.696,-4.736c3.328,-0 5.376,1.152 7.424,3.392l2.048,-2.048c-2.304,-2.624 -4.992,-4.16 -9.344,-4.16c-4.352,-0 -9.024,2.56 -9.024,7.936c0,5.376 5.568,7.296 8.128,8.192c2.56,0.896 7.872,2.24 7.872,6.08c0,3.84 -3.264,5.632 -6.976,5.632c-3.712,0 -6.656,-1.856 -8.576,-4.672l-2.368,1.92c1.856,3.072 5.312,5.76 10.816,5.76c5.504,0 10.432,-3.2 10.432,-8.768Z" style="fill-rule:nonzero;"/>
                <path d="M1126.78,134.08l-14.08,-18.368l12.16,-11.328l-4.16,-0l-14.272,13.376l0,-27.84l-3.328,-0l0,44.16l3.328,-0l0,-12.608l4.032,-3.712l12.16,16.32l4.16,-0Z" style="fill-rule:nonzero;"/>
                <path d="M1155.58,134.08l0,-44.16l-12.48,-0l0,2.88l9.088,-0l0,41.28l3.392,-0Z" style="fill-rule:nonzero;"/>
            </g>
            <g>
                <g>
                    <path d="M846.416,180c0,-5.519 -4.481,-10 -10,-10l-380,0c-5.519,0 -10,4.481 -10,10l-0,180c-0,5.519 4.481,10 10,10l380,-0c5.519,-0 10,-4.481 10,-10l0,-180Z" style="fill:none;stroke:rgb(137,194,212);stroke-width:7px;"/>
                    <g transform="matrix(1,0,0,1,85.8887,-0.830981)">
                        <g transform="matrix(64,0,0,64,542.607,260.879)">
                            <path d="M0.53,-0.344c0,-0.178 -0.075,-0.356 -0.25,-0.356c-0.174,-0 -0.25,0.178 -0.25,0.356c-0,0.177 0.075,0.355 0.25,0.355c0.175,-0 0.25,-0.178 0.25,-0.355Zm-0.058,-0.002c0,0.18 -0.067,0.307 -0.192,0.307c-0.125,-0 -0.193,-0.127 -0.193,-0.307c-0,-0.18 0.068,-0.307 0.193,-0.307c0.125,0 0.192,0.127 0.192,0.307Z" style="fill-rule:nonzero;"/>
                        </g>
                        <g transform="matrix(64,0,0,64,511.407,324.879)">
                            <path d="M0.255,-0l0,-0.69l-0.195,0l0,0.045l0.142,0l0,0.645l0.053,-0Z" style="fill-rule:nonzero;"/>
                        </g>
                        <g transform="matrix(64,0,0,64,537.967,324.879)">
                            <path d="M0.515,-0l0,-0.05l-0.375,0l0.2,-0.195c0.035,-0.035 0.147,-0.13 0.147,-0.252c0,-0.123 -0.092,-0.203 -0.217,-0.203c-0.125,-0 -0.185,0.09 -0.21,0.145l0.04,0.025c0.02,-0.045 0.07,-0.122 0.17,-0.122c0.1,-0 0.162,0.067 0.162,0.157c-0,0.09 -0.072,0.165 -0.117,0.21l-0.25,0.245l0.01,0.04l0.44,-0Z" style="fill-rule:nonzero;"/>
                        </g>
                        <g transform="matrix(64,0,0,64,573.807,324.879)">
                            <path d="M0.5,-0.187c0,-0.09 -0.055,-0.153 -0.133,-0.178l0,-0.002c0.043,-0.018 0.11,-0.053 0.11,-0.16c0,-0.108 -0.092,-0.173 -0.197,-0.173c-0.105,0 -0.198,0.065 -0.198,0.173c0,0.107 0.068,0.142 0.11,0.16l0,0.002c-0.077,0.025 -0.132,0.088 -0.132,0.178c0,0.125 0.09,0.198 0.22,0.198c0.13,-0 0.22,-0.073 0.22,-0.198Zm-0.078,-0.334c0,0.085 -0.062,0.131 -0.142,0.131c-0.08,0 -0.143,-0.046 -0.143,-0.131c0,-0.085 0.063,-0.131 0.143,-0.131c0.08,0 0.142,0.046 0.142,0.131Zm0.023,0.331c0,0.095 -0.075,0.154 -0.165,0.154c-0.09,0 -0.165,-0.059 -0.165,-0.154c0,-0.095 0.07,-0.152 0.165,-0.152c0.095,-0 0.165,0.057 0.165,0.152Z" style="fill-rule:nonzero;"/>
                        </g>
                    </g>
                </g>
                <path d="M596.624,93.736l-0,-3.136l-29.696,0l-0,3.136l13.12,0l-0,41.024l3.456,0l-0,-41.024l13.12,0Z" style="fill-rule:nonzero;"/>
                <path d="M621.584,134.76l-0,-17.6c-0,-7.872 -3.584,-12.608 -11.84,-12.608c-4.48,0 -8,1.728 -9.92,3.008l1.28,2.432c0.64,-0.512 4.16,-2.56 8.768,-2.56c4.672,0 8.32,2.688 8.32,8.128l-0,1.6l-8.128,0.32c-8,0.32 -11.84,3.84 -11.84,8.96c-0,5.12 4.16,8.96 9.92,8.96c5.76,0 8.96,-3.52 10.048,-4.8l-0,4.16l3.392,0Zm-3.392,-15.04l-0,7.36c-1.408,2.24 -4.608,5.44 -9.408,5.44c-4.8,0 -7.232,-2.88 -7.232,-6.08c-0,-3.2 1.984,-5.888 8.192,-6.208l8.448,-0.512Z" style="fill-rule:nonzero;"/>
                <path d="M648.592,126.632c-0,-5.632 -5.568,-7.552 -9.28,-8.832c-3.648,-1.28 -6.848,-2.624 -6.848,-5.696c-0,-3.072 2.368,-4.736 5.696,-4.736c3.328,0 5.376,1.152 7.424,3.392l2.048,-2.048c-2.304,-2.624 -4.992,-4.16 -9.344,-4.16c-4.352,0 -9.024,2.56 -9.024,7.936c-0,5.376 5.568,7.296 8.128,8.192c2.56,0.896 7.872,2.24 7.872,6.08c-0,3.84 -3.264,5.632 -6.976,5.632c-3.712,0 -6.656,-1.856 -8.576,-4.672l-2.368,1.92c1.856,3.072 5.312,5.76 10.816,5.76c5.504,0 10.432,-3.2 10.432,-8.768Z" style="fill-rule:nonzero;"/>
                <path d="M679.504,134.76l-14.08,-18.368l12.16,-11.328l-4.16,0l-14.272,13.376l-0,-27.84l-3.328,0l-0,44.16l3.328,0l-0,-12.608l4.032,-3.712l12.16,16.32l4.16,0Z" style="fill-rule:nonzero;"/>
                <path d="M725.904,112.744c0,-11.392 -4.8,-22.784 -16,-22.784c-11.136,0 -16,11.392 -16,22.784c-0,11.328 4.8,22.72 16,22.72c11.2,0 16,-11.392 16,-22.72Zm-3.712,-0.128c0,11.52 -4.288,19.648 -12.288,19.648c-8,0 -12.352,-8.128 -12.352,-19.648c-0,-11.52 4.352,-19.648 12.352,-19.648c8,0 12.288,8.128 12.288,19.648Z" style="fill-rule:nonzero;"/>
            </g>
            <g>
                <g>
                    <path d="M1727.94,181c0,-5.519 -4.481,-10 -10,-10l-380,0c-5.519,0 -10,4.481 -10,10l-0,180c-0,5.519 4.481,10 10,10l380,0c5.519,0 10,-4.481 10,-10l0,-180Z" style="fill:none;stroke:rgb(137,194,212);stroke-width:7px;"/>
                    <g transform="matrix(1,0,0,1,967.258,-0.182981)">
                        <g transform="matrix(64,0,0,64,547.247,260.879)">
                            <path d="M0.255,-0l0,-0.69l-0.195,0l0,0.045l0.142,0l0,0.645l0.053,-0Z" style="fill-rule:nonzero;"/>
                        </g>
                        <g transform="matrix(64,0,0,64,511.407,324.879)">
                            <path d="M0.255,-0l0,-0.69l-0.195,0l0,0.045l0.142,0l0,0.645l0.053,-0Z" style="fill-rule:nonzero;"/>
                        </g>
                        <g transform="matrix(64,0,0,64,537.967,324.879)">
                            <path d="M0.515,-0l0,-0.05l-0.375,0l0.2,-0.195c0.035,-0.035 0.147,-0.13 0.147,-0.252c0,-0.123 -0.092,-0.203 -0.217,-0.203c-0.125,-0 -0.185,0.09 -0.21,0.145l0.04,0.025c0.02,-0.045 0.07,-0.122 0.17,-0.122c0.1,-0 0.162,0.067 0.162,0.157c-0,0.09 -0.072,0.165 -0.117,0.21l-0.25,0.245l0.01,0.04l0.44,-0Z" style="fill-rule:nonzero;"/>
                        </g>
                        <g transform="matrix(64,0,0,64,573.807,324.879)">
                            <path d="M0.505,-0.36c0,-0.159 -0.043,-0.34 -0.24,-0.34c-0.135,-0 -0.22,0.102 -0.22,0.232c-0,0.13 0.102,0.213 0.212,0.213c0.11,0 0.168,-0.065 0.195,-0.13c0,0.13 -0.025,0.22 -0.06,0.273c-0.035,0.052 -0.075,0.077 -0.145,0.077c-0.069,-0 -0.122,-0.027 -0.16,-0.062l-0.03,0.037c0.01,0.01 0.065,0.072 0.19,0.072c0.199,-0 0.258,-0.207 0.258,-0.372Zm-0.073,-0.118c0,0.09 -0.055,0.175 -0.167,0.175c-0.113,-0 -0.165,-0.085 -0.165,-0.175c0,-0.09 0.052,-0.175 0.165,-0.175c0.112,0 0.167,0.085 0.167,0.175Z" style="fill-rule:nonzero;"/>
                        </g>
                    </g>
                </g>
                <path d="M1475.62,93.736l-0,-3.136l-29.696,-0l-0,3.136l13.12,-0l-0,41.024l3.456,-0l-0,-41.024l13.12,-0Z" style="fill-rule:nonzero;"/>
                <path d="M1500.58,134.76l-0,-17.6c-0,-7.872 -3.584,-12.608 -11.84,-12.608c-4.48,-0 -8,1.728 -9.92,3.008l1.28,2.432c0.64,-0.512 4.16,-2.56 8.768,-2.56c4.672,-0 8.32,2.688 8.32,8.128l-0,1.6l-8.128,0.32c-8,0.32 -11.84,3.84 -11.84,8.96c-0,5.12 4.16,8.96 9.92,8.96c5.76,-0 8.96,-3.52 10.048,-4.8l-0,4.16l3.392,-0Zm-3.392,-15.04l-0,7.36c-1.408,2.24 -4.608,5.44 -9.408,5.44c-4.8,-0 -7.232,-2.88 -7.232,-6.08c-0,-3.2 1.984,-5.888 8.192,-6.208l8.448,-0.512Z" style="fill-rule:nonzero;"/>
                <path d="M1527.59,126.632c-0,-5.632 -5.568,-7.552 -9.28,-8.832c-3.648,-1.28 -6.848,-2.624 -6.848,-5.696c-0,-3.072 2.368,-4.736 5.696,-4.736c3.328,-0 5.376,1.152 7.424,3.392l2.048,-2.048c-2.304,-2.624 -4.992,-4.16 -9.344,-4.16c-4.352,-0 -9.024,2.56 -9.024,7.936c-0,5.376 5.568,7.296 8.128,8.192c2.56,0.896 7.872,2.24 7.872,6.08c-0,3.84 -3.264,5.632 -6.976,5.632c-3.712,-0 -6.656,-1.856 -8.576,-4.672l-2.368,1.92c1.856,3.072 5.312,5.76 10.816,5.76c5.504,-0 10.432,-3.2 10.432,-8.768Z" style="fill-rule:nonzero;"/>
                <path d="M1558.5,134.76l-14.08,-18.368l12.16,-11.328l-4.16,-0l-14.272,13.376l-0,-27.84l-3.328,-0l-0,44.16l3.328,-0l-0,-12.608l4.032,-3.712l12.16,16.32l4.16,-0Z" style="fill-rule:nonzero;"/>
                <path d="M1603.94,134.76l-0,-3.2l-24,-0l12.8,-12.48c2.24,-2.24 9.408,-8.32 9.408,-16.128c-0,-7.872 -5.888,-12.992 -13.888,-12.992c-8,-0 -11.84,5.76 -13.44,9.28l2.56,1.6c1.28,-2.88 4.48,-7.808 10.88,-7.808c6.4,-0 10.368,4.288 10.368,10.048c-0,5.76 -4.608,10.56 -7.488,13.44l-16,15.68l0.64,2.56l28.16,-0Z" style="fill-rule:nonzero;"/>
            </g>
            <g>
                <g>
                    <path d="M2164.93,180c0,-5.519 -4.481,-10 -10,-10l-380,0c-5.519,0 -10,4.481 -10,10l-0,180c-0,5.519 4.481,10 10,10l380,-0c5.519,-0 10,-4.481 10,-10l0,-180Z" style="fill:none;stroke:rgb(137,194,212);stroke-width:7px;"/>
                    <g transform="matrix(1,0,0,1,1404.56,-0.862981)">
                        <g transform="matrix(64,0,0,64,524.687,260.879)">
                            <path d="M0.515,-0.22c0,-0.13 -0.103,-0.213 -0.213,-0.213c-0.11,0 -0.167,0.063 -0.195,0.128c-0,-0.138 0.029,-0.35 0.208,-0.35c0.07,0 0.115,0.03 0.152,0.065l0.03,-0.037c-0,0 -0.057,-0.073 -0.18,-0.073c-0.201,0 -0.262,0.202 -0.262,0.37c-0,0.159 0.042,0.342 0.24,0.342c0.135,0 0.22,-0.102 0.22,-0.232Zm-0.055,0.009c-0,0.09 -0.053,0.175 -0.165,0.175c-0.113,0 -0.168,-0.085 -0.168,-0.175c-0,-0.09 0.055,-0.175 0.168,-0.175c0.112,0 0.165,0.085 0.165,0.175Z" style="fill-rule:nonzero;"/>
                        </g>
                        <g transform="matrix(64,0,0,64,560.527,260.879)">
                            <path d="M0.495,-0.215c0,-0.145 -0.115,-0.225 -0.23,-0.225c-0.035,0 -0.073,0.005 -0.103,0.02l0.048,-0.222l0.27,0l-0,-0.048l-0.31,0l-0.065,0.315l0.035,0.02c0.025,-0.025 0.075,-0.037 0.12,-0.037c0.09,0 0.18,0.057 0.18,0.177c0,0.12 -0.09,0.178 -0.18,0.178c-0.09,0 -0.15,-0.048 -0.175,-0.098l-0.04,0.03c0.02,0.04 0.085,0.117 0.21,0.117c0.125,0 0.24,-0.082 0.24,-0.227Z" style="fill-rule:nonzero;"/>
                        </g>
                        <g transform="matrix(64,0,0,64,511.727,324.879)">
                            <path d="M0.255,-0l0,-0.69l-0.195,0l0,0.045l0.142,0l0,0.645l0.053,-0Z" style="fill-rule:nonzero;"/>
                        </g>
                        <g transform="matrix(64,0,0,64,538.287,324.879)">
                            <path d="M0.505,-0.36c0,-0.159 -0.043,-0.34 -0.24,-0.34c-0.135,-0 -0.22,0.102 -0.22,0.232c-0,0.13 0.102,0.213 0.212,0.213c0.11,0 0.168,-0.065 0.195,-0.13c0,0.13 -0.025,0.22 -0.06,0.273c-0.035,0.052 -0.075,0.077 -0.145,0.077c-0.069,-0 -0.122,-0.027 -0.16,-0.062l-0.03,0.037c0.01,0.01 0.065,0.072 0.19,0.072c0.199,-0 0.258,-0.207 0.258,-0.372Zm-0.073,-0.118c0,0.09 -0.055,0.175 -0.167,0.175c-0.113,-0 -0.165,-0.085 -0.165,-0.175c0,-0.09 0.052,-0.175 0.165,-0.175c0.112,0 0.167,0.085 0.167,0.175Z" style="fill-rule:nonzero;"/>
                        </g>
                        <g transform="matrix(64,0,0,64,573.487,324.879)">
                            <path d="M0.495,-0.187c0,-0.118 -0.09,-0.168 -0.14,-0.175l0,-0.003c0.04,-0.01 0.12,-0.05 0.12,-0.16c0,-0.11 -0.095,-0.175 -0.2,-0.175c-0.105,0 -0.161,0.05 -0.205,0.105l0.035,0.03c0.04,-0.045 0.085,-0.087 0.165,-0.087c0.08,0 0.15,0.047 0.15,0.132c0,0.085 -0.06,0.133 -0.145,0.133l-0.045,0l0,0.052l0.045,0c0.09,0 0.165,0.05 0.165,0.148c0,0.097 -0.073,0.149 -0.178,0.149c-0.105,0 -0.167,-0.104 -0.167,-0.104l-0.04,0.032c0,0 0.067,0.12 0.205,0.12c0.137,0 0.235,-0.08 0.235,-0.197Z" style="fill-rule:nonzero;"/>
                        </g>
                    </g>
                </g>
                <path d="M1923.94,93.736l0,-3.136l-29.696,-0l0,3.136l13.12,-0l0,41.024l3.456,-0l0,-41.024l13.12,-0Z" style="fill-rule:nonzero;"/>
                <path d="M1948.9,134.76l0,-17.6c0,-7.872 -3.584,-12.608 -11.84,-12.608c-4.48,-0 -8,1.728 -9.92,3.008l1.28,2.432c0.64,-0.512 4.16,-2.56 8.768,-2.56c4.672,-0 8.32,2.688 8.32,8.128l0,1.6l-8.128,0.32c-8,0.32 -11.84,3.84 -11.84,8.96c0,5.12 4.16,8.96 9.92,8.96c5.76,-0 8.96,-3.52 10.048,-4.8l0,4.16l3.392,-0Zm-3.392,-15.04l0,7.36c-1.408,2.24 -4.608,5.44 -9.408,5.44c-4.8,-0 -7.232,-2.88 -7.232,-6.08c0,-3.2 1.984,-5.888 8.192,-6.208l8.448,-0.512Z" style="fill-rule:nonzero;"/>
                <path d="M1975.9,126.632c0,-5.632 -5.568,-7.552 -9.28,-8.832c-3.648,-1.28 -6.848,-2.624 -6.848,-5.696c0,-3.072 2.368,-4.736 5.696,-4.736c3.328,-0 5.376,1.152 7.424,3.392l2.048,-2.048c-2.304,-2.624 -4.992,-4.16 -9.344,-4.16c-4.352,-0 -9.024,2.56 -9.024,7.936c0,5.376 5.568,7.296 8.128,8.192c2.56,0.896 7.872,2.24 7.872,6.08c0,3.84 -3.264,5.632 -6.976,5.632c-3.712,-0 -6.656,-1.856 -8.576,-4.672l-2.368,1.92c1.856,3.072 5.312,5.76 10.816,5.76c5.504,-0 10.432,-3.2 10.432,-8.768Z" style="fill-rule:nonzero;"/>
                <path d="M2006.82,134.76l-14.08,-18.368l12.16,-11.328l-4.16,-0l-14.272,13.376l0,-27.84l-3.328,-0l0,44.16l3.328,-0l0,-12.608l4.032,-3.712l12.16,16.32l4.16,-0Z" style="fill-rule:nonzero;"/>
                <path d="M2050.98,122.792c0,-7.552 -5.76,-10.752 -8.96,-11.2l0,-0.192c2.56,-0.64 7.68,-3.2 7.68,-10.24c0,-7.04 -6.08,-11.2 -12.8,-11.2c-6.72,-0 -10.304,3.2 -13.12,6.72l2.24,1.92c2.56,-2.88 5.44,-5.568 10.56,-5.568c5.12,-0 9.6,3.008 9.6,8.448c0,5.44 -3.84,8.512 -9.28,8.512l-2.88,-0l0,3.328l2.88,-0c5.76,-0 10.56,3.2 10.56,9.472c0,6.208 -4.672,9.536 -11.392,9.536c-6.72,-0 -10.688,-6.656 -10.688,-6.656l-2.56,2.048c0,-0 4.288,7.68 13.12,7.68c8.768,-0 15.04,-5.12 15.04,-12.608Z" style="fill-rule:nonzero;"/>
            </g>
        </g>
        <g>
            <g>
                <path d="M82.89,254.284l-18.35,10.596c-7.305,4.217 -7.009,11.237 0.661,15.665l157.499,90.934c7.67,4.428 19.827,4.599 27.132,0.382l105.881,-61.132c7.305,-4.217 7.008,-11.237 -0.662,-15.665l-16.241,-11.307" style="fill:white;stroke:black;stroke-width:10px;"/>
                <path d="M323.9,277.078l-126.347,-72.948c-7.67,-4.428 -19.827,-4.599 -27.132,-0.382l-75.554,43.623" style="fill:white;stroke:black;stroke-width:10px;"/>
                <path d="M57.945,234.245c0.072,2.871 2.067,2.915 5.952,5.158l157.498,90.934c7.67,4.428 19.828,4.6 27.132,0.382l105.882,-61.132c3.604,-2.081 5.358,-4.844 5.288,-7.641l0.002,-0l0,30.726l0,-0c0,2.742 -1.755,5.44 -5.29,7.481l-105.882,61.132c-7.304,4.217 -19.462,4.046 -27.132,-0.382l-157.498,-90.934c-3.885,-2.243 -5.88,-5.151 -5.952,-8.023l-0,-27.701Z" style="fill:rgb(137,194,212);"/>
                <path d="M196.249,153.437c-7.67,-4.429 -19.828,-4.6 -27.133,-0.383l-105.881,61.132c-7.305,4.218 -7.008,11.237 0.662,15.665l157.498,90.934c7.67,4.428 19.828,4.6 27.132,0.382l105.882,-61.132c7.304,-4.217 7.008,-11.236 -0.662,-15.665l-157.498,-90.933Z" style="fill:white;stroke:black;stroke-width:10px;"/>
                <g>
                    <path d="M341.69,287.347c2.429,-1.402 4.401,-0.264 4.401,2.541c-0,2.805 -1.972,6.22 -4.401,7.623c-2.429,1.402 -4.401,0.263 -4.401,-2.541c-0,-2.805 1.972,-6.221 4.401,-7.623Z" style="fill:white;"/>
                    <path d="M327.461,295.562c2.429,-1.402 4.401,-0.264 4.401,2.541c-0,2.805 -1.972,6.221 -4.401,7.623c-2.429,1.402 -4.401,0.264 -4.401,-2.541c-0,-2.805 1.972,-6.22 4.401,-7.623Z" style="fill:white;"/>
                    <path d="M314.251,308.271l-57.593,33.252" style="fill:none;stroke:white;stroke-width:10px;"/>
                </g>
            </g>
            <path d="M157.078,124.16l-0,-44.16l-3.456,-0l-0,38.08l-29.12,-38.08l-3.456,-0l-0,44.16l3.456,-0l-0,-38.72l29.44,38.72l3.136,-0Z" style="fill-rule:nonzero;"/>
            <path d="M195.478,109.44c-0,-8.96 -6.72,-15.488 -15.232,-15.488c-8.448,-0 -15.168,6.528 -15.168,15.488c-0,8.96 6.72,15.36 15.168,15.36c8.512,-0 15.232,-6.4 15.232,-15.36Zm-3.52,-0.128c-0,6.848 -4.48,12.48 -11.712,12.48c-7.168,-0 -11.648,-5.632 -11.648,-12.48c-0,-6.912 4.48,-12.48 11.648,-12.48c7.232,-0 11.712,5.568 11.712,12.48Z" style="fill-rule:nonzero;"/>
            <path d="M200.598,109.312c-0,8.768 5.76,15.488 14.72,15.488c4.48,-0 8.512,-1.92 11.008,-6.144l-0,5.504l3.392,-0l-0,-44.16l-3.392,-0l-0,20.032c-2.88,-4.352 -6.848,-6.08 -11.136,-6.08c-8.832,-0 -14.592,6.528 -14.592,15.36Zm3.52,-0c-0,-6.912 4.032,-12.48 11.2,-12.48c7.232,-0 11.2,5.568 11.2,12.48c-0,6.848 -3.968,12.48 -11.2,12.48c-7.168,-0 -11.2,-5.632 -11.2,-12.48Z" style="fill-rule:nonzero;"/>
            <path d="M265.238,107.84c0,-8 -5.632,-13.888 -13.44,-13.888c-7.872,-0 -14.4,6.208 -14.4,15.36c0,9.088 5.568,15.488 14.208,15.488c8.64,-0 12.352,-4.48 12.352,-4.48l-1.6,-2.368c0,-0 -3.712,3.84 -10.432,3.84c-6.72,-0 -10.688,-4.672 -11.008,-11.712l24.128,-0c0,-0 0.192,-1.28 0.192,-2.24Zm-3.392,-0.64l-20.8,-0c0.192,-4.16 3.2,-10.368 10.56,-10.368c7.36,-0 10.24,6.528 10.24,10.368Z" style="fill-rule:nonzero;"/>
            <path d="M296.598,124.16l0,-44.16l-12.48,-0l0,2.88l9.088,-0l0,41.28l3.392,-0Z" style="fill-rule:nonzero;"/>
        </g>
    </g>
    <g>
        <g>
            <path d="M2211.83,468c0,-9.934 -8.065,-18 -18,-18l-1769.41,0c-9.935,0 -18,8.066 -18,18l-0,324c-0,9.934 8.065,18 18,18l1769.41,0c9.935,0 18,-8.066 18,-18l0,-324Z" style="fill:none;stroke:black;stroke-width:7px;"/>
            <g>
                <g>
                    <path d="M1284.89,580c0,-5.519 -4.481,-10 -10,-10l-380,0c-5.519,0 -10,4.481 -10,10l-0,180c-0,5.519 4.481,10 10,10l380,-0c5.519,-0 10,-4.481 10,-10l0,-180Z" style="fill:none;stroke:rgb(137,194,212);stroke-width:7px;"/>
                    <g transform="matrix(1,0,0,1,523.88,399.137)">
                        <g transform="matrix(64,0,0,64,524.687,260.879)">
                            <path d="M0.515,-0.22c0,-0.13 -0.103,-0.213 -0.213,-0.213c-0.11,0 -0.167,0.063 -0.195,0.128c-0,-0.138 0.029,-0.35 0.208,-0.35c0.07,0 0.115,0.03 0.152,0.065l0.03,-0.037c-0,0 -0.057,-0.073 -0.18,-0.073c-0.201,0 -0.262,0.202 -0.262,0.37c-0,0.159 0.042,0.342 0.24,0.342c0.135,0 0.22,-0.102 0.22,-0.232Zm-0.055,0.009c-0,0.09 -0.053,0.175 -0.165,0.175c-0.113,0 -0.168,-0.085 -0.168,-0.175c-0,-0.09 0.055,-0.175 0.168,-0.175c0.112,0 0.165,0.085 0.165,0.175Z" style="fill-rule:nonzero;"/>
                        </g>
                        <g transform="matrix(64,0,0,64,560.527,260.879)">
                            <path d="M0.54,-0.16l0,-0.05l-0.106,0l-0,-0.485l-0.049,0l-0.36,0.495l-0,0.04l0.356,0l-0,0.16l0.053,0l-0,-0.16l0.106,0Zm-0.159,-0.05l-0.296,0l0.296,-0.405l0,0.405Z" style="fill-rule:nonzero;"/>
                        </g>
                        <g transform="matrix(64,0,0,64,511.727,324.879)">
                            <path d="M0.255,-0l0,-0.69l-0.195,0l0,0.045l0.142,0l0,0.645l0.053,-0Z" style="fill-rule:nonzero;"/>
                        </g>
                        <g transform="matrix(64,0,0,64,538.287,324.879)">
                            <path d="M0.505,-0.36c0,-0.159 -0.043,-0.34 -0.24,-0.34c-0.135,-0 -0.22,0.102 -0.22,0.232c-0,0.13 0.102,0.213 0.212,0.213c0.11,0 0.168,-0.065 0.195,-0.13c0,0.13 -0.025,0.22 -0.06,0.273c-0.035,0.052 -0.075,0.077 -0.145,0.077c-0.069,-0 -0.122,-0.027 -0.16,-0.062l-0.03,0.037c0.01,0.01 0.065,0.072 0.19,0.072c0.199,-0 0.258,-0.207 0.258,-0.372Zm-0.073,-0.118c0,0.09 -0.055,0.175 -0.167,0.175c-0.113,-0 -0.165,-0.085 -0.165,-0.175c0,-0.09 0.052,-0.175 0.165,-0.175c0.112,0 0.167,0.085 0.167,0.175Z" style="fill-rule:nonzero;"/>
                        </g>
                        <g transform="matrix(64,0,0,64,573.487,324.879)">
                            <path d="M0.515,-0l0,-0.05l-0.375,0l0.2,-0.195c0.035,-0.035 0.147,-0.13 0.147,-0.252c0,-0.123 -0.092,-0.203 -0.217,-0.203c-0.125,-0 -0.185,0.09 -0.21,0.145l0.04,0.025c0.02,-0.045 0.07,-0.122 0.17,-0.122c0.1,-0 0.162,0.067 0.162,0.157c-0,0.09 -0.072,0.165 -0.117,0.21l-0.25,0.245l0.01,0.04l0.44,-0Z" style="fill-rule:nonzero;"/>
                        </g>
                    </g>
                </g>
                <path d="M1043.89,493.056l-0,-3.136l-29.696,-0l-0,3.136l13.12,-0l-0,41.024l3.456,0l-0,-41.024l13.12,0Z" style="fill-rule:nonzero;"/>
                <path d="M1068.86,534.08l-0,-17.6c-0,-7.872 -3.584,-12.608 -11.84,-12.608c-4.48,-0 -8,1.728 -9.92,3.008l1.28,2.432c0.64,-0.512 4.16,-2.56 8.768,-2.56c4.672,-0 8.32,2.688 8.32,8.128l-0,1.6l-8.128,0.32c-8,0.32 -11.84,3.84 -11.84,8.96c-0,5.12 4.16,8.96 9.92,8.96c5.76,-0 8.96,-3.52 10.048,-4.8l-0,4.16l3.392,-0Zm-3.392,-15.04l-0,7.36c-1.408,2.24 -4.608,5.44 -9.408,5.44c-4.8,-0 -7.232,-2.88 -7.232,-6.08c-0,-3.2 1.984,-5.888 8.192,-6.208l8.448,-0.512Z" style="fill-rule:nonzero;"/>
                <path d="M1095.86,525.952c0,-5.632 -5.568,-7.552 -9.28,-8.832c-3.648,-1.28 -6.848,-2.624 -6.848,-5.696c0,-3.072 2.368,-4.736 5.696,-4.736c3.328,-0 5.376,1.152 7.424,3.392l2.048,-2.048c-2.304,-2.624 -4.992,-4.16 -9.344,-4.16c-4.352,-0 -9.024,2.56 -9.024,7.936c0,5.376 5.568,7.296 8.128,8.192c2.56,0.896 7.872,2.24 7.872,6.08c0,3.84 -3.264,5.632 -6.976,5.632c-3.712,0 -6.656,-1.856 -8.576,-4.672l-2.368,1.92c1.856,3.072 5.312,5.76 10.816,5.76c5.504,0 10.432,-3.2 10.432,-8.768Z" style="fill-rule:nonzero;"/>
                <path d="M1126.78,534.08l-14.08,-18.368l12.16,-11.328l-4.16,-0l-14.272,13.376l0,-27.84l-3.328,-0l0,44.16l3.328,-0l0,-12.608l4.032,-3.712l12.16,16.32l4.16,-0Z" style="fill-rule:nonzero;"/>
                <path d="M1170.93,520.32c0,-9.28 -7.36,-14.4 -14.72,-14.4c-2.24,-0 -4.672,0.32 -6.592,1.28l3.072,-14.208l17.28,-0l0,-3.072l-19.84,-0l-4.16,20.16l2.24,1.28c1.6,-1.6 4.8,-2.368 7.68,-2.368c5.76,-0 11.52,3.648 11.52,11.328c0,7.68 -5.76,11.392 -11.52,11.392c-5.76,-0 -9.6,-3.072 -11.2,-6.272l-2.56,1.92c1.28,2.56 5.44,7.488 13.44,7.488c8,-0 15.36,-5.248 15.36,-14.528Z" style="fill-rule:nonzero;"/>
            </g>
            <g>
                <g>
                    <path d="M846.416,580c0,-5.519 -4.481,-10 -10,-10l-380,0c-5.519,0 -10,4.481 -10,10l-0,180c-0,5.519 4.481,10 10,10l380,-0c5.519,-0 10,-4.481 10,-10l0,-180Z" style="fill:none;stroke:rgb(137,194,212);stroke-width:7px;"/>
                    <g transform="matrix(1,0,0,1,85.8887,399.169)">
                        <g transform="matrix(64,0,0,64,542.607,260.879)">
                            <path d="M0.53,-0.344c0,-0.178 -0.075,-0.356 -0.25,-0.356c-0.174,-0 -0.25,0.178 -0.25,0.356c-0,0.177 0.075,0.355 0.25,0.355c0.175,-0 0.25,-0.178 0.25,-0.355Zm-0.058,-0.002c0,0.18 -0.067,0.307 -0.192,0.307c-0.125,-0 -0.193,-0.127 -0.193,-0.307c-0,-0.18 0.068,-0.307 0.193,-0.307c0.125,0 0.192,0.127 0.192,0.307Z" style="fill-rule:nonzero;"/>
                        </g>
                        <g transform="matrix(64,0,0,64,511.407,324.879)">
                            <path d="M0.255,-0l0,-0.69l-0.195,0l0,0.045l0.142,0l0,0.645l0.053,-0Z" style="fill-rule:nonzero;"/>
                        </g>
                        <g transform="matrix(64,0,0,64,537.967,324.879)">
                            <path d="M0.515,-0l0,-0.05l-0.375,0l0.2,-0.195c0.035,-0.035 0.147,-0.13 0.147,-0.252c0,-0.123 -0.092,-0.203 -0.217,-0.203c-0.125,-0 -0.185,0.09 -0.21,0.145l0.04,0.025c0.02,-0.045 0.07,-0.122 0.17,-0.122c0.1,-0 0.162,0.067 0.162,0.157c-0,0.09 -0.072,0.165 -0.117,0.21l-0.25,0.245l0.01,0.04l0.44,-0Z" style="fill-rule:nonzero;"/>
                        </g>
                        <g transform="matrix(64,0,0,64,573.807,324.879)">
                            <path d="M0.5,-0.187c0,-0.09 -0.055,-0.153 -0.133,-0.178l0,-0.002c0.043,-0.018 0.11,-0.053 0.11,-0.16c0,-0.108 -0.092,-0.173 -0.197,-0.173c-0.105,0 -0.198,0.065 -0.198,0.173c0,0.107 0.068,0.142 0.11,0.16l0,0.002c-0.077,0.025 -0.132,0.088 -0.132,0.178c0,0.125 0.09,0.198 0.22,0.198c0.13,-0 0.22,-0.073 0.22,-0.198Zm-0.078,-0.334c0,0.085 -0.062,0.131 -0.142,0.131c-0.08,0 -0.143,-0.046 -0.143,-0.131c0,-0.085 0.063,-0.131 0.143,-0.131c0.08,0 0.142,0.046 0.142,0.131Zm0.023,0.331c0,0.095 -0.075,0.154 -0.165,0.154c-0.09,0 -0.165,-0.059 -0.165,-0.154c0,-0.095 0.07,-0.152 0.165,-0.152c0.095,-0 0.165,0.057 0.165,0.152Z" style="fill-rule:nonzero;"/>
                        </g>
                    </g>
                </g>
                <path d="M596.624,493.736l-0,-3.136l-29.696,0l-0,3.136l13.12,0l-0,41.024l3.456,0l-0,-41.024l13.12,0Z" style="fill-rule:nonzero;"/>
                <path d="M621.584,534.76l-0,-17.6c-0,-7.872 -3.584,-12.608 -11.84,-12.608c-4.48,0 -8,1.728 -9.92,3.008l1.28,2.432c0.64,-0.512 4.16,-2.56 8.768,-2.56c4.672,0 8.32,2.688 8.32,8.128l-0,1.6l-8.128,0.32c-8,0.32 -11.84,3.84 -11.84,8.96c-0,5.12 4.16,8.96 9.92,8.96c5.76,-0 8.96,-3.52 10.048,-4.8l-0,4.16l3.392,-0Zm-3.392,-15.04l-0,7.36c-1.408,2.24 -4.608,5.44 -9.408,5.44c-4.8,-0 -7.232,-2.88 -7.232,-6.08c-0,-3.2 1.984,-5.888 8.192,-6.208l8.448,-0.512Z" style="fill-rule:nonzero;"/>
                <path d="M648.592,526.632c-0,-5.632 -5.568,-7.552 -9.28,-8.832c-3.648,-1.28 -6.848,-2.624 -6.848,-5.696c-0,-3.072 2.368,-4.736 5.696,-4.736c3.328,-0 5.376,1.152 7.424,3.392l2.048,-2.048c-2.304,-2.624 -4.992,-4.16 -9.344,-4.16c-4.352,-0 -9.024,2.56 -9.024,7.936c-0,5.376 5.568,7.296 8.128,8.192c2.56,0.896 7.872,2.24 7.872,6.08c-0,3.84 -3.264,5.632 -6.976,5.632c-3.712,-0 -6.656,-1.856 -8.576,-4.672l-2.368,1.92c1.856,3.072 5.312,5.76 10.816,5.76c5.504,0 10.432,-3.2 10.432,-8.768Z" style="fill-rule:nonzero;"/>
                <path d="M679.504,534.76l-14.08,-18.368l12.16,-11.328l-4.16,0l-14.272,13.376l-0,-27.84l-3.328,0l-0,44.16l3.328,0l-0,-12.608l4.032,-3.712l12.16,16.32l4.16,-0Z" style="fill-rule:nonzero;"/>
                <path d="M726.544,524.52l0,-3.2l-6.784,0l0,-31.04l-3.136,0l-23.04,31.68l-0,2.56l22.784,0l0,10.24l3.392,0l0,-10.24l6.784,0Zm-10.176,-3.2l-18.944,0l18.944,-25.92l0,25.92Z" style="fill-rule:nonzero;"/>
            </g>
            <g>
                <g>
                    <path d="M1727.94,581c0,-5.519 -4.481,-10 -10,-10l-380,0c-5.519,0 -10,4.481 -10,10l-0,180c-0,5.519 4.481,10 10,10l380,0c5.519,0 10,-4.481 10,-10l0,-180Z" style="fill:none;stroke:rgb(137,194,212);stroke-width:7px;"/>
                    <g transform="matrix(1,0,0,1,967.258,399.817)">
                        <g transform="matrix(64,0,0,64,547.247,260.879)">
                            <path d="M0.255,-0l0,-0.69l-0.195,0l0,0.045l0.142,0l0,0.645l0.053,-0Z" style="fill-rule:nonzero;"/>
                        </g>
                        <g transform="matrix(64,0,0,64,511.407,324.879)">
                            <path d="M0.255,-0l0,-0.69l-0.195,0l0,0.045l0.142,0l0,0.645l0.053,-0Z" style="fill-rule:nonzero;"/>
                        </g>
                        <g transform="matrix(64,0,0,64,537.967,324.879)">
                            <path d="M0.515,-0l0,-0.05l-0.375,0l0.2,-0.195c0.035,-0.035 0.147,-0.13 0.147,-0.252c0,-0.123 -0.092,-0.203 -0.217,-0.203c-0.125,-0 -0.185,0.09 -0.21,0.145l0.04,0.025c0.02,-0.045 0.07,-0.122 0.17,-0.122c0.1,-0 0.162,0.067 0.162,0.157c-0,0.09 -0.072,0.165 -0.117,0.21l-0.25,0.245l0.01,0.04l0.44,-0Z" style="fill-rule:nonzero;"/>
                        </g>
                        <g transform="matrix(64,0,0,64,573.807,324.879)">
                            <path d="M0.505,-0.36c0,-0.159 -0.043,-0.34 -0.24,-0.34c-0.135,-0 -0.22,0.102 -0.22,0.232c-0,0.13 0.102,0.213 0.212,0.213c0.11,0 0.168,-0.065 0.195,-0.13c0,0.13 -0.025,0.22 -0.06,0.273c-0.035,0.052 -0.075,0.077 -0.145,0.077c-0.069,-0 -0.122,-0.027 -0.16,-0.062l-0.03,0.037c0.01,0.01 0.065,0.072 0.19,0.072c0.199,-0 0.258,-0.207 0.258,-0.372Zm-0.073,-0.118c0,0.09 -0.055,0.175 -0.167,0.175c-0.113,-0 -0.165,-0.085 -0.165,-0.175c0,-0.09 0.052,-0.175 0.165,-0.175c0.112,0 0.167,0.085 0.167,0.175Z" style="fill-rule:nonzero;"/>
                        </g>
                    </g>
                </g>
                <path d="M1475.62,493.736l-0,-3.136l-29.696,-0l-0,3.136l13.12,-0l-0,41.024l3.456,-0l-0,-41.024l13.12,-0Z" style="fill-rule:nonzero;"/>
                <path d="M1500.58,534.76l-0,-17.6c-0,-7.872 -3.584,-12.608 -11.84,-12.608c-4.48,-0 -8,1.728 -9.92,3.008l1.28,2.432c0.64,-0.512 4.16,-2.56 8.768,-2.56c4.672,-0 8.32,2.688 8.32,8.128l-0,1.6l-8.128,0.32c-8,0.32 -11.84,3.84 -11.84,8.96c-0,5.12 4.16,8.96 9.92,8.96c5.76,-0 8.96,-3.52 10.048,-4.8l-0,4.16l3.392,-0Zm-3.392,-15.04l-0,7.36c-1.408,2.24 -4.608,5.44 -9.408,5.44c-4.8,-0 -7.232,-2.88 -7.232,-6.08c-0,-3.2 1.984,-5.888 8.192,-6.208l8.448,-0.512Z" style="fill-rule:nonzero;"/>
                <path d="M1527.59,526.632c-0,-5.632 -5.568,-7.552 -9.28,-8.832c-3.648,-1.28 -6.848,-2.624 -6.848,-5.696c-0,-3.072 2.368,-4.736 5.696,-4.736c3.328,-0 5.376,1.152 7.424,3.392l2.048,-2.048c-2.304,-2.624 -4.992,-4.16 -9.344,-4.16c-4.352,-0 -9.024,2.56 -9.024,7.936c-0,5.376 5.568,7.296 8.128,8.192c2.56,0.896 7.872,2.24 7.872,6.08c-0,3.84 -3.264,5.632 -6.976,5.632c-3.712,-0 -6.656,-1.856 -8.576,-4.672l-2.368,1.92c1.856,3.072 5.312,5.76 10.816,5.76c5.504,-0 10.432,-3.2 10.432,-8.768Z" style="fill-rule:nonzero;"/>
                <path d="M1558.5,534.76l-14.08,-18.368l12.16,-11.328l-4.16,-0l-14.272,13.376l-0,-27.84l-3.328,-0l-0,44.16l3.328,-0l-0,-12.608l4.032,-3.712l12.16,16.32l4.16,-0Z" style="fill-rule:nonzero;"/>
                <path d="M1603.94,520.68c-0,-8.32 -6.592,-13.632 -13.632,-13.632c-7.04,-0 -10.688,4.032 -12.48,8.192c-0,-8.832 1.856,-22.4 13.312,-22.4c4.48,-0 7.36,1.92 9.728,4.16l1.92,-2.368c-0,-0 -3.648,-4.672 -11.52,-4.672c-12.864,-0 -16.768,12.928 -16.768,23.68c-0,10.176 2.688,21.888 15.36,21.888c8.64,-0 14.08,-6.528 14.08,-14.848Zm-3.52,0.576c-0,5.76 -3.392,11.2 -10.56,11.2c-7.232,-0 -10.752,-5.44 -10.752,-11.2c-0,-5.76 3.52,-11.2 10.752,-11.2c7.168,-0 10.56,5.44 10.56,11.2Z" style="fill-rule:nonzero;"/>
            </g>
            <g>
                <g>
                    <path d="M2164.93,580c0,-5.519 -4.481,-10 -10,-10l-380,0c-5.519,0 -10,4.481 -10,10l-0,180c-0,5.519 4.481,10 10,10l380,-0c5.519,-0 10,-4.481 10,-10l0,-180Z" style="fill:none;stroke:rgb(137,194,212);stroke-width:7px;"/>
                    <g transform="matrix(1,0,0,1,1404.56,399.137)">
                        <g transform="matrix(64,0,0,64,524.687,260.879)">
                            <path d="M0.515,-0.22c0,-0.13 -0.103,-0.213 -0.213,-0.213c-0.11,0 -0.167,0.063 -0.195,0.128c-0,-0.138 0.029,-0.35 0.208,-0.35c0.07,0 0.115,0.03 0.152,0.065l0.03,-0.037c-0,0 -0.057,-0.073 -0.18,-0.073c-0.201,0 -0.262,0.202 -0.262,0.37c-0,0.159 0.042,0.342 0.24,0.342c0.135,0 0.22,-0.102 0.22,-0.232Zm-0.055,0.009c-0,0.09 -0.053,0.175 -0.165,0.175c-0.113,0 -0.168,-0.085 -0.168,-0.175c-0,-0.09 0.055,-0.175 0.168,-0.175c0.112,0 0.165,0.085 0.165,0.175Z" style="fill-rule:nonzero;"/>
                        </g>
                        <g transform="matrix(64,0,0,64,560.527,260.879)">
                            <path d="M0.495,-0.215c0,-0.145 -0.115,-0.225 -0.23,-0.225c-0.035,0 -0.073,0.005 -0.103,0.02l0.048,-0.222l0.27,0l-0,-0.048l-0.31,0l-0.065,0.315l0.035,0.02c0.025,-0.025 0.075,-0.037 0.12,-0.037c0.09,0 0.18,0.057 0.18,0.177c0,0.12 -0.09,0.178 -0.18,0.178c-0.09,0 -0.15,-0.048 -0.175,-0.098l-0.04,0.03c0.02,0.04 0.085,0.117 0.21,0.117c0.125,0 0.24,-0.082 0.24,-0.227Z" style="fill-rule:nonzero;"/>
                        </g>
                        <g transform="matrix(64,0,0,64,511.727,324.879)">
                            <path d="M0.255,-0l0,-0.69l-0.195,0l0,0.045l0.142,0l0,0.645l0.053,-0Z" style="fill-rule:nonzero;"/>
                        </g>
                        <g transform="matrix(64,0,0,64,538.287,324.879)">
                            <path d="M0.505,-0.36c0,-0.159 -0.043,-0.34 -0.24,-0.34c-0.135,-0 -0.22,0.102 -0.22,0.232c-0,0.13 0.102,0.213 0.212,0.213c0.11,0 0.168,-0.065 0.195,-0.13c0,0.13 -0.025,0.22 -0.06,0.273c-0.035,0.052 -0.075,0.077 -0.145,0.077c-0.069,-0 -0.122,-0.027 -0.16,-0.062l-0.03,0.037c0.01,0.01 0.065,0.072 0.19,0.072c0.199,-0 0.258,-0.207 0.258,-0.372Zm-0.073,-0.118c0,0.09 -0.055,0.175 -0.167,0.175c-0.113,-0 -0.165,-0.085 -0.165,-0.175c0,-0.09 0.052,-0.175 0.165,-0.175c0.112,0 0.167,0.085 0.167,0.175Z" style="fill-rule:nonzero;"/>
                        </g>
                        <g transform="matrix(64,0,0,64,573.487,324.879)">
                            <path d="M0.495,-0.187c0,-0.118 -0.09,-0.168 -0.14,-0.175l0,-0.003c0.04,-0.01 0.12,-0.05 0.12,-0.16c0,-0.11 -0.095,-0.175 -0.2,-0.175c-0.105,0 -0.161,0.05 -0.205,0.105l0.035,0.03c0.04,-0.045 0.085,-0.087 0.165,-0.087c0.08,0 0.15,0.047 0.15,0.132c0,0.085 -0.06,0.133 -0.145,0.133l-0.045,0l0,0.052l0.045,0c0.09,0 0.165,0.05 0.165,0.148c0,0.097 -0.073,0.149 -0.178,0.149c-0.105,0 -0.167,-0.104 -0.167,-0.104l-0.04,0.032c0,0 0.067,0.12 0.205,0.12c0.137,0 0.235,-0.08 0.235,-0.197Z" style="fill-rule:nonzero;"/>
                        </g>
                    </g>
                </g>
                <path d="M1923.94,493.736l0,-3.136l-29.696,-0l0,3.136l13.12,-0l0,41.024l3.456,-0l0,-41.024l13.12,-0Z" style="fill-rule:nonzero;"/>
                <path d="M1948.9,534.76l0,-17.6c0,-7.872 -3.584,-12.608 -11.84,-12.608c-4.48,-0 -8,1.728 -9.92,3.008l1.28,2.432c0.64,-0.512 4.16,-2.56 8.768,-2.56c4.672,-0 8.32,2.688 8.32,8.128l0,1.6l-8.128,0.32c-8,0.32 -11.84,3.84 -11.84,8.96c0,5.12 4.16,8.96 9.92,8.96c5.76,-0 8.96,-3.52 10.048,-4.8l0,4.16l3.392,-0Zm-3.392,-15.04l0,7.36c-1.408,2.24 -4.608,5.44 -9.408,5.44c-4.8,-0 -7.232,-2.88 -7.232,-6.08c0,-3.2 1.984,-5.888 8.192,-6.208l8.448,-0.512Z" style="fill-rule:nonzero;"/>
                <path d="M1975.9,526.632c0,-5.632 -5.568,-7.552 -9.28,-8.832c-3.648,-1.28 -6.848,-2.624 -6.848,-5.696c0,-3.072 2.368,-4.736 5.696,-4.736c3.328,-0 5.376,1.152 7.424,3.392l2.048,-2.048c-2.304,-2.624 -4.992,-4.16 -9.344,-4.16c-4.352,-0 -9.024,2.56 -9.024,7.936c0,5.376 5.568,7.296 8.128,8.192c2.56,0.896 7.872,2.24 7.872,6.08c0,3.84 -3.264,5.632 -6.976,5.632c-3.712,-0 -6.656,-1.856 -8.576,-4.672l-2.368,1.92c1.856,3.072 5.312,5.76 10.816,5.76c5.504,-0 10.432,-3.2 10.432,-8.768Z" style="fill-rule:nonzero;"/>
                <path d="M2006.82,534.76l-14.08,-18.368l12.16,-11.328l-4.16,-0l-14.272,13.376l0,-27.84l-3.328,-0l0,44.16l3.328,-0l0,-12.608l4.032,-3.712l12.16,16.32l4.16,-0Z" style="fill-rule:nonzero;"/>
                <path d="M2053.22,492.52l-0.96,-1.92l-29.12,-0l0,3.072l25.92,-0l-21.76,41.088l3.52,-0l22.4,-42.24Z" style="fill-rule:nonzero;"/>
            </g>
        </g>
        <g>
            <g>
                <path d="M82.89,654.284l-18.35,10.596c-7.305,4.217 -7.009,11.237 0.661,15.665l157.499,90.934c7.67,4.428 19.827,4.599 27.132,0.382l105.881,-61.132c7.305,-4.217 7.008,-11.237 -0.662,-15.665l-16.241,-11.307" style="fill:white;stroke:black;stroke-width:10px;"/>
                <path d="M323.9,677.078l-126.347,-72.948c-7.67,-4.428 -19.827,-4.599 -27.132,-0.382l-75.554,43.623" style="fill:white;stroke:black;stroke-width:10px;"/>
                <path d="M57.945,634.245c0.072,2.871 2.067,2.915 5.952,5.158l157.498,90.934c7.67,4.428 19.828,4.6 27.132,0.382l105.882,-61.132c3.604,-2.081 5.358,-4.844 5.288,-7.641l0.002,-0l0,30.726l0,-0c0,2.742 -1.755,5.44 -5.29,7.481l-105.882,61.132c-7.304,4.217 -19.462,4.046 -27.132,-0.382l-157.498,-90.934c-3.885,-2.243 -5.88,-5.151 -5.952,-8.023l-0,-27.701Z" style="fill:rgb(137,194,212);"/>
                <path d="M196.249,553.437c-7.67,-4.429 -19.828,-4.6 -27.133,-0.383l-105.881,61.132c-7.305,4.218 -7.008,11.237 0.662,15.665l157.498,90.934c7.67,4.428 19.828,4.6 27.132,0.382l105.882,-61.132c7.304,-4.217 7.008,-11.236 -0.662,-15.665l-157.498,-90.933Z" style="fill:white;stroke:black;stroke-width:10px;"/>
                <g>
                    <path d="M341.69,687.347c2.429,-1.402 4.401,-0.264 4.401,2.541c-0,2.805 -1.972,6.22 -4.401,7.623c-2.429,1.402 -4.401,0.263 -4.401,-2.541c-0,-2.805 1.972,-6.221 4.401,-7.623Z" style="fill:white;"/>
                    <path d="M327.461,695.562c2.429,-1.402 4.401,-0.264 4.401,2.541c-0,2.805 -1.972,6.221 -4.401,7.623c-2.429,1.402 -4.401,0.264 -4.401,-2.541c-0,-2.805 1.972,-6.22 4.401,-7.623Z" style="fill:white;"/>
                    <path d="M314.251,708.271l-57.593,33.252" style="fill:none;stroke:white;stroke-width:10px;"/>
                </g>
            </g>
            <path d="M157.078,524.16l-0,-44.16l-3.456,0l-0,38.08l-29.12,-38.08l-3.456,0l-0,44.16l3.456,0l-0,-38.72l29.44,38.72l3.136,0Z" style="fill-rule:nonzero;"/>
            <path d="M195.478,509.44c-0,-8.96 -6.72,-15.488 -15.232,-15.488c-8.448,-0 -15.168,6.528 -15.168,15.488c-0,8.96 6.72,15.36 15.168,15.36c8.512,0 15.232,-6.4 15.232,-15.36Zm-3.52,-0.128c-0,6.848 -4.48,12.48 -11.712,12.48c-7.168,0 -11.648,-5.632 -11.648,-12.48c-0,-6.912 4.48,-12.48 11.648,-12.48c7.232,0 11.712,5.568 11.712,12.48Z" style="fill-rule:nonzero;"/>
            <path d="M200.598,509.312c-0,8.768 5.76,15.488 14.72,15.488c4.48,0 8.512,-1.92 11.008,-6.144l-0,5.504l3.392,0l-0,-44.16l-3.392,0l-0,20.032c-2.88,-4.352 -6.848,-6.08 -11.136,-6.08c-8.832,0 -14.592,6.528 -14.592,15.36Zm3.52,0c-0,-6.912 4.032,-12.48 11.2,-12.48c7.232,0 11.2,5.568 11.2,12.48c-0,6.848 -3.968,12.48 -11.2,12.48c-7.168,0 -11.2,-5.632 -11.2,-12.48Z" style="fill-rule:nonzero;"/>
            <path d="M265.238,507.84c-0,-8 -5.632,-13.888 -13.44,-13.888c-7.872,-0 -14.4,6.208 -14.4,15.36c-0,9.088 5.568,15.488 14.208,15.488c8.64,-0 12.352,-4.48 12.352,-4.48l-1.6,-2.368c-0,0 -3.712,3.84 -10.432,3.84c-6.72,-0 -10.688,-4.672 -11.008,-11.712l24.128,-0c-0,-0 0.192,-1.28 0.192,-2.24Zm-3.392,-0.64l-20.8,-0c0.192,-4.16 3.2,-10.368 10.56,-10.368c7.36,-0 10.24,6.528 10.24,10.368Z" style="fill-rule:nonzero;"/>
            <path d="M313.238,524.16l-0,-3.2l-24,0l12.8,-12.48c2.24,-2.24 9.408,-8.32 9.408,-16.128c-0,-7.872 -5.888,-12.992 -13.888,-12.992c-8,0 -11.84,5.76 -13.44,9.28l2.56,1.6c1.28,-2.88 4.48,-7.808 10.88,-7.808c6.4,0 10.368,4.288 10.368,10.048c-0,5.76 -4.608,10.56 -7.488,13.44l-16,15.68l0.64,2.56l28.16,0Z" style="fill-rule:nonzero;"/>
        </g>
    </g>
</svg>
