<svg viewBox="0 0 2254 860" xmlns="http://www.w3.org/2000/svg" fill-rule="evenodd" clip-rule="evenodd" stroke-linecap="round" stroke-linejoin="round" stroke-miterlimit="1.5"><path d="M2211.83 68a18 18 0 00-18-18H424.42a18 18 0 00-18 18v324a18 18 0 0018 18h1769.41a18 18 0 0018-18V68z" fill="none" stroke="#000" stroke-width="7"/><path d="M1284.89 180a10 10 0 00-10-10h-380a10 10 0 00-10 10v180a10 10 0 0010 10h380a10 10 0 0010-10V180z" fill="none" stroke="#89c2d4" stroke-width="7"/><path d="M1025.82 245.94c0-8.32-6.6-13.64-13.64-13.64-7.04 0-10.68 4.04-12.48 8.2 0-8.84 1.86-22.4 13.32-22.4 4.48 0 7.36 1.92 9.72 4.16l1.92-2.37s-3.65-4.67-11.52-4.67c-12.86 0-16.76 12.92-16.76 23.68 0 10.17 2.68 21.88 15.36 21.88 8.64 0 14.08-6.52 14.08-14.84zm-3.52.57c0 5.76-3.4 11.2-10.56 11.2-7.24 0-10.76-5.44-10.76-11.2 0-5.76 3.52-11.2 10.76-11.2 7.16 0 10.56 5.44 10.56 11.2zM1063.25 249.78v-3.2h-6.78v-31.04h-3.14l-23.04 31.68v2.56h22.79v10.24h3.4v-10.24h6.77zm-10.17-3.2h-18.94l18.94-25.92v25.92zM1065.81 240.82h14.08v3.2h-14.08zM1095.64 260.02v-44.16h-12.48v2.88h9.09v41.28h3.39zM1138.84 260.02v-3.2h-24l12.8-12.48c2.24-2.24 9.4-8.32 9.4-16.13 0-7.87-5.88-13-13.88-13s-11.84 5.77-13.44 9.29l2.56 1.6c1.28-2.88 4.48-7.81 10.88-7.81s10.37 4.29 10.37 10.05c0 5.76-4.61 10.56-7.5 13.44l-16 15.68.65 2.56h28.16zM1174.04 217.78l-.96-1.92h-29.12v3.07h25.92l-21.76 41.09h3.52l22.4-42.24zM989.82 324.02v-44.16h-12.48v2.88h9.08v41.28h3.4zM1032.38 300.98c0-10.18-2.76-21.76-15.37-21.76-8.64 0-14.08 6.52-14.08 14.84s6.53 13.64 13.57 13.64 10.75-4.16 12.48-8.32c0 8.32-1.6 14.08-3.84 17.47-2.24 3.33-4.8 4.93-9.28 4.93-4.41 0-7.8-1.73-10.24-3.97l-1.92 2.37c.64.64 4.16 4.6 12.16 4.6 12.74 0 16.52-13.24 16.52-23.8zm-4.68-7.56c0 5.76-3.52 11.2-10.69 11.2-7.23 0-10.56-5.44-10.56-11.2 0-5.76 3.33-11.2 10.56-11.2 7.17 0 10.7 5.44 10.7 11.2zM1068.22 324.02v-3.2h-24l12.8-12.48c2.24-2.24 9.4-8.32 9.4-16.13 0-7.87-5.89-13-13.89-13s-11.83 5.77-13.43 9.29l2.56 1.6c1.27-2.88 4.47-7.81 10.87-7.81 6.4 0 10.37 4.29 10.37 10.05 0 5.76-4.6 10.56-7.49 13.44l-16 15.68.64 2.56h28.17zM1072.38 304.82h14.07v3.2h-14.08zM1120.76 324.02v-3.2h-24l12.8-12.48c2.24-2.24 9.4-8.32 9.4-16.13 0-7.87-5.88-13-13.88-13s-11.84 5.77-13.44 9.29l2.56 1.6c1.28-2.88 4.48-7.81 10.88-7.81s10.37 4.29 10.37 10.05c0 5.76-4.61 10.56-7.5 13.44l-16 15.68.65 2.56h28.16zM1155.32 310.26c0-9.28-7.36-14.4-14.72-14.4-2.24 0-4.67.32-6.6 1.28l3.08-14.21h17.28v-3.07h-19.84l-4.16 20.16 2.24 1.28c1.6-1.6 4.8-2.37 7.68-2.37 5.76 0 11.52 3.65 11.52 11.33s-5.76 11.39-11.52 11.39-9.6-3.07-11.2-6.27l-2.56 1.92c1.28 2.56 5.44 7.48 13.44 7.48 8 0 15.36-5.24 15.36-14.52zM1194.04 313.78v-3.2h-6.78v-31.04h-3.14l-23.04 31.68v2.56h22.78v10.24h3.4v-10.24h6.78zm-10.18-3.2h-18.94l18.94-25.92v25.92zM1043.89 93.06v-3.14h-29.7v3.14h13.12v41.02h3.46V93.06h13.12zM1068.86 134.08v-17.6c0-7.87-3.58-12.6-11.84-12.6-4.48 0-8 1.72-9.92 3l1.28 2.43c.64-.51 4.16-2.56 8.77-2.56 4.67 0 8.32 2.69 8.32 8.13v1.6l-8.13.32c-8 .32-11.84 3.84-11.84 8.96 0 5.12 4.16 8.96 9.92 8.96s8.96-3.52 10.05-4.8v4.16h3.39zm-3.4-15.04v7.36c-1.4 2.24-4.6 5.44-9.4 5.44-4.8 0-7.23-2.88-7.23-6.08s1.98-5.89 8.19-6.2l8.45-.52zM1095.86 125.95c0-5.63-5.57-7.55-9.28-8.83-3.65-1.28-6.85-2.62-6.85-5.7 0-3.07 2.37-4.73 5.7-4.73s5.37 1.15 7.42 3.39l2.05-2.05c-2.3-2.62-5-4.16-9.34-4.16-4.36 0-9.03 2.56-9.03 7.94 0 5.37 5.57 7.3 8.13 8.19 2.56.9 7.87 2.24 7.87 6.08s-3.26 5.63-6.97 5.63c-3.72 0-6.66-1.85-8.58-4.67l-2.37 1.92c1.86 3.07 5.31 5.76 10.82 5.76 5.5 0 10.43-3.2 10.43-8.77zM1126.78 134.08l-14.08-18.37 12.16-11.33h-4.16l-14.27 13.38V89.92h-3.33v44.16h3.33v-12.6l4.03-3.72 12.16 16.32h4.16zM1155.58 134.08V89.92h-12.48v2.88h9.09v41.28h3.39z" fill-rule="nonzero"/><g><path d="M846.42 180a10 10 0 00-10-10h-380a10 10 0 00-10 10v180a10 10 0 0010 10h380a10 10 0 0010-10V180z" fill="none" stroke="#89c2d4" stroke-width="7"/><path d="M618.54 238.03c0-11.39-4.8-22.78-16-22.78-11.13 0-16 11.39-16 22.78 0 11.33 4.8 22.72 16 22.72s16-11.39 16-22.72zm-3.7-.13c0 11.52-4.3 19.65-12.3 19.65s-12.35-8.13-12.35-19.65c0-11.52 4.35-19.64 12.35-19.64s12.3 8.12 12.3 19.64zM621.74 240.85h14.08v3.2h-14.08zM670.13 245.97c0-8.32-6.6-13.63-13.63-13.63-7.04 0-10.7 4.03-12.48 8.19 0-8.83 1.85-22.4 13.3-22.4 4.49 0 7.37 1.92 9.74 4.16l1.92-2.37s-3.65-4.67-11.52-4.67c-12.87 0-16.77 12.93-16.77 23.68 0 10.17 2.69 21.89 15.36 21.89 8.64 0 14.08-6.53 14.08-14.85zm-3.52.57c0 5.76-3.4 11.2-10.56 11.2-7.23 0-10.75-5.44-10.75-11.2 0-5.76 3.52-11.2 10.75-11.2 7.17 0 10.56 5.44 10.56 11.2zM704.05 248.08c0-7.55-5.76-10.75-8.96-11.2v-.2c2.56-.63 7.68-3.2 7.68-10.23 0-7.04-6.08-11.2-12.8-11.2-6.72 0-10.3 3.2-13.12 6.72l2.24 1.92c2.56-2.88 5.44-5.57 10.56-5.57s9.6 3 9.6 8.45c0 5.44-3.84 8.51-9.28 8.51h-2.88v3.33h2.88c5.76 0 10.56 3.2 10.56 9.47 0 6.2-4.67 9.54-11.4 9.54-6.71 0-10.68-6.66-10.68-6.66l-2.56 2.05s4.29 7.68 13.12 7.68c8.77 0 15.04-5.12 15.04-12.61zM561.74 324.05v-44.16h-12.48v2.88h9.1v41.28h3.38zM604.94 324.05v-3.2h-24l12.8-12.48c2.24-2.24 9.41-8.32 9.41-16.13 0-7.87-5.89-13-13.89-13s-11.84 5.77-13.44 9.29l2.56 1.6c1.28-2.88 4.48-7.81 10.88-7.81s10.37 4.29 10.37 10.05c0 5.76-4.6 10.56-7.49 13.44l-16 15.68.64 2.56h28.16zM639.82 312.08c0-5.76-3.52-9.8-8.5-11.4v-.12c2.74-1.15 7.03-3.4 7.03-10.24 0-6.91-5.89-11.07-12.6-11.07-6.73 0-12.68 4.16-12.68 11.07 0 6.85 4.35 9.09 7.04 10.24v.13c-4.93 1.6-8.45 5.63-8.45 11.39 0 8 5.76 12.67 14.08 12.67s14.08-4.67 14.08-12.67zm-4.99-21.38c0 5.44-3.97 8.39-9.09 8.39-5.12 0-9.15-2.95-9.15-8.39s4.03-8.38 9.15-8.38 9.1 2.94 9.1 8.38zm1.47 21.19c0 6.08-4.8 9.85-10.56 9.85-5.76 0-10.56-3.77-10.56-9.85s4.48-9.73 10.56-9.73 10.56 3.65 10.56 9.73zM644.94 304.85h14.08v3.2h-14.08zM674.77 324.05v-44.16h-12.48v2.88h9.09v41.28h3.39zM717.33 301c0-10.17-2.75-21.75-15.36-21.75-8.64 0-14.08 6.53-14.08 14.85s6.53 13.63 13.57 13.63 10.75-4.16 12.48-8.32c0 8.32-1.6 14.08-3.84 17.47-2.24 3.33-4.8 4.93-9.28 4.93-4.42 0-7.81-1.73-10.24-3.97l-1.92 2.37c.64.64 4.16 4.6 12.16 4.6 12.73 0 16.5-13.24 16.5-23.8zm-4.67-7.54c0 5.76-3.52 11.2-10.7 11.2-7.22 0-10.55-5.44-10.55-11.2 0-5.76 3.33-11.2 10.56-11.2 7.17 0 10.69 5.44 10.69 11.2zM737.17 324.05v-44.16h-12.48v2.88h9.09v41.28h3.39zM596.62 93.74V90.6h-29.7v3.14h13.13v41.02h3.45V93.74h13.12zM621.58 134.76v-17.6c0-7.87-3.58-12.6-11.84-12.6-4.48 0-8 1.72-9.92 3l1.28 2.43c.64-.51 4.16-2.56 8.77-2.56 4.67 0 8.32 2.69 8.32 8.13v1.6l-8.13.32c-8 .32-11.84 3.84-11.84 8.96 0 5.12 4.16 8.96 9.92 8.96s8.96-3.52 10.05-4.8v4.16h3.4zm-3.39-15.04v7.36c-1.4 2.24-4.6 5.44-9.4 5.44-4.8 0-7.24-2.88-7.24-6.08s1.99-5.89 8.2-6.2l8.44-.52zM648.6 126.63c0-5.63-5.58-7.55-9.29-8.83-3.65-1.28-6.85-2.62-6.85-5.7 0-3.07 2.37-4.73 5.7-4.73s5.38 1.15 7.42 3.39l2.05-2.05c-2.3-2.62-4.99-4.16-9.34-4.16s-9.03 2.56-9.03 7.94c0 5.37 5.57 7.3 8.13 8.19 2.56.9 7.87 2.24 7.87 6.08s-3.26 5.63-6.97 5.63-6.66-1.85-8.58-4.67l-2.37 1.92c1.86 3.07 5.32 5.76 10.82 5.76s10.43-3.2 10.43-8.77zM679.5 134.76l-14.08-18.37 12.16-11.33h-4.16l-14.27 13.38V90.6h-3.33v44.16h3.33v-12.6l4.03-3.72 12.16 16.32h4.16zM725.9 112.74c0-11.39-4.8-22.78-16-22.78-11.13 0-16 11.4-16 22.78 0 11.33 4.8 22.72 16 22.72s16-11.39 16-22.72zm-3.7-.12c0 11.52-4.3 19.64-12.3 19.64s-12.35-8.12-12.35-19.64c0-11.52 4.35-19.65 12.35-19.65s12.3 8.13 12.3 19.65z" fill-rule="nonzero"/></g><g><path d="M1727.94 181a10 10 0 00-10-10h-380a10 10 0 00-10 10v180a10 10 0 0010 10h380a10 10 0 0010-10V181z" fill="none" stroke="#89c2d4" stroke-width="7"/><path d="M1499.91 238.68c0-11.4-4.8-22.78-16-22.78-11.13 0-16 11.39-16 22.78 0 11.33 4.8 22.72 16 22.72s16-11.4 16-22.72zm-3.7-.13c0 11.52-4.3 19.65-12.3 19.65s-12.35-8.13-12.35-19.65c0-11.52 4.35-19.65 12.35-19.65s12.3 8.13 12.3 19.65zM1503.11 241.5h14.08v3.2h-14.08zM1551.5 246.62c0-8.32-6.6-13.64-13.63-13.64-7.04 0-10.7 4.04-12.48 8.2 0-8.84 1.85-22.4 13.3-22.4 4.49 0 7.37 1.92 9.73 4.16l1.92-2.37s-3.64-4.67-11.51-4.67c-12.87 0-16.77 12.92-16.77 23.68 0 10.17 2.69 21.88 15.36 21.88 8.64 0 14.08-6.52 14.08-14.84zm-3.52.57c0 5.76-3.4 11.2-10.56 11.2-7.23 0-10.75-5.44-10.75-11.2 0-5.76 3.52-11.2 10.75-11.2 7.17 0 10.56 5.44 10.56 11.2zM1585.42 248.73c0-7.55-5.76-10.75-8.96-11.2v-.2c2.56-.63 7.68-3.2 7.68-10.23 0-7.04-6.08-11.2-12.8-11.2-6.72 0-10.3 3.2-13.12 6.72l2.24 1.92c2.56-2.88 5.44-5.57 10.56-5.57s9.6 3 9.6 8.45c0 5.44-3.84 8.5-9.28 8.5h-2.88v3.34h2.88c5.76 0 10.56 3.2 10.56 9.47 0 6.2-4.67 9.53-11.4 9.53-6.71 0-10.68-6.65-10.68-6.65l-2.56 2.05s4.29 7.68 13.12 7.68c8.76 0 15.04-5.12 15.04-12.61zM1443.11 324.7v-44.16h-12.48v2.88h9.1v41.28h3.38zM1486.31 324.7v-3.2h-24l12.8-12.48c2.24-2.24 9.41-8.32 9.41-16.13 0-7.87-5.89-13-13.89-13s-11.84 5.77-13.44 9.29l2.56 1.6c1.28-2.88 4.48-7.81 10.88-7.81s10.37 4.29 10.37 10.05c0 5.76-4.6 10.56-7.49 13.44l-16 15.68.64 2.56h28.16zM1521.2 312.73c0-5.76-3.53-9.8-8.52-11.4v-.12c2.75-1.15 7.04-3.4 7.04-10.24 0-6.91-5.89-11.07-12.6-11.07-6.73 0-12.68 4.16-12.68 11.07 0 6.85 4.35 9.09 7.04 10.24v.13c-4.93 1.6-8.45 5.63-8.45 11.39 0 8 5.76 12.67 14.08 12.67s14.08-4.67 14.08-12.67zm-5-21.38c0 5.44-3.97 8.39-9.09 8.39-5.12 0-9.15-2.95-9.15-8.39s4.03-8.38 9.15-8.38 9.1 2.94 9.1 8.38zm1.47 21.19c0 6.08-4.8 9.85-10.56 9.85-5.76 0-10.56-3.77-10.56-9.85s4.48-9.73 10.56-9.73 10.56 3.65 10.56 9.73zM1526.31 305.5h14.08v3.2h-14.08zM1556.14 324.7v-44.16h-12.48v2.88h9.08v41.28h3.4zM1598.7 301.66c0-10.18-2.76-21.76-15.36-21.76-8.64 0-14.08 6.52-14.08 14.84s6.53 13.64 13.57 13.64 10.75-4.16 12.48-8.32c0 8.32-1.6 14.08-3.84 17.47-2.24 3.33-4.8 4.93-9.28 4.93-4.42 0-7.81-1.73-10.24-3.97l-1.92 2.37c.64.64 4.16 4.6 12.16 4.6 12.73 0 16.5-13.24 16.5-23.8zm-4.68-7.56c0 5.76-3.52 11.2-10.68 11.2-7.24 0-10.56-5.44-10.56-11.2 0-5.76 3.32-11.2 10.56-11.2 7.16 0 10.68 5.44 10.68 11.2zM1618.54 324.7v-44.16h-12.48v2.88h9.09v41.28h3.39zM1475.62 93.74V90.6h-29.7v3.14h13.12v41.02h3.46V93.74h13.12zM1500.58 134.76v-17.6c0-7.87-3.58-12.6-11.84-12.6-4.48 0-8 1.72-9.92 3l1.28 2.43c.64-.51 4.16-2.56 8.77-2.56 4.67 0 8.32 2.69 8.32 8.13v1.6l-8.13.32c-8 .32-11.84 3.84-11.84 8.96 0 5.12 4.16 8.96 9.92 8.96s8.96-3.52 10.05-4.8v4.16h3.39zm-3.4-15.04v7.36c-1.4 2.24-4.6 5.44-9.4 5.44-4.8 0-7.23-2.88-7.23-6.08s1.98-5.89 8.19-6.2l8.45-.52zM1527.59 126.63c0-5.63-5.57-7.55-9.28-8.83-3.65-1.28-6.85-2.62-6.85-5.7 0-3.07 2.37-4.73 5.7-4.73s5.37 1.15 7.42 3.39l2.05-2.05c-2.3-2.62-5-4.16-9.34-4.16-4.36 0-9.03 2.56-9.03 7.94 0 5.37 5.57 7.3 8.13 8.19 2.56.9 7.87 2.24 7.87 6.08s-3.26 5.63-6.97 5.63c-3.72 0-6.66-1.85-8.58-4.67l-2.37 1.92c1.86 3.07 5.31 5.76 10.82 5.76 5.5 0 10.43-3.2 10.43-8.77zM1558.5 134.76l-14.08-18.37 12.16-11.33h-4.16l-14.27 13.38V90.6h-3.33v44.16h3.33v-12.6l4.03-3.72 12.16 16.32h4.16zM1603.94 134.76v-3.2h-24l12.8-12.48c2.24-2.24 9.4-8.32 9.4-16.13 0-7.87-5.88-12.99-13.88-12.99s-11.84 5.76-13.44 9.28l2.56 1.6c1.28-2.88 4.48-7.8 10.88-7.8s10.37 4.28 10.37 10.04c0 5.76-4.61 10.56-7.49 13.44l-16 15.68.64 2.56h28.16z" fill-rule="nonzero"/></g><g><path d="M2164.93 180a10 10 0 00-10-10h-380a10 10 0 00-10 10v180a10 10 0 0010 10h380a10 10 0 0010-10V180z" fill="none" stroke="#89c2d4" stroke-width="7"/><path d="M1906.5 245.94c0-8.32-6.6-13.64-13.64-13.64-7.04 0-10.69 4.04-12.48 8.2 0-8.84 1.86-22.4 13.31-22.4 4.48 0 7.36 1.92 9.73 4.16l1.92-2.37s-3.65-4.67-11.52-4.67c-12.86 0-16.77 12.92-16.77 23.68 0 10.17 2.7 21.88 15.36 21.88 8.64 0 14.08-6.52 14.08-14.84zm-3.53.57c0 5.76-3.39 11.2-10.56 11.2-7.23 0-10.75-5.44-10.75-11.2 0-5.76 3.52-11.2 10.75-11.2 7.17 0 10.56 5.44 10.56 11.2zM1943.93 249.78v-3.2h-6.78v-31.04h-3.14l-23.04 31.68v2.56h22.79v10.24h3.4v-10.24h6.77zm-10.17-3.2h-18.94l18.94-25.92v25.92zM1946.5 240.82h14.07v3.2h-14.08zM1976.32 260.02v-44.16h-12.48v2.88h9.09v41.28h3.39zM2019.52 260.02v-3.2h-24l12.8-12.48c2.24-2.24 9.4-8.32 9.4-16.13 0-7.87-5.88-13-13.88-13s-11.84 5.77-13.44 9.29l2.56 1.6c1.28-2.88 4.48-7.81 10.88-7.81s10.37 4.29 10.37 10.05c0 5.76-4.61 10.56-7.5 13.44l-16 15.68.65 2.56h28.16zM2054.72 217.78l-.96-1.92h-29.12v3.07h25.92l-21.76 41.09h3.52l22.4-42.24zM1870.5 324.02v-44.16H1858v2.88h9.1v41.28h3.38zM1913.05 300.98c0-10.18-2.75-21.76-15.36-21.76-8.64 0-14.08 6.52-14.08 14.84s6.53 13.64 13.57 13.64 10.75-4.16 12.48-8.32c0 8.32-1.6 14.08-3.84 17.47-2.24 3.33-4.8 4.93-9.28 4.93-4.41 0-7.8-1.73-10.24-3.97l-1.92 2.37c.64.64 4.16 4.6 12.16 4.6 12.74 0 16.52-13.24 16.52-23.8zm-4.67-7.56c0 5.76-3.52 11.2-10.69 11.2-7.23 0-10.56-5.44-10.56-11.2 0-5.76 3.33-11.2 10.56-11.2 7.17 0 10.7 5.44 10.7 11.2zM1948.9 324.02v-3.2h-24l12.8-12.48c2.23-2.24 9.4-8.32 9.4-16.13 0-7.87-5.89-13-13.89-13s-11.84 5.77-13.44 9.29l2.56 1.6c1.28-2.88 4.48-7.81 10.88-7.81s10.37 4.29 10.37 10.05c0 5.76-4.6 10.56-7.49 13.44l-16 15.68.64 2.56h28.16zM1953.06 304.82h14.08v3.2h-14.09zM2001.44 324.02v-3.2h-24l12.8-12.48c2.24-2.24 9.4-8.32 9.4-16.13 0-7.87-5.88-13-13.88-13s-11.84 5.77-13.44 9.29l2.56 1.6c1.28-2.88 4.48-7.81 10.88-7.81s10.37 4.29 10.37 10.05c0 5.76-4.61 10.56-7.5 13.44l-16 15.68.65 2.56h28.16zM2036 310.26c0-9.28-7.36-14.4-14.72-14.4-2.24 0-4.67.32-6.6 1.28l3.08-14.21h17.28v-3.07h-19.84l-4.16 20.16 2.24 1.28c1.6-1.6 4.8-2.37 7.68-2.37 5.76 0 11.52 3.65 11.52 11.33s-5.76 11.39-11.52 11.39-9.6-3.07-11.2-6.27l-2.56 1.92c1.28 2.56 5.44 7.48 13.44 7.48 8 0 15.36-5.24 15.36-14.52zM2074.72 313.78v-3.2h-6.78v-31.04h-3.14l-23.04 31.68v2.56h22.78v10.24h3.4v-10.24h6.78zm-10.18-3.2h-18.94l18.94-25.92v25.92zM1923.94 93.74V90.6h-29.7v3.14h13.12v41.02h3.46V93.74h13.12zM1948.9 134.76v-17.6c0-7.87-3.58-12.6-11.84-12.6-4.48 0-8 1.72-9.92 3l1.28 2.43c.64-.51 4.16-2.56 8.77-2.56 4.67 0 8.32 2.69 8.32 8.13v1.6l-8.13.32c-8 .32-11.84 3.84-11.84 8.96 0 5.12 4.16 8.96 9.92 8.96s8.96-3.52 10.05-4.8v4.16h3.39zm-3.4-15.04v7.36c-1.4 2.24-4.6 5.44-9.4 5.44-4.8 0-7.23-2.88-7.23-6.08s1.98-5.89 8.19-6.2l8.45-.52zM1975.9 126.63c0-5.63-5.57-7.55-9.28-8.83-3.65-1.28-6.85-2.62-6.85-5.7 0-3.07 2.37-4.73 5.7-4.73s5.37 1.15 7.42 3.39l2.05-2.05c-2.3-2.62-5-4.16-9.34-4.16-4.36 0-9.03 2.56-9.03 7.94 0 5.37 5.57 7.3 8.13 8.19 2.56.9 7.87 2.24 7.87 6.08s-3.26 5.63-6.97 5.63c-3.72 0-6.66-1.85-8.58-4.67l-2.37 1.92c1.86 3.07 5.31 5.76 10.82 5.76 5.5 0 10.43-3.2 10.43-8.77zM2006.82 134.76l-14.08-18.37 12.16-11.33h-4.16l-14.27 13.38V90.6h-3.33v44.16h3.33v-12.6l4.03-3.72 12.16 16.32h4.16zM2050.98 122.8c0-7.56-5.76-10.76-8.96-11.2v-.2c2.56-.64 7.68-3.2 7.68-10.24s-6.08-11.2-12.8-11.2c-6.72 0-10.3 3.2-13.12 6.72l2.24 1.92c2.56-2.88 5.44-5.57 10.56-5.57s9.6 3.01 9.6 8.45c0 5.44-3.84 8.51-9.28 8.51h-2.88v3.33h2.88c5.76 0 10.56 3.2 10.56 9.47 0 6.21-4.67 9.54-11.4 9.54-6.71 0-10.68-6.66-10.68-6.66l-2.56 2.05s4.29 7.68 13.12 7.68c8.77 0 15.04-5.12 15.04-12.6z" fill-rule="nonzero"/></g><g><path d="M82.89 254.28l-18.35 10.6c-7.3 4.22-7 11.24.66 15.66l157.5 90.94c7.67 4.43 19.83 4.6 27.13.38l105.88-61.13c7.3-4.22 7.01-11.24-.66-15.67l-16.24-11.3M323.9 277.08l-126.35-72.95c-7.67-4.43-19.82-4.6-27.13-.38l-75.55 43.62" fill="#fff" stroke="#000" stroke-width="10"/><path d="M57.95 234.25c.07 2.87 2.06 2.91 5.95 5.15l157.5 90.94c7.66 4.43 19.82 4.6 27.13.38l105.88-61.13c3.6-2.08 5.36-4.85 5.29-7.64v30.72c0 2.74-1.76 5.44-5.3 7.48l-105.87 61.13c-7.3 4.22-19.47 4.05-27.14-.38L63.9 269.97c-3.88-2.24-5.87-5.15-5.95-8.02v-27.7z" fill="#89c2d4"/><path d="M196.25 153.44c-7.67-4.43-19.83-4.6-27.13-.39L63.23 214.2c-7.3 4.21-7 11.23.67 15.66l157.5 90.94c7.66 4.42 19.82 4.6 27.13.38l105.88-61.14c7.3-4.21 7-11.23-.66-15.66l-157.5-90.93z" fill="#fff" stroke="#000" stroke-width="10"/><path d="M341.69 287.35c2.43-1.4 4.4-.27 4.4 2.54 0 2.8-1.97 6.22-4.4 7.62-2.43 1.4-4.4.26-4.4-2.54s1.97-6.22 4.4-7.62zM327.46 295.56c2.43-1.4 4.4-.26 4.4 2.54s-1.97 6.22-4.4 7.63c-2.43 1.4-4.4.26-4.4-2.55 0-2.8 1.97-6.22 4.4-7.62z" fill="#fff"/><path d="M314.25 308.27l-57.6 33.25" fill="none" stroke="#fff" stroke-width="10"/><path d="M157.08 124.16V80h-3.46v38.08L124.5 80h-3.45v44.16h3.45V85.44l29.44 38.72h3.14zM195.48 109.44c0-8.96-6.72-15.49-15.23-15.49-8.45 0-15.17 6.53-15.17 15.49s6.72 15.36 15.17 15.36c8.5 0 15.23-6.4 15.23-15.36zm-3.52-.13c0 6.85-4.48 12.48-11.71 12.48-7.17 0-11.65-5.63-11.65-12.48 0-6.91 4.48-12.48 11.65-12.48 7.23 0 11.7 5.57 11.7 12.48zM200.6 109.31c0 8.77 5.76 15.49 14.72 15.49 4.48 0 8.51-1.92 11-6.14v5.5h3.4V80h-3.4v20.03c-2.87-4.35-6.84-6.08-11.13-6.08-8.83 0-14.6 6.53-14.6 15.36zm3.52 0c0-6.91 4.03-12.48 11.2-12.48 7.23 0 11.2 5.57 11.2 12.48 0 6.85-3.97 12.48-11.2 12.48-7.17 0-11.2-5.63-11.2-12.48zM265.24 107.84c0-8-5.63-13.89-13.44-13.89-7.87 0-14.4 6.21-14.4 15.36 0 9.09 5.57 15.49 14.2 15.49 8.65 0 12.36-4.48 12.36-4.48l-1.6-2.37s-3.71 3.84-10.43 3.84-10.7-4.67-11.01-11.71h24.13s.19-1.28.19-2.24zm-3.4-.64h-20.8c.2-4.16 3.2-10.37 10.57-10.37 7.36 0 10.24 6.53 10.24 10.37zM296.6 124.16V80h-12.48v2.88h9.09v41.28h3.39z" fill-rule="nonzero"/></g><g><path d="M2211.83 468a18 18 0 00-18-18H424.42a18 18 0 00-18 18v324a18 18 0 0018 18h1769.41a18 18 0 0018-18V468z" fill="none" stroke="#000" stroke-width="7"/><path d="M1284.89 580a10 10 0 00-10-10h-380a10 10 0 00-10 10v180a10 10 0 0010 10h380a10 10 0 0010-10V580z" fill="none" stroke="#89c2d4" stroke-width="7"/><path d="M1025.82 645.94c0-8.32-6.6-13.64-13.64-13.64-7.04 0-10.68 4.04-12.48 8.2 0-8.84 1.86-22.4 13.32-22.4 4.48 0 7.36 1.92 9.72 4.16l1.92-2.37s-3.65-4.67-11.52-4.67c-12.86 0-16.76 12.92-16.76 23.68 0 10.17 2.68 21.88 15.36 21.88 8.64 0 14.08-6.52 14.08-14.84zm-3.52.57c0 5.76-3.4 11.2-10.56 11.2-7.24 0-10.76-5.44-10.76-11.2 0-5.76 3.52-11.2 10.76-11.2 7.16 0 10.56 5.44 10.56 11.2zM1063.25 649.78v-3.2h-6.78v-31.04h-3.14l-23.04 31.68v2.56h22.79v10.24h3.4v-10.24h6.77zm-10.17-3.2h-18.94l18.94-25.92v25.92zM1065.81 640.82h14.08v3.2h-14.08zM1095.64 660.02v-44.16h-12.48v2.88h9.09v41.28h3.39zM1138.84 660.02v-3.2h-24l12.8-12.48c2.24-2.24 9.4-8.32 9.4-16.13 0-7.87-5.88-13-13.88-13s-11.84 5.77-13.44 9.29l2.56 1.6c1.28-2.88 4.48-7.81 10.88-7.81s10.37 4.29 10.37 10.05c0 5.76-4.61 10.56-7.5 13.44l-16 15.68.65 2.56h28.16zM1174.04 617.78l-.96-1.92h-29.12v3.07h25.92l-21.76 41.09h3.52l22.4-42.24zM989.82 724.02v-44.16h-12.48v2.88h9.08v41.28h3.4zM1032.38 700.98c0-10.18-2.76-21.76-15.37-21.76-8.64 0-14.08 6.52-14.08 14.84s6.53 13.64 13.57 13.64 10.75-4.16 12.48-8.32c0 8.32-1.6 14.08-3.84 17.47-2.24 3.33-4.8 4.93-9.28 4.93-4.41 0-7.8-1.73-10.24-3.97l-1.92 2.37c.64.64 4.16 4.6 12.16 4.6 12.74 0 16.52-13.24 16.52-23.8zm-4.68-7.56c0 5.76-3.52 11.2-10.69 11.2-7.23 0-10.56-5.44-10.56-11.2 0-5.76 3.33-11.2 10.56-11.2 7.17 0 10.7 5.44 10.7 11.2zM1068.22 724.02v-3.2h-24l12.8-12.48c2.24-2.24 9.4-8.32 9.4-16.13 0-7.87-5.89-13-13.89-13s-11.83 5.77-13.43 9.29l2.56 1.6c1.27-2.88 4.47-7.81 10.87-7.81 6.4 0 10.37 4.29 10.37 10.05 0 5.76-4.6 10.56-7.49 13.44l-16 15.68.64 2.56h28.17zM1072.38 704.82h14.07v3.2h-14.08zM1120.76 724.02v-3.2h-24l12.8-12.48c2.24-2.24 9.4-8.32 9.4-16.13 0-7.87-5.88-13-13.88-13s-11.84 5.77-13.44 9.29l2.56 1.6c1.28-2.88 4.48-7.81 10.88-7.81s10.37 4.29 10.37 10.05c0 5.76-4.61 10.56-7.5 13.44l-16 15.68.65 2.56h28.16zM1155.32 710.26c0-9.28-7.36-14.4-14.72-14.4-2.24 0-4.67.32-6.6 1.28l3.08-14.21h17.28v-3.07h-19.84l-4.16 20.16 2.24 1.28c1.6-1.6 4.8-2.37 7.68-2.37 5.76 0 11.52 3.65 11.52 11.33s-5.76 11.39-11.52 11.39-9.6-3.07-11.2-6.27l-2.56 1.92c1.28 2.56 5.44 7.48 13.44 7.48 8 0 15.36-5.24 15.36-14.52zM1194.04 713.78v-3.2h-6.78v-31.04h-3.14l-23.04 31.68v2.56h22.78v10.24h3.4v-10.24h6.78zm-10.18-3.2h-18.94l18.94-25.92v25.92zM1043.89 493.06v-3.14h-29.7v3.14h13.12v41.02h3.46v-41.02h13.12zM1068.86 534.08v-17.6c0-7.87-3.58-12.6-11.84-12.6-4.48 0-8 1.72-9.92 3l1.28 2.43c.64-.51 4.16-2.56 8.77-2.56 4.67 0 8.32 2.69 8.32 8.13v1.6l-8.13.32c-8 .32-11.84 3.84-11.84 8.96 0 5.12 4.16 8.96 9.92 8.96s8.96-3.52 10.05-4.8v4.16h3.39zm-3.4-15.04v7.36c-1.4 2.24-4.6 5.44-9.4 5.44-4.8 0-7.23-2.88-7.23-6.08s1.98-5.89 8.19-6.2l8.45-.52zM1095.86 525.95c0-5.63-5.57-7.55-9.28-8.83-3.65-1.28-6.85-2.62-6.85-5.7 0-3.07 2.37-4.73 5.7-4.73s5.37 1.15 7.42 3.39l2.05-2.05c-2.3-2.62-5-4.16-9.34-4.16-4.36 0-9.03 2.56-9.03 7.94 0 5.37 5.57 7.3 8.13 8.19 2.56.9 7.87 2.24 7.87 6.08s-3.26 5.63-6.97 5.63c-3.72 0-6.66-1.85-8.58-4.67l-2.37 1.92c1.86 3.07 5.31 5.76 10.82 5.76 5.5 0 10.43-3.2 10.43-8.77zM1126.78 534.08l-14.08-18.37 12.16-11.33h-4.16l-14.27 13.38v-27.84h-3.33v44.16h3.33v-12.6l4.03-3.72 12.16 16.32h4.16zM1170.93 520.32c0-9.28-7.36-14.4-14.72-14.4-2.24 0-4.67.32-6.6 1.28l3.08-14.2h17.28v-3.08h-19.84l-4.16 20.16 2.24 1.28c1.6-1.6 4.8-2.37 7.68-2.37 5.76 0 11.52 3.65 11.52 11.33s-5.76 11.4-11.52 11.4-9.6-3.08-11.2-6.28l-2.56 1.92c1.28 2.56 5.44 7.49 13.44 7.49 8 0 15.36-5.25 15.36-14.53z" fill-rule="nonzero"/><g><path d="M846.42 580a10 10 0 00-10-10h-380a10 10 0 00-10 10v180a10 10 0 0010 10h380a10 10 0 0010-10V580z" fill="none" stroke="#89c2d4" stroke-width="7"/><path d="M618.54 638.03c0-11.39-4.8-22.78-16-22.78-11.13 0-16 11.39-16 22.78 0 11.33 4.8 22.72 16 22.72s16-11.39 16-22.72zm-3.7-.13c0 11.52-4.3 19.65-12.3 19.65s-12.35-8.13-12.35-19.65c0-11.52 4.35-19.64 12.35-19.64s12.3 8.12 12.3 19.64zM621.74 640.85h14.08v3.2h-14.08zM670.13 645.97c0-8.32-6.6-13.63-13.63-13.63-7.04 0-10.7 4.03-12.48 8.19 0-8.83 1.85-22.4 13.3-22.4 4.49 0 7.37 1.92 9.74 4.16l1.92-2.37s-3.65-4.67-11.52-4.67c-12.87 0-16.77 12.93-16.77 23.68 0 10.17 2.69 21.89 15.36 21.89 8.64 0 14.08-6.53 14.08-14.85zm-3.52.57c0 5.76-3.4 11.2-10.56 11.2-7.23 0-10.75-5.44-10.75-11.2 0-5.76 3.52-11.2 10.75-11.2 7.17 0 10.56 5.44 10.56 11.2zM704.05 648.08c0-7.55-5.76-10.75-8.96-11.2v-.2c2.56-.63 7.68-3.2 7.68-10.23 0-7.04-6.08-11.2-12.8-11.2-6.72 0-10.3 3.2-13.12 6.72l2.24 1.92c2.56-2.88 5.44-5.57 10.56-5.57s9.6 3 9.6 8.45c0 5.44-3.84 8.51-9.28 8.51h-2.88v3.33h2.88c5.76 0 10.56 3.2 10.56 9.47 0 6.2-4.67 9.54-11.4 9.54-6.71 0-10.68-6.66-10.68-6.66l-2.56 2.05s4.29 7.68 13.12 7.68c8.77 0 15.04-5.12 15.04-12.61zM561.74 724.05v-44.16h-12.48v2.88h9.1v41.28h3.38zM604.94 724.05v-3.2h-24l12.8-12.48c2.24-2.24 9.41-8.32 9.41-16.13 0-7.87-5.89-13-13.89-13s-11.84 5.77-13.44 9.29l2.56 1.6c1.28-2.88 4.48-7.81 10.88-7.81s10.37 4.29 10.37 10.05c0 5.76-4.6 10.56-7.49 13.44l-16 15.68.64 2.56h28.16zM639.82 712.08c0-5.76-3.52-9.8-8.5-11.4v-.12c2.74-1.15 7.03-3.4 7.03-10.24 0-6.91-5.89-11.07-12.6-11.07-6.73 0-12.68 4.16-12.68 11.07 0 6.85 4.35 9.09 7.04 10.24v.13c-4.93 1.6-8.45 5.63-8.45 11.39 0 8 5.76 12.67 14.08 12.67s14.08-4.67 14.08-12.67zm-4.99-21.38c0 5.44-3.97 8.39-9.09 8.39-5.12 0-9.15-2.95-9.15-8.39s4.03-8.38 9.15-8.38 9.1 2.94 9.1 8.38zm1.47 21.19c0 6.08-4.8 9.85-10.56 9.85-5.76 0-10.56-3.77-10.56-9.85s4.48-9.73 10.56-9.73 10.56 3.65 10.56 9.73zM644.94 704.85h14.08v3.2h-14.08zM674.77 724.05v-44.16h-12.48v2.88h9.09v41.28h3.39zM717.33 701c0-10.17-2.75-21.75-15.36-21.75-8.64 0-14.08 6.53-14.08 14.85s6.53 13.63 13.57 13.63 10.75-4.16 12.48-8.32c0 8.32-1.6 14.08-3.84 17.47-2.24 3.33-4.8 4.93-9.28 4.93-4.42 0-7.81-1.73-10.24-3.97l-1.92 2.37c.64.64 4.16 4.6 12.16 4.6 12.73 0 16.5-13.24 16.5-23.8zm-4.67-7.54c0 5.76-3.52 11.2-10.7 11.2-7.22 0-10.55-5.44-10.55-11.2 0-5.76 3.33-11.2 10.56-11.2 7.17 0 10.69 5.44 10.69 11.2zM737.17 724.05v-44.16h-12.48v2.88h9.09v41.28h3.39zM596.62 493.74v-3.14h-29.7v3.14h13.13v41.02h3.45v-41.02h13.12zM621.58 534.76v-17.6c0-7.87-3.58-12.6-11.84-12.6-4.48 0-8 1.72-9.92 3l1.28 2.43c.64-.51 4.16-2.56 8.77-2.56 4.67 0 8.32 2.69 8.32 8.13v1.6l-8.13.32c-8 .32-11.84 3.84-11.84 8.96 0 5.12 4.16 8.96 9.92 8.96s8.96-3.52 10.05-4.8v4.16h3.4zm-3.39-15.04v7.36c-1.4 2.24-4.6 5.44-9.4 5.44-4.8 0-7.24-2.88-7.24-6.08s1.99-5.89 8.2-6.2l8.44-.52zM648.6 526.63c0-5.63-5.58-7.55-9.29-8.83-3.65-1.28-6.85-2.62-6.85-5.7 0-3.07 2.37-4.73 5.7-4.73s5.38 1.15 7.42 3.39l2.05-2.05c-2.3-2.62-4.99-4.16-9.34-4.16s-9.03 2.56-9.03 7.94c0 5.37 5.57 7.3 8.13 8.19 2.56.9 7.87 2.24 7.87 6.08s-3.26 5.63-6.97 5.63-6.66-1.85-8.58-4.67l-2.37 1.92c1.86 3.07 5.32 5.76 10.82 5.76s10.43-3.2 10.43-8.77zM679.5 534.76l-14.08-18.37 12.16-11.33h-4.16l-14.27 13.38V490.6h-3.33v44.16h3.33v-12.6l4.03-3.72 12.16 16.32h4.16zM726.54 524.52v-3.2h-6.78v-31.04h-3.14l-23.04 31.68v2.56h22.79v10.24h3.39v-10.24h6.78zm-10.17-3.2h-18.95l18.95-25.92v25.92z" fill-rule="nonzero"/></g><g><path d="M1727.94 581a10 10 0 00-10-10h-380a10 10 0 00-10 10v180a10 10 0 0010 10h380a10 10 0 0010-10V581z" fill="none" stroke="#89c2d4" stroke-width="7"/><path d="M1499.91 638.68c0-11.4-4.8-22.78-16-22.78-11.13 0-16 11.39-16 22.78 0 11.33 4.8 22.72 16 22.72s16-11.4 16-22.72zm-3.7-.13c0 11.52-4.3 19.65-12.3 19.65s-12.35-8.13-12.35-19.65c0-11.52 4.35-19.65 12.35-19.65s12.3 8.13 12.3 19.65zM1503.11 641.5h14.08v3.2h-14.08zM1551.5 646.62c0-8.32-6.6-13.64-13.63-13.64-7.04 0-10.7 4.04-12.48 8.2 0-8.84 1.85-22.4 13.3-22.4 4.49 0 7.37 1.92 9.73 4.16l1.92-2.37s-3.64-4.67-11.51-4.67c-12.87 0-16.77 12.92-16.77 23.68 0 10.17 2.69 21.88 15.36 21.88 8.64 0 14.08-6.52 14.08-14.84zm-3.52.57c0 5.76-3.4 11.2-10.56 11.2-7.23 0-10.75-5.44-10.75-11.2 0-5.76 3.52-11.2 10.75-11.2 7.17 0 10.56 5.44 10.56 11.2zM1585.42 648.73c0-7.55-5.76-10.75-8.96-11.2v-.2c2.56-.63 7.68-3.2 7.68-10.23 0-7.04-6.08-11.2-12.8-11.2-6.72 0-10.3 3.2-13.12 6.72l2.24 1.92c2.56-2.88 5.44-5.57 10.56-5.57s9.6 3 9.6 8.45c0 5.44-3.84 8.5-9.28 8.5h-2.88v3.34h2.88c5.76 0 10.56 3.2 10.56 9.47 0 6.2-4.67 9.53-11.4 9.53-6.71 0-10.68-6.65-10.68-6.65l-2.56 2.05s4.29 7.68 13.12 7.68c8.76 0 15.04-5.12 15.04-12.61zM1443.11 724.7v-44.16h-12.48v2.88h9.1v41.28h3.38zM1486.31 724.7v-3.2h-24l12.8-12.48c2.24-2.24 9.41-8.32 9.41-16.13 0-7.87-5.89-13-13.89-13s-11.84 5.77-13.44 9.29l2.56 1.6c1.28-2.88 4.48-7.81 10.88-7.81s10.37 4.29 10.37 10.05c0 5.76-4.6 10.56-7.49 13.44l-16 15.68.64 2.56h28.16zM1521.2 712.73c0-5.76-3.53-9.8-8.52-11.4v-.12c2.75-1.15 7.04-3.4 7.04-10.24 0-6.91-5.89-11.07-12.6-11.07-6.73 0-12.68 4.16-12.68 11.07 0 6.85 4.35 9.09 7.04 10.24v.13c-4.93 1.6-8.45 5.63-8.45 11.39 0 8 5.76 12.67 14.08 12.67s14.08-4.67 14.08-12.67zm-5-21.38c0 5.44-3.97 8.39-9.09 8.39-5.12 0-9.15-2.95-9.15-8.39s4.03-8.38 9.15-8.38 9.1 2.94 9.1 8.38zm1.47 21.19c0 6.08-4.8 9.85-10.56 9.85-5.76 0-10.56-3.77-10.56-9.85s4.48-9.73 10.56-9.73 10.56 3.65 10.56 9.73zM1526.31 705.5h14.08v3.2h-14.08zM1556.14 724.7v-44.16h-12.48v2.88h9.08v41.28h3.4zM1598.7 701.66c0-10.18-2.76-21.76-15.36-21.76-8.64 0-14.08 6.52-14.08 14.84s6.53 13.64 13.57 13.64 10.75-4.16 12.48-8.32c0 8.32-1.6 14.08-3.84 17.47-2.24 3.33-4.8 4.93-9.28 4.93-4.42 0-7.81-1.73-10.24-3.97l-1.92 2.37c.64.64 4.16 4.6 12.16 4.6 12.73 0 16.5-13.24 16.5-23.8zm-4.68-7.56c0 5.76-3.52 11.2-10.68 11.2-7.24 0-10.56-5.44-10.56-11.2 0-5.76 3.32-11.2 10.56-11.2 7.16 0 10.68 5.44 10.68 11.2zM1618.54 724.7v-44.16h-12.48v2.88h9.09v41.28h3.39zM1475.62 493.74v-3.14h-29.7v3.14h13.12v41.02h3.46v-41.02h13.12zM1500.58 534.76v-17.6c0-7.87-3.58-12.6-11.84-12.6-4.48 0-8 1.72-9.92 3l1.28 2.43c.64-.51 4.16-2.56 8.77-2.56 4.67 0 8.32 2.69 8.32 8.13v1.6l-8.13.32c-8 .32-11.84 3.84-11.84 8.96 0 5.12 4.16 8.96 9.92 8.96s8.96-3.52 10.05-4.8v4.16h3.39zm-3.4-15.04v7.36c-1.4 2.24-4.6 5.44-9.4 5.44-4.8 0-7.23-2.88-7.23-6.08s1.98-5.89 8.19-6.2l8.45-.52zM1527.59 526.63c0-5.63-5.57-7.55-9.28-8.83-3.65-1.28-6.85-2.62-6.85-5.7 0-3.07 2.37-4.73 5.7-4.73s5.37 1.15 7.42 3.39l2.05-2.05c-2.3-2.62-5-4.16-9.34-4.16-4.36 0-9.03 2.56-9.03 7.94 0 5.37 5.57 7.3 8.13 8.19 2.56.9 7.87 2.24 7.87 6.08s-3.26 5.63-6.97 5.63c-3.72 0-6.66-1.85-8.58-4.67l-2.37 1.92c1.86 3.07 5.31 5.76 10.82 5.76 5.5 0 10.43-3.2 10.43-8.77zM1558.5 534.76l-14.08-18.37 12.16-11.33h-4.16l-14.27 13.38V490.6h-3.33v44.16h3.33v-12.6l4.03-3.72 12.16 16.32h4.16zM1603.94 520.68c0-8.32-6.6-13.63-13.63-13.63-7.04 0-10.69 4.03-12.48 8.19 0-8.83 1.85-22.4 13.31-22.4 4.48 0 7.36 1.92 9.73 4.16l1.92-2.37s-3.65-4.67-11.52-4.67c-12.87 0-16.77 12.93-16.77 23.68 0 10.18 2.69 21.89 15.36 21.89 8.64 0 14.08-6.53 14.08-14.85zm-3.52.58c0 5.76-3.4 11.2-10.56 11.2-7.23 0-10.75-5.44-10.75-11.2 0-5.76 3.52-11.2 10.75-11.2 7.17 0 10.56 5.44 10.56 11.2z" fill-rule="nonzero"/></g><g><path d="M2164.93 580a10 10 0 00-10-10h-380a10 10 0 00-10 10v180a10 10 0 0010 10h380a10 10 0 0010-10V580z" fill="none" stroke="#89c2d4" stroke-width="7"/><path d="M1906.5 645.94c0-8.32-6.6-13.64-13.64-13.64-7.04 0-10.69 4.04-12.48 8.2 0-8.84 1.86-22.4 13.31-22.4 4.48 0 7.36 1.92 9.73 4.16l1.92-2.37s-3.65-4.67-11.52-4.67c-12.86 0-16.77 12.92-16.77 23.68 0 10.17 2.7 21.88 15.36 21.88 8.64 0 14.08-6.52 14.08-14.84zm-3.53.57c0 5.76-3.39 11.2-10.56 11.2-7.23 0-10.75-5.44-10.75-11.2 0-5.76 3.52-11.2 10.75-11.2 7.17 0 10.56 5.44 10.56 11.2zM1943.93 649.78v-3.2h-6.78v-31.04h-3.14l-23.04 31.68v2.56h22.79v10.24h3.4v-10.24h6.77zm-10.17-3.2h-18.94l18.94-25.92v25.92zM1946.5 640.82h14.07v3.2h-14.08zM1976.32 660.02v-44.16h-12.48v2.88h9.09v41.28h3.39zM2019.52 660.02v-3.2h-24l12.8-12.48c2.24-2.24 9.4-8.32 9.4-16.13 0-7.87-5.88-13-13.88-13s-11.84 5.77-13.44 9.29l2.56 1.6c1.28-2.88 4.48-7.81 10.88-7.81s10.37 4.29 10.37 10.05c0 5.76-4.61 10.56-7.5 13.44l-16 15.68.65 2.56h28.16zM2054.72 617.78l-.96-1.92h-29.12v3.07h25.92l-21.76 41.09h3.52l22.4-42.24zM1870.5 724.02v-44.16H1858v2.88h9.1v41.28h3.38zM1913.05 700.98c0-10.18-2.75-21.76-15.36-21.76-8.64 0-14.08 6.52-14.08 14.84s6.53 13.64 13.57 13.64 10.75-4.16 12.48-8.32c0 8.32-1.6 14.08-3.84 17.47-2.24 3.33-4.8 4.93-9.28 4.93-4.41 0-7.8-1.73-10.24-3.97l-1.92 2.37c.64.64 4.16 4.6 12.16 4.6 12.74 0 16.52-13.24 16.52-23.8zm-4.67-7.56c0 5.76-3.52 11.2-10.69 11.2-7.23 0-10.56-5.44-10.56-11.2 0-5.76 3.33-11.2 10.56-11.2 7.17 0 10.7 5.44 10.7 11.2zM1948.9 724.02v-3.2h-24l12.8-12.48c2.23-2.24 9.4-8.32 9.4-16.13 0-7.87-5.89-13-13.89-13s-11.84 5.77-13.44 9.29l2.56 1.6c1.28-2.88 4.48-7.81 10.88-7.81s10.37 4.29 10.37 10.05c0 5.76-4.6 10.56-7.49 13.44l-16 15.68.64 2.56h28.16zM1953.06 704.82h14.08v3.2h-14.09zM2001.44 724.02v-3.2h-24l12.8-12.48c2.24-2.24 9.4-8.32 9.4-16.13 0-7.87-5.88-13-13.88-13s-11.84 5.77-13.44 9.29l2.56 1.6c1.28-2.88 4.48-7.81 10.88-7.81s10.37 4.29 10.37 10.05c0 5.76-4.61 10.56-7.5 13.44l-16 15.68.65 2.56h28.16zM2036 710.26c0-9.28-7.36-14.4-14.72-14.4-2.24 0-4.67.32-6.6 1.28l3.08-14.21h17.28v-3.07h-19.84l-4.16 20.16 2.24 1.28c1.6-1.6 4.8-2.37 7.68-2.37 5.76 0 11.52 3.65 11.52 11.33s-5.76 11.39-11.52 11.39-9.6-3.07-11.2-6.27l-2.56 1.92c1.28 2.56 5.44 7.48 13.44 7.48 8 0 15.36-5.24 15.36-14.52zM2074.72 713.78v-3.2h-6.78v-31.04h-3.14l-23.04 31.68v2.56h22.78v10.24h3.4v-10.24h6.78zm-10.18-3.2h-18.94l18.94-25.92v25.92zM1923.94 493.74v-3.14h-29.7v3.14h13.12v41.02h3.46v-41.02h13.12zM1948.9 534.76v-17.6c0-7.87-3.58-12.6-11.84-12.6-4.48 0-8 1.72-9.92 3l1.28 2.43c.64-.51 4.16-2.56 8.77-2.56 4.67 0 8.32 2.69 8.32 8.13v1.6l-8.13.32c-8 .32-11.84 3.84-11.84 8.96 0 5.12 4.16 8.96 9.92 8.96s8.96-3.52 10.05-4.8v4.16h3.39zm-3.4-15.04v7.36c-1.4 2.24-4.6 5.44-9.4 5.44-4.8 0-7.23-2.88-7.23-6.08s1.98-5.89 8.19-6.2l8.45-.52zM1975.9 526.63c0-5.63-5.57-7.55-9.28-8.83-3.65-1.28-6.85-2.62-6.85-5.7 0-3.07 2.37-4.73 5.7-4.73s5.37 1.15 7.42 3.39l2.05-2.05c-2.3-2.62-5-4.16-9.34-4.16-4.36 0-9.03 2.56-9.03 7.94 0 5.37 5.57 7.3 8.13 8.19 2.56.9 7.87 2.24 7.87 6.08s-3.26 5.63-6.97 5.63c-3.72 0-6.66-1.85-8.58-4.67l-2.37 1.92c1.86 3.07 5.31 5.76 10.82 5.76 5.5 0 10.43-3.2 10.43-8.77zM2006.82 534.76l-14.08-18.37 12.16-11.33h-4.16l-14.27 13.38V490.6h-3.33v44.16h3.33v-12.6l4.03-3.72 12.16 16.32h4.16zM2053.22 492.52l-.96-1.92h-29.12v3.07h25.92l-21.76 41.09h3.52l22.4-42.24z" fill-rule="nonzero"/></g><g><path d="M82.89 654.28l-18.35 10.6c-7.3 4.22-7 11.24.66 15.66l157.5 90.94c7.67 4.43 19.83 4.6 27.13.38l105.88-61.13c7.3-4.22 7.01-11.24-.66-15.67l-16.24-11.3M323.9 677.08l-126.35-72.95c-7.67-4.43-19.82-4.6-27.13-.38l-75.55 43.62" fill="#fff" stroke="#000" stroke-width="10"/><path d="M57.95 634.25c.07 2.87 2.06 2.91 5.95 5.15l157.5 90.94c7.66 4.42 19.82 4.6 27.13.38l105.88-61.13c3.6-2.08 5.36-4.85 5.29-7.64v30.72c0 2.74-1.76 5.44-5.3 7.48L248.54 761.3c-7.3 4.21-19.47 4.04-27.14-.39L63.9 669.97c-3.88-2.24-5.87-5.15-5.95-8.02v-27.7z" fill="#89c2d4"/><path d="M196.25 553.44c-7.67-4.43-19.83-4.6-27.13-.39L63.23 614.2c-7.3 4.21-7 11.23.67 15.66l157.5 90.93c7.66 4.43 19.82 4.6 27.13.39l105.88-61.14c7.3-4.21 7-11.23-.66-15.66l-157.5-90.93z" fill="#fff" stroke="#000" stroke-width="10"/><path d="M341.69 687.35c2.43-1.4 4.4-.27 4.4 2.54 0 2.8-1.97 6.22-4.4 7.62-2.43 1.4-4.4.26-4.4-2.54s1.97-6.22 4.4-7.62zM327.46 695.56c2.43-1.4 4.4-.26 4.4 2.54s-1.97 6.22-4.4 7.63c-2.43 1.4-4.4.26-4.4-2.54 0-2.81 1.97-6.22 4.4-7.63z" fill="#fff"/><path d="M314.25 708.27l-57.6 33.25" fill="none" stroke="#fff" stroke-width="10"/><path d="M157.08 524.16V480h-3.46v38.08L124.5 480h-3.45v44.16h3.45v-38.72l29.44 38.72h3.14zM195.48 509.44c0-8.96-6.72-15.49-15.23-15.49-8.45 0-15.17 6.53-15.17 15.49s6.72 15.36 15.17 15.36c8.5 0 15.23-6.4 15.23-15.36zm-3.52-.13c0 6.85-4.48 12.48-11.71 12.48-7.17 0-11.65-5.63-11.65-12.48 0-6.91 4.48-12.48 11.65-12.48 7.23 0 11.7 5.57 11.7 12.48zM200.6 509.31c0 8.77 5.76 15.49 14.72 15.49 4.48 0 8.51-1.92 11-6.14v5.5h3.4V480h-3.4v20.03c-2.87-4.35-6.84-6.08-11.13-6.08-8.83 0-14.6 6.53-14.6 15.36zm3.52 0c0-6.91 4.03-12.48 11.2-12.48 7.23 0 11.2 5.57 11.2 12.48 0 6.85-3.97 12.48-11.2 12.48-7.17 0-11.2-5.63-11.2-12.48zM265.24 507.84c0-8-5.63-13.89-13.44-13.89-7.87 0-14.4 6.21-14.4 15.36 0 9.09 5.57 15.49 14.2 15.49 8.65 0 12.36-4.48 12.36-4.48l-1.6-2.37s-3.71 3.84-10.43 3.84-10.7-4.67-11.01-11.71h24.13s.19-1.28.19-2.24zm-3.4-.64h-20.8c.2-4.16 3.2-10.37 10.57-10.37 7.36 0 10.24 6.53 10.24 10.37zM313.24 524.16v-3.2h-24l12.8-12.48c2.24-2.24 9.4-8.32 9.4-16.13 0-7.87-5.88-12.99-13.88-12.99s-11.84 5.76-13.44 9.28l2.56 1.6c1.28-2.88 4.48-7.8 10.88-7.8s10.37 4.28 10.37 10.04c0 5.76-4.61 10.56-7.5 13.44l-16 15.68.65 2.56h28.16z" fill-rule="nonzero"/></g></g></svg>