<?xml version="1.0" encoding="UTF-8" standalone="no"?>
<!DOCTYPE svg PUBLIC "-//W3C//DTD SVG 1.1//EN" "http://www.w3.org/Graphics/SVG/1.1/DTD/svg11.dtd">
<svg width="100%" height="100%" viewBox="0 0 1580 881" version="1.1" xmlns="http://www.w3.org/2000/svg" xmlns:xlink="http://www.w3.org/1999/xlink" xml:space="preserve" xmlns:serif="http://www.serif.com/" style="fill-rule:evenodd;clip-rule:evenodd;stroke-linecap:round;stroke-linejoin:round;stroke-miterlimit:1.5;">
    <g>
        <g>
            <path d="M730,412.621c-0,-12.141 -9.857,-21.998 -21.999,-21.998l-636.002,-0c-12.142,-0 -21.999,9.857 -21.999,21.998l0,395.98c0,12.142 9.857,21.999 21.999,21.999l636.002,-0c12.142,-0 21.999,-9.857 21.999,-21.999l-0,-395.98Z" style="fill:none;stroke:black;stroke-width:7px;"/>
            <g>
                <path d="M335.716,417.789l-0,7.616l8.192,-0l-0,4.992l-8.256,0.064c-0,1.749 -0.043,4.639 -0.128,8.671c-0.086,4.032 -0.128,6.197 -0.128,6.496c-0,1.109 0.288,2.026 0.864,2.752c0.576,0.725 1.418,1.088 2.528,1.088c1.066,-0 2.368,-0.342 3.904,-1.024c1.194,-0.512 2.389,-1.174 3.584,-1.984l-0,6.463c-2.304,0.982 -3.734,1.579 -4.288,1.792c-1.579,0.555 -3.094,0.832 -4.544,0.832c-2.859,0 -4.992,-1.088 -6.4,-3.264c-1.195,-1.834 -1.792,-4.266 -1.792,-7.295c-0,-1.664 0.042,-4.448 0.128,-8.352c0.085,-3.904 0.128,-5.984 0.128,-6.239l-3.584,-0l9.792,-12.608Z" style="fill-rule:nonzero;"/>
                <path d="M360.804,436.092c-0,-1.749 -0.32,-3.114 -0.96,-4.096c-0.811,-1.194 -2.048,-1.791 -3.712,-1.791c-1.408,-0 -3.03,0.49 -4.864,1.471c-1.408,0.726 -2.838,1.707 -4.288,2.944l0.064,-6.079c1.45,-1.152 3.093,-2.08 4.928,-2.784c1.834,-0.704 3.626,-1.056 5.376,-1.056c3.669,-0 6.25,1.365 7.744,4.096c1.109,2.047 1.664,5.077 1.664,9.087c-0,0.939 -0.043,2.485 -0.128,4.64c-0.086,2.154 -0.128,3.274 -0.128,3.36c-0,0.896 0.064,1.728 0.192,2.496c0.128,0.768 0.469,1.216 1.024,1.344l3.008,-1.024l-0,4.351c-1.28,0.768 -2.475,1.376 -3.584,1.824c-1.11,0.448 -2.262,0.672 -3.456,0.672c-0.555,0 -1.099,-0.245 -1.632,-0.736c-0.534,-0.49 -0.928,-1.013 -1.184,-1.568c-1.323,0.683 -2.411,1.195 -3.264,1.536c-1.28,0.512 -2.454,0.768 -3.52,0.768c-2.603,0 -4.63,-0.618 -6.08,-1.856c-1.579,-1.365 -2.368,-3.349 -2.368,-5.951c-0,-2.774 1.898,-5.163 5.696,-7.168c2.09,-1.109 5.248,-2.261 9.472,-3.456l-0,-1.024Zm-0,4.672c-2.39,0.597 -4.267,1.28 -5.632,2.048c-2.262,1.28 -3.392,2.794 -3.392,4.544c-0,0.938 0.362,1.77 1.088,2.496c0.725,0.725 1.578,1.087 2.56,1.087c0.853,0 1.77,-0.213 2.752,-0.64c1.194,-0.597 2.069,-1.023 2.624,-1.279l-0,-8.256Z" style="fill-rule:nonzero;"/>
                <path d="M373.092,446.204c1.706,1.152 3.178,2.005 4.416,2.56c1.834,0.853 3.498,1.28 4.992,1.28c1.024,-0 1.856,-0.192 2.496,-0.576c0.64,-0.384 0.96,-1.067 0.96,-2.048c-0,-1.323 -2.091,-3.264 -6.272,-5.824c-4.182,-2.56 -6.272,-5.44 -6.272,-8.64c-0,-2.559 0.821,-4.575 2.464,-6.047c1.642,-1.472 3.744,-2.208 6.304,-2.208c1.408,-0 2.816,0.202 4.224,0.608c1.408,0.405 2.773,0.992 4.096,1.76l0.064,6.335c-1.024,-0.81 -2.347,-1.546 -3.968,-2.208c-1.622,-0.661 -3.03,-0.991 -4.224,-0.991c-0.768,-0 -1.44,0.192 -2.016,0.575c-0.576,0.384 -0.864,0.96 -0.864,1.728c-0,1.366 2.101,3.318 6.304,5.856c4.202,2.539 6.304,5.408 6.304,8.608c-0,2.56 -0.864,4.639 -2.592,6.239c-1.728,1.6 -3.894,2.4 -6.496,2.4c-1.707,0 -3.36,-0.245 -4.96,-0.736c-1.6,-0.49 -3.254,-1.205 -4.96,-2.144l-0,-6.527Z" style="fill-rule:nonzero;"/>
                <path d="M397.732,409.598l6.08,-0l-0,28.862l11.52,-13.055l7.872,-0l-12.672,14.015l16,15.359l-8.896,0l-13.824,-13.695l-0,13.695l-6.08,0l-0,-45.181Z" style="fill-rule:nonzero;"/>
                <path d="M427.236,446.204c1.706,1.152 3.178,2.005 4.416,2.56c1.834,0.853 3.498,1.28 4.992,1.28c1.024,-0 1.856,-0.192 2.496,-0.576c0.64,-0.384 0.96,-1.067 0.96,-2.048c-0,-1.323 -2.091,-3.264 -6.272,-5.824c-4.182,-2.56 -6.272,-5.44 -6.272,-8.64c-0,-2.559 0.821,-4.575 2.464,-6.047c1.642,-1.472 3.744,-2.208 6.304,-2.208c1.408,-0 2.816,0.202 4.224,0.608c1.408,0.405 2.773,0.992 4.096,1.76l0.064,6.335c-1.024,-0.81 -2.347,-1.546 -3.968,-2.208c-1.622,-0.661 -3.03,-0.991 -4.224,-0.991c-0.768,-0 -1.44,0.192 -2.016,0.575c-0.576,0.384 -0.864,0.96 -0.864,1.728c-0,1.366 2.101,3.318 6.304,5.856c4.202,2.539 6.304,5.408 6.304,8.608c-0,2.56 -0.864,4.639 -2.592,6.239c-1.728,1.6 -3.894,2.4 -6.496,2.4c-1.707,0 -3.36,-0.245 -4.96,-0.736c-1.6,-0.49 -3.254,-1.205 -4.96,-2.144l-0,-6.527Z" style="fill-rule:nonzero;"/>
                <g transform="matrix(1,0,0,0.999949,-344.123,319.547)">
                    <g transform="matrix(64,0,0,64,572.287,260.879)">
                        <path d="M0.53,-0.344c0,-0.178 -0.075,-0.356 -0.25,-0.356c-0.174,-0 -0.25,0.178 -0.25,0.356c-0,0.177 0.075,0.355 0.25,0.355c0.175,-0 0.25,-0.178 0.25,-0.355Zm-0.058,-0.002c0,0.18 -0.067,0.307 -0.192,0.307c-0.125,-0 -0.193,-0.127 -0.193,-0.307c-0,-0.18 0.068,-0.307 0.193,-0.307c0.125,0 0.192,0.127 0.192,0.307Z" style="fill-rule:nonzero;"/>
                    </g>
                    <g transform="matrix(64,0,0,64,606.847,260.879)">
                        <path d="M0.2,-0.08l-0.06,0l-0.06,0.22l0.04,0l0.08,-0.22Z" style="fill-rule:nonzero;"/>
                    </g>
                    <g transform="matrix(64,0,0,64,637.887,260.879)">
                        <path d="M0.255,-0l0,-0.69l-0.195,0l0,0.045l0.142,0l0,0.645l0.053,-0Z" style="fill-rule:nonzero;"/>
                    </g>
                    <g transform="matrix(64,0,0,64,664.447,260.879)">
                        <path d="M0.2,-0.08l-0.06,0l-0.06,0.22l0.04,0l0.08,-0.22Z" style="fill-rule:nonzero;"/>
                    </g>
                    <g transform="matrix(64,0,0,64,695.487,260.879)">
                        <path d="M0.515,-0l0,-0.05l-0.375,0l0.2,-0.195c0.035,-0.035 0.147,-0.13 0.147,-0.252c0,-0.123 -0.092,-0.203 -0.217,-0.203c-0.125,-0 -0.185,0.09 -0.21,0.145l0.04,0.025c0.02,-0.045 0.07,-0.122 0.17,-0.122c0.1,-0 0.162,0.067 0.162,0.157c-0,0.09 -0.072,0.165 -0.117,0.21l-0.25,0.245l0.01,0.04l0.44,-0Z" style="fill-rule:nonzero;"/>
                    </g>
                    <g transform="matrix(64,0,0,64,731.327,260.879)">
                        <path d="M0.2,-0.08l-0.06,0l-0.06,0.22l0.04,0l0.08,-0.22Z" style="fill-rule:nonzero;"/>
                    </g>
                    <g transform="matrix(64,0,0,64,762.367,260.879)">
                        <path d="M0.495,-0.187c0,-0.118 -0.09,-0.168 -0.14,-0.175l0,-0.003c0.04,-0.01 0.12,-0.05 0.12,-0.16c0,-0.11 -0.095,-0.175 -0.2,-0.175c-0.105,0 -0.161,0.05 -0.205,0.105l0.035,0.03c0.04,-0.045 0.085,-0.087 0.165,-0.087c0.08,0 0.15,0.047 0.15,0.132c0,0.085 -0.06,0.133 -0.145,0.133l-0.045,0l0,0.052l0.045,0c0.09,0 0.165,0.05 0.165,0.148c0,0.097 -0.073,0.149 -0.178,0.149c-0.105,0 -0.167,-0.104 -0.167,-0.104l-0.04,0.032c0,0 0.067,0.12 0.205,0.12c0.137,0 0.235,-0.08 0.235,-0.197Z" style="fill-rule:nonzero;"/>
                    </g>
                    <g transform="matrix(64,0,0,64,798.207,260.879)">
                        <path d="M0.2,-0.08l-0.06,0l-0.06,0.22l0.04,0l0.08,-0.22Z" style="fill-rule:nonzero;"/>
                    </g>
                    <g transform="matrix(64,0,0,64,829.247,260.879)">
                        <path d="M0.19,-0.037c0,-0.028 -0.02,-0.048 -0.048,-0.048c-0.027,-0 -0.047,0.02 -0.047,0.048c-0,0.027 0.02,0.047 0.047,0.047c0.028,-0 0.048,-0.02 0.048,-0.047Z" style="fill-rule:nonzero;"/>
                    </g>
                    <g transform="matrix(64,0,0,64,847.487,260.879)">
                        <path d="M0.19,-0.037c0,-0.028 -0.02,-0.048 -0.048,-0.048c-0.027,-0 -0.047,0.02 -0.047,0.048c-0,0.027 0.02,0.047 0.047,0.047c0.028,-0 0.048,-0.02 0.048,-0.047Z" style="fill-rule:nonzero;"/>
                    </g>
                    <g transform="matrix(64,0,0,64,865.727,260.879)">
                        <path d="M0.19,-0.037c0,-0.028 -0.02,-0.048 -0.048,-0.048c-0.027,-0 -0.047,0.02 -0.047,0.048c-0,0.027 0.02,0.047 0.047,0.047c0.028,-0 0.048,-0.02 0.048,-0.047Z" style="fill-rule:nonzero;"/>
                    </g>
                    <g transform="matrix(64,0,0,64,443.647,388.879)">
                        <path d="M0.19,-0.037c0,-0.028 -0.02,-0.048 -0.048,-0.048c-0.027,-0 -0.047,0.02 -0.047,0.048c-0,0.027 0.02,0.047 0.047,0.047c0.028,-0 0.048,-0.02 0.048,-0.047Z" style="fill-rule:nonzero;"/>
                    </g>
                    <g transform="matrix(64,0,0,64,461.887,388.879)">
                        <path d="M0.19,-0.037c0,-0.028 -0.02,-0.048 -0.048,-0.048c-0.027,-0 -0.047,0.02 -0.047,0.048c-0,0.027 0.02,0.047 0.047,0.047c0.028,-0 0.048,-0.02 0.048,-0.047Z" style="fill-rule:nonzero;"/>
                    </g>
                    <g transform="matrix(64,0,0,64,480.127,388.879)">
                        <path d="M0.19,-0.037c0,-0.028 -0.02,-0.048 -0.048,-0.048c-0.027,-0 -0.047,0.02 -0.047,0.048c-0,0.027 0.02,0.047 0.047,0.047c0.028,-0 0.048,-0.02 0.048,-0.047Z" style="fill-rule:nonzero;"/>
                    </g>
                    <g transform="matrix(64,0,0,64,498.367,388.879)">
                        <path d="M0.2,-0.08l-0.06,0l-0.06,0.22l0.04,0l0.08,-0.22Z" style="fill-rule:nonzero;"/>
                    </g>
                    <g transform="matrix(64,0,0,64,529.407,388.879)">
                        <path d="M0.255,-0l0,-0.69l-0.195,0l0,0.045l0.142,0l0,0.645l0.053,-0Z" style="fill-rule:nonzero;"/>
                    </g>
                    <g transform="matrix(64,0,0,64,555.967,388.879)">
                        <path d="M0.515,-0l0,-0.05l-0.375,0l0.2,-0.195c0.035,-0.035 0.147,-0.13 0.147,-0.252c0,-0.123 -0.092,-0.203 -0.217,-0.203c-0.125,-0 -0.185,0.09 -0.21,0.145l0.04,0.025c0.02,-0.045 0.07,-0.122 0.17,-0.122c0.1,-0 0.162,0.067 0.162,0.157c-0,0.09 -0.072,0.165 -0.117,0.21l-0.25,0.245l0.01,0.04l0.44,-0Z" style="fill-rule:nonzero;"/>
                    </g>
                    <g transform="matrix(64,0,0,64,590.527,388.879)">
                        <path d="M0.54,-0.16l0,-0.05l-0.106,0l-0,-0.485l-0.049,0l-0.36,0.495l-0,0.04l0.356,0l-0,0.16l0.053,0l-0,-0.16l0.106,0Zm-0.159,-0.05l-0.296,0l0.296,-0.405l0,0.405Z" style="fill-rule:nonzero;"/>
                    </g>
                    <g transform="matrix(64,0,0,64,626.367,388.879)">
                        <path d="M0.2,-0.08l-0.06,0l-0.06,0.22l0.04,0l0.08,-0.22Z" style="fill-rule:nonzero;"/>
                    </g>
                    <g transform="matrix(64,0,0,64,657.407,388.879)">
                        <path d="M0.255,-0l0,-0.69l-0.195,0l0,0.045l0.142,0l0,0.645l0.053,-0Z" style="fill-rule:nonzero;"/>
                    </g>
                    <g transform="matrix(64,0,0,64,683.967,388.879)">
                        <path d="M0.515,-0l0,-0.05l-0.375,0l0.2,-0.195c0.035,-0.035 0.147,-0.13 0.147,-0.252c0,-0.123 -0.092,-0.203 -0.217,-0.203c-0.125,-0 -0.185,0.09 -0.21,0.145l0.04,0.025c0.02,-0.045 0.07,-0.122 0.17,-0.122c0.1,-0 0.162,0.067 0.162,0.157c-0,0.09 -0.072,0.165 -0.117,0.21l-0.25,0.245l0.01,0.04l0.44,-0Z" style="fill-rule:nonzero;"/>
                    </g>
                    <g transform="matrix(64,0,0,64,719.807,388.879)">
                        <path d="M0.495,-0.215c0,-0.145 -0.115,-0.225 -0.23,-0.225c-0.035,0 -0.073,0.005 -0.103,0.02l0.048,-0.222l0.27,0l-0,-0.048l-0.31,0l-0.065,0.315l0.035,0.02c0.025,-0.025 0.075,-0.037 0.12,-0.037c0.09,0 0.18,0.057 0.18,0.177c0,0.12 -0.09,0.178 -0.18,0.178c-0.09,0 -0.15,-0.048 -0.175,-0.098l-0.04,0.03c0.02,0.04 0.085,0.117 0.21,0.117c0.125,0 0.24,-0.082 0.24,-0.227Z" style="fill-rule:nonzero;"/>
                    </g>
                    <g transform="matrix(64,0,0,64,755.647,388.879)">
                        <path d="M0.2,-0.08l-0.06,0l-0.06,0.22l0.04,0l0.08,-0.22Z" style="fill-rule:nonzero;"/>
                    </g>
                    <g transform="matrix(64,0,0,64,786.687,388.879)">
                        <path d="M0.255,-0l0,-0.69l-0.195,0l0,0.045l0.142,0l0,0.645l0.053,-0Z" style="fill-rule:nonzero;"/>
                    </g>
                    <g transform="matrix(64,0,0,64,813.247,388.879)">
                        <path d="M0.515,-0l0,-0.05l-0.375,0l0.2,-0.195c0.035,-0.035 0.147,-0.13 0.147,-0.252c0,-0.123 -0.092,-0.203 -0.217,-0.203c-0.125,-0 -0.185,0.09 -0.21,0.145l0.04,0.025c0.02,-0.045 0.07,-0.122 0.17,-0.122c0.1,-0 0.162,0.067 0.162,0.157c-0,0.09 -0.072,0.165 -0.117,0.21l-0.25,0.245l0.01,0.04l0.44,-0Z" style="fill-rule:nonzero;"/>
                    </g>
                    <g transform="matrix(64,0,0,64,849.087,388.879)">
                        <path d="M0.515,-0.22c0,-0.13 -0.103,-0.213 -0.213,-0.213c-0.11,0 -0.167,0.063 -0.195,0.128c-0,-0.138 0.029,-0.35 0.208,-0.35c0.07,0 0.115,0.03 0.152,0.065l0.03,-0.037c-0,0 -0.057,-0.073 -0.18,-0.073c-0.201,0 -0.262,0.202 -0.262,0.37c-0,0.159 0.042,0.342 0.24,0.342c0.135,0 0.22,-0.102 0.22,-0.232Zm-0.055,0.009c-0,0.09 -0.053,0.175 -0.165,0.175c-0.113,0 -0.168,-0.085 -0.168,-0.175c-0,-0.09 0.055,-0.175 0.168,-0.175c0.112,0 0.165,0.085 0.165,0.175Z" style="fill-rule:nonzero;"/>
                    </g>
                    <g transform="matrix(64,0,0,64,884.927,388.879)">
                        <path d="M0.2,-0.08l-0.06,0l-0.06,0.22l0.04,0l0.08,-0.22Z" style="fill-rule:nonzero;"/>
                    </g>
                    <g transform="matrix(64,0,0,64,915.967,388.879)">
                        <path d="M0.255,-0l0,-0.69l-0.195,0l0,0.045l0.142,0l0,0.645l0.053,-0Z" style="fill-rule:nonzero;"/>
                    </g>
                    <g transform="matrix(64,0,0,64,942.527,388.879)">
                        <path d="M0.515,-0l0,-0.05l-0.375,0l0.2,-0.195c0.035,-0.035 0.147,-0.13 0.147,-0.252c0,-0.123 -0.092,-0.203 -0.217,-0.203c-0.125,-0 -0.185,0.09 -0.21,0.145l0.04,0.025c0.02,-0.045 0.07,-0.122 0.17,-0.122c0.1,-0 0.162,0.067 0.162,0.157c-0,0.09 -0.072,0.165 -0.117,0.21l-0.25,0.245l0.01,0.04l0.44,-0Z" style="fill-rule:nonzero;"/>
                    </g>
                    <g transform="matrix(64,0,0,64,976.767,388.879)">
                        <path d="M0.53,-0.66l-0.015,-0.03l-0.455,0l0,0.048l0.405,0l-0.34,0.642l0.055,-0l0.35,-0.66Z" style="fill-rule:nonzero;"/>
                    </g>
                </g>
            </g>
        </g>
        <g>
            <g>
                <path d="M263.416,224.915l-18.351,10.596c-7.304,4.217 -7.008,11.236 0.662,15.664l157.499,90.929c7.67,4.428 19.827,4.599 27.132,0.382l105.881,-61.129c7.305,-4.217 7.008,-11.236 -0.662,-15.664l-16.241,-11.306" style="fill:white;stroke:black;stroke-width:10px;"/>
                <path d="M504.426,247.708l-126.347,-72.944c-7.67,-4.428 -19.828,-4.599 -27.132,-0.382l-75.554,43.62" style="fill:white;stroke:black;stroke-width:10px;"/>
                <path d="M238.471,204.877c0.072,2.871 2.067,2.915 5.952,5.158l157.498,90.929c7.67,4.428 19.828,4.599 27.132,0.382l105.882,-61.129c3.604,-2.08 5.357,-4.843 5.288,-7.64l0.002,-0.001l-0,30.725l-0,-0c-0,2.742 -1.755,5.44 -5.29,7.481l-105.882,61.129c-7.304,4.217 -19.462,4.046 -27.132,-0.382l-157.498,-90.93c-3.885,-2.242 -5.88,-5.15 -5.952,-8.023l-0,-27.699Z" style="fill:rgb(137,194,212);"/>
                <path d="M376.774,124.073c-7.67,-4.428 -19.827,-4.6 -27.132,-0.382l-105.881,61.128c-7.305,4.218 -7.008,11.237 0.662,15.665l157.498,90.929c7.67,4.428 19.828,4.599 27.132,0.382l105.882,-61.129c7.304,-4.217 7.008,-11.236 -0.662,-15.664l-157.499,-90.929Z" style="fill:white;stroke:black;stroke-width:10px;"/>
                <g>
                    <path d="M522.215,257.976c2.429,-1.402 4.401,-0.264 4.401,2.541c0,2.805 -1.972,6.22 -4.401,7.622c-2.429,1.403 -4.401,0.264 -4.401,-2.54c0,-2.805 1.972,-6.22 4.401,-7.623Z" style="fill:white;"/>
                    <path d="M507.986,266.191c2.429,-1.402 4.401,-0.264 4.401,2.541c0,2.805 -1.972,6.22 -4.401,7.622c-2.429,1.403 -4.401,0.264 -4.401,-2.541c0,-2.804 1.972,-6.22 4.401,-7.622Z" style="fill:white;"/>
                    <path d="M494.777,278.899l-57.593,33.25" style="fill:none;stroke:white;stroke-width:10px;"/>
                </g>
            </g>
            <path d="M337.604,94.798l-0,-44.158l-3.456,-0l-0,38.078l-29.12,-38.078l-3.456,-0l-0,44.158l3.456,-0l-0,-38.718l29.44,38.718l3.136,-0Z" style="fill-rule:nonzero;"/>
            <path d="M376.004,80.078c-0,-8.959 -6.72,-15.487 -15.232,-15.487c-8.448,0 -15.168,6.528 -15.168,15.487c-0,8.96 6.72,15.36 15.168,15.36c8.512,-0 15.232,-6.4 15.232,-15.36Zm-3.52,-0.128c-0,6.848 -4.48,12.48 -11.712,12.48c-7.168,-0 -11.648,-5.632 -11.648,-12.48c-0,-6.911 4.48,-12.479 11.648,-12.479c7.232,0 11.712,5.568 11.712,12.479Z" style="fill-rule:nonzero;"/>
            <path d="M381.124,79.95c-0,8.768 5.76,15.488 14.72,15.488c4.48,-0 8.512,-1.92 11.008,-6.144l-0,5.504l3.392,-0l-0,-44.158l-3.392,-0l-0,20.031c-2.88,-4.352 -6.848,-6.08 -11.136,-6.08c-8.832,0 -14.592,6.528 -14.592,15.359Zm3.52,0c-0,-6.911 4.032,-12.479 11.2,-12.479c7.232,0 11.2,5.568 11.2,12.479c-0,6.848 -3.968,12.48 -11.2,12.48c-7.168,-0 -11.2,-5.632 -11.2,-12.48Z" style="fill-rule:nonzero;"/>
            <path d="M445.764,78.479c-0,-8 -5.632,-13.888 -13.44,-13.888c-7.872,0 -14.4,6.208 -14.4,15.359c-0,9.088 5.568,15.488 14.208,15.488c8.64,-0 12.352,-4.48 12.352,-4.48l-1.6,-2.368c-0,0 -3.712,3.84 -10.432,3.84c-6.72,-0 -10.688,-4.672 -11.008,-11.712l24.128,0c-0,0 0.192,-1.28 0.192,-2.239Zm-3.392,-0.64l-20.8,-0c0.192,-4.16 3.2,-10.368 10.56,-10.368c7.36,0 10.24,6.528 10.24,10.368Z" style="fill-rule:nonzero;"/>
            <path d="M477.124,94.798l-0,-44.158l-12.48,-0l-0,2.88l9.088,-0l-0,41.278l3.392,-0Z" style="fill-rule:nonzero;"/>
        </g>
    </g>
    <g>
        <g>
            <path d="M1530,412.621c-0,-12.141 -9.857,-21.998 -21.999,-21.998l-636.002,-0c-12.142,-0 -21.999,9.857 -21.999,21.998l0,395.98c0,12.142 9.857,21.999 21.999,21.999l636.002,-0c12.142,-0 21.999,-9.857 21.999,-21.999l-0,-395.98Z" style="fill:none;stroke:black;stroke-width:7px;"/>
            <g>
                <path d="M1147.3,418.813l-0,7.616l8.192,-0l-0,4.991l-8.256,0.064c-0,1.75 -0.043,4.64 -0.128,8.672c-0.086,4.032 -0.128,6.197 -0.128,6.496c-0,1.109 0.288,2.026 0.864,2.752c0.576,0.725 1.418,1.087 2.528,1.087c1.066,0 2.368,-0.341 3.904,-1.023c1.194,-0.512 2.389,-1.174 3.584,-1.984l-0,6.463c-2.304,0.982 -3.734,1.579 -4.288,1.792c-1.579,0.555 -3.094,0.832 -4.544,0.832c-2.859,0 -4.992,-1.088 -6.4,-3.264c-1.195,-1.834 -1.792,-4.266 -1.792,-7.295c-0,-1.664 0.042,-4.448 0.128,-8.352c0.085,-3.904 0.128,-5.984 0.128,-6.24l-3.584,0l9.792,-12.607Z" style="fill-rule:nonzero;"/>
                <path d="M1172.39,437.116c-0,-1.749 -0.32,-3.114 -0.96,-4.096c-0.811,-1.194 -2.048,-1.792 -3.712,-1.792c-1.408,0 -3.03,0.491 -4.864,1.472c-1.408,0.726 -2.838,1.707 -4.288,2.944l0.064,-6.079c1.45,-1.152 3.093,-2.08 4.928,-2.784c1.834,-0.704 3.626,-1.056 5.376,-1.056c3.669,-0 6.25,1.365 7.744,4.096c1.109,2.047 1.664,5.077 1.664,9.087c-0,0.939 -0.043,2.485 -0.128,4.64c-0.086,2.154 -0.128,3.274 -0.128,3.36c-0,0.896 0.064,1.728 0.192,2.496c0.128,0.767 0.469,1.215 1.024,1.343l3.008,-1.023l-0,4.351c-1.28,0.768 -2.475,1.376 -3.584,1.824c-1.11,0.448 -2.262,0.672 -3.456,0.672c-0.555,0 -1.099,-0.245 -1.632,-0.736c-0.534,-0.49 -0.928,-1.013 -1.184,-1.568c-1.323,0.683 -2.411,1.195 -3.264,1.536c-1.28,0.512 -2.454,0.768 -3.52,0.768c-2.603,0 -4.63,-0.618 -6.08,-1.856c-1.579,-1.365 -2.368,-3.349 -2.368,-5.951c-0,-2.774 1.898,-5.163 5.696,-7.168c2.09,-1.109 5.248,-2.261 9.472,-3.456l-0,-1.024Zm-0,4.672c-2.39,0.597 -4.267,1.28 -5.632,2.048c-2.262,1.28 -3.392,2.794 -3.392,4.544c-0,0.938 0.362,1.77 1.088,2.495c0.725,0.726 1.578,1.088 2.56,1.088c0.853,0 1.77,-0.213 2.752,-0.64c1.194,-0.597 2.069,-1.024 2.624,-1.279l-0,-8.256Z" style="fill-rule:nonzero;"/>
                <path d="M1184.68,447.228c1.706,1.152 3.178,2.005 4.416,2.56c1.834,0.853 3.498,1.279 4.992,1.279c1.024,0 1.856,-0.192 2.496,-0.576c0.64,-0.384 0.96,-1.066 0.96,-2.047c-0,-1.323 -2.091,-3.264 -6.272,-5.824c-4.182,-2.56 -6.272,-5.44 -6.272,-8.64c-0,-2.56 0.821,-4.575 2.464,-6.047c1.642,-1.472 3.744,-2.208 6.304,-2.208c1.408,-0 2.816,0.202 4.224,0.608c1.408,0.405 2.773,0.992 4.096,1.76l0.064,6.335c-1.024,-0.81 -2.347,-1.546 -3.968,-2.208c-1.622,-0.661 -3.03,-0.992 -4.224,-0.992c-0.768,0 -1.44,0.192 -2.016,0.576c-0.576,0.384 -0.864,0.96 -0.864,1.728c-0,1.366 2.101,3.318 6.304,5.856c4.202,2.539 6.304,5.408 6.304,8.608c-0,2.559 -0.864,4.639 -2.592,6.239c-1.728,1.6 -3.894,2.4 -6.496,2.4c-1.707,0 -3.36,-0.245 -4.96,-0.736c-1.6,-0.49 -3.254,-1.205 -4.96,-2.144l-0,-6.527Z" style="fill-rule:nonzero;"/>
                <path d="M1209.32,410.622l6.08,-0l-0,28.862l11.52,-13.055l7.872,-0l-12.672,14.015l16,15.359l-8.896,0l-13.824,-13.695l-0,13.695l-6.08,0l-0,-45.181Z" style="fill-rule:nonzero;"/>
                <path d="M1238.82,447.228c1.706,1.152 3.178,2.005 4.416,2.56c1.834,0.853 3.498,1.279 4.992,1.279c1.024,0 1.856,-0.192 2.496,-0.576c0.64,-0.384 0.96,-1.066 0.96,-2.047c-0,-1.323 -2.091,-3.264 -6.272,-5.824c-4.182,-2.56 -6.272,-5.44 -6.272,-8.64c-0,-2.56 0.821,-4.575 2.464,-6.047c1.642,-1.472 3.744,-2.208 6.304,-2.208c1.408,-0 2.816,0.202 4.224,0.608c1.408,0.405 2.773,0.992 4.096,1.76l0.064,6.335c-1.024,-0.81 -2.347,-1.546 -3.968,-2.208c-1.622,-0.661 -3.03,-0.992 -4.224,-0.992c-0.768,0 -1.44,0.192 -2.016,0.576c-0.576,0.384 -0.864,0.96 -0.864,1.728c-0,1.366 2.101,3.318 6.304,5.856c4.202,2.539 6.304,5.408 6.304,8.608c-0,2.559 -0.864,4.639 -2.592,6.239c-1.728,1.6 -3.894,2.4 -6.496,2.4c-1.707,0 -3.36,-0.245 -4.96,-0.736c-1.6,-0.49 -3.254,-1.205 -4.96,-2.144l-0,-6.527Z" style="fill-rule:nonzero;"/>
                <g transform="matrix(1,0,0,0.999949,468.581,319.547)">
                    <g transform="matrix(64,0,0,64,448.127,260.879)">
                        <path d="M0.255,-0l0,-0.69l-0.195,0l0,0.045l0.142,0l0,0.645l0.053,-0Z" style="fill-rule:nonzero;"/>
                    </g>
                    <g transform="matrix(64,0,0,64,474.687,260.879)">
                        <path d="M0.515,-0l0,-0.05l-0.375,0l0.2,-0.195c0.035,-0.035 0.147,-0.13 0.147,-0.252c0,-0.123 -0.092,-0.203 -0.217,-0.203c-0.125,-0 -0.185,0.09 -0.21,0.145l0.04,0.025c0.02,-0.045 0.07,-0.122 0.17,-0.122c0.1,-0 0.162,0.067 0.162,0.157c-0,0.09 -0.072,0.165 -0.117,0.21l-0.25,0.245l0.01,0.04l0.44,-0Z" style="fill-rule:nonzero;"/>
                    </g>
                    <g transform="matrix(64,0,0,64,510.527,260.879)">
                        <path d="M0.5,-0.187c0,-0.09 -0.055,-0.153 -0.133,-0.178l0,-0.002c0.043,-0.018 0.11,-0.053 0.11,-0.16c0,-0.108 -0.092,-0.173 -0.197,-0.173c-0.105,0 -0.198,0.065 -0.198,0.173c0,0.107 0.068,0.142 0.11,0.16l0,0.002c-0.077,0.025 -0.132,0.088 -0.132,0.178c0,0.125 0.09,0.198 0.22,0.198c0.13,-0 0.22,-0.073 0.22,-0.198Zm-0.078,-0.334c0,0.085 -0.062,0.131 -0.142,0.131c-0.08,0 -0.143,-0.046 -0.143,-0.131c0,-0.085 0.063,-0.131 0.143,-0.131c0.08,0 0.142,0.046 0.142,0.131Zm0.023,0.331c0,0.095 -0.075,0.154 -0.165,0.154c-0.09,0 -0.165,-0.059 -0.165,-0.154c0,-0.095 0.07,-0.152 0.165,-0.152c0.095,-0 0.165,0.057 0.165,0.152Z" style="fill-rule:nonzero;"/>
                    </g>
                    <g transform="matrix(64,0,0,64,546.367,260.879)">
                        <path d="M0.2,-0.08l-0.06,0l-0.06,0.22l0.04,0l0.08,-0.22Z" style="fill-rule:nonzero;"/>
                    </g>
                    <g transform="matrix(64,0,0,64,577.407,260.879)">
                        <path d="M0.255,-0l0,-0.69l-0.195,0l0,0.045l0.142,0l0,0.645l0.053,-0Z" style="fill-rule:nonzero;"/>
                    </g>
                    <g transform="matrix(64,0,0,64,603.967,260.879)">
                        <path d="M0.515,-0l0,-0.05l-0.375,0l0.2,-0.195c0.035,-0.035 0.147,-0.13 0.147,-0.252c0,-0.123 -0.092,-0.203 -0.217,-0.203c-0.125,-0 -0.185,0.09 -0.21,0.145l0.04,0.025c0.02,-0.045 0.07,-0.122 0.17,-0.122c0.1,-0 0.162,0.067 0.162,0.157c-0,0.09 -0.072,0.165 -0.117,0.21l-0.25,0.245l0.01,0.04l0.44,-0Z" style="fill-rule:nonzero;"/>
                    </g>
                    <g transform="matrix(64,0,0,64,639.807,260.879)">
                        <path d="M0.505,-0.36c0,-0.159 -0.043,-0.34 -0.24,-0.34c-0.135,-0 -0.22,0.102 -0.22,0.232c-0,0.13 0.102,0.213 0.212,0.213c0.11,0 0.168,-0.065 0.195,-0.13c0,0.13 -0.025,0.22 -0.06,0.273c-0.035,0.052 -0.075,0.077 -0.145,0.077c-0.069,-0 -0.122,-0.027 -0.16,-0.062l-0.03,0.037c0.01,0.01 0.065,0.072 0.19,0.072c0.199,-0 0.258,-0.207 0.258,-0.372Zm-0.073,-0.118c0,0.09 -0.055,0.175 -0.167,0.175c-0.113,-0 -0.165,-0.085 -0.165,-0.175c0,-0.09 0.052,-0.175 0.165,-0.175c0.112,0 0.167,0.085 0.167,0.175Z" style="fill-rule:nonzero;"/>
                    </g>
                    <g transform="matrix(64,0,0,64,674.367,260.879)">
                        <path d="M0.2,-0.08l-0.06,0l-0.06,0.22l0.04,0l0.08,-0.22Z" style="fill-rule:nonzero;"/>
                    </g>
                    <g transform="matrix(64,0,0,64,705.407,260.879)">
                        <path d="M0.255,-0l0,-0.69l-0.195,0l0,0.045l0.142,0l0,0.645l0.053,-0Z" style="fill-rule:nonzero;"/>
                    </g>
                    <g transform="matrix(64,0,0,64,731.967,260.879)">
                        <path d="M0.495,-0.187c0,-0.118 -0.09,-0.168 -0.14,-0.175l0,-0.003c0.04,-0.01 0.12,-0.05 0.12,-0.16c0,-0.11 -0.095,-0.175 -0.2,-0.175c-0.105,0 -0.161,0.05 -0.205,0.105l0.035,0.03c0.04,-0.045 0.085,-0.087 0.165,-0.087c0.08,0 0.15,0.047 0.15,0.132c0,0.085 -0.06,0.133 -0.145,0.133l-0.045,0l0,0.052l0.045,0c0.09,0 0.165,0.05 0.165,0.148c0,0.097 -0.073,0.149 -0.178,0.149c-0.105,0 -0.167,-0.104 -0.167,-0.104l-0.04,0.032c0,0 0.067,0.12 0.205,0.12c0.137,0 0.235,-0.08 0.235,-0.197Z" style="fill-rule:nonzero;"/>
                    </g>
                    <g transform="matrix(64,0,0,64,767.807,260.879)">
                        <path d="M0.53,-0.344c0,-0.178 -0.075,-0.356 -0.25,-0.356c-0.174,-0 -0.25,0.178 -0.25,0.356c-0,0.177 0.075,0.355 0.25,0.355c0.175,-0 0.25,-0.178 0.25,-0.355Zm-0.058,-0.002c0,0.18 -0.067,0.307 -0.192,0.307c-0.125,-0 -0.193,-0.127 -0.193,-0.307c-0,-0.18 0.068,-0.307 0.193,-0.307c0.125,0 0.192,0.127 0.192,0.307Z" style="fill-rule:nonzero;"/>
                    </g>
                    <g transform="matrix(64,0,0,64,802.367,260.879)">
                        <path d="M0.2,-0.08l-0.06,0l-0.06,0.22l0.04,0l0.08,-0.22Z" style="fill-rule:nonzero;"/>
                    </g>
                    <g transform="matrix(64,0,0,64,833.407,260.879)">
                        <path d="M0.255,-0l0,-0.69l-0.195,0l0,0.045l0.142,0l0,0.645l0.053,-0Z" style="fill-rule:nonzero;"/>
                    </g>
                    <g transform="matrix(64,0,0,64,859.967,260.879)">
                        <path d="M0.495,-0.187c0,-0.118 -0.09,-0.168 -0.14,-0.175l0,-0.003c0.04,-0.01 0.12,-0.05 0.12,-0.16c0,-0.11 -0.095,-0.175 -0.2,-0.175c-0.105,0 -0.161,0.05 -0.205,0.105l0.035,0.03c0.04,-0.045 0.085,-0.087 0.165,-0.087c0.08,0 0.15,0.047 0.15,0.132c0,0.085 -0.06,0.133 -0.145,0.133l-0.045,0l0,0.052l0.045,0c0.09,0 0.165,0.05 0.165,0.148c0,0.097 -0.073,0.149 -0.178,0.149c-0.105,0 -0.167,-0.104 -0.167,-0.104l-0.04,0.032c0,0 0.067,0.12 0.205,0.12c0.137,0 0.235,-0.08 0.235,-0.197Z" style="fill-rule:nonzero;"/>
                    </g>
                    <g transform="matrix(64,0,0,64,895.807,260.879)">
                        <path d="M0.255,-0l0,-0.69l-0.195,0l0,0.045l0.142,0l0,0.645l0.053,-0Z" style="fill-rule:nonzero;"/>
                    </g>
                    <g transform="matrix(64,0,0,64,922.367,260.879)">
                        <path d="M0.2,-0.08l-0.06,0l-0.06,0.22l0.04,0l0.08,-0.22Z" style="fill-rule:nonzero;"/>
                    </g>
                    <g transform="matrix(64,0,0,64,953.407,260.879)">
                        <path d="M0.19,-0.037c0,-0.028 -0.02,-0.048 -0.048,-0.048c-0.027,-0 -0.047,0.02 -0.047,0.048c-0,0.027 0.02,0.047 0.047,0.047c0.028,-0 0.048,-0.02 0.048,-0.047Z" style="fill-rule:nonzero;"/>
                    </g>
                    <g transform="matrix(64,0,0,64,971.647,260.879)">
                        <path d="M0.19,-0.037c0,-0.028 -0.02,-0.048 -0.048,-0.048c-0.027,-0 -0.047,0.02 -0.047,0.048c-0,0.027 0.02,0.047 0.047,0.047c0.028,-0 0.048,-0.02 0.048,-0.047Z" style="fill-rule:nonzero;"/>
                    </g>
                    <g transform="matrix(64,0,0,64,989.887,260.879)">
                        <path d="M0.19,-0.037c0,-0.028 -0.02,-0.048 -0.048,-0.048c-0.027,-0 -0.047,0.02 -0.047,0.048c-0,0.027 0.02,0.047 0.047,0.047c0.028,-0 0.048,-0.02 0.048,-0.047Z" style="fill-rule:nonzero;"/>
                    </g>
                    <g transform="matrix(64,0,0,64,423.647,388.879)">
                        <path d="M0.19,-0.037c0,-0.028 -0.02,-0.048 -0.048,-0.048c-0.027,-0 -0.047,0.02 -0.047,0.048c-0,0.027 0.02,0.047 0.047,0.047c0.028,-0 0.048,-0.02 0.048,-0.047Z" style="fill-rule:nonzero;"/>
                    </g>
                    <g transform="matrix(64,0,0,64,441.887,388.879)">
                        <path d="M0.19,-0.037c0,-0.028 -0.02,-0.048 -0.048,-0.048c-0.027,-0 -0.047,0.02 -0.047,0.048c-0,0.027 0.02,0.047 0.047,0.047c0.028,-0 0.048,-0.02 0.048,-0.047Z" style="fill-rule:nonzero;"/>
                    </g>
                    <g transform="matrix(64,0,0,64,460.127,388.879)">
                        <path d="M0.19,-0.037c0,-0.028 -0.02,-0.048 -0.048,-0.048c-0.027,-0 -0.047,0.02 -0.047,0.048c-0,0.027 0.02,0.047 0.047,0.047c0.028,-0 0.048,-0.02 0.048,-0.047Z" style="fill-rule:nonzero;"/>
                    </g>
                    <g transform="matrix(64,0,0,64,478.367,388.879)">
                        <path d="M0.2,-0.08l-0.06,0l-0.06,0.22l0.04,0l0.08,-0.22Z" style="fill-rule:nonzero;"/>
                    </g>
                    <g transform="matrix(64,0,0,64,509.407,388.879)">
                        <path d="M0.515,-0l0,-0.05l-0.375,0l0.2,-0.195c0.035,-0.035 0.147,-0.13 0.147,-0.252c0,-0.123 -0.092,-0.203 -0.217,-0.203c-0.125,-0 -0.185,0.09 -0.21,0.145l0.04,0.025c0.02,-0.045 0.07,-0.122 0.17,-0.122c0.1,-0 0.162,0.067 0.162,0.157c-0,0.09 -0.072,0.165 -0.117,0.21l-0.25,0.245l0.01,0.04l0.44,-0Z" style="fill-rule:nonzero;"/>
                    </g>
                    <g transform="matrix(64,0,0,64,545.247,388.879)">
                        <path d="M0.495,-0.215c0,-0.145 -0.115,-0.225 -0.23,-0.225c-0.035,0 -0.073,0.005 -0.103,0.02l0.048,-0.222l0.27,0l-0,-0.048l-0.31,0l-0.065,0.315l0.035,0.02c0.025,-0.025 0.075,-0.037 0.12,-0.037c0.09,0 0.18,0.057 0.18,0.177c0,0.12 -0.09,0.178 -0.18,0.178c-0.09,0 -0.15,-0.048 -0.175,-0.098l-0.04,0.03c0.02,0.04 0.085,0.117 0.21,0.117c0.125,0 0.24,-0.082 0.24,-0.227Z" style="fill-rule:nonzero;"/>
                    </g>
                    <g transform="matrix(64,0,0,64,581.087,388.879)">
                        <path d="M0.515,-0l0,-0.05l-0.375,0l0.2,-0.195c0.035,-0.035 0.147,-0.13 0.147,-0.252c0,-0.123 -0.092,-0.203 -0.217,-0.203c-0.125,-0 -0.185,0.09 -0.21,0.145l0.04,0.025c0.02,-0.045 0.07,-0.122 0.17,-0.122c0.1,-0 0.162,0.067 0.162,0.157c-0,0.09 -0.072,0.165 -0.117,0.21l-0.25,0.245l0.01,0.04l0.44,-0Z" style="fill-rule:nonzero;"/>
                    </g>
                    <g transform="matrix(64,0,0,64,616.927,388.879)">
                        <path d="M0.2,-0.08l-0.06,0l-0.06,0.22l0.04,0l0.08,-0.22Z" style="fill-rule:nonzero;"/>
                    </g>
                    <g transform="matrix(64,0,0,64,647.967,388.879)">
                        <path d="M0.515,-0l0,-0.05l-0.375,0l0.2,-0.195c0.035,-0.035 0.147,-0.13 0.147,-0.252c0,-0.123 -0.092,-0.203 -0.217,-0.203c-0.125,-0 -0.185,0.09 -0.21,0.145l0.04,0.025c0.02,-0.045 0.07,-0.122 0.17,-0.122c0.1,-0 0.162,0.067 0.162,0.157c-0,0.09 -0.072,0.165 -0.117,0.21l-0.25,0.245l0.01,0.04l0.44,-0Z" style="fill-rule:nonzero;"/>
                    </g>
                    <g transform="matrix(64,0,0,64,683.807,388.879)">
                        <path d="M0.495,-0.215c0,-0.145 -0.115,-0.225 -0.23,-0.225c-0.035,0 -0.073,0.005 -0.103,0.02l0.048,-0.222l0.27,0l-0,-0.048l-0.31,0l-0.065,0.315l0.035,0.02c0.025,-0.025 0.075,-0.037 0.12,-0.037c0.09,0 0.18,0.057 0.18,0.177c0,0.12 -0.09,0.178 -0.18,0.178c-0.09,0 -0.15,-0.048 -0.175,-0.098l-0.04,0.03c0.02,0.04 0.085,0.117 0.21,0.117c0.125,0 0.24,-0.082 0.24,-0.227Z" style="fill-rule:nonzero;"/>
                    </g>
                    <g transform="matrix(64,0,0,64,719.647,388.879)">
                        <path d="M0.495,-0.187c0,-0.118 -0.09,-0.168 -0.14,-0.175l0,-0.003c0.04,-0.01 0.12,-0.05 0.12,-0.16c0,-0.11 -0.095,-0.175 -0.2,-0.175c-0.105,0 -0.161,0.05 -0.205,0.105l0.035,0.03c0.04,-0.045 0.085,-0.087 0.165,-0.087c0.08,0 0.15,0.047 0.15,0.132c0,0.085 -0.06,0.133 -0.145,0.133l-0.045,0l0,0.052l0.045,0c0.09,0 0.165,0.05 0.165,0.148c0,0.097 -0.073,0.149 -0.178,0.149c-0.105,0 -0.167,-0.104 -0.167,-0.104l-0.04,0.032c0,0 0.067,0.12 0.205,0.12c0.137,0 0.235,-0.08 0.235,-0.197Z" style="fill-rule:nonzero;"/>
                    </g>
                    <g transform="matrix(64,0,0,64,755.487,388.879)">
                        <path d="M0.2,-0.08l-0.06,0l-0.06,0.22l0.04,0l0.08,-0.22Z" style="fill-rule:nonzero;"/>
                    </g>
                    <g transform="matrix(64,0,0,64,786.527,388.879)">
                        <path d="M0.515,-0l0,-0.05l-0.375,0l0.2,-0.195c0.035,-0.035 0.147,-0.13 0.147,-0.252c0,-0.123 -0.092,-0.203 -0.217,-0.203c-0.125,-0 -0.185,0.09 -0.21,0.145l0.04,0.025c0.02,-0.045 0.07,-0.122 0.17,-0.122c0.1,-0 0.162,0.067 0.162,0.157c-0,0.09 -0.072,0.165 -0.117,0.21l-0.25,0.245l0.01,0.04l0.44,-0Z" style="fill-rule:nonzero;"/>
                    </g>
                    <g transform="matrix(64,0,0,64,822.367,388.879)">
                        <path d="M0.495,-0.215c0,-0.145 -0.115,-0.225 -0.23,-0.225c-0.035,0 -0.073,0.005 -0.103,0.02l0.048,-0.222l0.27,0l-0,-0.048l-0.31,0l-0.065,0.315l0.035,0.02c0.025,-0.025 0.075,-0.037 0.12,-0.037c0.09,0 0.18,0.057 0.18,0.177c0,0.12 -0.09,0.178 -0.18,0.178c-0.09,0 -0.15,-0.048 -0.175,-0.098l-0.04,0.03c0.02,0.04 0.085,0.117 0.21,0.117c0.125,0 0.24,-0.082 0.24,-0.227Z" style="fill-rule:nonzero;"/>
                    </g>
                    <g transform="matrix(64,0,0,64,858.207,388.879)">
                        <path d="M0.54,-0.16l0,-0.05l-0.106,0l-0,-0.485l-0.049,0l-0.36,0.495l-0,0.04l0.356,0l-0,0.16l0.053,0l-0,-0.16l0.106,0Zm-0.159,-0.05l-0.296,0l0.296,-0.405l0,0.405Z" style="fill-rule:nonzero;"/>
                    </g>
                    <g transform="matrix(64,0,0,64,894.047,388.879)">
                        <path d="M0.2,-0.08l-0.06,0l-0.06,0.22l0.04,0l0.08,-0.22Z" style="fill-rule:nonzero;"/>
                    </g>
                    <g transform="matrix(64,0,0,64,925.087,388.879)">
                        <path d="M0.515,-0l0,-0.05l-0.375,0l0.2,-0.195c0.035,-0.035 0.147,-0.13 0.147,-0.252c0,-0.123 -0.092,-0.203 -0.217,-0.203c-0.125,-0 -0.185,0.09 -0.21,0.145l0.04,0.025c0.02,-0.045 0.07,-0.122 0.17,-0.122c0.1,-0 0.162,0.067 0.162,0.157c-0,0.09 -0.072,0.165 -0.117,0.21l-0.25,0.245l0.01,0.04l0.44,-0Z" style="fill-rule:nonzero;"/>
                    </g>
                    <g transform="matrix(64,0,0,64,960.927,388.879)">
                        <path d="M0.495,-0.215c0,-0.145 -0.115,-0.225 -0.23,-0.225c-0.035,0 -0.073,0.005 -0.103,0.02l0.048,-0.222l0.27,0l-0,-0.048l-0.31,0l-0.065,0.315l0.035,0.02c0.025,-0.025 0.075,-0.037 0.12,-0.037c0.09,0 0.18,0.057 0.18,0.177c0,0.12 -0.09,0.178 -0.18,0.178c-0.09,0 -0.15,-0.048 -0.175,-0.098l-0.04,0.03c0.02,0.04 0.085,0.117 0.21,0.117c0.125,0 0.24,-0.082 0.24,-0.227Z" style="fill-rule:nonzero;"/>
                    </g>
                    <g transform="matrix(64,0,0,64,996.767,388.879)">
                        <path d="M0.495,-0.215c0,-0.145 -0.115,-0.225 -0.23,-0.225c-0.035,0 -0.073,0.005 -0.103,0.02l0.048,-0.222l0.27,0l-0,-0.048l-0.31,0l-0.065,0.315l0.035,0.02c0.025,-0.025 0.075,-0.037 0.12,-0.037c0.09,0 0.18,0.057 0.18,0.177c0,0.12 -0.09,0.178 -0.18,0.178c-0.09,0 -0.15,-0.048 -0.175,-0.098l-0.04,0.03c0.02,0.04 0.085,0.117 0.21,0.117c0.125,0 0.24,-0.082 0.24,-0.227Z" style="fill-rule:nonzero;"/>
                    </g>
                </g>
            </g>
        </g>
        <g>
            <g>
                <path d="M1063.42,224.915l-18.351,10.596c-7.304,4.217 -7.008,11.236 0.662,15.664l157.499,90.929c7.67,4.428 19.827,4.599 27.132,0.382l105.881,-61.129c7.305,-4.217 7.008,-11.236 -0.662,-15.664l-16.241,-11.306" style="fill:white;stroke:black;stroke-width:10px;"/>
                <path d="M1304.43,247.708l-126.347,-72.944c-7.67,-4.428 -19.828,-4.599 -27.132,-0.382l-75.554,43.62" style="fill:white;stroke:black;stroke-width:10px;"/>
                <path d="M1038.47,204.877c0.072,2.871 2.067,2.915 5.952,5.158l157.498,90.929c7.67,4.428 19.828,4.599 27.132,0.382l105.882,-61.129c3.604,-2.08 5.357,-4.843 5.288,-7.64l0.002,-0.001l-0,30.725l-0,-0c-0,2.742 -1.755,5.44 -5.29,7.481l-105.882,61.129c-7.304,4.217 -19.462,4.046 -27.132,-0.382l-157.498,-90.93c-3.885,-2.242 -5.88,-5.15 -5.952,-8.023l-0,-27.699Z" style="fill:rgb(137,194,212);"/>
                <path d="M1176.77,124.073c-7.67,-4.428 -19.827,-4.6 -27.132,-0.382l-105.881,61.128c-7.305,4.218 -7.008,11.237 0.662,15.665l157.498,90.929c7.67,4.428 19.828,4.599 27.132,0.382l105.882,-61.129c7.304,-4.217 7.008,-11.236 -0.662,-15.664l-157.499,-90.929Z" style="fill:white;stroke:black;stroke-width:10px;"/>
                <g>
                    <path d="M1322.21,257.976c2.429,-1.402 4.401,-0.264 4.401,2.541c0,2.805 -1.972,6.22 -4.401,7.622c-2.429,1.403 -4.401,0.264 -4.401,-2.54c0,-2.805 1.972,-6.22 4.401,-7.623Z" style="fill:white;"/>
                    <path d="M1307.99,266.191c2.429,-1.402 4.401,-0.264 4.401,2.541c0,2.805 -1.972,6.22 -4.401,7.622c-2.429,1.403 -4.401,0.264 -4.401,-2.541c0,-2.804 1.972,-6.22 4.401,-7.622Z" style="fill:white;"/>
                    <path d="M1294.78,278.899l-57.593,33.25" style="fill:none;stroke:white;stroke-width:10px;"/>
                </g>
            </g>
            <path d="M1137.6,94.798l-0,-44.158l-3.456,-0l-0,38.078l-29.12,-38.078l-3.456,-0l-0,44.158l3.456,-0l-0,-38.718l29.44,38.718l3.136,-0Z" style="fill-rule:nonzero;"/>
            <path d="M1176,80.078c-0,-8.959 -6.72,-15.487 -15.232,-15.487c-8.448,0 -15.168,6.528 -15.168,15.487c-0,8.96 6.72,15.36 15.168,15.36c8.512,-0 15.232,-6.4 15.232,-15.36Zm-3.52,-0.128c-0,6.848 -4.48,12.48 -11.712,12.48c-7.168,-0 -11.648,-5.632 -11.648,-12.48c-0,-6.911 4.48,-12.479 11.648,-12.479c7.232,0 11.712,5.568 11.712,12.479Z" style="fill-rule:nonzero;"/>
            <path d="M1181.12,79.95c-0,8.768 5.76,15.488 14.72,15.488c4.48,-0 8.512,-1.92 11.008,-6.144l-0,5.504l3.392,-0l-0,-44.158l-3.392,-0l-0,20.031c-2.88,-4.352 -6.848,-6.08 -11.136,-6.08c-8.832,0 -14.592,6.528 -14.592,15.359Zm3.52,0c-0,-6.911 4.032,-12.479 11.2,-12.479c7.232,0 11.2,5.568 11.2,12.479c-0,6.848 -3.968,12.48 -11.2,12.48c-7.168,-0 -11.2,-5.632 -11.2,-12.48Z" style="fill-rule:nonzero;"/>
            <path d="M1245.76,78.479c-0,-8 -5.632,-13.888 -13.44,-13.888c-7.872,0 -14.4,6.208 -14.4,15.359c-0,9.088 5.568,15.488 14.208,15.488c8.64,-0 12.352,-4.48 12.352,-4.48l-1.6,-2.368c-0,0 -3.712,3.84 -10.432,3.84c-6.72,-0 -10.688,-4.672 -11.008,-11.712l24.128,0c-0,0 0.192,-1.28 0.192,-2.239Zm-3.392,-0.64l-20.8,-0c0.192,-4.16 3.2,-10.368 10.56,-10.368c7.36,0 10.24,6.528 10.24,10.368Z" style="fill-rule:nonzero;"/>
            <path d="M1293.76,94.798l-0,-3.2l-24,-0l12.8,-12.479c2.24,-2.24 9.408,-8.32 9.408,-16.128c-0,-7.871 -5.888,-12.991 -13.888,-12.991c-8,0 -11.84,5.76 -13.44,9.28l2.56,1.599c1.28,-2.879 4.48,-7.807 10.88,-7.807c6.4,-0 10.368,4.288 10.368,10.047c-0,5.76 -4.608,10.56 -7.488,13.44l-16,15.679l0.64,2.56l28.16,-0Z" style="fill-rule:nonzero;"/>
        </g>
    </g>
</svg>
