<svg viewBox="0 0 1580 881" xmlns="http://www.w3.org/2000/svg" fill-rule="evenodd" clip-rule="evenodd" stroke-linecap="round" stroke-linejoin="round" stroke-miterlimit="1.5"><path d="M730 412.62a22 22 0 00-22-22H72a22 22 0 00-22 22V808.6a22 22 0 0022 22h636a22 22 0 0022-22V412.62z" fill="none" stroke="#000" stroke-width="7"/><path d="M335.72 417.79v7.61h8.19v5l-8.26.06c0 1.75-.04 4.64-.13 8.67l-.12 6.5c0 1.1.28 2.02.86 2.75.58.72 1.42 1.09 2.53 1.09 1.06 0 2.37-.34 3.9-1.03 1.2-.5 2.4-1.17 3.59-1.98v6.46c-2.3.99-3.74 1.58-4.3 1.8-1.57.55-3.09.83-4.54.83-2.85 0-4.99-1.1-6.4-3.27-1.2-1.83-1.79-4.26-1.79-7.3 0-1.66.04-4.44.13-8.34l.13-6.24h-3.59l9.8-12.61z" fill-rule="nonzero"/><path d="M360.8 436.1c0-1.76-.32-3.12-.96-4.1-.8-1.2-2.04-1.8-3.7-1.8-1.42 0-3.04.5-4.87 1.48-1.41.72-2.84 1.7-4.29 2.94l.06-6.08a18.53 18.53 0 014.93-2.78c1.84-.7 3.63-1.06 5.38-1.06 3.67 0 6.25 1.37 7.74 4.1 1.11 2.04 1.67 5.07 1.67 9.08 0 .94-.05 2.49-.13 4.64l-.13 3.36c0 .9.06 1.73.2 2.5.12.77.46 1.22 1.02 1.34l3-1.02v4.35a25.92 25.92 0 01-3.58 1.82 9.15 9.15 0 01-3.46.68c-.55 0-1.1-.25-1.63-.74a4.97 4.97 0 01-1.18-1.57c-1.33.69-2.41 1.2-3.27 1.54a9.56 9.56 0 01-3.52.77c-2.6 0-4.63-.62-6.08-1.86-1.58-1.36-2.36-3.35-2.36-5.95 0-2.77 1.9-5.16 5.7-7.17 2.08-1.1 5.24-2.26 9.46-3.45v-1.03zm0 4.66c-2.39.6-4.26 1.28-5.63 2.05-2.26 1.28-3.39 2.8-3.39 4.55 0 .93.36 1.77 1.09 2.5a3.5 3.5 0 002.56 1.08c.85 0 1.77-.21 2.75-.64 1.2-.6 2.07-1.02 2.62-1.28v-8.26zM373.1 446.2c1.7 1.16 3.17 2 4.4 2.56a12 12 0 005 1.28 4.8 4.8 0 002.5-.57c.64-.39.96-1.07.96-2.05 0-1.32-2.1-3.26-6.28-5.82-4.18-2.56-6.27-5.44-6.27-8.64 0-2.56.82-4.58 2.47-6.05a9.09 9.09 0 016.3-2.2c1.4 0 2.82.2 4.22.6 1.41.4 2.78 1 4.1 1.76l.06 6.33a16.37 16.37 0 00-3.96-2.2 11.5 11.5 0 00-4.23-1c-.77 0-1.44.2-2.01.58-.58.38-.87.96-.87 1.73 0 1.36 2.1 3.32 6.3 5.85 4.2 2.54 6.31 5.41 6.31 8.61 0 2.56-.86 4.64-2.6 6.24a9.2 9.2 0 01-6.49 2.4c-1.7 0-3.36-.24-4.96-.74-1.6-.49-3.25-1.2-4.96-2.14v-6.53zM397.73 409.6h6.08v28.86l11.52-13.05h7.87l-12.67 14.01 16 15.36h-8.9l-13.82-13.7v13.7h-6.08V409.6zM427.24 446.2c1.7 1.16 3.17 2 4.41 2.56a12 12 0 005 1.28 4.8 4.8 0 002.49-.57c.64-.39.96-1.07.96-2.05 0-1.32-2.1-3.26-6.27-5.82-4.18-2.56-6.27-5.44-6.27-8.64 0-2.56.82-4.58 2.46-6.05a9.09 9.09 0 016.3-2.2c1.41 0 2.82.2 4.23.6 1.4.4 2.77 1 4.1 1.76l.06 6.33a16.37 16.37 0 00-3.97-2.2 11.5 11.5 0 00-4.22-1c-.77 0-1.44.2-2.02.58-.58.38-.86.96-.86 1.73 0 1.36 2.1 3.32 6.3 5.85 4.2 2.54 6.3 5.41 6.3 8.61 0 2.56-.86 4.64-2.59 6.24a9.2 9.2 0 01-6.5 2.4c-1.7 0-3.35-.24-4.95-.74-1.6-.49-3.26-1.2-4.96-2.14v-6.53zM262.08 558.4c0-11.4-4.8-22.79-16-22.79-11.13 0-16 11.4-16 22.79 0 11.33 4.8 22.72 16 22.72s16-11.4 16-22.72zm-3.7-.13c0 11.52-4.3 19.65-12.3 19.65s-12.35-8.13-12.35-19.65c0-11.52 4.35-19.65 12.35-19.65s12.3 8.13 12.3 19.65zM275.52 575.3h-3.84l-3.84 14.07h2.56l5.12-14.08zM310.08 580.41v-44.16H297.6v2.88h9.1v41.28h3.38zM333.12 575.3h-3.84l-3.84 14.07H328l5.12-14.08zM384.32 580.41v-3.2h-24l12.8-12.48c2.24-2.24 9.41-8.32 9.41-16.12 0-7.88-5.89-13-13.89-13s-11.84 5.76-13.44 9.28l2.56 1.6c1.28-2.88 4.48-7.8 10.88-7.8s10.37 4.28 10.37 10.04c0 5.76-4.6 10.56-7.49 13.44l-16 15.68.64 2.56h28.16zM400 575.3h-3.84l-3.84 14.07h2.56L400 575.3zM449.92 568.45c0-7.56-5.76-10.76-8.96-11.2v-.2c2.56-.64 7.68-3.2 7.68-10.24s-6.08-11.2-12.8-11.2c-6.72 0-10.3 3.2-13.12 6.72l2.24 1.92c2.56-2.88 5.44-5.56 10.56-5.56s9.6 3 9.6 8.44c0 5.44-3.84 8.52-9.28 8.52h-2.88v3.32h2.88c5.76 0 10.56 3.2 10.56 9.48 0 6.2-4.67 9.53-11.39 9.53-6.72 0-10.69-6.65-10.69-6.65l-2.56 2.04s4.3 7.68 13.12 7.68c8.77 0 15.04-5.12 15.04-12.6zM466.88 575.3h-3.84l-3.84 14.07h2.56l5.12-14.08zM497.28 578.04c0-1.79-1.28-3.07-3.07-3.07-1.73 0-3 1.28-3 3.07 0 1.73 1.27 3.01 3 3.01 1.8 0 3.07-1.28 3.07-3zM515.52 578.04c0-1.79-1.28-3.07-3.07-3.07-1.73 0-3 1.28-3 3.07 0 1.73 1.27 3.01 3 3.01 1.8 0 3.07-1.28 3.07-3zM533.76 578.04c0-1.79-1.28-3.07-3.07-3.07-1.73 0-3 1.28-3 3.07 0 1.73 1.27 3.01 3 3.01 1.8 0 3.07-1.28 3.07-3zM111.68 706.04c0-1.8-1.28-3.07-3.07-3.07-1.73 0-3 1.28-3 3.07 0 1.73 1.27 3 3 3 1.8 0 3.07-1.27 3.07-3zM129.92 706.04c0-1.8-1.28-3.07-3.07-3.07-1.73 0-3 1.28-3 3.07 0 1.73 1.27 3 3 3 1.8 0 3.07-1.27 3.07-3zM148.16 706.04c0-1.8-1.28-3.07-3.07-3.07-1.73 0-3 1.28-3 3.07 0 1.73 1.27 3 3 3 1.8 0 3.07-1.27 3.07-3zM167.04 703.29h-3.84l-3.84 14.08h2.56l5.12-14.08zM201.6 708.4v-44.15h-12.48v2.88h9.1v41.28h3.38zM244.8 708.4v-3.2h-24l12.8-12.47c2.24-2.24 9.41-8.32 9.41-16.13 0-7.87-5.89-13-13.89-13s-11.84 5.77-13.44 9.29l2.56 1.6c1.28-2.88 4.48-7.81 10.88-7.81s10.37 4.29 10.37 10.05c0 5.76-4.6 10.56-7.49 13.44l-16 15.68.64 2.56h28.16zM280.96 698.17v-3.2h-6.78v-31.04h-3.14L248 695.6v2.56h22.79v10.24h3.39v-10.24h6.78zm-10.17-3.2h-18.95l18.95-25.92v25.92zM295.04 703.29h-3.84l-3.84 14.08h2.56l5.12-14.08zM329.6 708.4v-44.15h-12.48v2.88h9.1v41.28h3.38zM372.8 708.4v-3.2h-24l12.8-12.47c2.24-2.24 9.41-8.32 9.41-16.13 0-7.87-5.89-13-13.89-13s-11.84 5.77-13.44 9.29l2.56 1.6c1.28-2.88 4.48-7.81 10.88-7.81s10.37 4.29 10.37 10.05c0 5.76-4.6 10.56-7.49 13.44l-16 15.68.64 2.56h28.16zM407.36 694.65c0-9.28-7.36-14.4-14.72-14.4-2.24 0-4.67.32-6.59 1.28l3.07-14.21h17.28v-3.07h-19.84l-4.16 20.16 2.24 1.28c1.6-1.6 4.8-2.37 7.68-2.37 5.76 0 11.52 3.65 11.52 11.33s-5.76 11.39-11.52 11.39-9.6-3.07-11.2-6.27l-2.56 1.92c1.28 2.56 5.44 7.48 13.44 7.48 8 0 15.36-5.24 15.36-14.52zM424.32 703.29h-3.84l-3.84 14.08h2.56l5.12-14.08zM458.88 708.4v-44.15H446.4v2.88h9.1v41.28h3.38zM502.08 708.4v-3.2h-24l12.8-12.47c2.24-2.24 9.41-8.32 9.41-16.13 0-7.87-5.89-13-13.89-13s-11.84 5.77-13.44 9.29l2.56 1.6c1.28-2.88 4.48-7.81 10.88-7.81s10.37 4.29 10.37 10.05c0 5.76-4.6 10.56-7.49 13.44l-16 15.68.64 2.56h28.16zM537.92 694.33c0-8.32-6.59-13.63-13.63-13.63-7.04 0-10.69 4.03-12.48 8.19 0-8.83 1.86-22.4 13.31-22.4 4.48 0 7.36 1.92 9.73 4.16l1.92-2.37s-3.65-4.67-11.52-4.67c-12.86 0-16.77 12.93-16.77 23.68 0 10.17 2.7 21.88 15.36 21.88 8.64 0 14.08-6.52 14.08-14.84zm-3.52.57c0 5.76-3.39 11.2-10.56 11.2-7.23 0-10.75-5.44-10.75-11.2 0-5.76 3.52-11.2 10.75-11.2 7.17 0 10.56 5.44 10.56 11.2zM553.6 703.29h-3.84l-3.84 14.08h2.56l5.12-14.08zM588.16 708.4v-44.15h-12.48v2.88h9.1v41.28h3.38zM631.36 708.4v-3.2h-24l12.8-12.47c2.24-2.24 9.41-8.32 9.41-16.13 0-7.87-5.89-13-13.89-13s-11.84 5.77-13.44 9.29l2.56 1.6c1.28-2.88 4.48-7.81 10.88-7.81s10.37 4.29 10.37 10.05c0 5.76-4.6 10.56-7.49 13.44l-16 15.68.64 2.56h28.16zM666.56 666.17l-.96-1.92h-29.12v3.07h25.92l-21.76 41.09h3.52l22.4-42.24z" fill-rule="nonzero"/><g><path d="M263.42 224.91l-18.36 10.6c-7.3 4.22-7 11.24.67 15.67l157.5 90.92c7.67 4.43 19.82 4.6 27.13.39l105.88-61.13c7.3-4.22 7-11.24-.66-15.67l-16.24-11.3M504.43 247.7l-126.35-72.94c-7.67-4.42-19.83-4.6-27.13-.38L275.39 218" fill="#fff" stroke="#000" stroke-width="10"/><path d="M238.47 204.88c.07 2.87 2.07 2.91 5.95 5.16l157.5 90.92c7.67 4.43 19.83 4.6 27.13.39l105.88-61.13c3.6-2.08 5.36-4.85 5.3-7.64v30.72c0 2.74-1.76 5.44-5.3 7.48l-105.88 61.13c-7.3 4.22-19.46 4.05-27.13-.38l-157.5-90.93c-3.88-2.24-5.88-5.15-5.95-8.02v-27.7z" fill="#89c2d4"/><path d="M376.77 124.07c-7.67-4.42-19.82-4.6-27.13-.38l-105.88 61.13c-7.3 4.22-7 11.24.66 15.66l157.5 90.93c7.67 4.43 19.83 4.6 27.13.38l105.88-61.12c7.3-4.22 7.01-11.24-.66-15.67l-157.5-90.93z" fill="#fff" stroke="#000" stroke-width="10"/><path d="M522.22 257.98c2.42-1.4 4.4-.27 4.4 2.54 0 2.8-1.98 6.22-4.4 7.62-2.43 1.4-4.4.26-4.4-2.54s1.97-6.22 4.4-7.62zM507.99 266.2c2.42-1.41 4.4-.27 4.4 2.53s-1.98 6.22-4.4 7.62c-2.43 1.4-4.4.27-4.4-2.54 0-2.8 1.97-6.22 4.4-7.62z" fill="#fff"/><path d="M494.78 278.9l-57.6 33.25" fill="none" stroke="#fff" stroke-width="10"/><path d="M337.6 94.8V50.64h-3.45v38.08l-29.12-38.08h-3.46V94.8h3.46V56.08l29.44 38.72h3.13zM376 80.08c0-8.96-6.72-15.49-15.23-15.49-8.45 0-15.17 6.53-15.17 15.49s6.72 15.36 15.17 15.36c8.51 0 15.23-6.4 15.23-15.36zm-3.52-.13c0 6.85-4.48 12.48-11.7 12.48-7.18 0-11.66-5.63-11.66-12.48 0-6.91 4.48-12.48 11.65-12.48 7.23 0 11.71 5.57 11.71 12.48zM381.12 79.95c0 8.77 5.76 15.49 14.72 15.49 4.48 0 8.52-1.92 11.01-6.15v5.5h3.4V50.65h-3.4v20.03c-2.88-4.35-6.85-6.08-11.13-6.08-8.84 0-14.6 6.53-14.6 15.36zm3.52 0c0-6.91 4.04-12.48 11.2-12.48 7.24 0 11.2 5.57 11.2 12.48 0 6.85-3.96 12.48-11.2 12.48-7.16 0-11.2-5.63-11.2-12.48zM445.76 78.48c0-8-5.63-13.89-13.44-13.89-7.87 0-14.4 6.2-14.4 15.36 0 9.09 5.57 15.49 14.21 15.49s12.35-4.48 12.35-4.48l-1.6-2.37s-3.7 3.84-10.43 3.84c-6.72 0-10.69-4.67-11-11.71h24.12s.2-1.28.2-2.24zm-3.39-.64h-20.8c.2-4.16 3.2-10.37 10.56-10.37s10.24 6.53 10.24 10.37zM477.12 94.8V50.64h-12.48v2.88h9.1V94.8h3.38z" fill-rule="nonzero"/></g><g><path d="M1530 412.62a22 22 0 00-22-22H872a22 22 0 00-22 22V808.6a22 22 0 0022 22h636a22 22 0 0022-22V412.62z" fill="none" stroke="#000" stroke-width="7"/><path d="M1147.3 418.81v7.62h8.2v4.99l-8.26.06c0 1.75-.05 4.64-.13 8.68l-.13 6.5c0 1.1.29 2.02.86 2.74.58.73 1.42 1.1 2.53 1.1 1.07 0 2.37-.35 3.9-1.03 1.2-.51 2.4-1.18 3.59-1.99v6.47c-2.3.98-3.73 1.58-4.29 1.79-1.58.55-3.1.83-4.54.83-2.86 0-5-1.09-6.4-3.26-1.2-1.84-1.8-4.27-1.8-7.3 0-1.66.05-4.45.13-8.35l.13-6.24h-3.58l9.79-12.6z" fill-rule="nonzero"/><path d="M1172.39 437.12c0-1.75-.32-3.12-.96-4.1-.81-1.2-2.05-1.8-3.71-1.8-1.41 0-3.03.5-4.87 1.48-1.4.73-2.83 1.7-4.28 2.94l.06-6.07a18.53 18.53 0 014.93-2.79c1.83-.7 3.62-1.05 5.37-1.05 3.67 0 6.25 1.36 7.75 4.1 1.1 2.04 1.66 5.07 1.66 9.08 0 .94-.04 2.48-.13 4.64l-.12 3.36c0 .9.06 1.73.19 2.5.13.76.47 1.2 1.02 1.34l3.01-1.03v4.35a25.92 25.92 0 01-3.58 1.83 9.15 9.15 0 01-3.46.67c-.55 0-1.1-.24-1.63-.73a4.97 4.97 0 01-1.19-1.57c-1.32.68-2.4 1.2-3.26 1.53a9.56 9.56 0 01-3.52.77c-2.6 0-4.63-.62-6.08-1.85-1.58-1.37-2.37-3.35-2.37-5.96 0-2.77 1.9-5.16 5.7-7.16 2.09-1.11 5.25-2.27 9.47-3.46v-1.02zm0 4.67c-2.39.6-4.27 1.28-5.63 2.05-2.26 1.28-3.4 2.79-3.4 4.54 0 .94.37 1.77 1.1 2.5a3.5 3.5 0 002.55 1.08c.86 0 1.77-.21 2.76-.64a99.9 99.9 0 012.62-1.28v-8.25zM1184.68 447.23c1.7 1.15 3.18 2 4.42 2.56a12 12 0 004.99 1.28 4.8 4.8 0 002.5-.58c.63-.38.95-1.07.95-2.05 0-1.32-2.09-3.26-6.27-5.82-4.18-2.56-6.27-5.44-6.27-8.64 0-2.56.82-4.58 2.46-6.05a9.09 9.09 0 016.3-2.2c1.42 0 2.82.2 4.23.6 1.41.4 2.78 1 4.1 1.76l.06 6.34a16.37 16.37 0 00-3.97-2.21 11.5 11.5 0 00-4.22-1c-.77 0-1.44.2-2.02.58-.57.39-.86.96-.86 1.73 0 1.37 2.1 3.32 6.3 5.86 4.2 2.54 6.3 5.4 6.3 8.6 0 2.56-.86 4.64-2.58 6.24a9.2 9.2 0 01-6.5 2.4c-1.7 0-3.36-.24-4.96-.73-1.6-.5-3.25-1.2-4.96-2.15v-6.52zM1209.32 410.62h6.08v28.86l11.52-13.05h7.87l-12.67 14.01 16 15.36h-8.9l-13.82-13.7v13.7h-6.08v-45.18zM1238.82 447.23c1.7 1.15 3.18 2 4.42 2.56a12 12 0 004.99 1.28 4.8 4.8 0 002.5-.58c.63-.38.95-1.07.95-2.05 0-1.32-2.09-3.26-6.27-5.82-4.18-2.56-6.27-5.44-6.27-8.64 0-2.56.82-4.58 2.46-6.05a9.09 9.09 0 016.3-2.2c1.42 0 2.82.2 4.23.6 1.41.4 2.77 1 4.1 1.76l.06 6.34a16.37 16.37 0 00-3.97-2.21 11.5 11.5 0 00-4.22-1c-.77 0-1.44.2-2.02.58-.57.39-.86.96-.86 1.73 0 1.37 2.1 3.32 6.3 5.86 4.2 2.54 6.3 5.4 6.3 8.6 0 2.56-.86 4.64-2.58 6.24a9.2 9.2 0 01-6.5 2.4c-1.7 0-3.36-.24-4.96-.73-1.6-.5-3.25-1.2-4.96-2.15v-6.52zM933.03 580.41v-44.16h-12.48v2.88h9.09v41.28h3.39zM976.23 580.41v-3.2h-24l12.8-12.48c2.24-2.24 9.4-8.32 9.4-16.12 0-7.88-5.88-13-13.88-13s-11.84 5.76-13.44 9.28l2.56 1.6c1.28-2.88 4.48-7.8 10.88-7.8s10.37 4.28 10.37 10.04c0 5.76-4.61 10.56-7.5 13.44l-16 15.68.65 2.56h28.16zM1011.1 568.45c0-5.76-3.51-9.8-8.5-11.4v-.12c2.75-1.16 7.04-3.4 7.04-10.24 0-6.92-5.9-11.08-12.61-11.08-6.72 0-12.67 4.16-12.67 11.08 0 6.84 4.35 9.08 7.04 10.24v.12c-4.93 1.6-8.45 5.64-8.45 11.4 0 8 5.76 12.67 14.08 12.67s14.08-4.68 14.08-12.67zm-4.98-21.38c0 5.44-3.97 8.38-9.1 8.38-5.11 0-9.14-2.94-9.14-8.38 0-5.44 4.03-8.38 9.15-8.38s9.09 2.94 9.09 8.38zm1.47 21.18c0 6.08-4.8 9.86-10.56 9.86-5.76 0-10.56-3.78-10.56-9.86s4.48-9.72 10.56-9.72 10.56 3.64 10.56 9.72zM1027.75 575.3h-3.84l-3.84 14.07h2.56l5.12-14.08zM1062.3 580.41v-44.16h-12.47v2.88h9.09v41.28h3.39zM1105.5 580.41v-3.2h-24l12.8-12.48c2.25-2.24 9.42-8.32 9.42-16.12 0-7.88-5.9-13-13.9-13s-11.83 5.76-13.43 9.28l2.56 1.6c1.28-2.88 4.48-7.8 10.88-7.8s10.37 4.28 10.37 10.04c0 5.76-4.61 10.56-7.5 13.44l-16 15.68.65 2.56h28.16zM1140.7 557.37c0-10.17-2.74-21.76-15.35-21.76-8.64 0-14.08 6.53-14.08 14.85s6.53 13.63 13.57 13.63 10.75-4.16 12.48-8.32c0 8.32-1.6 14.08-3.84 17.48-2.24 3.32-4.8 4.92-9.28 4.92-4.42 0-7.81-1.73-10.24-3.96l-1.92 2.36c.64.64 4.16 4.61 12.16 4.61 12.73 0 16.5-13.25 16.5-23.8zm-4.66-7.55c0 5.76-3.52 11.2-10.7 11.2-7.22 0-10.55-5.44-10.55-11.2 0-5.76 3.33-11.2 10.56-11.2 7.17 0 10.69 5.44 10.69 11.2zM1155.75 575.3h-3.84l-3.84 14.07h2.56l5.12-14.08zM1190.3 580.41v-44.16h-12.47v2.88h9.09v41.28h3.39zM1232.23 568.45c0-7.56-5.76-10.76-8.96-11.2v-.2c2.56-.64 7.68-3.2 7.68-10.24s-6.08-11.2-12.8-11.2c-6.72 0-10.3 3.2-13.12 6.72l2.24 1.92c2.56-2.88 5.44-5.56 10.56-5.56s9.6 3 9.6 8.44c0 5.44-3.84 8.52-9.28 8.52h-2.88v3.32h2.88c5.76 0 10.56 3.2 10.56 9.48 0 6.2-4.67 9.53-11.4 9.53-6.71 0-10.68-6.65-10.68-6.65l-2.56 2.04s4.29 7.68 13.12 7.68c8.77 0 15.04-5.12 15.04-12.6zM1270.3 558.4c0-11.4-4.8-22.79-16-22.79-11.13 0-16 11.4-16 22.79 0 11.33 4.8 22.72 16 22.72s16-11.4 16-22.72zm-3.7-.13c0 11.52-4.3 19.65-12.3 19.65s-12.34-8.13-12.34-19.65c0-11.52 4.35-19.65 12.35-19.65s12.29 8.13 12.29 19.65zM1283.75 575.3h-3.84l-3.84 14.07h2.56l5.12-14.08zM1318.3 580.41v-44.16h-12.47v2.88h9.09v41.28h3.39zM1360.23 568.45c0-7.56-5.76-10.76-8.96-11.2v-.2c2.56-.64 7.68-3.2 7.68-10.24s-6.08-11.2-12.8-11.2c-6.72 0-10.3 3.2-13.12 6.72l2.24 1.92c2.56-2.88 5.44-5.56 10.56-5.56s9.6 3 9.6 8.44c0 5.44-3.84 8.52-9.28 8.52h-2.88v3.32h2.88c5.76 0 10.56 3.2 10.56 9.48 0 6.2-4.67 9.53-11.4 9.53-6.71 0-10.68-6.65-10.68-6.65l-2.56 2.04s4.29 7.68 13.12 7.68c8.77 0 15.04-5.12 15.04-12.6zM1380.7 580.41v-44.16h-12.47v2.88h9.09v41.28h3.39zM1403.75 575.3h-3.84l-3.84 14.07h2.56l5.12-14.08zM1434.15 578.04c0-1.79-1.28-3.07-3.07-3.07-1.73 0-3.01 1.28-3.01 3.07 0 1.73 1.28 3.01 3 3.01 1.8 0 3.08-1.28 3.08-3zM1452.39 578.04c0-1.79-1.28-3.07-3.07-3.07-1.73 0-3.01 1.28-3.01 3.07 0 1.73 1.28 3.01 3 3.01 1.8 0 3.08-1.28 3.08-3zM1470.63 578.04c0-1.79-1.28-3.07-3.07-3.07-1.73 0-3.01 1.28-3.01 3.07 0 1.73 1.28 3.01 3 3.01 1.8 0 3.08-1.28 3.08-3zM904.39 706.04c0-1.8-1.28-3.07-3.07-3.07-1.73 0-3.01 1.28-3.01 3.07 0 1.73 1.28 3 3 3 1.8 0 3.08-1.27 3.08-3zM922.63 706.04c0-1.8-1.28-3.07-3.07-3.07-1.73 0-3.01 1.28-3.01 3.07 0 1.73 1.28 3 3 3 1.8 0 3.08-1.27 3.08-3zM940.87 706.04c0-1.8-1.28-3.07-3.07-3.07-1.73 0-3.01 1.28-3.01 3.07 0 1.73 1.28 3 3 3 1.8 0 3.08-1.27 3.08-3zM959.75 703.29h-3.84l-3.84 14.08h2.56l5.12-14.08zM1010.95 708.4v-3.2h-24l12.8-12.47c2.24-2.24 9.4-8.32 9.4-16.13 0-7.87-5.88-13-13.88-13s-11.84 5.77-13.44 9.29l2.56 1.6c1.28-2.88 4.48-7.81 10.88-7.81s10.37 4.29 10.37 10.05c0 5.76-4.61 10.56-7.5 13.44l-16 15.68.65 2.56h28.16zM1045.5 694.65c0-9.28-7.35-14.4-14.71-14.4-2.24 0-4.67.32-6.6 1.28l3.08-14.21h17.28v-3.07h-19.84l-4.16 20.16 2.24 1.28c1.6-1.6 4.8-2.37 7.68-2.37 5.76 0 11.52 3.65 11.52 11.33s-5.76 11.39-11.52 11.39-9.6-3.07-11.2-6.27l-2.56 1.92c1.28 2.56 5.44 7.48 13.44 7.48 8 0 15.36-5.24 15.36-14.52zM1082.63 708.4v-3.2h-24l12.8-12.47c2.24-2.24 9.4-8.32 9.4-16.13 0-7.87-5.88-13-13.88-13s-11.84 5.77-13.44 9.29l2.56 1.6c1.28-2.88 4.48-7.81 10.88-7.81s10.37 4.29 10.37 10.05c0 5.76-4.61 10.56-7.5 13.44l-16 15.68.65 2.56h28.16zM1098.3 703.29h-3.83l-3.84 14.08h2.56l5.12-14.08zM1149.5 708.4v-3.2h-24l12.8-12.47c2.25-2.24 9.42-8.32 9.42-16.13 0-7.87-5.9-13-13.9-13s-11.83 5.77-13.43 9.29l2.56 1.6c1.28-2.88 4.48-7.81 10.88-7.81s10.37 4.29 10.37 10.05c0 5.76-4.61 10.56-7.5 13.44l-16 15.68.65 2.56h28.16zM1184.07 694.65c0-9.28-7.36-14.4-14.72-14.4-2.24 0-4.67.32-6.6 1.28l3.08-14.21h17.28v-3.07h-19.84l-4.16 20.16 2.24 1.28c1.6-1.6 4.8-2.37 7.68-2.37 5.76 0 11.52 3.65 11.52 11.33s-5.76 11.39-11.52 11.39-9.6-3.07-11.2-6.27l-2.56 1.92c1.28 2.56 5.44 7.48 13.44 7.48 8 0 15.36-5.24 15.36-14.52zM1219.9 696.44c0-7.55-5.75-10.75-8.95-11.2v-.2c2.56-.63 7.68-3.2 7.68-10.23 0-7.04-6.08-11.2-12.8-11.2-6.72 0-10.3 3.2-13.12 6.72l2.24 1.92c2.56-2.88 5.44-5.57 10.56-5.57s9.6 3 9.6 8.45c0 5.44-3.84 8.5-9.28 8.5h-2.88v3.34h2.88c5.76 0 10.56 3.2 10.56 9.47 0 6.2-4.67 9.53-11.4 9.53-6.71 0-10.68-6.65-10.68-6.65l-2.56 2.05s4.29 7.68 13.12 7.68c8.77 0 15.04-5.12 15.04-12.61zM1236.87 703.29h-3.84l-3.84 14.08h2.56l5.12-14.08zM1288.07 708.4v-3.2h-24l12.8-12.47c2.24-2.24 9.4-8.32 9.4-16.13 0-7.87-5.88-13-13.88-13s-11.84 5.77-13.44 9.29l2.56 1.6c1.28-2.88 4.48-7.81 10.88-7.81s10.37 4.29 10.37 10.05c0 5.76-4.61 10.56-7.5 13.44l-16 15.68.65 2.56h28.16zM1322.63 694.65c0-9.28-7.36-14.4-14.72-14.4-2.24 0-4.67.32-6.6 1.28l3.08-14.21h17.28v-3.07h-19.84l-4.16 20.16 2.24 1.28c1.6-1.6 4.8-2.37 7.68-2.37 5.76 0 11.52 3.65 11.52 11.33s-5.76 11.39-11.52 11.39-9.6-3.07-11.2-6.27l-2.56 1.92c1.28 2.56 5.44 7.48 13.44 7.48 8 0 15.36-5.24 15.36-14.52zM1361.35 698.17v-3.2h-6.79v-31.04h-3.13l-23.04 31.68v2.56h22.78v10.24h3.4v-10.24h6.78zm-10.18-3.2h-18.94l18.94-25.92v25.92zM1375.43 703.29h-3.84l-3.84 14.08h2.56l5.12-14.08zM1426.63 708.4v-3.2h-24l12.8-12.47c2.24-2.24 9.4-8.32 9.4-16.13 0-7.87-5.88-13-13.88-13s-11.84 5.77-13.44 9.29l2.56 1.6c1.28-2.88 4.48-7.81 10.88-7.81s10.37 4.29 10.37 10.05c0 5.76-4.61 10.56-7.5 13.44l-16 15.68.65 2.56h28.16zM1461.19 694.65c0-9.28-7.36-14.4-14.72-14.4-2.24 0-4.67.32-6.6 1.28l3.08-14.21h17.28v-3.07h-19.84l-4.16 20.16 2.24 1.28c1.6-1.6 4.8-2.37 7.68-2.37 5.76 0 11.52 3.65 11.52 11.33s-5.76 11.39-11.52 11.39-9.6-3.07-11.2-6.27l-2.56 1.92c1.28 2.56 5.44 7.48 13.44 7.48 8 0 15.36-5.24 15.36-14.52zM1497.03 694.65c0-9.28-7.36-14.4-14.72-14.4-2.24 0-4.67.32-6.6 1.28l3.08-14.21h17.28v-3.07h-19.84l-4.16 20.16 2.24 1.28c1.6-1.6 4.8-2.37 7.68-2.37 5.76 0 11.52 3.65 11.52 11.33s-5.76 11.39-11.52 11.39-9.6-3.07-11.2-6.27l-2.56 1.92c1.28 2.56 5.44 7.48 13.44 7.48 8 0 15.36-5.24 15.36-14.52z" fill-rule="nonzero"/><g><path d="M1063.42 224.91l-18.35 10.6c-7.3 4.22-7 11.24.66 15.67l157.5 90.92c7.67 4.43 19.83 4.6 27.13.39l105.88-61.13c7.3-4.22 7.01-11.24-.66-15.67l-16.24-11.3M1304.43 247.7l-126.35-72.94c-7.67-4.42-19.82-4.6-27.13-.38L1075.4 218" fill="#fff" stroke="#000" stroke-width="10"/><path d="M1038.47 204.88c.07 2.87 2.07 2.91 5.95 5.16l157.5 90.92c7.67 4.43 19.83 4.6 27.13.39l105.88-61.13c3.6-2.08 5.36-4.85 5.3-7.64v30.72c0 2.74-1.76 5.44-5.3 7.48l-105.88 61.13c-7.3 4.22-19.46 4.05-27.13-.38l-157.5-90.93c-3.88-2.24-5.88-5.15-5.95-8.02v-27.7z" fill="#89c2d4"/><path d="M1176.77 124.07c-7.67-4.42-19.83-4.6-27.13-.38l-105.88 61.13c-7.3 4.22-7.01 11.24.66 15.66l157.5 90.93c7.67 4.43 19.82 4.6 27.13.38l105.88-61.12c7.3-4.22 7-11.24-.66-15.67l-157.5-90.93z" fill="#fff" stroke="#000" stroke-width="10"/><path d="M1322.21 257.98c2.43-1.4 4.4-.27 4.4 2.54 0 2.8-1.97 6.22-4.4 7.62-2.43 1.4-4.4.26-4.4-2.54s1.97-6.22 4.4-7.62zM1307.99 266.2c2.43-1.41 4.4-.27 4.4 2.53s-1.97 6.22-4.4 7.62c-2.43 1.4-4.4.27-4.4-2.54 0-2.8 1.97-6.22 4.4-7.62z" fill="#fff"/><path d="M1294.78 278.9l-57.6 33.25" fill="none" stroke="#fff" stroke-width="10"/><path d="M1137.6 94.8V50.64h-3.46v38.08l-29.12-38.08h-3.45V94.8h3.45V56.08l29.44 38.72h3.14zM1176 80.08c0-8.96-6.72-15.49-15.23-15.49-8.45 0-15.17 6.53-15.17 15.49s6.72 15.36 15.17 15.36c8.51 0 15.23-6.4 15.23-15.36zm-3.52-.13c0 6.85-4.48 12.48-11.71 12.48-7.17 0-11.65-5.63-11.65-12.48 0-6.91 4.48-12.48 11.65-12.48 7.23 0 11.71 5.57 11.71 12.48zM1181.12 79.95c0 8.77 5.76 15.49 14.72 15.49 4.48 0 8.51-1.92 11-6.15v5.5h3.4V50.65h-3.4v20.03c-2.87-4.35-6.84-6.08-11.13-6.08-8.83 0-14.59 6.53-14.59 15.36zm3.52 0c0-6.91 4.03-12.48 11.2-12.48 7.23 0 11.2 5.57 11.2 12.48 0 6.85-3.97 12.48-11.2 12.48-7.17 0-11.2-5.63-11.2-12.48zM1245.76 78.48c0-8-5.63-13.89-13.44-13.89-7.87 0-14.4 6.2-14.4 15.36 0 9.09 5.57 15.49 14.2 15.49 8.65 0 12.36-4.48 12.36-4.48l-1.6-2.37s-3.71 3.84-10.43 3.84-10.69-4.67-11.01-11.71h24.13s.19-1.28.19-2.24zm-3.4-.64h-20.8c.2-4.16 3.2-10.37 10.57-10.37 7.36 0 10.24 6.53 10.24 10.37zM1293.76 94.8v-3.2h-24l12.8-12.48c2.24-2.24 9.4-8.32 9.4-16.13 0-7.87-5.88-12.99-13.88-12.99s-11.84 5.76-13.44 9.28l2.56 1.6c1.28-2.88 4.48-7.8 10.88-7.8s10.37 4.28 10.37 10.04c0 5.76-4.61 10.56-7.49 13.44l-16 15.68.64 2.56h28.16z" fill-rule="nonzero"/></g></g></svg>