<svg viewBox="0 0 1374 1020" xmlns="http://www.w3.org/2000/svg" fill-rule="evenodd" clip-rule="evenodd" stroke-linecap="round" stroke-linejoin="round" stroke-miterlimit="1.5"><path d="M1323.06 72c0-12.14-9.86-22-22-22H426.59c-12.14 0-22 9.86-22 22v396c0 12.14 9.86 22 22 22h874.47c12.14 0 22-9.86 22-22V72z" fill="none" stroke="#000" stroke-width="7"/><path d="M1283.06 198c0-15.45-17.92-28-40-28h-320c-22.08 0-40 12.55-40 28v224c0 15.45 17.92 28 40 28h320c22.08 0 40-12.55 40-28V198z" fill="none" stroke="#89c2d4" stroke-width="7"/><path d="M985.14 259.84c0-8.32-6.6-13.63-13.63-13.63-7.04 0-10.7 4.03-12.48 8.19 0-8.83 1.85-22.4 13.3-22.4 4.49 0 7.37 1.92 9.74 4.16l1.92-2.37s-3.65-4.67-11.52-4.67c-12.87 0-16.77 12.93-16.77 23.68 0 10.18 2.69 21.89 15.36 21.89 8.64 0 14.08-6.53 14.08-14.85zm-3.52.58c0 5.76-3.4 11.2-10.56 11.2-7.23 0-10.75-5.44-10.75-11.2 0-5.76 3.52-11.2 10.75-11.2 7.17 0 10.56 5.44 10.56 11.2zM1022.58 263.68v-3.2h-6.79v-31.04h-3.13l-23.04 31.68v2.56h22.78v10.24h3.4v-10.24h6.78zm-10.18-3.2h-18.94l18.94-25.92v25.92zM1036.66 268.8h-3.84l-3.84 14.08h2.56l5.12-14.08zM1087.86 259.84c0-8.32-6.6-13.63-13.63-13.63-7.04 0-10.7 4.03-12.48 8.19 0-8.83 1.85-22.4 13.3-22.4 4.49 0 7.37 1.92 9.74 4.16l1.92-2.37s-3.65-4.67-11.52-4.67c-12.87 0-16.77 12.93-16.77 23.68 0 10.18 2.69 21.89 15.36 21.89 8.64 0 14.08-6.53 14.08-14.85zm-3.52.58c0 5.76-3.4 11.2-10.56 11.2-7.23 0-10.75-5.44-10.75-11.2 0-5.76 3.52-11.2 10.75-11.2 7.17 0 10.56 5.44 10.56 11.2zM1122.42 260.16c0-9.28-7.36-14.4-14.72-14.4-2.24 0-4.67.32-6.6 1.28l3.08-14.2h17.28v-3.08h-19.84l-4.16 20.16 2.24 1.28c1.6-1.6 4.8-2.37 7.68-2.37 5.76 0 11.52 3.65 11.52 11.33s-5.76 11.4-11.52 11.4-9.6-3.08-11.2-6.28l-2.56 1.92c1.28 2.56 5.44 7.49 13.44 7.49 8 0 15.36-5.25 15.36-14.53zM1139.38 268.8h-3.84l-3.84 14.08h2.56l5.12-14.08zM1169.78 271.55c0-1.79-1.28-3.07-3.07-3.07-1.73 0-3.01 1.28-3.01 3.07 0 1.73 1.28 3.01 3 3.01 1.8 0 3.08-1.28 3.08-3zM1188.02 271.55c0-1.79-1.28-3.07-3.07-3.07-1.73 0-3.01 1.28-3.01 3.07 0 1.73 1.28 3.01 3 3.01 1.8 0 3.08-1.28 3.08-3zM1206.26 271.55c0-1.79-1.28-3.07-3.07-3.07-1.73 0-3.01 1.28-3.01 3.07 0 1.73 1.28 3.01 3 3.01 1.8 0 3.08-1.28 3.08-3zM938.58 399.55c0-1.79-1.28-3.07-3.07-3.07-1.73 0-3.01 1.28-3.01 3.07 0 1.73 1.28 3.01 3 3.01 1.8 0 3.08-1.28 3.08-3zM956.82 399.55c0-1.79-1.28-3.07-3.07-3.07-1.73 0-3.01 1.28-3.01 3.07 0 1.73 1.28 3.01 3 3.01 1.8 0 3.08-1.28 3.08-3zM975.06 399.55c0-1.79-1.28-3.07-3.07-3.07-1.73 0-3.01 1.28-3.01 3.07 0 1.73 1.28 3.01 3 3.01 1.8 0 3.08-1.28 3.08-3zM993.94 396.8h-3.84l-3.84 14.08h2.56l5.12-14.08zM1028.5 401.92v-44.16h-12.48v2.88h9.09v41.28h3.39zM1071.7 401.92v-3.2h-24l12.8-12.48c2.24-2.24 9.4-8.32 9.4-16.13 0-7.87-5.88-12.99-13.88-12.99s-11.84 5.76-13.44 9.28l2.56 1.6c1.28-2.88 4.48-7.8 10.88-7.8s10.37 4.28 10.37 10.04c0 5.76-4.61 10.56-7.5 13.44l-16 15.68.65 2.56h28.16zM1107.54 387.84c0-8.32-6.6-13.63-13.63-13.63-7.04 0-10.7 4.03-12.48 8.19 0-8.83 1.85-22.4 13.3-22.4 4.49 0 7.37 1.92 9.74 4.16l1.92-2.37s-3.65-4.67-11.52-4.67c-12.87 0-16.77 12.93-16.77 23.68 0 10.18 2.69 21.89 15.36 21.89 8.64 0 14.08-6.53 14.08-14.85zm-3.52.58c0 5.76-3.4 11.2-10.56 11.2-7.23 0-10.75-5.44-10.75-11.2 0-5.76 3.52-11.2 10.75-11.2 7.17 0 10.56 5.44 10.56 11.2zM1123.22 396.8h-3.84l-3.84 14.08h2.56l5.12-14.08zM1157.78 401.92v-44.16h-12.48v2.88h9.09v41.28h3.39zM1200.98 401.92v-3.2h-24l12.8-12.48c2.24-2.24 9.4-8.32 9.4-16.13 0-7.87-5.88-12.99-13.88-12.99s-11.84 5.76-13.44 9.28l2.56 1.6c1.28-2.88 4.48-7.8 10.88-7.8s10.37 4.28 10.37 10.04c0 5.76-4.61 10.56-7.5 13.44l-16 15.68.65 2.56h28.16zM1236.18 359.68l-.96-1.92h-29.12v3.07h25.92l-21.76 41.09h3.52l22.4-42.24zM996.55 123.95c0-5.63-5.57-7.55-9.28-8.83-3.65-1.28-6.85-2.62-6.85-5.7 0-3.07 2.37-4.73 5.7-4.73 3.32 0 5.37 1.15 7.42 3.39l2.05-2.05c-2.3-2.62-5-4.16-9.35-4.16s-9.02 2.56-9.02 7.94c0 5.37 5.57 7.3 8.13 8.19 2.56.9 7.87 2.24 7.87 6.08s-3.26 5.63-6.98 5.63c-3.7 0-6.65-1.85-8.57-4.67l-2.37 1.92c1.86 3.07 5.31 5.76 10.82 5.76 5.5 0 10.43-3.2 10.43-8.77zM1031.62 117.36c0-8.96-6.72-15.49-15.23-15.49-8.45 0-15.17 6.53-15.17 15.49s6.72 15.36 15.17 15.36c8.51 0 15.23-6.4 15.23-15.36zm-3.52-.13c0 6.85-4.48 12.48-11.71 12.48-7.17 0-11.65-5.63-11.65-12.48 0-6.91 4.48-12.48 11.65-12.48 7.23 0 11.71 5.57 11.71 12.48zM1063.43 127.6l-1.92-2.24s-3.2 4.35-9.92 4.35-11.33-5.31-11.33-12.67 5.25-12.16 11.2-12.16c5.89 0 8.45 2.88 9.73 4.35l2.11-2.24c-.64-.83-3.84-5.12-11.71-5.12-7.8 0-14.85 6.21-14.85 15.36 0 9.09 6.53 15.49 14.53 15.49 8 0 11.07-3.84 12.16-5.12zM1093.06 132.08l-14.08-18.37 12.16-11.33h-4.16l-14.27 13.38V87.92h-3.33v44.16h3.33v-12.6l4.03-3.72 12.16 16.32h4.16zM1123.14 115.76c0-8-5.63-13.89-13.44-13.89-7.87 0-14.4 6.21-14.4 15.36 0 9.09 5.57 15.49 14.2 15.49 8.65 0 12.36-4.48 12.36-4.48l-1.6-2.37s-3.71 3.84-10.43 3.84-10.69-4.67-11.01-11.71h24.13s.19-1.28.19-2.24zm-3.4-.64h-20.8c.2-4.16 3.2-10.37 10.57-10.37 7.36 0 10.24 6.53 10.24 10.37zM1142.34 131.76l-.32-2.88s-1.28.83-3.2.83c-3.97 0-4.35-3.9-4.35-7.17v-17.02h7.55v-3h-7.49v-9.48h-3.39v9.47h-4.48v3.01h4.48v15.04c0 4.8.06 6.98 1.09 8.96 1.09 1.98 2.75 3.2 5.63 3.2 1.92 0 3.4-.32 4.48-.96zM1189.06 132.08v-3.2h-24l12.8-12.48c2.24-2.24 9.4-8.32 9.4-16.13 0-7.87-5.88-12.99-13.88-12.99s-11.84 5.76-13.44 9.28l2.56 1.6c1.28-2.88 4.48-7.8 10.88-7.8s10.37 4.28 10.37 10.04c0 5.76-4.61 10.56-7.49 13.44l-16 15.68.64 2.56h28.16z" fill-rule="nonzero"/><g><path d="M844.59 198c0-15.45-17.93-28-40-28h-320c-22.08 0-40 12.55-40 28v224c0 15.45 17.92 28 40 28h320c22.07 0 40-12.55 40-28V198z" fill="none" stroke="#89c2d4" stroke-width="7"/><path d="M586.42 242.78c0-11.39-4.8-22.78-16-22.78-11.14 0-16 11.4-16 22.78 0 11.33 4.8 22.72 16 22.72s16-11.39 16-22.72zm-3.71-.12c0 11.52-4.3 19.64-12.3 19.64s-12.34-8.12-12.34-19.64c0-11.52 4.35-19.65 12.35-19.65s12.29 8.13 12.29 19.65zM599.86 259.68h-3.84l-3.84 14.08h2.56l5.12-14.08zM634.42 264.8v-44.16h-12.48v2.88h9.09v41.28h3.39zM657.46 259.68h-3.84l-3.84 14.08h2.56l5.12-14.08zM687.86 262.43c0-1.79-1.28-3.07-3.07-3.07-1.73 0-3.01 1.28-3.01 3.07 0 1.73 1.28 3.01 3 3.01 1.8 0 3.08-1.28 3.08-3zM706.1 262.43c0-1.79-1.28-3.07-3.07-3.07-1.73 0-3.01 1.28-3.01 3.07 0 1.73 1.28 3.01 3 3.01 1.8 0 3.08-1.28 3.08-3zM724.34 262.43c0-1.79-1.28-3.07-3.07-3.07-1.73 0-3.01 1.28-3.01 3.07 0 1.73 1.28 3.01 3 3.01 1.8 0 3.08-1.28 3.08-3zM523.86 390.43c0-1.79-1.28-3.07-3.07-3.07-1.73 0-3.01 1.28-3.01 3.07 0 1.73 1.28 3.01 3 3.01 1.8 0 3.08-1.28 3.08-3zM542.1 390.43c0-1.79-1.28-3.07-3.07-3.07-1.73 0-3.01 1.28-3.01 3.07 0 1.73 1.28 3.01 3 3.01 1.8 0 3.08-1.28 3.08-3zM560.34 390.43c0-1.79-1.28-3.07-3.07-3.07-1.73 0-3.01 1.28-3.01 3.07 0 1.73 1.28 3.01 3 3.01 1.8 0 3.08-1.28 3.08-3zM579.22 387.68h-3.84l-3.84 14.08h2.56l5.12-14.08zM630.42 378.72c0-8.32-6.6-13.63-13.63-13.63-7.04 0-10.7 4.03-12.48 8.19 0-8.83 1.85-22.4 13.3-22.4 4.49 0 7.37 1.92 9.74 4.16l1.92-2.37s-3.65-4.67-11.52-4.67c-12.87 0-16.77 12.93-16.77 23.68 0 10.18 2.69 21.89 15.36 21.89 8.64 0 14.08-6.53 14.08-14.85zm-3.52.58c0 5.76-3.4 11.2-10.56 11.2-7.23 0-10.75-5.44-10.75-11.2 0-5.76 3.52-11.2 10.75-11.2 7.17 0 10.56 5.44 10.56 11.2zM666.26 392.8v-3.2h-24l12.8-12.48c2.24-2.24 9.4-8.32 9.4-16.13 0-7.87-5.88-12.99-13.88-12.99s-11.84 5.76-13.44 9.28l2.56 1.6c1.28-2.88 4.48-7.8 10.88-7.8s10.37 4.28 10.37 10.04c0 5.76-4.61 10.56-7.5 13.44l-16 15.68.65 2.56h28.16zM681.94 387.68h-3.84l-3.84 14.08h2.56l5.12-14.08zM733.14 378.72c0-8.32-6.6-13.63-13.63-13.63-7.04 0-10.7 4.03-12.48 8.19 0-8.83 1.85-22.4 13.3-22.4 4.49 0 7.37 1.92 9.74 4.16l1.92-2.37s-3.65-4.67-11.52-4.67c-12.87 0-16.77 12.93-16.77 23.68 0 10.18 2.69 21.89 15.36 21.89 8.64 0 14.08-6.53 14.08-14.85zm-3.52.58c0 5.76-3.4 11.2-10.56 11.2-7.23 0-10.75-5.44-10.75-11.2 0-5.76 3.52-11.2 10.75-11.2 7.17 0 10.56 5.44 10.56 11.2zM767.06 380.83c0-7.55-5.76-10.75-8.96-11.2v-.19c2.56-.64 7.68-3.2 7.68-10.24s-6.08-11.2-12.8-11.2c-6.72 0-10.3 3.2-13.12 6.72l2.24 1.92c2.56-2.88 5.44-5.57 10.56-5.57s9.6 3.01 9.6 8.45c0 5.44-3.84 8.51-9.28 8.51h-2.88v3.33h2.88c5.76 0 10.56 3.2 10.56 9.47 0 6.21-4.67 9.54-11.4 9.54-6.71 0-10.68-6.66-10.68-6.66l-2.56 2.05s4.29 7.68 13.12 7.68c8.77 0 15.04-5.12 15.04-12.6zM567.3 124.63c0-5.63-5.56-7.55-9.27-8.83-3.65-1.28-6.85-2.62-6.85-5.7 0-3.07 2.37-4.73 5.7-4.73 3.32 0 5.37 1.15 7.42 3.39l2.05-2.05c-2.3-2.62-5-4.16-9.35-4.16s-9.02 2.56-9.02 7.94c0 5.37 5.57 7.3 8.13 8.19 2.56.9 7.87 2.24 7.87 6.08s-3.26 5.63-6.98 5.63c-3.7 0-6.65-1.85-8.57-4.67l-2.37 1.92c1.86 3.07 5.31 5.76 10.82 5.76 5.5 0 10.43-3.2 10.43-8.77zM602.38 118.04c0-8.96-6.72-15.49-15.23-15.49-8.45 0-15.17 6.53-15.17 15.49s6.72 15.36 15.17 15.36c8.5 0 15.23-6.4 15.23-15.36zm-3.52-.13c0 6.85-4.48 12.48-11.71 12.48-7.17 0-11.65-5.63-11.65-12.48 0-6.91 4.48-12.48 11.65-12.48 7.23 0 11.7 5.57 11.7 12.48zM634.19 128.28l-1.92-2.24s-3.2 4.35-9.92 4.35-11.33-5.31-11.33-12.67 5.25-12.16 11.2-12.16c5.89 0 8.45 2.88 9.73 4.35l2.1-2.24c-.63-.83-3.83-5.12-11.7-5.12-7.81 0-14.85 6.21-14.85 15.36 0 9.09 6.53 15.49 14.53 15.49 8 0 11.07-3.84 12.16-5.12zM663.82 132.76l-14.08-18.37 12.16-11.33h-4.16l-14.27 13.38V88.6h-3.33v44.16h3.33v-12.6l4.03-3.72 12.16 16.32h4.16zM693.9 116.44c0-8-5.63-13.89-13.44-13.89-7.87 0-14.4 6.21-14.4 15.36 0 9.09 5.57 15.49 14.2 15.49 8.65 0 12.36-4.48 12.36-4.48l-1.6-2.37s-3.71 3.84-10.43 3.84-10.7-4.67-11.01-11.71h24.13s.19-1.28.19-2.24zm-3.4-.64h-20.8c.2-4.16 3.2-10.37 10.57-10.37 7.36 0 10.24 6.53 10.24 10.37zM713.1 132.44l-.32-2.88s-1.28.83-3.2.83c-3.97 0-4.35-3.9-4.35-7.17V106.2h7.55v-3h-7.49v-9.48h-3.4v9.47h-4.47v3.01h4.48v15.04c0 4.8.06 6.98 1.09 8.96 1.08 1.98 2.75 3.2 5.63 3.2 1.92 0 3.4-.32 4.48-.96zM743.18 132.76V88.6H730.7v2.88h9.09v41.28h3.39z" fill-rule="nonzero"/></g><g><path d="M76.47 294.28l-18.35 10.6c-7.3 4.22-7 11.24.67 15.66l157.5 90.94c7.66 4.43 19.82 4.6 27.13.38l105.88-61.13c7.3-4.22 7-11.24-.66-15.67l-16.24-11.3M317.48 317.08l-126.34-72.95c-7.67-4.43-19.83-4.6-27.13-.38l-75.56 43.62" fill="#fff" stroke="#000" stroke-width="10"/><path d="M51.53 274.25c.07 2.87 2.07 2.91 5.95 5.15l157.5 90.94c7.67 4.43 19.83 4.6 27.13.38L348 309.59c3.6-2.08 5.36-4.85 5.3-7.64v30.72c0 2.74-1.76 5.44-5.3 7.48l-105.88 61.13c-7.3 4.22-19.46 4.05-27.13-.38l-157.5-90.93c-3.88-2.24-5.88-5.15-5.95-8.02v-27.7z" fill="#89c2d4"/><path d="M189.83 193.44c-7.67-4.43-19.82-4.6-27.13-.39L56.82 254.2c-7.3 4.21-7 11.23.66 15.66l157.5 90.93c7.67 4.43 19.83 4.6 27.13.39L348 300.03c7.3-4.21 7.01-11.23-.66-15.66l-157.5-90.93z" fill="#fff" stroke="#000" stroke-width="10"/><path d="M335.27 327.35c2.43-1.4 4.4-.27 4.4 2.54 0 2.8-1.97 6.22-4.4 7.62-2.42 1.4-4.4.26-4.4-2.54s1.97-6.22 4.4-7.62zM321.05 335.56c2.42-1.4 4.4-.26 4.4 2.54s-1.98 6.22-4.4 7.63c-2.43 1.4-4.4.26-4.4-2.55 0-2.8 1.97-6.22 4.4-7.62z" fill="#fff"/><path d="M307.84 348.27l-57.6 33.25" fill="none" stroke="#fff" stroke-width="10"/><path d="M150.66 164.16V120h-3.45v38.08L118.09 120h-3.46v44.16h3.46v-38.72l29.44 38.72h3.13zM189.06 149.44c0-8.96-6.72-15.49-15.23-15.49-8.45 0-15.17 6.53-15.17 15.49s6.72 15.36 15.17 15.36c8.51 0 15.23-6.4 15.23-15.36zm-3.52-.13c0 6.85-4.48 12.48-11.71 12.48-7.17 0-11.65-5.63-11.65-12.48 0-6.91 4.48-12.48 11.65-12.48 7.23 0 11.71 5.57 11.71 12.48zM194.18 149.31c0 8.77 5.76 15.49 14.72 15.49 4.48 0 8.51-1.92 11.01-6.14v5.5h3.4V120h-3.4v20.03c-2.88-4.35-6.85-6.08-11.14-6.08-8.83 0-14.59 6.53-14.59 15.36zm3.52 0c0-6.91 4.03-12.48 11.2-12.48 7.23 0 11.2 5.57 11.2 12.48 0 6.85-3.97 12.48-11.2 12.48-7.17 0-11.2-5.63-11.2-12.48zM258.82 147.84c0-8-5.63-13.89-13.44-13.89-7.87 0-14.4 6.21-14.4 15.36 0 9.09 5.57 15.49 14.21 15.49s12.35-4.48 12.35-4.48l-1.6-2.37s-3.71 3.84-10.43 3.84-10.69-4.67-11-11.71h24.12s.2-1.28.2-2.24zm-3.39-.64h-20.8c.2-4.16 3.2-10.37 10.56-10.37s10.24 6.53 10.24 10.37zM290.18 164.16V120H277.7v2.88h9.09v41.28h3.4z" fill-rule="nonzero"/></g><g><path d="M1323.06 552c0-12.14-9.86-22-22-22h-876c-12.14 0-22 9.86-22 22v396c0 12.14 9.86 22 22 22h876c12.14 0 22-9.86 22-22V552z" fill="none" stroke="#000" stroke-width="7"/><path d="M1283.06 678c0-15.45-17.92-28-40-28h-320c-22.08 0-40 12.55-40 28v224c0 15.45 17.92 28 40 28h320c22.08 0 40-12.55 40-28V678z" fill="none" stroke="#89c2d4" stroke-width="7"/><path d="M942.54 752v-44.16h-12.48v2.88h9.09V752h3.39zM985.1 728.96c0-10.18-2.75-21.76-15.36-21.76-8.64 0-14.08 6.53-14.08 14.85s6.53 13.63 13.57 13.63 10.75-4.16 12.48-8.32c0 8.32-1.6 14.08-3.84 17.47-2.24 3.33-4.8 4.93-9.28 4.93-4.42 0-7.81-1.73-10.24-3.97l-1.92 2.37c.64.64 4.16 4.6 12.16 4.6 12.73 0 16.5-13.24 16.5-23.8zm-4.67-7.55c0 5.76-3.52 11.2-10.7 11.2-7.22 0-10.55-5.44-10.55-11.2 0-5.76 3.33-11.2 10.56-11.2 7.17 0 10.69 5.44 10.69 11.2zM1020.94 752v-3.2h-24l12.8-12.48c2.24-2.24 9.4-8.32 9.4-16.13 0-7.87-5.88-12.99-13.88-12.99s-11.84 5.76-13.44 9.28l2.56 1.6c1.28-2.88 4.48-7.8 10.88-7.8s10.37 4.28 10.37 10.04c0 5.76-4.61 10.56-7.5 13.44l-16 15.68.65 2.56h28.16zM1036.62 746.88h-3.84l-3.84 14.08h2.56l5.12-14.08zM1071.18 752v-44.16h-12.48v2.88h9.09V752h3.39zM1113.74 728.96c0-10.18-2.75-21.76-15.36-21.76-8.64 0-14.08 6.53-14.08 14.85s6.53 13.63 13.57 13.63 10.75-4.16 12.48-8.32c0 8.32-1.6 14.08-3.84 17.47-2.24 3.33-4.8 4.93-9.28 4.93-4.42 0-7.81-1.73-10.24-3.97l-1.92 2.37c.64.64 4.16 4.6 12.16 4.6 12.73 0 16.5-13.24 16.5-23.8zm-4.67-7.55c0 5.76-3.52 11.2-10.7 11.2-7.22 0-10.55-5.44-10.55-11.2 0-5.76 3.33-11.2 10.56-11.2 7.17 0 10.69 5.44 10.69 11.2zM1148.3 740.03c0-7.55-5.76-10.75-8.96-11.2v-.19c2.56-.64 7.68-3.2 7.68-10.24s-6.08-11.2-12.8-11.2c-6.72 0-10.3 3.2-13.12 6.72l2.24 1.92c2.56-2.88 5.44-5.57 10.56-5.57s9.6 3.01 9.6 8.45c0 5.44-3.84 8.51-9.28 8.51h-2.88v3.33h2.88c5.76 0 10.56 3.2 10.56 9.47 0 6.21-4.67 9.54-11.4 9.54-6.71 0-10.68-6.66-10.68-6.66l-2.56 2.05s4.29 7.68 13.12 7.68c8.77 0 15.04-5.12 15.04-12.6zM1165.26 746.88h-3.84l-3.84 14.08h2.56l5.12-14.08zM1195.66 749.63c0-1.79-1.28-3.07-3.07-3.07-1.73 0-3.01 1.28-3.01 3.07 0 1.73 1.28 3.01 3 3.01 1.8 0 3.08-1.28 3.08-3zM1213.9 749.63c0-1.79-1.28-3.07-3.07-3.07-1.73 0-3.01 1.28-3.01 3.07 0 1.73 1.28 3.01 3 3.01 1.8 0 3.08-1.28 3.08-3zM1232.14 749.63c0-1.79-1.28-3.07-3.07-3.07-1.73 0-3.01 1.28-3.01 3.07 0 1.73 1.28 3.01 3 3.01 1.8 0 3.08-1.28 3.08-3zM928.46 877.63c0-1.79-1.28-3.07-3.07-3.07-1.73 0-3.01 1.28-3.01 3.07 0 1.73 1.28 3.01 3 3.01 1.8 0 3.08-1.28 3.08-3zM946.7 877.63c0-1.79-1.28-3.07-3.07-3.07-1.73 0-3.01 1.28-3.01 3.07 0 1.73 1.28 3.01 3 3.01 1.8 0 3.08-1.28 3.08-3zM964.94 877.63c0-1.79-1.28-3.07-3.07-3.07-1.73 0-3.01 1.28-3.01 3.07 0 1.73 1.28 3.01 3 3.01 1.8 0 3.08-1.28 3.08-3zM983.82 874.88h-3.84l-3.84 14.08h2.56l5.12-14.08zM1035.02 880v-3.2h-24l12.8-12.48c2.24-2.24 9.4-8.32 9.4-16.13 0-7.87-5.88-12.99-13.88-12.99s-11.84 5.76-13.44 9.28l2.56 1.6c1.28-2.88 4.48-7.8 10.88-7.8s10.37 4.28 10.37 10.04c0 5.76-4.61 10.56-7.5 13.44l-16 15.68.65 2.56h28.16zM1069.58 866.24c0-9.28-7.36-14.4-14.72-14.4-2.24 0-4.67.32-6.6 1.28l3.08-14.2h17.28v-3.08h-19.84l-4.16 20.16 2.24 1.28c1.6-1.6 4.8-2.37 7.68-2.37 5.76 0 11.52 3.65 11.52 11.33s-5.76 11.4-11.52 11.4-9.6-3.08-11.2-6.28l-2.56 1.92c1.28 2.56 5.44 7.49 13.44 7.49 8 0 15.36-5.25 15.36-14.53zM1108.3 869.76v-3.2h-6.78v-31.04h-3.14l-23.04 31.68v2.56h22.78V880h3.4v-10.24h6.78zm-10.18-3.2h-18.94l18.94-25.92v25.92zM1122.38 874.88h-3.84l-3.84 14.08h2.56l5.12-14.08zM1173.58 880v-3.2h-24l12.8-12.48c2.24-2.24 9.4-8.32 9.4-16.13 0-7.87-5.88-12.99-13.88-12.99s-11.84 5.76-13.44 9.28l2.56 1.6c1.28-2.88 4.48-7.8 10.88-7.8s10.37 4.28 10.37 10.04c0 5.76-4.61 10.56-7.5 13.44l-16 15.68.65 2.56h28.16zM1208.14 866.24c0-9.28-7.36-14.4-14.72-14.4-2.24 0-4.67.32-6.6 1.28l3.08-14.2h17.28v-3.08h-19.84l-4.16 20.16 2.24 1.28c1.6-1.6 4.8-2.37 7.68-2.37 5.76 0 11.52 3.65 11.52 11.33s-5.76 11.4-11.52 11.4-9.6-3.08-11.2-6.28l-2.56 1.92c1.28 2.56 5.44 7.49 13.44 7.49 8 0 15.36-5.25 15.36-14.53zM1243.98 866.24c0-9.28-7.36-14.4-14.72-14.4-2.24 0-4.67.32-6.6 1.28l3.08-14.2h17.28v-3.08h-19.84l-4.16 20.16 2.24 1.28c1.6-1.6 4.8-2.37 7.68-2.37 5.76 0 11.52 3.65 11.52 11.33s-5.76 11.4-11.52 11.4-9.6-3.08-11.2-6.28l-2.56 1.92c1.28 2.56 5.44 7.49 13.44 7.49 8 0 15.36-5.25 15.36-14.53zM996.55 606.67c0-5.63-5.57-7.55-9.28-8.83-3.65-1.28-6.85-2.62-6.85-5.7 0-3.07 2.37-4.73 5.7-4.73 3.32 0 5.37 1.15 7.42 3.39l2.05-2.05c-2.3-2.62-5-4.16-9.35-4.16s-9.02 2.56-9.02 7.94c0 5.37 5.57 7.3 8.13 8.19 2.56.9 7.87 2.24 7.87 6.08s-3.26 5.63-6.98 5.63c-3.7 0-6.65-1.85-8.57-4.67l-2.37 1.92c1.86 3.07 5.31 5.76 10.82 5.76 5.5 0 10.43-3.2 10.43-8.77zM1031.62 600.08c0-8.96-6.72-15.49-15.23-15.49-8.45 0-15.17 6.53-15.17 15.49s6.72 15.36 15.17 15.36c8.51 0 15.23-6.4 15.23-15.36zm-3.52-.13c0 6.85-4.48 12.48-11.71 12.48-7.17 0-11.65-5.63-11.65-12.48 0-6.91 4.48-12.48 11.65-12.48 7.23 0 11.71 5.57 11.71 12.48zM1063.43 610.32l-1.92-2.24s-3.2 4.35-9.92 4.35-11.33-5.31-11.33-12.67 5.25-12.16 11.2-12.16c5.89 0 8.45 2.88 9.73 4.35l2.11-2.24c-.64-.83-3.84-5.12-11.71-5.12-7.8 0-14.85 6.21-14.85 15.36 0 9.09 6.53 15.49 14.53 15.49 8 0 11.07-3.84 12.16-5.12zM1093.06 614.8l-14.08-18.37 12.16-11.33h-4.16l-14.27 13.38v-27.84h-3.33v44.16h3.33v-12.6l4.03-3.72 12.16 16.32h4.16zM1123.14 598.48c0-8-5.63-13.89-13.44-13.89-7.87 0-14.4 6.21-14.4 15.36 0 9.09 5.57 15.49 14.2 15.49 8.65 0 12.36-4.48 12.36-4.48l-1.6-2.37s-3.71 3.84-10.43 3.84-10.69-4.67-11.01-11.71h24.13s.19-1.28.19-2.24zm-3.4-.64h-20.8c.2-4.16 3.2-10.37 10.57-10.37 7.36 0 10.24 6.53 10.24 10.37zM1142.34 614.48l-.32-2.88s-1.28.83-3.2.83c-3.97 0-4.35-3.9-4.35-7.17v-17.02h7.55v-3h-7.49v-9.48h-3.39v9.47h-4.48v3.01h4.48v15.04c0 4.8.06 6.98 1.09 8.96 1.09 1.98 2.75 3.2 5.63 3.2 1.92 0 3.4-.32 4.48-.96zM1189.06 614.8v-3.2h-24l12.8-12.48c2.24-2.24 9.4-8.32 9.4-16.13 0-7.87-5.88-12.99-13.88-12.99s-11.84 5.76-13.44 9.28l2.56 1.6c1.28-2.88 4.48-7.8 10.88-7.8s10.37 4.28 10.37 10.04c0 5.76-4.61 10.56-7.49 13.44l-16 15.68.64 2.56h28.16z" fill-rule="nonzero"/><g><path d="M843.06 678c0-15.45-17.92-28-40-28h-320c-22.08 0-40 12.55-40 28v224c0 15.45 17.92 28 40 28h320c22.08 0 40-12.55 40-28V678z" fill="none" stroke="#89c2d4" stroke-width="7"/><path d="M501.94 744.16V700h-12.48v2.88h9.09v41.28h3.39zM545.14 744.16v-3.2h-24l12.8-12.48c2.24-2.24 9.4-8.32 9.4-16.13 0-7.87-5.88-12.99-13.88-12.99s-11.84 5.76-13.44 9.28l2.56 1.6c1.28-2.88 4.48-7.8 10.88-7.8s10.37 4.28 10.37 10.04c0 5.76-4.61 10.56-7.5 13.44l-16 15.68.65 2.56h28.16zM580.02 732.2c0-5.77-3.52-9.8-8.51-11.4v-.13c2.75-1.15 7.04-3.39 7.04-10.24 0-6.91-5.9-11.07-12.61-11.07-6.72 0-12.67 4.16-12.67 11.07 0 6.85 4.35 9.09 7.04 10.24v.13c-4.93 1.6-8.45 5.63-8.45 11.4 0 8 5.76 12.66 14.08 12.66s14.08-4.67 14.08-12.67zm-5-21.38c0 5.44-3.96 8.38-9.08 8.38s-9.15-2.94-9.15-8.38c0-5.44 4.03-8.39 9.15-8.39s9.09 2.95 9.09 8.39zM576.5 732c0 6.08-4.8 9.86-10.56 9.86-5.76 0-10.56-3.78-10.56-9.86s4.48-9.73 10.56-9.73 10.56 3.65 10.56 9.73zM596.66 739.04h-3.84l-3.84 14.08h2.56l5.12-14.08zM631.22 744.16V700h-12.48v2.88h9.09v41.28h3.39zM674.42 744.16v-3.2h-24l12.8-12.48c2.24-2.24 9.4-8.32 9.4-16.13 0-7.87-5.88-12.99-13.88-12.99s-11.84 5.76-13.44 9.28l2.56 1.6c1.28-2.88 4.48-7.8 10.88-7.8s10.37 4.28 10.37 10.04c0 5.76-4.61 10.56-7.5 13.44l-16 15.68.65 2.56h28.16zM709.62 721.12c0-10.18-2.75-21.76-15.36-21.76-8.64 0-14.08 6.53-14.08 14.85s6.53 13.63 13.57 13.63 10.75-4.16 12.48-8.32c0 8.32-1.6 14.08-3.84 17.47-2.24 3.33-4.8 4.93-9.28 4.93-4.42 0-7.81-1.73-10.24-3.97l-1.92 2.37c.64.64 4.16 4.6 12.16 4.6 12.73 0 16.5-13.24 16.5-23.8zm-4.67-7.55c0 5.76-3.52 11.2-10.7 11.2-7.22 0-10.55-5.44-10.55-11.2 0-5.76 3.33-11.2 10.56-11.2 7.17 0 10.69 5.44 10.69 11.2zM724.66 739.04h-3.84l-3.84 14.08h2.56l5.12-14.08zM755.06 741.8c0-1.8-1.28-3.08-3.07-3.08-1.73 0-3.01 1.28-3.01 3.07 0 1.73 1.28 3.01 3 3.01 1.8 0 3.08-1.28 3.08-3zM773.3 741.8c0-1.8-1.28-3.08-3.07-3.08-1.73 0-3.01 1.28-3.01 3.07 0 1.73 1.28 3.01 3 3.01 1.8 0 3.08-1.28 3.08-3zM791.54 741.8c0-1.8-1.28-3.08-3.07-3.08-1.73 0-3.01 1.28-3.01 3.07 0 1.73 1.28 3.01 3 3.01 1.8 0 3.08-1.28 3.08-3zM502.42 869.8c0-1.8-1.28-3.08-3.07-3.08-1.73 0-3.01 1.28-3.01 3.07 0 1.73 1.28 3.01 3 3.01 1.8 0 3.08-1.28 3.08-3zM520.66 869.8c0-1.8-1.28-3.08-3.07-3.08-1.73 0-3.01 1.28-3.01 3.07 0 1.73 1.28 3.01 3 3.01 1.8 0 3.08-1.28 3.08-3zM538.9 869.8c0-1.8-1.28-3.08-3.07-3.08-1.73 0-3.01 1.28-3.01 3.07 0 1.73 1.28 3.01 3 3.01 1.8 0 3.08-1.28 3.08-3zM557.78 867.04h-3.84l-3.84 14.08h2.56l5.12-14.08zM592.34 872.16V828h-12.48v2.88h9.09v41.28h3.39zM634.9 849.12c0-10.18-2.75-21.76-15.36-21.76-8.64 0-14.08 6.53-14.08 14.85s6.53 13.63 13.57 13.63 10.75-4.16 12.48-8.32c0 8.32-1.6 14.08-3.84 17.47-2.24 3.33-4.8 4.93-9.28 4.93-4.42 0-7.81-1.73-10.24-3.97l-1.92 2.37c.64.64 4.16 4.6 12.16 4.6 12.73 0 16.5-13.24 16.5-23.8zm-4.67-7.55c0 5.76-3.52 11.2-10.7 11.2-7.22 0-10.55-5.44-10.55-11.2 0-5.76 3.33-11.2 10.56-11.2 7.17 0 10.69 5.44 10.69 11.2zM672.34 850.14c0-11.39-4.8-22.78-16-22.78-11.14 0-16 11.4-16 22.78 0 11.33 4.8 22.72 16 22.72s16-11.39 16-22.72zm-3.71-.12c0 11.52-4.3 19.64-12.3 19.64S644 861.54 644 850.02c0-11.52 4.35-19.65 12.35-19.65s12.29 8.13 12.29 19.65zM685.78 867.04h-3.84l-3.84 14.08h2.56l5.12-14.08zM720.34 872.16V828h-12.48v2.88h9.09v41.28h3.39zM762.9 849.12c0-10.18-2.75-21.76-15.36-21.76-8.64 0-14.08 6.53-14.08 14.85s6.53 13.63 13.57 13.63 10.75-4.16 12.48-8.32c0 8.32-1.6 14.08-3.84 17.47-2.24 3.33-4.8 4.93-9.28 4.93-4.42 0-7.81-1.73-10.24-3.97l-1.92 2.37c.64.64 4.16 4.6 12.16 4.6 12.73 0 16.5-13.24 16.5-23.8zm-4.67-7.55c0 5.76-3.52 11.2-10.7 11.2-7.22 0-10.55-5.44-10.55-11.2 0-5.76 3.33-11.2 10.56-11.2 7.17 0 10.69 5.44 10.69 11.2zM782.74 872.16V828h-12.48v2.88h9.09v41.28h3.39zM565.3 606.23c0-5.63-5.56-7.55-9.27-8.83-3.65-1.28-6.85-2.62-6.85-5.7 0-3.07 2.37-4.73 5.7-4.73 3.32 0 5.37 1.15 7.42 3.39l2.05-2.05c-2.3-2.62-5-4.16-9.35-4.16s-9.02 2.56-9.02 7.94c0 5.37 5.57 7.3 8.13 8.19 2.56.9 7.87 2.24 7.87 6.08s-3.26 5.63-6.98 5.63c-3.7 0-6.65-1.85-8.57-4.67l-2.37 1.92c1.86 3.07 5.31 5.76 10.82 5.76 5.5 0 10.43-3.2 10.43-8.77zM600.38 599.64c0-8.96-6.72-15.49-15.23-15.49-8.45 0-15.17 6.53-15.17 15.49S576.7 615 585.15 615c8.5 0 15.23-6.4 15.23-15.36zm-3.52-.13c0 6.85-4.48 12.48-11.71 12.48-7.17 0-11.65-5.63-11.65-12.48 0-6.91 4.48-12.48 11.65-12.48 7.23 0 11.7 5.57 11.7 12.48zM632.19 609.88l-1.92-2.24s-3.2 4.35-9.92 4.35-11.33-5.31-11.33-12.67 5.25-12.16 11.2-12.16c5.89 0 8.45 2.88 9.73 4.35l2.1-2.24c-.63-.83-3.83-5.12-11.7-5.12-7.81 0-14.85 6.21-14.85 15.36 0 9.09 6.53 15.49 14.53 15.49 8 0 11.07-3.84 12.16-5.12zM661.82 614.36l-14.08-18.37 12.16-11.33h-4.16l-14.27 13.38V570.2h-3.33v44.16h3.33v-12.6l4.03-3.72 12.16 16.32h4.16zM691.9 598.04c0-8-5.63-13.89-13.44-13.89-7.87 0-14.4 6.21-14.4 15.36 0 9.09 5.57 15.49 14.2 15.49 8.65 0 12.36-4.48 12.36-4.48l-1.6-2.37S685.3 612 678.59 612s-10.7-4.67-11.01-11.71h24.13s.19-1.28.19-2.24zm-3.4-.64h-20.8c.2-4.16 3.2-10.37 10.57-10.37 7.36 0 10.24 6.53 10.24 10.37zM711.1 614.04l-.32-2.88s-1.28.83-3.2.83c-3.97 0-4.35-3.9-4.35-7.17V587.8h7.55v-3h-7.49v-9.48h-3.4v9.47h-4.47v3.01h4.48v15.04c0 4.8.06 6.98 1.09 8.96 1.08 1.98 2.75 3.2 5.63 3.2 1.92 0 3.4-.32 4.48-.96zM741.18 614.36V570.2H728.7v2.88h9.09v41.28h3.39z" fill-rule="nonzero"/></g><g><path d="M74.94 757.15l-18.35 10.6c-7.3 4.21-7 11.23.67 15.66l157.5 90.93c7.67 4.43 19.82 4.6 27.13.38l105.88-61.13c7.3-4.22 7-11.24-.66-15.66l-16.24-11.31M315.95 779.94l-126.34-72.95c-7.67-4.43-19.83-4.6-27.13-.38l-75.56 43.62" fill="#fff" stroke="#000" stroke-width="10"/><path d="M50 737.1c.07 2.88 2.07 2.92 5.95 5.17l157.5 90.93c7.67 4.43 19.83 4.6 27.13.38l105.88-61.13c3.6-2.08 5.36-4.84 5.3-7.64v30.72c0 2.75-1.76 5.44-5.3 7.49l-105.88 61.13c-7.3 4.21-19.46 4.04-27.13-.39l-157.5-90.93c-3.88-2.24-5.88-5.15-5.95-8.02v-27.7z" fill="#89c2d4"/><path d="M188.3 656.3c-7.67-4.43-19.82-4.6-27.13-.38L55.3 717.05c-7.3 4.22-7 11.24.66 15.66l157.5 90.94c7.67 4.43 19.83 4.6 27.13.38l105.88-61.13c7.3-4.22 7.01-11.24-.66-15.67L188.3 656.3z" fill="#fff" stroke="#000" stroke-width="10"/><path d="M333.75 790.2c2.42-1.4 4.4-.26 4.4 2.55 0 2.8-1.98 6.22-4.4 7.62-2.43 1.4-4.4.27-4.4-2.54 0-2.8 1.97-6.22 4.4-7.62zM319.52 798.42c2.43-1.4 4.4-.26 4.4 2.55 0 2.8-1.97 6.22-4.4 7.62-2.43 1.4-4.4.26-4.4-2.54s1.97-6.22 4.4-7.63z" fill="#fff"/><path d="M306.3 811.13l-57.59 33.26" fill="none" stroke="#fff" stroke-width="10"/><path d="M149.13 627.02v-44.16h-3.45v38.08l-29.12-38.08h-3.46v44.16h3.46V588.3L146 627.02h3.13zM187.53 612.3c0-8.96-6.72-15.49-15.23-15.49-8.45 0-15.17 6.53-15.17 15.5 0 8.95 6.72 15.35 15.17 15.35 8.51 0 15.23-6.4 15.23-15.36zm-3.52-.13c0 6.85-4.48 12.48-11.7 12.48-7.18 0-11.66-5.63-11.66-12.48 0-6.9 4.48-12.48 11.65-12.48 7.23 0 11.71 5.57 11.71 12.48zM192.65 612.17c0 8.77 5.76 15.5 14.72 15.5 4.48 0 8.51-1.93 11.01-6.15v5.5h3.4v-44.16h-3.4v20.03c-2.88-4.35-6.85-6.08-11.13-6.08-8.84 0-14.6 6.53-14.6 15.36zm3.52 0c0-6.9 4.04-12.48 11.2-12.48 7.23 0 11.2 5.57 11.2 12.48 0 6.85-3.97 12.48-11.2 12.48-7.17 0-11.2-5.63-11.2-12.48zM257.3 610.7c0-8-5.64-13.89-13.45-13.89-7.87 0-14.4 6.21-14.4 15.36 0 9.1 5.57 15.5 14.21 15.5s12.35-4.49 12.35-4.49l-1.6-2.37s-3.7 3.84-10.43 3.84c-6.72 0-10.69-4.67-11-11.7h24.12s.2-1.29.2-2.25zm-3.4-.64h-20.8c.2-4.16 3.2-10.37 10.56-10.37s10.24 6.53 10.24 10.37zM305.3 627.02v-3.2h-24l12.8-12.48c2.23-2.24 9.4-8.32 9.4-16.13 0-7.87-5.89-12.99-13.89-12.99s-11.84 5.76-13.44 9.28l2.56 1.6c1.28-2.88 4.48-7.8 10.88-7.8s10.37 4.28 10.37 10.04c0 5.76-4.6 10.56-7.49 13.44l-16 15.68.64 2.56h28.16z" fill-rule="nonzero"/></g></g></svg>