<?xml version="1.0" encoding="UTF-8" standalone="no"?>
<!DOCTYPE svg PUBLIC "-//W3C//DTD SVG 1.1//EN" "http://www.w3.org/Graphics/SVG/1.1/DTD/svg11.dtd">
<svg width="100%" height="100%" viewBox="0 0 1374 1020" version="1.1" xmlns="http://www.w3.org/2000/svg" xmlns:xlink="http://www.w3.org/1999/xlink" xml:space="preserve" xmlns:serif="http://www.serif.com/" style="fill-rule:evenodd;clip-rule:evenodd;stroke-linecap:round;stroke-linejoin:round;stroke-miterlimit:1.5;">
    <g>
        <g>
            <path d="M1323.06,72c-0,-12.142 -9.858,-22 -22,-22l-874.471,0c-12.142,0 -22,9.858 -22,22l-0,396c-0,12.142 9.858,22 22,22l874.471,-0c12.142,-0 22,-9.858 22,-22l-0,-396Z" style="fill:none;stroke:black;stroke-width:7px;"/>
            <g>
                <g>
                    <path d="M1283.06,198c-0,-15.454 -17.924,-28 -40,-28l-320,-0c-22.077,-0 -40,12.546 -40,28l-0,224c-0,15.454 17.923,28 40,28l320,-0c22.076,-0 40,-12.546 40,-28l-0,-224Z" style="fill:none;stroke:rgb(137,194,212);stroke-width:7px;"/>
                    <g transform="matrix(1,0,0,1,521.732,13.041)">
                        <g transform="matrix(64,0,0,64,470.927,260.879)">
                            <path d="M0.255,-0l0,-0.69l-0.195,0l0,0.045l0.142,0l0,0.645l0.053,-0Z" style="fill-rule:nonzero;"/>
                        </g>
                        <g transform="matrix(64,0,0,64,497.487,260.879)">
                            <path d="M0.2,-0.08l-0.06,0l-0.06,0.22l0.04,0l0.08,-0.22Z" style="fill-rule:nonzero;"/>
                        </g>
                        <g transform="matrix(64,0,0,64,528.527,260.879)">
                            <path d="M0.495,-0.187c0,-0.118 -0.09,-0.168 -0.14,-0.175l0,-0.003c0.04,-0.01 0.12,-0.05 0.12,-0.16c0,-0.11 -0.095,-0.175 -0.2,-0.175c-0.105,0 -0.161,0.05 -0.205,0.105l0.035,0.03c0.04,-0.045 0.085,-0.087 0.165,-0.087c0.08,0 0.15,0.047 0.15,0.132c0,0.085 -0.06,0.133 -0.145,0.133l-0.045,0l0,0.052l0.045,0c0.09,0 0.165,0.05 0.165,0.148c0,0.097 -0.073,0.149 -0.178,0.149c-0.105,0 -0.167,-0.104 -0.167,-0.104l-0.04,0.032c0,0 0.067,0.12 0.205,0.12c0.137,0 0.235,-0.08 0.235,-0.197Z" style="fill-rule:nonzero;"/>
                        </g>
                        <g transform="matrix(64,0,0,64,564.367,260.879)">
                            <path d="M0.2,-0.08l-0.06,0l-0.06,0.22l0.04,0l0.08,-0.22Z" style="fill-rule:nonzero;"/>
                        </g>
                        <g transform="matrix(64,0,0,64,595.407,260.879)">
                            <path d="M0.19,-0.037c0,-0.028 -0.02,-0.048 -0.048,-0.048c-0.027,-0 -0.047,0.02 -0.047,0.048c-0,0.027 0.02,0.047 0.047,0.047c0.028,-0 0.048,-0.02 0.048,-0.047Z" style="fill-rule:nonzero;"/>
                        </g>
                        <g transform="matrix(64,0,0,64,613.647,260.879)">
                            <path d="M0.19,-0.037c0,-0.028 -0.02,-0.048 -0.048,-0.048c-0.027,-0 -0.047,0.02 -0.047,0.048c-0,0.027 0.02,0.047 0.047,0.047c0.028,-0 0.048,-0.02 0.048,-0.047Z" style="fill-rule:nonzero;"/>
                        </g>
                        <g transform="matrix(64,0,0,64,631.887,260.879)">
                            <path d="M0.19,-0.037c0,-0.028 -0.02,-0.048 -0.048,-0.048c-0.027,-0 -0.047,0.02 -0.047,0.048c-0,0.027 0.02,0.047 0.047,0.047c0.028,-0 0.048,-0.02 0.048,-0.047Z" style="fill-rule:nonzero;"/>
                        </g>
                        <g transform="matrix(64,0,0,64,404.687,388.879)">
                            <path d="M0.19,-0.037c0,-0.028 -0.02,-0.048 -0.048,-0.048c-0.027,-0 -0.047,0.02 -0.047,0.048c-0,0.027 0.02,0.047 0.047,0.047c0.028,-0 0.048,-0.02 0.048,-0.047Z" style="fill-rule:nonzero;"/>
                        </g>
                        <g transform="matrix(64,0,0,64,422.927,388.879)">
                            <path d="M0.19,-0.037c0,-0.028 -0.02,-0.048 -0.048,-0.048c-0.027,-0 -0.047,0.02 -0.047,0.048c-0,0.027 0.02,0.047 0.047,0.047c0.028,-0 0.048,-0.02 0.048,-0.047Z" style="fill-rule:nonzero;"/>
                        </g>
                        <g transform="matrix(64,0,0,64,441.167,388.879)">
                            <path d="M0.19,-0.037c0,-0.028 -0.02,-0.048 -0.048,-0.048c-0.027,-0 -0.047,0.02 -0.047,0.048c-0,0.027 0.02,0.047 0.047,0.047c0.028,-0 0.048,-0.02 0.048,-0.047Z" style="fill-rule:nonzero;"/>
                        </g>
                        <g transform="matrix(64,0,0,64,459.407,388.879)">
                            <path d="M0.2,-0.08l-0.06,0l-0.06,0.22l0.04,0l0.08,-0.22Z" style="fill-rule:nonzero;"/>
                        </g>
                        <g transform="matrix(64,0,0,64,490.447,388.879)">
                            <path d="M0.255,-0l0,-0.69l-0.195,0l0,0.045l0.142,0l0,0.645l0.053,-0Z" style="fill-rule:nonzero;"/>
                        </g>
                        <g transform="matrix(64,0,0,64,517.007,388.879)">
                            <path d="M0.515,-0l0,-0.05l-0.375,0l0.2,-0.195c0.035,-0.035 0.147,-0.13 0.147,-0.252c0,-0.123 -0.092,-0.203 -0.217,-0.203c-0.125,-0 -0.185,0.09 -0.21,0.145l0.04,0.025c0.02,-0.045 0.07,-0.122 0.17,-0.122c0.1,-0 0.162,0.067 0.162,0.157c-0,0.09 -0.072,0.165 -0.117,0.21l-0.25,0.245l0.01,0.04l0.44,-0Z" style="fill-rule:nonzero;"/>
                        </g>
                        <g transform="matrix(64,0,0,64,552.847,388.879)">
                            <path d="M0.495,-0.215c0,-0.145 -0.115,-0.225 -0.23,-0.225c-0.035,0 -0.073,0.005 -0.103,0.02l0.048,-0.222l0.27,0l-0,-0.048l-0.31,0l-0.065,0.315l0.035,0.02c0.025,-0.025 0.075,-0.037 0.12,-0.037c0.09,0 0.18,0.057 0.18,0.177c0,0.12 -0.09,0.178 -0.18,0.178c-0.09,0 -0.15,-0.048 -0.175,-0.098l-0.04,0.03c0.02,0.04 0.085,0.117 0.21,0.117c0.125,0 0.24,-0.082 0.24,-0.227Z" style="fill-rule:nonzero;"/>
                        </g>
                        <g transform="matrix(64,0,0,64,588.687,388.879)">
                            <path d="M0.2,-0.08l-0.06,0l-0.06,0.22l0.04,0l0.08,-0.22Z" style="fill-rule:nonzero;"/>
                        </g>
                        <g transform="matrix(64,0,0,64,619.727,388.879)">
                            <path d="M0.255,-0l0,-0.69l-0.195,0l0,0.045l0.142,0l0,0.645l0.053,-0Z" style="fill-rule:nonzero;"/>
                        </g>
                        <g transform="matrix(64,0,0,64,646.287,388.879)">
                            <path d="M0.515,-0l0,-0.05l-0.375,0l0.2,-0.195c0.035,-0.035 0.147,-0.13 0.147,-0.252c0,-0.123 -0.092,-0.203 -0.217,-0.203c-0.125,-0 -0.185,0.09 -0.21,0.145l0.04,0.025c0.02,-0.045 0.07,-0.122 0.17,-0.122c0.1,-0 0.162,0.067 0.162,0.157c-0,0.09 -0.072,0.165 -0.117,0.21l-0.25,0.245l0.01,0.04l0.44,-0Z" style="fill-rule:nonzero;"/>
                        </g>
                        <g transform="matrix(64,0,0,64,680.527,388.879)">
                            <path d="M0.53,-0.66l-0.015,-0.03l-0.455,0l0,0.048l0.405,0l-0.34,0.642l0.055,-0l0.35,-0.66Z" style="fill-rule:nonzero;"/>
                        </g>
                    </g>
                </g>
                <path d="M996.547,123.952c-0,-5.632 -5.568,-7.552 -9.28,-8.832c-3.648,-1.28 -6.848,-2.624 -6.848,-5.696c-0,-3.072 2.368,-4.736 5.696,-4.736c3.328,-0 5.376,1.152 7.424,3.392l2.048,-2.048c-2.304,-2.624 -4.992,-4.16 -9.344,-4.16c-4.352,-0 -9.024,2.56 -9.024,7.936c-0,5.376 5.568,7.296 8.128,8.192c2.56,0.896 7.872,2.24 7.872,6.08c-0,3.84 -3.264,5.632 -6.976,5.632c-3.712,-0 -6.656,-1.856 -8.576,-4.672l-2.368,1.92c1.856,3.072 5.312,5.76 10.816,5.76c5.504,-0 10.432,-3.2 10.432,-8.768Z" style="fill-rule:nonzero;"/>
                <path d="M1031.62,117.36c-0,-8.96 -6.72,-15.488 -15.232,-15.488c-8.448,-0 -15.168,6.528 -15.168,15.488c-0,8.96 6.72,15.36 15.168,15.36c8.512,-0 15.232,-6.4 15.232,-15.36Zm-3.52,-0.128c-0,6.848 -4.48,12.48 -11.712,12.48c-7.168,-0 -11.648,-5.632 -11.648,-12.48c-0,-6.912 4.48,-12.48 11.648,-12.48c7.232,-0 11.712,5.568 11.712,12.48Z" style="fill-rule:nonzero;"/>
                <path d="M1063.43,127.6l-1.92,-2.24c-0,-0 -3.2,4.352 -9.92,4.352c-6.72,-0 -11.328,-5.312 -11.328,-12.672c-0,-7.36 5.248,-12.16 11.2,-12.16c5.888,-0 8.448,2.88 9.728,4.352l2.112,-2.24c-0.64,-0.832 -3.84,-5.12 -11.712,-5.12c-7.808,-0 -14.848,6.208 -14.848,15.36c-0,9.088 6.528,15.488 14.528,15.488c8,-0 11.072,-3.84 12.16,-5.12Z" style="fill-rule:nonzero;"/>
                <path d="M1093.06,132.08l-14.08,-18.368l12.16,-11.328l-4.16,-0l-14.272,13.376l-0,-27.84l-3.328,-0l-0,44.16l3.328,-0l-0,-12.608l4.032,-3.712l12.16,16.32l4.16,-0Z" style="fill-rule:nonzero;"/>
                <path d="M1123.14,115.76c-0,-8 -5.632,-13.888 -13.44,-13.888c-7.872,-0 -14.4,6.208 -14.4,15.36c-0,9.088 5.568,15.488 14.208,15.488c8.64,-0 12.352,-4.48 12.352,-4.48l-1.6,-2.368c-0,-0 -3.712,3.84 -10.432,3.84c-6.72,-0 -10.688,-4.672 -11.008,-11.712l24.128,-0c-0,-0 0.192,-1.28 0.192,-2.24Zm-3.392,-0.64l-20.8,-0c0.192,-4.16 3.2,-10.368 10.56,-10.368c7.36,-0 10.24,6.528 10.24,10.368Z" style="fill-rule:nonzero;"/>
                <path d="M1142.34,131.76l-0.32,-2.88c-0,-0 -1.28,0.832 -3.2,0.832c-3.968,-0 -4.352,-3.904 -4.352,-7.168l-0,-17.024l7.552,-0l-0,-3.008l-7.488,-0l-0,-9.472l-3.392,-0l-0,9.472l-4.48,-0l-0,3.008l4.48,-0l-0,15.04c-0,4.8 0.064,6.976 1.088,8.96c1.088,1.984 2.752,3.2 5.632,3.2c1.92,-0 3.392,-0.32 4.48,-0.96Z" style="fill-rule:nonzero;"/>
                <path d="M1189.06,132.08l-0,-3.2l-24,-0l12.8,-12.48c2.24,-2.24 9.408,-8.32 9.408,-16.128c-0,-7.872 -5.888,-12.992 -13.888,-12.992c-8,-0 -11.84,5.76 -13.44,9.28l2.56,1.6c1.28,-2.88 4.48,-7.808 10.88,-7.808c6.4,-0 10.368,4.288 10.368,10.048c-0,5.76 -4.608,10.56 -7.488,13.44l-16,15.68l0.64,2.56l28.16,-0Z" style="fill-rule:nonzero;"/>
            </g>
            <g>
                <g>
                    <path d="M844.588,198c-0,-15.454 -17.924,-28 -40,-28l-320,0c-22.077,0 -40,12.546 -40,28l-0,224c-0,15.454 17.923,28 40,28l320,0c22.076,0 40,-12.546 40,-28l-0,-224Z" style="fill:none;stroke:rgb(137,194,212);stroke-width:7px;"/>
                    <g transform="matrix(1,0,0,1,80.9317,3.92102)">
                        <g transform="matrix(64,0,0,64,466.927,260.879)">
                            <path d="M0.53,-0.344c0,-0.178 -0.075,-0.356 -0.25,-0.356c-0.174,-0 -0.25,0.178 -0.25,0.356c-0,0.177 0.075,0.355 0.25,0.355c0.175,-0 0.25,-0.178 0.25,-0.355Zm-0.058,-0.002c0,0.18 -0.067,0.307 -0.192,0.307c-0.125,-0 -0.193,-0.127 -0.193,-0.307c-0,-0.18 0.068,-0.307 0.193,-0.307c0.125,0 0.192,0.127 0.192,0.307Z" style="fill-rule:nonzero;"/>
                        </g>
                        <g transform="matrix(64,0,0,64,501.487,260.879)">
                            <path d="M0.2,-0.08l-0.06,0l-0.06,0.22l0.04,0l0.08,-0.22Z" style="fill-rule:nonzero;"/>
                        </g>
                        <g transform="matrix(64,0,0,64,532.527,260.879)">
                            <path d="M0.515,-0l0,-0.05l-0.375,0l0.2,-0.195c0.035,-0.035 0.147,-0.13 0.147,-0.252c0,-0.123 -0.092,-0.203 -0.217,-0.203c-0.125,-0 -0.185,0.09 -0.21,0.145l0.04,0.025c0.02,-0.045 0.07,-0.122 0.17,-0.122c0.1,-0 0.162,0.067 0.162,0.157c-0,0.09 -0.072,0.165 -0.117,0.21l-0.25,0.245l0.01,0.04l0.44,-0Z" style="fill-rule:nonzero;"/>
                        </g>
                        <g transform="matrix(64,0,0,64,568.367,260.879)">
                            <path d="M0.2,-0.08l-0.06,0l-0.06,0.22l0.04,0l0.08,-0.22Z" style="fill-rule:nonzero;"/>
                        </g>
                        <g transform="matrix(64,0,0,64,599.407,260.879)">
                            <path d="M0.19,-0.037c0,-0.028 -0.02,-0.048 -0.048,-0.048c-0.027,-0 -0.047,0.02 -0.047,0.048c-0,0.027 0.02,0.047 0.047,0.047c0.028,-0 0.048,-0.02 0.048,-0.047Z" style="fill-rule:nonzero;"/>
                        </g>
                        <g transform="matrix(64,0,0,64,617.647,260.879)">
                            <path d="M0.19,-0.037c0,-0.028 -0.02,-0.048 -0.048,-0.048c-0.027,-0 -0.047,0.02 -0.047,0.048c-0,0.027 0.02,0.047 0.047,0.047c0.028,-0 0.048,-0.02 0.048,-0.047Z" style="fill-rule:nonzero;"/>
                        </g>
                        <g transform="matrix(64,0,0,64,635.887,260.879)">
                            <path d="M0.19,-0.037c0,-0.028 -0.02,-0.048 -0.048,-0.048c-0.027,-0 -0.047,0.02 -0.047,0.048c-0,0.027 0.02,0.047 0.047,0.047c0.028,-0 0.048,-0.02 0.048,-0.047Z" style="fill-rule:nonzero;"/>
                        </g>
                        <g transform="matrix(64,0,0,64,404.527,388.879)">
                            <path d="M0.19,-0.037c0,-0.028 -0.02,-0.048 -0.048,-0.048c-0.027,-0 -0.047,0.02 -0.047,0.048c-0,0.027 0.02,0.047 0.047,0.047c0.028,-0 0.048,-0.02 0.048,-0.047Z" style="fill-rule:nonzero;"/>
                        </g>
                        <g transform="matrix(64,0,0,64,422.767,388.879)">
                            <path d="M0.19,-0.037c0,-0.028 -0.02,-0.048 -0.048,-0.048c-0.027,-0 -0.047,0.02 -0.047,0.048c-0,0.027 0.02,0.047 0.047,0.047c0.028,-0 0.048,-0.02 0.048,-0.047Z" style="fill-rule:nonzero;"/>
                        </g>
                        <g transform="matrix(64,0,0,64,441.007,388.879)">
                            <path d="M0.19,-0.037c0,-0.028 -0.02,-0.048 -0.048,-0.048c-0.027,-0 -0.047,0.02 -0.047,0.048c-0,0.027 0.02,0.047 0.047,0.047c0.028,-0 0.048,-0.02 0.048,-0.047Z" style="fill-rule:nonzero;"/>
                        </g>
                        <g transform="matrix(64,0,0,64,459.247,388.879)">
                            <path d="M0.2,-0.08l-0.06,0l-0.06,0.22l0.04,0l0.08,-0.22Z" style="fill-rule:nonzero;"/>
                        </g>
                        <g transform="matrix(64,0,0,64,490.287,388.879)">
                            <path d="M0.255,-0l0,-0.69l-0.195,0l0,0.045l0.142,0l0,0.645l0.053,-0Z" style="fill-rule:nonzero;"/>
                        </g>
                        <g transform="matrix(64,0,0,64,516.847,388.879)">
                            <path d="M0.515,-0l0,-0.05l-0.375,0l0.2,-0.195c0.035,-0.035 0.147,-0.13 0.147,-0.252c0,-0.123 -0.092,-0.203 -0.217,-0.203c-0.125,-0 -0.185,0.09 -0.21,0.145l0.04,0.025c0.02,-0.045 0.07,-0.122 0.17,-0.122c0.1,-0 0.162,0.067 0.162,0.157c-0,0.09 -0.072,0.165 -0.117,0.21l-0.25,0.245l0.01,0.04l0.44,-0Z" style="fill-rule:nonzero;"/>
                        </g>
                        <g transform="matrix(64,0,0,64,551.407,388.879)">
                            <path d="M0.54,-0.16l0,-0.05l-0.106,0l-0,-0.485l-0.049,0l-0.36,0.495l-0,0.04l0.356,0l-0,0.16l0.053,0l-0,-0.16l0.106,0Zm-0.159,-0.05l-0.296,0l0.296,-0.405l0,0.405Z" style="fill-rule:nonzero;"/>
                        </g>
                        <g transform="matrix(64,0,0,64,587.247,388.879)">
                            <path d="M0.2,-0.08l-0.06,0l-0.06,0.22l0.04,0l0.08,-0.22Z" style="fill-rule:nonzero;"/>
                        </g>
                        <g transform="matrix(64,0,0,64,618.287,388.879)">
                            <path d="M0.255,-0l0,-0.69l-0.195,0l0,0.045l0.142,0l0,0.645l0.053,-0Z" style="fill-rule:nonzero;"/>
                        </g>
                        <g transform="matrix(64,0,0,64,644.847,388.879)">
                            <path d="M0.515,-0l0,-0.05l-0.375,0l0.2,-0.195c0.035,-0.035 0.147,-0.13 0.147,-0.252c0,-0.123 -0.092,-0.203 -0.217,-0.203c-0.125,-0 -0.185,0.09 -0.21,0.145l0.04,0.025c0.02,-0.045 0.07,-0.122 0.17,-0.122c0.1,-0 0.162,0.067 0.162,0.157c-0,0.09 -0.072,0.165 -0.117,0.21l-0.25,0.245l0.01,0.04l0.44,-0Z" style="fill-rule:nonzero;"/>
                        </g>
                        <g transform="matrix(64,0,0,64,680.687,388.879)">
                            <path d="M0.515,-0.22c0,-0.13 -0.103,-0.213 -0.213,-0.213c-0.11,0 -0.167,0.063 -0.195,0.128c-0,-0.138 0.029,-0.35 0.208,-0.35c0.07,0 0.115,0.03 0.152,0.065l0.03,-0.037c-0,0 -0.057,-0.073 -0.18,-0.073c-0.201,0 -0.262,0.202 -0.262,0.37c-0,0.159 0.042,0.342 0.24,0.342c0.135,0 0.22,-0.102 0.22,-0.232Zm-0.055,0.009c-0,0.09 -0.053,0.175 -0.165,0.175c-0.113,0 -0.168,-0.085 -0.168,-0.175c-0,-0.09 0.055,-0.175 0.168,-0.175c0.112,0 0.165,0.085 0.165,0.175Z" style="fill-rule:nonzero;"/>
                        </g>
                    </g>
                </g>
                <path d="M567.307,124.632c-0,-5.632 -5.568,-7.552 -9.28,-8.832c-3.648,-1.28 -6.848,-2.624 -6.848,-5.696c-0,-3.072 2.368,-4.736 5.696,-4.736c3.328,-0 5.376,1.152 7.424,3.392l2.048,-2.048c-2.304,-2.624 -4.992,-4.16 -9.344,-4.16c-4.352,-0 -9.024,2.56 -9.024,7.936c-0,5.376 5.568,7.296 8.128,8.192c2.56,0.896 7.872,2.24 7.872,6.08c-0,3.84 -3.264,5.632 -6.976,5.632c-3.712,-0 -6.656,-1.856 -8.576,-4.672l-2.368,1.92c1.856,3.072 5.312,5.76 10.816,5.76c5.504,-0 10.432,-3.2 10.432,-8.768Z" style="fill-rule:nonzero;"/>
                <path d="M602.379,118.04c-0,-8.96 -6.72,-15.488 -15.232,-15.488c-8.448,-0 -15.168,6.528 -15.168,15.488c-0,8.96 6.72,15.36 15.168,15.36c8.512,-0 15.232,-6.4 15.232,-15.36Zm-3.52,-0.128c-0,6.848 -4.48,12.48 -11.712,12.48c-7.168,-0 -11.648,-5.632 -11.648,-12.48c-0,-6.912 4.48,-12.48 11.648,-12.48c7.232,-0 11.712,5.568 11.712,12.48Z" style="fill-rule:nonzero;"/>
                <path d="M634.187,128.28l-1.92,-2.24c-0,-0 -3.2,4.352 -9.92,4.352c-6.72,-0 -11.328,-5.312 -11.328,-12.672c-0,-7.36 5.248,-12.16 11.2,-12.16c5.888,-0 8.448,2.88 9.728,4.352l2.112,-2.24c-0.64,-0.832 -3.84,-5.12 -11.712,-5.12c-7.808,-0 -14.848,6.208 -14.848,15.36c-0,9.088 6.528,15.488 14.528,15.488c8,-0 11.072,-3.84 12.16,-5.12Z" style="fill-rule:nonzero;"/>
                <path d="M663.819,132.76l-14.08,-18.368l12.16,-11.328l-4.16,-0l-14.272,13.376l-0,-27.84l-3.328,-0l-0,44.16l3.328,-0l-0,-12.608l4.032,-3.712l12.16,16.32l4.16,-0Z" style="fill-rule:nonzero;"/>
                <path d="M693.899,116.44c-0,-8 -5.632,-13.888 -13.44,-13.888c-7.872,-0 -14.4,6.208 -14.4,15.36c-0,9.088 5.568,15.488 14.208,15.488c8.64,-0 12.352,-4.48 12.352,-4.48l-1.6,-2.368c-0,-0 -3.712,3.84 -10.432,3.84c-6.72,-0 -10.688,-4.672 -11.008,-11.712l24.128,-0c-0,-0 0.192,-1.28 0.192,-2.24Zm-3.392,-0.64l-20.8,-0c0.192,-4.16 3.2,-10.368 10.56,-10.368c7.36,-0 10.24,6.528 10.24,10.368Z" style="fill-rule:nonzero;"/>
                <path d="M713.099,132.44l-0.32,-2.88c-0,-0 -1.28,0.832 -3.2,0.832c-3.968,-0 -4.352,-3.904 -4.352,-7.168l-0,-17.024l7.552,-0l-0,-3.008l-7.488,-0l-0,-9.472l-3.392,-0l-0,9.472l-4.48,-0l-0,3.008l4.48,-0l-0,15.04c-0,4.8 0.064,6.976 1.088,8.96c1.088,1.984 2.752,3.2 5.632,3.2c1.92,-0 3.392,-0.32 4.48,-0.96Z" style="fill-rule:nonzero;"/>
                <path d="M743.179,132.76l-0,-44.16l-12.48,-0l-0,2.88l9.088,-0l-0,41.28l3.392,-0Z" style="fill-rule:nonzero;"/>
            </g>
        </g>
        <g>
            <g>
                <path d="M76.475,294.284l-18.351,10.596c-7.305,4.217 -7.008,11.237 0.662,15.665l157.498,90.934c7.67,4.428 19.827,4.599 27.132,0.382l105.881,-61.132c7.305,-4.217 7.009,-11.237 -0.661,-15.665l-16.241,-11.307" style="fill:white;stroke:black;stroke-width:10px;"/>
                <path d="M317.484,317.078l-126.347,-72.948c-7.67,-4.428 -19.827,-4.599 -27.132,-0.382l-75.554,43.623" style="fill:white;stroke:black;stroke-width:10px;"/>
                <path d="M51.529,274.245c0.072,2.871 2.068,2.915 5.952,5.158l157.499,90.934c7.67,4.428 19.827,4.6 27.132,0.382l105.881,-61.132c3.604,-2.081 5.358,-4.844 5.288,-7.641l0.002,-0l0,30.726l0,-0c0,2.742 -1.754,5.44 -5.29,7.481l-105.881,61.132c-7.305,4.217 -19.462,4.046 -27.132,-0.382l-157.499,-90.934c-3.884,-2.243 -5.88,-5.151 -5.952,-8.023l0,-27.701Z" style="fill:rgb(137,194,212);"/>
                <path d="M189.833,193.437c-7.67,-4.429 -19.827,-4.6 -27.132,-0.383l-105.881,61.132c-7.305,4.218 -7.009,11.237 0.661,15.665l157.499,90.934c7.67,4.428 19.827,4.6 27.132,0.382l105.881,-61.132c7.305,-4.217 7.008,-11.236 -0.662,-15.665l-157.498,-90.933Z" style="fill:white;stroke:black;stroke-width:10px;"/>
                <g>
                    <path d="M335.274,327.347c2.429,-1.402 4.401,-0.264 4.401,2.541c-0,2.805 -1.972,6.22 -4.401,7.623c-2.429,1.402 -4.401,0.263 -4.401,-2.541c-0,-2.805 1.972,-6.221 4.401,-7.623Z" style="fill:white;"/>
                    <path d="M321.045,335.562c2.429,-1.402 4.401,-0.264 4.401,2.541c-0,2.805 -1.972,6.221 -4.401,7.623c-2.429,1.402 -4.401,0.264 -4.401,-2.541c0,-2.805 1.972,-6.22 4.401,-7.623Z" style="fill:white;"/>
                    <path d="M307.836,348.271l-57.594,33.252" style="fill:none;stroke:white;stroke-width:10px;"/>
                </g>
            </g>
            <path d="M150.662,164.16l0,-44.16l-3.456,-0l0,38.08l-29.12,-38.08l-3.456,-0l0,44.16l3.456,-0l0,-38.72l29.44,38.72l3.136,-0Z" style="fill-rule:nonzero;"/>
            <path d="M189.062,149.44c0,-8.96 -6.72,-15.488 -15.232,-15.488c-8.448,-0 -15.168,6.528 -15.168,15.488c0,8.96 6.72,15.36 15.168,15.36c8.512,-0 15.232,-6.4 15.232,-15.36Zm-3.52,-0.128c0,6.848 -4.48,12.48 -11.712,12.48c-7.168,-0 -11.648,-5.632 -11.648,-12.48c0,-6.912 4.48,-12.48 11.648,-12.48c7.232,-0 11.712,5.568 11.712,12.48Z" style="fill-rule:nonzero;"/>
            <path d="M194.182,149.312c0,8.768 5.76,15.488 14.72,15.488c4.48,-0 8.512,-1.92 11.008,-6.144l0,5.504l3.392,-0l0,-44.16l-3.392,-0l0,20.032c-2.88,-4.352 -6.848,-6.08 -11.136,-6.08c-8.832,-0 -14.592,6.528 -14.592,15.36Zm3.52,-0c0,-6.912 4.032,-12.48 11.2,-12.48c7.232,-0 11.2,5.568 11.2,12.48c0,6.848 -3.968,12.48 -11.2,12.48c-7.168,-0 -11.2,-5.632 -11.2,-12.48Z" style="fill-rule:nonzero;"/>
            <path d="M258.822,147.84c0,-8 -5.632,-13.888 -13.44,-13.888c-7.872,-0 -14.4,6.208 -14.4,15.36c0,9.088 5.568,15.488 14.208,15.488c8.64,-0 12.352,-4.48 12.352,-4.48l-1.6,-2.368c0,-0 -3.712,3.84 -10.432,3.84c-6.72,-0 -10.688,-4.672 -11.008,-11.712l24.128,-0c0,-0 0.192,-1.28 0.192,-2.24Zm-3.392,-0.64l-20.8,-0c0.192,-4.16 3.2,-10.368 10.56,-10.368c7.36,-0 10.24,6.528 10.24,10.368Z" style="fill-rule:nonzero;"/>
            <path d="M290.182,164.16l0,-44.16l-12.48,-0l0,2.88l9.088,-0l0,41.28l3.392,-0Z" style="fill-rule:nonzero;"/>
        </g>
    </g>
    <g>
        <g>
            <path d="M1323.06,552c-0,-12.142 -9.858,-22 -22,-22l-876,-0c-12.143,-0 -22,9.858 -22,22l-0,396c-0,12.142 9.857,22 22,22l876,-0c12.142,-0 22,-9.858 22,-22l-0,-396Z" style="fill:none;stroke:black;stroke-width:7px;"/>
            <g>
                <g>
                    <path d="M1283.06,678c-0,-15.454 -17.924,-28 -40,-28l-320,-0c-22.077,-0 -40,12.546 -40,28l-0,224c-0,15.454 17.923,28 40,28l320,-0c22.076,-0 40,-12.546 40,-28l-0,-224Z" style="fill:none;stroke:rgb(137,194,212);stroke-width:7px;"/>
                    <g transform="matrix(1,0,0,1,521.692,491.121)">
                        <g transform="matrix(64,0,0,64,409.167,260.879)">
                            <path d="M0.255,-0l0,-0.69l-0.195,0l0,0.045l0.142,0l0,0.645l0.053,-0Z" style="fill-rule:nonzero;"/>
                        </g>
                        <g transform="matrix(64,0,0,64,435.727,260.879)">
                            <path d="M0.515,-0l0,-0.05l-0.375,0l0.2,-0.195c0.035,-0.035 0.147,-0.13 0.147,-0.252c0,-0.123 -0.092,-0.203 -0.217,-0.203c-0.125,-0 -0.185,0.09 -0.21,0.145l0.04,0.025c0.02,-0.045 0.07,-0.122 0.17,-0.122c0.1,-0 0.162,0.067 0.162,0.157c-0,0.09 -0.072,0.165 -0.117,0.21l-0.25,0.245l0.01,0.04l0.44,-0Z" style="fill-rule:nonzero;"/>
                        </g>
                        <g transform="matrix(64,0,0,64,471.567,260.879)">
                            <path d="M0.505,-0.36c0,-0.159 -0.043,-0.34 -0.24,-0.34c-0.135,-0 -0.22,0.102 -0.22,0.232c-0,0.13 0.102,0.213 0.212,0.213c0.11,0 0.168,-0.065 0.195,-0.13c0,0.13 -0.025,0.22 -0.06,0.273c-0.035,0.052 -0.075,0.077 -0.145,0.077c-0.069,-0 -0.122,-0.027 -0.16,-0.062l-0.03,0.037c0.01,0.01 0.065,0.072 0.19,0.072c0.199,-0 0.258,-0.207 0.258,-0.372Zm-0.073,-0.118c0,0.09 -0.055,0.175 -0.167,0.175c-0.113,-0 -0.165,-0.085 -0.165,-0.175c0,-0.09 0.052,-0.175 0.165,-0.175c0.112,0 0.167,0.085 0.167,0.175Z" style="fill-rule:nonzero;"/>
                        </g>
                        <g transform="matrix(64,0,0,64,506.127,260.879)">
                            <path d="M0.2,-0.08l-0.06,0l-0.06,0.22l0.04,0l0.08,-0.22Z" style="fill-rule:nonzero;"/>
                        </g>
                        <g transform="matrix(64,0,0,64,537.167,260.879)">
                            <path d="M0.255,-0l0,-0.69l-0.195,0l0,0.045l0.142,0l0,0.645l0.053,-0Z" style="fill-rule:nonzero;"/>
                        </g>
                        <g transform="matrix(64,0,0,64,563.727,260.879)">
                            <path d="M0.495,-0.187c0,-0.118 -0.09,-0.168 -0.14,-0.175l0,-0.003c0.04,-0.01 0.12,-0.05 0.12,-0.16c0,-0.11 -0.095,-0.175 -0.2,-0.175c-0.105,0 -0.161,0.05 -0.205,0.105l0.035,0.03c0.04,-0.045 0.085,-0.087 0.165,-0.087c0.08,0 0.15,0.047 0.15,0.132c0,0.085 -0.06,0.133 -0.145,0.133l-0.045,0l0,0.052l0.045,0c0.09,0 0.165,0.05 0.165,0.148c0,0.097 -0.073,0.149 -0.178,0.149c-0.105,0 -0.167,-0.104 -0.167,-0.104l-0.04,0.032c0,0 0.067,0.12 0.205,0.12c0.137,0 0.235,-0.08 0.235,-0.197Z" style="fill-rule:nonzero;"/>
                        </g>
                        <g transform="matrix(64,0,0,64,599.567,260.879)">
                            <path d="M0.255,-0l0,-0.69l-0.195,0l0,0.045l0.142,0l0,0.645l0.053,-0Z" style="fill-rule:nonzero;"/>
                        </g>
                        <g transform="matrix(64,0,0,64,626.127,260.879)">
                            <path d="M0.2,-0.08l-0.06,0l-0.06,0.22l0.04,0l0.08,-0.22Z" style="fill-rule:nonzero;"/>
                        </g>
                        <g transform="matrix(64,0,0,64,657.167,260.879)">
                            <path d="M0.19,-0.037c0,-0.028 -0.02,-0.048 -0.048,-0.048c-0.027,-0 -0.047,0.02 -0.047,0.048c-0,0.027 0.02,0.047 0.047,0.047c0.028,-0 0.048,-0.02 0.048,-0.047Z" style="fill-rule:nonzero;"/>
                        </g>
                        <g transform="matrix(64,0,0,64,675.407,260.879)">
                            <path d="M0.19,-0.037c0,-0.028 -0.02,-0.048 -0.048,-0.048c-0.027,-0 -0.047,0.02 -0.047,0.048c-0,0.027 0.02,0.047 0.047,0.047c0.028,-0 0.048,-0.02 0.048,-0.047Z" style="fill-rule:nonzero;"/>
                        </g>
                        <g transform="matrix(64,0,0,64,693.647,260.879)">
                            <path d="M0.19,-0.037c0,-0.028 -0.02,-0.048 -0.048,-0.048c-0.027,-0 -0.047,0.02 -0.047,0.048c-0,0.027 0.02,0.047 0.047,0.047c0.028,-0 0.048,-0.02 0.048,-0.047Z" style="fill-rule:nonzero;"/>
                        </g>
                        <g transform="matrix(64,0,0,64,394.607,388.879)">
                            <path d="M0.19,-0.037c0,-0.028 -0.02,-0.048 -0.048,-0.048c-0.027,-0 -0.047,0.02 -0.047,0.048c-0,0.027 0.02,0.047 0.047,0.047c0.028,-0 0.048,-0.02 0.048,-0.047Z" style="fill-rule:nonzero;"/>
                        </g>
                        <g transform="matrix(64,0,0,64,412.847,388.879)">
                            <path d="M0.19,-0.037c0,-0.028 -0.02,-0.048 -0.048,-0.048c-0.027,-0 -0.047,0.02 -0.047,0.048c-0,0.027 0.02,0.047 0.047,0.047c0.028,-0 0.048,-0.02 0.048,-0.047Z" style="fill-rule:nonzero;"/>
                        </g>
                        <g transform="matrix(64,0,0,64,431.087,388.879)">
                            <path d="M0.19,-0.037c0,-0.028 -0.02,-0.048 -0.048,-0.048c-0.027,-0 -0.047,0.02 -0.047,0.048c-0,0.027 0.02,0.047 0.047,0.047c0.028,-0 0.048,-0.02 0.048,-0.047Z" style="fill-rule:nonzero;"/>
                        </g>
                        <g transform="matrix(64,0,0,64,449.327,388.879)">
                            <path d="M0.2,-0.08l-0.06,0l-0.06,0.22l0.04,0l0.08,-0.22Z" style="fill-rule:nonzero;"/>
                        </g>
                        <g transform="matrix(64,0,0,64,480.367,388.879)">
                            <path d="M0.515,-0l0,-0.05l-0.375,0l0.2,-0.195c0.035,-0.035 0.147,-0.13 0.147,-0.252c0,-0.123 -0.092,-0.203 -0.217,-0.203c-0.125,-0 -0.185,0.09 -0.21,0.145l0.04,0.025c0.02,-0.045 0.07,-0.122 0.17,-0.122c0.1,-0 0.162,0.067 0.162,0.157c-0,0.09 -0.072,0.165 -0.117,0.21l-0.25,0.245l0.01,0.04l0.44,-0Z" style="fill-rule:nonzero;"/>
                        </g>
                        <g transform="matrix(64,0,0,64,516.207,388.879)">
                            <path d="M0.495,-0.215c0,-0.145 -0.115,-0.225 -0.23,-0.225c-0.035,0 -0.073,0.005 -0.103,0.02l0.048,-0.222l0.27,0l-0,-0.048l-0.31,0l-0.065,0.315l0.035,0.02c0.025,-0.025 0.075,-0.037 0.12,-0.037c0.09,0 0.18,0.057 0.18,0.177c0,0.12 -0.09,0.178 -0.18,0.178c-0.09,0 -0.15,-0.048 -0.175,-0.098l-0.04,0.03c0.02,0.04 0.085,0.117 0.21,0.117c0.125,0 0.24,-0.082 0.24,-0.227Z" style="fill-rule:nonzero;"/>
                        </g>
                        <g transform="matrix(64,0,0,64,552.047,388.879)">
                            <path d="M0.495,-0.187c0,-0.118 -0.09,-0.168 -0.14,-0.175l0,-0.003c0.04,-0.01 0.12,-0.05 0.12,-0.16c0,-0.11 -0.095,-0.175 -0.2,-0.175c-0.105,0 -0.161,0.05 -0.205,0.105l0.035,0.03c0.04,-0.045 0.085,-0.087 0.165,-0.087c0.08,0 0.15,0.047 0.15,0.132c0,0.085 -0.06,0.133 -0.145,0.133l-0.045,0l0,0.052l0.045,0c0.09,0 0.165,0.05 0.165,0.148c0,0.097 -0.073,0.149 -0.178,0.149c-0.105,0 -0.167,-0.104 -0.167,-0.104l-0.04,0.032c0,0 0.067,0.12 0.205,0.12c0.137,0 0.235,-0.08 0.235,-0.197Z" style="fill-rule:nonzero;"/>
                        </g>
                        <g transform="matrix(64,0,0,64,587.887,388.879)">
                            <path d="M0.2,-0.08l-0.06,0l-0.06,0.22l0.04,0l0.08,-0.22Z" style="fill-rule:nonzero;"/>
                        </g>
                        <g transform="matrix(64,0,0,64,618.927,388.879)">
                            <path d="M0.515,-0l0,-0.05l-0.375,0l0.2,-0.195c0.035,-0.035 0.147,-0.13 0.147,-0.252c0,-0.123 -0.092,-0.203 -0.217,-0.203c-0.125,-0 -0.185,0.09 -0.21,0.145l0.04,0.025c0.02,-0.045 0.07,-0.122 0.17,-0.122c0.1,-0 0.162,0.067 0.162,0.157c-0,0.09 -0.072,0.165 -0.117,0.21l-0.25,0.245l0.01,0.04l0.44,-0Z" style="fill-rule:nonzero;"/>
                        </g>
                        <g transform="matrix(64,0,0,64,654.767,388.879)">
                            <path d="M0.495,-0.215c0,-0.145 -0.115,-0.225 -0.23,-0.225c-0.035,0 -0.073,0.005 -0.103,0.02l0.048,-0.222l0.27,0l-0,-0.048l-0.31,0l-0.065,0.315l0.035,0.02c0.025,-0.025 0.075,-0.037 0.12,-0.037c0.09,0 0.18,0.057 0.18,0.177c0,0.12 -0.09,0.178 -0.18,0.178c-0.09,0 -0.15,-0.048 -0.175,-0.098l-0.04,0.03c0.02,0.04 0.085,0.117 0.21,0.117c0.125,0 0.24,-0.082 0.24,-0.227Z" style="fill-rule:nonzero;"/>
                        </g>
                        <g transform="matrix(64,0,0,64,690.607,388.879)">
                            <path d="M0.495,-0.215c0,-0.145 -0.115,-0.225 -0.23,-0.225c-0.035,0 -0.073,0.005 -0.103,0.02l0.048,-0.222l0.27,0l-0,-0.048l-0.31,0l-0.065,0.315l0.035,0.02c0.025,-0.025 0.075,-0.037 0.12,-0.037c0.09,0 0.18,0.057 0.18,0.177c0,0.12 -0.09,0.178 -0.18,0.178c-0.09,0 -0.15,-0.048 -0.175,-0.098l-0.04,0.03c0.02,0.04 0.085,0.117 0.21,0.117c0.125,0 0.24,-0.082 0.24,-0.227Z" style="fill-rule:nonzero;"/>
                        </g>
                    </g>
                </g>
                <path d="M996.547,606.672c-0,-5.632 -5.568,-7.552 -9.28,-8.832c-3.648,-1.28 -6.848,-2.624 -6.848,-5.696c-0,-3.072 2.368,-4.736 5.696,-4.736c3.328,-0 5.376,1.152 7.424,3.392l2.048,-2.048c-2.304,-2.624 -4.992,-4.16 -9.344,-4.16c-4.352,-0 -9.024,2.56 -9.024,7.936c-0,5.376 5.568,7.296 8.128,8.192c2.56,0.896 7.872,2.24 7.872,6.08c-0,3.84 -3.264,5.632 -6.976,5.632c-3.712,-0 -6.656,-1.856 -8.576,-4.672l-2.368,1.92c1.856,3.072 5.312,5.76 10.816,5.76c5.504,-0 10.432,-3.2 10.432,-8.768Z" style="fill-rule:nonzero;"/>
                <path d="M1031.62,600.08c-0,-8.96 -6.72,-15.488 -15.232,-15.488c-8.448,-0 -15.168,6.528 -15.168,15.488c-0,8.96 6.72,15.36 15.168,15.36c8.512,-0 15.232,-6.4 15.232,-15.36Zm-3.52,-0.128c-0,6.848 -4.48,12.48 -11.712,12.48c-7.168,-0 -11.648,-5.632 -11.648,-12.48c-0,-6.912 4.48,-12.48 11.648,-12.48c7.232,-0 11.712,5.568 11.712,12.48Z" style="fill-rule:nonzero;"/>
                <path d="M1063.43,610.32l-1.92,-2.24c-0,-0 -3.2,4.352 -9.92,4.352c-6.72,-0 -11.328,-5.312 -11.328,-12.672c-0,-7.36 5.248,-12.16 11.2,-12.16c5.888,-0 8.448,2.88 9.728,4.352l2.112,-2.24c-0.64,-0.832 -3.84,-5.12 -11.712,-5.12c-7.808,-0 -14.848,6.208 -14.848,15.36c-0,9.088 6.528,15.488 14.528,15.488c8,-0 11.072,-3.84 12.16,-5.12Z" style="fill-rule:nonzero;"/>
                <path d="M1093.06,614.8l-14.08,-18.368l12.16,-11.328l-4.16,-0l-14.272,13.376l-0,-27.84l-3.328,-0l-0,44.16l3.328,-0l-0,-12.608l4.032,-3.712l12.16,16.32l4.16,-0Z" style="fill-rule:nonzero;"/>
                <path d="M1123.14,598.48c-0,-8 -5.632,-13.888 -13.44,-13.888c-7.872,-0 -14.4,6.208 -14.4,15.36c-0,9.088 5.568,15.488 14.208,15.488c8.64,-0 12.352,-4.48 12.352,-4.48l-1.6,-2.368c-0,-0 -3.712,3.84 -10.432,3.84c-6.72,-0 -10.688,-4.672 -11.008,-11.712l24.128,-0c-0,-0 0.192,-1.28 0.192,-2.24Zm-3.392,-0.64l-20.8,-0c0.192,-4.16 3.2,-10.368 10.56,-10.368c7.36,-0 10.24,6.528 10.24,10.368Z" style="fill-rule:nonzero;"/>
                <path d="M1142.34,614.48l-0.32,-2.88c-0,-0 -1.28,0.832 -3.2,0.832c-3.968,-0 -4.352,-3.904 -4.352,-7.168l-0,-17.024l7.552,-0l-0,-3.008l-7.488,-0l-0,-9.472l-3.392,-0l-0,9.472l-4.48,-0l-0,3.008l4.48,-0l-0,15.04c-0,4.8 0.064,6.976 1.088,8.96c1.088,1.984 2.752,3.2 5.632,3.2c1.92,-0 3.392,-0.32 4.48,-0.96Z" style="fill-rule:nonzero;"/>
                <path d="M1189.06,614.8l-0,-3.2l-24,-0l12.8,-12.48c2.24,-2.24 9.408,-8.32 9.408,-16.128c-0,-7.872 -5.888,-12.992 -13.888,-12.992c-8,-0 -11.84,5.76 -13.44,9.28l2.56,1.6c1.28,-2.88 4.48,-7.808 10.88,-7.808c6.4,-0 10.368,4.288 10.368,10.048c-0,5.76 -4.608,10.56 -7.488,13.44l-16,15.68l0.64,2.56l28.16,-0Z" style="fill-rule:nonzero;"/>
            </g>
            <g>
                <g>
                    <path d="M843.059,678c-0,-15.454 -17.924,-28 -40,-28l-320,0c-22.077,0 -40,12.546 -40,28l-0,224c-0,15.454 17.923,28 40,28l320,0c22.076,0 40,-12.546 40,-28l-0,-224Z" style="fill:none;stroke:rgb(137,194,212);stroke-width:7px;"/>
                    <g transform="matrix(1,0,0,1,81.0917,483.281)">
                        <g transform="matrix(64,0,0,64,404.527,260.879)">
                            <path d="M0.255,-0l0,-0.69l-0.195,0l0,0.045l0.142,0l0,0.645l0.053,-0Z" style="fill-rule:nonzero;"/>
                        </g>
                        <g transform="matrix(64,0,0,64,431.087,260.879)">
                            <path d="M0.515,-0l0,-0.05l-0.375,0l0.2,-0.195c0.035,-0.035 0.147,-0.13 0.147,-0.252c0,-0.123 -0.092,-0.203 -0.217,-0.203c-0.125,-0 -0.185,0.09 -0.21,0.145l0.04,0.025c0.02,-0.045 0.07,-0.122 0.17,-0.122c0.1,-0 0.162,0.067 0.162,0.157c-0,0.09 -0.072,0.165 -0.117,0.21l-0.25,0.245l0.01,0.04l0.44,-0Z" style="fill-rule:nonzero;"/>
                        </g>
                        <g transform="matrix(64,0,0,64,466.927,260.879)">
                            <path d="M0.5,-0.187c0,-0.09 -0.055,-0.153 -0.133,-0.178l0,-0.002c0.043,-0.018 0.11,-0.053 0.11,-0.16c0,-0.108 -0.092,-0.173 -0.197,-0.173c-0.105,0 -0.198,0.065 -0.198,0.173c0,0.107 0.068,0.142 0.11,0.16l0,0.002c-0.077,0.025 -0.132,0.088 -0.132,0.178c0,0.125 0.09,0.198 0.22,0.198c0.13,-0 0.22,-0.073 0.22,-0.198Zm-0.078,-0.334c0,0.085 -0.062,0.131 -0.142,0.131c-0.08,0 -0.143,-0.046 -0.143,-0.131c0,-0.085 0.063,-0.131 0.143,-0.131c0.08,0 0.142,0.046 0.142,0.131Zm0.023,0.331c0,0.095 -0.075,0.154 -0.165,0.154c-0.09,0 -0.165,-0.059 -0.165,-0.154c0,-0.095 0.07,-0.152 0.165,-0.152c0.095,-0 0.165,0.057 0.165,0.152Z" style="fill-rule:nonzero;"/>
                        </g>
                        <g transform="matrix(64,0,0,64,502.767,260.879)">
                            <path d="M0.2,-0.08l-0.06,0l-0.06,0.22l0.04,0l0.08,-0.22Z" style="fill-rule:nonzero;"/>
                        </g>
                        <g transform="matrix(64,0,0,64,533.807,260.879)">
                            <path d="M0.255,-0l0,-0.69l-0.195,0l0,0.045l0.142,0l0,0.645l0.053,-0Z" style="fill-rule:nonzero;"/>
                        </g>
                        <g transform="matrix(64,0,0,64,560.367,260.879)">
                            <path d="M0.495,-0.187c0,-0.118 -0.09,-0.168 -0.14,-0.175l0,-0.003c0.04,-0.01 0.12,-0.05 0.12,-0.16c0,-0.11 -0.095,-0.175 -0.2,-0.175c-0.105,0 -0.161,0.05 -0.205,0.105l0.035,0.03c0.04,-0.045 0.085,-0.087 0.165,-0.087c0.08,0 0.15,0.047 0.15,0.132c0,0.085 -0.06,0.133 -0.145,0.133l-0.045,0l0,0.052l0.045,0c0.09,0 0.165,0.05 0.165,0.148c0,0.097 -0.073,0.149 -0.178,0.149c-0.105,0 -0.167,-0.104 -0.167,-0.104l-0.04,0.032c0,0 0.067,0.12 0.205,0.12c0.137,0 0.235,-0.08 0.235,-0.197Z" style="fill-rule:nonzero;"/>
                        </g>
                        <g transform="matrix(64,0,0,64,596.207,260.879)">
                            <path d="M0.53,-0.344c0,-0.178 -0.075,-0.356 -0.25,-0.356c-0.174,-0 -0.25,0.178 -0.25,0.356c-0,0.177 0.075,0.355 0.25,0.355c0.175,-0 0.25,-0.178 0.25,-0.355Zm-0.058,-0.002c0,0.18 -0.067,0.307 -0.192,0.307c-0.125,-0 -0.193,-0.127 -0.193,-0.307c-0,-0.18 0.068,-0.307 0.193,-0.307c0.125,0 0.192,0.127 0.192,0.307Z" style="fill-rule:nonzero;"/>
                        </g>
                        <g transform="matrix(64,0,0,64,630.767,260.879)">
                            <path d="M0.2,-0.08l-0.06,0l-0.06,0.22l0.04,0l0.08,-0.22Z" style="fill-rule:nonzero;"/>
                        </g>
                        <g transform="matrix(64,0,0,64,661.807,260.879)">
                            <path d="M0.19,-0.037c0,-0.028 -0.02,-0.048 -0.048,-0.048c-0.027,-0 -0.047,0.02 -0.047,0.048c-0,0.027 0.02,0.047 0.047,0.047c0.028,-0 0.048,-0.02 0.048,-0.047Z" style="fill-rule:nonzero;"/>
                        </g>
                        <g transform="matrix(64,0,0,64,680.047,260.879)">
                            <path d="M0.19,-0.037c0,-0.028 -0.02,-0.048 -0.048,-0.048c-0.027,-0 -0.047,0.02 -0.047,0.048c-0,0.027 0.02,0.047 0.047,0.047c0.028,-0 0.048,-0.02 0.048,-0.047Z" style="fill-rule:nonzero;"/>
                        </g>
                        <g transform="matrix(64,0,0,64,698.287,260.879)">
                            <path d="M0.19,-0.037c0,-0.028 -0.02,-0.048 -0.048,-0.048c-0.027,-0 -0.047,0.02 -0.047,0.048c-0,0.027 0.02,0.047 0.047,0.047c0.028,-0 0.048,-0.02 0.048,-0.047Z" style="fill-rule:nonzero;"/>
                        </g>
                        <g transform="matrix(64,0,0,64,394.607,388.879)">
                            <path d="M0.19,-0.037c0,-0.028 -0.02,-0.048 -0.048,-0.048c-0.027,-0 -0.047,0.02 -0.047,0.048c-0,0.027 0.02,0.047 0.047,0.047c0.028,-0 0.048,-0.02 0.048,-0.047Z" style="fill-rule:nonzero;"/>
                        </g>
                        <g transform="matrix(64,0,0,64,412.847,388.879)">
                            <path d="M0.19,-0.037c0,-0.028 -0.02,-0.048 -0.048,-0.048c-0.027,-0 -0.047,0.02 -0.047,0.048c-0,0.027 0.02,0.047 0.047,0.047c0.028,-0 0.048,-0.02 0.048,-0.047Z" style="fill-rule:nonzero;"/>
                        </g>
                        <g transform="matrix(64,0,0,64,431.087,388.879)">
                            <path d="M0.19,-0.037c0,-0.028 -0.02,-0.048 -0.048,-0.048c-0.027,-0 -0.047,0.02 -0.047,0.048c-0,0.027 0.02,0.047 0.047,0.047c0.028,-0 0.048,-0.02 0.048,-0.047Z" style="fill-rule:nonzero;"/>
                        </g>
                        <g transform="matrix(64,0,0,64,449.327,388.879)">
                            <path d="M0.2,-0.08l-0.06,0l-0.06,0.22l0.04,0l0.08,-0.22Z" style="fill-rule:nonzero;"/>
                        </g>
                        <g transform="matrix(64,0,0,64,480.367,388.879)">
                            <path d="M0.515,-0l0,-0.05l-0.375,0l0.2,-0.195c0.035,-0.035 0.147,-0.13 0.147,-0.252c0,-0.123 -0.092,-0.203 -0.217,-0.203c-0.125,-0 -0.185,0.09 -0.21,0.145l0.04,0.025c0.02,-0.045 0.07,-0.122 0.17,-0.122c0.1,-0 0.162,0.067 0.162,0.157c-0,0.09 -0.072,0.165 -0.117,0.21l-0.25,0.245l0.01,0.04l0.44,-0Z" style="fill-rule:nonzero;"/>
                        </g>
                        <g transform="matrix(64,0,0,64,516.207,388.879)">
                            <path d="M0.495,-0.215c0,-0.145 -0.115,-0.225 -0.23,-0.225c-0.035,0 -0.073,0.005 -0.103,0.02l0.048,-0.222l0.27,0l-0,-0.048l-0.31,0l-0.065,0.315l0.035,0.02c0.025,-0.025 0.075,-0.037 0.12,-0.037c0.09,0 0.18,0.057 0.18,0.177c0,0.12 -0.09,0.178 -0.18,0.178c-0.09,0 -0.15,-0.048 -0.175,-0.098l-0.04,0.03c0.02,0.04 0.085,0.117 0.21,0.117c0.125,0 0.24,-0.082 0.24,-0.227Z" style="fill-rule:nonzero;"/>
                        </g>
                        <g transform="matrix(64,0,0,64,552.047,388.879)">
                            <path d="M0.515,-0l0,-0.05l-0.375,0l0.2,-0.195c0.035,-0.035 0.147,-0.13 0.147,-0.252c0,-0.123 -0.092,-0.203 -0.217,-0.203c-0.125,-0 -0.185,0.09 -0.21,0.145l0.04,0.025c0.02,-0.045 0.07,-0.122 0.17,-0.122c0.1,-0 0.162,0.067 0.162,0.157c-0,0.09 -0.072,0.165 -0.117,0.21l-0.25,0.245l0.01,0.04l0.44,-0Z" style="fill-rule:nonzero;"/>
                        </g>
                        <g transform="matrix(64,0,0,64,587.887,388.879)">
                            <path d="M0.2,-0.08l-0.06,0l-0.06,0.22l0.04,0l0.08,-0.22Z" style="fill-rule:nonzero;"/>
                        </g>
                        <g transform="matrix(64,0,0,64,618.927,388.879)">
                            <path d="M0.515,-0l0,-0.05l-0.375,0l0.2,-0.195c0.035,-0.035 0.147,-0.13 0.147,-0.252c0,-0.123 -0.092,-0.203 -0.217,-0.203c-0.125,-0 -0.185,0.09 -0.21,0.145l0.04,0.025c0.02,-0.045 0.07,-0.122 0.17,-0.122c0.1,-0 0.162,0.067 0.162,0.157c-0,0.09 -0.072,0.165 -0.117,0.21l-0.25,0.245l0.01,0.04l0.44,-0Z" style="fill-rule:nonzero;"/>
                        </g>
                        <g transform="matrix(64,0,0,64,654.767,388.879)">
                            <path d="M0.495,-0.215c0,-0.145 -0.115,-0.225 -0.23,-0.225c-0.035,0 -0.073,0.005 -0.103,0.02l0.048,-0.222l0.27,0l-0,-0.048l-0.31,0l-0.065,0.315l0.035,0.02c0.025,-0.025 0.075,-0.037 0.12,-0.037c0.09,0 0.18,0.057 0.18,0.177c0,0.12 -0.09,0.178 -0.18,0.178c-0.09,0 -0.15,-0.048 -0.175,-0.098l-0.04,0.03c0.02,0.04 0.085,0.117 0.21,0.117c0.125,0 0.24,-0.082 0.24,-0.227Z" style="fill-rule:nonzero;"/>
                        </g>
                        <g transform="matrix(64,0,0,64,690.607,388.879)">
                            <path d="M0.54,-0.16l0,-0.05l-0.106,0l-0,-0.485l-0.049,0l-0.36,0.495l-0,0.04l0.356,0l-0,0.16l0.053,0l-0,-0.16l0.106,0Zm-0.159,-0.05l-0.296,0l0.296,-0.405l0,0.405Z" style="fill-rule:nonzero;"/>
                        </g>
                    </g>
                </g>
                <path d="M565.307,606.232c-0,-5.632 -5.568,-7.552 -9.28,-8.832c-3.648,-1.28 -6.848,-2.624 -6.848,-5.696c-0,-3.072 2.368,-4.736 5.696,-4.736c3.328,-0 5.376,1.152 7.424,3.392l2.048,-2.048c-2.304,-2.624 -4.992,-4.16 -9.344,-4.16c-4.352,-0 -9.024,2.56 -9.024,7.936c-0,5.376 5.568,7.296 8.128,8.192c2.56,0.896 7.872,2.24 7.872,6.08c-0,3.84 -3.264,5.632 -6.976,5.632c-3.712,-0 -6.656,-1.856 -8.576,-4.672l-2.368,1.92c1.856,3.072 5.312,5.76 10.816,5.76c5.504,-0 10.432,-3.2 10.432,-8.768Z" style="fill-rule:nonzero;"/>
                <path d="M600.379,599.64c-0,-8.96 -6.72,-15.488 -15.232,-15.488c-8.448,-0 -15.168,6.528 -15.168,15.488c-0,8.96 6.72,15.36 15.168,15.36c8.512,-0 15.232,-6.4 15.232,-15.36Zm-3.52,-0.128c-0,6.848 -4.48,12.48 -11.712,12.48c-7.168,-0 -11.648,-5.632 -11.648,-12.48c-0,-6.912 4.48,-12.48 11.648,-12.48c7.232,-0 11.712,5.568 11.712,12.48Z" style="fill-rule:nonzero;"/>
                <path d="M632.187,609.88l-1.92,-2.24c-0,-0 -3.2,4.352 -9.92,4.352c-6.72,-0 -11.328,-5.312 -11.328,-12.672c-0,-7.36 5.248,-12.16 11.2,-12.16c5.888,-0 8.448,2.88 9.728,4.352l2.112,-2.24c-0.64,-0.832 -3.84,-5.12 -11.712,-5.12c-7.808,-0 -14.848,6.208 -14.848,15.36c-0,9.088 6.528,15.488 14.528,15.488c8,-0 11.072,-3.84 12.16,-5.12Z" style="fill-rule:nonzero;"/>
                <path d="M661.819,614.36l-14.08,-18.368l12.16,-11.328l-4.16,-0l-14.272,13.376l-0,-27.84l-3.328,-0l-0,44.16l3.328,-0l-0,-12.608l4.032,-3.712l12.16,16.32l4.16,-0Z" style="fill-rule:nonzero;"/>
                <path d="M691.899,598.04c-0,-8 -5.632,-13.888 -13.44,-13.888c-7.872,-0 -14.4,6.208 -14.4,15.36c-0,9.088 5.568,15.488 14.208,15.488c8.64,-0 12.352,-4.48 12.352,-4.48l-1.6,-2.368c-0,-0 -3.712,3.84 -10.432,3.84c-6.72,-0 -10.688,-4.672 -11.008,-11.712l24.128,-0c-0,-0 0.192,-1.28 0.192,-2.24Zm-3.392,-0.64l-20.8,-0c0.192,-4.16 3.2,-10.368 10.56,-10.368c7.36,-0 10.24,6.528 10.24,10.368Z" style="fill-rule:nonzero;"/>
                <path d="M711.099,614.04l-0.32,-2.88c-0,-0 -1.28,0.832 -3.2,0.832c-3.968,-0 -4.352,-3.904 -4.352,-7.168l-0,-17.024l7.552,-0l-0,-3.008l-7.488,-0l-0,-9.472l-3.392,-0l-0,9.472l-4.48,-0l-0,3.008l4.48,-0l-0,15.04c-0,4.8 0.064,6.976 1.088,8.96c1.088,1.984 2.752,3.2 5.632,3.2c1.92,-0 3.392,-0.32 4.48,-0.96Z" style="fill-rule:nonzero;"/>
                <path d="M741.179,614.36l-0,-44.16l-12.48,-0l-0,2.88l9.088,-0l-0,41.28l3.392,-0Z" style="fill-rule:nonzero;"/>
            </g>
        </g>
        <g>
            <g>
                <path d="M74.945,757.146l-18.35,10.596c-7.305,4.218 -7.008,11.237 0.661,15.665l157.499,90.934c7.67,4.428 19.827,4.6 27.132,0.382l105.881,-61.132c7.305,-4.217 7.008,-11.236 -0.662,-15.665l-16.241,-11.307" style="fill:white;stroke:black;stroke-width:10px;"/>
                <path d="M315.955,779.94l-126.347,-72.947c-7.67,-4.429 -19.827,-4.6 -27.132,-0.383l-75.554,43.623" style="fill:white;stroke:black;stroke-width:10px;"/>
                <path d="M50,737.108c0.072,2.871 2.067,2.915 5.952,5.158l157.498,90.933c7.67,4.429 19.828,4.6 27.133,0.382l105.881,-61.132c3.604,-2.08 5.358,-4.843 5.288,-7.64l0.002,-0.001l0,30.726l0,0c0,2.743 -1.755,5.44 -5.29,7.481l-105.881,61.132c-7.305,4.218 -19.463,4.047 -27.133,-0.382l-157.498,-90.933c-3.885,-2.243 -5.88,-5.152 -5.952,-8.024l0,-27.7Z" style="fill:rgb(137,194,212);"/>
                <path d="M188.304,656.299c-7.67,-4.428 -19.828,-4.6 -27.132,-0.382l-105.882,61.132c-7.304,4.217 -7.008,11.236 0.662,15.665l157.498,90.933c7.67,4.429 19.828,4.6 27.133,0.383l105.881,-61.132c7.304,-4.218 7.008,-11.237 -0.662,-15.665l-157.498,-90.934Z" style="fill:white;stroke:black;stroke-width:10px;"/>
                <g>
                    <path d="M333.745,790.209c2.429,-1.402 4.401,-0.264 4.401,2.541c-0,2.805 -1.972,6.221 -4.401,7.623c-2.429,1.402 -4.401,0.264 -4.401,-2.541c-0,-2.805 1.972,-6.22 4.401,-7.623Z" style="fill:white;"/>
                    <path d="M319.516,798.424c2.429,-1.402 4.401,-0.263 4.401,2.541c-0,2.805 -1.972,6.221 -4.401,7.623c-2.429,1.403 -4.401,0.264 -4.401,-2.541c-0,-2.804 1.972,-6.22 4.401,-7.623Z" style="fill:white;"/>
                    <path d="M306.306,811.133l-57.593,33.252" style="fill:none;stroke:white;stroke-width:10px;"/>
                </g>
            </g>
            <path d="M149.133,627.022l0,-44.16l-3.456,0l0,38.08l-29.12,-38.08l-3.456,0l0,44.16l3.456,0l0,-38.72l29.44,38.72l3.136,0Z" style="fill-rule:nonzero;"/>
            <path d="M187.533,612.302c0,-8.96 -6.72,-15.488 -15.232,-15.488c-8.448,0 -15.168,6.528 -15.168,15.488c0,8.96 6.72,15.36 15.168,15.36c8.512,0 15.232,-6.4 15.232,-15.36Zm-3.52,-0.128c0,6.848 -4.48,12.48 -11.712,12.48c-7.168,0 -11.648,-5.632 -11.648,-12.48c0,-6.912 4.48,-12.48 11.648,-12.48c7.232,0 11.712,5.568 11.712,12.48Z" style="fill-rule:nonzero;"/>
            <path d="M192.653,612.174c0,8.768 5.76,15.488 14.72,15.488c4.48,0 8.512,-1.92 11.008,-6.144l0,5.504l3.392,0l0,-44.16l-3.392,0l0,20.032c-2.88,-4.352 -6.848,-6.08 -11.136,-6.08c-8.832,0 -14.592,6.528 -14.592,15.36Zm3.52,0c0,-6.912 4.032,-12.48 11.2,-12.48c7.232,0 11.2,5.568 11.2,12.48c0,6.848 -3.968,12.48 -11.2,12.48c-7.168,0 -11.2,-5.632 -11.2,-12.48Z" style="fill-rule:nonzero;"/>
            <path d="M257.293,610.702c0,-8 -5.632,-13.888 -13.44,-13.888c-7.872,0 -14.4,6.208 -14.4,15.36c0,9.088 5.568,15.488 14.208,15.488c8.64,0 12.352,-4.48 12.352,-4.48l-1.6,-2.368c0,0 -3.712,3.84 -10.432,3.84c-6.72,0 -10.688,-4.672 -11.008,-11.712l24.128,0c0,0 0.192,-1.28 0.192,-2.24Zm-3.392,-0.64l-20.8,0c0.192,-4.16 3.2,-10.368 10.56,-10.368c7.36,0 10.24,6.528 10.24,10.368Z" style="fill-rule:nonzero;"/>
            <path d="M305.293,627.022l0,-3.2l-24,0l12.8,-12.48c2.24,-2.24 9.408,-8.32 9.408,-16.128c0,-7.872 -5.888,-12.992 -13.888,-12.992c-8,0 -11.84,5.76 -13.44,9.28l2.56,1.6c1.28,-2.88 4.48,-7.808 10.88,-7.808c6.4,0 10.368,4.288 10.368,10.048c0,5.76 -4.608,10.56 -7.488,13.44l-16,15.68l0.64,2.56l28.16,0Z" style="fill-rule:nonzero;"/>
        </g>
    </g>
</svg>
