<svg viewBox="0 0 782 686" xmlns="http://www.w3.org/2000/svg" fill-rule="evenodd" clip-rule="evenodd" stroke-linejoin="round" stroke-miterlimit="2"><path d="M369.66 187.63v-43.42a8.83 8.83 0 1117.65 0v43.42l29.8-23.83a8.78 8.78 0 015.48-1.94h.11a8.83 8.83 0 015.44 15.73l-40.83 32.65v30.36l29.8-23.84a8.83 8.83 0 1111.03 13.79l-40.83 32.66v63.11l61.8-61.96v-40.7a8.83 8.83 0 1117.65 0v23l17.66-17.71v-40.6a8.83 8.83 0 1117.65 0v22.9l28-28.08a8.83 8.83 0 0112.48 12.48l-27.93 28h22.76a8.83 8.83 0 110 17.66h-40.36l-17.6 17.65h22.65a8.83 8.83 0 110 17.66H461.8l-61.62 61.8h62.34l32.66-40.83a8.82 8.82 0 1113.78 11.03l-23.83 29.8h30.35l32.67-40.83a8.82 8.82 0 1113.78 11.03l-23.84 29.8h43.43a8.83 8.83 0 110 17.65h-43.43l23.84 29.8a8.83 8.83 0 11-13.78 11.03l-32.67-40.83h-30.35l23.83 29.8a8.83 8.83 0 11-13.78 11.03l-32.66-40.83h-60.6l61.74 61.8h38.41a8.83 8.83 0 110 17.65h-21.2l17.2 17.65h39.31a8.83 8.83 0 110 17.66h-22.1l27.35 28.08A8.83 8.83 0 11530 511.23l-27.92-28.65v23.56a8.83 8.83 0 11-17.66 0v-41.68l-17.65-18.12v24.49a8.83 8.83 0 11-17.66 0v-42.6l-61.79-61.78v64.83l40.83 32.65a8.83 8.83 0 11-11.03 13.8l-29.8-23.84v30.35l40.83 32.66a8.83 8.83 0 11-11.03 13.79l-29.8-23.84v43.43a8.83 8.83 0 11-17.65 0v-43.43l-29.8 23.84a8.8 8.8 0 01-12.4-1.38 8.83 8.83 0 011.37-12.41l40.83-32.66V453.9l-29.8 23.83a8.8 8.8 0 01-12.4-1.38 8.83 8.83 0 011.37-12.4l40.83-32.66v-39.9-.07-22.29l-61.8 61.32v40.49a8.83 8.83 0 11-17.65 0V448l-17.66 17.65v40.49a8.83 8.83 0 11-17.65 0V483.3l-28 28a8.8 8.8 0 01-12.48 0 8.82 8.82 0 010-12.48l28-28h-22.83a8.83 8.83 0 110-17.66h40.48l17.65-17.65H254.9a8.83 8.83 0 110-17.66h40.48l62.26-61.79h-63.19l-32.66 40.83A8.82 8.82 0 11248 385.86l23.83-29.79H241.5l-32.67 40.83a8.82 8.82 0 01-6.83 3.3h-.06a8.83 8.83 0 01-6.89-14.34l23.84-29.79h-43.43a8.83 8.83 0 110-17.66h43.43l-23.84-29.79a8.83 8.83 0 016.8-14.35h.11a8.8 8.8 0 016.87 3.32l32.66 40.82h30.36l-23.83-29.79a8.83 8.83 0 1113.78-11.03l32.66 40.82h64.48l-62.55-61.79H254.9a8.83 8.83 0 110-17.66h23.6l-17.86-17.65h-41.05a8.83 8.83 0 110-17.66h23.17l-28.34-28a8.82 8.82 0 1112.48-12.48l28 27.66v-22.49a8.83 8.83 0 1117.65 0v39.93l17.66 17.44v-22.06a8.83 8.83 0 1117.65 0v39.5l61.8 61.05v-61l-40.83-32.65a8.83 8.83 0 1111.03-13.79l29.8 23.84v-30.36l-40.83-32.66a8.83 8.83 0 015.55-15.72h.05c1.91.02 3.83.65 5.43 1.93l29.8 23.84z" fill="none" stroke="#89c2d4" stroke-width="3"/><path d="M117.38 148.16h4.28v13.65h8.2v3.29h-12.48v-16.94zM130.99 148.16h4.25v9.16c0 1.37.33 2.43 1 3.22.65.8 1.66 1.2 3 1.2 1.64 0 2.77-.43 3.39-1.32.5-.72.77-1.94.77-3.65v-8.61h4.3v9.72c0 2.5-.8 4.39-2.36 5.7-1.46 1.23-3.48 1.86-6.02 1.86a9.7 9.7 0 01-5.33-1.42 6.17 6.17 0 01-2.9-4.51l-.08-.87c-.02-.33-.02-.64-.02-.96v-9.52zM150.4 148.16h3.63l4.92 6.57 4.94-6.57h3.56v16.94h-4.18v-7c0-.58 0-1 .02-1.23l.22-2.14c-.53.87-1.2 1.83-2 2.86-.98 1.22-1.7 2.16-2.15 2.76h-.84c-.89-1.13-1.63-2.09-2.23-2.88a18.95 18.95 0 01-1.9-2.74c0 .5.02 1.35.1 2.47.07 1.13.1 1.88.1 2.21v5.69h-4.18v-16.94zM170.98 148.06h4.08v17.04h-4.08zM176.76 157.18h7.44v3.84h-7.44zM200.61 153.36a50.55 50.55 0 00-2.7-1.3c-1.04-.4-2-.6-2.94-.6-1.6 0-2.95.51-4.03 1.5a4.91 4.91 0 00-1.6 3.86c0 1.49.55 2.69 1.65 3.58a5.92 5.92 0 003.84 1.27c.8 0 1.58-.12 2.38-.36a18 18 0 003.6-1.73l-.03 3.96a18.3 18.3 0 01-3.17 1.4c-1.08.33-2.23.5-3.43.5-2.5 0-4.65-.77-6.45-2.28a7.64 7.64 0 01-2.86-6.1c0-2.78.91-5.02 2.71-6.72a9.73 9.73 0 016.91-2.52c2.1 0 4.13.55 6.12 1.66v3.88zM150.97 189.1l-4.56-5.88 4-5.26h-1.36l-3.36 4.5-3.36-4.5h-1.4l4.04 5.26-4.56 5.88h1.44l3.84-5.09 3.84 5.1h1.44zM163.1 184.61a4.35 4.35 0 00-3.2-4.27v-.05c1.03-.43 2.64-1.27 2.64-3.84 0-2.59-2.2-4.15-4.73-4.15-2.52 0-4.75 1.56-4.75 4.15 0 2.57 1.63 3.41 2.64 3.84v.05a4.36 4.36 0 00-3.17 4.27c0 3 2.16 4.75 5.28 4.75s5.28-1.75 5.28-4.75zm-1.88-8.01c0 2.04-1.49 3.14-3.4 3.14-1.93 0-3.44-1.1-3.44-3.14s1.51-3.15 3.43-3.15c1.92 0 3.41 1.1 3.41 3.15zm.55 7.94c0 2.28-1.8 3.7-3.96 3.7s-3.96-1.42-3.96-3.7c0-2.28 1.68-3.65 3.96-3.65 2.28 0 3.96 1.37 3.96 3.65zM176.9 183.82a5.04 5.04 0 00-5.12-5.11c-2.64 0-4 1.51-4.68 3.07 0-3.31.7-8.4 5-8.4 1.67 0 2.75.72 3.64 1.56l.72-.89s-1.37-1.75-4.32-1.75c-4.82 0-6.29 4.85-6.29 8.88 0 3.82 1.01 8.2 5.76 8.2 3.24 0 5.28-2.44 5.28-5.56zm-1.33.22c0 2.16-1.27 4.2-3.96 4.2-2.7 0-4.03-2.04-4.03-4.2s1.32-4.2 4.03-4.2c2.7 0 3.96 2.04 3.96 4.2zM130.51 200.96c0-1.44-.55-2.43-1.51-3.27-.96-.84-2.26-1.15-3.82-1.15h-3.79v16.56h1.3v-7.73h2.5c1.55 0 2.85-.3 3.81-1.15a4.05 4.05 0 001.51-3.26zm-1.37 0c0 2.35-1.82 3.24-3.9 3.24h-2.55v-6.48h2.54c2.09 0 3.91.89 3.91 3.24zM140.95 213.1v-6.6c0-2.95-1.34-4.73-4.44-4.73-1.68 0-3 .65-3.72 1.13l.48.91c.24-.19 1.56-.96 3.29-.96 1.75 0 3.12 1.01 3.12 3.05v.6l-3.05.12c-3 .12-4.44 1.44-4.44 3.36s1.56 3.36 3.72 3.36a4.84 4.84 0 003.77-1.8v1.56h1.27zm-1.27-5.64v2.76a4.26 4.26 0 01-3.53 2.04c-1.8 0-2.71-1.08-2.71-2.28 0-1.2.74-2.2 3.07-2.33l3.17-.19zM149.47 203.17l.12-1.23s-.48-.17-1.2-.17c-1.2 0-2.42.77-2.83 2.28v-2.08h-1.25v11.13h1.25v-6c0-1.7.57-4.13 2.71-4.13.6 0 .94.1 1.2.2zM156.07 212.98l-.12-1.08s-.48.31-1.2.31c-1.49 0-1.63-1.46-1.63-2.68v-6.39h2.83v-1.13h-2.8v-3.55h-1.28v3.55h-1.68v1.13h1.68v5.64c0 1.8.02 2.62.4 3.36.42.75 1.04 1.2 2.12 1.2a3.3 3.3 0 001.68-.36zM160 198a1.02 1.02 0 10-2.06 0c0 .58.46 1.04 1.04 1.04.57 0 1.03-.46 1.03-1.03zm-.4 15.1v-11.13h-1.25v11.13h1.25zM167.88 212.98l-.12-1.08s-.48.31-1.2.31c-1.49 0-1.63-1.46-1.63-2.68v-6.39h2.83v-1.13h-2.81v-3.55h-1.27v3.55H162v1.13h1.68v5.64c0 1.8.02 2.62.4 3.36.41.75 1.04 1.2 2.12 1.2a3.3 3.3 0 001.68-.36zM171.82 198c0-.57-.46-1.03-1.04-1.03-.57 0-1.03.46-1.03 1.04 0 .57.46 1.03 1.03 1.03.58 0 1.04-.46 1.04-1.03zm-.41 15.1v-11.13h-1.25v11.13h1.25zM185.69 207.58c0-3.36-2.52-5.8-5.72-5.8a5.64 5.64 0 00-5.68 5.8 5.6 5.6 0 005.68 5.76 5.6 5.6 0 005.72-5.76zm-1.32-.05c0 2.57-1.68 4.68-4.4 4.68-2.68 0-4.36-2.1-4.36-4.68 0-2.59 1.68-4.68 4.36-4.68 2.72 0 4.4 2.1 4.4 4.68zM197.23 213.1v-6.65c0-2.64-.74-4.68-3.94-4.68a3.9 3.9 0 00-3.6 2.26v-2.06h-1.24v11.13h1.24v-5.52c0-2.64 1.16-4.73 3.56-4.73 2.4 0 2.7 1.85 2.7 3.65v6.6h1.28z" fill-rule="nonzero"/><g><path d="M635.17 309.5h4.28v13.65h8.2v3.29h-12.48V309.5zM648.78 309.5h4.25v9.16c0 1.37.34 2.43 1 3.22.66.8 1.66 1.2 3 1.2 1.64 0 2.77-.43 3.4-1.32.5-.72.76-1.94.76-3.65v-8.61h4.3v9.72c0 2.5-.8 4.39-2.36 5.7-1.46 1.23-3.48 1.86-6.02 1.86a9.7 9.7 0 01-5.33-1.42 6.17 6.17 0 01-2.9-4.51c-.03-.24-.05-.53-.07-.87-.03-.33-.03-.64-.03-.96v-9.52zM668.2 309.5h3.62l4.92 6.57 4.95-6.57h3.55v16.94h-4.18v-7c0-.58 0-1 .03-1.23l.21-2.14c-.53.87-1.2 1.83-1.99 2.86-.98 1.22-1.7 2.16-2.16 2.76h-.84c-.89-1.13-1.63-2.09-2.23-2.88a18.95 18.95 0 01-1.9-2.74c0 .5.03 1.35.1 2.47.07 1.13.1 1.88.1 2.21v5.69h-4.18V309.5zM688.76 309.4h4.08v17.04h-4.08zM694.55 318.52H702v3.84h-7.44zM703.79 309.5h11.1v3.26h-6.85v3.38h6.76v3.24h-6.76v7.06h-4.25V309.5zM631.18 350.44l-7.08-16.6h-.72l-7.08 16.6h1.36l2.07-4.97h7.9l2.03 4.97h1.52zm-4.06-6.17h-6.91l3.45-8.47 3.46 8.47zM642.03 348.76l-.72-.84s-1.2 1.63-3.72 1.63c-2.52 0-4.25-1.99-4.25-4.75s1.97-4.56 4.2-4.56c2.2 0 3.17 1.08 3.65 1.63l.79-.84c-.24-.3-1.44-1.92-4.4-1.92a5.6 5.6 0 00-5.56 5.76c0 3.41 2.45 5.81 5.45 5.81s4.15-1.44 4.56-1.92zM653.3 348.76l-.71-.84s-1.2 1.63-3.72 1.63c-2.52 0-4.25-1.99-4.25-4.75s1.97-4.56 4.2-4.56c2.2 0 3.17 1.08 3.65 1.63l.79-.84c-.24-.3-1.44-1.92-4.4-1.92a5.6 5.6 0 00-5.56 5.76c0 3.41 2.45 5.81 5.45 5.81s4.15-1.44 4.56-1.92zM665.02 344.32c0-3-2.11-5.2-5.04-5.2-2.95 0-5.4 2.32-5.4 5.75 0 3.41 2.09 5.81 5.33 5.81s4.63-1.68 4.63-1.68l-.6-.89s-1.4 1.44-3.91 1.44c-2.52 0-4.01-1.75-4.13-4.39h9.05s.07-.48.07-.84zm-1.27-.24h-7.8c.07-1.56 1.2-3.89 3.96-3.89s3.84 2.45 3.84 3.9zM667.78 333.88h1.2v16.56h-1.2zM682.34 344.32c0-3-2.1-5.2-5.04-5.2-2.95 0-5.4 2.32-5.4 5.75 0 3.41 2.1 5.81 5.33 5.81 3.24 0 4.63-1.68 4.63-1.68l-.6-.89s-1.39 1.44-3.9 1.44c-2.53 0-4.02-1.75-4.14-4.39h9.05s.07-.48.07-.84zm-1.27-.24h-7.8c.07-1.56 1.2-3.89 3.96-3.89s3.84 2.45 3.84 3.9zM690.14 340.5l.12-1.22s-.48-.17-1.2-.17c-1.2 0-2.42.77-2.83 2.28v-2.09h-1.25v11.14h1.25v-6c0-1.7.58-4.13 2.71-4.13.6 0 .94.1 1.2.2zM699.39 350.44v-6.6c0-2.95-1.35-4.73-4.44-4.73-1.68 0-3 .65-3.72 1.13l.48.91c.24-.19 1.56-.96 3.28-.96 1.76 0 3.12 1.01 3.12 3.05v.6l-3.04.12c-3 .12-4.44 1.44-4.44 3.36s1.56 3.36 3.72 3.36a4.84 4.84 0 003.76-1.8v1.56h1.28zm-1.28-5.64v2.76a4.26 4.26 0 01-3.52 2.04c-1.8 0-2.72-1.08-2.72-2.28 0-1.2.75-2.2 3.08-2.33l3.16-.19zM707.3 350.32l-.12-1.08s-.48.31-1.2.31c-1.48 0-1.63-1.46-1.63-2.69v-6.38h2.83v-1.13h-2.8v-3.55h-1.28v3.55h-1.68v1.13h1.68v5.64c0 1.8.03 2.62.41 3.36.41.74 1.03 1.2 2.11 1.2a3.3 3.3 0 001.68-.36zM719.07 344.32c0-3-2.12-5.2-5.04-5.2-2.96 0-5.4 2.32-5.4 5.75 0 3.41 2.08 5.81 5.32 5.81s4.64-1.68 4.64-1.68l-.6-.89s-1.4 1.44-3.92 1.44-4-1.75-4.12-4.39h9.04s.08-.48.08-.84zm-1.28-.24H710c.08-1.56 1.2-3.89 3.96-3.89s3.84 2.45 3.84 3.9zM720.99 344.87c0 3.3 2.16 5.81 5.52 5.81a4.6 4.6 0 004.12-2.3v2.06h1.28v-16.56h-1.28v7.51a4.78 4.78 0 00-4.17-2.28c-3.31 0-5.47 2.45-5.47 5.76zm1.32 0c0-2.59 1.5-4.68 4.2-4.68s4.2 2.1 4.2 4.68c0 2.57-1.5 4.68-4.2 4.68s-4.2-2.1-4.2-4.68zM648.33 370.12c0-2.52-2.02-3.62-2.4-3.84-.39-.21-2.23-.98-3.41-1.49-1.18-.5-2.47-1.24-2.47-3.12 0-1.87 1.53-2.88 3.45-2.88 1.92 0 2.88 1.01 3.5 1.8l.92-.79a5.22 5.22 0 00-4.32-2.16c-2.78 0-4.87 1.68-4.87 4.08a4.3 4.3 0 002.4 3.84c.67.36 1.75.82 2.7 1.2.97.39 3.18 1.2 3.18 3.36s-1.73 3.48-3.87 3.48a4.87 4.87 0 01-4.17-2.57l-1.01.72a5.7 5.7 0 005.06 2.98c3.22 0 5.3-2.09 5.3-4.6zM655.77 374.32l-.12-1.08s-.48.31-1.2.31c-1.5 0-1.64-1.46-1.64-2.68v-6.39h2.84v-1.13h-2.81v-3.55h-1.27v3.55h-1.68v1.13h1.68v5.64c0 1.8.02 2.62.4 3.36.41.75 1.04 1.2 2.12 1.2a3.3 3.3 0 001.68-.36zM668.48 368.92c0-3.36-2.52-5.8-5.7-5.8a5.64 5.64 0 00-5.7 5.8 5.6 5.6 0 005.7 5.76 5.6 5.6 0 005.7-5.76zm-1.32-.05c0 2.57-1.68 4.68-4.39 4.68-2.69 0-4.37-2.1-4.37-4.68 0-2.59 1.68-4.68 4.37-4.68 2.71 0 4.4 2.1 4.4 4.68zM676.4 364.5l.13-1.22s-.48-.17-1.2-.17c-1.2 0-2.43.77-2.84 2.28v-2.08h-1.24v11.13h1.24v-6c0-1.7.58-4.13 2.72-4.13.6 0 .93.1 1.2.2zM685.64 374.44v-6.6c0-2.95-1.34-4.73-4.44-4.73-1.68 0-3 .65-3.72 1.13l.48.91c.24-.19 1.56-.96 3.3-.96 1.74 0 3.11 1.01 3.11 3.05v.6l-3.05.12c-3 .12-4.44 1.44-4.44 3.36s1.56 3.36 3.72 3.36a4.84 4.84 0 003.77-1.8v1.56h1.27zm-1.27-5.64v2.76a4.26 4.26 0 01-3.53 2.04c-1.8 0-2.7-1.08-2.7-2.28 0-1.2.74-2.2 3.06-2.33l3.17-.19zM699.08 372.04v-8.73h-1.27v2.1a4.66 4.66 0 00-4.2-2.3c-2.93 0-5.45 2.19-5.45 5.67s2.52 5.66 5.45 5.66c2 0 3.39-.93 4.2-2.37v.81c0 2.93-1.03 5.23-4.32 5.23-1.8 0-3.48-.9-4.08-1.5l-.72.95s1.8 1.68 4.68 1.68 4.2-1.44 4.8-2.4c.6-.96.91-2.28.91-4.8zm-1.2-3.29c0 2.52-1.44 4.56-4.2 4.56-2.76 0-4.2-2.04-4.2-4.56 0-2.52 1.44-4.53 4.2-4.53 2.76 0 4.2 2.01 4.2 4.53zM712.28 368.32c0-3-2.1-5.2-5.04-5.2-2.95 0-5.4 2.32-5.4 5.75 0 3.41 2.1 5.81 5.33 5.81 3.24 0 4.63-1.68 4.63-1.68l-.6-.89s-1.39 1.44-3.9 1.44c-2.53 0-4.02-1.75-4.14-4.39h9.05s.07-.48.07-.84zm-1.27-.24h-7.8c.07-1.56 1.2-3.89 3.96-3.89s3.84 2.45 3.84 3.9z" fill-rule="nonzero"/></g><g><path d="M564.66 475.53h4.27v13.65h8.2v3.29h-12.47v-16.94zM578.26 475.53h4.25v9.16c0 1.37.34 2.43 1 3.22.66.8 1.66 1.2 3 1.2 1.64 0 2.77-.43 3.4-1.32.5-.72.76-1.94.76-3.65v-8.61h4.3v9.72c0 2.5-.8 4.39-2.36 5.7-1.46 1.23-3.48 1.86-6.02 1.86a9.7 9.7 0 01-5.33-1.42 6.17 6.17 0 01-2.9-4.51c-.03-.24-.05-.53-.07-.87-.03-.33-.03-.64-.03-.96v-9.52zM597.68 475.53h3.62l4.92 6.57 4.95-6.57h3.55v16.94h-4.18v-7c0-.58 0-1 .03-1.23l.21-2.14c-.53.87-1.2 1.83-1.99 2.86-.98 1.22-1.7 2.16-2.16 2.76h-.84c-.89-1.13-1.63-2.09-2.23-2.88a18.95 18.95 0 01-1.9-2.74c0 .5.03 1.35.1 2.47.07 1.13.1 1.88.1 2.21v5.69h-4.18v-16.94zM618.25 475.43h4.08v17.04h-4.08zM624.03 484.55h7.44v3.84h-7.44zM633.25 475.53H640c1.61 0 2.93.45 3.92 1.34 1 .89 1.5 2.14 1.5 3.74 0 2.19-.83 3.68-2.54 4.42-1.08.48-2.88.72-5.4.72v6.72h-4.24v-16.94zm6 6.86c.48 0 .88-.17 1.24-.5.36-.32.56-.72.56-1.2 0-.7-.2-1.18-.6-1.47-.41-.26-.96-.4-1.66-.4l-1.3.02v3.55h1.76zM585.43 516.47v-1.18h-5.9v-15.38h-1.3v16.56h7.2zM596.04 516.47v-11.14h-1.25v5.98c0 2.16-.96 4.32-3.43 4.32-2.45 0-2.76-1.8-2.76-3.48v-6.82h-1.25v6.63c0 2.73.77 4.75 3.84 4.75 1.56 0 2.88-.72 3.6-2.04v1.8h1.25zM606.4 513.42c0-2.1-2.08-2.83-3.48-3.3-1.36-.49-2.56-1-2.56-2.15s.88-1.77 2.13-1.77 2.02.43 2.79 1.27l.76-.77a4.26 4.26 0 00-3.5-1.56c-1.63 0-3.38.96-3.38 2.98 0 2.01 2.08 2.73 3.04 3.07.96.34 2.96.84 2.96 2.28s-1.23 2.11-2.62 2.11c-1.4 0-2.5-.7-3.22-1.75l-.88.72a4.5 4.5 0 004.05 2.16c2.07 0 3.91-1.2 3.91-3.29zM613.56 516.35l-.12-1.08s-.48.31-1.2.31c-1.5 0-1.64-1.46-1.64-2.69v-6.38h2.84v-1.13h-2.81v-3.55h-1.27v3.55h-1.68v1.13h1.68v5.64c0 1.8.02 2.62.4 3.36.41.74 1.04 1.2 2.12 1.2a3.3 3.3 0 001.68-.36zM620.88 506.53l.12-1.22s-.48-.17-1.2-.17c-1.2 0-2.43.77-2.84 2.28v-2.09h-1.24v11.14h1.24v-6c0-1.7.58-4.13 2.72-4.13.6 0 .93.1 1.2.2zM632.4 510.35c0-3-2.12-5.2-5.04-5.2-2.96 0-5.4 2.32-5.4 5.75 0 3.41 2.08 5.81 5.32 5.81s4.64-1.68 4.64-1.68l-.6-.89s-1.4 1.44-3.92 1.44-4-1.75-4.12-4.39h9.04s.08-.48.08-.84zm-1.28-.24h-7.8c.08-1.56 1.2-3.89 3.96-3.89s3.84 2.45 3.84 3.9zM578.04 536.15c0-2.52-2.02-3.62-2.4-3.84-.39-.21-2.23-.98-3.41-1.49-1.18-.5-2.47-1.24-2.47-3.12 0-1.87 1.53-2.88 3.45-2.88 1.92 0 2.88 1.01 3.5 1.8l.92-.79a5.22 5.22 0 00-4.32-2.16c-2.78 0-4.87 1.68-4.87 4.08a4.3 4.3 0 002.4 3.84c.67.36 1.75.82 2.7 1.2.97.39 3.18 1.2 3.18 3.36s-1.73 3.48-3.87 3.48a4.87 4.87 0 01-4.17-2.57l-1.01.72a5.7 5.7 0 005.06 2.98c3.22 0 5.3-2.09 5.3-4.6zM585.48 540.35l-.12-1.08s-.48.31-1.2.31c-1.5 0-1.64-1.46-1.64-2.68v-6.39h2.84v-1.13h-2.81v-3.55h-1.27v3.55h-1.68v1.13h1.68v5.64c0 1.8.02 2.62.4 3.36.41.75 1.04 1.2 2.12 1.2a3.3 3.3 0 001.68-.36zM598.2 534.95c0-3.36-2.53-5.8-5.72-5.8a5.64 5.64 0 00-5.69 5.8 5.6 5.6 0 005.7 5.76 5.6 5.6 0 005.7-5.76zm-1.33-.05c0 2.57-1.68 4.68-4.39 4.68-2.69 0-4.37-2.1-4.37-4.68 0-2.59 1.68-4.68 4.37-4.68 2.71 0 4.4 2.1 4.4 4.68zM606.12 530.54l.12-1.23s-.48-.17-1.2-.17c-1.2 0-2.43.77-2.84 2.28v-2.08h-1.24v11.13h1.24v-6c0-1.7.58-4.13 2.72-4.13.6 0 .93.1 1.2.2zM615.35 540.47v-6.6c0-2.95-1.34-4.73-4.44-4.73-1.68 0-3 .65-3.72 1.13l.48.91c.24-.19 1.56-.96 3.3-.96 1.74 0 3.11 1.01 3.11 3.05v.6l-3.05.12c-3 .12-4.44 1.44-4.44 3.36s1.56 3.36 3.72 3.36a4.84 4.84 0 003.77-1.8v1.56h1.27zm-1.27-5.64v2.76a4.26 4.26 0 01-3.53 2.04c-1.8 0-2.7-1.08-2.7-2.28 0-1.2.74-2.2 3.06-2.33l3.17-.19zM628.8 538.07v-8.73h-1.28v2.1a4.66 4.66 0 00-4.2-2.3c-2.93 0-5.45 2.19-5.45 5.67s2.52 5.66 5.45 5.66c2 0 3.39-.93 4.2-2.37v.81c0 2.93-1.03 5.23-4.32 5.23-1.8 0-3.48-.9-4.08-1.5l-.72.95s1.8 1.68 4.68 1.68 4.2-1.44 4.8-2.4c.6-.96.91-2.28.91-4.8zm-1.2-3.29c0 2.52-1.45 4.56-4.2 4.56-2.77 0-4.2-2.04-4.2-4.56 0-2.52 1.43-4.53 4.2-4.53 2.75 0 4.2 2.01 4.2 4.53zM642 534.35c0-3-2.12-5.2-5.05-5.2-2.95 0-5.4 2.32-5.4 5.75 0 3.41 2.1 5.81 5.33 5.81 3.24 0 4.63-1.68 4.63-1.68l-.6-.89s-1.39 1.44-3.9 1.44c-2.53 0-4.02-1.75-4.14-4.39h9.05s.07-.48.07-.84zm-1.28-.24h-7.8c.07-1.56 1.2-3.89 3.96-3.89s3.84 2.45 3.84 3.9z" fill-rule="nonzero"/></g><g><path d="M334.95 570.27h4.27v13.65h8.21v3.29h-12.48v-16.94zM348.56 570.27h4.25v9.16c0 1.37.33 2.43 1 3.22.65.8 1.66 1.2 3 1.2 1.64 0 2.77-.43 3.4-1.32.5-.72.76-1.94.76-3.65v-8.61h4.3v9.72c0 2.5-.8 4.39-2.36 5.7-1.46 1.23-3.48 1.86-6.02 1.86a9.7 9.7 0 01-5.33-1.42 6.17 6.17 0 01-2.9-4.51l-.08-.87c-.02-.33-.02-.64-.02-.96v-9.52zM367.97 570.27h3.63l4.92 6.57 4.94-6.57h3.55v16.94h-4.17v-7c0-.58 0-1 .02-1.23l.22-2.14c-.53.87-1.2 1.83-2 2.86-.98 1.22-1.7 2.16-2.15 2.76h-.84c-.9-1.13-1.64-2.09-2.24-2.88a18.95 18.95 0 01-1.9-2.74c0 .5.03 1.35.1 2.47.08 1.13.1 1.88.1 2.21v5.69h-4.18v-16.94zM388.54 570.17h4.08v17.04h-4.08zM394.33 579.29h7.44v3.84h-7.44zM411.77 569.93c2.72 0 5 .77 6.8 2.28a8 8 0 012.85 6.43c0 2.74-.91 4.92-2.76 6.55-1.75 1.56-4.03 2.36-6.79 2.36s-5.04-.75-6.82-2.26a8.05 8.05 0 01-2.83-6.48c0-2.8.91-5 2.71-6.6 1.73-1.51 4.01-2.28 6.84-2.28zm.08 13.87c1.46 0 2.66-.45 3.64-1.39a4.8 4.8 0 001.5-3.6c0-1.56-.49-2.83-1.45-3.77a5.11 5.11 0 00-3.77-1.39c-1.56 0-2.78.46-3.74 1.34a4.9 4.9 0 00-1.4 3.7c0 1.51.49 2.76 1.47 3.7a5.22 5.22 0 003.75 1.41zM321.63 602.95a8.2 8.2 0 00-8.4-8.54 8.22 8.22 0 00-8.4 8.54 8.22 8.22 0 008.4 8.55 8.2 8.2 0 008.4-8.55zm-1.34-.02c0 4.6-3.27 7.34-7.06 7.34-3.74 0-7.03-2.73-7.03-7.34 0-4.66 3.26-7.37 7.03-7.37 3.8 0 7.06 2.74 7.06 7.37zM335.5 605.64c0-3.3-2.16-5.76-5.47-5.76-1.6 0-3.12.65-4.2 2.33v-7.56h-1.25v16.56h1.25v-2.11a4.58 4.58 0 004.15 2.35c3.36 0 5.52-2.52 5.52-5.8zm-1.32 0c0 2.57-1.5 4.68-4.2 4.68s-4.2-2.1-4.2-4.68c0-2.59 1.5-4.68 4.2-4.68s4.2 2.1 4.2 4.68zM340.04 596.11c0-.57-.46-1.03-1.03-1.03-.58 0-1.04.46-1.04 1.03 0 .58.46 1.04 1.04 1.04.57 0 1.03-.46 1.03-1.04zm-.4 15.34v-11.38h-1.26v11.38c0 1.8-.07 3.48-1.87 3.48-.6 0-1.08-.17-1.08-.17v1.08s.36.17 1.08.17c2.69 0 3.12-2.42 3.12-4.56zM352.95 605.1c0-3-2.11-5.22-5.04-5.22-2.95 0-5.4 2.33-5.4 5.76 0 3.41 2.09 5.81 5.33 5.81s4.63-1.68 4.63-1.68l-.6-.89s-1.39 1.44-3.91 1.44c-2.52 0-4-1.75-4.13-4.39h9.05s.07-.48.07-.84zm-1.27-.25h-7.8c.07-1.56 1.2-3.89 3.96-3.89s3.84 2.45 3.84 3.9zM364.88 609.53l-.72-.84s-1.2 1.63-3.72 1.63c-2.52 0-4.25-1.99-4.25-4.75s1.97-4.56 4.2-4.56c2.21 0 3.17 1.08 3.65 1.63l.8-.84c-.25-.3-1.45-1.92-4.4-1.92a5.6 5.6 0 00-5.57 5.76c0 3.41 2.45 5.81 5.45 5.81s4.15-1.44 4.56-1.92zM371.55 611.1l-.12-1.09s-.48.31-1.2.31c-1.49 0-1.63-1.46-1.63-2.69v-6.38h2.83v-1.13h-2.8v-3.55h-1.28v3.55h-1.68v1.13h1.68v5.64c0 1.8.03 2.62.41 3.36.4.74 1.03 1.2 2.11 1.2a3.3 3.3 0 001.68-.36zM388.16 606.9c0-2.53-2.02-3.63-2.4-3.85-.39-.22-2.23-.98-3.41-1.49-1.18-.5-2.47-1.25-2.47-3.12s1.53-2.88 3.45-2.88c1.92 0 2.88 1.01 3.5 1.8l.92-.79a5.22 5.22 0 00-4.32-2.16c-2.78 0-4.87 1.68-4.87 4.08a4.3 4.3 0 002.4 3.84c.67.36 1.75.82 2.7 1.2.97.38 3.18 1.2 3.18 3.36s-1.73 3.48-3.87 3.48a4.87 4.87 0 01-4.17-2.57l-1.01.72a5.7 5.7 0 005.06 2.98c3.22 0 5.3-2.09 5.3-4.6zM395.6 611.1l-.12-1.09s-.48.31-1.2.31c-1.49 0-1.63-1.46-1.63-2.69v-6.38h2.83v-1.13h-2.8v-3.55h-1.28v3.55h-1.68v1.13h1.68v5.64c0 1.8.02 2.62.4 3.36.42.74 1.04 1.2 2.12 1.2a3.3 3.3 0 001.68-.36zM408.32 605.7c0-3.37-2.52-5.82-5.71-5.82a5.64 5.64 0 00-5.7 5.81 5.6 5.6 0 005.7 5.76 5.6 5.6 0 005.7-5.76zm-1.32-.06c0 2.57-1.68 4.68-4.4 4.68-2.68 0-4.36-2.1-4.36-4.68 0-2.59 1.68-4.68 4.37-4.68 2.7 0 4.39 2.1 4.39 4.68zM416.24 601.27l.12-1.22s-.48-.17-1.2-.17c-1.2 0-2.42.77-2.83 2.28v-2.09h-1.25v11.14h1.25v-6c0-1.7.57-4.13 2.71-4.13.6 0 .94.1 1.2.2zM425.48 611.21v-6.6c0-2.95-1.35-4.73-4.44-4.73-1.68 0-3 .65-3.72 1.13l.48.91c.24-.19 1.56-.96 3.29-.96 1.75 0 3.12 1.01 3.12 3.05v.6l-3.05.12c-3 .12-4.44 1.44-4.44 3.36s1.56 3.36 3.72 3.36a4.84 4.84 0 003.77-1.8v1.56h1.27zm-1.27-5.64v2.76a4.26 4.26 0 01-3.53 2.04c-1.8 0-2.71-1.08-2.71-2.28 0-1.2.74-2.2 3.07-2.33l3.17-.19zM438.92 608.81v-8.74h-1.27v2.12a4.66 4.66 0 00-4.2-2.3c-2.93 0-5.45 2.18-5.45 5.66s2.52 5.66 5.45 5.66c1.99 0 3.38-.94 4.2-2.38v.82c0 2.93-1.03 5.23-4.32 5.23-1.8 0-3.48-.9-4.08-1.5l-.72.95s1.8 1.68 4.68 1.68 4.2-1.44 4.8-2.4c.6-.96.9-2.28.9-4.8zm-1.2-3.29c0 2.52-1.44 4.56-4.2 4.56-2.76 0-4.2-2.04-4.2-4.56 0-2.52 1.44-4.53 4.2-4.53 2.76 0 4.2 2.01 4.2 4.53zM452.12 605.1c0-3-2.11-5.22-5.04-5.22-2.95 0-5.4 2.33-5.4 5.76 0 3.41 2.09 5.81 5.33 5.81s4.63-1.68 4.63-1.68l-.6-.89s-1.4 1.44-3.91 1.44c-2.52 0-4.01-1.75-4.13-4.39h9.05s.07-.48.07-.84zm-1.27-.25h-7.8c.07-1.56 1.2-3.89 3.96-3.89s3.84 2.45 3.84 3.9zM354.27 630.9c0-2.53-2.01-3.63-2.4-3.85-.38-.21-2.23-.98-3.4-1.49-1.18-.5-2.48-1.24-2.48-3.12 0-1.87 1.54-2.88 3.46-2.88s2.88 1.01 3.5 1.8l.91-.79a5.22 5.22 0 00-4.32-2.16c-2.78 0-4.87 1.68-4.87 4.08a4.3 4.3 0 002.4 3.84c.67.36 1.75.82 2.71 1.2.96.39 3.17 1.2 3.17 3.36s-1.73 3.48-3.86 3.48a4.87 4.87 0 01-4.18-2.57l-1 .72a5.7 5.7 0 005.06 2.98c3.21 0 5.3-2.09 5.3-4.6zM366.75 629.1c0-3-2.11-5.22-5.04-5.22-2.95 0-5.4 2.33-5.4 5.76 0 3.41 2.09 5.81 5.33 5.81s4.63-1.68 4.63-1.68l-.6-.89s-1.4 1.44-3.91 1.44c-2.52 0-4-1.75-4.13-4.39h9.05s.07-.48.07-.84zm-1.27-.25h-7.8c.07-1.56 1.2-3.89 3.96-3.89s3.84 2.45 3.84 3.9zM374.55 625.28l.12-1.23s-.48-.17-1.2-.17c-1.2 0-2.42.77-2.83 2.28v-2.08h-1.25v11.13h1.25v-6c0-1.7.58-4.13 2.71-4.13.6 0 .94.1 1.2.2zM385.23 624.08h-1.32l-3.84 9.33-3.84-9.33h-1.32l4.68 11.13h.96l4.68-11.13zM388.93 620.12c0-.58-.46-1.04-1.04-1.04-.57 0-1.03.46-1.03 1.04 0 .57.46 1.03 1.03 1.03.58 0 1.04-.46 1.04-1.03zm-.41 15.1v-11.14h-1.25v11.13h1.25zM401.4 633.53l-.71-.84s-1.2 1.63-3.72 1.63c-2.52 0-4.25-1.99-4.25-4.75s1.97-4.56 4.2-4.56c2.2 0 3.17 1.08 3.65 1.63l.79-.84c-.24-.3-1.44-1.92-4.4-1.92a5.6 5.6 0 00-5.56 5.76c0 3.41 2.45 5.81 5.45 5.81s4.15-1.44 4.56-1.92zM413.12 629.1c0-3-2.11-5.22-5.04-5.22-2.95 0-5.4 2.33-5.4 5.76 0 3.41 2.09 5.81 5.33 5.81s4.63-1.68 4.63-1.68l-.6-.89s-1.4 1.44-3.91 1.44c-2.52 0-4.01-1.75-4.13-4.39h9.05s.07-.48.07-.84zm-1.27-.25h-7.8c.07-1.56 1.2-3.89 3.96-3.89s3.84 2.45 3.84 3.9z" fill-rule="nonzero"/></g><g><path d="M55.58 297.37h4.27v13.65h8.21v3.29H55.58v-16.94zM69.19 297.37h4.25v9.16c0 1.37.33 2.43 1 3.22.65.8 1.66 1.2 3 1.2 1.64 0 2.77-.43 3.39-1.32.5-.72.77-1.94.77-3.65v-8.61h4.3v9.72c0 2.5-.8 4.39-2.36 5.7-1.46 1.23-3.48 1.86-6.02 1.86a9.7 9.7 0 01-5.33-1.42 6.17 6.17 0 01-2.9-4.51l-.08-.87c-.02-.33-.02-.64-.02-.96v-9.52zM88.6 297.37h3.63l4.92 6.57 4.94-6.57h3.56v16.94h-4.18v-7c0-.58 0-1 .02-1.23l.22-2.14c-.53.87-1.2 1.83-2 2.86-.98 1.22-1.7 2.16-2.15 2.76h-.84c-.89-1.13-1.63-2.09-2.23-2.88a18.95 18.95 0 01-1.9-2.74c0 .5.02 1.35.1 2.47.07 1.13.1 1.88.1 2.21v5.69H88.6v-16.94zM109.17 297.27h4.08v17.04h-4.08zM114.96 306.39h7.44v3.84h-7.44zM124.03 297.37h4.25v7.5l4.87-7.5h4.9l-5.5 8.16 7.44 8.78h-5.52l-6.14-7.68v7.68h-4.3v-16.94zM64.47 336.03l-.84-.84a6.95 6.95 0 01-5.28 2.18c-4.08 0-6.96-3.04-6.96-7.36s2.88-7.32 6.96-7.32c2.4 0 4.32 1.1 5.16 2.18l.84-.96a8.21 8.21 0 00-6-2.4c-4.68 0-8.35 3.5-8.35 8.54 0 5.04 3.55 8.55 8.35 8.55 3 0 4.92-1.25 6.12-2.57zM77.43 332.8c0-3.37-2.52-5.82-5.7-5.82a5.64 5.64 0 00-5.7 5.81 5.6 5.6 0 005.7 5.76 5.6 5.6 0 005.7-5.76zm-1.32-.06c0 2.57-1.68 4.68-4.39 4.68-2.69 0-4.37-2.1-4.37-4.68 0-2.59 1.68-4.68 4.37-4.68 2.71 0 4.4 2.1 4.4 4.68zM88.98 338.31v-6.65c0-2.64-.74-4.68-3.94-4.68a3.9 3.9 0 00-3.6 2.26v-2.07H80.2v11.14h1.24v-5.52c0-2.64 1.16-4.73 3.56-4.73 2.4 0 2.7 1.85 2.7 3.65v6.6h1.28zM97.02 338.2l-.12-1.09s-.48.31-1.2.31c-1.5 0-1.64-1.46-1.64-2.69v-6.38h2.84v-1.13h-2.81v-3.55h-1.27v3.55h-1.68v1.13h1.68V334c0 1.8.02 2.62.4 3.36.41.74 1.04 1.2 2.12 1.2a3.3 3.3 0 001.68-.36zM106.86 338.31v-6.6c0-2.95-1.35-4.73-4.44-4.73-1.68 0-3 .65-3.72 1.13l.48.91c.24-.19 1.56-.96 3.29-.96 1.75 0 3.12 1.01 3.12 3.05v.6l-3.05.12c-3 .12-4.44 1.44-4.44 3.36s1.56 3.36 3.72 3.36a4.84 4.84 0 003.77-1.8v1.56h1.27zm-1.27-5.64v2.76a4.26 4.26 0 01-3.53 2.04c-1.8 0-2.71-1.08-2.71-2.28 0-1.2.74-2.2 3.07-2.33l3.17-.19zM112 323.21c0-.57-.46-1.03-1.04-1.03-.57 0-1.03.46-1.03 1.03 0 .58.46 1.04 1.03 1.04.58 0 1.03-.46 1.03-1.04zm-.41 15.1v-11.14h-1.25v11.14h1.25zM124.09 338.31v-6.65c0-2.64-.75-4.68-3.94-4.68a3.9 3.9 0 00-3.6 2.26v-2.07h-1.25v11.14h1.25v-5.52c0-2.64 1.15-4.73 3.55-4.73s2.72 1.85 2.72 3.65v6.6h1.27zM137.17 332.2c0-3-2.11-5.22-5.04-5.22-2.95 0-5.4 2.33-5.4 5.76 0 3.41 2.09 5.81 5.33 5.81s4.63-1.68 4.63-1.68l-.6-.89s-1.4 1.44-3.91 1.44c-2.52 0-4.01-1.75-4.13-4.39h9.05s.07-.48.07-.84zm-1.27-.25h-7.8c.07-1.56 1.2-3.89 3.96-3.89s3.84 2.45 3.84 3.9zM144.97 328.37l.12-1.22s-.48-.17-1.2-.17c-1.2 0-2.42.77-2.83 2.28v-2.09h-1.25v11.14h1.25v-6c0-1.7.57-4.13 2.71-4.13.6 0 .94.1 1.2.2zM82.3 360.03l-.85-.84a6.95 6.95 0 01-5.28 2.19c-4.08 0-6.96-3.05-6.96-7.37s2.88-7.32 6.96-7.32c2.4 0 4.32 1.1 5.16 2.18l.84-.96a8.21 8.21 0 00-6-2.4c-4.68 0-8.35 3.5-8.35 8.55 0 5.04 3.55 8.54 8.35 8.54 3 0 4.92-1.25 6.12-2.57zM84.93 345.75h1.2v16.56h-1.2zM100.46 356.8c0-3.37-2.52-5.82-5.71-5.82a5.64 5.64 0 00-5.69 5.81 5.6 5.6 0 005.69 5.76 5.6 5.6 0 005.71-5.76zm-1.32-.06c0 2.57-1.68 4.68-4.4 4.68-2.68 0-4.36-2.1-4.36-4.68 0-2.59 1.68-4.68 4.37-4.68 2.71 0 4.4 2.1 4.4 4.68zM111.79 362.31v-11.13h-1.25v5.97c0 2.16-.96 4.32-3.43 4.32-2.45 0-2.76-1.8-2.76-3.48v-6.81h-1.25v6.62c0 2.74.77 4.75 3.84 4.75 1.56 0 2.88-.72 3.6-2.04v1.8h1.25zM114.55 356.74c0 3.3 2.16 5.81 5.52 5.81a4.6 4.6 0 004.13-2.3v2.06h1.27v-16.56h-1.27v7.51a4.78 4.78 0 00-4.18-2.28c-3.31 0-5.47 2.45-5.47 5.76zm1.32 0c0-2.59 1.51-4.68 4.2-4.68 2.71 0 4.2 2.1 4.2 4.68 0 2.57-1.49 4.68-4.2 4.68-2.69 0-4.2-2.1-4.2-4.68zM72.98 382c0-2.53-2.01-3.63-2.4-3.85-.38-.21-2.23-.98-3.4-1.49-1.18-.5-2.48-1.24-2.48-3.12 0-1.87 1.54-2.88 3.46-2.88s2.88 1.01 3.5 1.8l.91-.79a5.22 5.22 0 00-4.32-2.16c-2.78 0-4.87 1.68-4.87 4.08a4.3 4.3 0 002.4 3.84c.67.36 1.75.82 2.71 1.2.96.39 3.17 1.2 3.17 3.36s-1.73 3.48-3.86 3.48a4.87 4.87 0 01-4.18-2.57l-1 .72a5.7 5.7 0 005.06 2.98c3.21 0 5.3-2.09 5.3-4.6zM85.46 380.2c0-3-2.11-5.22-5.04-5.22-2.95 0-5.4 2.33-5.4 5.76 0 3.41 2.09 5.81 5.33 5.81s4.63-1.68 4.63-1.68l-.6-.89s-1.4 1.44-3.91 1.44c-2.52 0-4-1.75-4.13-4.39h9.05s.07-.48.07-.84zm-1.27-.25h-7.8c.07-1.56 1.2-3.89 3.96-3.89s3.84 2.45 3.84 3.9zM93.26 376.38l.12-1.23s-.48-.17-1.2-.17c-1.2 0-2.42.77-2.83 2.28v-2.08H88.1v11.13h1.25v-6c0-1.7.58-4.13 2.71-4.13.6 0 .94.1 1.2.2zM103.94 375.18h-1.32l-3.84 9.33-3.84-9.33h-1.32l4.68 11.13h.96l4.68-11.13zM107.64 371.22c0-.58-.46-1.04-1.04-1.04-.57 0-1.03.46-1.03 1.04 0 .57.46 1.03 1.03 1.03.58 0 1.04-.46 1.04-1.03zm-.41 15.1v-11.14h-1.25v11.13h1.25zM120.12 384.63l-.72-.84s-1.2 1.63-3.72 1.63c-2.52 0-4.25-1.99-4.25-4.75s1.97-4.56 4.2-4.56c2.2 0 3.17 1.08 3.65 1.63l.79-.84c-.24-.3-1.44-1.92-4.4-1.92a5.6 5.6 0 00-5.56 5.76c0 3.41 2.45 5.81 5.45 5.81s4.15-1.44 4.56-1.92zM131.83 380.2c0-3-2.11-5.22-5.04-5.22-2.95 0-5.4 2.33-5.4 5.76 0 3.41 2.09 5.81 5.33 5.81s4.63-1.68 4.63-1.68l-.6-.89s-1.4 1.44-3.91 1.44c-2.52 0-4.01-1.75-4.13-4.39h9.05s.07-.48.07-.84zm-1.27-.25h-7.8c.07-1.56 1.2-3.89 3.96-3.89s3.84 2.45 3.84 3.9z" fill-rule="nonzero"/></g><g><path d="M100.85 475.53h4.27v13.65h8.21v3.29h-12.48v-16.94zM114.46 475.53h4.25v9.16c0 1.37.33 2.43 1 3.22.65.8 1.66 1.2 3 1.2 1.64 0 2.77-.43 3.4-1.32.5-.72.76-1.94.76-3.65v-8.61h4.3v9.72c0 2.5-.8 4.39-2.36 5.7-1.46 1.23-3.48 1.86-6.02 1.86a9.7 9.7 0 01-5.33-1.42 6.17 6.17 0 01-2.9-4.51l-.08-.87c-.02-.33-.02-.64-.02-.96v-9.52zM133.87 475.53h3.63l4.92 6.57 4.94-6.57h3.55v16.94h-4.17v-7c0-.58 0-1 .02-1.23l.22-2.14c-.53.87-1.2 1.83-2 2.86-.98 1.22-1.7 2.16-2.15 2.76h-.84c-.9-1.13-1.64-2.09-2.24-2.88a18.95 18.95 0 01-1.9-2.74c0 .5.03 1.35.1 2.47.08 1.13.1 1.88.1 2.21v5.69h-4.18v-16.94zM154.44 475.43h4.08v17.04h-4.08zM160.23 484.55h7.44v3.84h-7.44zM186.84 493.89l-3.91 2.88a21.76 21.76 0 01-8.28-4.4c-2-.6-3.58-1.58-4.7-2.92a7.75 7.75 0 01-1.83-5.21c0-2.95.91-5.23 2.74-6.82 1.73-1.51 4.1-2.25 7.1-2.25 2.67 0 4.87.79 6.63 2.35a8.12 8.12 0 012.76 6.38c0 2.11-.6 3.94-1.8 5.5a8.03 8.03 0 01-4.85 3c.84.55 1.8.93 2.83 1.15 1.03.22 2.14.34 3.31.34zm-9.26-4.88a5.3 5.3 0 003.84-1.44c1-.93 1.51-2.18 1.51-3.74a4.5 4.5 0 00-1.54-3.55 5.55 5.55 0 00-3.74-1.35c-1.51 0-2.76.48-3.72 1.42a4.95 4.95 0 00-1.44 3.7c0 1.44.48 2.61 1.46 3.55a4.98 4.98 0 003.63 1.41zM107.98 516.47v-1.18h-7.87v-7.03h7.27v-1.17h-7.27v-6h7.7v-1.18h-9v16.56h9.17zM126.1 516.47v-6.77c0-2.23-.65-4.56-3.72-4.56-1.49 0-2.8.9-3.53 2.33-.48-1.44-1.56-2.33-3.3-2.33a3.73 3.73 0 00-3.37 2.26v-2.07h-1.25v11.14h1.25v-5.8c0-2.36 1.15-4.45 3.31-4.45 1.92 0 2.4 1.61 2.4 3.48v6.77h1.25v-5.8c0-2.36 1.15-4.45 3.31-4.45s2.4 2.1 2.4 3.48v6.77h1.25zM139.18 510.35c0-3-2.11-5.2-5.04-5.2-2.95 0-5.4 2.32-5.4 5.75 0 3.41 2.09 5.81 5.33 5.81s4.63-1.68 4.63-1.68l-.6-.89s-1.4 1.44-3.91 1.44c-2.52 0-4.01-1.75-4.13-4.39h9.05s.07-.48.07-.84zm-1.27-.24h-7.8c.07-1.56 1.2-3.89 3.96-3.89s3.84 2.45 3.84 3.9zM146.98 506.53l.12-1.22s-.48-.17-1.2-.17c-1.2 0-2.43.77-2.83 2.28v-2.09h-1.25v11.14h1.25v-6c0-1.7.57-4.13 2.7-4.13.6 0 .94.1 1.2.2zM158.98 514.07v-8.74h-1.27v2.12a4.66 4.66 0 00-4.2-2.3c-2.93 0-5.45 2.18-5.45 5.66s2.52 5.66 5.45 5.66c1.99 0 3.38-.94 4.2-2.38v.82c0 2.93-1.04 5.23-4.32 5.23-1.8 0-3.48-.9-4.08-1.5l-.72.95s1.8 1.68 4.68 1.68 4.2-1.44 4.8-2.4c.6-.96.9-2.28.9-4.8zm-1.2-3.29c0 2.52-1.44 4.56-4.2 4.56-2.76 0-4.2-2.04-4.2-4.56 0-2.52 1.44-4.53 4.2-4.53 2.76 0 4.2 2.01 4.2 4.53zM164.35 501.37c0-.57-.45-1.03-1.03-1.03-.57 0-1.03.46-1.03 1.03 0 .58.46 1.04 1.03 1.04.58 0 1.03-.46 1.03-1.04zm-.4 15.1v-11.14h-1.25v11.14h1.25zM176.45 516.47v-6.65c0-2.64-.74-4.68-3.93-4.68a3.9 3.9 0 00-3.6 2.26v-2.07h-1.25v11.14h1.25v-5.52c0-2.64 1.15-4.73 3.55-4.73s2.7 1.85 2.7 3.65v6.6h1.28zM190.01 514.07v-8.74h-1.27v2.12a4.66 4.66 0 00-4.2-2.3c-2.93 0-5.45 2.18-5.45 5.66s2.52 5.66 5.45 5.66c2 0 3.38-.94 4.2-2.38v.82c0 2.93-1.03 5.23-4.32 5.23-1.8 0-3.48-.9-4.08-1.5l-.72.95s1.8 1.68 4.68 1.68 4.2-1.44 4.8-2.4c.6-.96.91-2.28.91-4.8zm-1.2-3.29c0 2.52-1.44 4.56-4.2 4.56-2.76 0-4.2-2.04-4.2-4.56 0-2.52 1.44-4.53 4.2-4.53 2.76 0 4.2 2.01 4.2 4.53zM132.87 525.09v-1.18h-11.14v1.18h4.92v15.38h1.3V525.1h4.92zM142.35 534.35c0-3-2.11-5.2-5.04-5.2-2.95 0-5.4 2.32-5.4 5.75 0 3.41 2.09 5.81 5.33 5.81s4.63-1.68 4.63-1.68l-.6-.89s-1.4 1.44-3.91 1.44c-2.52 0-4.01-1.75-4.13-4.39h9.05s.07-.48.07-.84zm-1.27-.24h-7.8c.07-1.56 1.2-3.89 3.96-3.89s3.84 2.45 3.84 3.9zM154.28 538.8l-.72-.85s-1.2 1.63-3.72 1.63c-2.52 0-4.25-1.99-4.25-4.75s1.97-4.56 4.2-4.56c2.2 0 3.17 1.08 3.65 1.63l.79-.84c-.24-.3-1.44-1.92-4.4-1.92a5.6 5.6 0 00-5.56 5.76c0 3.41 2.45 5.81 5.45 5.81s4.15-1.44 4.56-1.92zM165.3 540.47v-6.65c0-2.64-.75-4.68-3.94-4.68a3.9 3.9 0 00-3.6 2.26v-7.49h-1.25v16.56h1.25v-5.52c0-2.64 1.15-4.73 3.55-4.73s2.71 1.85 2.71 3.65v6.6h1.27z" fill-opacity=".5" fill-rule="nonzero"/></g><g><path d="M335.77 50.36h4.27V64h8.21v3.29h-12.48V50.36zM349.38 50.36h4.25v9.16c0 1.37.33 2.43 1 3.22.65.8 1.66 1.2 3 1.2 1.64 0 2.77-.43 3.39-1.32.5-.72.77-1.94.77-3.65v-8.61h4.3v9.72c0 2.5-.8 4.39-2.36 5.7-1.46 1.23-3.48 1.86-6.02 1.86a9.7 9.7 0 01-5.33-1.42 6.17 6.17 0 01-2.9-4.51l-.08-.87c-.02-.33-.02-.64-.02-.96v-9.52zM368.8 50.36h3.62l4.92 6.57 4.94-6.57h3.56V67.3h-4.18v-7c0-.58 0-1 .02-1.23l.22-2.14c-.53.87-1.2 1.83-2 2.86-.98 1.22-1.7 2.16-2.15 2.76h-.84c-.89-1.13-1.63-2.09-2.23-2.88a18.95 18.95 0 01-1.9-2.74c0 .5.02 1.35.1 2.47.07 1.13.1 1.88.1 2.21v5.69h-4.18V50.36zM389.37 50.26h4.08V67.3h-4.08zM395.15 59.38h7.44v3.84h-7.44zM419.37 55.44c-.8-.52-1.73-.93-2.79-1.24a10.4 10.4 0 00-3.02-.46c-1.66 0-3.05.43-4.15 1.27a4.56 4.56 0 00-1.85 3.82c0 1.63.45 2.9 1.37 3.81a5.16 5.16 0 003.81 1.37 10 10 0 002.6-.48v-1.99h-2.17v-3.26l6.27.14-.03 7.32c-1.17.6-2.32 1.08-3.48 1.42-1.12.3-2.3.48-3.5.48-2.52 0-4.68-.8-6.48-2.36a7.87 7.87 0 01-2.8-6.21c0-2.67.93-4.85 2.8-6.55a9.8 9.8 0 016.84-2.52c2.33 0 4.51.52 6.58 1.58v3.86zM371.76 89.02v-6.14h-6.36v1.17h5.09v4.5s-1.49 1.81-5.45 1.81-7.08-2.78-7.08-7.34c0-4.56 3-7.34 6.89-7.34a6.95 6.95 0 015.71 2.66l.89-.96c-.62-.72-2.45-2.88-6.6-2.88-4.73 0-8.28 3.6-8.28 8.52s3.55 8.57 8.35 8.57c3.2 0 5.47-.87 6.84-2.57zM384.48 79.16c0-1.44-.55-2.43-1.51-3.27-.96-.84-2.26-1.15-3.82-1.15h-3.79V91.3h1.3v-7.73h2.5c1.55 0 2.85-.3 3.8-1.15a4.05 4.05 0 001.52-3.26zm-1.37 0c0 2.35-1.82 3.24-3.9 3.24h-2.55v-6.48h2.54c2.09 0 3.91.88 3.91 3.24zM399 84.63v-9.89h-1.3v10c0 1.26-.02 2.77-.84 3.9a4.44 4.44 0 01-3.74 1.75 4.44 4.44 0 01-3.74-1.75c-.82-1.13-.84-2.64-.84-3.9v-10h-1.3v9.89c0 1.87.07 3.53 1.18 4.92 1.08 1.34 2.66 2.04 4.7 2.04s3.62-.7 4.7-2.04c1.1-1.4 1.18-3.05 1.18-4.92zM349.62 103.16c0-1.44-.55-2.43-1.51-3.27-.96-.84-2.26-1.15-3.82-1.15h-3.79v16.56h1.3v-7.73h2.5c1.55 0 2.85-.3 3.81-1.15a4.05 4.05 0 001.51-3.26zm-1.37 0c0 2.35-1.82 3.24-3.9 3.24h-2.55v-6.48h2.54c2.09 0 3.91.89 3.91 3.24zM360.06 115.3v-6.6c0-2.95-1.34-4.73-4.44-4.73-1.68 0-3 .65-3.72 1.13l.48.91c.24-.19 1.56-.96 3.29-.96 1.75 0 3.12 1.01 3.12 3.05v.6l-3.05.12c-3 .12-4.44 1.44-4.44 3.36s1.56 3.36 3.72 3.36a4.84 4.84 0 003.77-1.8v1.56h1.27zm-1.27-5.64v2.76a4.26 4.26 0 01-3.53 2.04c-1.8 0-2.71-1.08-2.71-2.28 0-1.2.74-2.2 3.07-2.33l3.17-.19zM368.58 105.37l.12-1.23s-.48-.17-1.2-.17c-1.2 0-2.42.77-2.83 2.28v-2.08h-1.25v11.13h1.25v-6c0-1.7.57-4.13 2.71-4.13.6 0 .94.1 1.2.2zM375.18 115.18l-.12-1.08s-.48.31-1.2.31c-1.49 0-1.63-1.46-1.63-2.68v-6.39h2.83v-1.13h-2.8v-3.55h-1.28v3.55h-1.68v1.13h1.68v5.64c0 1.8.02 2.62.4 3.36.42.75 1.04 1.2 2.12 1.2a3.3 3.3 0 001.68-.36zM379.12 100.2c0-.57-.46-1.03-1.03-1.03-.58 0-1.04.46-1.04 1.04 0 .57.46 1.03 1.04 1.03.57 0 1.03-.46 1.03-1.03zm-.41 15.1v-11.13h-1.25v11.13h1.25zM386.99 115.18l-.12-1.08s-.48.31-1.2.31c-1.49 0-1.63-1.46-1.63-2.68v-6.39h2.83v-1.13h-2.81v-3.55h-1.27v3.55h-1.68v1.13h1.68v5.64c0 1.8.02 2.62.4 3.36.41.75 1.04 1.2 2.12 1.2a3.3 3.3 0 001.68-.36zM390.93 100.2c0-.57-.46-1.03-1.04-1.03-.57 0-1.03.46-1.03 1.04 0 .57.46 1.03 1.03 1.03.58 0 1.04-.46 1.04-1.03zm-.41 15.1v-11.13h-1.25v11.13h1.25zM404.8 109.78c0-3.36-2.52-5.8-5.72-5.8a5.64 5.64 0 00-5.68 5.8 5.6 5.6 0 005.68 5.76 5.6 5.6 0 005.72-5.76zm-1.32-.05c0 2.57-1.68 4.68-4.4 4.68-2.68 0-4.36-2.1-4.36-4.68 0-2.59 1.68-4.68 4.36-4.68 2.72 0 4.4 2.1 4.4 4.68zM416.34 115.3v-6.65c0-2.64-.74-4.68-3.94-4.68a3.9 3.9 0 00-3.6 2.26v-2.06h-1.24v11.13h1.24v-5.52c0-2.64 1.16-4.73 3.56-4.73 2.4 0 2.7 1.85 2.7 3.65v6.6h1.28z" fill-rule="nonzero"/></g><g><path d="M570.6 133.55h4.27v13.65h8.21v3.29H570.6v-16.94zM584.21 133.55h4.25v9.16c0 1.37.33 2.43 1 3.22.65.8 1.66 1.2 3 1.2 1.64 0 2.77-.43 3.39-1.32.5-.72.77-1.94.77-3.65v-8.61h4.3v9.72c0 2.5-.8 4.39-2.36 5.7-1.46 1.23-3.48 1.86-6.02 1.86a9.7 9.7 0 01-5.33-1.42 6.17 6.17 0 01-2.9-4.51l-.08-.87c-.02-.33-.02-.64-.02-.96v-9.52zM603.63 133.55h3.62l4.92 6.57 4.94-6.57h3.56v16.94h-4.18v-7c0-.58 0-1 .02-1.23l.22-2.14c-.53.87-1.2 1.83-2 2.86-.98 1.22-1.7 2.16-2.15 2.76h-.84c-.89-1.13-1.63-2.09-2.23-2.88a18.95 18.95 0 01-1.9-2.74c0 .5.02 1.35.1 2.47.07 1.13.1 1.88.1 2.21v5.69h-4.18v-16.94zM624.2 133.45h4.08v17.04h-4.08zM629.98 142.57h7.44v3.84h-7.44zM638.96 133.55l7.17-.05 1.08.02c2.45 0 4.42.82 5.9 2.43a8.92 8.92 0 012.24 6.24c0 1.34-.27 2.59-.77 3.72a7.23 7.23 0 01-2.33 2.85 7.32 7.32 0 01-2.64 1.3c-.93.24-2.01.36-3.2.36l-3.66.07h-3.8v-16.94zm7.08 13.6a4.8 4.8 0 003.52-1.41 4.8 4.8 0 001.42-3.53 5.6 5.6 0 00-1.42-4 5.27 5.27 0 00-3.96-1.47l-2.37.02v10.4h2.8zM605.5 166.21c0-4.87-3.8-8.28-8.57-8.28h-4.56v16.56h4.56c4.78 0 8.57-3.4 8.57-8.28zm-1.34 0c0 4.3-3.17 7.1-7.35 7.1h-3.14v-14.2h3.14c4.15 0 7.35 2.83 7.35 7.1zM616.5 174.5v-6.6c0-2.96-1.35-4.74-4.45-4.74-1.68 0-3 .65-3.72 1.13l.48.91c.24-.19 1.56-.96 3.29-.96 1.75 0 3.12 1.01 3.12 3.05v.6l-3.05.12c-3 .12-4.44 1.44-4.44 3.36s1.56 3.36 3.72 3.36a4.84 4.84 0 003.77-1.8v1.56h1.27zm-1.28-5.65v2.76a4.26 4.26 0 01-3.53 2.04c-1.8 0-2.71-1.08-2.71-2.28 0-1.2.74-2.2 3.07-2.33l3.17-.19zM624.41 174.37l-.12-1.08s-.48.31-1.2.31c-1.49 0-1.63-1.46-1.63-2.69v-6.38h2.83v-1.13h-2.8v-3.55h-1.28v3.55h-1.68v1.13h1.68v5.64c0 1.8.03 2.62.41 3.36.4.74 1.03 1.2 2.11 1.2a3.3 3.3 0 001.68-.36zM634.25 174.5v-6.6c0-2.96-1.34-4.74-4.44-4.74-1.68 0-3 .65-3.72 1.13l.48.91c.24-.19 1.56-.96 3.29-.96 1.75 0 3.12 1.01 3.12 3.05v.6l-3.05.12c-3 .12-4.44 1.44-4.44 3.36s1.56 3.36 3.72 3.36a4.84 4.84 0 003.77-1.8v1.56h1.27zm-1.27-5.65v2.76a4.26 4.26 0 01-3.53 2.04c-1.8 0-2.71-1.08-2.71-2.28 0-1.2.74-2.2 3.07-2.33l3.17-.19zM581.39 198.5v-6.6c0-2.96-1.34-4.74-4.44-4.74-1.68 0-3 .65-3.72 1.13l.48.91c.24-.19 1.56-.96 3.29-.96 1.75 0 3.12 1.01 3.12 3.05v.6l-3.05.12c-3 .12-4.44 1.44-4.44 3.36s1.56 3.36 3.72 3.36a4.84 4.84 0 003.77-1.8v1.56h1.27zm-1.27-5.65v2.76a4.26 4.26 0 01-3.53 2.04c-1.8 0-2.71-1.08-2.71-2.28 0-1.2.74-2.2 3.07-2.33l3.17-.19zM593.53 198.5v-6.66c0-2.64-.74-4.68-3.93-4.68a3.9 3.9 0 00-3.6 2.26v-2.06h-1.25v11.13H586v-5.52c0-2.64 1.15-4.73 3.55-4.73s2.71 1.85 2.71 3.65v6.6h1.27zM604.7 198.5v-6.6c0-2.96-1.35-4.74-4.44-4.74-1.68 0-3 .65-3.72 1.13l.48.91c.24-.19 1.56-.96 3.28-.96 1.76 0 3.12 1.01 3.12 3.05v.6l-3.04.12c-3 .12-4.44 1.44-4.44 3.36s1.56 3.36 3.72 3.36a4.84 4.84 0 003.76-1.8v1.56h1.28zm-1.28-5.65v2.76a4.26 4.26 0 01-3.52 2.04c-1.8 0-2.72-1.08-2.72-2.28 0-1.2.75-2.2 3.08-2.33l3.16-.19zM608.18 181.93h1.2v16.56h-1.2zM621.78 187.36h-1.32l-3.84 9.7-3.84-9.7h-1.32l4.49 10.96-.65 1.85c-.53 1.51-.98 1.75-1.65 1.75-.68 0-1.1-.24-1.1-.24l-.25 1.2s.58.3 1.35.3c.76 0 1.72-.25 2.5-2.1l5.63-13.72zM628.14 198.37l-.12-1.08s-.48.31-1.2.31c-1.49 0-1.63-1.46-1.63-2.68v-6.39h2.83v-1.13h-2.8v-3.55h-1.28v3.55h-1.68v1.13h1.68v5.64c0 1.8.03 2.62.41 3.36.4.75 1.03 1.2 2.11 1.2a3.3 3.3 0 001.68-.36zM632.08 183.4c0-.58-.46-1.04-1.03-1.04-.58 0-1.03.46-1.03 1.04 0 .57.45 1.03 1.03 1.03.57 0 1.03-.46 1.03-1.03zm-.4 15.1v-11.14h-1.26v11.13h1.25zM644.56 196.81l-.72-.84s-1.2 1.63-3.72 1.63c-2.52 0-4.25-1.99-4.25-4.75s1.97-4.56 4.2-4.56c2.2 0 3.17 1.08 3.65 1.63l.79-.84c-.24-.3-1.44-1.92-4.4-1.92a5.6 5.6 0 00-5.56 5.76c0 3.41 2.45 5.81 5.45 5.81s4.15-1.44 4.56-1.92zM653.44 195.44c0-2.1-2.09-2.83-3.48-3.3-1.37-.49-2.57-1-2.57-2.14 0-1.16.89-1.78 2.14-1.78 1.24 0 2.01.43 2.78 1.27l.77-.77a4.26 4.26 0 00-3.5-1.56c-1.64 0-3.39.96-3.39 2.98s2.09 2.74 3.05 3.07c.96.34 2.95.84 2.95 2.28s-1.22 2.11-2.62 2.11c-1.39 0-2.5-.7-3.21-1.75l-.89.72a4.5 4.5 0 004.06 2.16c2.06 0 3.9-1.2 3.9-3.29zM584.45 210.35c0-1.44-.55-2.43-1.51-3.27-.96-.84-2.26-1.15-3.82-1.15h-3.79v16.56h1.3v-7.73h2.5c1.55 0 2.85-.3 3.81-1.15a4.05 4.05 0 001.51-3.26zm-1.37 0c0 2.35-1.82 3.24-3.9 3.24h-2.55v-6.48h2.54c2.09 0 3.91.89 3.91 3.24zM594.89 222.5v-6.6c0-2.96-1.34-4.74-4.44-4.74-1.68 0-3 .65-3.72 1.13l.48.91c.24-.19 1.56-.96 3.29-.96 1.75 0 3.12 1.01 3.12 3.05v.6l-3.05.12c-3 .12-4.44 1.44-4.44 3.36s1.56 3.36 3.72 3.36a4.84 4.84 0 003.77-1.8v1.56h1.27zm-1.27-5.65v2.76a4.26 4.26 0 01-3.53 2.04c-1.8 0-2.71-1.08-2.71-2.28 0-1.2.74-2.2 3.07-2.33l3.17-.19zM603.41 212.56l.12-1.23s-.48-.17-1.2-.17c-1.2 0-2.42.77-2.83 2.28v-2.08h-1.25v11.13h1.25v-6c0-1.7.57-4.13 2.71-4.13.6 0 .94.1 1.2.2zM610.01 222.37l-.12-1.08s-.48.31-1.2.31c-1.49 0-1.63-1.46-1.63-2.68v-6.39h2.83v-1.13h-2.8v-3.55h-1.28v3.55h-1.68v1.13h1.68v5.64c0 1.8.02 2.62.4 3.36.42.75 1.04 1.2 2.12 1.2a3.3 3.3 0 001.68-.36zM613.95 207.4c0-.58-.46-1.04-1.03-1.04-.58 0-1.04.46-1.04 1.04 0 .57.46 1.03 1.04 1.03.57 0 1.03-.46 1.03-1.03zm-.41 15.1v-11.14h-1.25v11.13h1.25zM621.82 222.37l-.12-1.08s-.48.31-1.2.31c-1.49 0-1.63-1.46-1.63-2.68v-6.39h2.83v-1.13h-2.81v-3.55h-1.27v3.55h-1.68v1.13h1.68v5.64c0 1.8.02 2.62.4 3.36.41.75 1.04 1.2 2.12 1.2a3.3 3.3 0 001.68-.36zM625.76 207.4c0-.58-.46-1.04-1.04-1.04-.57 0-1.03.46-1.03 1.04 0 .57.46 1.03 1.03 1.03.58 0 1.04-.46 1.04-1.03zm-.41 15.1v-11.14h-1.25v11.13h1.25zM639.63 216.97c0-3.36-2.52-5.8-5.72-5.8a5.64 5.64 0 00-5.68 5.8 5.6 5.6 0 005.68 5.76 5.6 5.6 0 005.72-5.76zm-1.32-.05c0 2.57-1.68 4.68-4.4 4.68-2.68 0-4.36-2.1-4.36-4.68 0-2.59 1.68-4.68 4.36-4.68 2.72 0 4.4 2.1 4.4 4.68zM651.17 222.5v-6.66c0-2.64-.74-4.68-3.94-4.68a3.9 3.9 0 00-3.6 2.26v-2.06h-1.24v11.13h1.24v-5.52c0-2.64 1.16-4.73 3.56-4.73 2.4 0 2.7 1.85 2.7 3.65v6.6h1.28z" fill-rule="nonzero"/></g><g><path d="M324.73 323.99h4.25v6.84h8.04v-6.84h4.25v16.94h-4.25v-6.84h-8.04v6.84h-4.25V324zM344.5 329.92h3.85v11.01h-3.84v-11.01zm1.9-6.15c.56 0 1.04.2 1.4.58.38.36.57.84.57 1.41 0 .5-.19.96-.6 1.32-.4.36-.86.56-1.39.56-.5 0-.94-.2-1.32-.6a1.92 1.92 0 01-.53-1.37c0-.53.17-.99.53-1.35.36-.36.8-.55 1.34-.55zM350.92 339.01c0-.4.19-.74.55-1 .33-.3.74-.46 1.2-.53a6.34 6.34 0 01-2.07-1.4c-.5-.6-.76-1.36-.76-2.32 0-1.3.5-2.36 1.48-3.15a5.17 5.17 0 013.39-1.1c.26 0 .84.05 1.68.17.48.07.84.1 1.05.1h1.52c.5.02 1 .02 1.5.02h.68v2.2l-1.46.03c.36.6.52 1.25.52 1.9 0 1.27-.48 2.2-1.46 2.8-.55.36-1.44.67-2.71.94-.99.21-1.47.45-1.47.77 0 .4.53.72 1.56.93 1.47.31 2.45.6 2.93.87a2.9 2.9 0 011.59 2.73c0 1.32-.6 2.33-1.8 3.03-.99.55-2.21.84-3.65.84a9.43 9.43 0 01-3.77-.7c-1.44-.65-2.16-1.58-2.16-2.86 0-.79.26-1.44.82-1.94a4.45 4.45 0 011.96-.96l-.72-.55c-.26-.27-.4-.53-.4-.82zm4.08-3.45c.55 0 .96-.17 1.27-.53a2 2 0 00.45-1.37c0-.55-.12-1-.38-1.37a1.5 1.5 0 00-1.25-.62c-.5 0-.93.19-1.27.55-.34.36-.5.82-.5 1.32 0 .55.14 1.03.43 1.42.29.4.7.6 1.25.6zm0 8.68c.6 0 1.08-.04 1.44-.16.62-.2.93-.5.93-.94 0-.48-.29-.8-.84-.96-.31-.1-.79-.14-1.44-.14-.65 0-1.13.04-1.49.14-.64.17-.96.5-.96.96 0 .4.32.72.92.91.4.12.88.2 1.44.2zM362.53 323.99h3.82v6.3c0 .32-.05.66-.12 1.02a6.83 6.83 0 011.7-1.35c.53-.26 1.2-.4 2-.4 1.36 0 2.4.57 3.07 1.7a7 7 0 01.84 3.6v6.07H370v-5.69c0-.76-.08-1.34-.24-1.72-.24-.6-.7-.9-1.37-.9-.36 0-.72.1-1.1.32-.41.22-.73.46-.94.74v7.25h-3.82V324zM375.68 333.01h7.44v3.84h-7.44zM383.9 337.16c.88.5 1.46.82 1.77.96.74.36 1.39.53 1.94.53.34 0 .6-.07.82-.2.19-.11.29-.35.29-.66 0-.22-.8-.72-2.4-1.51-1.61-.8-2.4-1.85-2.4-3.2 0-1.12.4-1.99 1.24-2.61a4.7 4.7 0 012.98-.96c.67 0 1.32.1 1.92.24.6.17 1.25.43 1.92.74v2.74c-.5-.22-.98-.46-1.46-.7a3.95 3.95 0 00-1.56-.36c-.27 0-.5.05-.72.15-.22.07-.32.21-.32.4 0 .34.8.87 2.36 1.56 1.56.7 2.35 1.7 2.35 3s-.41 2.3-1.2 3a4.7 4.7 0 01-3.2 1.06c-1.55 0-3-.38-4.34-1.18v-3zM394.38 329.92h3.82v.45l.96-.36c.6-.21 1.15-.31 1.63-.31 1.73 0 3.1.55 4.1 1.66 1.01 1.1 1.51 2.52 1.51 4.27 0 1.5-.48 2.8-1.46 3.9a4.8 4.8 0 01-3.77 1.76c-.45 0-.89-.05-1.3-.12-.4-.07-.95-.29-1.67-.62v6.57h-3.82v-17.2zm5.71 8.5c.75 0 1.35-.32 1.8-.94.41-.56.6-1.23.6-2.02 0-.8-.19-1.49-.57-2.04a2.08 2.08 0 00-1.83-.94c-.31 0-.65.08-.96.2-.19.07-.5.24-.91.48l-.02 4.58c.19.17.48.34.86.46.38.14.72.21 1.03.21zM412.19 335.96c.07.84.4 1.52.98 1.97.58.46 1.3.67 2.19.67.7 0 1.39-.12 2.08-.38.72-.26 1.42-.6 2.1-1v2.75c-1.04.5-1.86.84-2.46 1-.79.25-1.68.37-2.61.37-1.8 0-3.31-.55-4.51-1.68a5.75 5.75 0 01-1.8-4.4c0-1.7.57-3.06 1.72-4.14a6.04 6.04 0 014.3-1.61c1.75 0 3.14.57 4.2 1.73 1 1.1 1.51 2.54 1.51 4.32v.3l-7.7.1zm3.84-2.25a2.4 2.4 0 00-.6-1.32 1.62 1.62 0 00-1.23-.55c-.45 0-.88.19-1.24.6-.32.33-.53.76-.68 1.27h3.75zM425.24 335.96c.08.84.41 1.52.99 1.97.57.46 1.3.67 2.18.67.7 0 1.4-.12 2.09-.38.72-.26 1.42-.6 2.09-1v2.75c-1.03.5-1.85.84-2.45 1-.8.25-1.68.37-2.62.37-1.8 0-3.3-.55-4.5-1.68a5.75 5.75 0 01-1.8-4.4c0-1.7.57-3.06 1.72-4.14a6.04 6.04 0 014.3-1.61c1.75 0 3.14.57 4.2 1.73 1 1.1 1.5 2.54 1.5 4.32v.3l-7.7.1zm3.84-2.25a2.4 2.4 0 00-.6-1.32 1.62 1.62 0 00-1.22-.55c-.46 0-.89.19-1.25.6-.31.33-.53.76-.67 1.27h3.74zM442.4 323.99h3.8v16.94h-3.8v-.53c-.36.22-.81.39-1.36.56a5.14 5.14 0 01-5.36-1.47 5.83 5.83 0 01-1.53-4.08c0-1.53.53-2.9 1.56-4.1a4.9 4.9 0 015.28-1.56c.21.07.7.21 1.41.48v-6.24zm0 9l-.88-.43a3 3 0 00-1.01-.2c-.77 0-1.37.3-1.8.84a3.29 3.29 0 00-.65 2.04c0 .87.2 1.59.58 2.14a2.2 2.2 0 001.92.98c.4 0 .81-.07 1.17-.24l.67-.36V333zM308.77 355.72h3.84v11.01h-3.84v-11.01zm1.9-6.15c.55 0 1.03.2 1.39.58.38.36.58.84.58 1.41 0 .5-.2.96-.6 1.32-.41.36-.87.56-1.4.56-.5 0-.93-.2-1.32-.6a1.92 1.92 0 01-.52-1.37c0-.53.16-.99.52-1.35.36-.36.8-.55 1.35-.55zM315.2 355.72h3.87c0 .3 0 .57-.03.76-.02.2-.07.41-.16.65.6-.6 1.17-1.05 1.7-1.32a4.61 4.61 0 012.09-.48c1.37 0 2.4.58 3.05 1.73.52.94.79 2.14.79 3.62v6.05h-3.82v-6.12c0-.6-.12-1.1-.33-1.49-.27-.48-.7-.72-1.28-.72-.3 0-.7.12-1.1.34a3 3 0 00-.94.72v7.27h-3.84v-11.01zM328.16 356.96l5.1-5.2h.74v3.96h3.9v2.56H334v4.2c0 .53.16.94.45 1.25.34.31.75.48 1.27.48.36 0 .72-.07 1.08-.19.39-.12.77-.31 1.18-.55v2.73a10.56 10.56 0 01-3.58.84c-2.85 0-4.27-1.44-4.27-4.32l.03-1.15v-3.29h-2v-1.32zM342.16 361.76c.07.84.4 1.52.98 1.97.58.46 1.3.67 2.18.67.7 0 1.4-.12 2.1-.38.71-.26 1.4-.6 2.08-1v2.75c-1.03.5-1.85.84-2.45 1.01-.79.24-1.68.36-2.61.36-1.8 0-3.32-.55-4.52-1.68a5.75 5.75 0 01-1.8-4.4c0-1.7.58-3.06 1.73-4.14a6.04 6.04 0 014.3-1.61c1.75 0 3.14.57 4.2 1.73 1 1.1 1.51 2.54 1.51 4.32v.3l-7.7.1zm3.84-2.25a2.4 2.4 0 00-.6-1.32 1.62 1.62 0 00-1.23-.55c-.45 0-.89.19-1.25.6-.3.33-.52.76-.67 1.27H346zM352.12 355.72h3.81v1.3c0 .26-.02.47-.05.64l-.07.53c.36-.72.77-1.35 1.25-1.85.62-.67 1.25-1 1.87-1 .41 0 .87.09 1.32.26.48.19.91.43 1.27.7l-1.58 3.35c-.4-.29-.74-.48-.98-.6-.27-.1-.5-.14-.75-.14-.36 0-.72.19-1.03.6a6.36 6.36 0 00-1.15 2.78c-.1.63-.15 1.27-.15 1.92l.05 2.52h-3.81v-11.01zM371.39 359.05c-.36-.24-.8-.43-1.35-.6a6.42 6.42 0 00-1.58-.21c-.94 0-1.68.28-2.26.86-.6.55-.88 1.3-.88 2.23 0 .84.3 1.54.93 2.07.63.52 1.37.79 2.26.79.57 0 1.22-.12 1.94-.39l1.13-.45v2.97c-.58.24-1.18.44-1.82.6-.65.15-1.25.22-1.8.22-1.83 0-3.36-.5-4.59-1.51a5.3 5.3 0 01-1.99-4.32c0-1.75.62-3.17 1.87-4.3a6.25 6.25 0 014.47-1.7c.67 0 1.32.07 1.92.19.6.12 1.2.31 1.75.58v2.97zM378.76 355.3c1.82 0 3.33.56 4.53 1.66a5.58 5.58 0 011.8 4.35c0 1.73-.65 3.14-1.94 4.25a6.66 6.66 0 01-4.49 1.58c-1.8 0-3.31-.55-4.49-1.66a5.68 5.68 0 01-1.77-4.34c0-1.73.62-3.12 1.84-4.2a6.69 6.69 0 014.52-1.63zm.07 9.03c.72 0 1.3-.31 1.73-.96.38-.57.57-1.25.57-2 0-.88-.19-1.62-.55-2.2a2.18 2.18 0 00-1.94-1.03c-.72 0-1.3.31-1.73.91-.41.6-.63 1.3-.63 2.09 0 .89.2 1.63.58 2.2.46.66 1.1 1 1.97 1zM387.18 355.72h3.86c0 .3 0 .57-.02.76-.02.2-.07.41-.17.65.6-.6 1.18-1.05 1.7-1.32a4.61 4.61 0 012.1-.48c1.36 0 2.4.58 3.04 1.73.53.94.8 2.14.8 3.62v6.05h-3.82v-6.12c0-.6-.12-1.1-.34-1.49-.26-.48-.7-.72-1.27-.72-.31 0-.7.12-1.1.34a3 3 0 00-.94.72v7.27h-3.84v-11.01zM401.17 355.72h3.87c0 .3 0 .57-.03.76-.02.2-.07.41-.17.65.6-.6 1.18-1.05 1.7-1.32a4.61 4.61 0 012.1-.48c1.36 0 2.4.58 3.04 1.73.53.94.8 2.14.8 3.62v6.05h-3.82v-6.12c0-.6-.12-1.1-.34-1.49-.26-.48-.7-.72-1.27-.72-.31 0-.7.12-1.1.34a3 3 0 00-.94.72v7.27h-3.84v-11.01zM418.45 361.76c.07.84.41 1.52.99 1.97.57.46 1.3.67 2.18.67.7 0 1.4-.12 2.09-.38.72-.26 1.41-.6 2.09-1v2.75c-1.04.5-1.85.84-2.45 1.01-.8.24-1.68.36-2.62.36-1.8 0-3.31-.55-4.51-1.68a5.75 5.75 0 01-1.8-4.4c0-1.7.58-3.06 1.73-4.14a6.04 6.04 0 014.3-1.61c1.75 0 3.14.57 4.2 1.73 1 1.1 1.5 2.54 1.5 4.32v.3l-7.7.1zm3.84-2.25a2.4 2.4 0 00-.6-1.32 1.62 1.62 0 00-1.22-.55c-.46 0-.89.19-1.25.6-.31.33-.53.76-.67 1.27h3.74zM437.53 359.05c-.36-.24-.79-.43-1.34-.6a6.42 6.42 0 00-1.59-.21c-.93 0-1.68.28-2.25.86-.6.55-.89 1.3-.89 2.23 0 .84.31 1.54.94 2.07.62.52 1.36.79 2.25.79.58 0 1.23-.12 1.95-.39.12-.04.5-.19 1.12-.45v2.97c-.57.24-1.17.44-1.82.6-.65.15-1.25.22-1.8.22-1.82 0-3.36-.5-4.58-1.51a5.3 5.3 0 01-2-4.32c0-1.75.63-3.17 1.88-4.3a6.25 6.25 0 014.46-1.7c.67 0 1.32.07 1.92.19.6.12 1.2.31 1.75.58v2.97zM438.3 356.96l5.09-5.2h.74v3.96h3.91v2.56h-3.9v4.2c0 .53.16.94.45 1.25.33.31.74.48 1.27.48.36 0 .72-.07 1.08-.19.38-.12.77-.31 1.18-.55v2.73a10.56 10.56 0 01-3.58.84c-2.86 0-4.27-1.44-4.27-4.32l.02-1.15v-3.29h-1.99v-1.32z" fill-rule="nonzero"/></g></svg>