<?xml version="1.0" encoding="UTF-8" standalone="no"?>
<!DOCTYPE svg PUBLIC "-//W3C//DTD SVG 1.1//EN" "http://www.w3.org/Graphics/SVG/1.1/DTD/svg11.dtd">
<svg width="100%" height="100%" viewBox="0 0 782 686" version="1.1" xmlns="http://www.w3.org/2000/svg" xmlns:xlink="http://www.w3.org/1999/xlink" xml:space="preserve" xmlns:serif="http://www.serif.com/" style="fill-rule:evenodd;clip-rule:evenodd;stroke-linejoin:round;stroke-miterlimit:2;">
    <g>
        <path d="M369.656,187.631l0,-43.424c0,-4.882 3.955,-8.828 8.828,-8.828c4.873,-0 8.828,3.946 8.828,8.828l0,43.425l29.797,-23.837c1.616,-1.297 3.554,-1.931 5.481,-1.938l0.053,0l0.053,0.001c2.563,0.022 5.096,1.154 6.816,3.314c3.046,3.814 2.436,9.366 -1.377,12.412l-40.823,32.658l0,30.357l29.797,-23.838c3.796,-3.046 9.366,-2.445 12.403,1.377c3.046,3.814 2.436,9.366 -1.377,12.412l-40.823,32.658l0,63.112l61.792,-61.963l0,-40.703c0,-4.882 3.955,-8.828 8.828,-8.828c4.873,0 8.828,3.946 8.828,8.828l0,22.999l17.655,-17.704l0,-40.605c0,-4.882 3.955,-8.828 8.828,-8.828c4.873,-0 8.828,3.946 8.828,8.828l0,22.9l27.997,-28.074c3.452,-3.443 9.039,-3.443 12.482,-0c3.452,3.452 3.452,9.039 0,12.482l-27.925,28.002l22.756,0c4.873,0 8.828,3.946 8.828,8.828c0,4.882 -3.956,8.828 -8.828,8.828l-40.364,0l-17.605,17.654l22.658,0c4.873,0 8.828,3.946 8.828,8.828c0,4.883 -3.955,8.829 -8.828,8.829l-40.266,-0l-61.623,61.793l62.338,-0l32.661,-40.827c3.037,-3.805 8.598,-4.423 12.403,-1.377c3.814,3.046 4.423,8.598 1.377,12.412l-23.833,29.792l30.358,-0l32.661,-40.827c3.037,-3.805 8.607,-4.423 12.403,-1.377c3.814,3.046 4.423,8.598 1.377,12.412l-23.833,29.792l43.426,-0c4.873,-0 8.828,3.946 8.828,8.828c0,4.882 -3.956,8.828 -8.829,8.828l-43.426,0l23.834,29.793c3.046,3.814 2.436,9.366 -1.377,12.412c-1.625,1.306 -3.576,1.933 -5.509,1.933c-2.586,0 -5.155,-1.13 -6.894,-3.31l-32.662,-40.828l-30.357,0l23.834,29.793c3.046,3.814 2.436,9.366 -1.377,12.412c-1.625,1.306 -3.576,1.933 -5.509,1.933c-2.586,0 -5.155,-1.13 -6.894,-3.31l-32.662,-40.828l-60.601,0l61.742,61.793l38.41,-0c4.873,-0 8.828,3.946 8.828,8.828c0,4.882 -3.955,8.828 -8.828,8.828l-21.205,-0l17.202,17.654l39.314,-0c4.873,-0 8.828,3.946 8.828,8.828c-0.001,4.882 -3.956,8.828 -8.828,8.828l-22.11,-0l27.362,28.08c3.407,3.487 3.328,9.084 -0.159,12.482c-1.722,1.668 -3.947,2.507 -6.162,2.507c-2.295,0 -4.59,-0.892 -6.321,-2.666l-27.92,-28.651l0,23.558c-0.001,4.882 -3.956,8.828 -8.828,8.828c-4.873,0 -8.828,-3.946 -8.828,-8.828l0,-41.677l-17.655,-18.117l0,24.484c0,4.882 -3.955,8.828 -8.828,8.828c-4.873,-0 -8.828,-3.946 -8.828,-8.828l0,-42.603l-61.792,-61.772l0,24.788c0,0.023 -0,0.046 -0,0.069c-0,0.023 0,0.046 0,0.069l0,39.896l40.824,32.659c3.814,3.046 4.423,8.598 1.377,12.412c-1.74,2.171 -4.309,3.31 -6.895,3.31c-1.933,-0 -3.884,-0.627 -5.508,-1.933l-29.798,-23.838l0,30.355l40.824,32.659c3.814,3.046 4.423,8.598 1.377,12.412c-1.74,2.172 -4.309,3.31 -6.895,3.31c-1.933,0 -3.884,-0.627 -5.508,-1.933l-29.798,-23.838l0,43.427c0,4.881 -3.955,8.827 -8.828,8.827c-4.873,0 -8.828,-3.946 -8.828,-8.828l0,-43.425l-29.797,23.837c-1.624,1.307 -3.575,1.933 -5.509,1.933c-2.586,0 -5.155,-1.13 -6.894,-3.31c-3.046,-3.814 -2.436,-9.366 1.377,-12.412l40.823,-32.658l0,-30.356l-29.797,23.838c-1.624,1.306 -3.575,1.933 -5.509,1.933c-2.586,-0 -5.155,-1.13 -6.894,-3.31c-3.046,-3.814 -2.436,-9.366 1.377,-12.412l40.823,-32.658l0,-39.897c0,-0.023 0,-0.046 0,-0.069c0,-0.024 0,-0.047 0,-0.07l0,-22.218l-61.792,61.316l0,40.49c-0.001,4.882 -3.955,8.828 -8.828,8.828c-4.873,-0 -8.828,-3.946 -8.828,-8.828l0,-22.832l-17.655,17.656l0,40.486c0,4.882 -3.955,8.828 -8.828,8.828c-4.873,0 -8.828,-3.946 -8.828,-8.828l0,-22.828l-27.999,28.001c-1.722,1.721 -3.982,2.586 -6.242,2.586c-2.26,0 -4.52,-0.865 -6.241,-2.586c-3.452,-3.452 -3.452,-9.031 0,-12.482l27.999,-28.001l-22.827,-0c-4.873,-0 -8.828,-3.946 -8.828,-8.828c0,-4.882 3.955,-8.828 8.828,-8.828l40.482,-0l17.653,-17.654l-22.824,-0c-4.873,-0 -8.828,-3.946 -8.828,-8.828c0,-4.882 3.955,-8.828 8.828,-8.828l40.478,-0l62.267,-61.793l-63.193,0l-32.662,40.828c-1.739,2.171 -4.308,3.31 -6.895,3.31c-1.933,0 -3.884,-0.627 -5.508,-1.933c-3.814,-3.046 -4.423,-8.598 -1.377,-12.412l23.834,-29.793l-30.357,0l-32.662,40.828c-1.726,2.154 -4.269,3.293 -6.834,3.31l-0.061,0c-1.933,0 -3.884,-0.627 -5.508,-1.933c-3.814,-3.046 -4.423,-8.598 -1.377,-12.412l23.834,-29.793l-43.427,0c-4.873,0 -8.828,-3.946 -8.828,-8.828c0,-4.882 3.955,-8.828 8.828,-8.828l43.426,-0l-23.833,-29.792c-3.046,-3.814 -2.436,-9.366 1.377,-12.412c1.602,-1.289 3.519,-1.924 5.428,-1.941l0.053,-0l0.053,-0c2.581,0.008 5.137,1.143 6.869,3.318l32.661,40.827l30.358,-0l-23.833,-29.792c-3.046,-3.814 -2.436,-9.366 1.377,-12.412c3.805,-3.054 9.366,-2.436 12.403,1.377l32.661,40.827l64.479,-0l-62.55,-61.793l-41.481,-0c-4.873,-0 -8.828,-3.946 -8.828,-8.829c0,-4.882 3.955,-8.828 8.828,-8.828l23.608,0l-17.87,-17.654l-41.049,0c-4.873,0 -8.828,-3.946 -8.828,-8.828c0,-4.882 3.955,-8.828 8.828,-8.828l23.176,0l-28.345,-28.002c-3.452,-3.443 -3.452,-9.031 0,-12.482c3.443,-3.443 9.031,-3.443 12.482,-0l27.997,27.658l0,-22.484c0,-4.882 3.955,-8.828 8.828,-8.828c4.873,-0 8.828,3.946 8.828,8.828l0,39.926l17.655,17.442l0,-22.058c0,-4.882 3.955,-8.828 8.828,-8.828c4.873,0 8.828,3.946 8.828,8.828l0,39.5l61.792,61.044l0,-60.99l-40.822,-32.658c-3.814,-3.046 -4.423,-8.598 -1.377,-12.412c3.037,-3.805 8.607,-4.423 12.403,-1.377l29.796,23.837l0,-30.357l-40.822,-32.657c-3.814,-3.046 -4.423,-8.598 -1.377,-12.412c1.744,-2.185 4.323,-3.319 6.922,-3.312l0.053,0c1.909,0.017 3.826,0.65 5.428,1.935l29.796,23.836Z" style="fill:none;fill-rule:nonzero;stroke:rgb(137,194,212);stroke-width:3px;"/>
        <g transform="matrix(3.97299,0,0,3.97302,-1599.24,-1422.07)">
            <g transform="matrix(6.04078,0,0,6.04078,431.826,399.487)">
                <path d="M0.041,-0.706l0.178,0l0,0.569l0.342,-0l0,0.137l-0.52,-0l-0,-0.706Z" style="fill-rule:nonzero;"/>
            </g>
            <g transform="matrix(6.04078,0,0,6.04078,435.347,399.487)">
                <path d="M0.025,-0.706l0.177,0l0,0.382c0,0.057 0.014,0.101 0.042,0.134c0.027,0.033 0.069,0.05 0.125,0.05c0.068,-0 0.115,-0.018 0.141,-0.055c0.021,-0.03 0.032,-0.081 0.032,-0.152l0,-0.359l0.179,0l-0,0.405c-0,0.104 -0.033,0.183 -0.098,0.238c-0.061,0.051 -0.145,0.077 -0.251,0.077c-0.087,-0 -0.161,-0.02 -0.222,-0.059c-0.069,-0.045 -0.11,-0.107 -0.121,-0.188c-0.001,-0.01 -0.002,-0.022 -0.003,-0.036c-0.001,-0.014 -0.001,-0.027 -0.001,-0.04l-0,-0.397Z" style="fill-rule:nonzero;"/>
            </g>
            <g transform="matrix(6.04078,0,0,6.04078,440.21,399.487)">
                <path d="M0.029,-0.706l0.151,0l0.205,0.274l0.206,-0.274l0.148,0l0,0.706l-0.174,-0l0,-0.292c0,-0.024 0,-0.041 0.001,-0.051c0.001,-0.009 0.004,-0.039 0.009,-0.089c-0.022,0.036 -0.05,0.076 -0.083,0.119c-0.041,0.051 -0.071,0.09 -0.09,0.115l-0.035,-0c-0.037,-0.047 -0.068,-0.087 -0.093,-0.12c-0.047,-0.062 -0.074,-0.1 -0.079,-0.114c0,0.021 0.001,0.056 0.004,0.103c0.003,0.047 0.004,0.078 0.004,0.092l0,0.237l-0.174,-0l0,-0.706Z" style="fill-rule:nonzero;"/>
            </g>
            <g transform="matrix(6.04078,0,0,6.04078,445.2,399.487)">
                <rect x="0.057" y="-0.706" width="0.166" height="0.706" style="fill-rule:nonzero;"/>
            </g>
            <g transform="matrix(6.04078,0,0,6.04078,447.018,399.487)">
                <rect x="-0.001" y="-0.33" width="0.307" height="0.159" style="fill-rule:nonzero;"/>
            </g>
            <g transform="matrix(6.04078,0,0,6.04078,449.084,399.487)">
                <path d="M0.652,-0.489c-0.06,-0.03 -0.098,-0.048 -0.113,-0.054c-0.043,-0.017 -0.083,-0.025 -0.122,-0.025c-0.067,0 -0.123,0.021 -0.168,0.062c-0.045,0.04 -0.067,0.094 -0.067,0.161c0,0.062 0.023,0.112 0.069,0.149c0.043,0.035 0.097,0.053 0.16,0.053c0.033,-0 0.066,-0.005 0.099,-0.015c0.039,-0.012 0.089,-0.036 0.15,-0.072l-0.001,0.165c-0.051,0.027 -0.095,0.047 -0.132,0.058c-0.045,0.014 -0.093,0.021 -0.143,0.021c-0.104,-0 -0.194,-0.032 -0.269,-0.095c-0.079,-0.067 -0.119,-0.151 -0.119,-0.254c0,-0.116 0.038,-0.209 0.113,-0.28c0.075,-0.07 0.171,-0.105 0.288,-0.105c0.087,-0 0.172,0.023 0.255,0.069l0,0.162Z" style="fill-rule:nonzero;"/>
            </g>
            <g transform="matrix(6.04078,0,0,6.04078,437.839,405.528)">
                <path d="M0.445,-0l-0.19,-0.245l0.167,-0.219l-0.057,-0l-0.14,0.187l-0.14,-0.187l-0.058,-0l0.168,0.219l-0.19,0.245l0.06,-0l0.16,-0.212l0.16,0.212l0.06,-0Z" style="fill-rule:nonzero;"/>
            </g>
            <g transform="matrix(6.04078,0,0,6.04078,440.558,405.528)">
                <path d="M0.5,-0.187c0,-0.09 -0.055,-0.153 -0.133,-0.178l0,-0.002c0.043,-0.018 0.11,-0.053 0.11,-0.16c0,-0.108 -0.092,-0.173 -0.197,-0.173c-0.105,0 -0.198,0.065 -0.198,0.173c0,0.107 0.068,0.142 0.11,0.16l0,0.002c-0.077,0.025 -0.132,0.088 -0.132,0.178c0,0.125 0.09,0.198 0.22,0.198c0.13,-0 0.22,-0.073 0.22,-0.198Zm-0.078,-0.334c0,0.085 -0.062,0.131 -0.142,0.131c-0.08,0 -0.143,-0.046 -0.143,-0.131c0,-0.085 0.063,-0.131 0.143,-0.131c0.08,0 0.142,0.046 0.142,0.131Zm0.023,0.331c0,0.095 -0.075,0.154 -0.165,0.154c-0.09,0 -0.165,-0.059 -0.165,-0.154c0,-0.095 0.07,-0.152 0.165,-0.152c0.095,-0 0.165,0.057 0.165,0.152Z" style="fill-rule:nonzero;"/>
            </g>
            <g transform="matrix(6.04078,0,0,6.04078,443.941,405.528)">
                <path d="M0.515,-0.22c0,-0.13 -0.103,-0.213 -0.213,-0.213c-0.11,0 -0.167,0.063 -0.195,0.128c-0,-0.138 0.029,-0.35 0.208,-0.35c0.07,0 0.115,0.03 0.152,0.065l0.03,-0.037c-0,0 -0.057,-0.073 -0.18,-0.073c-0.201,0 -0.262,0.202 -0.262,0.37c-0,0.159 0.042,0.342 0.24,0.342c0.135,0 0.22,-0.102 0.22,-0.232Zm-0.055,0.009c-0,0.09 -0.053,0.175 -0.165,0.175c-0.113,0 -0.168,-0.085 -0.168,-0.175c-0,-0.09 0.055,-0.175 0.168,-0.175c0.112,0 0.165,0.085 0.165,0.175Z" style="fill-rule:nonzero;"/>
            </g>
            <g transform="matrix(6.04078,0,0,6.04078,432.569,411.569)">
                <path d="M0.465,-0.506c0,-0.06 -0.023,-0.101 -0.063,-0.136c-0.04,-0.035 -0.094,-0.048 -0.159,-0.048l-0.158,0l-0,0.69l0.054,-0l0,-0.322l0.104,0c0.065,0 0.119,-0.013 0.159,-0.048c0.04,-0.035 0.063,-0.076 0.063,-0.136Zm-0.057,0c0,0.098 -0.076,0.135 -0.163,0.135l-0.106,0l0,-0.27l0.106,0c0.087,0 0.163,0.037 0.163,0.135Z" style="fill-rule:nonzero;"/>
            </g>
            <g transform="matrix(6.04078,0,0,6.04078,435.619,411.569)">
                <path d="M0.395,-0l0,-0.275c0,-0.123 -0.056,-0.197 -0.185,-0.197c-0.07,0 -0.125,0.027 -0.155,0.047l0.02,0.038c0.01,-0.008 0.065,-0.04 0.137,-0.04c0.073,0 0.13,0.042 0.13,0.127l0,0.025l-0.127,0.005c-0.125,0.005 -0.185,0.06 -0.185,0.14c-0,0.08 0.065,0.14 0.155,0.14c0.09,-0 0.14,-0.055 0.157,-0.075l0,0.065l0.053,-0Zm-0.053,-0.235l0,0.115c-0.022,0.035 -0.072,0.085 -0.147,0.085c-0.075,-0 -0.113,-0.045 -0.113,-0.095c-0,-0.05 0.031,-0.092 0.128,-0.097l0.132,-0.008Z" style="fill-rule:nonzero;"/>
            </g>
            <g transform="matrix(6.04078,0,0,6.04078,438.398,411.569)">
                <path d="M0.29,-0.414l0.005,-0.051c0,0 -0.02,-0.007 -0.05,-0.007c-0.05,0 -0.101,0.032 -0.118,0.095l0,-0.087l-0.052,0l0,0.464l0.052,-0l0,-0.25c0,-0.071 0.024,-0.172 0.113,-0.172c0.025,0 0.039,0.004 0.05,0.008Z" style="fill-rule:nonzero;"/>
            </g>
            <g transform="matrix(6.04078,0,0,6.04078,440.21,411.569)">
                <path d="M0.265,-0.005l-0.005,-0.045c0,-0 -0.02,0.013 -0.05,0.013c-0.062,-0 -0.068,-0.061 -0.068,-0.112l0,-0.266l0.118,0l0,-0.047l-0.117,0l0,-0.148l-0.053,0l-0,0.148l-0.07,-0l-0,0.047l0.07,-0l-0,0.235c-0,0.075 0.001,0.109 0.017,0.14c0.017,0.031 0.043,0.05 0.088,0.05c0.03,-0 0.053,-0.005 0.07,-0.015Z" style="fill-rule:nonzero;"/>
            </g>
            <g transform="matrix(6.04078,0,0,6.04078,441.902,411.569)">
                <path d="M0.149,-0.629c0,-0.024 -0.019,-0.043 -0.043,-0.043c-0.024,0 -0.043,0.019 -0.043,0.043c0,0.024 0.019,0.043 0.043,0.043c0.024,0 0.043,-0.019 0.043,-0.043Zm-0.017,0.629l0,-0.464l-0.052,0l0,0.464l0.052,-0Z" style="fill-rule:nonzero;"/>
            </g>
            <g transform="matrix(6.04078,0,0,6.04078,443.182,411.569)">
                <path d="M0.265,-0.005l-0.005,-0.045c0,-0 -0.02,0.013 -0.05,0.013c-0.062,-0 -0.068,-0.061 -0.068,-0.112l0,-0.266l0.118,0l0,-0.047l-0.117,0l0,-0.148l-0.053,0l-0,0.148l-0.07,-0l-0,0.047l0.07,-0l-0,0.235c-0,0.075 0.001,0.109 0.017,0.14c0.017,0.031 0.043,0.05 0.088,0.05c0.03,-0 0.053,-0.005 0.07,-0.015Z" style="fill-rule:nonzero;"/>
            </g>
            <g transform="matrix(6.04078,0,0,6.04078,444.874,411.569)">
                <path d="M0.149,-0.629c0,-0.024 -0.019,-0.043 -0.043,-0.043c-0.024,0 -0.043,0.019 -0.043,0.043c0,0.024 0.019,0.043 0.043,0.043c0.024,0 0.043,-0.019 0.043,-0.043Zm-0.017,0.629l0,-0.464l-0.052,0l0,0.464l0.052,-0Z" style="fill-rule:nonzero;"/>
            </g>
            <g transform="matrix(6.04078,0,0,6.04078,446.154,411.569)">
                <path d="M0.515,-0.23c0,-0.14 -0.105,-0.242 -0.238,-0.242c-0.132,-0 -0.237,0.102 -0.237,0.242c-0,0.14 0.105,0.24 0.237,0.24c0.133,-0 0.238,-0.1 0.238,-0.24Zm-0.055,-0.002c0,0.107 -0.07,0.195 -0.183,0.195c-0.112,-0 -0.182,-0.088 -0.182,-0.195c-0,-0.108 0.07,-0.195 0.182,-0.195c0.113,0 0.183,0.087 0.183,0.195Z" style="fill-rule:nonzero;"/>
            </g>
            <g transform="matrix(6.04078,0,0,6.04078,449.507,411.569)">
                <path d="M0.441,-0l0,-0.277c0,-0.11 -0.031,-0.195 -0.164,-0.195c-0.067,0 -0.127,0.039 -0.15,0.094l-0,-0.086l-0.052,0l-0,0.464l0.052,-0l-0,-0.23c-0,-0.11 0.048,-0.197 0.148,-0.197c0.1,0 0.113,0.077 0.113,0.152l0,0.275l0.053,-0Z" style="fill-rule:nonzero;"/>
            </g>
        </g>
        <g transform="matrix(3.97299,0,0,3.97302,-1083.37,-1260.73)">
            <g transform="matrix(6.04078,0,0,6.04078,432.309,399.487)">
                <path d="M0.041,-0.706l0.178,0l0,0.569l0.342,-0l0,0.137l-0.52,-0l-0,-0.706Z" style="fill-rule:nonzero;"/>
            </g>
            <g transform="matrix(6.04078,0,0,6.04078,435.831,399.487)">
                <path d="M0.025,-0.706l0.177,0l0,0.382c0,0.057 0.014,0.101 0.042,0.134c0.027,0.033 0.069,0.05 0.125,0.05c0.068,-0 0.115,-0.018 0.141,-0.055c0.021,-0.03 0.032,-0.081 0.032,-0.152l0,-0.359l0.179,0l-0,0.405c-0,0.104 -0.033,0.183 -0.098,0.238c-0.061,0.051 -0.145,0.077 -0.251,0.077c-0.087,-0 -0.161,-0.02 -0.222,-0.059c-0.069,-0.045 -0.11,-0.107 -0.121,-0.188c-0.001,-0.01 -0.002,-0.022 -0.003,-0.036c-0.001,-0.014 -0.001,-0.027 -0.001,-0.04l-0,-0.397Z" style="fill-rule:nonzero;"/>
            </g>
            <g transform="matrix(6.04078,0,0,6.04078,440.694,399.487)">
                <path d="M0.029,-0.706l0.151,0l0.205,0.274l0.206,-0.274l0.148,0l0,0.706l-0.174,-0l0,-0.292c0,-0.024 0,-0.041 0.001,-0.051c0.001,-0.009 0.004,-0.039 0.009,-0.089c-0.022,0.036 -0.05,0.076 -0.083,0.119c-0.041,0.051 -0.071,0.09 -0.09,0.115l-0.035,-0c-0.037,-0.047 -0.068,-0.087 -0.093,-0.12c-0.047,-0.062 -0.074,-0.1 -0.079,-0.114c0,0.021 0.001,0.056 0.004,0.103c0.003,0.047 0.004,0.078 0.004,0.092l0,0.237l-0.174,-0l0,-0.706Z" style="fill-rule:nonzero;"/>
            </g>
            <g transform="matrix(6.04078,0,0,6.04078,445.683,399.487)">
                <rect x="0.057" y="-0.706" width="0.166" height="0.706" style="fill-rule:nonzero;"/>
            </g>
            <g transform="matrix(6.04078,0,0,6.04078,447.502,399.487)">
                <rect x="-0.001" y="-0.33" width="0.307" height="0.159" style="fill-rule:nonzero;"/>
            </g>
            <g transform="matrix(6.04078,0,0,6.04078,449.567,399.487)">
                <path d="M0.043,-0.706l0.463,0l0,0.136l-0.286,-0l0,0.141l0.282,-0l0,0.135l-0.282,-0l0,0.294l-0.177,-0l0,-0.706Z" style="fill-rule:nonzero;"/>
            </g>
            <g transform="matrix(6.04078,0,0,6.04078,427.775,405.528)">
                <path d="M0.625,-0l-0.295,-0.692l-0.03,0l-0.295,0.692l0.057,-0l0.086,-0.207l0.329,0l0.085,0.207l0.063,-0Zm-0.169,-0.257l-0.288,0l0.144,-0.353l0.144,0.353Z" style="fill-rule:nonzero;"/>
            </g>
            <g transform="matrix(6.04078,0,0,6.04078,431.521,405.528)">
                <path d="M0.457,-0.07l-0.03,-0.035c-0,0 -0.05,0.068 -0.155,0.068c-0.105,0 -0.177,-0.083 -0.177,-0.198c-0,-0.115 0.082,-0.19 0.175,-0.19c0.092,0 0.132,0.045 0.152,0.068l0.033,-0.035c-0.01,-0.013 -0.06,-0.08 -0.183,-0.08c-0.122,0 -0.232,0.097 -0.232,0.24c-0,0.142 0.102,0.242 0.227,0.242c0.125,0 0.173,-0.06 0.19,-0.08Z" style="fill-rule:nonzero;"/>
            </g>
            <g transform="matrix(6.04078,0,0,6.04078,434.36,405.528)">
                <path d="M0.457,-0.07l-0.03,-0.035c-0,0 -0.05,0.068 -0.155,0.068c-0.105,0 -0.177,-0.083 -0.177,-0.198c-0,-0.115 0.082,-0.19 0.175,-0.19c0.092,0 0.132,0.045 0.152,0.068l0.033,-0.035c-0.01,-0.013 -0.06,-0.08 -0.183,-0.08c-0.122,0 -0.232,0.097 -0.232,0.24c-0,0.142 0.102,0.242 0.227,0.242c0.125,0 0.173,-0.06 0.19,-0.08Z" style="fill-rule:nonzero;"/>
            </g>
            <g transform="matrix(6.04078,0,0,6.04078,437.199,405.528)">
                <path d="M0.475,-0.255c0,-0.125 -0.088,-0.217 -0.21,-0.217c-0.123,-0 -0.225,0.097 -0.225,0.24c-0,0.142 0.087,0.242 0.222,0.242c0.135,-0 0.193,-0.07 0.193,-0.07l-0.025,-0.037c0,0 -0.058,0.06 -0.163,0.06c-0.105,0 -0.167,-0.073 -0.172,-0.183l0.377,0c0,0 0.003,-0.02 0.003,-0.035Zm-0.053,-0.01l-0.325,0c0.003,-0.065 0.05,-0.162 0.165,-0.162c0.115,0 0.16,0.102 0.16,0.162Z" style="fill-rule:nonzero;"/>
            </g>
            <g transform="matrix(6.04078,0,0,6.04078,440.28,405.528)">
                <rect x="0.08" y="-0.69" width="0.052" height="0.69" style="fill-rule:nonzero;"/>
            </g>
            <g transform="matrix(6.04078,0,0,6.04078,441.56,405.528)">
                <path d="M0.475,-0.255c0,-0.125 -0.088,-0.217 -0.21,-0.217c-0.123,-0 -0.225,0.097 -0.225,0.24c-0,0.142 0.087,0.242 0.222,0.242c0.135,-0 0.193,-0.07 0.193,-0.07l-0.025,-0.037c0,0 -0.058,0.06 -0.163,0.06c-0.105,0 -0.167,-0.073 -0.172,-0.183l0.377,0c0,0 0.003,-0.02 0.003,-0.035Zm-0.053,-0.01l-0.325,0c0.003,-0.065 0.05,-0.162 0.165,-0.162c0.115,0 0.16,0.102 0.16,0.162Z" style="fill-rule:nonzero;"/>
            </g>
            <g transform="matrix(6.04078,0,0,6.04078,444.641,405.528)">
                <path d="M0.29,-0.414l0.005,-0.051c0,0 -0.02,-0.007 -0.05,-0.007c-0.05,0 -0.101,0.032 -0.118,0.095l0,-0.087l-0.052,0l0,0.464l0.052,-0l0,-0.25c0,-0.071 0.024,-0.172 0.113,-0.172c0.025,0 0.039,0.004 0.05,0.008Z" style="fill-rule:nonzero;"/>
            </g>
            <g transform="matrix(6.04078,0,0,6.04078,446.333,405.528)">
                <path d="M0.395,-0l0,-0.275c0,-0.123 -0.056,-0.197 -0.185,-0.197c-0.07,0 -0.125,0.027 -0.155,0.047l0.02,0.038c0.01,-0.008 0.065,-0.04 0.137,-0.04c0.073,0 0.13,0.042 0.13,0.127l0,0.025l-0.127,0.005c-0.125,0.005 -0.185,0.06 -0.185,0.14c-0,0.08 0.065,0.14 0.155,0.14c0.09,-0 0.14,-0.055 0.157,-0.075l0,0.065l0.053,-0Zm-0.053,-0.235l0,0.115c-0.022,0.035 -0.072,0.085 -0.147,0.085c-0.075,-0 -0.113,-0.045 -0.113,-0.095c-0,-0.05 0.031,-0.092 0.128,-0.097l0.132,-0.008Z" style="fill-rule:nonzero;"/>
            </g>
            <g transform="matrix(6.04078,0,0,6.04078,449.111,405.528)">
                <path d="M0.265,-0.005l-0.005,-0.045c0,-0 -0.02,0.013 -0.05,0.013c-0.062,-0 -0.068,-0.061 -0.068,-0.112l0,-0.266l0.118,0l0,-0.047l-0.117,0l0,-0.148l-0.053,0l-0,0.148l-0.07,-0l-0,0.047l0.07,-0l-0,0.235c-0,0.075 0.001,0.109 0.017,0.14c0.017,0.031 0.043,0.05 0.088,0.05c0.03,-0 0.053,-0.005 0.07,-0.015Z" style="fill-rule:nonzero;"/>
            </g>
            <g transform="matrix(6.04078,0,0,6.04078,450.803,405.528)">
                <path d="M0.475,-0.255c0,-0.125 -0.088,-0.217 -0.21,-0.217c-0.123,-0 -0.225,0.097 -0.225,0.24c-0,0.142 0.087,0.242 0.222,0.242c0.135,-0 0.193,-0.07 0.193,-0.07l-0.025,-0.037c0,0 -0.058,0.06 -0.163,0.06c-0.105,0 -0.167,-0.073 -0.172,-0.183l0.377,0c0,0 0.003,-0.02 0.003,-0.035Zm-0.053,-0.01l-0.325,0c0.003,-0.065 0.05,-0.162 0.165,-0.162c0.115,0 0.16,0.102 0.16,0.162Z" style="fill-rule:nonzero;"/>
            </g>
            <g transform="matrix(6.04078,0,0,6.04078,453.914,405.528)">
                <path d="M0.04,-0.232c0,0.137 0.09,0.242 0.23,0.242c0.07,0 0.133,-0.03 0.172,-0.096l-0,0.086l0.053,0l-0,-0.69l-0.053,0l-0,0.313c-0.045,-0.068 -0.107,-0.095 -0.174,-0.095c-0.138,0 -0.228,0.102 -0.228,0.24Zm0.055,0c0,-0.108 0.063,-0.195 0.175,-0.195c0.113,0 0.175,0.087 0.175,0.195c-0,0.107 -0.062,0.195 -0.175,0.195c-0.112,0 -0.175,-0.088 -0.175,-0.195Z" style="fill-rule:nonzero;"/>
            </g>
            <g transform="matrix(6.04078,0,0,6.04078,432.986,411.569)">
                <path d="M0.477,-0.18c0,-0.105 -0.084,-0.151 -0.1,-0.16c-0.016,-0.009 -0.093,-0.041 -0.142,-0.062c-0.049,-0.021 -0.103,-0.052 -0.103,-0.13c0,-0.078 0.064,-0.12 0.144,-0.12c0.08,0 0.12,0.042 0.146,0.075l0.038,-0.033c-0.006,-0.01 -0.064,-0.09 -0.18,-0.09c-0.116,0 -0.203,0.07 -0.203,0.17c-0,0.1 0.073,0.145 0.1,0.16c0.028,0.015 0.073,0.034 0.113,0.05c0.04,0.016 0.132,0.05 0.132,0.14c-0,0.09 -0.072,0.145 -0.161,0.145c-0.089,0 -0.149,-0.061 -0.174,-0.107l-0.042,0.03c0.015,0.028 0.077,0.124 0.211,0.124c0.134,0 0.221,-0.087 0.221,-0.192Z" style="fill-rule:nonzero;"/>
            </g>
            <g transform="matrix(6.04078,0,0,6.04078,436.139,411.569)">
                <path d="M0.265,-0.005l-0.005,-0.045c0,-0 -0.02,0.013 -0.05,0.013c-0.062,-0 -0.068,-0.061 -0.068,-0.112l0,-0.266l0.118,0l0,-0.047l-0.117,0l0,-0.148l-0.053,0l-0,0.148l-0.07,-0l-0,0.047l0.07,-0l-0,0.235c-0,0.075 0.001,0.109 0.017,0.14c0.017,0.031 0.043,0.05 0.088,0.05c0.03,-0 0.053,-0.005 0.07,-0.015Z" style="fill-rule:nonzero;"/>
            </g>
            <g transform="matrix(6.04078,0,0,6.04078,437.83,411.569)">
                <path d="M0.515,-0.23c0,-0.14 -0.105,-0.242 -0.238,-0.242c-0.132,-0 -0.237,0.102 -0.237,0.242c-0,0.14 0.105,0.24 0.237,0.24c0.133,-0 0.238,-0.1 0.238,-0.24Zm-0.055,-0.002c0,0.107 -0.07,0.195 -0.183,0.195c-0.112,-0 -0.182,-0.088 -0.182,-0.195c-0,-0.108 0.07,-0.195 0.182,-0.195c0.113,0 0.183,0.087 0.183,0.195Z" style="fill-rule:nonzero;"/>
            </g>
            <g transform="matrix(6.04078,0,0,6.04078,441.183,411.569)">
                <path d="M0.29,-0.414l0.005,-0.051c0,0 -0.02,-0.007 -0.05,-0.007c-0.05,0 -0.101,0.032 -0.118,0.095l0,-0.087l-0.052,0l0,0.464l0.052,-0l0,-0.25c0,-0.071 0.024,-0.172 0.113,-0.172c0.025,0 0.039,0.004 0.05,0.008Z" style="fill-rule:nonzero;"/>
            </g>
            <g transform="matrix(6.04078,0,0,6.04078,442.874,411.569)">
                <path d="M0.395,-0l0,-0.275c0,-0.123 -0.056,-0.197 -0.185,-0.197c-0.07,0 -0.125,0.027 -0.155,0.047l0.02,0.038c0.01,-0.008 0.065,-0.04 0.137,-0.04c0.073,0 0.13,0.042 0.13,0.127l0,0.025l-0.127,0.005c-0.125,0.005 -0.185,0.06 -0.185,0.14c-0,0.08 0.065,0.14 0.155,0.14c0.09,-0 0.14,-0.055 0.157,-0.075l0,0.065l0.053,-0Zm-0.053,-0.235l0,0.115c-0.022,0.035 -0.072,0.085 -0.147,0.085c-0.075,-0 -0.113,-0.045 -0.113,-0.095c-0,-0.05 0.031,-0.092 0.128,-0.097l0.132,-0.008Z" style="fill-rule:nonzero;"/>
            </g>
            <g transform="matrix(6.04078,0,0,6.04078,445.653,411.569)">
                <path d="M0.495,-0.1l0,-0.364l-0.053,-0l0,0.088c-0.031,-0.055 -0.092,-0.096 -0.175,-0.096c-0.122,-0 -0.227,0.091 -0.227,0.236c-0,0.145 0.105,0.236 0.227,0.236c0.083,-0 0.141,-0.039 0.175,-0.099l-0,0.034c-0,0.122 -0.043,0.218 -0.18,0.218c-0.075,-0 -0.145,-0.038 -0.17,-0.063l-0.03,0.04c-0,-0 0.075,0.07 0.195,0.07c0.12,-0 0.175,-0.06 0.2,-0.1c0.025,-0.04 0.038,-0.095 0.038,-0.2Zm-0.05,-0.137c-0,0.105 -0.06,0.19 -0.175,0.19c-0.115,-0 -0.175,-0.085 -0.175,-0.19c0,-0.105 0.06,-0.189 0.175,-0.189c0.115,-0 0.175,0.084 0.175,0.189Z" style="fill-rule:nonzero;"/>
            </g>
            <g transform="matrix(6.04078,0,0,6.04078,449.096,411.569)">
                <path d="M0.475,-0.255c0,-0.125 -0.088,-0.217 -0.21,-0.217c-0.123,-0 -0.225,0.097 -0.225,0.24c-0,0.142 0.087,0.242 0.222,0.242c0.135,-0 0.193,-0.07 0.193,-0.07l-0.025,-0.037c0,0 -0.058,0.06 -0.163,0.06c-0.105,0 -0.167,-0.073 -0.172,-0.183l0.377,0c0,0 0.003,-0.02 0.003,-0.035Zm-0.053,-0.01l-0.325,0c0.003,-0.065 0.05,-0.162 0.165,-0.162c0.115,0 0.16,0.102 0.16,0.162Z" style="fill-rule:nonzero;"/>
            </g>
        </g>
        <g transform="matrix(3.97299,0,0,3.97302,-1153.66,-1094.7)">
            <g transform="matrix(6.04078,0,0,6.04078,432.252,399.487)">
                <path d="M0.041,-0.706l0.178,0l0,0.569l0.342,-0l0,0.137l-0.52,-0l-0,-0.706Z" style="fill-rule:nonzero;"/>
            </g>
            <g transform="matrix(6.04078,0,0,6.04078,435.773,399.487)">
                <path d="M0.025,-0.706l0.177,0l0,0.382c0,0.057 0.014,0.101 0.042,0.134c0.027,0.033 0.069,0.05 0.125,0.05c0.068,-0 0.115,-0.018 0.141,-0.055c0.021,-0.03 0.032,-0.081 0.032,-0.152l0,-0.359l0.179,0l-0,0.405c-0,0.104 -0.033,0.183 -0.098,0.238c-0.061,0.051 -0.145,0.077 -0.251,0.077c-0.087,-0 -0.161,-0.02 -0.222,-0.059c-0.069,-0.045 -0.11,-0.107 -0.121,-0.188c-0.001,-0.01 -0.002,-0.022 -0.003,-0.036c-0.001,-0.014 -0.001,-0.027 -0.001,-0.04l-0,-0.397Z" style="fill-rule:nonzero;"/>
            </g>
            <g transform="matrix(6.04078,0,0,6.04078,440.636,399.487)">
                <path d="M0.029,-0.706l0.151,0l0.205,0.274l0.206,-0.274l0.148,0l0,0.706l-0.174,-0l0,-0.292c0,-0.024 0,-0.041 0.001,-0.051c0.001,-0.009 0.004,-0.039 0.009,-0.089c-0.022,0.036 -0.05,0.076 -0.083,0.119c-0.041,0.051 -0.071,0.09 -0.09,0.115l-0.035,-0c-0.037,-0.047 -0.068,-0.087 -0.093,-0.12c-0.047,-0.062 -0.074,-0.1 -0.079,-0.114c0,0.021 0.001,0.056 0.004,0.103c0.003,0.047 0.004,0.078 0.004,0.092l0,0.237l-0.174,-0l0,-0.706Z" style="fill-rule:nonzero;"/>
            </g>
            <g transform="matrix(6.04078,0,0,6.04078,445.626,399.487)">
                <rect x="0.057" y="-0.706" width="0.166" height="0.706" style="fill-rule:nonzero;"/>
            </g>
            <g transform="matrix(6.04078,0,0,6.04078,447.444,399.487)">
                <rect x="-0.001" y="-0.33" width="0.307" height="0.159" style="fill-rule:nonzero;"/>
            </g>
            <g transform="matrix(6.04078,0,0,6.04078,449.51,399.487)">
                <path d="M0.042,-0.706l0.282,0c0.067,0 0.122,0.019 0.163,0.056c0.042,0.037 0.063,0.089 0.063,0.156c0,0.091 -0.035,0.153 -0.106,0.184c-0.045,0.02 -0.12,0.03 -0.225,0.03l-0,0.28l-0.177,-0l-0,-0.706Zm0.25,0.286c0.02,-0 0.037,-0.007 0.052,-0.021c0.015,-0.013 0.023,-0.03 0.023,-0.05c-0,-0.029 -0.008,-0.049 -0.025,-0.061c-0.017,-0.011 -0.04,-0.017 -0.069,-0.017l-0.054,0.001l-0,0.148l0.073,-0Z" style="fill-rule:nonzero;"/>
            </g>
            <g transform="matrix(6.04078,0,0,6.04078,435.402,405.528)">
                <path d="M0.385,-0l0,-0.049l-0.246,0l0,-0.641l-0.054,0l-0,0.69l0.3,-0Z" style="fill-rule:nonzero;"/>
            </g>
            <g transform="matrix(6.04078,0,0,6.04078,437.788,405.528)">
                <path d="M0.432,-0l0,-0.464l-0.052,0l0,0.249c0,0.09 -0.04,0.18 -0.143,0.18c-0.102,0 -0.115,-0.075 -0.115,-0.145l0,-0.284l-0.052,0l0,0.276c0,0.114 0.032,0.198 0.16,0.198c0.065,0 0.12,-0.03 0.15,-0.085l0,0.075l0.052,0Z" style="fill-rule:nonzero;"/>
            </g>
            <g transform="matrix(6.04078,0,0,6.04078,440.851,405.528)">
                <path d="M0.357,-0.127c0,-0.088 -0.087,-0.118 -0.145,-0.138c-0.057,-0.02 -0.107,-0.041 -0.107,-0.089c0,-0.048 0.037,-0.074 0.089,-0.074c0.052,0 0.084,0.018 0.116,0.053l0.032,-0.032c-0.036,-0.041 -0.078,-0.065 -0.146,-0.065c-0.068,0 -0.141,0.04 -0.141,0.124c0,0.084 0.087,0.114 0.127,0.128c0.04,0.014 0.123,0.035 0.123,0.095c0,0.06 -0.051,0.088 -0.109,0.088c-0.058,0 -0.104,-0.029 -0.134,-0.073l-0.037,0.03c0.029,0.048 0.083,0.09 0.169,0.09c0.086,0 0.163,-0.05 0.163,-0.137Z" style="fill-rule:nonzero;"/>
            </g>
            <g transform="matrix(6.04078,0,0,6.04078,443.207,405.528)">
                <path d="M0.265,-0.005l-0.005,-0.045c0,-0 -0.02,0.013 -0.05,0.013c-0.062,-0 -0.068,-0.061 -0.068,-0.112l0,-0.266l0.118,0l0,-0.047l-0.117,0l0,-0.148l-0.053,0l-0,0.148l-0.07,-0l-0,0.047l0.07,-0l-0,0.235c-0,0.075 0.001,0.109 0.017,0.14c0.017,0.031 0.043,0.05 0.088,0.05c0.03,-0 0.053,-0.005 0.07,-0.015Z" style="fill-rule:nonzero;"/>
            </g>
            <g transform="matrix(6.04078,0,0,6.04078,444.898,405.528)">
                <path d="M0.29,-0.414l0.005,-0.051c0,0 -0.02,-0.007 -0.05,-0.007c-0.05,0 -0.101,0.032 -0.118,0.095l0,-0.087l-0.052,0l0,0.464l0.052,-0l0,-0.25c0,-0.071 0.024,-0.172 0.113,-0.172c0.025,0 0.039,0.004 0.05,0.008Z" style="fill-rule:nonzero;"/>
            </g>
            <g transform="matrix(6.04078,0,0,6.04078,446.68,405.528)">
                <path d="M0.475,-0.255c0,-0.125 -0.088,-0.217 -0.21,-0.217c-0.123,-0 -0.225,0.097 -0.225,0.24c-0,0.142 0.087,0.242 0.222,0.242c0.135,-0 0.193,-0.07 0.193,-0.07l-0.025,-0.037c0,0 -0.058,0.06 -0.163,0.06c-0.105,0 -0.167,-0.073 -0.172,-0.183l0.377,0c0,0 0.003,-0.02 0.003,-0.035Zm-0.053,-0.01l-0.325,0c0.003,-0.065 0.05,-0.162 0.165,-0.162c0.115,0 0.16,0.102 0.16,0.162Z" style="fill-rule:nonzero;"/>
            </g>
            <g transform="matrix(6.04078,0,0,6.04078,432.986,411.569)">
                <path d="M0.477,-0.18c0,-0.105 -0.084,-0.151 -0.1,-0.16c-0.016,-0.009 -0.093,-0.041 -0.142,-0.062c-0.049,-0.021 -0.103,-0.052 -0.103,-0.13c0,-0.078 0.064,-0.12 0.144,-0.12c0.08,0 0.12,0.042 0.146,0.075l0.038,-0.033c-0.006,-0.01 -0.064,-0.09 -0.18,-0.09c-0.116,0 -0.203,0.07 -0.203,0.17c-0,0.1 0.073,0.145 0.1,0.16c0.028,0.015 0.073,0.034 0.113,0.05c0.04,0.016 0.132,0.05 0.132,0.14c-0,0.09 -0.072,0.145 -0.161,0.145c-0.089,0 -0.149,-0.061 -0.174,-0.107l-0.042,0.03c0.015,0.028 0.077,0.124 0.211,0.124c0.134,0 0.221,-0.087 0.221,-0.192Z" style="fill-rule:nonzero;"/>
            </g>
            <g transform="matrix(6.04078,0,0,6.04078,436.139,411.569)">
                <path d="M0.265,-0.005l-0.005,-0.045c0,-0 -0.02,0.013 -0.05,0.013c-0.062,-0 -0.068,-0.061 -0.068,-0.112l0,-0.266l0.118,0l0,-0.047l-0.117,0l0,-0.148l-0.053,0l-0,0.148l-0.07,-0l-0,0.047l0.07,-0l-0,0.235c-0,0.075 0.001,0.109 0.017,0.14c0.017,0.031 0.043,0.05 0.088,0.05c0.03,-0 0.053,-0.005 0.07,-0.015Z" style="fill-rule:nonzero;"/>
            </g>
            <g transform="matrix(6.04078,0,0,6.04078,437.83,411.569)">
                <path d="M0.515,-0.23c0,-0.14 -0.105,-0.242 -0.238,-0.242c-0.132,-0 -0.237,0.102 -0.237,0.242c-0,0.14 0.105,0.24 0.237,0.24c0.133,-0 0.238,-0.1 0.238,-0.24Zm-0.055,-0.002c0,0.107 -0.07,0.195 -0.183,0.195c-0.112,-0 -0.182,-0.088 -0.182,-0.195c-0,-0.108 0.07,-0.195 0.182,-0.195c0.113,0 0.183,0.087 0.183,0.195Z" style="fill-rule:nonzero;"/>
            </g>
            <g transform="matrix(6.04078,0,0,6.04078,441.183,411.569)">
                <path d="M0.29,-0.414l0.005,-0.051c0,0 -0.02,-0.007 -0.05,-0.007c-0.05,0 -0.101,0.032 -0.118,0.095l0,-0.087l-0.052,0l0,0.464l0.052,-0l0,-0.25c0,-0.071 0.024,-0.172 0.113,-0.172c0.025,0 0.039,0.004 0.05,0.008Z" style="fill-rule:nonzero;"/>
            </g>
            <g transform="matrix(6.04078,0,0,6.04078,442.874,411.569)">
                <path d="M0.395,-0l0,-0.275c0,-0.123 -0.056,-0.197 -0.185,-0.197c-0.07,0 -0.125,0.027 -0.155,0.047l0.02,0.038c0.01,-0.008 0.065,-0.04 0.137,-0.04c0.073,0 0.13,0.042 0.13,0.127l0,0.025l-0.127,0.005c-0.125,0.005 -0.185,0.06 -0.185,0.14c-0,0.08 0.065,0.14 0.155,0.14c0.09,-0 0.14,-0.055 0.157,-0.075l0,0.065l0.053,-0Zm-0.053,-0.235l0,0.115c-0.022,0.035 -0.072,0.085 -0.147,0.085c-0.075,-0 -0.113,-0.045 -0.113,-0.095c-0,-0.05 0.031,-0.092 0.128,-0.097l0.132,-0.008Z" style="fill-rule:nonzero;"/>
            </g>
            <g transform="matrix(6.04078,0,0,6.04078,445.653,411.569)">
                <path d="M0.495,-0.1l0,-0.364l-0.053,-0l0,0.088c-0.031,-0.055 -0.092,-0.096 -0.175,-0.096c-0.122,-0 -0.227,0.091 -0.227,0.236c-0,0.145 0.105,0.236 0.227,0.236c0.083,-0 0.141,-0.039 0.175,-0.099l-0,0.034c-0,0.122 -0.043,0.218 -0.18,0.218c-0.075,-0 -0.145,-0.038 -0.17,-0.063l-0.03,0.04c-0,-0 0.075,0.07 0.195,0.07c0.12,-0 0.175,-0.06 0.2,-0.1c0.025,-0.04 0.038,-0.095 0.038,-0.2Zm-0.05,-0.137c-0,0.105 -0.06,0.19 -0.175,0.19c-0.115,-0 -0.175,-0.085 -0.175,-0.19c0,-0.105 0.06,-0.189 0.175,-0.189c0.115,-0 0.175,0.084 0.175,0.189Z" style="fill-rule:nonzero;"/>
            </g>
            <g transform="matrix(6.04078,0,0,6.04078,449.096,411.569)">
                <path d="M0.475,-0.255c0,-0.125 -0.088,-0.217 -0.21,-0.217c-0.123,-0 -0.225,0.097 -0.225,0.24c-0,0.142 0.087,0.242 0.222,0.242c0.135,-0 0.193,-0.07 0.193,-0.07l-0.025,-0.037c0,0 -0.058,0.06 -0.163,0.06c-0.105,0 -0.167,-0.073 -0.172,-0.183l0.377,0c0,0 0.003,-0.02 0.003,-0.035Zm-0.053,-0.01l-0.325,0c0.003,-0.065 0.05,-0.162 0.165,-0.162c0.115,0 0.16,0.102 0.16,0.162Z" style="fill-rule:nonzero;"/>
            </g>
        </g>
        <g transform="matrix(3.97299,0,0,3.97302,-1379.98,-999.96)">
            <g transform="matrix(6.04078,0,0,6.04078,431.4,399.487)">
                <path d="M0.041,-0.706l0.178,0l0,0.569l0.342,-0l0,0.137l-0.52,-0l-0,-0.706Z" style="fill-rule:nonzero;"/>
            </g>
            <g transform="matrix(6.04078,0,0,6.04078,434.922,399.487)">
                <path d="M0.025,-0.706l0.177,0l0,0.382c0,0.057 0.014,0.101 0.042,0.134c0.027,0.033 0.069,0.05 0.125,0.05c0.068,-0 0.115,-0.018 0.141,-0.055c0.021,-0.03 0.032,-0.081 0.032,-0.152l0,-0.359l0.179,0l-0,0.405c-0,0.104 -0.033,0.183 -0.098,0.238c-0.061,0.051 -0.145,0.077 -0.251,0.077c-0.087,-0 -0.161,-0.02 -0.222,-0.059c-0.069,-0.045 -0.11,-0.107 -0.121,-0.188c-0.001,-0.01 -0.002,-0.022 -0.003,-0.036c-0.001,-0.014 -0.001,-0.027 -0.001,-0.04l-0,-0.397Z" style="fill-rule:nonzero;"/>
            </g>
            <g transform="matrix(6.04078,0,0,6.04078,439.784,399.487)">
                <path d="M0.029,-0.706l0.151,0l0.205,0.274l0.206,-0.274l0.148,0l0,0.706l-0.174,-0l0,-0.292c0,-0.024 0,-0.041 0.001,-0.051c0.001,-0.009 0.004,-0.039 0.009,-0.089c-0.022,0.036 -0.05,0.076 -0.083,0.119c-0.041,0.051 -0.071,0.09 -0.09,0.115l-0.035,-0c-0.037,-0.047 -0.068,-0.087 -0.093,-0.12c-0.047,-0.062 -0.074,-0.1 -0.079,-0.114c0,0.021 0.001,0.056 0.004,0.103c0.003,0.047 0.004,0.078 0.004,0.092l0,0.237l-0.174,-0l0,-0.706Z" style="fill-rule:nonzero;"/>
            </g>
            <g transform="matrix(6.04078,0,0,6.04078,444.774,399.487)">
                <rect x="0.057" y="-0.706" width="0.166" height="0.706" style="fill-rule:nonzero;"/>
            </g>
            <g transform="matrix(6.04078,0,0,6.04078,446.592,399.487)">
                <rect x="-0.001" y="-0.33" width="0.307" height="0.159" style="fill-rule:nonzero;"/>
            </g>
            <g transform="matrix(6.04078,0,0,6.04078,448.658,399.487)">
                <path d="M0.385,-0.72c0.113,-0 0.208,0.032 0.283,0.095c0.079,0.067 0.119,0.156 0.119,0.268c0,0.114 -0.038,0.205 -0.115,0.273c-0.073,0.065 -0.168,0.098 -0.283,0.098c-0.115,-0 -0.21,-0.031 -0.284,-0.094c-0.079,-0.067 -0.118,-0.157 -0.118,-0.27c0,-0.117 0.038,-0.208 0.113,-0.275c0.072,-0.063 0.167,-0.095 0.285,-0.095Zm0.003,0.578c0.061,0 0.111,-0.019 0.152,-0.058c0.041,-0.04 0.062,-0.089 0.062,-0.15c-0,-0.065 -0.02,-0.118 -0.06,-0.157c-0.039,-0.039 -0.092,-0.058 -0.157,-0.058c-0.065,0 -0.116,0.019 -0.156,0.056c-0.039,0.038 -0.058,0.089 -0.058,0.154c0,0.063 0.02,0.115 0.061,0.154c0.041,0.039 0.093,0.059 0.156,0.059Z" style="fill-rule:nonzero;"/>
            </g>
            <g transform="matrix(6.04078,0,0,6.04078,423.813,405.528)">
                <path d="M0.742,-0.344c0,-0.22 -0.162,-0.356 -0.35,-0.356c-0.187,-0 -0.35,0.136 -0.35,0.356c0,0.22 0.163,0.356 0.35,0.356c0.188,-0 0.35,-0.136 0.35,-0.356Zm-0.056,-0.001c0,0.192 -0.136,0.306 -0.294,0.306c-0.156,-0 -0.293,-0.114 -0.293,-0.306c0,-0.194 0.136,-0.307 0.293,-0.307c0.158,-0 0.294,0.114 0.294,0.307Z" style="fill-rule:nonzero;"/>
            </g>
            <g transform="matrix(6.04078,0,0,6.04078,428.555,405.528)">
                <path d="M0.535,-0.232c0,-0.138 -0.09,-0.24 -0.228,-0.24c-0.067,-0 -0.13,0.027 -0.175,0.097l-0,-0.315l-0.052,-0l-0,0.69l0.052,-0l-0,-0.088c0.039,0.068 0.103,0.098 0.173,0.098c0.14,-0 0.23,-0.105 0.23,-0.242Zm-0.055,-0c-0,0.107 -0.063,0.195 -0.175,0.195c-0.113,-0 -0.175,-0.088 -0.175,-0.195c-0,-0.108 0.062,-0.195 0.175,-0.195c0.112,-0 0.175,0.087 0.175,0.195Z" style="fill-rule:nonzero;"/>
            </g>
            <g transform="matrix(6.04078,0,0,6.04078,432.028,405.528)">
                <path d="M0.149,-0.629c0,-0.024 -0.019,-0.043 -0.043,-0.043c-0.024,0 -0.043,0.019 -0.043,0.043c0,0.024 0.019,0.043 0.043,0.043c0.024,0 0.043,-0.019 0.043,-0.043Zm-0.017,0.639l0,-0.474l-0.052,0l0,0.474c0,0.075 -0.003,0.145 -0.078,0.145c-0.025,0 -0.045,-0.007 -0.045,-0.007l-0,0.045c-0,0 0.015,0.007 0.045,0.007c0.112,0 0.13,-0.101 0.13,-0.19Z" style="fill-rule:nonzero;"/>
            </g>
            <g transform="matrix(6.04078,0,0,6.04078,433.309,405.528)">
                <path d="M0.475,-0.255c0,-0.125 -0.088,-0.217 -0.21,-0.217c-0.123,-0 -0.225,0.097 -0.225,0.24c-0,0.142 0.087,0.242 0.222,0.242c0.135,-0 0.193,-0.07 0.193,-0.07l-0.025,-0.037c0,0 -0.058,0.06 -0.163,0.06c-0.105,0 -0.167,-0.073 -0.172,-0.183l0.377,0c0,0 0.003,-0.02 0.003,-0.035Zm-0.053,-0.01l-0.325,0c0.003,-0.065 0.05,-0.162 0.165,-0.162c0.115,0 0.16,0.102 0.16,0.162Z" style="fill-rule:nonzero;"/>
            </g>
            <g transform="matrix(6.04078,0,0,6.04078,436.42,405.528)">
                <path d="M0.457,-0.07l-0.03,-0.035c-0,0 -0.05,0.068 -0.155,0.068c-0.105,0 -0.177,-0.083 -0.177,-0.198c-0,-0.115 0.082,-0.19 0.175,-0.19c0.092,0 0.132,0.045 0.152,0.068l0.033,-0.035c-0.01,-0.013 -0.06,-0.08 -0.183,-0.08c-0.122,0 -0.232,0.097 -0.232,0.24c-0,0.142 0.102,0.242 0.227,0.242c0.125,0 0.173,-0.06 0.19,-0.08Z" style="fill-rule:nonzero;"/>
            </g>
            <g transform="matrix(6.04078,0,0,6.04078,439.259,405.528)">
                <path d="M0.265,-0.005l-0.005,-0.045c0,-0 -0.02,0.013 -0.05,0.013c-0.062,-0 -0.068,-0.061 -0.068,-0.112l0,-0.266l0.118,0l0,-0.047l-0.117,0l0,-0.148l-0.053,0l-0,0.148l-0.07,-0l-0,0.047l0.07,-0l-0,0.235c-0,0.075 0.001,0.109 0.017,0.14c0.017,0.031 0.043,0.05 0.088,0.05c0.03,-0 0.053,-0.005 0.07,-0.015Z" style="fill-rule:nonzero;"/>
            </g>
            <g transform="matrix(6.04078,0,0,6.04078,442.158,405.528)">
                <path d="M0.477,-0.18c0,-0.105 -0.084,-0.151 -0.1,-0.16c-0.016,-0.009 -0.093,-0.041 -0.142,-0.062c-0.049,-0.021 -0.103,-0.052 -0.103,-0.13c0,-0.078 0.064,-0.12 0.144,-0.12c0.08,0 0.12,0.042 0.146,0.075l0.038,-0.033c-0.006,-0.01 -0.064,-0.09 -0.18,-0.09c-0.116,0 -0.203,0.07 -0.203,0.17c-0,0.1 0.073,0.145 0.1,0.16c0.028,0.015 0.073,0.034 0.113,0.05c0.04,0.016 0.132,0.05 0.132,0.14c-0,0.09 -0.072,0.145 -0.161,0.145c-0.089,0 -0.149,-0.061 -0.174,-0.107l-0.042,0.03c0.015,0.028 0.077,0.124 0.211,0.124c0.134,0 0.221,-0.087 0.221,-0.192Z" style="fill-rule:nonzero;"/>
            </g>
            <g transform="matrix(6.04078,0,0,6.04078,445.312,405.528)">
                <path d="M0.265,-0.005l-0.005,-0.045c0,-0 -0.02,0.013 -0.05,0.013c-0.062,-0 -0.068,-0.061 -0.068,-0.112l0,-0.266l0.118,0l0,-0.047l-0.117,0l0,-0.148l-0.053,0l-0,0.148l-0.07,-0l-0,0.047l0.07,-0l-0,0.235c-0,0.075 0.001,0.109 0.017,0.14c0.017,0.031 0.043,0.05 0.088,0.05c0.03,-0 0.053,-0.005 0.07,-0.015Z" style="fill-rule:nonzero;"/>
            </g>
            <g transform="matrix(6.04078,0,0,6.04078,447.003,405.528)">
                <path d="M0.515,-0.23c0,-0.14 -0.105,-0.242 -0.238,-0.242c-0.132,-0 -0.237,0.102 -0.237,0.242c-0,0.14 0.105,0.24 0.237,0.24c0.133,-0 0.238,-0.1 0.238,-0.24Zm-0.055,-0.002c0,0.107 -0.07,0.195 -0.183,0.195c-0.112,-0 -0.182,-0.088 -0.182,-0.195c-0,-0.108 0.07,-0.195 0.182,-0.195c0.113,0 0.183,0.087 0.183,0.195Z" style="fill-rule:nonzero;"/>
            </g>
            <g transform="matrix(6.04078,0,0,6.04078,450.356,405.528)">
                <path d="M0.29,-0.414l0.005,-0.051c0,0 -0.02,-0.007 -0.05,-0.007c-0.05,0 -0.101,0.032 -0.118,0.095l0,-0.087l-0.052,0l0,0.464l0.052,-0l0,-0.25c0,-0.071 0.024,-0.172 0.113,-0.172c0.025,0 0.039,0.004 0.05,0.008Z" style="fill-rule:nonzero;"/>
            </g>
            <g transform="matrix(6.04078,0,0,6.04078,452.047,405.528)">
                <path d="M0.395,-0l0,-0.275c0,-0.123 -0.056,-0.197 -0.185,-0.197c-0.07,0 -0.125,0.027 -0.155,0.047l0.02,0.038c0.01,-0.008 0.065,-0.04 0.137,-0.04c0.073,0 0.13,0.042 0.13,0.127l0,0.025l-0.127,0.005c-0.125,0.005 -0.185,0.06 -0.185,0.14c-0,0.08 0.065,0.14 0.155,0.14c0.09,-0 0.14,-0.055 0.157,-0.075l0,0.065l0.053,-0Zm-0.053,-0.235l0,0.115c-0.022,0.035 -0.072,0.085 -0.147,0.085c-0.075,-0 -0.113,-0.045 -0.113,-0.095c-0,-0.05 0.031,-0.092 0.128,-0.097l0.132,-0.008Z" style="fill-rule:nonzero;"/>
            </g>
            <g transform="matrix(6.04078,0,0,6.04078,454.826,405.528)">
                <path d="M0.495,-0.1l0,-0.364l-0.053,-0l0,0.088c-0.031,-0.055 -0.092,-0.096 -0.175,-0.096c-0.122,-0 -0.227,0.091 -0.227,0.236c-0,0.145 0.105,0.236 0.227,0.236c0.083,-0 0.141,-0.039 0.175,-0.099l-0,0.034c-0,0.122 -0.043,0.218 -0.18,0.218c-0.075,-0 -0.145,-0.038 -0.17,-0.063l-0.03,0.04c-0,-0 0.075,0.07 0.195,0.07c0.12,-0 0.175,-0.06 0.2,-0.1c0.025,-0.04 0.038,-0.095 0.038,-0.2Zm-0.05,-0.137c-0,0.105 -0.06,0.19 -0.175,0.19c-0.115,-0 -0.175,-0.085 -0.175,-0.19c0,-0.105 0.06,-0.189 0.175,-0.189c0.115,-0 0.175,0.084 0.175,0.189Z" style="fill-rule:nonzero;"/>
            </g>
            <g transform="matrix(6.04078,0,0,6.04078,458.269,405.528)">
                <path d="M0.475,-0.255c0,-0.125 -0.088,-0.217 -0.21,-0.217c-0.123,-0 -0.225,0.097 -0.225,0.24c-0,0.142 0.087,0.242 0.222,0.242c0.135,-0 0.193,-0.07 0.193,-0.07l-0.025,-0.037c0,0 -0.058,0.06 -0.163,0.06c-0.105,0 -0.167,-0.073 -0.172,-0.183l0.377,0c0,0 0.003,-0.02 0.003,-0.035Zm-0.053,-0.01l-0.325,0c0.003,-0.065 0.05,-0.162 0.165,-0.162c0.115,0 0.16,0.102 0.16,0.162Z" style="fill-rule:nonzero;"/>
            </g>
            <g transform="matrix(6.04078,0,0,6.04078,433.629,411.569)">
                <path d="M0.477,-0.18c0,-0.105 -0.084,-0.151 -0.1,-0.16c-0.016,-0.009 -0.093,-0.041 -0.142,-0.062c-0.049,-0.021 -0.103,-0.052 -0.103,-0.13c0,-0.078 0.064,-0.12 0.144,-0.12c0.08,0 0.12,0.042 0.146,0.075l0.038,-0.033c-0.006,-0.01 -0.064,-0.09 -0.18,-0.09c-0.116,0 -0.203,0.07 -0.203,0.17c-0,0.1 0.073,0.145 0.1,0.16c0.028,0.015 0.073,0.034 0.113,0.05c0.04,0.016 0.132,0.05 0.132,0.14c-0,0.09 -0.072,0.145 -0.161,0.145c-0.089,0 -0.149,-0.061 -0.174,-0.107l-0.042,0.03c0.015,0.028 0.077,0.124 0.211,0.124c0.134,0 0.221,-0.087 0.221,-0.192Z" style="fill-rule:nonzero;"/>
            </g>
            <g transform="matrix(6.04078,0,0,6.04078,436.782,411.569)">
                <path d="M0.475,-0.255c0,-0.125 -0.088,-0.217 -0.21,-0.217c-0.123,-0 -0.225,0.097 -0.225,0.24c-0,0.142 0.087,0.242 0.222,0.242c0.135,-0 0.193,-0.07 0.193,-0.07l-0.025,-0.037c0,0 -0.058,0.06 -0.163,0.06c-0.105,0 -0.167,-0.073 -0.172,-0.183l0.377,0c0,0 0.003,-0.02 0.003,-0.035Zm-0.053,-0.01l-0.325,0c0.003,-0.065 0.05,-0.162 0.165,-0.162c0.115,0 0.16,0.102 0.16,0.162Z" style="fill-rule:nonzero;"/>
            </g>
            <g transform="matrix(6.04078,0,0,6.04078,439.863,411.569)">
                <path d="M0.29,-0.414l0.005,-0.051c0,0 -0.02,-0.007 -0.05,-0.007c-0.05,0 -0.101,0.032 -0.118,0.095l0,-0.087l-0.052,0l0,0.464l0.052,-0l0,-0.25c0,-0.071 0.024,-0.172 0.113,-0.172c0.025,0 0.039,0.004 0.05,0.008Z" style="fill-rule:nonzero;"/>
            </g>
            <g transform="matrix(6.04078,0,0,6.04078,441.675,411.569)">
                <path d="M0.435,-0.464l-0.055,0l-0.16,0.389l-0.16,-0.389l-0.055,0l0.195,0.464l0.04,-0l0.195,-0.464Z" style="fill-rule:nonzero;"/>
            </g>
            <g transform="matrix(6.04078,0,0,6.04078,444.333,411.569)">
                <path d="M0.149,-0.629c0,-0.024 -0.019,-0.043 -0.043,-0.043c-0.024,0 -0.043,0.019 -0.043,0.043c0,0.024 0.019,0.043 0.043,0.043c0.024,0 0.043,-0.019 0.043,-0.043Zm-0.017,0.629l0,-0.464l-0.052,0l0,0.464l0.052,-0Z" style="fill-rule:nonzero;"/>
            </g>
            <g transform="matrix(6.04078,0,0,6.04078,445.614,411.569)">
                <path d="M0.457,-0.07l-0.03,-0.035c-0,0 -0.05,0.068 -0.155,0.068c-0.105,0 -0.177,-0.083 -0.177,-0.198c-0,-0.115 0.082,-0.19 0.175,-0.19c0.092,0 0.132,0.045 0.152,0.068l0.033,-0.035c-0.01,-0.013 -0.06,-0.08 -0.183,-0.08c-0.122,0 -0.232,0.097 -0.232,0.24c-0,0.142 0.102,0.242 0.227,0.242c0.125,0 0.173,-0.06 0.19,-0.08Z" style="fill-rule:nonzero;"/>
            </g>
            <g transform="matrix(6.04078,0,0,6.04078,448.453,411.569)">
                <path d="M0.475,-0.255c0,-0.125 -0.088,-0.217 -0.21,-0.217c-0.123,-0 -0.225,0.097 -0.225,0.24c-0,0.142 0.087,0.242 0.222,0.242c0.135,-0 0.193,-0.07 0.193,-0.07l-0.025,-0.037c0,0 -0.058,0.06 -0.163,0.06c-0.105,0 -0.167,-0.073 -0.172,-0.183l0.377,0c0,0 0.003,-0.02 0.003,-0.035Zm-0.053,-0.01l-0.325,0c0.003,-0.065 0.05,-0.162 0.165,-0.162c0.115,0 0.16,0.102 0.16,0.162Z" style="fill-rule:nonzero;"/>
            </g>
        </g>
        <g transform="matrix(3.97299,0,0,3.97302,-1661.27,-1272.86)">
            <g transform="matrix(6.04078,0,0,6.04078,431.883,399.487)">
                <path d="M0.041,-0.706l0.178,0l0,0.569l0.342,-0l0,0.137l-0.52,-0l-0,-0.706Z" style="fill-rule:nonzero;"/>
            </g>
            <g transform="matrix(6.04078,0,0,6.04078,435.405,399.487)">
                <path d="M0.025,-0.706l0.177,0l0,0.382c0,0.057 0.014,0.101 0.042,0.134c0.027,0.033 0.069,0.05 0.125,0.05c0.068,-0 0.115,-0.018 0.141,-0.055c0.021,-0.03 0.032,-0.081 0.032,-0.152l0,-0.359l0.179,0l-0,0.405c-0,0.104 -0.033,0.183 -0.098,0.238c-0.061,0.051 -0.145,0.077 -0.251,0.077c-0.087,-0 -0.161,-0.02 -0.222,-0.059c-0.069,-0.045 -0.11,-0.107 -0.121,-0.188c-0.001,-0.01 -0.002,-0.022 -0.003,-0.036c-0.001,-0.014 -0.001,-0.027 -0.001,-0.04l-0,-0.397Z" style="fill-rule:nonzero;"/>
            </g>
            <g transform="matrix(6.04078,0,0,6.04078,440.268,399.487)">
                <path d="M0.029,-0.706l0.151,0l0.205,0.274l0.206,-0.274l0.148,0l0,0.706l-0.174,-0l0,-0.292c0,-0.024 0,-0.041 0.001,-0.051c0.001,-0.009 0.004,-0.039 0.009,-0.089c-0.022,0.036 -0.05,0.076 -0.083,0.119c-0.041,0.051 -0.071,0.09 -0.09,0.115l-0.035,-0c-0.037,-0.047 -0.068,-0.087 -0.093,-0.12c-0.047,-0.062 -0.074,-0.1 -0.079,-0.114c0,0.021 0.001,0.056 0.004,0.103c0.003,0.047 0.004,0.078 0.004,0.092l0,0.237l-0.174,-0l0,-0.706Z" style="fill-rule:nonzero;"/>
            </g>
            <g transform="matrix(6.04078,0,0,6.04078,445.257,399.487)">
                <rect x="0.057" y="-0.706" width="0.166" height="0.706" style="fill-rule:nonzero;"/>
            </g>
            <g transform="matrix(6.04078,0,0,6.04078,447.076,399.487)">
                <rect x="-0.001" y="-0.33" width="0.307" height="0.159" style="fill-rule:nonzero;"/>
            </g>
            <g transform="matrix(6.04078,0,0,6.04078,449.142,399.487)">
                <path d="M0.036,-0.706l0.177,0l0,0.313l0.203,-0.313l0.204,0l-0.229,0.34l0.31,0.366l-0.23,-0l-0.256,-0.32l-0,0.32l-0.179,-0l-0,-0.706Z" style="fill-rule:nonzero;"/>
            </g>
            <g transform="matrix(6.04078,0,0,6.04078,430.473,405.528)">
                <path d="M0.645,-0.095l-0.035,-0.035c-0.05,0.055 -0.125,0.091 -0.22,0.091c-0.17,0 -0.29,-0.127 -0.29,-0.307c-0,-0.18 0.12,-0.305 0.29,-0.305c0.1,0 0.18,0.046 0.215,0.091l0.035,-0.04c-0.05,-0.05 -0.13,-0.1 -0.25,-0.1c-0.195,0 -0.348,0.146 -0.348,0.356c0,0.21 0.148,0.356 0.348,0.356c0.125,0 0.205,-0.052 0.255,-0.107Z" style="fill-rule:nonzero;"/>
            </g>
            <g transform="matrix(6.04078,0,0,6.04078,434.52,405.528)">
                <path d="M0.515,-0.23c0,-0.14 -0.105,-0.242 -0.238,-0.242c-0.132,-0 -0.237,0.102 -0.237,0.242c-0,0.14 0.105,0.24 0.237,0.24c0.133,-0 0.238,-0.1 0.238,-0.24Zm-0.055,-0.002c0,0.107 -0.07,0.195 -0.183,0.195c-0.112,-0 -0.182,-0.088 -0.182,-0.195c-0,-0.108 0.07,-0.195 0.182,-0.195c0.113,0 0.183,0.087 0.183,0.195Z" style="fill-rule:nonzero;"/>
            </g>
            <g transform="matrix(6.04078,0,0,6.04078,437.873,405.528)">
                <path d="M0.441,-0l0,-0.277c0,-0.11 -0.031,-0.195 -0.164,-0.195c-0.067,0 -0.127,0.039 -0.15,0.094l-0,-0.086l-0.052,0l-0,0.464l0.052,-0l-0,-0.23c-0,-0.11 0.048,-0.197 0.148,-0.197c0.1,0 0.113,0.077 0.113,0.152l0,0.275l0.053,-0Z" style="fill-rule:nonzero;"/>
            </g>
            <g transform="matrix(6.04078,0,0,6.04078,440.959,405.528)">
                <path d="M0.265,-0.005l-0.005,-0.045c0,-0 -0.02,0.013 -0.05,0.013c-0.062,-0 -0.068,-0.061 -0.068,-0.112l0,-0.266l0.118,0l0,-0.047l-0.117,0l0,-0.148l-0.053,0l-0,0.148l-0.07,-0l-0,0.047l0.07,-0l-0,0.235c-0,0.075 0.001,0.109 0.017,0.14c0.017,0.031 0.043,0.05 0.088,0.05c0.03,-0 0.053,-0.005 0.07,-0.015Z" style="fill-rule:nonzero;"/>
            </g>
            <g transform="matrix(6.04078,0,0,6.04078,442.651,405.528)">
                <path d="M0.395,-0l0,-0.275c0,-0.123 -0.056,-0.197 -0.185,-0.197c-0.07,0 -0.125,0.027 -0.155,0.047l0.02,0.038c0.01,-0.008 0.065,-0.04 0.137,-0.04c0.073,0 0.13,0.042 0.13,0.127l0,0.025l-0.127,0.005c-0.125,0.005 -0.185,0.06 -0.185,0.14c-0,0.08 0.065,0.14 0.155,0.14c0.09,-0 0.14,-0.055 0.157,-0.075l0,0.065l0.053,-0Zm-0.053,-0.235l0,0.115c-0.022,0.035 -0.072,0.085 -0.147,0.085c-0.075,-0 -0.113,-0.045 -0.113,-0.095c-0,-0.05 0.031,-0.092 0.128,-0.097l0.132,-0.008Z" style="fill-rule:nonzero;"/>
            </g>
            <g transform="matrix(6.04078,0,0,6.04078,445.43,405.528)">
                <path d="M0.149,-0.629c0,-0.024 -0.019,-0.043 -0.043,-0.043c-0.024,0 -0.043,0.019 -0.043,0.043c0,0.024 0.019,0.043 0.043,0.043c0.024,0 0.043,-0.019 0.043,-0.043Zm-0.017,0.629l0,-0.464l-0.052,0l0,0.464l0.052,-0Z" style="fill-rule:nonzero;"/>
            </g>
            <g transform="matrix(6.04078,0,0,6.04078,446.71,405.528)">
                <path d="M0.441,-0l0,-0.277c0,-0.11 -0.031,-0.195 -0.164,-0.195c-0.067,0 -0.127,0.039 -0.15,0.094l-0,-0.086l-0.052,0l-0,0.464l0.052,-0l-0,-0.23c-0,-0.11 0.048,-0.197 0.148,-0.197c0.1,0 0.113,0.077 0.113,0.152l0,0.275l0.053,-0Z" style="fill-rule:nonzero;"/>
            </g>
            <g transform="matrix(6.04078,0,0,6.04078,449.797,405.528)">
                <path d="M0.475,-0.255c0,-0.125 -0.088,-0.217 -0.21,-0.217c-0.123,-0 -0.225,0.097 -0.225,0.24c-0,0.142 0.087,0.242 0.222,0.242c0.135,-0 0.193,-0.07 0.193,-0.07l-0.025,-0.037c0,0 -0.058,0.06 -0.163,0.06c-0.105,0 -0.167,-0.073 -0.172,-0.183l0.377,0c0,0 0.003,-0.02 0.003,-0.035Zm-0.053,-0.01l-0.325,0c0.003,-0.065 0.05,-0.162 0.165,-0.162c0.115,0 0.16,0.102 0.16,0.162Z" style="fill-rule:nonzero;"/>
            </g>
            <g transform="matrix(6.04078,0,0,6.04078,452.878,405.528)">
                <path d="M0.29,-0.414l0.005,-0.051c0,0 -0.02,-0.007 -0.05,-0.007c-0.05,0 -0.101,0.032 -0.118,0.095l0,-0.087l-0.052,0l0,0.464l0.052,-0l0,-0.25c0,-0.071 0.024,-0.172 0.113,-0.172c0.025,0 0.039,0.004 0.05,0.008Z" style="fill-rule:nonzero;"/>
            </g>
            <g transform="matrix(6.04078,0,0,6.04078,434.958,411.569)">
                <path d="M0.645,-0.095l-0.035,-0.035c-0.05,0.055 -0.125,0.091 -0.22,0.091c-0.17,0 -0.29,-0.127 -0.29,-0.307c-0,-0.18 0.12,-0.305 0.29,-0.305c0.1,0 0.18,0.046 0.215,0.091l0.035,-0.04c-0.05,-0.05 -0.13,-0.1 -0.25,-0.1c-0.195,0 -0.348,0.146 -0.348,0.356c0,0.21 0.148,0.356 0.348,0.356c0.125,0 0.205,-0.052 0.255,-0.107Z" style="fill-rule:nonzero;"/>
            </g>
            <g transform="matrix(6.04078,0,0,6.04078,439.035,411.569)">
                <rect x="0.08" y="-0.69" width="0.052" height="0.69" style="fill-rule:nonzero;"/>
            </g>
            <g transform="matrix(6.04078,0,0,6.04078,440.316,411.569)">
                <path d="M0.515,-0.23c0,-0.14 -0.105,-0.242 -0.238,-0.242c-0.132,-0 -0.237,0.102 -0.237,0.242c-0,0.14 0.105,0.24 0.237,0.24c0.133,-0 0.238,-0.1 0.238,-0.24Zm-0.055,-0.002c0,0.107 -0.07,0.195 -0.183,0.195c-0.112,-0 -0.182,-0.088 -0.182,-0.195c-0,-0.108 0.07,-0.195 0.182,-0.195c0.113,0 0.183,0.087 0.183,0.195Z" style="fill-rule:nonzero;"/>
            </g>
            <g transform="matrix(6.04078,0,0,6.04078,443.669,411.569)">
                <path d="M0.432,-0l0,-0.464l-0.052,0l0,0.249c0,0.09 -0.04,0.18 -0.143,0.18c-0.102,0 -0.115,-0.075 -0.115,-0.145l0,-0.284l-0.052,0l0,0.276c0,0.114 0.032,0.198 0.16,0.198c0.065,0 0.12,-0.03 0.15,-0.085l0,0.075l0.052,0Z" style="fill-rule:nonzero;"/>
            </g>
            <g transform="matrix(6.04078,0,0,6.04078,446.731,411.569)">
                <path d="M0.04,-0.232c0,0.137 0.09,0.242 0.23,0.242c0.07,0 0.133,-0.03 0.172,-0.096l-0,0.086l0.053,0l-0,-0.69l-0.053,0l-0,0.313c-0.045,-0.068 -0.107,-0.095 -0.174,-0.095c-0.138,0 -0.228,0.102 -0.228,0.24Zm0.055,0c0,-0.108 0.063,-0.195 0.175,-0.195c0.113,0 0.175,0.087 0.175,0.195c-0,0.107 -0.062,0.195 -0.175,0.195c-0.112,0 -0.175,-0.088 -0.175,-0.195Z" style="fill-rule:nonzero;"/>
            </g>
            <g transform="matrix(6.04078,0,0,6.04078,433.629,417.61)">
                <path d="M0.477,-0.18c0,-0.105 -0.084,-0.151 -0.1,-0.16c-0.016,-0.009 -0.093,-0.041 -0.142,-0.062c-0.049,-0.021 -0.103,-0.052 -0.103,-0.13c0,-0.078 0.064,-0.12 0.144,-0.12c0.08,0 0.12,0.042 0.146,0.075l0.038,-0.033c-0.006,-0.01 -0.064,-0.09 -0.18,-0.09c-0.116,0 -0.203,0.07 -0.203,0.17c-0,0.1 0.073,0.145 0.1,0.16c0.028,0.015 0.073,0.034 0.113,0.05c0.04,0.016 0.132,0.05 0.132,0.14c-0,0.09 -0.072,0.145 -0.161,0.145c-0.089,0 -0.149,-0.061 -0.174,-0.107l-0.042,0.03c0.015,0.028 0.077,0.124 0.211,0.124c0.134,0 0.221,-0.087 0.221,-0.192Z" style="fill-rule:nonzero;"/>
            </g>
            <g transform="matrix(6.04078,0,0,6.04078,436.782,417.61)">
                <path d="M0.475,-0.255c0,-0.125 -0.088,-0.217 -0.21,-0.217c-0.123,-0 -0.225,0.097 -0.225,0.24c-0,0.142 0.087,0.242 0.222,0.242c0.135,-0 0.193,-0.07 0.193,-0.07l-0.025,-0.037c0,0 -0.058,0.06 -0.163,0.06c-0.105,0 -0.167,-0.073 -0.172,-0.183l0.377,0c0,0 0.003,-0.02 0.003,-0.035Zm-0.053,-0.01l-0.325,0c0.003,-0.065 0.05,-0.162 0.165,-0.162c0.115,0 0.16,0.102 0.16,0.162Z" style="fill-rule:nonzero;"/>
            </g>
            <g transform="matrix(6.04078,0,0,6.04078,439.863,417.61)">
                <path d="M0.29,-0.414l0.005,-0.051c0,0 -0.02,-0.007 -0.05,-0.007c-0.05,0 -0.101,0.032 -0.118,0.095l0,-0.087l-0.052,0l0,0.464l0.052,-0l0,-0.25c0,-0.071 0.024,-0.172 0.113,-0.172c0.025,0 0.039,0.004 0.05,0.008Z" style="fill-rule:nonzero;"/>
            </g>
            <g transform="matrix(6.04078,0,0,6.04078,441.675,417.61)">
                <path d="M0.435,-0.464l-0.055,0l-0.16,0.389l-0.16,-0.389l-0.055,0l0.195,0.464l0.04,-0l0.195,-0.464Z" style="fill-rule:nonzero;"/>
            </g>
            <g transform="matrix(6.04078,0,0,6.04078,444.333,417.61)">
                <path d="M0.149,-0.629c0,-0.024 -0.019,-0.043 -0.043,-0.043c-0.024,0 -0.043,0.019 -0.043,0.043c0,0.024 0.019,0.043 0.043,0.043c0.024,0 0.043,-0.019 0.043,-0.043Zm-0.017,0.629l0,-0.464l-0.052,0l0,0.464l0.052,-0Z" style="fill-rule:nonzero;"/>
            </g>
            <g transform="matrix(6.04078,0,0,6.04078,445.614,417.61)">
                <path d="M0.457,-0.07l-0.03,-0.035c-0,0 -0.05,0.068 -0.155,0.068c-0.105,0 -0.177,-0.083 -0.177,-0.198c-0,-0.115 0.082,-0.19 0.175,-0.19c0.092,0 0.132,0.045 0.152,0.068l0.033,-0.035c-0.01,-0.013 -0.06,-0.08 -0.183,-0.08c-0.122,0 -0.232,0.097 -0.232,0.24c-0,0.142 0.102,0.242 0.227,0.242c0.125,0 0.173,-0.06 0.19,-0.08Z" style="fill-rule:nonzero;"/>
            </g>
            <g transform="matrix(6.04078,0,0,6.04078,448.453,417.61)">
                <path d="M0.475,-0.255c0,-0.125 -0.088,-0.217 -0.21,-0.217c-0.123,-0 -0.225,0.097 -0.225,0.24c-0,0.142 0.087,0.242 0.222,0.242c0.135,-0 0.193,-0.07 0.193,-0.07l-0.025,-0.037c0,0 -0.058,0.06 -0.163,0.06c-0.105,0 -0.167,-0.073 -0.172,-0.183l0.377,0c0,0 0.003,-0.02 0.003,-0.035Zm-0.053,-0.01l-0.325,0c0.003,-0.065 0.05,-0.162 0.165,-0.162c0.115,0 0.16,0.102 0.16,0.162Z" style="fill-rule:nonzero;"/>
            </g>
        </g>
        <g transform="matrix(3.97299,0,0,3.97302,-1614.08,-1094.7)">
            <g transform="matrix(6.04078,0,0,6.04078,431.4,399.487)">
                <path d="M0.041,-0.706l0.178,0l0,0.569l0.342,-0l0,0.137l-0.52,-0l-0,-0.706Z" style="fill-opacity:0.5;fill-rule:nonzero;"/>
            </g>
            <g transform="matrix(6.04078,0,0,6.04078,434.922,399.487)">
                <path d="M0.025,-0.706l0.177,0l0,0.382c0,0.057 0.014,0.101 0.042,0.134c0.027,0.033 0.069,0.05 0.125,0.05c0.068,-0 0.115,-0.018 0.141,-0.055c0.021,-0.03 0.032,-0.081 0.032,-0.152l0,-0.359l0.179,0l-0,0.405c-0,0.104 -0.033,0.183 -0.098,0.238c-0.061,0.051 -0.145,0.077 -0.251,0.077c-0.087,-0 -0.161,-0.02 -0.222,-0.059c-0.069,-0.045 -0.11,-0.107 -0.121,-0.188c-0.001,-0.01 -0.002,-0.022 -0.003,-0.036c-0.001,-0.014 -0.001,-0.027 -0.001,-0.04l-0,-0.397Z" style="fill-opacity:0.5;fill-rule:nonzero;"/>
            </g>
            <g transform="matrix(6.04078,0,0,6.04078,439.784,399.487)">
                <path d="M0.029,-0.706l0.151,0l0.205,0.274l0.206,-0.274l0.148,0l0,0.706l-0.174,-0l0,-0.292c0,-0.024 0,-0.041 0.001,-0.051c0.001,-0.009 0.004,-0.039 0.009,-0.089c-0.022,0.036 -0.05,0.076 -0.083,0.119c-0.041,0.051 -0.071,0.09 -0.09,0.115l-0.035,-0c-0.037,-0.047 -0.068,-0.087 -0.093,-0.12c-0.047,-0.062 -0.074,-0.1 -0.079,-0.114c0,0.021 0.001,0.056 0.004,0.103c0.003,0.047 0.004,0.078 0.004,0.092l0,0.237l-0.174,-0l0,-0.706Z" style="fill-opacity:0.5;fill-rule:nonzero;"/>
            </g>
            <g transform="matrix(6.04078,0,0,6.04078,444.774,399.487)">
                <rect x="0.057" y="-0.706" width="0.166" height="0.706" style="fill-opacity:0.5;fill-rule:nonzero;"/>
            </g>
            <g transform="matrix(6.04078,0,0,6.04078,446.592,399.487)">
                <rect x="-0.001" y="-0.33" width="0.307" height="0.159" style="fill-opacity:0.5;fill-rule:nonzero;"/>
            </g>
            <g transform="matrix(6.04078,0,0,6.04078,448.658,399.487)">
                <path d="M0.767,0.059l-0.163,0.12c-0.069,-0.02 -0.13,-0.044 -0.183,-0.073c-0.053,-0.028 -0.107,-0.065 -0.162,-0.11c-0.083,-0.025 -0.149,-0.066 -0.196,-0.122c-0.051,-0.06 -0.076,-0.132 -0.076,-0.217c-0,-0.123 0.038,-0.218 0.114,-0.284c0.072,-0.063 0.171,-0.094 0.296,-0.094c0.111,0 0.203,0.033 0.276,0.098c0.077,0.068 0.115,0.157 0.115,0.266c-0,0.088 -0.025,0.164 -0.075,0.229c-0.049,0.065 -0.117,0.106 -0.202,0.125c0.035,0.023 0.075,0.039 0.118,0.048c0.043,0.009 0.089,0.014 0.138,0.014Zm-0.386,-0.203c0.065,-0 0.119,-0.02 0.16,-0.06c0.042,-0.039 0.063,-0.091 0.063,-0.156c-0,-0.061 -0.021,-0.11 -0.064,-0.148c-0.043,-0.037 -0.095,-0.056 -0.156,-0.056c-0.063,0 -0.115,0.02 -0.155,0.059c-0.04,0.039 -0.06,0.091 -0.06,0.154c0,0.06 0.02,0.109 0.061,0.148c0.04,0.039 0.09,0.059 0.151,0.059Z" style="fill-opacity:0.5;fill-rule:nonzero;"/>
            </g>
            <g transform="matrix(6.04078,0,0,6.04078,430.621,405.528)">
                <path d="M0.467,-0l0,-0.049l-0.328,0l0,-0.293l0.303,-0l0,-0.049l-0.303,-0l0,-0.25l0.321,0l0,-0.049l-0.375,0l-0,0.69l0.382,-0Z" style="fill-opacity:0.5;fill-rule:nonzero;"/>
            </g>
            <g transform="matrix(6.04078,0,0,6.04078,433.732,405.528)">
                <path d="M0.707,-0l0,-0.282c0,-0.093 -0.027,-0.19 -0.155,-0.19c-0.062,0 -0.117,0.037 -0.147,0.097c-0.02,-0.06 -0.065,-0.097 -0.138,-0.097c-0.062,-0 -0.121,0.043 -0.14,0.094l0,-0.086l-0.052,0l0,0.464l0.052,-0l0,-0.242c0,-0.098 0.048,-0.185 0.138,-0.185c0.08,0 0.1,0.067 0.1,0.145l0,0.282l0.052,-0l0,-0.242c0,-0.098 0.048,-0.185 0.138,-0.185c0.09,0 0.1,0.087 0.1,0.145l0,0.282l0.052,-0Z" style="fill-opacity:0.5;fill-rule:nonzero;"/>
            </g>
            <g transform="matrix(6.04078,0,0,6.04078,438.425,405.528)">
                <path d="M0.475,-0.255c0,-0.125 -0.088,-0.217 -0.21,-0.217c-0.123,-0 -0.225,0.097 -0.225,0.24c-0,0.142 0.087,0.242 0.222,0.242c0.135,-0 0.193,-0.07 0.193,-0.07l-0.025,-0.037c0,0 -0.058,0.06 -0.163,0.06c-0.105,0 -0.167,-0.073 -0.172,-0.183l0.377,0c0,0 0.003,-0.02 0.003,-0.035Zm-0.053,-0.01l-0.325,0c0.003,-0.065 0.05,-0.162 0.165,-0.162c0.115,0 0.16,0.102 0.16,0.162Z" style="fill-opacity:0.5;fill-rule:nonzero;"/>
            </g>
            <g transform="matrix(6.04078,0,0,6.04078,441.506,405.528)">
                <path d="M0.29,-0.414l0.005,-0.051c0,0 -0.02,-0.007 -0.05,-0.007c-0.05,0 -0.101,0.032 -0.118,0.095l0,-0.087l-0.052,0l0,0.464l0.052,-0l0,-0.25c0,-0.071 0.024,-0.172 0.113,-0.172c0.025,0 0.039,0.004 0.05,0.008Z" style="fill-opacity:0.5;fill-rule:nonzero;"/>
            </g>
            <g transform="matrix(6.04078,0,0,6.04078,443.288,405.528)">
                <path d="M0.495,-0.1l0,-0.364l-0.053,-0l0,0.088c-0.031,-0.055 -0.092,-0.096 -0.175,-0.096c-0.122,-0 -0.227,0.091 -0.227,0.236c-0,0.145 0.105,0.236 0.227,0.236c0.083,-0 0.141,-0.039 0.175,-0.099l-0,0.034c-0,0.122 -0.043,0.218 -0.18,0.218c-0.075,-0 -0.145,-0.038 -0.17,-0.063l-0.03,0.04c-0,-0 0.075,0.07 0.195,0.07c0.12,-0 0.175,-0.06 0.2,-0.1c0.025,-0.04 0.038,-0.095 0.038,-0.2Zm-0.05,-0.137c-0,0.105 -0.06,0.19 -0.175,0.19c-0.115,-0 -0.175,-0.085 -0.175,-0.19c0,-0.105 0.06,-0.189 0.175,-0.189c0.115,-0 0.175,0.084 0.175,0.189Z" style="fill-opacity:0.5;fill-rule:nonzero;"/>
            </g>
            <g transform="matrix(6.04078,0,0,6.04078,446.731,405.528)">
                <path d="M0.149,-0.629c0,-0.024 -0.019,-0.043 -0.043,-0.043c-0.024,0 -0.043,0.019 -0.043,0.043c0,0.024 0.019,0.043 0.043,0.043c0.024,0 0.043,-0.019 0.043,-0.043Zm-0.017,0.629l0,-0.464l-0.052,0l0,0.464l0.052,-0Z" style="fill-opacity:0.5;fill-rule:nonzero;"/>
            </g>
            <g transform="matrix(6.04078,0,0,6.04078,448.012,405.528)">
                <path d="M0.441,-0l0,-0.277c0,-0.11 -0.031,-0.195 -0.164,-0.195c-0.067,0 -0.127,0.039 -0.15,0.094l-0,-0.086l-0.052,0l-0,0.464l0.052,-0l-0,-0.23c-0,-0.11 0.048,-0.197 0.148,-0.197c0.1,0 0.113,0.077 0.113,0.152l0,0.275l0.053,-0Z" style="fill-opacity:0.5;fill-rule:nonzero;"/>
            </g>
            <g transform="matrix(6.04078,0,0,6.04078,451.099,405.528)">
                <path d="M0.495,-0.1l0,-0.364l-0.053,-0l0,0.088c-0.031,-0.055 -0.092,-0.096 -0.175,-0.096c-0.122,-0 -0.227,0.091 -0.227,0.236c-0,0.145 0.105,0.236 0.227,0.236c0.083,-0 0.141,-0.039 0.175,-0.099l-0,0.034c-0,0.122 -0.043,0.218 -0.18,0.218c-0.075,-0 -0.145,-0.038 -0.17,-0.063l-0.03,0.04c-0,-0 0.075,0.07 0.195,0.07c0.12,-0 0.175,-0.06 0.2,-0.1c0.025,-0.04 0.038,-0.095 0.038,-0.2Zm-0.05,-0.137c-0,0.105 -0.06,0.19 -0.175,0.19c-0.115,-0 -0.175,-0.085 -0.175,-0.19c0,-0.105 0.06,-0.189 0.175,-0.189c0.115,-0 0.175,0.084 0.175,0.189Z" style="fill-opacity:0.5;fill-rule:nonzero;"/>
            </g>
            <g transform="matrix(6.04078,0,0,6.04078,436.843,411.569)">
                <path d="M0.474,-0.641l0,-0.049l-0.464,0l-0,0.049l0.205,0l-0,0.641l0.054,-0l0,-0.641l0.205,0Z" style="fill-opacity:0.5;fill-rule:nonzero;"/>
            </g>
            <g transform="matrix(6.04078,0,0,6.04078,439.223,411.569)">
                <path d="M0.475,-0.255c0,-0.125 -0.088,-0.217 -0.21,-0.217c-0.123,-0 -0.225,0.097 -0.225,0.24c-0,0.142 0.087,0.242 0.222,0.242c0.135,-0 0.193,-0.07 0.193,-0.07l-0.025,-0.037c0,0 -0.058,0.06 -0.163,0.06c-0.105,0 -0.167,-0.073 -0.172,-0.183l0.377,0c0,0 0.003,-0.02 0.003,-0.035Zm-0.053,-0.01l-0.325,0c0.003,-0.065 0.05,-0.162 0.165,-0.162c0.115,0 0.16,0.102 0.16,0.162Z" style="fill-opacity:0.5;fill-rule:nonzero;"/>
            </g>
            <g transform="matrix(6.04078,0,0,6.04078,442.334,411.569)">
                <path d="M0.457,-0.07l-0.03,-0.035c-0,0 -0.05,0.068 -0.155,0.068c-0.105,0 -0.177,-0.083 -0.177,-0.198c-0,-0.115 0.082,-0.19 0.175,-0.19c0.092,0 0.132,0.045 0.152,0.068l0.033,-0.035c-0.01,-0.013 -0.06,-0.08 -0.183,-0.08c-0.122,0 -0.232,0.097 -0.232,0.24c-0,0.142 0.102,0.242 0.227,0.242c0.125,0 0.173,-0.06 0.19,-0.08Z" style="fill-opacity:0.5;fill-rule:nonzero;"/>
            </g>
            <g transform="matrix(6.04078,0,0,6.04078,445.173,411.569)">
                <path d="M0.446,-0l0,-0.277c0,-0.11 -0.031,-0.195 -0.164,-0.195c-0.067,0 -0.127,0.039 -0.15,0.094l-0,-0.312l-0.052,-0l-0,0.69l0.052,-0l-0,-0.23c-0,-0.11 0.048,-0.197 0.148,-0.197c0.1,-0 0.113,0.077 0.113,0.152l0,0.275l0.053,-0Z" style="fill-opacity:0.5;fill-rule:nonzero;"/>
            </g>
        </g>
        <g transform="matrix(3.97299,0,0,3.97302,-1380.13,-1519.87)">
            <g transform="matrix(6.04078,0,0,6.04078,431.644,399.487)">
                <path d="M0.041,-0.706l0.178,0l0,0.569l0.342,-0l0,0.137l-0.52,-0l-0,-0.706Z" style="fill-rule:nonzero;"/>
            </g>
            <g transform="matrix(6.04078,0,0,6.04078,435.166,399.487)">
                <path d="M0.025,-0.706l0.177,0l0,0.382c0,0.057 0.014,0.101 0.042,0.134c0.027,0.033 0.069,0.05 0.125,0.05c0.068,-0 0.115,-0.018 0.141,-0.055c0.021,-0.03 0.032,-0.081 0.032,-0.152l0,-0.359l0.179,0l-0,0.405c-0,0.104 -0.033,0.183 -0.098,0.238c-0.061,0.051 -0.145,0.077 -0.251,0.077c-0.087,-0 -0.161,-0.02 -0.222,-0.059c-0.069,-0.045 -0.11,-0.107 -0.121,-0.188c-0.001,-0.01 -0.002,-0.022 -0.003,-0.036c-0.001,-0.014 -0.001,-0.027 -0.001,-0.04l-0,-0.397Z" style="fill-rule:nonzero;"/>
            </g>
            <g transform="matrix(6.04078,0,0,6.04078,440.029,399.487)">
                <path d="M0.029,-0.706l0.151,0l0.205,0.274l0.206,-0.274l0.148,0l0,0.706l-0.174,-0l0,-0.292c0,-0.024 0,-0.041 0.001,-0.051c0.001,-0.009 0.004,-0.039 0.009,-0.089c-0.022,0.036 -0.05,0.076 -0.083,0.119c-0.041,0.051 -0.071,0.09 -0.09,0.115l-0.035,-0c-0.037,-0.047 -0.068,-0.087 -0.093,-0.12c-0.047,-0.062 -0.074,-0.1 -0.079,-0.114c0,0.021 0.001,0.056 0.004,0.103c0.003,0.047 0.004,0.078 0.004,0.092l0,0.237l-0.174,-0l0,-0.706Z" style="fill-rule:nonzero;"/>
            </g>
            <g transform="matrix(6.04078,0,0,6.04078,445.019,399.487)">
                <rect x="0.057" y="-0.706" width="0.166" height="0.706" style="fill-rule:nonzero;"/>
            </g>
            <g transform="matrix(6.04078,0,0,6.04078,446.837,399.487)">
                <rect x="-0.001" y="-0.33" width="0.307" height="0.159" style="fill-rule:nonzero;"/>
            </g>
            <g transform="matrix(6.04078,0,0,6.04078,448.903,399.487)">
                <path d="M0.667,-0.494c-0.033,-0.022 -0.072,-0.039 -0.116,-0.052c-0.043,-0.013 -0.085,-0.019 -0.126,-0.019c-0.069,0 -0.127,0.018 -0.173,0.053c-0.051,0.039 -0.077,0.092 -0.077,0.159c0,0.068 0.019,0.121 0.057,0.159c0.038,0.038 0.091,0.057 0.159,0.057c0.017,-0 0.035,-0.002 0.052,-0.006c0.018,-0.003 0.037,-0.008 0.056,-0.014l0,-0.083l-0.09,0l0,-0.136l0.261,0.006l-0.001,0.305c-0.049,0.025 -0.097,0.045 -0.145,0.059c-0.047,0.013 -0.096,0.02 -0.146,0.02c-0.105,-0 -0.195,-0.033 -0.27,-0.098c-0.078,-0.068 -0.117,-0.154 -0.117,-0.259c0,-0.111 0.039,-0.202 0.117,-0.273c0.077,-0.07 0.172,-0.105 0.285,-0.105c0.097,0 0.188,0.022 0.274,0.066l0,0.161Z" style="fill-rule:nonzero;"/>
            </g>
            <g transform="matrix(6.04078,0,0,6.04078,436.873,405.528)">
                <path d="M0.675,-0.095l0,-0.256l-0.265,-0l0,0.049l0.212,0l0,0.187c0,-0 -0.062,0.076 -0.227,0.076c-0.165,-0 -0.295,-0.116 -0.295,-0.306c-0,-0.19 0.125,-0.306 0.287,-0.306c0.118,0 0.188,0.051 0.238,0.111l0.037,-0.04c-0.026,-0.03 -0.102,-0.12 -0.275,-0.12c-0.197,0 -0.345,0.15 -0.345,0.355c-0,0.205 0.148,0.357 0.348,0.357c0.133,0 0.228,-0.036 0.285,-0.107Z" style="fill-rule:nonzero;"/>
            </g>
            <g transform="matrix(6.04078,0,0,6.04078,441.343,405.528)">
                <path d="M0.465,-0.506c0,-0.06 -0.023,-0.101 -0.063,-0.136c-0.04,-0.035 -0.094,-0.048 -0.159,-0.048l-0.158,0l-0,0.69l0.054,-0l0,-0.322l0.104,0c0.065,0 0.119,-0.013 0.159,-0.048c0.04,-0.035 0.063,-0.076 0.063,-0.136Zm-0.057,0c0,0.098 -0.076,0.135 -0.163,0.135l-0.106,0l0,-0.27l0.106,0c0.087,0 0.163,0.037 0.163,0.135Z" style="fill-rule:nonzero;"/>
            </g>
            <g transform="matrix(6.04078,0,0,6.04078,444.363,405.528)">
                <path d="M0.57,-0.278l0,-0.412l-0.054,0l0,0.417c0,0.052 -0.001,0.115 -0.035,0.162c-0.033,0.045 -0.086,0.073 -0.156,0.073c-0.07,0 -0.123,-0.028 -0.156,-0.073c-0.034,-0.047 -0.035,-0.11 -0.035,-0.162l0,-0.417l-0.054,0l0,0.412c0,0.078 0.003,0.147 0.049,0.205c0.045,0.056 0.111,0.085 0.196,0.085c0.085,0 0.151,-0.029 0.196,-0.085c0.046,-0.058 0.049,-0.127 0.049,-0.205Z" style="fill-rule:nonzero;"/>
            </g>
            <g transform="matrix(6.04078,0,0,6.04078,432.569,411.569)">
                <path d="M0.465,-0.506c0,-0.06 -0.023,-0.101 -0.063,-0.136c-0.04,-0.035 -0.094,-0.048 -0.159,-0.048l-0.158,0l-0,0.69l0.054,-0l0,-0.322l0.104,0c0.065,0 0.119,-0.013 0.159,-0.048c0.04,-0.035 0.063,-0.076 0.063,-0.136Zm-0.057,0c0,0.098 -0.076,0.135 -0.163,0.135l-0.106,0l0,-0.27l0.106,0c0.087,0 0.163,0.037 0.163,0.135Z" style="fill-rule:nonzero;"/>
            </g>
            <g transform="matrix(6.04078,0,0,6.04078,435.619,411.569)">
                <path d="M0.395,-0l0,-0.275c0,-0.123 -0.056,-0.197 -0.185,-0.197c-0.07,0 -0.125,0.027 -0.155,0.047l0.02,0.038c0.01,-0.008 0.065,-0.04 0.137,-0.04c0.073,0 0.13,0.042 0.13,0.127l0,0.025l-0.127,0.005c-0.125,0.005 -0.185,0.06 -0.185,0.14c-0,0.08 0.065,0.14 0.155,0.14c0.09,-0 0.14,-0.055 0.157,-0.075l0,0.065l0.053,-0Zm-0.053,-0.235l0,0.115c-0.022,0.035 -0.072,0.085 -0.147,0.085c-0.075,-0 -0.113,-0.045 -0.113,-0.095c-0,-0.05 0.031,-0.092 0.128,-0.097l0.132,-0.008Z" style="fill-rule:nonzero;"/>
            </g>
            <g transform="matrix(6.04078,0,0,6.04078,438.398,411.569)">
                <path d="M0.29,-0.414l0.005,-0.051c0,0 -0.02,-0.007 -0.05,-0.007c-0.05,0 -0.101,0.032 -0.118,0.095l0,-0.087l-0.052,0l0,0.464l0.052,-0l0,-0.25c0,-0.071 0.024,-0.172 0.113,-0.172c0.025,0 0.039,0.004 0.05,0.008Z" style="fill-rule:nonzero;"/>
            </g>
            <g transform="matrix(6.04078,0,0,6.04078,440.21,411.569)">
                <path d="M0.265,-0.005l-0.005,-0.045c0,-0 -0.02,0.013 -0.05,0.013c-0.062,-0 -0.068,-0.061 -0.068,-0.112l0,-0.266l0.118,0l0,-0.047l-0.117,0l0,-0.148l-0.053,0l-0,0.148l-0.07,-0l-0,0.047l0.07,-0l-0,0.235c-0,0.075 0.001,0.109 0.017,0.14c0.017,0.031 0.043,0.05 0.088,0.05c0.03,-0 0.053,-0.005 0.07,-0.015Z" style="fill-rule:nonzero;"/>
            </g>
            <g transform="matrix(6.04078,0,0,6.04078,441.902,411.569)">
                <path d="M0.149,-0.629c0,-0.024 -0.019,-0.043 -0.043,-0.043c-0.024,0 -0.043,0.019 -0.043,0.043c0,0.024 0.019,0.043 0.043,0.043c0.024,0 0.043,-0.019 0.043,-0.043Zm-0.017,0.629l0,-0.464l-0.052,0l0,0.464l0.052,-0Z" style="fill-rule:nonzero;"/>
            </g>
            <g transform="matrix(6.04078,0,0,6.04078,443.182,411.569)">
                <path d="M0.265,-0.005l-0.005,-0.045c0,-0 -0.02,0.013 -0.05,0.013c-0.062,-0 -0.068,-0.061 -0.068,-0.112l0,-0.266l0.118,0l0,-0.047l-0.117,0l0,-0.148l-0.053,0l-0,0.148l-0.07,-0l-0,0.047l0.07,-0l-0,0.235c-0,0.075 0.001,0.109 0.017,0.14c0.017,0.031 0.043,0.05 0.088,0.05c0.03,-0 0.053,-0.005 0.07,-0.015Z" style="fill-rule:nonzero;"/>
            </g>
            <g transform="matrix(6.04078,0,0,6.04078,444.874,411.569)">
                <path d="M0.149,-0.629c0,-0.024 -0.019,-0.043 -0.043,-0.043c-0.024,0 -0.043,0.019 -0.043,0.043c0,0.024 0.019,0.043 0.043,0.043c0.024,0 0.043,-0.019 0.043,-0.043Zm-0.017,0.629l0,-0.464l-0.052,0l0,0.464l0.052,-0Z" style="fill-rule:nonzero;"/>
            </g>
            <g transform="matrix(6.04078,0,0,6.04078,446.154,411.569)">
                <path d="M0.515,-0.23c0,-0.14 -0.105,-0.242 -0.238,-0.242c-0.132,-0 -0.237,0.102 -0.237,0.242c-0,0.14 0.105,0.24 0.237,0.24c0.133,-0 0.238,-0.1 0.238,-0.24Zm-0.055,-0.002c0,0.107 -0.07,0.195 -0.183,0.195c-0.112,-0 -0.182,-0.088 -0.182,-0.195c-0,-0.108 0.07,-0.195 0.182,-0.195c0.113,0 0.183,0.087 0.183,0.195Z" style="fill-rule:nonzero;"/>
            </g>
            <g transform="matrix(6.04078,0,0,6.04078,449.507,411.569)">
                <path d="M0.441,-0l0,-0.277c0,-0.11 -0.031,-0.195 -0.164,-0.195c-0.067,0 -0.127,0.039 -0.15,0.094l-0,-0.086l-0.052,0l-0,0.464l0.052,-0l-0,-0.23c-0,-0.11 0.048,-0.197 0.148,-0.197c0.1,0 0.113,0.077 0.113,0.152l0,0.275l0.053,-0Z" style="fill-rule:nonzero;"/>
            </g>
        </g>
        <g transform="matrix(3.97299,0,0,3.97302,-1145.3,-1436.68)">
            <g transform="matrix(6.04078,0,0,6.04078,431.644,399.487)">
                <path d="M0.041,-0.706l0.178,0l0,0.569l0.342,-0l0,0.137l-0.52,-0l-0,-0.706Z" style="fill-rule:nonzero;"/>
            </g>
            <g transform="matrix(6.04078,0,0,6.04078,435.166,399.487)">
                <path d="M0.025,-0.706l0.177,0l0,0.382c0,0.057 0.014,0.101 0.042,0.134c0.027,0.033 0.069,0.05 0.125,0.05c0.068,-0 0.115,-0.018 0.141,-0.055c0.021,-0.03 0.032,-0.081 0.032,-0.152l0,-0.359l0.179,0l-0,0.405c-0,0.104 -0.033,0.183 -0.098,0.238c-0.061,0.051 -0.145,0.077 -0.251,0.077c-0.087,-0 -0.161,-0.02 -0.222,-0.059c-0.069,-0.045 -0.11,-0.107 -0.121,-0.188c-0.001,-0.01 -0.002,-0.022 -0.003,-0.036c-0.001,-0.014 -0.001,-0.027 -0.001,-0.04l-0,-0.397Z" style="fill-rule:nonzero;"/>
            </g>
            <g transform="matrix(6.04078,0,0,6.04078,440.029,399.487)">
                <path d="M0.029,-0.706l0.151,0l0.205,0.274l0.206,-0.274l0.148,0l0,0.706l-0.174,-0l0,-0.292c0,-0.024 0,-0.041 0.001,-0.051c0.001,-0.009 0.004,-0.039 0.009,-0.089c-0.022,0.036 -0.05,0.076 -0.083,0.119c-0.041,0.051 -0.071,0.09 -0.09,0.115l-0.035,-0c-0.037,-0.047 -0.068,-0.087 -0.093,-0.12c-0.047,-0.062 -0.074,-0.1 -0.079,-0.114c0,0.021 0.001,0.056 0.004,0.103c0.003,0.047 0.004,0.078 0.004,0.092l0,0.237l-0.174,-0l0,-0.706Z" style="fill-rule:nonzero;"/>
            </g>
            <g transform="matrix(6.04078,0,0,6.04078,445.019,399.487)">
                <rect x="0.057" y="-0.706" width="0.166" height="0.706" style="fill-rule:nonzero;"/>
            </g>
            <g transform="matrix(6.04078,0,0,6.04078,446.837,399.487)">
                <rect x="-0.001" y="-0.33" width="0.307" height="0.159" style="fill-rule:nonzero;"/>
            </g>
            <g transform="matrix(6.04078,0,0,6.04078,448.903,399.487)">
                <path d="M0.032,-0.706l0.299,-0.002l0.045,0.001c0.102,0 0.184,0.034 0.246,0.101c0.062,0.068 0.093,0.155 0.093,0.26c0,0.056 -0.011,0.108 -0.032,0.155c-0.021,0.047 -0.054,0.087 -0.097,0.119c-0.034,0.026 -0.071,0.044 -0.11,0.054c-0.039,0.01 -0.084,0.015 -0.133,0.015l-0.153,0.003l-0.158,-0l0,-0.706Zm0.295,0.567c0.059,-0 0.108,-0.02 0.147,-0.059c0.039,-0.039 0.059,-0.088 0.059,-0.147c0,-0.07 -0.02,-0.126 -0.059,-0.167c-0.04,-0.041 -0.095,-0.061 -0.165,-0.061l-0.099,0.001l0,0.433l0.117,-0Z" style="fill-rule:nonzero;"/>
            </g>
            <g transform="matrix(6.04078,0,0,6.04078,436.858,405.528)">
                <path d="M0.632,-0.345c0,-0.203 -0.158,-0.345 -0.357,-0.345l-0.19,0l-0,0.69l0.19,-0c0.199,-0 0.357,-0.142 0.357,-0.345Zm-0.056,0c0,0.179 -0.132,0.296 -0.306,0.296l-0.131,0l0,-0.592l0.131,0c0.173,0 0.306,0.118 0.306,0.296Z" style="fill-rule:nonzero;"/>
            </g>
            <g transform="matrix(6.04078,0,0,6.04078,441.056,405.528)">
                <path d="M0.395,-0l0,-0.275c0,-0.123 -0.056,-0.197 -0.185,-0.197c-0.07,0 -0.125,0.027 -0.155,0.047l0.02,0.038c0.01,-0.008 0.065,-0.04 0.137,-0.04c0.073,0 0.13,0.042 0.13,0.127l0,0.025l-0.127,0.005c-0.125,0.005 -0.185,0.06 -0.185,0.14c-0,0.08 0.065,0.14 0.155,0.14c0.09,-0 0.14,-0.055 0.157,-0.075l0,0.065l0.053,-0Zm-0.053,-0.235l0,0.115c-0.022,0.035 -0.072,0.085 -0.147,0.085c-0.075,-0 -0.113,-0.045 -0.113,-0.095c-0,-0.05 0.031,-0.092 0.128,-0.097l0.132,-0.008Z" style="fill-rule:nonzero;"/>
            </g>
            <g transform="matrix(6.04078,0,0,6.04078,443.835,405.528)">
                <path d="M0.265,-0.005l-0.005,-0.045c0,-0 -0.02,0.013 -0.05,0.013c-0.062,-0 -0.068,-0.061 -0.068,-0.112l0,-0.266l0.118,0l0,-0.047l-0.117,0l0,-0.148l-0.053,0l-0,0.148l-0.07,-0l-0,0.047l0.07,-0l-0,0.235c-0,0.075 0.001,0.109 0.017,0.14c0.017,0.031 0.043,0.05 0.088,0.05c0.03,-0 0.053,-0.005 0.07,-0.015Z" style="fill-rule:nonzero;"/>
            </g>
            <g transform="matrix(6.04078,0,0,6.04078,445.526,405.528)">
                <path d="M0.395,-0l0,-0.275c0,-0.123 -0.056,-0.197 -0.185,-0.197c-0.07,0 -0.125,0.027 -0.155,0.047l0.02,0.038c0.01,-0.008 0.065,-0.04 0.137,-0.04c0.073,0 0.13,0.042 0.13,0.127l0,0.025l-0.127,0.005c-0.125,0.005 -0.185,0.06 -0.185,0.14c-0,0.08 0.065,0.14 0.155,0.14c0.09,-0 0.14,-0.055 0.157,-0.075l0,0.065l0.053,-0Zm-0.053,-0.235l0,0.115c-0.022,0.035 -0.072,0.085 -0.147,0.085c-0.075,-0 -0.113,-0.045 -0.113,-0.095c-0,-0.05 0.031,-0.092 0.128,-0.097l0.132,-0.008Z" style="fill-rule:nonzero;"/>
            </g>
            <g transform="matrix(6.04078,0,0,6.04078,432.221,411.569)">
                <path d="M0.395,-0l0,-0.275c0,-0.123 -0.056,-0.197 -0.185,-0.197c-0.07,0 -0.125,0.027 -0.155,0.047l0.02,0.038c0.01,-0.008 0.065,-0.04 0.137,-0.04c0.073,0 0.13,0.042 0.13,0.127l0,0.025l-0.127,0.005c-0.125,0.005 -0.185,0.06 -0.185,0.14c-0,0.08 0.065,0.14 0.155,0.14c0.09,-0 0.14,-0.055 0.157,-0.075l0,0.065l0.053,-0Zm-0.053,-0.235l0,0.115c-0.022,0.035 -0.072,0.085 -0.147,0.085c-0.075,-0 -0.113,-0.045 -0.113,-0.095c-0,-0.05 0.031,-0.092 0.128,-0.097l0.132,-0.008Z" style="fill-rule:nonzero;"/>
            </g>
            <g transform="matrix(6.04078,0,0,6.04078,435,411.569)">
                <path d="M0.441,-0l0,-0.277c0,-0.11 -0.031,-0.195 -0.164,-0.195c-0.067,0 -0.127,0.039 -0.15,0.094l-0,-0.086l-0.052,0l-0,0.464l0.052,-0l-0,-0.23c-0,-0.11 0.048,-0.197 0.148,-0.197c0.1,0 0.113,0.077 0.113,0.152l0,0.275l0.053,-0Z" style="fill-rule:nonzero;"/>
            </g>
            <g transform="matrix(6.04078,0,0,6.04078,438.087,411.569)">
                <path d="M0.395,-0l0,-0.275c0,-0.123 -0.056,-0.197 -0.185,-0.197c-0.07,0 -0.125,0.027 -0.155,0.047l0.02,0.038c0.01,-0.008 0.065,-0.04 0.137,-0.04c0.073,0 0.13,0.042 0.13,0.127l0,0.025l-0.127,0.005c-0.125,0.005 -0.185,0.06 -0.185,0.14c-0,0.08 0.065,0.14 0.155,0.14c0.09,-0 0.14,-0.055 0.157,-0.075l0,0.065l0.053,-0Zm-0.053,-0.235l0,0.115c-0.022,0.035 -0.072,0.085 -0.147,0.085c-0.075,-0 -0.113,-0.045 -0.113,-0.095c-0,-0.05 0.031,-0.092 0.128,-0.097l0.132,-0.008Z" style="fill-rule:nonzero;"/>
            </g>
            <g transform="matrix(6.04078,0,0,6.04078,440.866,411.569)">
                <rect x="0.08" y="-0.69" width="0.052" height="0.69" style="fill-rule:nonzero;"/>
            </g>
            <g transform="matrix(6.04078,0,0,6.04078,442.146,411.569)">
                <path d="M0.435,-0.464l-0.055,0l-0.16,0.404l-0.16,-0.404l-0.055,0l0.187,0.457l-0.027,0.077c-0.022,0.063 -0.041,0.073 -0.069,0.073c-0.028,0 -0.046,-0.01 -0.046,-0.01l-0.01,0.05c0,0 0.024,0.012 0.056,0.012c0.032,0 0.072,-0.01 0.104,-0.087l0.235,-0.572Z" style="fill-rule:nonzero;"/>
            </g>
            <g transform="matrix(6.04078,0,0,6.04078,444.774,411.569)">
                <path d="M0.265,-0.005l-0.005,-0.045c0,-0 -0.02,0.013 -0.05,0.013c-0.062,-0 -0.068,-0.061 -0.068,-0.112l0,-0.266l0.118,0l0,-0.047l-0.117,0l0,-0.148l-0.053,0l-0,0.148l-0.07,-0l-0,0.047l0.07,-0l-0,0.235c-0,0.075 0.001,0.109 0.017,0.14c0.017,0.031 0.043,0.05 0.088,0.05c0.03,-0 0.053,-0.005 0.07,-0.015Z" style="fill-rule:nonzero;"/>
            </g>
            <g transform="matrix(6.04078,0,0,6.04078,446.466,411.569)">
                <path d="M0.149,-0.629c0,-0.024 -0.019,-0.043 -0.043,-0.043c-0.024,0 -0.043,0.019 -0.043,0.043c0,0.024 0.019,0.043 0.043,0.043c0.024,0 0.043,-0.019 0.043,-0.043Zm-0.017,0.629l0,-0.464l-0.052,0l0,0.464l0.052,-0Z" style="fill-rule:nonzero;"/>
            </g>
            <g transform="matrix(6.04078,0,0,6.04078,447.746,411.569)">
                <path d="M0.457,-0.07l-0.03,-0.035c-0,0 -0.05,0.068 -0.155,0.068c-0.105,0 -0.177,-0.083 -0.177,-0.198c-0,-0.115 0.082,-0.19 0.175,-0.19c0.092,0 0.132,0.045 0.152,0.068l0.033,-0.035c-0.01,-0.013 -0.06,-0.08 -0.183,-0.08c-0.122,0 -0.232,0.097 -0.232,0.24c-0,0.142 0.102,0.242 0.227,0.242c0.125,0 0.173,-0.06 0.19,-0.08Z" style="fill-rule:nonzero;"/>
            </g>
            <g transform="matrix(6.04078,0,0,6.04078,450.585,411.569)">
                <path d="M0.357,-0.127c0,-0.088 -0.087,-0.118 -0.145,-0.138c-0.057,-0.02 -0.107,-0.041 -0.107,-0.089c0,-0.048 0.037,-0.074 0.089,-0.074c0.052,0 0.084,0.018 0.116,0.053l0.032,-0.032c-0.036,-0.041 -0.078,-0.065 -0.146,-0.065c-0.068,0 -0.141,0.04 -0.141,0.124c0,0.084 0.087,0.114 0.127,0.128c0.04,0.014 0.123,0.035 0.123,0.095c0,0.06 -0.051,0.088 -0.109,0.088c-0.058,0 -0.104,-0.029 -0.134,-0.073l-0.037,0.03c0.029,0.048 0.083,0.09 0.169,0.09c0.086,0 0.163,-0.05 0.163,-0.137Z" style="fill-rule:nonzero;"/>
            </g>
            <g transform="matrix(6.04078,0,0,6.04078,432.569,417.61)">
                <path d="M0.465,-0.506c0,-0.06 -0.023,-0.101 -0.063,-0.136c-0.04,-0.035 -0.094,-0.048 -0.159,-0.048l-0.158,0l-0,0.69l0.054,-0l0,-0.322l0.104,0c0.065,0 0.119,-0.013 0.159,-0.048c0.04,-0.035 0.063,-0.076 0.063,-0.136Zm-0.057,0c0,0.098 -0.076,0.135 -0.163,0.135l-0.106,0l0,-0.27l0.106,0c0.087,0 0.163,0.037 0.163,0.135Z" style="fill-rule:nonzero;"/>
            </g>
            <g transform="matrix(6.04078,0,0,6.04078,435.619,417.61)">
                <path d="M0.395,-0l0,-0.275c0,-0.123 -0.056,-0.197 -0.185,-0.197c-0.07,0 -0.125,0.027 -0.155,0.047l0.02,0.038c0.01,-0.008 0.065,-0.04 0.137,-0.04c0.073,0 0.13,0.042 0.13,0.127l0,0.025l-0.127,0.005c-0.125,0.005 -0.185,0.06 -0.185,0.14c-0,0.08 0.065,0.14 0.155,0.14c0.09,-0 0.14,-0.055 0.157,-0.075l0,0.065l0.053,-0Zm-0.053,-0.235l0,0.115c-0.022,0.035 -0.072,0.085 -0.147,0.085c-0.075,-0 -0.113,-0.045 -0.113,-0.095c-0,-0.05 0.031,-0.092 0.128,-0.097l0.132,-0.008Z" style="fill-rule:nonzero;"/>
            </g>
            <g transform="matrix(6.04078,0,0,6.04078,438.398,417.61)">
                <path d="M0.29,-0.414l0.005,-0.051c0,0 -0.02,-0.007 -0.05,-0.007c-0.05,0 -0.101,0.032 -0.118,0.095l0,-0.087l-0.052,0l0,0.464l0.052,-0l0,-0.25c0,-0.071 0.024,-0.172 0.113,-0.172c0.025,0 0.039,0.004 0.05,0.008Z" style="fill-rule:nonzero;"/>
            </g>
            <g transform="matrix(6.04078,0,0,6.04078,440.21,417.61)">
                <path d="M0.265,-0.005l-0.005,-0.045c0,-0 -0.02,0.013 -0.05,0.013c-0.062,-0 -0.068,-0.061 -0.068,-0.112l0,-0.266l0.118,0l0,-0.047l-0.117,0l0,-0.148l-0.053,0l-0,0.148l-0.07,-0l-0,0.047l0.07,-0l-0,0.235c-0,0.075 0.001,0.109 0.017,0.14c0.017,0.031 0.043,0.05 0.088,0.05c0.03,-0 0.053,-0.005 0.07,-0.015Z" style="fill-rule:nonzero;"/>
            </g>
            <g transform="matrix(6.04078,0,0,6.04078,441.902,417.61)">
                <path d="M0.149,-0.629c0,-0.024 -0.019,-0.043 -0.043,-0.043c-0.024,0 -0.043,0.019 -0.043,0.043c0,0.024 0.019,0.043 0.043,0.043c0.024,0 0.043,-0.019 0.043,-0.043Zm-0.017,0.629l0,-0.464l-0.052,0l0,0.464l0.052,-0Z" style="fill-rule:nonzero;"/>
            </g>
            <g transform="matrix(6.04078,0,0,6.04078,443.182,417.61)">
                <path d="M0.265,-0.005l-0.005,-0.045c0,-0 -0.02,0.013 -0.05,0.013c-0.062,-0 -0.068,-0.061 -0.068,-0.112l0,-0.266l0.118,0l0,-0.047l-0.117,0l0,-0.148l-0.053,0l-0,0.148l-0.07,-0l-0,0.047l0.07,-0l-0,0.235c-0,0.075 0.001,0.109 0.017,0.14c0.017,0.031 0.043,0.05 0.088,0.05c0.03,-0 0.053,-0.005 0.07,-0.015Z" style="fill-rule:nonzero;"/>
            </g>
            <g transform="matrix(6.04078,0,0,6.04078,444.874,417.61)">
                <path d="M0.149,-0.629c0,-0.024 -0.019,-0.043 -0.043,-0.043c-0.024,0 -0.043,0.019 -0.043,0.043c0,0.024 0.019,0.043 0.043,0.043c0.024,0 0.043,-0.019 0.043,-0.043Zm-0.017,0.629l0,-0.464l-0.052,0l0,0.464l0.052,-0Z" style="fill-rule:nonzero;"/>
            </g>
            <g transform="matrix(6.04078,0,0,6.04078,446.154,417.61)">
                <path d="M0.515,-0.23c0,-0.14 -0.105,-0.242 -0.238,-0.242c-0.132,-0 -0.237,0.102 -0.237,0.242c-0,0.14 0.105,0.24 0.237,0.24c0.133,-0 0.238,-0.1 0.238,-0.24Zm-0.055,-0.002c0,0.107 -0.07,0.195 -0.183,0.195c-0.112,-0 -0.182,-0.088 -0.182,-0.195c-0,-0.108 0.07,-0.195 0.182,-0.195c0.113,0 0.183,0.087 0.183,0.195Z" style="fill-rule:nonzero;"/>
            </g>
            <g transform="matrix(6.04078,0,0,6.04078,449.507,417.61)">
                <path d="M0.441,-0l0,-0.277c0,-0.11 -0.031,-0.195 -0.164,-0.195c-0.067,0 -0.127,0.039 -0.15,0.094l-0,-0.086l-0.052,0l-0,0.464l0.052,-0l-0,-0.23c-0,-0.11 0.048,-0.197 0.148,-0.197c0.1,0 0.113,0.077 0.113,0.152l0,0.275l0.053,-0Z" style="fill-rule:nonzero;"/>
            </g>
        </g>
        <g transform="matrix(1,0,0,1.00001,-74.9536,-46.6986)">
            <g transform="matrix(24,0,0,24,398.966,387.626)">
                <path d="M0.03,-0.706l0.177,0l0,0.285l0.335,-0l0,-0.285l0.177,0l-0,0.706l-0.177,-0l0,-0.285l-0.335,0l0,0.285l-0.177,-0l-0,-0.706Z" style="fill-rule:nonzero;"/>
            </g>
            <g transform="matrix(24,0,0,24,418.286,387.626)">
                <path d="M0.049,-0.459l0.16,0l-0,0.459l-0.16,-0l-0,-0.459Zm0.079,-0.256c0.023,0 0.043,0.008 0.058,0.024c0.016,0.015 0.024,0.035 0.024,0.059c0,0.021 -0.008,0.04 -0.025,0.055c-0.017,0.015 -0.036,0.023 -0.058,0.023c-0.021,-0 -0.039,-0.008 -0.055,-0.025c-0.015,-0.016 -0.022,-0.035 -0.022,-0.057c0,-0.022 0.007,-0.041 0.022,-0.056c0.015,-0.015 0.033,-0.023 0.056,-0.023Z" style="fill-rule:nonzero;"/>
            </g>
            <g transform="matrix(24,0,0,24,425.054,387.626)">
                <path d="M0.034,-0.08c0,-0.017 0.008,-0.031 0.023,-0.042c0.014,-0.012 0.031,-0.019 0.05,-0.022c-0.041,-0.019 -0.069,-0.039 -0.086,-0.058c-0.021,-0.025 -0.032,-0.057 -0.032,-0.097c-0,-0.054 0.021,-0.098 0.062,-0.131c0.038,-0.031 0.085,-0.046 0.141,-0.046c0.011,-0 0.035,0.002 0.07,0.007c0.02,0.003 0.035,0.004 0.044,0.004c0.021,-0 0.041,0 0.063,0c0.021,0.001 0.042,0.001 0.063,0.001l0.028,-0l0,0.092l-0.061,0.001c0.015,0.025 0.022,0.052 0.022,0.079c-0,0.053 -0.02,0.092 -0.061,0.117c-0.023,0.015 -0.06,0.028 -0.113,0.039c-0.041,0.009 -0.061,0.019 -0.061,0.032c-0,0.017 0.022,0.03 0.065,0.039c0.061,0.013 0.102,0.025 0.122,0.036c0.044,0.024 0.066,0.062 0.066,0.114c-0,0.055 -0.025,0.097 -0.075,0.126c-0.041,0.023 -0.092,0.035 -0.152,0.035c-0.061,-0 -0.113,-0.01 -0.157,-0.029c-0.06,-0.027 -0.09,-0.066 -0.09,-0.119c-0,-0.033 0.011,-0.06 0.034,-0.081c0.019,-0.018 0.047,-0.031 0.082,-0.04c-0.017,-0.013 -0.027,-0.02 -0.03,-0.023c-0.011,-0.011 -0.017,-0.022 -0.017,-0.034Zm0.17,-0.144c0.023,0 0.04,-0.007 0.053,-0.022c0.013,-0.015 0.019,-0.034 0.019,-0.057c-0,-0.023 -0.005,-0.042 -0.016,-0.057c-0.013,-0.017 -0.03,-0.026 -0.052,-0.026c-0.021,0 -0.039,0.008 -0.053,0.023c-0.014,0.015 -0.021,0.034 -0.021,0.055c-0,0.023 0.006,0.043 0.018,0.059c0.012,0.017 0.029,0.025 0.052,0.025Zm-0,0.362c0.025,0 0.045,-0.002 0.06,-0.007c0.026,-0.008 0.039,-0.021 0.039,-0.039c-0,-0.02 -0.012,-0.033 -0.035,-0.04c-0.013,-0.004 -0.033,-0.006 -0.06,-0.006c-0.027,0 -0.047,0.002 -0.062,0.006c-0.027,0.007 -0.04,0.021 -0.04,0.04c-0,0.017 0.013,0.03 0.038,0.038c0.017,0.005 0.037,0.008 0.06,0.008Z" style="fill-rule:nonzero;"/>
            </g>
            <g transform="matrix(24,0,0,24,436.646,387.626)">
                <path d="M0.035,-0.706l0.159,0l0,0.263c0,0.013 -0.002,0.027 -0.005,0.042c0.024,-0.025 0.048,-0.044 0.071,-0.056c0.022,-0.011 0.05,-0.017 0.083,-0.017c0.057,-0 0.1,0.024 0.128,0.071c0.023,0.039 0.035,0.089 0.035,0.15l0,0.253l-0.16,-0l0,-0.237c0,-0.032 -0.003,-0.056 -0.01,-0.072c-0.01,-0.025 -0.029,-0.037 -0.057,-0.037c-0.015,0 -0.03,0.004 -0.046,0.013c-0.017,0.009 -0.03,0.019 -0.039,0.031l0,0.302l-0.159,0l0,-0.706Z" style="fill-rule:nonzero;"/>
            </g>
            <g transform="matrix(24,0,0,24,450.638,387.626)">
                <rect x="-0.001" y="-0.33" width="0.307" height="0.159" style="fill-rule:nonzero;"/>
            </g>
            <g transform="matrix(24,0,0,24,458.846,387.626)">
                <path d="M0,-0.157c0.037,0.021 0.061,0.034 0.074,0.04c0.031,0.015 0.058,0.022 0.081,0.022c0.014,-0 0.025,-0.003 0.034,-0.008c0.008,-0.005 0.012,-0.015 0.012,-0.028c-0,-0.009 -0.033,-0.03 -0.1,-0.063c-0.067,-0.033 -0.1,-0.077 -0.1,-0.133c-0,-0.047 0.017,-0.083 0.052,-0.109c0.035,-0.027 0.076,-0.04 0.124,-0.04c0.028,-0 0.055,0.004 0.08,0.01c0.025,0.007 0.052,0.018 0.08,0.031l0,0.114c-0.021,-0.009 -0.041,-0.019 -0.061,-0.029c-0.023,-0.01 -0.045,-0.015 -0.065,-0.015c-0.011,0 -0.021,0.002 -0.03,0.006c-0.009,0.003 -0.013,0.009 -0.013,0.017c0,0.014 0.033,0.036 0.098,0.065c0.065,0.029 0.098,0.071 0.098,0.125c0,0.054 -0.017,0.096 -0.05,0.125c-0.033,0.029 -0.078,0.044 -0.133,0.044c-0.065,-0 -0.125,-0.016 -0.181,-0.049l0,-0.125Z" style="fill-rule:nonzero;"/>
            </g>
            <g transform="matrix(24,0,0,24,468.518,387.626)">
                <path d="M0.034,-0.459l0.159,0l0,0.019c0.013,-0.005 0.026,-0.01 0.04,-0.015c0.025,-0.009 0.048,-0.013 0.068,-0.013c0.072,0 0.129,0.023 0.171,0.069c0.042,0.046 0.063,0.105 0.063,0.178c-0,0.063 -0.02,0.117 -0.061,0.163c-0.043,0.049 -0.095,0.073 -0.157,0.073c-0.019,0 -0.037,-0.002 -0.054,-0.005c-0.017,-0.003 -0.04,-0.012 -0.07,-0.026l-0,0.274l-0.159,0l-0,-0.717Zm0.238,0.354c0.031,-0 0.056,-0.013 0.075,-0.039c0.017,-0.023 0.025,-0.051 0.025,-0.084c-0,-0.033 -0.008,-0.062 -0.024,-0.085c-0.018,-0.026 -0.043,-0.039 -0.076,-0.039c-0.013,-0 -0.027,0.003 -0.04,0.008c-0.008,0.003 -0.021,0.01 -0.038,0.02l-0.001,0.191c0.008,0.007 0.02,0.014 0.036,0.019c0.016,0.006 0.03,0.009 0.043,0.009Z" style="fill-rule:nonzero;"/>
            </g>
            <g transform="matrix(24,0,0,24,483.014,387.626)">
                <path d="M0.172,-0.207c0.003,0.035 0.017,0.063 0.041,0.082c0.024,0.019 0.054,0.028 0.091,0.028c0.029,-0 0.058,-0.005 0.087,-0.016c0.03,-0.011 0.059,-0.025 0.087,-0.042l-0,0.115c-0.043,0.021 -0.077,0.035 -0.102,0.042c-0.033,0.01 -0.07,0.015 -0.109,0.015c-0.075,-0 -0.138,-0.023 -0.188,-0.07c-0.05,-0.047 -0.075,-0.108 -0.075,-0.183c-0,-0.071 0.024,-0.128 0.072,-0.173c0.048,-0.045 0.108,-0.067 0.179,-0.067c0.073,0 0.131,0.024 0.175,0.072c0.042,0.046 0.063,0.106 0.063,0.18l-0,0.013l-0.321,0.004Zm0.16,-0.094c-0.003,-0.021 -0.011,-0.04 -0.025,-0.055c-0.014,-0.015 -0.031,-0.023 -0.051,-0.023c-0.019,0 -0.037,0.008 -0.052,0.025c-0.013,0.014 -0.022,0.032 -0.028,0.053l0.156,0Z" style="fill-rule:nonzero;"/>
            </g>
            <g transform="matrix(24,0,0,24,496.07,387.626)">
                <path d="M0.172,-0.207c0.003,0.035 0.017,0.063 0.041,0.082c0.024,0.019 0.054,0.028 0.091,0.028c0.029,-0 0.058,-0.005 0.087,-0.016c0.03,-0.011 0.059,-0.025 0.087,-0.042l-0,0.115c-0.043,0.021 -0.077,0.035 -0.102,0.042c-0.033,0.01 -0.07,0.015 -0.109,0.015c-0.075,-0 -0.138,-0.023 -0.188,-0.07c-0.05,-0.047 -0.075,-0.108 -0.075,-0.183c-0,-0.071 0.024,-0.128 0.072,-0.173c0.048,-0.045 0.108,-0.067 0.179,-0.067c0.073,0 0.131,0.024 0.175,0.072c0.042,0.046 0.063,0.106 0.063,0.18l-0,0.013l-0.321,0.004Zm0.16,-0.094c-0.003,-0.021 -0.011,-0.04 -0.025,-0.055c-0.014,-0.015 -0.031,-0.023 -0.051,-0.023c-0.019,0 -0.037,0.008 -0.052,0.025c-0.013,0.014 -0.022,0.032 -0.028,0.053l0.156,0Z" style="fill-rule:nonzero;"/>
            </g>
            <g transform="matrix(24,0,0,24,509.126,387.626)">
                <path d="M0.343,-0.706l0.158,0l0,0.706l-0.158,-0l0,-0.022c-0.015,0.009 -0.034,0.016 -0.057,0.023c-0.023,0.007 -0.044,0.01 -0.061,0.01c-0.065,0 -0.119,-0.024 -0.162,-0.071c-0.043,-0.047 -0.064,-0.104 -0.064,-0.17c0,-0.064 0.022,-0.121 0.065,-0.171c0.043,-0.049 0.096,-0.074 0.159,-0.074c0.019,0 0.04,0.003 0.061,0.009c0.009,0.003 0.029,0.009 0.059,0.02l0,-0.26Zm0,0.375c-0.018,-0.009 -0.03,-0.015 -0.037,-0.018c-0.014,-0.005 -0.028,-0.008 -0.042,-0.008c-0.032,0 -0.057,0.012 -0.075,0.035c-0.018,0.024 -0.027,0.052 -0.027,0.085c0,0.036 0.008,0.066 0.024,0.089c0.019,0.027 0.045,0.041 0.08,0.041c0.017,-0 0.034,-0.003 0.049,-0.01c0.013,-0.007 0.022,-0.012 0.028,-0.015l0,-0.199Z" style="fill-rule:nonzero;"/>
            </g>
            <g transform="matrix(24,0,0,24,382.55,413.426)">
                <path d="M0.049,-0.459l0.16,0l-0,0.459l-0.16,-0l-0,-0.459Zm0.079,-0.256c0.023,0 0.043,0.008 0.058,0.024c0.016,0.015 0.024,0.035 0.024,0.059c0,0.021 -0.008,0.04 -0.025,0.055c-0.017,0.015 -0.036,0.023 -0.058,0.023c-0.021,-0 -0.039,-0.008 -0.055,-0.025c-0.015,-0.016 -0.022,-0.035 -0.022,-0.057c0,-0.022 0.007,-0.041 0.022,-0.056c0.015,-0.015 0.033,-0.023 0.056,-0.023Z" style="fill-rule:nonzero;"/>
            </g>
            <g transform="matrix(24,0,0,24,389.318,413.426)">
                <path d="M0.035,-0.459l0.161,0c0,0.013 -0,0.024 -0.001,0.032c-0.001,0.008 -0.003,0.017 -0.007,0.027c0.025,-0.025 0.049,-0.044 0.071,-0.055c0.026,-0.013 0.055,-0.02 0.087,-0.02c0.057,0 0.1,0.024 0.127,0.072c0.022,0.039 0.033,0.089 0.033,0.151l0,0.252l-0.159,-0l0,-0.255c0,-0.025 -0.005,-0.046 -0.014,-0.062c-0.011,-0.02 -0.029,-0.03 -0.053,-0.03c-0.013,-0 -0.029,0.005 -0.046,0.014c-0.017,0.009 -0.03,0.019 -0.039,0.03l0,0.303l-0.16,-0l0,-0.459Z" style="fill-rule:nonzero;"/>
            </g>
            <g transform="matrix(24,0,0,24,403.31,413.426)">
                <path d="M-0.008,-0.407l0.212,-0.217l0.031,0l0,0.165l0.163,-0l0,0.107l-0.163,0l0,0.175c0,0.022 0.007,0.039 0.019,0.052c0.014,0.013 0.031,0.02 0.053,0.02c0.015,-0 0.03,-0.003 0.045,-0.008c0.016,-0.005 0.032,-0.013 0.049,-0.023l0,0.114c-0.025,0.011 -0.05,0.019 -0.075,0.025c-0.025,0.007 -0.049,0.01 -0.074,0.01c-0.119,-0 -0.178,-0.06 -0.178,-0.18l0.001,-0.048l0,-0.137l-0.083,0l0,-0.055Z" style="fill-rule:nonzero;"/>
            </g>
            <g transform="matrix(24,0,0,24,412.982,413.426)">
                <path d="M0.172,-0.207c0.003,0.035 0.017,0.063 0.041,0.082c0.024,0.019 0.054,0.028 0.091,0.028c0.029,-0 0.058,-0.005 0.087,-0.016c0.03,-0.011 0.059,-0.025 0.087,-0.042l-0,0.115c-0.043,0.021 -0.077,0.035 -0.102,0.042c-0.033,0.01 -0.07,0.015 -0.109,0.015c-0.075,-0 -0.138,-0.023 -0.188,-0.07c-0.05,-0.047 -0.075,-0.108 -0.075,-0.183c-0,-0.071 0.024,-0.128 0.072,-0.173c0.048,-0.045 0.108,-0.067 0.179,-0.067c0.073,0 0.131,0.024 0.175,0.072c0.042,0.046 0.063,0.106 0.063,0.18l-0,0.013l-0.321,0.004Zm0.16,-0.094c-0.003,-0.021 -0.011,-0.04 -0.025,-0.055c-0.014,-0.015 -0.031,-0.023 -0.051,-0.023c-0.019,0 -0.037,0.008 -0.052,0.025c-0.013,0.014 -0.022,0.032 -0.028,0.053l0.156,0Z" style="fill-rule:nonzero;"/>
            </g>
            <g transform="matrix(24,0,0,24,426.038,413.426)">
                <path d="M0.043,-0.459l0.159,0l0,0.054c0,0.011 -0.001,0.02 -0.002,0.027c-0.001,0.007 -0.002,0.014 -0.003,0.022c0.015,-0.03 0.032,-0.056 0.052,-0.077c0.026,-0.028 0.052,-0.042 0.078,-0.042c0.017,-0 0.036,0.004 0.055,0.011c0.02,0.008 0.038,0.018 0.053,0.029l-0.066,0.14c-0.017,-0.012 -0.031,-0.02 -0.041,-0.025c-0.011,-0.004 -0.021,-0.006 -0.031,-0.006c-0.015,-0 -0.03,0.008 -0.043,0.025c-0.007,0.008 -0.015,0.023 -0.026,0.044c-0.01,0.022 -0.017,0.046 -0.022,0.072c-0.004,0.026 -0.006,0.053 -0.006,0.08l0.002,0.105l-0.159,-0l-0,-0.459Z" style="fill-rule:nonzero;"/>
            </g>
            <g transform="matrix(24,0,0,24,436.19,413.426)">
                <path d="M0.423,-0.32c-0.015,-0.01 -0.033,-0.018 -0.056,-0.025c-0.024,-0.006 -0.045,-0.009 -0.066,-0.009c-0.039,0 -0.07,0.012 -0.094,0.036c-0.025,0.023 -0.037,0.054 -0.037,0.093c0,0.035 0.013,0.064 0.039,0.086c0.026,0.022 0.057,0.033 0.094,0.033c0.024,0 0.051,-0.005 0.081,-0.016c0.005,-0.002 0.021,-0.008 0.047,-0.019l0,0.124c-0.024,0.01 -0.049,0.018 -0.076,0.025c-0.027,0.006 -0.052,0.009 -0.075,0.009c-0.076,0 -0.14,-0.021 -0.191,-0.063c-0.055,-0.045 -0.083,-0.105 -0.083,-0.18c0,-0.073 0.026,-0.132 0.078,-0.179c0.051,-0.048 0.113,-0.071 0.186,-0.071c0.028,0 0.055,0.003 0.08,0.008c0.025,0.005 0.05,0.013 0.073,0.024l0,0.124Z" style="fill-rule:nonzero;"/>
            </g>
            <g transform="matrix(24,0,0,24,447.302,413.426)">
                <path d="M0.267,-0.476c0.076,0 0.139,0.023 0.189,0.069c0.05,0.045 0.075,0.106 0.075,0.181c0,0.072 -0.027,0.131 -0.081,0.177c-0.051,0.044 -0.114,0.066 -0.187,0.066c-0.075,0 -0.138,-0.023 -0.187,-0.069c-0.049,-0.046 -0.074,-0.106 -0.074,-0.181c-0,-0.072 0.026,-0.13 0.077,-0.175c0.052,-0.045 0.115,-0.068 0.188,-0.068Zm0.003,0.376c0.03,0 0.054,-0.013 0.072,-0.04c0.016,-0.024 0.024,-0.052 0.024,-0.083c-0,-0.037 -0.008,-0.068 -0.023,-0.092c-0.019,-0.029 -0.046,-0.043 -0.081,-0.043c-0.03,0 -0.054,0.013 -0.072,0.038c-0.017,0.025 -0.026,0.054 -0.026,0.087c0,0.037 0.008,0.068 0.024,0.092c0.019,0.027 0.046,0.041 0.082,0.041Z" style="fill-rule:nonzero;"/>
            </g>
            <g transform="matrix(24,0,0,24,461.294,413.426)">
                <path d="M0.035,-0.459l0.161,0c0,0.013 -0,0.024 -0.001,0.032c-0.001,0.008 -0.003,0.017 -0.007,0.027c0.025,-0.025 0.049,-0.044 0.071,-0.055c0.026,-0.013 0.055,-0.02 0.087,-0.02c0.057,0 0.1,0.024 0.127,0.072c0.022,0.039 0.033,0.089 0.033,0.151l0,0.252l-0.159,-0l0,-0.255c0,-0.025 -0.005,-0.046 -0.014,-0.062c-0.011,-0.02 -0.029,-0.03 -0.053,-0.03c-0.013,-0 -0.029,0.005 -0.046,0.014c-0.017,0.009 -0.03,0.019 -0.039,0.03l0,0.303l-0.16,-0l0,-0.459Z" style="fill-rule:nonzero;"/>
            </g>
            <g transform="matrix(24,0,0,24,475.286,413.426)">
                <path d="M0.035,-0.459l0.161,0c0,0.013 -0,0.024 -0.001,0.032c-0.001,0.008 -0.003,0.017 -0.007,0.027c0.025,-0.025 0.049,-0.044 0.071,-0.055c0.026,-0.013 0.055,-0.02 0.087,-0.02c0.057,0 0.1,0.024 0.127,0.072c0.022,0.039 0.033,0.089 0.033,0.151l0,0.252l-0.159,-0l0,-0.255c0,-0.025 -0.005,-0.046 -0.014,-0.062c-0.011,-0.02 -0.029,-0.03 -0.053,-0.03c-0.013,-0 -0.029,0.005 -0.046,0.014c-0.017,0.009 -0.03,0.019 -0.039,0.03l0,0.303l-0.16,-0l0,-0.459Z" style="fill-rule:nonzero;"/>
            </g>
            <g transform="matrix(24,0,0,24,489.278,413.426)">
                <path d="M0.172,-0.207c0.003,0.035 0.017,0.063 0.041,0.082c0.024,0.019 0.054,0.028 0.091,0.028c0.029,-0 0.058,-0.005 0.087,-0.016c0.03,-0.011 0.059,-0.025 0.087,-0.042l-0,0.115c-0.043,0.021 -0.077,0.035 -0.102,0.042c-0.033,0.01 -0.07,0.015 -0.109,0.015c-0.075,-0 -0.138,-0.023 -0.188,-0.07c-0.05,-0.047 -0.075,-0.108 -0.075,-0.183c-0,-0.071 0.024,-0.128 0.072,-0.173c0.048,-0.045 0.108,-0.067 0.179,-0.067c0.073,0 0.131,0.024 0.175,0.072c0.042,0.046 0.063,0.106 0.063,0.18l-0,0.013l-0.321,0.004Zm0.16,-0.094c-0.003,-0.021 -0.011,-0.04 -0.025,-0.055c-0.014,-0.015 -0.031,-0.023 -0.051,-0.023c-0.019,0 -0.037,0.008 -0.052,0.025c-0.013,0.014 -0.022,0.032 -0.028,0.053l0.156,0Z" style="fill-rule:nonzero;"/>
            </g>
            <g transform="matrix(24,0,0,24,502.334,413.426)">
                <path d="M0.423,-0.32c-0.015,-0.01 -0.033,-0.018 -0.056,-0.025c-0.024,-0.006 -0.045,-0.009 -0.066,-0.009c-0.039,0 -0.07,0.012 -0.094,0.036c-0.025,0.023 -0.037,0.054 -0.037,0.093c0,0.035 0.013,0.064 0.039,0.086c0.026,0.022 0.057,0.033 0.094,0.033c0.024,0 0.051,-0.005 0.081,-0.016c0.005,-0.002 0.021,-0.008 0.047,-0.019l0,0.124c-0.024,0.01 -0.049,0.018 -0.076,0.025c-0.027,0.006 -0.052,0.009 -0.075,0.009c-0.076,0 -0.14,-0.021 -0.191,-0.063c-0.055,-0.045 -0.083,-0.105 -0.083,-0.18c0,-0.073 0.026,-0.132 0.078,-0.179c0.051,-0.048 0.113,-0.071 0.186,-0.071c0.028,0 0.055,0.003 0.08,0.008c0.025,0.005 0.05,0.013 0.073,0.024l0,0.124Z" style="fill-rule:nonzero;"/>
            </g>
            <g transform="matrix(24,0,0,24,513.446,413.426)">
                <path d="M-0.008,-0.407l0.212,-0.217l0.031,0l0,0.165l0.163,-0l0,0.107l-0.163,0l0,0.175c0,0.022 0.007,0.039 0.019,0.052c0.014,0.013 0.031,0.02 0.053,0.02c0.015,-0 0.03,-0.003 0.045,-0.008c0.016,-0.005 0.032,-0.013 0.049,-0.023l0,0.114c-0.025,0.011 -0.05,0.019 -0.075,0.025c-0.025,0.007 -0.049,0.01 -0.074,0.01c-0.119,-0 -0.178,-0.06 -0.178,-0.18l0.001,-0.048l0,-0.137l-0.083,0l0,-0.055Z" style="fill-rule:nonzero;"/>
            </g>
        </g>
    </g>
</svg>
