<svg viewBox="0 0 1695 1114" xmlns="http://www.w3.org/2000/svg" fill-rule="evenodd" clip-rule="evenodd" stroke-linecap="round" stroke-linejoin="round" stroke-miterlimit="1.5"><path d="M225.42 822.15c.06 2.09 1.5 2.12 4.32 3.74l114.17 65.92c5.56 3.21 14.38 3.34 19.67.28l76.76-44.32c2.61-1.5 3.88-3.5 3.83-5.54v22.28c0 1.99-1.27 3.94-3.83 5.42l-76.76 44.32c-5.3 3.05-14.1 2.93-19.67-.28l-114.17-65.92c-2.82-1.63-4.26-3.73-4.32-5.82v-20.08z" fill="#89c2d4"/><path d="M325.68 763.57c-5.56-3.2-14.37-3.33-19.67-.27l-76.75 44.31c-5.3 3.06-5.08 8.15.48 11.36l114.17 65.92c5.56 3.2 14.38 3.33 19.67.27l76.76-44.31c5.3-3.06 5.08-8.15-.48-11.36l-114.18-65.92z" fill="#fff" stroke="#000" stroke-width="7"/><path d="M238.22 811.65a6.63 6.63 0 016 0c1.65.95 1.65 2.5 0 3.46a6.63 6.63 0 01-6 0c-1.65-.96-1.65-2.5 0-3.46zM314.41 767.66a6.63 6.63 0 016 0c1.65.96 1.65 2.5 0 3.46a6.63 6.63 0 01-6 0c-1.66-.95-1.66-2.5 0-3.46zM352.83 878.63a6.63 6.63 0 016 0c1.65.95 1.65 2.5 0 3.46a6.63 6.63 0 01-6 0c-1.66-.96-1.66-2.5 0-3.46zM429.02 834.64a6.63 6.63 0 016 0c1.65.96 1.65 2.5 0 3.46a6.63 6.63 0 01-6 0c-1.66-.95-1.66-2.5 0-3.46zM293.7 844.5a6.63 6.63 0 016 0c1.66.95 1.66 2.5 0 3.46a6.63 6.63 0 01-6 0c-1.65-.96-1.65-2.51 0-3.47zM369.9 800.5a6.63 6.63 0 015.99 0c1.66.96 1.66 2.51 0 3.47a6.63 6.63 0 01-6 0c-1.65-.96-1.65-2.5 0-3.46z"/><path d="M225.42 777.84c.06 2.08 1.5 2.11 4.32 3.74L343.9 847.5c5.56 3.2 14.38 3.33 19.67.27l76.76-44.31c2.61-1.51 3.88-3.51 3.83-5.54v22.27c0 1.99-1.27 3.95-3.83 5.43l-76.76 44.31c-5.3 3.06-14.1 2.93-19.67-.28l-114.17-65.91c-2.82-1.63-4.26-3.74-4.32-5.82v-20.08z" fill="#89c2d4"/><path d="M325.68 719.26c-5.56-3.21-14.37-3.33-19.67-.28l-76.75 44.32c-5.3 3.06-5.08 8.14.48 11.35l114.17 65.92c5.56 3.21 14.38 3.34 19.67.28l76.76-44.32c5.3-3.05 5.08-8.14-.48-11.35l-114.18-65.92z" fill="#fff" stroke="#000" stroke-width="7"/><path d="M238.22 767.33a6.63 6.63 0 016 0c1.65.96 1.65 2.5 0 3.46a6.63 6.63 0 01-6 0c-1.65-.95-1.65-2.5 0-3.46zM314.41 723.35a6.63 6.63 0 016 0c1.65.95 1.65 2.5 0 3.46a6.63 6.63 0 01-6 0c-1.66-.96-1.66-2.5 0-3.46zM352.83 834.31a6.63 6.63 0 016 0c1.65.96 1.65 2.5 0 3.47a6.63 6.63 0 01-6 0c-1.66-.96-1.66-2.51 0-3.47zM429.02 790.33a6.63 6.63 0 016 0c1.65.95 1.65 2.5 0 3.46a6.63 6.63 0 01-6 0c-1.66-.96-1.66-2.5 0-3.46zM293.7 800.18a6.63 6.63 0 016 0c1.66.95 1.66 2.5 0 3.46a6.63 6.63 0 01-6 0c-1.65-.95-1.65-2.5 0-3.46zM369.9 756.2a6.63 6.63 0 015.99 0c1.66.95 1.66 2.5 0 3.45a6.63 6.63 0 01-6 0c-1.65-.95-1.65-2.5 0-3.46z"/><g stroke="#000" stroke-width="7"><path d="M277.62 744.62c18.42-10.64 48.33-10.64 66.75 0 18.42 10.63 18.42 27.9 0 38.53-18.42 10.63-48.33 10.64-66.75 0-18.42-10.63-18.42-27.9 0-38.53z" fill="none"/><path d="M303.02 757.41c5.3-3.05 13.89-3.05 19.19 0 5.3 3.06 5.3 8.02 0 11.08-5.3 3.06-13.9 3.06-19.2 0-5.29-3.06-5.29-8.02 0-11.08zM389.28 772.74c-1.83-1.06-4.62-1.17-6.2-.25l-57.19 33c-1.59.93-1.39 2.53.45 3.6l26.61 15.36c1.84 1.06 4.62 1.17 6.21.26l57.18-33.02c1.6-.92 1.4-2.52-.44-3.58l-26.62-15.37z" fill="none"/><path d="M379.1 793.19l-57.78-14.13 65.94 2.28c1.32.06 2.62.23 3.84.53 5.84 1.43 7.9 5.13 4.58 8.25-3.31 3.12-10.74 4.5-16.58 3.07z" fill="#fff"/></g><g><path d="M99.76 894.93c.05 2.08 1.5 2.11 4.31 3.74l114.18 65.92c5.56 3.2 14.37 3.33 19.67.27l76.76-44.31c2.6-1.51 3.88-3.51 3.83-5.54v22.27c0 1.99-1.27 3.95-3.83 5.43l-76.76 44.31c-5.3 3.06-14.11 2.93-19.67-.28l-114.18-65.92c-2.81-1.62-4.26-3.73-4.31-5.81v-20.08z" fill="#89c2d4"/><path d="M200.02 836.35c-5.56-3.21-14.37-3.33-19.67-.28L103.6 880.4c-5.3 3.05-5.09 8.14.47 11.35l114.18 65.92c5.56 3.21 14.37 3.34 19.67.28l76.76-44.32c5.3-3.05 5.08-8.14-.48-11.35l-114.18-65.92z" fill="#fff" stroke="#000" stroke-width="7"/><path d="M112.56 884.42a6.63 6.63 0 016 0c1.65.96 1.65 2.5 0 3.47a6.63 6.63 0 01-6 0c-1.66-.96-1.66-2.51 0-3.47zM188.75 840.44a6.63 6.63 0 016 0c1.65.95 1.65 2.5 0 3.46a6.63 6.63 0 01-6 0c-1.66-.96-1.66-2.5 0-3.46zM227.17 951.4a6.63 6.63 0 016 0c1.65.96 1.65 2.5 0 3.46a6.63 6.63 0 01-6 0c-1.66-.95-1.66-2.5 0-3.46zM303.35 907.42a6.63 6.63 0 016 0c1.66.95 1.66 2.5 0 3.46a6.63 6.63 0 01-6 0c-1.65-.96-1.65-2.5 0-3.46zM168.04 917.27a6.63 6.63 0 016 0c1.65.95 1.65 2.5 0 3.46a6.63 6.63 0 01-6 0c-1.65-.96-1.65-2.5 0-3.46zM244.23 873.28a6.63 6.63 0 016 0c1.65.96 1.65 2.5 0 3.46a6.63 6.63 0 01-6 0c-1.65-.95-1.65-2.5 0-3.46z"/><g><path d="M99.76 850.61c.05 2.08 1.5 2.12 4.31 3.74l114.18 65.92c5.56 3.21 14.37 3.34 19.67.28l76.76-44.32c2.6-1.5 3.88-3.5 3.83-5.54v22.28c0 1.99-1.27 3.94-3.83 5.42l-76.76 44.32c-5.3 3.05-14.11 2.93-19.67-.28L104.07 876.5c-2.81-1.63-4.26-3.73-4.31-5.82v-20.08z" fill="#89c2d4"/><path d="M200.02 792.03c-5.56-3.2-14.37-3.33-19.67-.27l-76.75 44.31c-5.3 3.06-5.09 8.15.47 11.36l114.18 65.92c5.56 3.2 14.37 3.33 19.67.27l76.76-44.31c5.3-3.06 5.08-8.15-.48-11.36l-114.18-65.92z" fill="#fff" stroke="#000" stroke-width="7"/><path d="M112.56 840.1a6.63 6.63 0 016 0c1.65.96 1.65 2.51 0 3.47a6.63 6.63 0 01-6 0c-1.66-.96-1.66-2.5 0-3.46zM188.75 796.12a6.63 6.63 0 016 0c1.65.96 1.65 2.5 0 3.46a6.63 6.63 0 01-6 0c-1.66-.95-1.66-2.5 0-3.46zM227.17 907.09a6.63 6.63 0 016 0c1.65.95 1.65 2.5 0 3.46a6.63 6.63 0 01-6 0c-1.66-.96-1.66-2.5 0-3.46zM303.35 863.1a6.63 6.63 0 016 0c1.66.96 1.66 2.5 0 3.46a6.63 6.63 0 01-6 0c-1.65-.95-1.65-2.5 0-3.46zM168.04 872.95a6.63 6.63 0 016 0c1.65.96 1.65 2.5 0 3.46a6.63 6.63 0 01-6 0c-1.65-.95-1.65-2.5 0-3.46zM244.23 828.97a6.63 6.63 0 016 0c1.65.95 1.65 2.5 0 3.46a6.63 6.63 0 01-6 0c-1.65-.96-1.65-2.5 0-3.46z"/><g stroke="#000" stroke-width="7"><path d="M151.96 817.4c18.42-10.64 48.33-10.64 66.75 0 18.41 10.63 18.41 27.9 0 38.53-18.43 10.63-48.33 10.63-66.75 0-18.42-10.64-18.42-27.9 0-38.54z" fill="none"/><path d="M177.35 830.19c5.3-3.06 13.9-3.06 19.2 0 5.29 3.05 5.29 8.02 0 11.07-5.3 3.06-13.9 3.06-19.2 0-5.3-3.05-5.3-8.02 0-11.07zM263.62 845.52c-1.84-1.06-4.62-1.18-6.2-.26l-57.2 33.01c-1.58.92-1.38 2.53.45 3.59l26.62 15.36c1.84 1.06 4.62 1.18 6.2.26l57.19-33.01c1.59-.92 1.39-2.53-.45-3.59l-26.61-15.36z" fill="none"/><path d="M253.43 865.96l-57.77-14.12 65.94 2.27c1.31.06 2.61.24 3.84.54 5.84 1.43 7.89 5.12 4.58 8.24-3.32 3.12-10.75 4.5-16.59 3.07z" fill="#fff"/></g></g></g><path d="M266.4 1037.26c0-14.08-10.37-22.78-22.4-22.78-11.97 0-22.4 8.7-22.4 22.78 0 14.08 10.43 22.78 22.4 22.78 12.03 0 22.4-8.7 22.4-22.78zm-3.58-.06c0 12.28-8.7 19.58-18.82 19.58-9.99 0-18.75-7.3-18.75-19.58 0-12.42 8.7-19.65 18.75-19.65 10.11 0 18.81 7.3 18.81 19.65zM299.36 1047.76c0-6.72-5.38-9.66-6.4-10.24-1.03-.58-5.95-2.62-9.09-3.97-3.14-1.34-6.6-3.33-6.6-8.32s4.1-7.68 9.22-7.68c5.12 0 7.68 2.7 9.35 4.8l2.43-2.1c-.38-.65-4.1-5.77-11.52-5.77s-13 4.48-13 10.88 4.68 9.28 6.4 10.24a82.3 82.3 0 007.24 3.2c2.56 1.03 8.45 3.2 8.45 8.96 0 5.76-4.61 9.28-10.3 9.28-5.7 0-9.54-3.9-11.14-6.85l-2.69 1.92c.96 1.8 4.93 7.94 13.5 7.94 8.58 0 14.15-5.57 14.15-12.29zM331.93 1018.25v-3.14h-29.7v3.14h13.13v41.02h3.45v-41.02h13.12z" fill-rule="nonzero"/><g><path d="M625.42 822.15c.06 2.09 1.5 2.12 4.32 3.74l114.17 65.92c5.56 3.21 14.38 3.34 19.67.28l76.76-44.32c2.61-1.5 3.88-3.5 3.83-5.54v22.28c0 1.99-1.27 3.94-3.83 5.42l-76.76 44.32c-5.3 3.05-14.1 2.93-19.67-.28l-114.17-65.92c-2.82-1.63-4.27-3.73-4.32-5.82v-20.08z" fill="#c690d2"/><path d="M725.68 763.57c-5.56-3.2-14.37-3.33-19.67-.27l-76.75 44.31c-5.3 3.06-5.08 8.15.48 11.36l114.17 65.92c5.56 3.2 14.38 3.33 19.67.27l76.76-44.31c5.3-3.06 5.08-8.15-.48-11.36l-114.18-65.92z" fill="#fff" stroke="#000" stroke-width="7"/><path d="M638.22 811.65a6.63 6.63 0 016 0c1.65.95 1.65 2.5 0 3.46a6.63 6.63 0 01-6 0c-1.65-.96-1.65-2.5 0-3.46zM714.41 767.66a6.63 6.63 0 016 0c1.65.96 1.65 2.5 0 3.46a6.63 6.63 0 01-6 0c-1.66-.95-1.66-2.5 0-3.46zM752.83 878.63a6.63 6.63 0 016 0c1.65.95 1.65 2.5 0 3.46a6.63 6.63 0 01-6 0c-1.66-.96-1.66-2.5 0-3.46zM829.02 834.64a6.63 6.63 0 016 0c1.65.96 1.65 2.5 0 3.46a6.63 6.63 0 01-6 0c-1.66-.95-1.66-2.5 0-3.46zM693.7 844.5a6.63 6.63 0 016 0c1.66.95 1.66 2.5 0 3.46a6.63 6.63 0 01-6 0c-1.65-.96-1.65-2.51 0-3.47zM769.9 800.5a6.63 6.63 0 015.99 0c1.66.96 1.66 2.51 0 3.47a6.63 6.63 0 01-6 0c-1.65-.96-1.65-2.5 0-3.46z"/><g><path d="M625.42 777.84c.06 2.08 1.5 2.11 4.32 3.74L743.9 847.5c5.56 3.2 14.38 3.33 19.67.27l76.76-44.31c2.61-1.51 3.88-3.51 3.83-5.54v22.27c0 1.99-1.27 3.95-3.83 5.43l-76.76 44.31c-5.3 3.06-14.1 2.93-19.67-.28l-114.17-65.91c-2.82-1.63-4.27-3.74-4.32-5.82v-20.08z" fill="#c690d2"/><path d="M725.68 719.26c-5.56-3.21-14.37-3.33-19.67-.28l-76.75 44.32c-5.3 3.06-5.08 8.14.48 11.35l114.17 65.92c5.56 3.21 14.38 3.34 19.67.28l76.76-44.32c5.3-3.05 5.08-8.14-.48-11.35l-114.18-65.92z" fill="#fff" stroke="#000" stroke-width="7"/><path d="M638.22 767.33a6.63 6.63 0 016 0c1.65.96 1.65 2.5 0 3.46a6.63 6.63 0 01-6 0c-1.65-.95-1.65-2.5 0-3.46zM714.41 723.35a6.63 6.63 0 016 0c1.65.95 1.65 2.5 0 3.46a6.63 6.63 0 01-6 0c-1.66-.96-1.66-2.5 0-3.46zM752.83 834.31a6.63 6.63 0 016 0c1.65.96 1.65 2.5 0 3.47a6.63 6.63 0 01-6 0c-1.66-.96-1.66-2.51 0-3.47zM829.02 790.33a6.63 6.63 0 016 0c1.65.95 1.65 2.5 0 3.46a6.63 6.63 0 01-6 0c-1.66-.96-1.66-2.5 0-3.46zM693.7 800.18a6.63 6.63 0 016 0c1.66.95 1.66 2.5 0 3.46a6.63 6.63 0 01-6 0c-1.65-.95-1.65-2.5 0-3.46zM769.9 756.2a6.63 6.63 0 015.99 0c1.66.95 1.66 2.5 0 3.45a6.63 6.63 0 01-6 0c-1.65-.95-1.65-2.5 0-3.46z"/><g stroke="#000" stroke-width="7"><path d="M677.62 744.62c18.42-10.64 48.33-10.64 66.75 0 18.42 10.63 18.42 27.9 0 38.53-18.42 10.63-48.33 10.64-66.75 0-18.42-10.63-18.42-27.9 0-38.53z" fill="none"/><path d="M703.02 757.41c5.3-3.05 13.89-3.05 19.18 0 5.3 3.06 5.3 8.02 0 11.08-5.29 3.06-13.89 3.06-19.18 0-5.3-3.06-5.3-8.02 0-11.08zM789.28 772.74c-1.83-1.06-4.62-1.17-6.2-.25l-57.19 33c-1.59.93-1.39 2.53.45 3.6l26.61 15.36c1.84 1.06 4.62 1.17 6.21.26l57.18-33.02c1.6-.92 1.4-2.52-.44-3.58l-26.62-15.37z" fill="none"/><path d="M779.1 793.19l-57.78-14.13 65.94 2.28c1.32.06 2.62.23 3.84.53 5.84 1.43 7.9 5.13 4.58 8.25-3.31 3.12-10.74 4.5-16.58 3.07z" fill="#fff"/></g></g><g><path d="M499.76 894.93c.05 2.08 1.5 2.11 4.31 3.74l114.18 65.92c5.56 3.2 14.37 3.33 19.67.27l76.76-44.31c2.6-1.51 3.88-3.51 3.83-5.54v22.27c0 1.99-1.27 3.95-3.84 5.43l-76.75 44.31c-5.3 3.06-14.11 2.93-19.67-.28l-114.18-65.92c-2.81-1.62-4.26-3.73-4.31-5.81v-20.08z" fill="#c690d2"/><path d="M600.02 836.35c-5.56-3.21-14.37-3.33-19.67-.28L503.6 880.4c-5.3 3.05-5.08 8.14.48 11.35l114.18 65.92c5.56 3.21 14.37 3.34 19.67.28l76.76-44.32c5.3-3.05 5.08-8.14-.48-11.35l-114.18-65.92z" fill="#fff" stroke="#000" stroke-width="7"/><path d="M512.56 884.42a6.63 6.63 0 016 0c1.65.96 1.65 2.5 0 3.47a6.63 6.63 0 01-6 0c-1.66-.96-1.66-2.51 0-3.47zM588.75 840.44a6.63 6.63 0 016 0c1.65.95 1.65 2.5 0 3.46a6.63 6.63 0 01-6 0c-1.66-.96-1.66-2.5 0-3.46zM627.17 951.4a6.63 6.63 0 016 0c1.65.96 1.65 2.5 0 3.46a6.63 6.63 0 01-6 0c-1.66-.95-1.66-2.5 0-3.46zM703.35 907.42a6.63 6.63 0 016 0c1.66.95 1.66 2.5 0 3.46a6.63 6.63 0 01-6 0c-1.65-.96-1.65-2.5 0-3.46zM568.04 917.27a6.63 6.63 0 016 0c1.65.95 1.65 2.5 0 3.46a6.63 6.63 0 01-6 0c-1.65-.96-1.65-2.5 0-3.46zM644.23 873.28a6.63 6.63 0 016 0c1.65.96 1.65 2.5 0 3.46a6.63 6.63 0 01-6 0c-1.65-.95-1.65-2.5 0-3.46z"/><g><path d="M499.76 850.61c.05 2.08 1.5 2.12 4.31 3.74l114.18 65.92c5.56 3.21 14.37 3.34 19.67.28l76.76-44.32c2.6-1.5 3.88-3.5 3.83-5.54v22.28c0 1.99-1.27 3.94-3.84 5.42l-76.75 44.32c-5.3 3.05-14.11 2.93-19.67-.28L504.07 876.5c-2.81-1.63-4.26-3.73-4.31-5.82v-20.08z" fill="#c690d2"/><path d="M600.02 792.03c-5.56-3.2-14.37-3.33-19.67-.27l-76.76 44.31c-5.3 3.06-5.08 8.15.48 11.36l114.18 65.92c5.56 3.2 14.37 3.33 19.67.27l76.76-44.31c5.3-3.06 5.08-8.15-.48-11.36l-114.18-65.92z" fill="#fff" stroke="#000" stroke-width="7"/><path d="M512.56 840.1a6.63 6.63 0 016 0c1.65.96 1.65 2.51 0 3.47a6.63 6.63 0 01-6 0c-1.66-.96-1.66-2.5 0-3.46zM588.75 796.12a6.63 6.63 0 016 0c1.65.96 1.65 2.5 0 3.46a6.63 6.63 0 01-6 0c-1.66-.95-1.66-2.5 0-3.46zM627.17 907.09a6.63 6.63 0 016 0c1.65.95 1.65 2.5 0 3.46a6.63 6.63 0 01-6 0c-1.66-.96-1.66-2.5 0-3.46zM703.35 863.1a6.63 6.63 0 016 0c1.66.96 1.66 2.5 0 3.46a6.63 6.63 0 01-6 0c-1.65-.95-1.65-2.5 0-3.46zM568.04 872.95a6.63 6.63 0 016 0c1.65.96 1.65 2.5 0 3.46a6.63 6.63 0 01-6 0c-1.65-.95-1.65-2.5 0-3.46zM644.23 828.97a6.63 6.63 0 016 0c1.65.95 1.65 2.5 0 3.46a6.63 6.63 0 01-6 0c-1.65-.96-1.65-2.5 0-3.46z"/><g stroke="#000" stroke-width="7"><path d="M551.96 817.4c18.42-10.64 48.33-10.64 66.74 0 18.42 10.63 18.42 27.9 0 38.53-18.42 10.63-48.32 10.63-66.74 0-18.42-10.64-18.42-27.9 0-38.54z" fill="none"/><path d="M577.35 830.19c5.3-3.06 13.9-3.06 19.2 0 5.29 3.05 5.29 8.02 0 11.07-5.3 3.06-13.9 3.06-19.2 0-5.3-3.05-5.3-8.02 0-11.07zM663.62 845.52c-1.84-1.06-4.62-1.18-6.2-.26l-57.2 33.01c-1.58.92-1.38 2.53.46 3.59l26.61 15.36c1.84 1.06 4.62 1.18 6.2.26l57.19-33.01c1.59-.92 1.39-2.53-.45-3.59l-26.61-15.36z" fill="none"/><path d="M653.43 865.96l-57.77-14.12 65.94 2.27c1.31.06 2.61.24 3.84.54 5.84 1.43 7.89 5.12 4.58 8.24-3.32 3.12-10.75 4.5-16.59 3.07z" fill="#fff"/></g></g></g><path d="M671.4 1037.26c0-14.08-10.38-22.78-22.4-22.78-11.98 0-22.4 8.7-22.4 22.78 0 14.08 10.42 22.78 22.4 22.78 12.02 0 22.4-8.7 22.4-22.78zm-3.6-.06c0 12.28-8.7 19.58-18.8 19.58-10 0-18.76-7.3-18.76-19.58 0-12.42 8.7-19.65 18.75-19.65 10.11 0 18.82 7.3 18.82 19.65zM704.35 1047.76c0-6.72-5.37-9.66-6.4-10.24-1.02-.58-5.95-2.62-9.09-3.97-3.13-1.34-6.59-3.33-6.59-8.32s4.1-7.68 9.22-7.68c5.12 0 7.68 2.7 9.34 4.8l2.43-2.1c-.38-.65-4.1-5.77-11.52-5.77s-12.99 4.48-12.99 10.88 4.67 9.28 6.4 10.24a82.3 82.3 0 007.23 3.2c2.56 1.03 8.45 3.2 8.45 8.96 0 5.76-4.6 9.28-10.3 9.28-5.7 0-9.54-3.9-11.14-6.85l-2.69 1.92c.96 1.8 4.93 7.94 13.5 7.94 8.58 0 14.15-5.57 14.15-12.29zM736.93 1018.25v-3.14h-29.7v3.14h13.12v41.02h3.46v-41.02h13.12z" fill-rule="nonzero"/></g><g><path d="M1025.42 822.15c.05 2.09 1.5 2.12 4.32 3.74l114.17 65.92c5.56 3.21 14.37 3.34 19.67.28l76.76-44.32c2.6-1.5 3.88-3.5 3.83-5.54v22.28c0 1.99-1.27 3.94-3.83 5.42l-76.76 44.32c-5.3 3.05-14.1 2.93-19.67-.28l-114.18-65.92c-2.81-1.63-4.26-3.73-4.31-5.82v-20.08z" fill="#ff9b92"/><path d="M1125.68 763.57c-5.56-3.2-14.37-3.33-19.67-.27l-76.76 44.31c-5.3 3.06-5.08 8.15.48 11.36l114.18 65.92c5.56 3.2 14.37 3.33 19.67.27l76.76-44.31c5.3-3.06 5.08-8.15-.48-11.36l-114.18-65.92z" fill="#fff" stroke="#000" stroke-width="7"/><path d="M1038.22 811.65a6.63 6.63 0 016 0c1.65.95 1.65 2.5 0 3.46a6.63 6.63 0 01-6 0c-1.66-.96-1.66-2.5 0-3.46zM1114.41 767.66a6.63 6.63 0 016 0c1.65.96 1.65 2.5 0 3.46a6.63 6.63 0 01-6 0c-1.66-.95-1.66-2.5 0-3.46zM1152.83 878.63a6.63 6.63 0 016 0c1.65.95 1.65 2.5 0 3.46a6.63 6.63 0 01-6 0c-1.66-.96-1.66-2.5 0-3.46zM1229.02 834.64a6.63 6.63 0 016 0c1.65.96 1.65 2.5 0 3.46a6.63 6.63 0 01-6 0c-1.66-.95-1.66-2.5 0-3.46zM1093.71 844.5a6.63 6.63 0 016 0c1.65.95 1.65 2.5 0 3.46a6.63 6.63 0 01-6 0c-1.66-.96-1.66-2.51 0-3.47zM1169.89 800.5a6.63 6.63 0 016 0c1.65.96 1.65 2.51 0 3.47a6.63 6.63 0 01-6 0c-1.65-.96-1.65-2.5 0-3.46z"/><g><path d="M1025.42 777.84c.05 2.08 1.5 2.11 4.32 3.74l114.17 65.92c5.56 3.2 14.37 3.33 19.67.27l76.76-44.31c2.6-1.51 3.88-3.51 3.83-5.54v22.27c0 1.99-1.27 3.95-3.83 5.43l-76.76 44.31c-5.3 3.06-14.1 2.93-19.67-.28l-114.18-65.91c-2.81-1.63-4.26-3.74-4.31-5.82v-20.08z" fill="#ff9b92"/><path d="M1125.68 719.26c-5.56-3.21-14.37-3.33-19.67-.28l-76.76 44.32c-5.3 3.06-5.08 8.14.48 11.35l114.18 65.92c5.56 3.21 14.37 3.34 19.67.28l76.76-44.32c5.3-3.05 5.08-8.14-.48-11.35l-114.18-65.92z" fill="#fff" stroke="#000" stroke-width="7"/><path d="M1038.22 767.33a6.63 6.63 0 016 0c1.65.96 1.65 2.5 0 3.46a6.63 6.63 0 01-6 0c-1.66-.95-1.66-2.5 0-3.46zM1114.41 723.35a6.63 6.63 0 016 0c1.65.95 1.65 2.5 0 3.46a6.63 6.63 0 01-6 0c-1.66-.96-1.66-2.5 0-3.46zM1152.83 834.31a6.63 6.63 0 016 0c1.65.96 1.65 2.5 0 3.47a6.63 6.63 0 01-6 0c-1.66-.96-1.66-2.51 0-3.47zM1229.02 790.33a6.63 6.63 0 016 0c1.65.95 1.65 2.5 0 3.46a6.63 6.63 0 01-6 0c-1.66-.96-1.66-2.5 0-3.46zM1093.71 800.18a6.63 6.63 0 016 0c1.65.95 1.65 2.5 0 3.46a6.63 6.63 0 01-6 0c-1.66-.95-1.66-2.5 0-3.46zM1169.89 756.2a6.63 6.63 0 016 0c1.65.95 1.65 2.5 0 3.45a6.63 6.63 0 01-6 0c-1.65-.95-1.65-2.5 0-3.46z"/><g stroke="#000" stroke-width="7"><path d="M1077.62 744.62c18.42-10.64 48.33-10.64 66.74 0 18.42 10.63 18.42 27.9 0 38.53-18.42 10.63-48.33 10.64-66.74 0-18.42-10.63-18.42-27.9 0-38.53z" fill="none"/><path d="M1103.02 757.41c5.3-3.05 13.9-3.05 19.19 0 5.3 3.06 5.3 8.02 0 11.08-5.3 3.06-13.9 3.06-19.19 0-5.3-3.06-5.3-8.02 0-11.08zM1189.28 772.74c-1.84-1.06-4.62-1.17-6.2-.25l-57.19 33c-1.59.93-1.39 2.53.45 3.6l26.61 15.36c1.84 1.06 4.62 1.17 6.2.26l57.19-33.02c1.59-.92 1.4-2.52-.45-3.58l-26.61-15.37z" fill="none"/><path d="M1179.1 793.19l-57.77-14.13 65.93 2.28c1.32.06 2.62.23 3.85.53 5.84 1.43 7.89 5.13 4.57 8.25-3.31 3.12-10.74 4.5-16.58 3.07z" fill="#fff"/></g></g><g><path d="M899.76 894.93c.05 2.08 1.5 2.11 4.31 3.74l114.18 65.92c5.56 3.2 14.37 3.33 19.67.27l76.76-44.31c2.6-1.51 3.88-3.51 3.83-5.54v22.27c0 1.99-1.27 3.95-3.83 5.43l-76.76 44.31c-5.3 3.06-14.11 2.93-19.67-.28l-114.18-65.92c-2.81-1.62-4.26-3.73-4.31-5.81v-20.08z" fill="#ff9b92"/><path d="M1000.02 836.35c-5.56-3.21-14.37-3.33-19.67-.28L903.6 880.4c-5.3 3.05-5.08 8.14.48 11.35l114.18 65.92c5.56 3.21 14.37 3.34 19.67.28l76.76-44.32c5.3-3.05 5.08-8.14-.48-11.35l-114.18-65.92z" fill="#fff" stroke="#000" stroke-width="7"/><path d="M912.56 884.42a6.63 6.63 0 016 0c1.65.96 1.65 2.5 0 3.47a6.63 6.63 0 01-6 0c-1.66-.96-1.66-2.51 0-3.47zM988.75 840.44a6.63 6.63 0 016 0c1.65.95 1.65 2.5 0 3.46a6.63 6.63 0 01-6 0c-1.66-.96-1.66-2.5 0-3.46zM1027.17 951.4a6.63 6.63 0 016 0c1.65.96 1.65 2.5 0 3.46a6.63 6.63 0 01-6 0c-1.66-.95-1.66-2.5 0-3.46zM1103.35 907.42a6.63 6.63 0 016 0c1.65.95 1.65 2.5 0 3.46a6.63 6.63 0 01-6 0c-1.66-.96-1.66-2.5 0-3.46zM968.04 917.27a6.63 6.63 0 016 0c1.65.95 1.65 2.5 0 3.46a6.63 6.63 0 01-6 0c-1.65-.96-1.65-2.5 0-3.46zM1044.23 873.28a6.63 6.63 0 016 0c1.65.96 1.65 2.5 0 3.46a6.63 6.63 0 01-6 0c-1.65-.95-1.65-2.5 0-3.46z"/><g><path d="M899.76 850.61c.05 2.08 1.5 2.12 4.31 3.74l114.18 65.92c5.56 3.21 14.37 3.34 19.67.28l76.76-44.32c2.6-1.5 3.88-3.5 3.83-5.54v22.28c0 1.99-1.27 3.94-3.83 5.42l-76.76 44.32c-5.3 3.05-14.11 2.93-19.67-.28L904.07 876.5c-2.81-1.63-4.26-3.73-4.31-5.82v-20.08z" fill="#ff9b92"/><path d="M1000.02 792.03c-5.56-3.2-14.37-3.33-19.67-.27l-76.76 44.31c-5.3 3.06-5.08 8.15.48 11.36l114.18 65.92c5.56 3.2 14.37 3.33 19.67.27l76.76-44.31c5.3-3.06 5.08-8.15-.48-11.36l-114.18-65.92z" fill="#fff" stroke="#000" stroke-width="7"/><path d="M912.56 840.1a6.63 6.63 0 016 0c1.65.96 1.65 2.51 0 3.47a6.63 6.63 0 01-6 0c-1.66-.96-1.66-2.5 0-3.46zM988.75 796.12a6.63 6.63 0 016 0c1.65.96 1.65 2.5 0 3.46a6.63 6.63 0 01-6 0c-1.66-.95-1.66-2.5 0-3.46zM1027.17 907.09a6.63 6.63 0 016 0c1.65.95 1.65 2.5 0 3.46a6.63 6.63 0 01-6 0c-1.66-.96-1.66-2.5 0-3.46zM1103.35 863.1a6.63 6.63 0 016 0c1.65.96 1.65 2.5 0 3.46a6.63 6.63 0 01-6 0c-1.66-.95-1.66-2.5 0-3.46zM968.04 872.95a6.63 6.63 0 016 0c1.65.96 1.65 2.5 0 3.46a6.63 6.63 0 01-6 0c-1.65-.95-1.65-2.5 0-3.46zM1044.23 828.97a6.63 6.63 0 016 0c1.65.95 1.65 2.5 0 3.46a6.63 6.63 0 01-6 0c-1.65-.96-1.65-2.5 0-3.46z"/><g stroke="#000" stroke-width="7"><path d="M951.96 817.4c18.42-10.64 48.33-10.64 66.74 0 18.42 10.63 18.42 27.9 0 38.53-18.42 10.63-48.32 10.63-66.74 0-18.42-10.64-18.42-27.9 0-38.54z" fill="none"/><path d="M977.35 830.19c5.3-3.06 13.9-3.06 19.2 0 5.29 3.05 5.29 8.02 0 11.07-5.3 3.06-13.9 3.06-19.2 0-5.3-3.05-5.3-8.02 0-11.07zM1063.62 845.52c-1.84-1.06-4.62-1.18-6.2-.26l-57.19 33.01c-1.59.92-1.39 2.53.45 3.59l26.61 15.36c1.84 1.06 4.62 1.18 6.2.26l57.19-33.01c1.59-.92 1.4-2.53-.45-3.59l-26.61-15.36z" fill="none"/><path d="M1053.43 865.96l-57.77-14.12 65.93 2.27c1.32.06 2.62.24 3.85.54 5.84 1.43 7.89 5.12 4.57 8.24-3.31 3.12-10.74 4.5-16.58 3.07z" fill="#fff"/></g></g></g><path d="M1060.27 1037.26c0-14.08-10.37-22.78-22.4-22.78-11.97 0-22.4 8.7-22.4 22.78 0 14.08 10.43 22.78 22.4 22.78 12.03 0 22.4-8.7 22.4-22.78zm-3.58-.06c0 12.28-8.7 19.58-18.82 19.58-9.98 0-18.75-7.3-18.75-19.58 0-12.42 8.7-19.65 18.75-19.65 10.11 0 18.82 7.3 18.82 19.65zM1093.23 1047.76c0-6.72-5.38-9.66-6.4-10.24-1.02-.58-5.95-2.62-9.09-3.97-3.13-1.34-6.59-3.33-6.59-8.32s4.1-7.68 9.22-7.68c5.12 0 7.68 2.7 9.34 4.8l2.43-2.1c-.38-.65-4.1-5.77-11.52-5.77s-12.99 4.48-12.99 10.88 4.67 9.28 6.4 10.24a82.3 82.3 0 007.23 3.2c2.56 1.03 8.45 3.2 8.45 8.96 0 5.76-4.6 9.28-10.3 9.28-5.7 0-9.54-3.9-11.14-6.85l-2.69 1.92c.96 1.8 4.93 7.94 13.5 7.94 8.58 0 14.15-5.57 14.15-12.29zM1125.81 1018.25v-3.14h-29.7v3.14h13.12v41.02h3.46v-41.02h13.12z" fill-rule="nonzero"/></g><g><path d="M1425.42 822.15c.05 2.09 1.5 2.12 4.32 3.74l114.17 65.92c5.56 3.21 14.37 3.34 19.67.28l76.76-44.32c2.6-1.5 3.88-3.5 3.83-5.54v22.28c0 1.99-1.27 3.94-3.83 5.42l-76.76 44.32c-5.3 3.05-14.1 2.93-19.67-.28l-114.18-65.92c-2.81-1.63-4.26-3.73-4.31-5.82v-20.08z" fill="#5cbf93"/><path d="M1525.68 763.57c-5.56-3.2-14.37-3.33-19.67-.27l-76.76 44.31c-5.3 3.06-5.08 8.15.48 11.36l114.18 65.92c5.56 3.2 14.37 3.33 19.67.27l76.76-44.31c5.3-3.06 5.08-8.15-.48-11.36l-114.18-65.92z" fill="#fff" stroke="#000" stroke-width="7"/><path d="M1438.22 811.65a6.63 6.63 0 016 0c1.65.95 1.65 2.5 0 3.46a6.63 6.63 0 01-6 0c-1.66-.96-1.66-2.5 0-3.46zM1514.41 767.66a6.63 6.63 0 016 0c1.65.96 1.65 2.5 0 3.46a6.63 6.63 0 01-6 0c-1.66-.95-1.66-2.5 0-3.46zM1552.83 878.63a6.63 6.63 0 016 0c1.65.95 1.65 2.5 0 3.46a6.63 6.63 0 01-6 0c-1.66-.96-1.66-2.5 0-3.46zM1629.02 834.64a6.63 6.63 0 016 0c1.65.96 1.65 2.5 0 3.46a6.63 6.63 0 01-6 0c-1.66-.95-1.66-2.5 0-3.46zM1493.71 844.5a6.63 6.63 0 016 0c1.65.95 1.65 2.5 0 3.46a6.63 6.63 0 01-6 0c-1.66-.96-1.66-2.51 0-3.47zM1569.89 800.5a6.63 6.63 0 016 0c1.65.96 1.65 2.51 0 3.47a6.63 6.63 0 01-6 0c-1.65-.96-1.65-2.5 0-3.46z"/><g><path d="M1425.42 777.84c.05 2.08 1.5 2.11 4.32 3.74l114.17 65.92c5.56 3.2 14.37 3.33 19.67.27l76.76-44.31c2.6-1.51 3.88-3.51 3.83-5.54v22.27c0 1.99-1.27 3.95-3.83 5.43l-76.76 44.31c-5.3 3.06-14.1 2.93-19.67-.28l-114.18-65.91c-2.81-1.63-4.26-3.74-4.31-5.82v-20.08z" fill="#5cbf93"/><path d="M1525.68 719.26c-5.56-3.21-14.37-3.33-19.67-.28l-76.76 44.32c-5.3 3.06-5.08 8.14.48 11.35l114.18 65.92c5.56 3.21 14.37 3.34 19.67.28l76.76-44.32c5.3-3.05 5.08-8.14-.48-11.35l-114.18-65.92z" fill="#fff" stroke="#000" stroke-width="7"/><path d="M1438.22 767.33a6.63 6.63 0 016 0c1.65.96 1.65 2.5 0 3.46a6.63 6.63 0 01-6 0c-1.66-.95-1.66-2.5 0-3.46zM1514.41 723.35a6.63 6.63 0 016 0c1.65.95 1.65 2.5 0 3.46a6.63 6.63 0 01-6 0c-1.66-.96-1.66-2.5 0-3.46zM1552.83 834.31a6.63 6.63 0 016 0c1.65.96 1.65 2.5 0 3.47a6.63 6.63 0 01-6 0c-1.66-.96-1.66-2.51 0-3.47zM1629.02 790.33a6.63 6.63 0 016 0c1.65.95 1.65 2.5 0 3.46a6.63 6.63 0 01-6 0c-1.66-.96-1.66-2.5 0-3.46zM1493.71 800.18a6.63 6.63 0 016 0c1.65.95 1.65 2.5 0 3.46a6.63 6.63 0 01-6 0c-1.66-.95-1.66-2.5 0-3.46zM1569.89 756.2a6.63 6.63 0 016 0c1.65.95 1.65 2.5 0 3.45a6.63 6.63 0 01-6 0c-1.65-.95-1.65-2.5 0-3.46z"/><g stroke="#000" stroke-width="7"><path d="M1477.62 744.62c18.42-10.64 48.33-10.64 66.74 0 18.42 10.63 18.42 27.9 0 38.53-18.42 10.63-48.33 10.64-66.74 0-18.42-10.63-18.42-27.9 0-38.53z" fill="none"/><path d="M1503.02 757.41c5.3-3.05 13.9-3.05 19.19 0 5.3 3.06 5.3 8.02 0 11.08-5.3 3.06-13.9 3.06-19.19 0-5.3-3.06-5.3-8.02 0-11.08zM1589.28 772.74c-1.84-1.06-4.62-1.17-6.2-.25l-57.19 33c-1.59.93-1.39 2.53.45 3.6l26.61 15.36c1.84 1.06 4.62 1.17 6.2.26l57.19-33.02c1.59-.92 1.4-2.52-.45-3.58l-26.61-15.37z" fill="none"/><path d="M1579.1 793.19l-57.77-14.13 65.93 2.28c1.32.06 2.62.23 3.85.53 5.84 1.43 7.89 5.13 4.57 8.25-3.31 3.12-10.74 4.5-16.58 3.07z" fill="#fff"/></g></g><g><path d="M1299.76 894.93c.05 2.08 1.5 2.11 4.32 3.74l114.17 65.92c5.56 3.2 14.37 3.33 19.67.27l76.76-44.31c2.6-1.51 3.88-3.51 3.83-5.54v22.27c0 1.99-1.27 3.95-3.83 5.43l-76.76 44.31c-5.3 3.06-14.1 2.93-19.67-.28l-114.18-65.92c-2.81-1.62-4.26-3.73-4.31-5.81v-20.08z" fill="#5cbf93"/><path d="M1400.02 836.35c-5.56-3.21-14.37-3.33-19.67-.28l-76.76 44.32c-5.3 3.05-5.08 8.14.48 11.35l114.18 65.92c5.56 3.21 14.37 3.34 19.67.28l76.75-44.32c5.3-3.05 5.09-8.14-.47-11.35l-114.18-65.92z" fill="#fff" stroke="#000" stroke-width="7"/><path d="M1312.56 884.42a6.63 6.63 0 016 0c1.65.96 1.65 2.5 0 3.47a6.63 6.63 0 01-6 0c-1.66-.96-1.66-2.51 0-3.47zM1388.75 840.44a6.63 6.63 0 016 0c1.65.95 1.65 2.5 0 3.46a6.63 6.63 0 01-6 0c-1.65-.96-1.65-2.5 0-3.46zM1427.17 951.4a6.63 6.63 0 016 0c1.65.96 1.65 2.5 0 3.46a6.63 6.63 0 01-6 0c-1.66-.95-1.66-2.5 0-3.46zM1503.35 907.42a6.63 6.63 0 016 0c1.65.95 1.65 2.5 0 3.46a6.63 6.63 0 01-6 0c-1.66-.96-1.66-2.5 0-3.46zM1368.04 917.27a6.63 6.63 0 016 0c1.65.95 1.65 2.5 0 3.46a6.63 6.63 0 01-6 0c-1.66-.96-1.66-2.5 0-3.46zM1444.23 873.28a6.63 6.63 0 016 0c1.65.96 1.65 2.5 0 3.46a6.63 6.63 0 01-6 0c-1.65-.95-1.65-2.5 0-3.46z"/><g><path d="M1299.76 850.61c.05 2.08 1.5 2.12 4.32 3.74l114.17 65.92c5.56 3.21 14.37 3.34 19.67.28l76.76-44.32c2.6-1.5 3.88-3.5 3.83-5.54v22.28c0 1.99-1.27 3.94-3.83 5.42l-76.76 44.32c-5.3 3.05-14.1 2.93-19.67-.28l-114.18-65.92c-2.81-1.63-4.26-3.73-4.31-5.82v-20.08z" fill="#5cbf93"/><path d="M1400.02 792.03c-5.56-3.2-14.37-3.33-19.67-.27l-76.76 44.31c-5.3 3.06-5.08 8.15.48 11.36l114.18 65.92c5.56 3.2 14.37 3.33 19.67.27l76.75-44.31c5.3-3.06 5.09-8.15-.47-11.36l-114.18-65.92z" fill="#fff" stroke="#000" stroke-width="7"/><path d="M1312.56 840.1a6.63 6.63 0 016 0c1.65.96 1.65 2.51 0 3.47a6.63 6.63 0 01-6 0c-1.66-.96-1.66-2.5 0-3.46zM1388.75 796.12a6.63 6.63 0 016 0c1.65.96 1.65 2.5 0 3.46a6.63 6.63 0 01-6 0c-1.65-.95-1.65-2.5 0-3.46zM1427.17 907.09a6.63 6.63 0 016 0c1.65.95 1.65 2.5 0 3.46a6.63 6.63 0 01-6 0c-1.66-.96-1.66-2.5 0-3.46zM1503.35 863.1a6.63 6.63 0 016 0c1.65.96 1.65 2.5 0 3.46a6.63 6.63 0 01-6 0c-1.66-.95-1.66-2.5 0-3.46zM1368.04 872.95a6.63 6.63 0 016 0c1.65.96 1.65 2.5 0 3.46a6.63 6.63 0 01-6 0c-1.66-.95-1.66-2.5 0-3.46zM1444.23 828.97a6.63 6.63 0 016 0c1.65.95 1.65 2.5 0 3.46a6.63 6.63 0 01-6 0c-1.65-.96-1.65-2.5 0-3.46z"/><g stroke="#000" stroke-width="7"><path d="M1351.96 817.4c18.42-10.64 48.33-10.64 66.74 0 18.42 10.63 18.42 27.9 0 38.53-18.42 10.63-48.33 10.63-66.74 0-18.42-10.64-18.42-27.9 0-38.54z" fill="none"/><path d="M1377.35 830.19c5.3-3.06 13.9-3.06 19.19 0 5.3 3.05 5.3 8.02 0 11.07-5.3 3.06-13.9 3.06-19.19 0-5.3-3.05-5.3-8.02 0-11.07zM1463.62 845.52c-1.84-1.06-4.62-1.18-6.2-.26l-57.19 33.01c-1.59.92-1.39 2.53.45 3.59l26.61 15.36c1.84 1.06 4.62 1.18 6.2.26l57.19-33.01c1.59-.92 1.4-2.53-.45-3.59l-26.61-15.36z" fill="none"/><path d="M1453.43 865.96l-57.77-14.12 65.93 2.27c1.32.06 2.62.24 3.85.54 5.84 1.43 7.89 5.12 4.57 8.24-3.31 3.12-10.74 4.5-16.58 3.07z" fill="#fff"/></g></g></g><path d="M1465.76 1040.42c0-14.08-10.37-22.78-22.4-22.78-11.97 0-22.4 8.7-22.4 22.78 0 14.08 10.43 22.78 22.4 22.78 12.03 0 22.4-8.7 22.4-22.78zm-3.58-.06c0 12.28-8.7 19.58-18.82 19.58-9.98 0-18.75-7.3-18.75-19.58 0-12.42 8.7-19.65 18.75-19.65 10.11 0 18.82 7.3 18.82 19.65zM1498.72 1050.91c0-6.72-5.38-9.66-6.4-10.24-1.02-.58-5.95-2.62-9.09-3.97-3.13-1.34-6.59-3.33-6.59-8.32s4.1-7.68 9.22-7.68c5.12 0 7.68 2.7 9.34 4.8l2.43-2.1c-.38-.65-4.1-5.77-11.52-5.77s-12.99 4.48-12.99 10.88 4.67 9.28 6.4 10.24a82.3 82.3 0 007.23 3.2c2.56 1.03 8.45 3.2 8.45 8.96 0 5.76-4.6 9.28-10.3 9.28-5.7 0-9.54-3.9-11.14-6.85l-2.69 1.92c.96 1.8 4.93 7.94 13.5 7.94 8.58 0 14.15-5.57 14.15-12.29zM1531.29 1021.41v-3.14h-29.7v3.14h13.12v41.02h3.46v-41.02h13.12z" fill-rule="nonzero"/></g><g><path fill="#89c2d4" d="M570 189.26h120v120H570z"/><path fill="#c690d2" d="M700 189.26h120v120H700z"/><path fill="#ff9b92" d="M830 189.26h120v120H830z"/><path fill="#5cbf93" d="M960 189.26h120v120H960z"/><path fill="#89c2d4" d="M1090 189.26h120v120h-120z"/><path fill="#c690d2" d="M1220 189.26h120v120h-120z"/><path fill="#ff9b92" d="M1350 189.26h120v120h-120z"/><path fill="#5cbf93" d="M1480 189.26h120v120h-120z"/><path fill="none" stroke="#000" stroke-width="7" d="M560 179.26h1050v140H560z"/><path d="M570 158.62h4.8v-19.77h17.54v-4.16H574.8v-16.07h18.69v-4.16H570v44.16zM606.35 118.3c0-1.85-1.4-3.26-3.33-3.26-1.98 0-3.39 1.4-3.39 3.26 0 1.86 1.41 3.27 3.4 3.27 1.91 0 3.26-1.41 3.32-3.27zm-5.7 40.32h4.74v-30.01h-4.73v30.01zM614.99 114.46h4.74v44.16h-4.74zM654.67 154.33l-2.05-2.81s-4.22 3.77-10.1 3.77c-6.4 0-10.7-4.35-10.76-10.56h23.68s.2-1.4.2-2.5c0-8.25-5.7-14.2-13.96-14.2-8.96 0-14.78 6.97-14.78 15.49 0 9.66 5.95 15.74 14.78 15.74 5.89 0 10.24-1.66 13-4.93zm-3.84-13.18h-19c.38-4.67 3.64-9.22 9.66-9.15 6.59.06 9.34 4.93 9.34 9.15z" fill-rule="nonzero"/></g><g><path fill="#89c2d4" d="M115 577.45h80v80h-80zM205 577.45h80v80h-80z"/><path d="M189.5 731.44l10.5 21 10.5-21h-21z"/><path d="M200 735.64v-63.2" fill="none" stroke="#000" stroke-width="7"/><path d="M189.5 543.45l10.5 21 10.5-21h-21z"/><path d="M200 547.65v-146.2" fill="none" stroke="#000" stroke-width="7"/></g><g><path fill="#c690d2" d="M515 577.45h80v80h-80zM605 577.45h80v80h-80z"/><path d="M589.5 731.44l10.5 21 10.5-21h-21z"/><path d="M600 735.64v-63.2" fill="none" stroke="#000" stroke-width="7"/><path d="M589.5 543.45l10.5 21 10.5-21h-21z"/><path d="M600 547.65v-43.2H240v-100" fill="none" stroke="#000" stroke-width="7"/></g><g><path fill="#ff9b92" d="M915 577.45h80v80h-80zM1005 577.45h80v80h-80z"/><path d="M989.5 731.44l10.5 21 10.5-21h-21z"/><path d="M1000 735.64v-63.2" fill="none" stroke="#000" stroke-width="7"/><path d="M989.5 543.45l10.5 21 10.5-21h-21z"/><path d="M1000 547.65v-103.2H280v-60" fill="none" stroke="#000" stroke-width="7"/></g><g><path fill="#5cbf93" d="M1315 577.45h80v80h-80zM1405 577.45h80v80h-80z"/><path d="M1389.5 731.44l10.5 21 10.5-21h-21z"/><path d="M1400 735.64v-63.2" fill="none" stroke="#000" stroke-width="7"/><path d="M1389.5 543.45l10.5 21 10.5-21h-21z"/><path d="M1400 547.65v-163.2H320v-20" fill="none" stroke="#000" stroke-width="7"/></g><g><path d="M102.69 94.16h20.41v-4.29H107.5V50h-4.8v44.16zM147.94 64.08v16.64c0 5.25-2.63 9.85-8 9.85-5.57 0-7.36-3.07-7.36-8.64V64.08h-4.8v18.17c0 7.17 2.1 12.42 10.68 12.42 4.3 0 8.13-2.11 9.48-5.31l.06 4.8h4.6V64.08h-4.66zM161.06 86.48l-2.5 3c2.24 3.2 6.2 5.32 11.14 5.32 6.2 0 11-3.4 11-9.15 0-6.47-6.65-8-9.66-9.03-3.33-1.08-6.4-2.36-6.4-5.12 0-2.81 2.18-4.28 5.31-4.28 2.69 0 5.44.96 7.55 2.75l2.3-2.88c-2.1-1.92-4.98-3.52-9.85-3.52-4.86 0-9.66 2.88-9.66 8.38 0 6.34 6.4 7.8 8.57 8.51 2.3.77 7.36 1.99 7.36 5.57s-3.13 5-6.4 5c-2.88 0-5.88-1.29-8.76-4.55zM200.6 93.84l-.25-3.84s-1.47.7-3.33.7c-1.4 0-2.56-.38-3.07-1.15-.96-1.4-.96-3.52-.96-5.95V68.18h7.43V64.2h-7.36v-9.28h-4.8v9.28h-4.48v3.97h4.48v14.46c0 5.44 0 12.16 7.16 12.16 2.05 0 3.78-.32 5.19-.96zM206.05 94.16h4.73V78.6c0-4.55.77-6.27 1.99-8 .51-.7 2.3-2.63 5.05-2.63.9 0 2.24.13 3.27.58h.19l.32-4.48s-1.22-.51-3.2-.51c-3.33 0-6.2 2.05-7.62 5.7v-5.13h-4.73v30.02zM251.68 89.87l-2.05-2.82s-4.22 3.78-10.11 3.78c-6.4 0-10.69-4.35-10.75-10.56h23.68s.19-1.4.19-2.5c0-8.25-5.7-14.2-13.95-14.2-8.96 0-14.79 6.97-14.79 15.48 0 9.67 5.96 15.75 14.79 15.75 5.89 0 10.24-1.67 12.99-4.93zm-3.84-13.18h-19c.38-4.67 3.64-9.22 9.66-9.15 6.59.06 9.34 4.92 9.34 9.15zM138.66 152.27l-2.44-3.4c-3.07 3.33-7.68 5.51-13.63 5.51-10.17 0-17.66-7.42-17.66-18.37 0-10.94 7.3-18.36 17.66-18.36 6.15 0 11.27 3.07 13.25 5.63l2.43-3.78c-2.81-2.81-7.87-6.14-15.8-6.14-12.61 0-22.47 9.21-22.47 22.78 0 13.63 9.15 22.78 22.27 22.78 8.2 0 13.44-3.39 16.39-6.65zM144.86 114h4.48v44.16h-4.48zM165.22 117.84c0-1.86-1.41-3.27-3.33-3.27-1.99 0-3.4 1.41-3.4 3.27 0 1.85 1.41 3.26 3.4 3.26 1.92 0 3.26-1.4 3.33-3.26zm-5.7 40.32h4.74v-30.02h-4.74v30.02zM199.2 153.87l-2.05-2.82s-4.22 3.78-10.11 3.78c-6.4 0-10.69-4.35-10.75-10.56h23.68s.19-1.4.19-2.5c0-8.25-5.7-14.2-13.95-14.2-8.96 0-14.79 6.97-14.79 15.48 0 9.67 5.96 15.75 14.79 15.75 5.89 0 10.24-1.67 12.99-4.93zm-3.84-13.19h-19c.38-4.67 3.64-9.21 9.66-9.15 6.59.07 9.34 4.93 9.34 9.15zM221.02 127.57c-4.28 0-8 2.24-9.34 5.44h-.2v-4.87h-4.73v30.02h4.74v-16.9c0-5.18 2.69-9.6 8.06-9.6 5.57 0 7.36 3.07 7.36 8.64v17.86h4.74v-18.18c0-7.17-2.05-12.41-10.63-12.41zM253.86 157.84l-.26-3.84s-1.47.7-3.33.7c-1.4 0-2.56-.38-3.07-1.15-.96-1.4-.96-3.52-.96-5.95v-15.43h7.42v-3.96h-7.36v-9.28h-4.8v9.28h-4.48v3.96h4.48v14.47c0 5.44 0 12.16 7.17 12.16 2.05 0 3.78-.32 5.19-.96z" fill-rule="nonzero"/><g><path d="M74.94 276.28l-18.35 10.6c-7.3 4.22-7 11.24.67 15.66l157.5 90.93c7.67 4.43 19.82 4.6 27.13.39l105.88-61.13c7.3-4.22 7-11.24-.66-15.67l-16.24-11.3M315.95 299.08l-126.34-72.95c-7.67-4.43-19.83-4.6-27.13-.38l-75.56 43.62" fill="#fff" stroke="#000" stroke-width="7"/><path d="M50 256.25c.07 2.87 2.07 2.91 5.95 5.15l157.5 90.93c7.67 4.43 19.83 4.6 27.13.39l105.88-61.13c3.6-2.08 5.36-4.85 5.3-7.64v30.72c0 2.74-1.76 5.44-5.3 7.48l-105.88 61.13c-7.3 4.22-19.46 4.05-27.13-.38l-157.5-90.93c-3.88-2.25-5.88-5.15-5.95-8.03v-27.7z" fill="#a1a1a1"/><path d="M188.3 175.44c-7.67-4.43-19.82-4.6-27.13-.38L55.3 236.19c-7.3 4.21-7 11.23.66 15.66l157.5 90.93c7.67 4.43 19.83 4.6 27.13.38l105.88-61.13c7.3-4.21 7.01-11.23-.66-15.66l-157.5-90.93z" fill="#fff" stroke="#000" stroke-width="7"/><path d="M333.75 309.35c2.42-1.4 4.4-.27 4.4 2.54 0 2.8-1.98 6.22-4.4 7.62-2.43 1.4-4.4.26-4.4-2.54s1.97-6.22 4.4-7.63zM319.52 317.56c2.43-1.4 4.4-.26 4.4 2.54s-1.97 6.22-4.4 7.62c-2.43 1.4-4.4.27-4.4-2.54 0-2.8 1.97-6.22 4.4-7.62z" fill="#fff"/><path d="M306.3 330.27l-57.59 33.25" fill="none" stroke="#fff" stroke-width="10"/></g></g><path d="M401 259.76l-21-10.5 21-10.5v21z"/><path d="M540 249.26H396.8" fill="none" stroke="#000" stroke-width="7"/></svg>