<?xml version="1.0" encoding="UTF-8" standalone="no"?>
<!DOCTYPE svg PUBLIC "-//W3C//DTD SVG 1.1//EN" "http://www.w3.org/Graphics/SVG/1.1/DTD/svg11.dtd">
<svg width="100%" height="100%" viewBox="0 0 1695 1114" version="1.1" xmlns="http://www.w3.org/2000/svg" xmlns:xlink="http://www.w3.org/1999/xlink" xml:space="preserve" xmlns:serif="http://www.serif.com/" style="fill-rule:evenodd;clip-rule:evenodd;stroke-linecap:round;stroke-linejoin:round;stroke-miterlimit:1.5;">
    <g>
        <g>
            <g>
                <g>
                    <path d="M225.422,822.153c0.053,2.082 1.499,2.114 4.315,3.739l114.176,65.919c5.56,3.21 14.373,3.334 19.669,0.277l76.756,-44.315c2.613,-1.508 3.884,-3.511 3.834,-5.539l0.002,-0l-0,22.273l-0,0c-0,1.988 -1.273,3.944 -3.836,5.424l-76.756,44.315c-5.296,3.057 -14.109,2.933 -19.669,-0.277l-114.176,-65.919c-2.816,-1.626 -4.262,-3.734 -4.315,-5.816l0,-20.081Z" style="fill:rgb(137,194,212);"/>
                    <path d="M325.683,763.574c-5.56,-3.21 -14.373,-3.334 -19.669,-0.277l-76.756,44.316c-5.296,3.057 -5.081,8.145 0.479,11.355l114.176,65.919c5.56,3.21 14.373,3.334 19.669,0.277l76.756,-44.315c5.296,-3.057 5.081,-8.146 -0.479,-11.356l-114.176,-65.919Z" style="fill:white;stroke:black;stroke-width:7px;"/>
                    <g>
                        <path d="M238.222,811.648c1.655,-0.956 4.342,-0.956 5.997,-0c1.654,0.955 1.654,2.506 -0,3.462c-1.655,0.955 -4.342,0.955 -5.997,-0c-1.655,-0.956 -1.655,-2.507 0,-3.462Z"/>
                        <path d="M314.41,767.661c1.654,-0.955 4.341,-0.955 5.996,0c1.655,0.956 1.655,2.507 0,3.462c-1.655,0.956 -4.342,0.956 -5.996,0c-1.655,-0.955 -1.655,-2.506 -0,-3.462Z"/>
                        <path d="M352.83,878.628c1.654,-0.956 4.341,-0.956 5.996,-0c1.655,0.955 1.655,2.506 0,3.462c-1.655,0.955 -4.342,0.955 -5.996,-0c-1.655,-0.956 -1.655,-2.507 -0,-3.462Z"/>
                        <path d="M429.017,834.641c1.655,-0.955 4.342,-0.955 5.997,0c1.655,0.956 1.655,2.507 -0,3.462c-1.655,0.956 -4.342,0.956 -5.997,0c-1.655,-0.955 -1.655,-2.506 0,-3.462Z"/>
                        <path d="M293.706,844.493c1.655,-0.956 4.342,-0.956 5.997,-0c1.654,0.955 1.654,2.507 -0,3.462c-1.655,0.955 -4.342,0.955 -5.997,-0c-1.655,-0.955 -1.655,-2.507 -0,-3.462Z"/>
                        <path d="M369.893,800.506c1.655,-0.955 4.342,-0.955 5.997,0c1.655,0.956 1.655,2.507 0,3.463c-1.655,0.955 -4.342,0.955 -5.997,-0c-1.654,-0.956 -1.654,-2.507 0,-3.463Z"/>
                    </g>
                </g>
                <g>
                    <g>
                        <path d="M225.422,777.838c0.053,2.082 1.499,2.114 4.315,3.739l114.176,65.919c5.56,3.21 14.373,3.334 19.669,0.277l76.756,-44.315c2.613,-1.508 3.884,-3.511 3.834,-5.539l0.002,-0l-0,22.273l-0,0c-0,1.988 -1.273,3.944 -3.836,5.424l-76.756,44.315c-5.296,3.057 -14.109,2.933 -19.669,-0.277l-114.176,-65.919c-2.816,-1.626 -4.262,-3.734 -4.315,-5.816l0,-20.081Z" style="fill:rgb(137,194,212);"/>
                        <path d="M325.683,719.259c-5.56,-3.21 -14.373,-3.334 -19.669,-0.277l-76.756,44.315c-5.296,3.058 -5.081,8.146 0.479,11.356l114.176,65.919c5.56,3.21 14.373,3.334 19.669,0.277l76.756,-44.315c5.296,-3.058 5.081,-8.146 -0.479,-11.356l-114.176,-65.919Z" style="fill:white;stroke:black;stroke-width:7px;"/>
                        <g>
                            <path d="M238.222,767.333c1.655,-0.956 4.342,-0.956 5.997,-0c1.654,0.955 1.654,2.506 -0,3.462c-1.655,0.955 -4.342,0.955 -5.997,-0c-1.655,-0.956 -1.655,-2.507 0,-3.462Z"/>
                            <path d="M314.41,723.346c1.654,-0.955 4.341,-0.955 5.996,0c1.655,0.956 1.655,2.507 0,3.462c-1.655,0.956 -4.342,0.956 -5.996,0c-1.655,-0.955 -1.655,-2.506 -0,-3.462Z"/>
                            <path d="M352.83,834.313c1.654,-0.956 4.341,-0.956 5.996,-0c1.655,0.955 1.655,2.506 0,3.462c-1.655,0.955 -4.342,0.955 -5.996,-0c-1.655,-0.956 -1.655,-2.507 -0,-3.462Z"/>
                            <path d="M429.017,790.326c1.655,-0.955 4.342,-0.955 5.997,0c1.655,0.955 1.655,2.507 -0,3.462c-1.655,0.956 -4.342,0.956 -5.997,0c-1.655,-0.955 -1.655,-2.507 0,-3.462Z"/>
                            <path d="M293.706,800.178c1.655,-0.956 4.342,-0.956 5.997,-0c1.654,0.955 1.654,2.507 -0,3.462c-1.655,0.955 -4.342,0.955 -5.997,-0c-1.655,-0.955 -1.655,-2.507 -0,-3.462Z"/>
                            <path d="M369.893,756.191c1.655,-0.955 4.342,-0.955 5.997,0c1.655,0.956 1.655,2.507 0,3.462c-1.655,0.956 -4.342,0.956 -5.997,0c-1.654,-0.955 -1.654,-2.506 0,-3.462Z"/>
                        </g>
                    </g>
                    <g>
                        <path d="M277.624,744.617c18.419,-10.634 48.326,-10.634 66.744,-0.001c18.418,10.634 18.417,27.901 -0.002,38.535c-18.419,10.634 -48.327,10.635 -66.745,0.001c-18.418,-10.634 -18.417,-27.9 0.003,-38.535Z" style="fill:none;stroke:black;stroke-width:7px;"/>
                        <path d="M303.016,757.412c5.295,-3.057 13.894,-3.057 19.189,-0c5.296,3.057 5.296,8.021 0,11.079c-5.295,3.057 -13.894,3.057 -19.189,-0c-5.295,-3.058 -5.295,-8.022 -0,-11.079Z" style="fill:none;stroke:black;stroke-width:7px;"/>
                        <path d="M389.282,772.743c-1.836,-1.061 -4.618,-1.176 -6.208,-0.258l-57.182,33.014c-1.59,0.918 -1.39,2.524 0.446,3.584l26.615,15.366c1.836,1.06 4.618,1.175 6.208,0.257l57.181,-33.014c1.59,-0.918 1.391,-2.524 -0.446,-3.584l-26.614,-15.365Z" style="fill:none;stroke:black;stroke-width:7px;"/>
                        <path d="M379.097,793.186l-57.772,-14.125l65.936,2.275c1.316,0.063 2.615,0.239 3.843,0.539c5.839,1.428 7.889,5.121 4.576,8.242c-3.313,3.122 -10.744,4.497 -16.583,3.069Z" style="fill:white;stroke:black;stroke-width:7px;"/>
                    </g>
                </g>
            </g>
            <g>
                <g>
                    <path d="M99.759,894.928c0.053,2.082 1.499,2.113 4.315,3.739l114.176,65.919c5.56,3.21 14.373,3.334 19.669,0.277l76.756,-44.315c2.613,-1.509 3.884,-3.512 3.834,-5.539l0.002,-0.001l-0,22.274l-0.001,-0c0,1.988 -1.272,3.944 -3.835,5.423l-76.756,44.315c-5.296,3.058 -14.109,2.934 -19.669,-0.277l-114.176,-65.918c-2.816,-1.626 -4.262,-3.734 -4.315,-5.817l0,-20.08Z" style="fill:rgb(137,194,212);"/>
                    <path d="M200.02,836.349c-5.56,-3.21 -14.373,-3.334 -19.669,-0.277l-76.756,44.315c-5.296,3.058 -5.081,8.146 0.479,11.356l114.176,65.919c5.56,3.21 14.373,3.334 19.669,0.277l76.756,-44.315c5.296,-3.058 5.081,-8.146 -0.479,-11.356l-114.176,-65.919Z" style="fill:white;stroke:black;stroke-width:7px;"/>
                    <g>
                        <path d="M112.559,884.422c1.655,-0.955 4.342,-0.955 5.997,0c1.654,0.956 1.654,2.507 -0,3.463c-1.655,0.955 -4.342,0.955 -5.997,-0c-1.655,-0.956 -1.655,-2.507 -0,-3.463Z"/>
                        <path d="M188.746,840.436c1.655,-0.955 4.342,-0.955 5.997,0c1.655,0.955 1.655,2.507 0,3.462c-1.655,0.956 -4.342,0.956 -5.997,0c-1.654,-0.955 -1.654,-2.507 0,-3.462Z"/>
                        <path d="M227.167,951.402c1.654,-0.955 4.341,-0.955 5.996,0c1.655,0.956 1.655,2.507 0,3.462c-1.655,0.956 -4.342,0.956 -5.996,0c-1.655,-0.955 -1.655,-2.506 -0,-3.462Z"/>
                        <path d="M303.354,907.416c1.655,-0.956 4.342,-0.956 5.997,-0c1.655,0.955 1.655,2.507 -0,3.462c-1.655,0.955 -4.342,0.955 -5.997,-0c-1.655,-0.955 -1.655,-2.507 0,-3.462Z"/>
                        <path d="M168.043,917.268c1.655,-0.956 4.342,-0.956 5.997,-0c1.654,0.955 1.654,2.506 -0,3.462c-1.655,0.955 -4.342,0.955 -5.997,-0c-1.655,-0.956 -1.655,-2.507 -0,-3.462Z"/>
                        <path d="M244.23,873.281c1.655,-0.955 4.342,-0.955 5.997,0c1.655,0.956 1.655,2.507 0,3.462c-1.655,0.956 -4.342,0.956 -5.997,0c-1.654,-0.955 -1.654,-2.506 0,-3.462Z"/>
                    </g>
                </g>
                <g>
                    <g>
                        <path d="M99.759,850.613c0.053,2.081 1.499,2.113 4.315,3.739l114.176,65.919c5.56,3.21 14.373,3.334 19.669,0.277l76.756,-44.315c2.613,-1.509 3.884,-3.512 3.834,-5.539l0.002,-0.001l-0,22.274l-0.001,-0c0,1.988 -1.272,3.944 -3.835,5.423l-76.756,44.315c-5.296,3.058 -14.109,2.933 -19.669,-0.277l-114.176,-65.918c-2.816,-1.626 -4.262,-3.734 -4.315,-5.817l0,-20.08Z" style="fill:rgb(137,194,212);"/>
                        <path d="M200.02,792.034c-5.56,-3.21 -14.373,-3.334 -19.669,-0.277l-76.756,44.315c-5.296,3.057 -5.081,8.146 0.479,11.356l114.176,65.919c5.56,3.21 14.373,3.334 19.669,0.277l76.756,-44.316c5.296,-3.057 5.081,-8.145 -0.479,-11.355l-114.176,-65.919Z" style="fill:white;stroke:black;stroke-width:7px;"/>
                        <g>
                            <path d="M112.559,840.107c1.655,-0.955 4.342,-0.955 5.997,0c1.654,0.956 1.654,2.507 -0,3.463c-1.655,0.955 -4.342,0.955 -5.997,-0c-1.655,-0.956 -1.655,-2.507 -0,-3.463Z"/>
                            <path d="M188.746,796.121c1.655,-0.955 4.342,-0.955 5.997,-0c1.655,0.955 1.655,2.507 0,3.462c-1.655,0.955 -4.342,0.955 -5.997,0c-1.654,-0.955 -1.654,-2.507 0,-3.462Z"/>
                            <path d="M227.167,907.087c1.654,-0.955 4.341,-0.955 5.996,0c1.655,0.956 1.655,2.507 0,3.462c-1.655,0.956 -4.342,0.956 -5.996,0c-1.655,-0.955 -1.655,-2.506 -0,-3.462Z"/>
                            <path d="M303.354,863.101c1.655,-0.956 4.342,-0.956 5.997,-0c1.655,0.955 1.655,2.507 -0,3.462c-1.655,0.955 -4.342,0.955 -5.997,-0c-1.655,-0.955 -1.655,-2.507 0,-3.462Z"/>
                            <path d="M168.043,872.953c1.655,-0.956 4.342,-0.956 5.997,-0c1.654,0.955 1.654,2.506 -0,3.462c-1.655,0.955 -4.342,0.955 -5.997,-0c-1.655,-0.956 -1.655,-2.507 -0,-3.462Z"/>
                            <path d="M244.23,828.966c1.655,-0.955 4.342,-0.955 5.997,0c1.655,0.955 1.655,2.507 0,3.462c-1.655,0.956 -4.342,0.956 -5.997,0c-1.654,-0.955 -1.654,-2.507 0,-3.462Z"/>
                        </g>
                    </g>
                    <g>
                        <path d="M151.961,817.392c18.419,-10.634 48.326,-10.635 66.744,-0.001c18.418,10.634 18.417,27.9 -0.002,38.535c-18.419,10.634 -48.327,10.634 -66.745,0.001c-18.418,-10.634 -18.417,-27.901 0.003,-38.535Z" style="fill:none;stroke:black;stroke-width:7px;"/>
                        <path d="M177.353,830.187c5.295,-3.058 13.894,-3.058 19.189,-0c5.295,3.057 5.295,8.021 0,11.078c-5.295,3.058 -13.894,3.058 -19.189,0c-5.295,-3.057 -5.295,-8.021 -0,-11.078Z" style="fill:none;stroke:black;stroke-width:7px;"/>
                        <path d="M263.619,845.517c-1.836,-1.06 -4.618,-1.175 -6.208,-0.257l-57.182,33.013c-1.59,0.918 -1.39,2.524 0.446,3.584l26.615,15.366c1.836,1.06 4.617,1.176 6.208,0.258l57.181,-33.014c1.59,-0.918 1.391,-2.524 -0.446,-3.584l-26.614,-15.366Z" style="fill:none;stroke:black;stroke-width:7px;"/>
                        <path d="M253.434,865.961l-57.772,-14.125l65.936,2.275c1.316,0.062 2.615,0.239 3.843,0.539c5.839,1.427 7.889,5.121 4.576,8.242c-3.313,3.121 -10.744,4.497 -16.583,3.069Z" style="fill:white;stroke:black;stroke-width:7px;"/>
                    </g>
                </g>
            </g>
        </g>
        <path d="M266.399,1037.26c-0,-14.08 -10.368,-22.784 -22.4,-22.784c-11.968,0 -22.399,8.704 -22.399,22.784c-0,14.079 10.431,22.783 22.399,22.783c12.032,-0 22.4,-8.704 22.4,-22.783Zm-3.584,-0.064c-0,12.287 -8.704,19.583 -18.816,19.583c-9.984,-0 -18.751,-7.296 -18.751,-19.583c-0,-12.416 8.703,-19.648 18.751,-19.648c10.112,0 18.816,7.296 18.816,19.648Z" style="fill-rule:nonzero;"/>
        <path d="M299.358,1047.76c-0,-6.72 -5.376,-9.663 -6.4,-10.239c-1.024,-0.576 -5.952,-2.624 -9.088,-3.968c-3.136,-1.344 -6.592,-3.328 -6.592,-8.32c0,-4.992 4.096,-7.68 9.216,-7.68c5.12,0 7.68,2.688 9.344,4.8l2.432,-2.112c-0.384,-0.64 -4.096,-5.76 -11.52,-5.76c-7.424,0 -12.992,4.48 -12.992,10.88c0,6.4 4.672,9.28 6.4,10.24c1.792,0.96 4.672,2.176 7.232,3.2c2.56,1.024 8.448,3.199 8.448,8.959c-0,5.76 -4.608,9.28 -10.304,9.28c-5.696,-0 -9.536,-3.904 -11.136,-6.848l-2.687,1.92c0.959,1.792 4.927,7.936 13.503,7.936c8.576,-0 14.144,-5.568 14.144,-12.288Z" style="fill-rule:nonzero;"/>
        <path d="M331.933,1018.25l0,-3.136l-29.695,0l-0,3.136l13.12,0l-0,41.023l3.455,-0l0,-41.023l13.12,0Z" style="fill-rule:nonzero;"/>
    </g>
    <g>
        <g>
            <g>
                <g>
                    <path d="M625.422,822.153c0.053,2.082 1.499,2.114 4.315,3.739l114.176,65.919c5.56,3.21 14.373,3.334 19.669,0.277l76.756,-44.315c2.613,-1.508 3.884,-3.511 3.834,-5.539l0.002,-0l-0,22.273l-0,0c-0,1.988 -1.273,3.944 -3.836,5.424l-76.756,44.315c-5.296,3.057 -14.109,2.933 -19.669,-0.277l-114.176,-65.919c-2.816,-1.626 -4.262,-3.734 -4.315,-5.816l0,-20.081Z" style="fill:rgb(198,144,210);"/>
                    <path d="M725.683,763.574c-5.56,-3.21 -14.373,-3.334 -19.669,-0.277l-76.756,44.316c-5.296,3.057 -5.081,8.145 0.479,11.355l114.176,65.919c5.56,3.21 14.373,3.334 19.669,0.277l76.756,-44.315c5.296,-3.057 5.081,-8.146 -0.479,-11.356l-114.176,-65.919Z" style="fill:white;stroke:black;stroke-width:7px;"/>
                    <g>
                        <path d="M638.222,811.648c1.655,-0.956 4.342,-0.956 5.997,-0c1.654,0.955 1.654,2.506 -0,3.462c-1.655,0.955 -4.342,0.955 -5.997,-0c-1.655,-0.956 -1.655,-2.507 0,-3.462Z"/>
                        <path d="M714.41,767.661c1.654,-0.955 4.341,-0.955 5.996,0c1.655,0.956 1.655,2.507 0,3.462c-1.655,0.956 -4.342,0.956 -5.996,0c-1.655,-0.955 -1.655,-2.506 -0,-3.462Z"/>
                        <path d="M752.83,878.628c1.654,-0.956 4.341,-0.956 5.996,-0c1.655,0.955 1.655,2.506 0,3.462c-1.655,0.955 -4.342,0.955 -5.996,-0c-1.655,-0.956 -1.655,-2.507 -0,-3.462Z"/>
                        <path d="M829.017,834.641c1.655,-0.955 4.342,-0.955 5.997,0c1.655,0.956 1.655,2.507 -0,3.462c-1.655,0.956 -4.342,0.956 -5.997,0c-1.655,-0.955 -1.655,-2.506 0,-3.462Z"/>
                        <path d="M693.706,844.493c1.655,-0.956 4.342,-0.956 5.997,-0c1.654,0.955 1.654,2.507 -0,3.462c-1.655,0.955 -4.342,0.955 -5.997,-0c-1.655,-0.955 -1.655,-2.507 -0,-3.462Z"/>
                        <path d="M769.893,800.506c1.655,-0.955 4.342,-0.955 5.997,0c1.655,0.956 1.655,2.507 0,3.463c-1.655,0.955 -4.342,0.955 -5.997,-0c-1.654,-0.956 -1.654,-2.507 0,-3.463Z"/>
                    </g>
                </g>
                <g>
                    <g>
                        <path d="M625.422,777.838c0.053,2.082 1.499,2.114 4.315,3.739l114.176,65.919c5.56,3.21 14.373,3.334 19.669,0.277l76.756,-44.315c2.613,-1.508 3.884,-3.511 3.834,-5.539l0.002,-0l-0,22.273l-0,0c-0,1.988 -1.273,3.944 -3.836,5.424l-76.756,44.315c-5.296,3.057 -14.109,2.933 -19.669,-0.277l-114.176,-65.919c-2.816,-1.626 -4.262,-3.734 -4.315,-5.816l0,-20.081Z" style="fill:rgb(198,144,210);"/>
                        <path d="M725.683,719.259c-5.56,-3.21 -14.373,-3.334 -19.669,-0.277l-76.756,44.315c-5.296,3.058 -5.081,8.146 0.479,11.356l114.176,65.919c5.56,3.21 14.373,3.334 19.669,0.277l76.756,-44.315c5.296,-3.058 5.081,-8.146 -0.479,-11.356l-114.176,-65.919Z" style="fill:white;stroke:black;stroke-width:7px;"/>
                        <g>
                            <path d="M638.222,767.333c1.655,-0.956 4.342,-0.956 5.997,-0c1.654,0.955 1.654,2.506 -0,3.462c-1.655,0.955 -4.342,0.955 -5.997,-0c-1.655,-0.956 -1.655,-2.507 0,-3.462Z"/>
                            <path d="M714.41,723.346c1.654,-0.955 4.341,-0.955 5.996,0c1.655,0.956 1.655,2.507 0,3.462c-1.655,0.956 -4.342,0.956 -5.996,0c-1.655,-0.955 -1.655,-2.506 -0,-3.462Z"/>
                            <path d="M752.83,834.313c1.654,-0.956 4.341,-0.956 5.996,-0c1.655,0.955 1.655,2.506 0,3.462c-1.655,0.955 -4.342,0.955 -5.996,-0c-1.655,-0.956 -1.655,-2.507 -0,-3.462Z"/>
                            <path d="M829.017,790.326c1.655,-0.955 4.342,-0.955 5.997,0c1.655,0.955 1.655,2.507 -0,3.462c-1.655,0.956 -4.342,0.956 -5.997,0c-1.655,-0.955 -1.655,-2.507 0,-3.462Z"/>
                            <path d="M693.706,800.178c1.655,-0.956 4.342,-0.956 5.997,-0c1.654,0.955 1.654,2.507 -0,3.462c-1.655,0.955 -4.342,0.955 -5.997,-0c-1.655,-0.955 -1.655,-2.507 -0,-3.462Z"/>
                            <path d="M769.893,756.191c1.655,-0.955 4.342,-0.955 5.997,0c1.655,0.956 1.655,2.507 0,3.462c-1.655,0.956 -4.342,0.956 -5.997,0c-1.654,-0.955 -1.654,-2.506 0,-3.462Z"/>
                        </g>
                    </g>
                    <g>
                        <path d="M677.624,744.617c18.419,-10.634 48.326,-10.634 66.744,-0.001c18.418,10.634 18.417,27.901 -0.002,38.535c-18.419,10.634 -48.327,10.635 -66.745,0.001c-18.418,-10.634 -18.417,-27.9 0.003,-38.535Z" style="fill:none;stroke:black;stroke-width:7px;"/>
                        <path d="M703.016,757.412c5.295,-3.057 13.894,-3.057 19.189,-0c5.296,3.057 5.296,8.021 0,11.079c-5.295,3.057 -13.894,3.057 -19.189,-0c-5.295,-3.058 -5.295,-8.022 -0,-11.079Z" style="fill:none;stroke:black;stroke-width:7px;"/>
                        <path d="M789.282,772.743c-1.836,-1.061 -4.618,-1.176 -6.208,-0.258l-57.182,33.014c-1.59,0.918 -1.39,2.524 0.446,3.584l26.615,15.366c1.836,1.06 4.618,1.175 6.208,0.257l57.181,-33.014c1.59,-0.918 1.391,-2.524 -0.446,-3.584l-26.614,-15.365Z" style="fill:none;stroke:black;stroke-width:7px;"/>
                        <path d="M779.097,793.186l-57.772,-14.125l65.936,2.275c1.316,0.063 2.615,0.239 3.843,0.539c5.839,1.428 7.889,5.121 4.576,8.242c-3.313,3.122 -10.744,4.497 -16.583,3.069Z" style="fill:white;stroke:black;stroke-width:7px;"/>
                    </g>
                </g>
            </g>
            <g>
                <g>
                    <path d="M499.759,894.928c0.053,2.082 1.499,2.113 4.315,3.739l114.176,65.919c5.56,3.21 14.373,3.334 19.669,0.277l76.756,-44.315c2.613,-1.509 3.884,-3.512 3.834,-5.539l0.002,-0.001l-0,22.274l-0.001,-0c0,1.988 -1.272,3.944 -3.835,5.423l-76.756,44.315c-5.296,3.058 -14.109,2.934 -19.669,-0.277l-114.176,-65.918c-2.816,-1.626 -4.262,-3.734 -4.315,-5.817l0,-20.08Z" style="fill:rgb(198,144,210);"/>
                    <path d="M600.02,836.349c-5.56,-3.21 -14.373,-3.334 -19.669,-0.277l-76.756,44.315c-5.296,3.058 -5.081,8.146 0.479,11.356l114.176,65.919c5.56,3.21 14.373,3.334 19.669,0.277l76.756,-44.315c5.296,-3.058 5.081,-8.146 -0.479,-11.356l-114.176,-65.919Z" style="fill:white;stroke:black;stroke-width:7px;"/>
                    <g>
                        <path d="M512.559,884.422c1.655,-0.955 4.342,-0.955 5.997,0c1.654,0.956 1.654,2.507 -0,3.463c-1.655,0.955 -4.342,0.955 -5.997,-0c-1.655,-0.956 -1.655,-2.507 -0,-3.463Z"/>
                        <path d="M588.746,840.436c1.655,-0.955 4.342,-0.955 5.997,0c1.655,0.955 1.655,2.507 0,3.462c-1.655,0.956 -4.342,0.956 -5.997,0c-1.654,-0.955 -1.654,-2.507 0,-3.462Z"/>
                        <path d="M627.167,951.402c1.654,-0.955 4.341,-0.955 5.996,0c1.655,0.956 1.655,2.507 0,3.462c-1.655,0.956 -4.342,0.956 -5.996,0c-1.655,-0.955 -1.655,-2.506 -0,-3.462Z"/>
                        <path d="M703.354,907.416c1.655,-0.956 4.342,-0.956 5.997,-0c1.655,0.955 1.655,2.507 -0,3.462c-1.655,0.955 -4.342,0.955 -5.997,-0c-1.655,-0.955 -1.655,-2.507 0,-3.462Z"/>
                        <path d="M568.043,917.268c1.655,-0.956 4.342,-0.956 5.997,-0c1.654,0.955 1.654,2.506 -0,3.462c-1.655,0.955 -4.342,0.955 -5.997,-0c-1.655,-0.956 -1.655,-2.507 -0,-3.462Z"/>
                        <path d="M644.23,873.281c1.655,-0.955 4.342,-0.955 5.997,0c1.655,0.956 1.655,2.507 0,3.462c-1.655,0.956 -4.342,0.956 -5.997,0c-1.654,-0.955 -1.654,-2.506 0,-3.462Z"/>
                    </g>
                </g>
                <g>
                    <g>
                        <path d="M499.759,850.613c0.053,2.081 1.499,2.113 4.315,3.739l114.176,65.919c5.56,3.21 14.373,3.334 19.669,0.277l76.756,-44.315c2.613,-1.509 3.884,-3.512 3.834,-5.539l0.002,-0.001l-0,22.274l-0.001,-0c0,1.988 -1.272,3.944 -3.835,5.423l-76.756,44.315c-5.296,3.058 -14.109,2.933 -19.669,-0.277l-114.176,-65.918c-2.816,-1.626 -4.262,-3.734 -4.315,-5.817l0,-20.08Z" style="fill:rgb(198,144,210);"/>
                        <path d="M600.02,792.034c-5.56,-3.21 -14.373,-3.334 -19.669,-0.277l-76.756,44.315c-5.296,3.057 -5.081,8.146 0.479,11.356l114.176,65.919c5.56,3.21 14.373,3.334 19.669,0.277l76.756,-44.316c5.296,-3.057 5.081,-8.145 -0.479,-11.355l-114.176,-65.919Z" style="fill:white;stroke:black;stroke-width:7px;"/>
                        <g>
                            <path d="M512.559,840.107c1.655,-0.955 4.342,-0.955 5.997,0c1.654,0.956 1.654,2.507 -0,3.463c-1.655,0.955 -4.342,0.955 -5.997,-0c-1.655,-0.956 -1.655,-2.507 -0,-3.463Z"/>
                            <path d="M588.746,796.121c1.655,-0.955 4.342,-0.955 5.997,-0c1.655,0.955 1.655,2.507 0,3.462c-1.655,0.955 -4.342,0.955 -5.997,0c-1.654,-0.955 -1.654,-2.507 0,-3.462Z"/>
                            <path d="M627.167,907.087c1.654,-0.955 4.341,-0.955 5.996,0c1.655,0.956 1.655,2.507 0,3.462c-1.655,0.956 -4.342,0.956 -5.996,0c-1.655,-0.955 -1.655,-2.506 -0,-3.462Z"/>
                            <path d="M703.354,863.101c1.655,-0.956 4.342,-0.956 5.997,-0c1.655,0.955 1.655,2.507 -0,3.462c-1.655,0.955 -4.342,0.955 -5.997,-0c-1.655,-0.955 -1.655,-2.507 0,-3.462Z"/>
                            <path d="M568.043,872.953c1.655,-0.956 4.342,-0.956 5.997,-0c1.654,0.955 1.654,2.506 -0,3.462c-1.655,0.955 -4.342,0.955 -5.997,-0c-1.655,-0.956 -1.655,-2.507 -0,-3.462Z"/>
                            <path d="M644.23,828.966c1.655,-0.955 4.342,-0.955 5.997,0c1.655,0.955 1.655,2.507 0,3.462c-1.655,0.956 -4.342,0.956 -5.997,0c-1.654,-0.955 -1.654,-2.507 0,-3.462Z"/>
                        </g>
                    </g>
                    <g>
                        <path d="M551.961,817.392c18.419,-10.634 48.326,-10.635 66.744,-0.001c18.418,10.634 18.417,27.9 -0.002,38.535c-18.419,10.634 -48.327,10.634 -66.745,0.001c-18.418,-10.634 -18.417,-27.901 0.003,-38.535Z" style="fill:none;stroke:black;stroke-width:7px;"/>
                        <path d="M577.353,830.187c5.295,-3.058 13.894,-3.058 19.189,-0c5.295,3.057 5.295,8.021 0,11.078c-5.295,3.058 -13.894,3.058 -19.189,0c-5.295,-3.057 -5.295,-8.021 -0,-11.078Z" style="fill:none;stroke:black;stroke-width:7px;"/>
                        <path d="M663.619,845.517c-1.836,-1.06 -4.618,-1.175 -6.208,-0.257l-57.182,33.013c-1.59,0.918 -1.39,2.524 0.446,3.584l26.615,15.366c1.836,1.06 4.617,1.176 6.208,0.258l57.181,-33.014c1.59,-0.918 1.391,-2.524 -0.446,-3.584l-26.614,-15.366Z" style="fill:none;stroke:black;stroke-width:7px;"/>
                        <path d="M653.434,865.961l-57.772,-14.125l65.936,2.275c1.316,0.062 2.615,0.239 3.843,0.539c5.839,1.427 7.889,5.121 4.576,8.242c-3.313,3.121 -10.744,4.497 -16.583,3.069Z" style="fill:white;stroke:black;stroke-width:7px;"/>
                    </g>
                </g>
            </g>
        </g>
        <path d="M671.392,1037.26c0,-14.08 -10.368,-22.784 -22.4,-22.784c-11.968,0 -22.4,8.704 -22.4,22.784c0,14.079 10.432,22.783 22.4,22.783c12.032,-0 22.4,-8.704 22.4,-22.783Zm-3.584,-0.064c0,12.287 -8.704,19.583 -18.816,19.583c-9.984,-0 -18.752,-7.296 -18.752,-19.583c0,-12.416 8.704,-19.648 18.752,-19.648c10.112,0 18.816,7.296 18.816,19.648Z" style="fill-rule:nonzero;"/>
        <path d="M704.352,1047.76c0,-6.72 -5.376,-9.663 -6.4,-10.239c-1.024,-0.576 -5.952,-2.624 -9.088,-3.968c-3.136,-1.344 -6.592,-3.328 -6.592,-8.32c0,-4.992 4.096,-7.68 9.216,-7.68c5.12,0 7.68,2.688 9.344,4.8l2.432,-2.112c-0.384,-0.64 -4.096,-5.76 -11.52,-5.76c-7.424,0 -12.992,4.48 -12.992,10.88c0,6.4 4.672,9.28 6.4,10.24c1.792,0.96 4.672,2.176 7.232,3.2c2.56,1.024 8.448,3.199 8.448,8.959c0,5.76 -4.608,9.28 -10.304,9.28c-5.696,-0 -9.536,-3.904 -11.136,-6.848l-2.688,1.92c0.96,1.792 4.928,7.936 13.504,7.936c8.576,-0 14.144,-5.568 14.144,-12.288Z" style="fill-rule:nonzero;"/>
        <path d="M736.928,1018.25l0,-3.136l-29.696,0l0,3.136l13.12,0l0,41.023l3.456,-0l0,-41.023l13.12,0Z" style="fill-rule:nonzero;"/>
    </g>
    <g>
        <g>
            <g>
                <g>
                    <path d="M1025.42,822.153c0.053,2.082 1.499,2.114 4.315,3.739l114.176,65.919c5.56,3.21 14.373,3.334 19.669,0.277l76.756,-44.315c2.613,-1.508 3.884,-3.511 3.834,-5.539l0.002,-0l-0,22.273l-0,0c-0,1.988 -1.273,3.944 -3.836,5.424l-76.756,44.315c-5.296,3.057 -14.109,2.933 -19.669,-0.277l-114.176,-65.919c-2.816,-1.626 -4.262,-3.734 -4.315,-5.816l0,-20.081Z" style="fill:rgb(255,155,146);"/>
                    <path d="M1125.68,763.574c-5.56,-3.21 -14.373,-3.334 -19.669,-0.277l-76.756,44.316c-5.296,3.057 -5.081,8.145 0.479,11.355l114.176,65.919c5.56,3.21 14.373,3.334 19.669,0.277l76.756,-44.315c5.296,-3.057 5.081,-8.146 -0.479,-11.356l-114.176,-65.919Z" style="fill:white;stroke:black;stroke-width:7px;"/>
                    <g>
                        <path d="M1038.22,811.648c1.655,-0.956 4.342,-0.956 5.997,-0c1.654,0.955 1.654,2.506 -0,3.462c-1.655,0.955 -4.342,0.955 -5.997,-0c-1.655,-0.956 -1.655,-2.507 0,-3.462Z"/>
                        <path d="M1114.41,767.661c1.654,-0.955 4.341,-0.955 5.996,0c1.655,0.956 1.655,2.507 0,3.462c-1.655,0.956 -4.342,0.956 -5.996,0c-1.655,-0.955 -1.655,-2.506 -0,-3.462Z"/>
                        <path d="M1152.83,878.628c1.654,-0.956 4.341,-0.956 5.996,-0c1.655,0.955 1.655,2.506 0,3.462c-1.655,0.955 -4.342,0.955 -5.996,-0c-1.655,-0.956 -1.655,-2.507 -0,-3.462Z"/>
                        <path d="M1229.02,834.641c1.655,-0.955 4.342,-0.955 5.997,0c1.655,0.956 1.655,2.507 -0,3.462c-1.655,0.956 -4.342,0.956 -5.997,0c-1.655,-0.955 -1.655,-2.506 0,-3.462Z"/>
                        <path d="M1093.71,844.493c1.655,-0.956 4.342,-0.956 5.997,-0c1.654,0.955 1.654,2.507 -0,3.462c-1.655,0.955 -4.342,0.955 -5.997,-0c-1.655,-0.955 -1.655,-2.507 -0,-3.462Z"/>
                        <path d="M1169.89,800.506c1.655,-0.955 4.342,-0.955 5.997,0c1.655,0.956 1.655,2.507 0,3.463c-1.655,0.955 -4.342,0.955 -5.997,-0c-1.654,-0.956 -1.654,-2.507 0,-3.463Z"/>
                    </g>
                </g>
                <g>
                    <g>
                        <path d="M1025.42,777.838c0.053,2.082 1.499,2.114 4.315,3.739l114.176,65.919c5.56,3.21 14.373,3.334 19.669,0.277l76.756,-44.315c2.613,-1.508 3.884,-3.511 3.834,-5.539l0.002,-0l-0,22.273l-0,0c-0,1.988 -1.273,3.944 -3.836,5.424l-76.756,44.315c-5.296,3.057 -14.109,2.933 -19.669,-0.277l-114.176,-65.919c-2.816,-1.626 -4.262,-3.734 -4.315,-5.816l0,-20.081Z" style="fill:rgb(255,155,146);"/>
                        <path d="M1125.68,719.259c-5.56,-3.21 -14.373,-3.334 -19.669,-0.277l-76.756,44.315c-5.296,3.058 -5.081,8.146 0.479,11.356l114.176,65.919c5.56,3.21 14.373,3.334 19.669,0.277l76.756,-44.315c5.296,-3.058 5.081,-8.146 -0.479,-11.356l-114.176,-65.919Z" style="fill:white;stroke:black;stroke-width:7px;"/>
                        <g>
                            <path d="M1038.22,767.333c1.655,-0.956 4.342,-0.956 5.997,-0c1.654,0.955 1.654,2.506 -0,3.462c-1.655,0.955 -4.342,0.955 -5.997,-0c-1.655,-0.956 -1.655,-2.507 0,-3.462Z"/>
                            <path d="M1114.41,723.346c1.654,-0.955 4.341,-0.955 5.996,0c1.655,0.956 1.655,2.507 0,3.462c-1.655,0.956 -4.342,0.956 -5.996,0c-1.655,-0.955 -1.655,-2.506 -0,-3.462Z"/>
                            <path d="M1152.83,834.313c1.654,-0.956 4.341,-0.956 5.996,-0c1.655,0.955 1.655,2.506 0,3.462c-1.655,0.955 -4.342,0.955 -5.996,-0c-1.655,-0.956 -1.655,-2.507 -0,-3.462Z"/>
                            <path d="M1229.02,790.326c1.655,-0.955 4.342,-0.955 5.997,0c1.655,0.955 1.655,2.507 -0,3.462c-1.655,0.956 -4.342,0.956 -5.997,0c-1.655,-0.955 -1.655,-2.507 0,-3.462Z"/>
                            <path d="M1093.71,800.178c1.655,-0.956 4.342,-0.956 5.997,-0c1.654,0.955 1.654,2.507 -0,3.462c-1.655,0.955 -4.342,0.955 -5.997,-0c-1.655,-0.955 -1.655,-2.507 -0,-3.462Z"/>
                            <path d="M1169.89,756.191c1.655,-0.955 4.342,-0.955 5.997,0c1.655,0.956 1.655,2.507 0,3.462c-1.655,0.956 -4.342,0.956 -5.997,0c-1.654,-0.955 -1.654,-2.506 0,-3.462Z"/>
                        </g>
                    </g>
                    <g>
                        <path d="M1077.62,744.617c18.419,-10.634 48.326,-10.634 66.744,-0.001c18.418,10.634 18.417,27.901 -0.002,38.535c-18.419,10.634 -48.327,10.635 -66.745,0.001c-18.418,-10.634 -18.417,-27.9 0.003,-38.535Z" style="fill:none;stroke:black;stroke-width:7px;"/>
                        <path d="M1103.02,757.412c5.295,-3.057 13.894,-3.057 19.189,-0c5.296,3.057 5.296,8.021 0,11.079c-5.295,3.057 -13.894,3.057 -19.189,-0c-5.295,-3.058 -5.295,-8.022 -0,-11.079Z" style="fill:none;stroke:black;stroke-width:7px;"/>
                        <path d="M1189.28,772.743c-1.836,-1.061 -4.618,-1.176 -6.208,-0.258l-57.182,33.014c-1.59,0.918 -1.39,2.524 0.446,3.584l26.615,15.366c1.836,1.06 4.618,1.175 6.208,0.257l57.181,-33.014c1.59,-0.918 1.391,-2.524 -0.446,-3.584l-26.614,-15.365Z" style="fill:none;stroke:black;stroke-width:7px;"/>
                        <path d="M1179.1,793.186l-57.772,-14.125l65.936,2.275c1.316,0.063 2.615,0.239 3.843,0.539c5.839,1.428 7.889,5.121 4.576,8.242c-3.313,3.122 -10.744,4.497 -16.583,3.069Z" style="fill:white;stroke:black;stroke-width:7px;"/>
                    </g>
                </g>
            </g>
            <g>
                <g>
                    <path d="M899.759,894.928c0.053,2.082 1.499,2.113 4.315,3.739l114.176,65.919c5.56,3.21 14.373,3.334 19.669,0.277l76.756,-44.315c2.613,-1.509 3.884,-3.512 3.834,-5.539l0.002,-0.001l-0,22.274l-0.001,-0c0,1.988 -1.272,3.944 -3.835,5.423l-76.756,44.315c-5.296,3.058 -14.109,2.934 -19.669,-0.277l-114.176,-65.918c-2.816,-1.626 -4.262,-3.734 -4.315,-5.817l0,-20.08Z" style="fill:rgb(255,155,146);"/>
                    <path d="M1000.02,836.349c-5.56,-3.21 -14.373,-3.334 -19.669,-0.277l-76.756,44.315c-5.296,3.058 -5.081,8.146 0.479,11.356l114.176,65.919c5.56,3.21 14.373,3.334 19.669,0.277l76.756,-44.315c5.296,-3.058 5.081,-8.146 -0.479,-11.356l-114.176,-65.919Z" style="fill:white;stroke:black;stroke-width:7px;"/>
                    <g>
                        <path d="M912.559,884.422c1.655,-0.955 4.342,-0.955 5.997,0c1.654,0.956 1.654,2.507 -0,3.463c-1.655,0.955 -4.342,0.955 -5.997,-0c-1.655,-0.956 -1.655,-2.507 -0,-3.463Z"/>
                        <path d="M988.746,840.436c1.655,-0.955 4.342,-0.955 5.997,0c1.655,0.955 1.655,2.507 0,3.462c-1.655,0.956 -4.342,0.956 -5.997,0c-1.654,-0.955 -1.654,-2.507 0,-3.462Z"/>
                        <path d="M1027.17,951.402c1.654,-0.955 4.341,-0.955 5.996,0c1.655,0.956 1.655,2.507 0,3.462c-1.655,0.956 -4.342,0.956 -5.996,0c-1.655,-0.955 -1.655,-2.506 -0,-3.462Z"/>
                        <path d="M1103.35,907.416c1.655,-0.956 4.342,-0.956 5.997,-0c1.655,0.955 1.655,2.507 -0,3.462c-1.655,0.955 -4.342,0.955 -5.997,-0c-1.655,-0.955 -1.655,-2.507 0,-3.462Z"/>
                        <path d="M968.043,917.268c1.655,-0.956 4.342,-0.956 5.997,-0c1.654,0.955 1.654,2.506 -0,3.462c-1.655,0.955 -4.342,0.955 -5.997,-0c-1.655,-0.956 -1.655,-2.507 -0,-3.462Z"/>
                        <path d="M1044.23,873.281c1.655,-0.955 4.342,-0.955 5.997,0c1.655,0.956 1.655,2.507 0,3.462c-1.655,0.956 -4.342,0.956 -5.997,0c-1.654,-0.955 -1.654,-2.506 0,-3.462Z"/>
                    </g>
                </g>
                <g>
                    <g>
                        <path d="M899.759,850.613c0.053,2.081 1.499,2.113 4.315,3.739l114.176,65.919c5.56,3.21 14.373,3.334 19.669,0.277l76.756,-44.315c2.613,-1.509 3.884,-3.512 3.834,-5.539l0.002,-0.001l-0,22.274l-0.001,-0c0,1.988 -1.272,3.944 -3.835,5.423l-76.756,44.315c-5.296,3.058 -14.109,2.933 -19.669,-0.277l-114.176,-65.918c-2.816,-1.626 -4.262,-3.734 -4.315,-5.817l0,-20.08Z" style="fill:rgb(255,155,146);"/>
                        <path d="M1000.02,792.034c-5.56,-3.21 -14.373,-3.334 -19.669,-0.277l-76.756,44.315c-5.296,3.057 -5.081,8.146 0.479,11.356l114.176,65.919c5.56,3.21 14.373,3.334 19.669,0.277l76.756,-44.316c5.296,-3.057 5.081,-8.145 -0.479,-11.355l-114.176,-65.919Z" style="fill:white;stroke:black;stroke-width:7px;"/>
                        <g>
                            <path d="M912.559,840.107c1.655,-0.955 4.342,-0.955 5.997,0c1.654,0.956 1.654,2.507 -0,3.463c-1.655,0.955 -4.342,0.955 -5.997,-0c-1.655,-0.956 -1.655,-2.507 -0,-3.463Z"/>
                            <path d="M988.746,796.121c1.655,-0.955 4.342,-0.955 5.997,-0c1.655,0.955 1.655,2.507 0,3.462c-1.655,0.955 -4.342,0.955 -5.997,0c-1.654,-0.955 -1.654,-2.507 0,-3.462Z"/>
                            <path d="M1027.17,907.087c1.654,-0.955 4.341,-0.955 5.996,0c1.655,0.956 1.655,2.507 0,3.462c-1.655,0.956 -4.342,0.956 -5.996,0c-1.655,-0.955 -1.655,-2.506 -0,-3.462Z"/>
                            <path d="M1103.35,863.101c1.655,-0.956 4.342,-0.956 5.997,-0c1.655,0.955 1.655,2.507 -0,3.462c-1.655,0.955 -4.342,0.955 -5.997,-0c-1.655,-0.955 -1.655,-2.507 0,-3.462Z"/>
                            <path d="M968.043,872.953c1.655,-0.956 4.342,-0.956 5.997,-0c1.654,0.955 1.654,2.506 -0,3.462c-1.655,0.955 -4.342,0.955 -5.997,-0c-1.655,-0.956 -1.655,-2.507 -0,-3.462Z"/>
                            <path d="M1044.23,828.966c1.655,-0.955 4.342,-0.955 5.997,0c1.655,0.955 1.655,2.507 0,3.462c-1.655,0.956 -4.342,0.956 -5.997,0c-1.654,-0.955 -1.654,-2.507 0,-3.462Z"/>
                        </g>
                    </g>
                    <g>
                        <path d="M951.961,817.392c18.419,-10.634 48.326,-10.635 66.744,-0.001c18.418,10.634 18.417,27.9 -0.002,38.535c-18.419,10.634 -48.327,10.634 -66.745,0.001c-18.418,-10.634 -18.417,-27.901 0.003,-38.535Z" style="fill:none;stroke:black;stroke-width:7px;"/>
                        <path d="M977.353,830.187c5.295,-3.058 13.894,-3.058 19.189,-0c5.295,3.057 5.295,8.021 0,11.078c-5.295,3.058 -13.894,3.058 -19.189,0c-5.295,-3.057 -5.295,-8.021 -0,-11.078Z" style="fill:none;stroke:black;stroke-width:7px;"/>
                        <path d="M1063.62,845.517c-1.836,-1.06 -4.618,-1.175 -6.208,-0.257l-57.182,33.013c-1.59,0.918 -1.39,2.524 0.446,3.584l26.615,15.366c1.836,1.06 4.617,1.176 6.208,0.258l57.181,-33.014c1.59,-0.918 1.391,-2.524 -0.446,-3.584l-26.614,-15.366Z" style="fill:none;stroke:black;stroke-width:7px;"/>
                        <path d="M1053.43,865.961l-57.772,-14.125l65.936,2.275c1.316,0.062 2.615,0.239 3.843,0.539c5.839,1.427 7.889,5.121 4.576,8.242c-3.313,3.121 -10.744,4.497 -16.583,3.069Z" style="fill:white;stroke:black;stroke-width:7px;"/>
                    </g>
                </g>
            </g>
        </g>
        <path d="M1060.27,1037.26c0,-14.08 -10.368,-22.784 -22.399,-22.784c-11.968,0 -22.4,8.704 -22.4,22.784c0,14.079 10.432,22.783 22.4,22.783c12.031,-0 22.399,-8.704 22.399,-22.783Zm-3.584,-0.064c0,12.287 -8.704,19.583 -18.815,19.583c-9.984,-0 -18.752,-7.296 -18.752,-19.583c0,-12.416 8.704,-19.648 18.752,-19.648c10.111,0 18.815,7.296 18.815,19.648Z" style="fill-rule:nonzero;"/>
        <path d="M1093.23,1047.76c0,-6.72 -5.375,-9.663 -6.399,-10.239c-1.024,-0.576 -5.952,-2.624 -9.088,-3.968c-3.136,-1.344 -6.592,-3.328 -6.592,-8.32c-0,-4.992 4.096,-7.68 9.216,-7.68c5.12,0 7.68,2.688 9.344,4.8l2.432,-2.112c-0.384,-0.64 -4.096,-5.76 -11.52,-5.76c-7.424,0 -12.992,4.48 -12.992,10.88c0,6.4 4.672,9.28 6.4,10.24c1.792,0.96 4.672,2.176 7.232,3.2c2.56,1.024 8.448,3.199 8.448,8.959c-0,5.76 -4.608,9.28 -10.304,9.28c-5.696,-0 -9.536,-3.904 -11.136,-6.848l-2.688,1.92c0.96,1.792 4.928,7.936 13.504,7.936c8.576,-0 14.143,-5.568 14.143,-12.288Z" style="fill-rule:nonzero;"/>
        <path d="M1125.81,1018.25l-0,-3.136l-29.696,0l0,3.136l13.12,0l0,41.023l3.456,-0l0,-41.023l13.12,0Z" style="fill-rule:nonzero;"/>
    </g>
    <g>
        <g>
            <g>
                <g>
                    <path d="M1425.42,822.153c0.053,2.082 1.499,2.114 4.315,3.739l114.176,65.919c5.56,3.21 14.373,3.334 19.669,0.277l76.756,-44.315c2.613,-1.508 3.884,-3.511 3.834,-5.539l0.002,-0l-0,22.273l-0,0c-0,1.988 -1.273,3.944 -3.836,5.424l-76.756,44.315c-5.296,3.057 -14.109,2.933 -19.669,-0.277l-114.176,-65.919c-2.816,-1.626 -4.262,-3.734 -4.315,-5.816l0,-20.081Z" style="fill:rgb(92,191,147);"/>
                    <path d="M1525.68,763.574c-5.56,-3.21 -14.373,-3.334 -19.669,-0.277l-76.756,44.316c-5.296,3.057 -5.081,8.145 0.479,11.355l114.176,65.919c5.56,3.21 14.373,3.334 19.669,0.277l76.756,-44.315c5.296,-3.057 5.081,-8.146 -0.479,-11.356l-114.176,-65.919Z" style="fill:white;stroke:black;stroke-width:7px;"/>
                    <g>
                        <path d="M1438.22,811.648c1.655,-0.956 4.342,-0.956 5.997,-0c1.654,0.955 1.654,2.506 -0,3.462c-1.655,0.955 -4.342,0.955 -5.997,-0c-1.655,-0.956 -1.655,-2.507 0,-3.462Z"/>
                        <path d="M1514.41,767.661c1.654,-0.955 4.341,-0.955 5.996,0c1.655,0.956 1.655,2.507 0,3.462c-1.655,0.956 -4.342,0.956 -5.996,0c-1.655,-0.955 -1.655,-2.506 -0,-3.462Z"/>
                        <path d="M1552.83,878.628c1.654,-0.956 4.341,-0.956 5.996,-0c1.655,0.955 1.655,2.506 0,3.462c-1.655,0.955 -4.342,0.955 -5.996,-0c-1.655,-0.956 -1.655,-2.507 -0,-3.462Z"/>
                        <path d="M1629.02,834.641c1.655,-0.955 4.342,-0.955 5.997,0c1.655,0.956 1.655,2.507 -0,3.462c-1.655,0.956 -4.342,0.956 -5.997,0c-1.655,-0.955 -1.655,-2.506 0,-3.462Z"/>
                        <path d="M1493.71,844.493c1.655,-0.956 4.342,-0.956 5.997,-0c1.654,0.955 1.654,2.507 -0,3.462c-1.655,0.955 -4.342,0.955 -5.997,-0c-1.655,-0.955 -1.655,-2.507 -0,-3.462Z"/>
                        <path d="M1569.89,800.506c1.655,-0.955 4.342,-0.955 5.997,0c1.655,0.956 1.655,2.507 0,3.463c-1.655,0.955 -4.342,0.955 -5.997,-0c-1.654,-0.956 -1.654,-2.507 0,-3.463Z"/>
                    </g>
                </g>
                <g>
                    <g>
                        <path d="M1425.42,777.838c0.053,2.082 1.499,2.114 4.315,3.739l114.176,65.919c5.56,3.21 14.373,3.334 19.669,0.277l76.756,-44.315c2.613,-1.508 3.884,-3.511 3.834,-5.539l0.002,-0l-0,22.273l-0,0c-0,1.988 -1.273,3.944 -3.836,5.424l-76.756,44.315c-5.296,3.057 -14.109,2.933 -19.669,-0.277l-114.176,-65.919c-2.816,-1.626 -4.262,-3.734 -4.315,-5.816l0,-20.081Z" style="fill:rgb(92,191,147);"/>
                        <path d="M1525.68,719.259c-5.56,-3.21 -14.373,-3.334 -19.669,-0.277l-76.756,44.315c-5.296,3.058 -5.081,8.146 0.479,11.356l114.176,65.919c5.56,3.21 14.373,3.334 19.669,0.277l76.756,-44.315c5.296,-3.058 5.081,-8.146 -0.479,-11.356l-114.176,-65.919Z" style="fill:white;stroke:black;stroke-width:7px;"/>
                        <g>
                            <path d="M1438.22,767.333c1.655,-0.956 4.342,-0.956 5.997,-0c1.654,0.955 1.654,2.506 -0,3.462c-1.655,0.955 -4.342,0.955 -5.997,-0c-1.655,-0.956 -1.655,-2.507 0,-3.462Z"/>
                            <path d="M1514.41,723.346c1.654,-0.955 4.341,-0.955 5.996,0c1.655,0.956 1.655,2.507 0,3.462c-1.655,0.956 -4.342,0.956 -5.996,0c-1.655,-0.955 -1.655,-2.506 -0,-3.462Z"/>
                            <path d="M1552.83,834.313c1.654,-0.956 4.341,-0.956 5.996,-0c1.655,0.955 1.655,2.506 0,3.462c-1.655,0.955 -4.342,0.955 -5.996,-0c-1.655,-0.956 -1.655,-2.507 -0,-3.462Z"/>
                            <path d="M1629.02,790.326c1.655,-0.955 4.342,-0.955 5.997,0c1.655,0.955 1.655,2.507 -0,3.462c-1.655,0.956 -4.342,0.956 -5.997,0c-1.655,-0.955 -1.655,-2.507 0,-3.462Z"/>
                            <path d="M1493.71,800.178c1.655,-0.956 4.342,-0.956 5.997,-0c1.654,0.955 1.654,2.507 -0,3.462c-1.655,0.955 -4.342,0.955 -5.997,-0c-1.655,-0.955 -1.655,-2.507 -0,-3.462Z"/>
                            <path d="M1569.89,756.191c1.655,-0.955 4.342,-0.955 5.997,0c1.655,0.956 1.655,2.507 0,3.462c-1.655,0.956 -4.342,0.956 -5.997,0c-1.654,-0.955 -1.654,-2.506 0,-3.462Z"/>
                        </g>
                    </g>
                    <g>
                        <path d="M1477.62,744.617c18.419,-10.634 48.326,-10.634 66.744,-0.001c18.418,10.634 18.417,27.901 -0.002,38.535c-18.419,10.634 -48.327,10.635 -66.745,0.001c-18.418,-10.634 -18.417,-27.9 0.003,-38.535Z" style="fill:none;stroke:black;stroke-width:7px;"/>
                        <path d="M1503.02,757.412c5.295,-3.057 13.894,-3.057 19.189,-0c5.296,3.057 5.296,8.021 0,11.079c-5.295,3.057 -13.894,3.057 -19.189,-0c-5.295,-3.058 -5.295,-8.022 -0,-11.079Z" style="fill:none;stroke:black;stroke-width:7px;"/>
                        <path d="M1589.28,772.743c-1.836,-1.061 -4.618,-1.176 -6.208,-0.258l-57.182,33.014c-1.59,0.918 -1.39,2.524 0.446,3.584l26.615,15.366c1.836,1.06 4.618,1.175 6.208,0.257l57.181,-33.014c1.59,-0.918 1.391,-2.524 -0.446,-3.584l-26.614,-15.365Z" style="fill:none;stroke:black;stroke-width:7px;"/>
                        <path d="M1579.1,793.186l-57.772,-14.125l65.936,2.275c1.316,0.063 2.615,0.239 3.843,0.539c5.839,1.428 7.889,5.121 4.576,8.242c-3.313,3.122 -10.744,4.497 -16.583,3.069Z" style="fill:white;stroke:black;stroke-width:7px;"/>
                    </g>
                </g>
            </g>
            <g>
                <g>
                    <path d="M1299.76,894.928c0.053,2.082 1.499,2.113 4.315,3.739l114.176,65.919c5.56,3.21 14.373,3.334 19.669,0.277l76.756,-44.315c2.613,-1.509 3.884,-3.512 3.834,-5.539l0.002,-0.001l-0,22.274l-0.001,-0c0,1.988 -1.272,3.944 -3.835,5.423l-76.756,44.315c-5.296,3.058 -14.109,2.934 -19.669,-0.277l-114.176,-65.918c-2.816,-1.626 -4.262,-3.734 -4.315,-5.817l0,-20.08Z" style="fill:rgb(92,191,147);"/>
                    <path d="M1400.02,836.349c-5.56,-3.21 -14.373,-3.334 -19.669,-0.277l-76.756,44.315c-5.296,3.058 -5.081,8.146 0.479,11.356l114.176,65.919c5.56,3.21 14.373,3.334 19.669,0.277l76.756,-44.315c5.296,-3.058 5.081,-8.146 -0.479,-11.356l-114.176,-65.919Z" style="fill:white;stroke:black;stroke-width:7px;"/>
                    <g>
                        <path d="M1312.56,884.422c1.655,-0.955 4.342,-0.955 5.997,0c1.654,0.956 1.654,2.507 -0,3.463c-1.655,0.955 -4.342,0.955 -5.997,-0c-1.655,-0.956 -1.655,-2.507 -0,-3.463Z"/>
                        <path d="M1388.75,840.436c1.655,-0.955 4.342,-0.955 5.997,0c1.655,0.955 1.655,2.507 0,3.462c-1.655,0.956 -4.342,0.956 -5.997,0c-1.654,-0.955 -1.654,-2.507 0,-3.462Z"/>
                        <path d="M1427.17,951.402c1.654,-0.955 4.341,-0.955 5.996,0c1.655,0.956 1.655,2.507 0,3.462c-1.655,0.956 -4.342,0.956 -5.996,0c-1.655,-0.955 -1.655,-2.506 -0,-3.462Z"/>
                        <path d="M1503.35,907.416c1.655,-0.956 4.342,-0.956 5.997,-0c1.655,0.955 1.655,2.507 -0,3.462c-1.655,0.955 -4.342,0.955 -5.997,-0c-1.655,-0.955 -1.655,-2.507 0,-3.462Z"/>
                        <path d="M1368.04,917.268c1.655,-0.956 4.342,-0.956 5.997,-0c1.654,0.955 1.654,2.506 -0,3.462c-1.655,0.955 -4.342,0.955 -5.997,-0c-1.655,-0.956 -1.655,-2.507 -0,-3.462Z"/>
                        <path d="M1444.23,873.281c1.655,-0.955 4.342,-0.955 5.997,0c1.655,0.956 1.655,2.507 0,3.462c-1.655,0.956 -4.342,0.956 -5.997,0c-1.654,-0.955 -1.654,-2.506 0,-3.462Z"/>
                    </g>
                </g>
                <g>
                    <g>
                        <path d="M1299.76,850.613c0.053,2.081 1.499,2.113 4.315,3.739l114.176,65.919c5.56,3.21 14.373,3.334 19.669,0.277l76.756,-44.315c2.613,-1.509 3.884,-3.512 3.834,-5.539l0.002,-0.001l-0,22.274l-0.001,-0c0,1.988 -1.272,3.944 -3.835,5.423l-76.756,44.315c-5.296,3.058 -14.109,2.933 -19.669,-0.277l-114.176,-65.918c-2.816,-1.626 -4.262,-3.734 -4.315,-5.817l0,-20.08Z" style="fill:rgb(92,191,147);"/>
                        <path d="M1400.02,792.034c-5.56,-3.21 -14.373,-3.334 -19.669,-0.277l-76.756,44.315c-5.296,3.057 -5.081,8.146 0.479,11.356l114.176,65.919c5.56,3.21 14.373,3.334 19.669,0.277l76.756,-44.316c5.296,-3.057 5.081,-8.145 -0.479,-11.355l-114.176,-65.919Z" style="fill:white;stroke:black;stroke-width:7px;"/>
                        <g>
                            <path d="M1312.56,840.107c1.655,-0.955 4.342,-0.955 5.997,0c1.654,0.956 1.654,2.507 -0,3.463c-1.655,0.955 -4.342,0.955 -5.997,-0c-1.655,-0.956 -1.655,-2.507 -0,-3.463Z"/>
                            <path d="M1388.75,796.121c1.655,-0.955 4.342,-0.955 5.997,-0c1.655,0.955 1.655,2.507 0,3.462c-1.655,0.955 -4.342,0.955 -5.997,0c-1.654,-0.955 -1.654,-2.507 0,-3.462Z"/>
                            <path d="M1427.17,907.087c1.654,-0.955 4.341,-0.955 5.996,0c1.655,0.956 1.655,2.507 0,3.462c-1.655,0.956 -4.342,0.956 -5.996,0c-1.655,-0.955 -1.655,-2.506 -0,-3.462Z"/>
                            <path d="M1503.35,863.101c1.655,-0.956 4.342,-0.956 5.997,-0c1.655,0.955 1.655,2.507 -0,3.462c-1.655,0.955 -4.342,0.955 -5.997,-0c-1.655,-0.955 -1.655,-2.507 0,-3.462Z"/>
                            <path d="M1368.04,872.953c1.655,-0.956 4.342,-0.956 5.997,-0c1.654,0.955 1.654,2.506 -0,3.462c-1.655,0.955 -4.342,0.955 -5.997,-0c-1.655,-0.956 -1.655,-2.507 -0,-3.462Z"/>
                            <path d="M1444.23,828.966c1.655,-0.955 4.342,-0.955 5.997,0c1.655,0.955 1.655,2.507 0,3.462c-1.655,0.956 -4.342,0.956 -5.997,0c-1.654,-0.955 -1.654,-2.507 0,-3.462Z"/>
                        </g>
                    </g>
                    <g>
                        <path d="M1351.96,817.392c18.419,-10.634 48.326,-10.635 66.744,-0.001c18.418,10.634 18.417,27.9 -0.002,38.535c-18.419,10.634 -48.327,10.634 -66.745,0.001c-18.418,-10.634 -18.417,-27.901 0.003,-38.535Z" style="fill:none;stroke:black;stroke-width:7px;"/>
                        <path d="M1377.35,830.187c5.295,-3.058 13.894,-3.058 19.189,-0c5.295,3.057 5.295,8.021 0,11.078c-5.295,3.058 -13.894,3.058 -19.189,0c-5.295,-3.057 -5.295,-8.021 -0,-11.078Z" style="fill:none;stroke:black;stroke-width:7px;"/>
                        <path d="M1463.62,845.517c-1.836,-1.06 -4.618,-1.175 -6.208,-0.257l-57.182,33.013c-1.59,0.918 -1.39,2.524 0.446,3.584l26.615,15.366c1.836,1.06 4.617,1.176 6.208,0.258l57.181,-33.014c1.59,-0.918 1.391,-2.524 -0.446,-3.584l-26.614,-15.366Z" style="fill:none;stroke:black;stroke-width:7px;"/>
                        <path d="M1453.43,865.961l-57.772,-14.125l65.936,2.275c1.316,0.062 2.615,0.239 3.843,0.539c5.839,1.427 7.889,5.121 4.576,8.242c-3.313,3.121 -10.744,4.497 -16.583,3.069Z" style="fill:white;stroke:black;stroke-width:7px;"/>
                    </g>
                </g>
            </g>
        </g>
        <path d="M1465.76,1040.42c0,-14.08 -10.367,-22.784 -22.399,-22.784c-11.968,0 -22.4,8.704 -22.4,22.784c0,14.079 10.432,22.783 22.4,22.783c12.032,0 22.399,-8.704 22.399,-22.783Zm-3.584,-0.064c0,12.287 -8.703,19.583 -18.815,19.583c-9.984,0 -18.752,-7.296 -18.752,-19.583c0,-12.416 8.704,-19.648 18.752,-19.648c10.112,0 18.815,7.296 18.815,19.648Z" style="fill-rule:nonzero;"/>
        <path d="M1498.72,1050.91c-0,-6.719 -5.376,-9.663 -6.4,-10.239c-1.024,-0.576 -5.952,-2.624 -9.088,-3.968c-3.136,-1.344 -6.592,-3.328 -6.592,-8.32c0,-4.992 4.096,-7.68 9.216,-7.68c5.12,0 7.68,2.688 9.344,4.8l2.432,-2.112c-0.384,-0.64 -4.096,-5.76 -11.52,-5.76c-7.424,0 -12.992,4.48 -12.992,10.88c0,6.4 4.672,9.28 6.4,10.24c1.792,0.96 4.672,2.176 7.232,3.2c2.56,1.024 8.448,3.2 8.448,8.959c-0,5.76 -4.608,9.28 -10.304,9.28c-5.696,0 -9.536,-3.904 -11.136,-6.848l-2.688,1.92c0.96,1.792 4.928,7.936 13.504,7.936c8.576,-0 14.144,-5.568 14.144,-12.288Z" style="fill-rule:nonzero;"/>
        <path d="M1531.29,1021.41l-0,-3.136l-29.696,0l0,3.136l13.12,0l0,41.023l3.456,0l0,-41.023l13.12,0Z" style="fill-rule:nonzero;"/>
    </g>
    <g>
        <g>
            <g>
                <rect x="570" y="189.26" width="120" height="119.996" style="fill:rgb(137,194,212);"/>
                <rect x="700" y="189.26" width="120" height="119.996" style="fill:rgb(198,144,210);"/>
                <rect x="830" y="189.26" width="120" height="119.996" style="fill:rgb(255,155,146);"/>
                <rect x="960" y="189.26" width="120" height="119.996" style="fill:rgb(92,191,147);"/>
                <rect x="1090" y="189.26" width="120" height="119.996" style="fill:rgb(137,194,212);"/>
                <rect x="1220" y="189.26" width="120" height="119.996" style="fill:rgb(198,144,210);"/>
                <rect x="1350" y="189.26" width="120" height="119.996" style="fill:rgb(255,155,146);"/>
                <rect x="1480" y="189.26" width="120" height="119.996" style="fill:rgb(92,191,147);"/>
            </g>
            <rect x="560" y="179.26" width="1050" height="139.996" style="fill:none;stroke:black;stroke-width:7px;"/>
        </g>
        <path d="M570,158.621l4.8,-0l-0,-19.776l17.536,0l-0,-4.16l-17.536,0l-0,-16.063l18.688,-0l-0,-4.16l-23.488,-0l-0,44.159Z" style="fill-rule:nonzero;"/>
        <path d="M606.352,118.302c-0,-1.856 -1.408,-3.264 -3.328,-3.264c-1.984,-0 -3.392,1.408 -3.392,3.264c-0,1.856 1.408,3.264 3.392,3.264c1.92,-0 3.264,-1.408 3.328,-3.264Zm-5.696,40.319l4.736,-0l-0,-30.015l-4.736,-0l-0,30.015Z" style="fill-rule:nonzero;"/>
        <rect x="614.992" y="114.462" width="4.736" height="44.159" style="fill-rule:nonzero;"/>
        <path d="M654.672,154.333l-2.048,-2.816c-0,-0 -4.224,3.776 -10.112,3.776c-6.4,-0 -10.688,-4.352 -10.752,-10.56l23.68,0c-0,0 0.192,-1.408 0.192,-2.496c-0,-8.256 -5.696,-14.207 -13.952,-14.207c-8.96,-0 -14.784,6.975 -14.784,15.487c-0,9.664 5.952,15.744 14.784,15.744c5.888,-0 10.24,-1.664 12.992,-4.928Zm-3.84,-13.184l-19.008,0c0.384,-4.672 3.648,-9.216 9.664,-9.152c6.592,0.064 9.344,4.928 9.344,9.152Z" style="fill-rule:nonzero;"/>
    </g>
    <g>
        <g>
            <rect x="115" y="577.447" width="80" height="79.997" style="fill:rgb(137,194,212);"/>
            <rect x="205" y="577.447" width="80" height="79.997" style="fill:rgb(137,194,212);"/>
            <path d="M189.5,731.442l10.5,21l10.5,-21l-21,-0Z"/>
            <path d="M200,735.642l-0,-63.198" style="fill:none;stroke:black;stroke-width:7px;"/>
        </g>
        <path d="M189.5,543.448l10.5,21l10.5,-21l-21,-0Z"/>
        <path d="M200,547.648l-0,-146.195" style="fill:none;stroke:black;stroke-width:7px;"/>
    </g>
    <g>
        <g>
            <rect x="515" y="577.447" width="80" height="79.997" style="fill:rgb(198,144,210);"/>
            <rect x="605" y="577.447" width="80" height="79.997" style="fill:rgb(198,144,210);"/>
            <path d="M589.5,731.442l10.5,21l10.5,-21l-21,-0Z"/>
            <path d="M600,735.642l0,-63.198" style="fill:none;stroke:black;stroke-width:7px;"/>
        </g>
        <path d="M589.5,543.448l10.5,21l10.5,-21l-21,-0Z"/>
        <path d="M600,547.648l-0,-43.198l-360,-0l-0,-99.997" style="fill:none;stroke:black;stroke-width:7px;"/>
    </g>
    <g>
        <g>
            <rect x="915" y="577.447" width="80" height="79.997" style="fill:rgb(255,155,146);"/>
            <rect x="1005" y="577.447" width="80" height="79.997" style="fill:rgb(255,155,146);"/>
            <path d="M989.5,731.442l10.5,21l10.5,-21l-21,-0Z"/>
            <path d="M1000,735.642l0,-63.198" style="fill:none;stroke:black;stroke-width:7px;"/>
        </g>
        <path d="M989.5,543.448l10.5,21l10.5,-21l-21,-0Z"/>
        <path d="M1000,547.648l0,-103.196l-720,-0l0,-59.999" style="fill:none;stroke:black;stroke-width:7px;"/>
    </g>
    <g>
        <g>
            <rect x="1315" y="577.447" width="80" height="79.997" style="fill:rgb(92,191,147);"/>
            <rect x="1405" y="577.447" width="80" height="79.997" style="fill:rgb(92,191,147);"/>
            <path d="M1389.5,731.442l10.5,21l10.5,-21l-21,-0Z"/>
            <path d="M1400,735.642l-0,-63.198" style="fill:none;stroke:black;stroke-width:7px;"/>
        </g>
        <path d="M1389.5,543.448l10.5,21l10.5,-21l-21,-0Z"/>
        <path d="M1400,547.648l0,-163.195l-1080,0l0,-19.999" style="fill:none;stroke:black;stroke-width:7px;"/>
    </g>
    <g>
        <g transform="matrix(1,0,0,0.999968,-562.151,-15.91)">
            <g transform="matrix(64,0,0,64,659.655,110.072)">
                <path d="M0.081,-0l0.319,-0l0,-0.067l-0.244,0l-0,-0.623l-0.075,-0l-0,0.69Z" style="fill-rule:nonzero;"/>
            </g>
            <g transform="matrix(64,0,0,64,685.895,110.072)">
                <path d="M0.378,-0.47l0,0.26c0,0.082 -0.041,0.154 -0.125,0.154c-0.087,0 -0.115,-0.048 -0.115,-0.135l0,-0.279l-0.075,0l-0,0.284c-0,0.112 0.033,0.194 0.167,0.194c0.067,0 0.127,-0.033 0.148,-0.083l0.001,0.075l0.072,0l0,-0.47l-0.073,0Z" style="fill-rule:nonzero;"/>
            </g>
            <g transform="matrix(64,0,0,64,719.111,110.072)">
                <path d="M0.064,-0.12l-0.039,0.047c0.035,0.05 0.097,0.083 0.174,0.083c0.097,-0 0.172,-0.053 0.172,-0.143c0,-0.101 -0.104,-0.125 -0.151,-0.141c-0.052,-0.017 -0.1,-0.037 -0.1,-0.08c0,-0.044 0.034,-0.067 0.083,-0.067c0.042,0 0.085,0.015 0.118,0.043l0.036,-0.045c-0.033,-0.03 -0.078,-0.055 -0.154,-0.055c-0.076,0 -0.151,0.045 -0.151,0.131c0,0.099 0.1,0.122 0.134,0.133c0.036,0.012 0.115,0.031 0.115,0.087c0,0.056 -0.049,0.078 -0.1,0.078c-0.045,0 -0.092,-0.02 -0.137,-0.071Z" style="fill-rule:nonzero;"/>
            </g>
            <g transform="matrix(64,0,0,64,744.839,110.072)">
                <path d="M0.28,-0.005l-0.004,-0.06c0,0 -0.023,0.011 -0.052,0.011c-0.022,0 -0.04,-0.006 -0.048,-0.018c-0.015,-0.022 -0.015,-0.055 -0.015,-0.093l-0,-0.241l0.116,0l0,-0.062l-0.115,0l-0,-0.145l-0.075,0l-0,0.145l-0.07,-0l-0,0.062l0.07,-0l-0,0.226c-0,0.085 -0,0.19 0.112,0.19c0.032,-0 0.059,-0.005 0.081,-0.015Z" style="fill-rule:nonzero;"/>
            </g>
            <g transform="matrix(64,0,0,64,763.719,110.072)">
                <path d="M0.07,-0l0.074,-0l0,-0.243c0,-0.071 0.012,-0.098 0.031,-0.125c0.008,-0.011 0.036,-0.041 0.079,-0.041c0.014,-0 0.035,0.002 0.051,0.009l0.003,-0l0.005,-0.07c0,-0 -0.019,-0.008 -0.05,-0.008c-0.052,-0 -0.097,0.032 -0.119,0.089l0,-0.08l-0.074,0l-0,0.469Z" style="fill-rule:nonzero;"/>
            </g>
            <g transform="matrix(64,0,0,64,783.687,110.072)">
                <path d="M0.471,-0.067l-0.032,-0.044c-0,0 -0.066,0.059 -0.158,0.059c-0.1,-0 -0.167,-0.068 -0.168,-0.165l0.37,0c0,0 0.003,-0.022 0.003,-0.039c0,-0.129 -0.089,-0.222 -0.218,-0.222c-0.14,-0 -0.231,0.109 -0.231,0.242c-0,0.151 0.093,0.246 0.231,0.246c0.092,-0 0.16,-0.026 0.203,-0.077Zm-0.06,-0.206l-0.297,0c0.006,-0.073 0.057,-0.144 0.151,-0.143c0.103,0.001 0.146,0.077 0.146,0.143Z" style="fill-rule:nonzero;"/>
            </g>
            <g transform="matrix(64,0,0,64,659.591,174.072)">
                <path d="M0.644,-0.092l-0.038,-0.053c-0.048,0.052 -0.12,0.086 -0.213,0.086c-0.159,-0 -0.276,-0.116 -0.276,-0.287c0,-0.171 0.114,-0.287 0.276,-0.287c0.096,0 0.176,0.048 0.207,0.088l0.038,-0.059c-0.044,-0.044 -0.123,-0.096 -0.247,-0.096c-0.197,0 -0.351,0.144 -0.351,0.356c-0,0.213 0.143,0.356 0.348,0.356c0.128,0 0.21,-0.053 0.256,-0.104Z" style="fill-rule:nonzero;"/>
            </g>
            <g transform="matrix(64,0,0,64,702.535,174.072)">
                <rect x="0.075" y="-0.69" width="0.074" height="0.69" style="fill-rule:nonzero;"/>
            </g>
            <g transform="matrix(64,0,0,64,716.871,174.072)">
                <path d="M0.164,-0.63c0,-0.029 -0.022,-0.051 -0.052,-0.051c-0.031,0 -0.053,0.022 -0.053,0.051c0,0.029 0.022,0.051 0.053,0.051c0.03,0 0.051,-0.022 0.052,-0.051Zm-0.089,0.63l0.074,-0l-0,-0.469l-0.074,0l-0,0.469Z" style="fill-rule:nonzero;"/>
            </g>
            <g transform="matrix(64,0,0,64,731.207,174.072)">
                <path d="M0.471,-0.067l-0.032,-0.044c-0,0 -0.066,0.059 -0.158,0.059c-0.1,-0 -0.167,-0.068 -0.168,-0.165l0.37,0c0,0 0.003,-0.022 0.003,-0.039c0,-0.129 -0.089,-0.222 -0.218,-0.222c-0.14,-0 -0.231,0.109 -0.231,0.242c-0,0.151 0.093,0.246 0.231,0.246c0.092,-0 0.16,-0.026 0.203,-0.077Zm-0.06,-0.206l-0.297,0c0.006,-0.073 0.057,-0.144 0.151,-0.143c0.103,0.001 0.146,0.077 0.146,0.143Z" style="fill-rule:nonzero;"/>
            </g>
            <g transform="matrix(64,0,0,64,764.423,174.072)">
                <path d="M0.293,-0.478c-0.067,0 -0.125,0.035 -0.146,0.085l-0.003,0l0,-0.076l-0.074,0l0,0.469l0.074,-0l0,-0.264c0,-0.081 0.042,-0.15 0.126,-0.15c0.087,0 0.115,0.048 0.115,0.135l0,0.279l0.074,-0l0,-0.284c0,-0.112 -0.032,-0.194 -0.166,-0.194Z" style="fill-rule:nonzero;"/>
            </g>
            <g transform="matrix(64,0,0,64,798.087,174.072)">
                <path d="M0.28,-0.005l-0.004,-0.06c0,0 -0.023,0.011 -0.052,0.011c-0.022,0 -0.04,-0.006 -0.048,-0.018c-0.015,-0.022 -0.015,-0.055 -0.015,-0.093l-0,-0.241l0.116,0l0,-0.062l-0.115,0l-0,-0.145l-0.075,0l-0,0.145l-0.07,-0l-0,0.062l0.07,-0l-0,0.226c-0,0.085 -0,0.19 0.112,0.19c0.032,-0 0.059,-0.005 0.081,-0.015Z" style="fill-rule:nonzero;"/>
            </g>
        </g>
        <g>
            <path d="M74.945,276.283l-18.35,10.596c-7.305,4.217 -7.008,11.236 0.661,15.664l157.499,90.931c7.67,4.428 19.827,4.6 27.132,0.382l105.881,-61.13c7.305,-4.217 7.008,-11.236 -0.662,-15.664l-16.241,-11.307" style="fill:white;stroke:black;stroke-width:7px;"/>
            <path d="M315.955,299.077l-126.347,-72.946c-7.67,-4.428 -19.827,-4.599 -27.132,-0.382l-75.554,43.621" style="fill:white;stroke:black;stroke-width:7px;"/>
            <path d="M50,256.245c0.072,2.871 2.067,2.915 5.952,5.158l157.498,90.931c7.67,4.428 19.828,4.599 27.133,0.382l105.881,-61.13c3.604,-2.081 5.358,-4.844 5.288,-7.641l0.002,-0l0,30.725l0,-0c0,2.742 -1.755,5.44 -5.29,7.481l-105.881,61.13c-7.305,4.217 -19.463,4.046 -27.133,-0.382l-157.498,-90.931c-3.885,-2.243 -5.88,-5.151 -5.952,-8.023l0,-27.7Z" style="fill:rgb(161,161,161);"/>
            <path d="M188.304,175.439c-7.67,-4.428 -19.828,-4.599 -27.132,-0.382l-105.882,61.13c-7.304,4.217 -7.008,11.236 0.662,15.664l157.498,90.931c7.67,4.428 19.828,4.6 27.133,0.382l105.881,-61.13c7.304,-4.217 7.008,-11.236 -0.662,-15.664l-157.498,-90.931Z" style="fill:white;stroke:black;stroke-width:7px;"/>
            <g>
                <path d="M333.745,309.345c2.429,-1.402 4.401,-0.264 4.401,2.541c-0,2.805 -1.972,6.22 -4.401,7.622c-2.429,1.403 -4.401,0.264 -4.401,-2.54c-0,-2.805 1.972,-6.221 4.401,-7.623Z" style="fill:white;"/>
                <path d="M319.516,317.56c2.429,-1.402 4.401,-0.264 4.401,2.541c-0,2.805 -1.972,6.22 -4.401,7.622c-2.429,1.403 -4.401,0.264 -4.401,-2.54c-0,-2.805 1.972,-6.221 4.401,-7.623Z" style="fill:white;"/>
                <path d="M306.306,330.268l-57.593,33.251" style="fill:none;stroke:white;stroke-width:10px;"/>
            </g>
        </g>
    </g>
    <path d="M401,259.758l-21,-10.5l21,-10.5l0,21Z"/>
    <path d="M540,249.258l-143.2,-0" style="fill:none;stroke:black;stroke-width:7px;"/>
</svg>
