<?xml version="1.0" encoding="UTF-8" standalone="no"?>
<!DOCTYPE svg PUBLIC "-//W3C//DTD SVG 1.1//EN" "http://www.w3.org/Graphics/SVG/1.1/DTD/svg11.dtd">
<svg width="100%" height="100%" viewBox="0 0 907 291" version="1.1" xmlns="http://www.w3.org/2000/svg" xmlns:xlink="http://www.w3.org/1999/xlink" xml:space="preserve" xmlns:serif="http://www.serif.com/" style="fill-rule:evenodd;clip-rule:evenodd;stroke-linecap:round;stroke-linejoin:round;stroke-miterlimit:1.5;">
    <g>
        <g>
            <g>
                <g>
                    <g>
                        <rect x="101.678" y="102.791" width="320" height="20" style="fill:rgb(196,226,179);stroke:rgb(85,171,38);stroke-width:1px;"/>
                        <path d="M121.678,122.791l0,-20" style="fill:none;stroke:rgb(85,171,38);stroke-width:1px;"/>
                        <path d="M141.678,122.791l0,-20" style="fill:none;stroke:rgb(85,171,38);stroke-width:1px;"/>
                        <path d="M161.678,122.791l0,-20" style="fill:none;stroke:rgb(85,171,38);stroke-width:1px;"/>
                        <path d="M181.678,122.791l0,-20" style="fill:none;stroke:rgb(85,171,38);stroke-width:1px;"/>
                        <path d="M201.678,122.791l0,-20" style="fill:none;stroke:rgb(85,171,38);stroke-width:1px;"/>
                        <path d="M221.678,122.791l0,-20" style="fill:none;stroke:rgb(85,171,38);stroke-width:1px;"/>
                        <path d="M241.678,122.791l0,-20" style="fill:none;stroke:rgb(85,171,38);stroke-width:1px;"/>
                        <path d="M261.678,122.791l0,-20" style="fill:none;stroke:rgb(85,171,38);stroke-width:1px;"/>
                        <path d="M281.678,122.791l0,-20" style="fill:none;stroke:rgb(85,171,38);stroke-width:1px;"/>
                        <path d="M301.678,122.791l0,-20" style="fill:none;stroke:rgb(85,171,38);stroke-width:1px;"/>
                        <path d="M321.678,122.791l0,-20" style="fill:none;stroke:rgb(85,171,38);stroke-width:1px;"/>
                        <path d="M341.678,122.791l0,-20" style="fill:none;stroke:rgb(85,171,38);stroke-width:1px;"/>
                        <path d="M361.678,122.791l0,-20" style="fill:none;stroke:rgb(85,171,38);stroke-width:1px;"/>
                        <path d="M381.678,122.791l0,-20" style="fill:none;stroke:rgb(85,171,38);stroke-width:1px;"/>
                        <path d="M401.678,122.791l0,-20" style="fill:none;stroke:rgb(85,171,38);stroke-width:1px;"/>
                    </g>
                    <rect x="101.678" y="124.791" width="320" height="10" style="fill:rgb(198,228,246);stroke:rgb(93,179,230);stroke-width:1px;"/>
                    <rect x="101.678" y="90.791" width="320" height="10" style="fill:rgb(166,205,210);stroke:rgb(0,112,127);stroke-width:1px;"/>
                </g>
                <g>
                    <g>
                        <rect x="101.678" y="154.791" width="320" height="20" style="fill:rgb(196,226,179);stroke:rgb(85,171,38);stroke-width:1px;"/>
                        <path d="M121.678,154.791l0,20" style="fill:none;stroke:rgb(85,171,38);stroke-width:1px;"/>
                        <path d="M141.678,154.791l0,20" style="fill:none;stroke:rgb(85,171,38);stroke-width:1px;"/>
                        <path d="M161.678,154.791l0,20" style="fill:none;stroke:rgb(85,171,38);stroke-width:1px;"/>
                        <path d="M181.678,154.791l0,20" style="fill:none;stroke:rgb(85,171,38);stroke-width:1px;"/>
                        <path d="M201.678,154.791l0,20" style="fill:none;stroke:rgb(85,171,38);stroke-width:1px;"/>
                        <path d="M221.678,154.791l0,20" style="fill:none;stroke:rgb(85,171,38);stroke-width:1px;"/>
                        <path d="M241.678,154.791l0,20" style="fill:none;stroke:rgb(85,171,38);stroke-width:1px;"/>
                        <path d="M261.678,154.791l0,20" style="fill:none;stroke:rgb(85,171,38);stroke-width:1px;"/>
                        <path d="M281.678,154.791l0,20" style="fill:none;stroke:rgb(85,171,38);stroke-width:1px;"/>
                        <path d="M301.678,154.791l0,20" style="fill:none;stroke:rgb(85,171,38);stroke-width:1px;"/>
                        <path d="M321.678,154.791l0,20" style="fill:none;stroke:rgb(85,171,38);stroke-width:1px;"/>
                        <path d="M341.678,154.791l0,20" style="fill:none;stroke:rgb(85,171,38);stroke-width:1px;"/>
                        <path d="M361.678,154.791l0,20" style="fill:none;stroke:rgb(85,171,38);stroke-width:1px;"/>
                        <path d="M381.678,154.791l0,20" style="fill:none;stroke:rgb(85,171,38);stroke-width:1px;"/>
                        <path d="M401.678,154.791l0,20" style="fill:none;stroke:rgb(85,171,38);stroke-width:1px;"/>
                    </g>
                    <rect x="101.678" y="142.791" width="320" height="10" style="fill:rgb(198,228,246);stroke:rgb(93,179,230);stroke-width:1px;"/>
                    <rect x="101.678" y="176.791" width="320" height="10" style="fill:rgb(166,205,210);stroke:rgb(0,112,127);stroke-width:1px;"/>
                </g>
            </g>
            <g>
                <g>
                    <g>
                        <rect x="489.678" y="102.791" width="320" height="20" style="fill:rgb(196,226,179);stroke:rgb(85,171,38);stroke-width:1px;"/>
                        <path d="M509.678,122.791l0,-20" style="fill:none;stroke:rgb(85,171,38);stroke-width:1px;"/>
                        <path d="M529.678,122.791l0,-20" style="fill:none;stroke:rgb(85,171,38);stroke-width:1px;"/>
                        <path d="M549.678,122.791l0,-20" style="fill:none;stroke:rgb(85,171,38);stroke-width:1px;"/>
                        <path d="M569.678,122.791l0,-20" style="fill:none;stroke:rgb(85,171,38);stroke-width:1px;"/>
                        <path d="M589.678,122.791l0,-20" style="fill:none;stroke:rgb(85,171,38);stroke-width:1px;"/>
                        <path d="M609.678,122.791l0,-20" style="fill:none;stroke:rgb(85,171,38);stroke-width:1px;"/>
                        <path d="M629.678,122.791l0,-20" style="fill:none;stroke:rgb(85,171,38);stroke-width:1px;"/>
                        <path d="M649.678,122.791l0,-20" style="fill:none;stroke:rgb(85,171,38);stroke-width:1px;"/>
                        <path d="M669.678,122.791l0,-20" style="fill:none;stroke:rgb(85,171,38);stroke-width:1px;"/>
                        <path d="M689.678,122.791l0,-20" style="fill:none;stroke:rgb(85,171,38);stroke-width:1px;"/>
                        <path d="M709.678,122.791l0,-20" style="fill:none;stroke:rgb(85,171,38);stroke-width:1px;"/>
                        <path d="M729.678,122.791l0,-20" style="fill:none;stroke:rgb(85,171,38);stroke-width:1px;"/>
                        <path d="M749.678,122.791l0,-20" style="fill:none;stroke:rgb(85,171,38);stroke-width:1px;"/>
                        <path d="M769.678,122.791l0,-20" style="fill:none;stroke:rgb(85,171,38);stroke-width:1px;"/>
                        <path d="M789.678,122.791l0,-20" style="fill:none;stroke:rgb(85,171,38);stroke-width:1px;"/>
                    </g>
                    <rect x="489.678" y="124.791" width="320" height="10" style="fill:rgb(198,228,246);stroke:rgb(93,179,230);stroke-width:1px;"/>
                    <rect x="489.678" y="90.791" width="320" height="10" style="fill:rgb(166,205,210);stroke:rgb(0,112,127);stroke-width:1px;"/>
                </g>
                <g>
                    <g>
                        <rect x="489.678" y="154.791" width="320" height="20" style="fill:rgb(196,226,179);stroke:rgb(85,171,38);stroke-width:1px;"/>
                        <path d="M509.678,154.791l0,20" style="fill:none;stroke:rgb(85,171,38);stroke-width:1px;"/>
                        <path d="M529.678,154.791l0,20" style="fill:none;stroke:rgb(85,171,38);stroke-width:1px;"/>
                        <path d="M549.678,154.791l0,20" style="fill:none;stroke:rgb(85,171,38);stroke-width:1px;"/>
                        <path d="M569.678,154.791l0,20" style="fill:none;stroke:rgb(85,171,38);stroke-width:1px;"/>
                        <path d="M589.678,154.791l0,20" style="fill:none;stroke:rgb(85,171,38);stroke-width:1px;"/>
                        <path d="M609.678,154.791l0,20" style="fill:none;stroke:rgb(85,171,38);stroke-width:1px;"/>
                        <path d="M629.678,154.791l0,20" style="fill:none;stroke:rgb(85,171,38);stroke-width:1px;"/>
                        <path d="M649.678,154.791l0,20" style="fill:none;stroke:rgb(85,171,38);stroke-width:1px;"/>
                        <path d="M669.678,154.791l0,20" style="fill:none;stroke:rgb(85,171,38);stroke-width:1px;"/>
                        <path d="M689.678,154.791l0,20" style="fill:none;stroke:rgb(85,171,38);stroke-width:1px;"/>
                        <path d="M709.678,154.791l0,20" style="fill:none;stroke:rgb(85,171,38);stroke-width:1px;"/>
                        <path d="M729.678,154.791l0,20" style="fill:none;stroke:rgb(85,171,38);stroke-width:1px;"/>
                        <path d="M749.678,154.791l0,20" style="fill:none;stroke:rgb(85,171,38);stroke-width:1px;"/>
                        <path d="M769.678,154.791l0,20" style="fill:none;stroke:rgb(85,171,38);stroke-width:1px;"/>
                        <path d="M789.678,154.791l0,20" style="fill:none;stroke:rgb(85,171,38);stroke-width:1px;"/>
                    </g>
                    <rect x="489.678" y="142.791" width="320" height="10" style="fill:rgb(198,228,246);stroke:rgb(93,179,230);stroke-width:1px;"/>
                    <rect x="489.678" y="176.791" width="320" height="10" style="fill:rgb(166,205,210);stroke:rgb(0,112,127);stroke-width:1px;"/>
                </g>
            </g>
            <rect x="425.678" y="90.791" width="60" height="96" style="fill:rgb(255,220,127);stroke:rgb(255,202,58);stroke-width:1px;"/>
            <rect x="57.678" y="90.791" width="40" height="96" style="fill:rgb(168,184,200);stroke:rgb(5,52,97);stroke-width:1px;"/>
            <rect x="813.678" y="90.791" width="30" height="96" style="fill:rgb(241,166,190);stroke:rgb(214,0,68);stroke-width:1px;"/>
        </g>
        <path d="M97.183,52.46l-0,10.182l-0.93,-0l0,-9.208l-0.06,0l-2.386,1.586l0,-0.964l2.406,-1.596l0.97,-0Z" style="fill-rule:nonzero;"/>
        <path d="M103.487,62.781c-0.421,-0.004 -0.832,-0.089 -1.233,-0.256c-0.401,-0.168 -0.763,-0.438 -1.084,-0.811c-0.322,-0.372 -0.577,-0.866 -0.766,-1.479c-0.189,-0.613 -0.283,-1.367 -0.283,-2.262c-0,-0.828 0.073,-1.587 0.219,-2.277c0.146,-0.689 0.364,-1.286 0.656,-1.789c0.292,-0.504 0.656,-0.895 1.094,-1.171c0.437,-0.277 0.949,-0.415 1.536,-0.415c0.55,-0 1.036,0.113 1.457,0.34c0.421,0.227 0.762,0.543 1.024,0.947c0.262,0.405 0.426,0.87 0.492,1.397l-0.915,0c-0.093,-0.537 -0.313,-0.979 -0.661,-1.327c-0.348,-0.348 -0.814,-0.522 -1.397,-0.522c-0.835,-0 -1.482,0.387 -1.939,1.161c-0.457,0.774 -0.688,1.871 -0.691,3.293l0.065,0c0.162,-0.301 0.372,-0.562 0.628,-0.783c0.257,-0.22 0.55,-0.392 0.878,-0.517c0.328,-0.124 0.673,-0.186 1.034,-0.186c0.567,-0 1.086,0.143 1.556,0.43c0.471,0.287 0.847,0.679 1.129,1.178c0.281,0.499 0.422,1.068 0.422,1.708c0,0.606 -0.133,1.165 -0.4,1.675c-0.267,0.511 -0.641,0.917 -1.123,1.218c-0.483,0.302 -1.049,0.451 -1.698,0.448Zm-0,-0.835c0.444,-0 0.841,-0.113 1.19,-0.339c0.35,-0.225 0.626,-0.527 0.828,-0.907c0.202,-0.379 0.303,-0.799 0.303,-1.26c0,-0.461 -0.101,-0.878 -0.303,-1.253c-0.202,-0.374 -0.478,-0.673 -0.828,-0.895c-0.349,-0.222 -0.746,-0.333 -1.19,-0.333c-0.338,0 -0.653,0.069 -0.945,0.206c-0.292,0.138 -0.544,0.325 -0.758,0.562c-0.214,0.237 -0.376,0.508 -0.487,0.813c-0.111,0.305 -0.154,0.625 -0.127,0.96c0.036,0.467 0.158,0.885 0.365,1.255c0.208,0.369 0.479,0.66 0.816,0.872c0.336,0.213 0.715,0.319 1.136,0.319Z" style="fill-rule:nonzero;"/>
        <path d="M114.484,62.642l-2.307,-7.637l0.935,0l1.809,6.299l0.065,0l1.805,-6.299l0.939,0l1.79,6.284l0.07,0l1.809,-6.284l0.935,0l-2.307,7.637l-0.915,-0l-1.809,-6.26l-0.095,0l-1.809,6.26l-0.915,-0Z" style="fill-rule:nonzero;"/>
        <path d="M124.069,62.642l0,-7.637l0.89,0l0,7.637l-0.89,-0Zm0.453,-8.949c-0.183,-0 -0.339,-0.062 -0.468,-0.187c-0.129,-0.124 -0.194,-0.274 -0.194,-0.45c0,-0.175 0.065,-0.325 0.194,-0.45c0.129,-0.124 0.285,-0.186 0.468,-0.186c0.182,-0 0.338,0.062 0.467,0.186c0.129,0.125 0.194,0.275 0.194,0.45c-0,0.176 -0.065,0.326 -0.194,0.45c-0.129,0.125 -0.285,0.187 -0.467,0.187Z" style="fill-rule:nonzero;"/>
        <path d="M130.055,62.801c-0.627,-0 -1.175,-0.166 -1.646,-0.497c-0.47,-0.332 -0.837,-0.794 -1.101,-1.388c-0.263,-0.593 -0.395,-1.284 -0.395,-2.073c-0,-0.785 0.132,-1.474 0.395,-2.065c0.264,-0.592 0.632,-1.053 1.106,-1.383c0.474,-0.329 1.026,-0.494 1.656,-0.494c0.464,-0 0.85,0.082 1.158,0.246c0.308,0.164 0.555,0.367 0.741,0.609c0.186,0.242 0.33,0.477 0.432,0.706l0.08,-0l0,-4.002l0.89,-0l-0,10.182l-0.865,-0l-0,-1.417l-0.105,-0c-0.102,0.232 -0.248,0.469 -0.437,0.713c-0.189,0.244 -0.438,0.448 -0.748,0.614c-0.31,0.166 -0.697,0.249 -1.161,0.249Zm0.104,-0.811c0.494,0 0.915,-0.135 1.263,-0.405c0.348,-0.27 0.614,-0.643 0.798,-1.118c0.184,-0.476 0.276,-1.022 0.276,-1.639c-0,-0.609 -0.091,-1.149 -0.273,-1.618c-0.183,-0.469 -0.448,-0.837 -0.796,-1.104c-0.348,-0.266 -0.771,-0.4 -1.268,-0.4c-0.51,0 -0.94,0.139 -1.29,0.415c-0.349,0.277 -0.615,0.651 -0.795,1.121c-0.181,0.471 -0.271,1 -0.271,1.586c-0,0.594 0.091,1.129 0.273,1.606c0.182,0.477 0.448,0.856 0.798,1.136c0.35,0.28 0.778,0.42 1.285,0.42Z" style="fill-rule:nonzero;"/>
        <path d="M138.979,62.801c-0.713,-0 -1.329,-0.167 -1.85,-0.5c-0.52,-0.333 -0.922,-0.795 -1.205,-1.387c-0.284,-0.592 -0.425,-1.274 -0.425,-2.046c-0,-0.769 0.141,-1.452 0.425,-2.051c0.283,-0.598 0.676,-1.067 1.178,-1.407c0.502,-0.339 1.083,-0.509 1.743,-0.509c0.414,-0 0.813,0.075 1.198,0.226c0.384,0.151 0.73,0.381 1.036,0.691c0.307,0.31 0.55,0.699 0.729,1.168c0.179,0.469 0.268,1.024 0.268,1.663l0,0.438l-5.966,-0l0,-0.781l5.061,0c0,-0.49 -0.098,-0.932 -0.295,-1.325c-0.198,-0.392 -0.471,-0.703 -0.821,-0.932c-0.349,-0.228 -0.753,-0.343 -1.21,-0.343c-0.484,0 -0.91,0.129 -1.278,0.388c-0.368,0.259 -0.655,0.6 -0.863,1.024c-0.207,0.424 -0.312,0.888 -0.315,1.392l-0,0.468c-0,0.606 0.105,1.136 0.315,1.588c0.211,0.452 0.51,0.803 0.898,1.051c0.388,0.249 0.847,0.373 1.377,0.373c0.361,0 0.679,-0.056 0.952,-0.169c0.273,-0.112 0.504,-0.264 0.691,-0.455c0.187,-0.19 0.329,-0.4 0.425,-0.629l0.84,0.274c-0.116,0.321 -0.305,0.618 -0.569,0.89c-0.263,0.272 -0.592,0.49 -0.984,0.654c-0.393,0.164 -0.845,0.246 -1.355,0.246Z" style="fill-rule:nonzero;"/>
        <path d="M153.67,55.005c-0.056,-0.567 -0.307,-1.017 -0.751,-1.352c-0.444,-0.335 -1.002,-0.502 -1.675,-0.502c-0.474,-0 -0.891,0.081 -1.251,0.243c-0.359,0.163 -0.641,0.387 -0.845,0.674c-0.204,0.287 -0.305,0.612 -0.305,0.977c-0,0.268 0.058,0.504 0.174,0.706c0.116,0.202 0.272,0.375 0.469,0.519c0.198,0.145 0.416,0.268 0.657,0.371c0.24,0.103 0.483,0.189 0.728,0.258l1.074,0.309c0.325,0.089 0.649,0.203 0.974,0.343c0.325,0.139 0.623,0.314 0.893,0.524c0.27,0.211 0.487,0.468 0.651,0.771c0.164,0.303 0.246,0.667 0.246,1.091c0,0.544 -0.141,1.032 -0.423,1.467c-0.281,0.434 -0.686,0.778 -1.213,1.031c-0.527,0.254 -1.158,0.381 -1.894,0.381c-0.693,-0 -1.294,-0.116 -1.804,-0.346c-0.511,-0.23 -0.912,-0.549 -1.204,-0.957c-0.291,-0.408 -0.455,-0.88 -0.492,-1.417l0.955,0c0.033,0.401 0.165,0.741 0.397,1.019c0.232,0.279 0.534,0.49 0.905,0.634c0.372,0.144 0.786,0.216 1.243,0.216c0.507,0 0.959,-0.085 1.355,-0.256c0.396,-0.17 0.708,-0.409 0.935,-0.715c0.227,-0.307 0.34,-0.664 0.34,-1.072c0,-0.345 -0.089,-0.634 -0.268,-0.867c-0.179,-0.234 -0.429,-0.43 -0.749,-0.59c-0.319,-0.159 -0.69,-0.3 -1.111,-0.422l-1.218,-0.358c-0.798,-0.239 -1.418,-0.569 -1.859,-0.989c-0.441,-0.421 -0.661,-0.958 -0.661,-1.611c-0,-0.547 0.146,-1.029 0.44,-1.444c0.293,-0.416 0.691,-0.741 1.193,-0.975c0.502,-0.234 1.066,-0.35 1.693,-0.35c0.633,-0 1.193,0.116 1.68,0.348c0.487,0.232 0.874,0.551 1.161,0.957c0.287,0.406 0.44,0.867 0.46,1.384l-0.9,0Z" style="fill-rule:nonzero;"/>
        <rect x="156.951" y="52.46" width="0.93" height="10.182" style="fill-rule:nonzero;"/>
        <path d="M160.585,52.46l1.074,-0l3.694,8.869l0.09,0l3.694,-8.869l1.073,-0l0,10.182l-0.875,-0l0,-8.218l-0.079,-0l-3.435,8.218l-0.846,-0l-3.435,-8.218l-0.08,-0l0,8.218l-0.875,-0l0,-10.182Z" style="fill-rule:nonzero;"/>
        <path d="M175.898,62.642l-2.983,-0l-0,-10.182l3.162,-0c0.971,-0 1.802,0.202 2.493,0.606c0.691,0.405 1.221,0.985 1.589,1.74c0.367,0.756 0.551,1.663 0.551,2.72c0,1.067 -0.188,1.983 -0.564,2.747c-0.376,0.764 -0.923,1.349 -1.64,1.757c-0.718,0.408 -1.587,0.612 -2.608,0.612Zm-2.053,-0.836l1.998,0c0.875,0 1.608,-0.172 2.198,-0.517c0.59,-0.344 1.032,-0.837 1.327,-1.476c0.295,-0.64 0.443,-1.402 0.443,-2.287c-0.004,-0.878 -0.149,-1.634 -0.435,-2.267c-0.287,-0.633 -0.711,-1.119 -1.273,-1.457c-0.562,-0.338 -1.255,-0.507 -2.081,-0.507l-2.177,-0l-0,8.511Z" style="fill-rule:nonzero;"/>
        <path d="M191.563,59.723l0,-4.718l0.885,0l0,7.637l-0.885,-0l0,-1.268l-0.069,-0c-0.179,0.391 -0.463,0.717 -0.85,0.977c-0.388,0.26 -0.862,0.39 -1.422,0.39c-0.487,0 -0.92,-0.107 -1.298,-0.321c-0.378,-0.213 -0.674,-0.527 -0.89,-0.942c-0.215,-0.414 -0.323,-0.923 -0.323,-1.526l0,-4.947l0.885,0l0,4.892c0,0.597 0.176,1.077 0.527,1.44c0.351,0.362 0.802,0.544 1.352,0.544c0.345,-0 0.676,-0.083 0.995,-0.249c0.318,-0.165 0.58,-0.408 0.785,-0.728c0.206,-0.32 0.308,-0.713 0.308,-1.181Z" style="fill-rule:nonzero;"/>
        <path d="M195.67,57.869l-0,4.773l-0.885,-0l0,-7.637l0.86,0l0,1.198l0.08,0c0.179,-0.391 0.458,-0.705 0.837,-0.942c0.38,-0.237 0.85,-0.355 1.41,-0.355c0.514,-0 0.965,0.107 1.355,0.32c0.389,0.214 0.692,0.528 0.909,0.943c0.217,0.414 0.326,0.923 0.326,1.526l0,4.947l-0.885,-0l0,-4.892c0,-0.627 -0.175,-1.122 -0.524,-1.487c-0.35,-0.365 -0.818,-0.547 -1.405,-0.547c-0.401,0 -0.757,0.086 -1.069,0.259c-0.311,0.172 -0.557,0.42 -0.738,0.743c-0.181,0.323 -0.271,0.707 -0.271,1.151Z" style="fill-rule:nonzero;"/>
        <path d="M202.909,62.642l-0,-7.637l0.89,0l-0,7.637l-0.89,-0Zm0.452,-8.949c-0.182,-0 -0.338,-0.062 -0.467,-0.187c-0.13,-0.124 -0.194,-0.274 -0.194,-0.45c-0,-0.175 0.064,-0.325 0.194,-0.45c0.129,-0.124 0.285,-0.186 0.467,-0.186c0.182,-0 0.338,0.062 0.467,0.186c0.13,0.125 0.194,0.275 0.194,0.45c0,0.176 -0.064,0.326 -0.194,0.45c-0.129,0.125 -0.285,0.187 -0.467,0.187Z" style="fill-rule:nonzero;"/>
        <path d="M209.153,55.005l-0,0.771l-3.644,-0l-0,-0.771l3.644,0Zm-2.506,-1.829l0.89,-0l0,7.472c0,0.318 0.055,0.568 0.164,0.748c0.11,0.181 0.252,0.308 0.428,0.383c0.175,0.075 0.363,0.112 0.562,0.112c0.116,-0 0.215,-0.008 0.298,-0.022c0.083,-0.015 0.156,-0.031 0.219,-0.048l0.189,0.801c-0.087,0.033 -0.193,0.064 -0.319,0.092c-0.126,0.028 -0.281,0.042 -0.467,0.042c-0.325,-0 -0.637,-0.071 -0.937,-0.214c-0.3,-0.142 -0.546,-0.354 -0.738,-0.636c-0.193,-0.282 -0.289,-0.632 -0.289,-1.049l0,-7.681Z" style="fill-rule:nonzero;"/>
        <path d="M55.501,221.121l-0.81,0.228c-0.08,-0.228 -0.193,-0.435 -0.339,-0.621c-0.145,-0.186 -0.335,-0.333 -0.569,-0.442c-0.233,-0.11 -0.523,-0.165 -0.867,-0.165c-0.517,0 -0.942,0.123 -1.273,0.368c-0.331,0.246 -0.497,0.562 -0.497,0.95c-0,0.328 0.113,0.594 0.34,0.798c0.227,0.204 0.578,0.365 1.052,0.485l1.153,0.283c0.64,0.156 1.12,0.403 1.44,0.741c0.319,0.338 0.479,0.762 0.479,1.272c0,0.431 -0.119,0.814 -0.358,1.149c-0.238,0.335 -0.571,0.597 -0.996,0.788c-0.426,0.191 -0.919,0.286 -1.48,0.286c-0.745,-0 -1.36,-0.168 -1.844,-0.505c-0.484,-0.336 -0.794,-0.823 -0.93,-1.459l0.85,-0.209c0.11,0.454 0.324,0.797 0.644,1.029c0.32,0.232 0.742,0.348 1.266,0.348c0.586,0 1.055,-0.131 1.407,-0.395c0.351,-0.263 0.527,-0.594 0.527,-0.992c-0,-0.308 -0.103,-0.567 -0.309,-0.778c-0.205,-0.21 -0.517,-0.365 -0.934,-0.465l-1.248,-0.298c-0.663,-0.159 -1.154,-0.411 -1.472,-0.756c-0.318,-0.344 -0.477,-0.772 -0.477,-1.282c-0,-0.421 0.114,-0.792 0.343,-1.111c0.229,-0.32 0.543,-0.571 0.945,-0.754c0.401,-0.182 0.858,-0.273 1.372,-0.273c0.699,-0 1.258,0.158 1.678,0.475c0.419,0.316 0.721,0.751 0.907,1.305Z" style="fill-rule:nonzero;"/>
        <path d="M60.532,227.241c-0.683,-0 -1.277,-0.171 -1.782,-0.512c-0.506,-0.342 -0.898,-0.809 -1.176,-1.402c-0.278,-0.594 -0.418,-1.27 -0.418,-2.029c0,-0.765 0.142,-1.446 0.426,-2.043c0.283,-0.597 0.676,-1.065 1.18,-1.404c0.504,-0.34 1.089,-0.51 1.755,-0.51c0.511,-0 0.973,0.099 1.387,0.296c0.415,0.197 0.757,0.474 1.027,0.83c0.27,0.356 0.44,0.771 0.51,1.245l-0.895,0c-0.093,-0.43 -0.316,-0.799 -0.669,-1.106c-0.353,-0.306 -0.801,-0.46 -1.345,-0.46c-0.487,0 -0.918,0.132 -1.292,0.396c-0.375,0.263 -0.667,0.629 -0.878,1.098c-0.21,0.469 -0.316,1.012 -0.316,1.628c0,0.62 0.103,1.168 0.309,1.644c0.205,0.475 0.494,0.847 0.867,1.116c0.373,0.268 0.81,0.402 1.31,0.402c0.338,0 0.647,-0.063 0.927,-0.191c0.28,-0.128 0.516,-0.309 0.706,-0.544c0.191,-0.236 0.319,-0.516 0.386,-0.841l0.895,0c-0.067,0.461 -0.23,0.871 -0.49,1.231c-0.26,0.36 -0.597,0.642 -1.009,0.848c-0.413,0.205 -0.885,0.308 -1.415,0.308Z" style="fill-rule:nonzero;"/>
        <path d="M66.225,222.309l-0,4.773l-0.885,-0l-0,-10.182l0.885,-0l-0,3.743l0.079,0c0.179,-0.394 0.457,-0.709 0.833,-0.944c0.376,-0.235 0.853,-0.353 1.429,-0.353c0.517,-0 0.971,0.106 1.362,0.318c0.392,0.212 0.697,0.525 0.915,0.94c0.219,0.414 0.328,0.924 0.328,1.531l0,4.947l-0.89,-0l0,-4.892c0,-0.63 -0.174,-1.126 -0.524,-1.489c-0.35,-0.363 -0.821,-0.545 -1.414,-0.545c-0.408,0 -0.771,0.086 -1.089,0.259c-0.318,0.172 -0.569,0.42 -0.753,0.743c-0.184,0.323 -0.276,0.707 -0.276,1.151Z" style="fill-rule:nonzero;"/>
        <path d="M76.595,227.241c-0.712,-0 -1.329,-0.167 -1.849,-0.5c-0.52,-0.333 -0.922,-0.795 -1.206,-1.387c-0.283,-0.592 -0.425,-1.273 -0.425,-2.046c0,-0.769 0.142,-1.452 0.425,-2.051c0.284,-0.598 0.676,-1.067 1.179,-1.406c0.502,-0.34 1.083,-0.51 1.742,-0.51c0.414,-0 0.814,0.075 1.198,0.226c0.385,0.151 0.73,0.381 1.037,0.691c0.306,0.31 0.549,0.7 0.728,1.169c0.179,0.469 0.269,1.023 0.269,1.663l-0,0.437l-5.966,0l-0,-0.781l5.061,0c-0,-0.49 -0.099,-0.932 -0.296,-1.324c-0.197,-0.393 -0.471,-0.704 -0.82,-0.933c-0.35,-0.228 -0.753,-0.343 -1.211,-0.343c-0.484,0 -0.91,0.13 -1.278,0.388c-0.367,0.259 -0.655,0.6 -0.862,1.024c-0.207,0.425 -0.313,0.889 -0.316,1.392l0,0.468c0,0.606 0.105,1.136 0.316,1.588c0.21,0.452 0.509,0.803 0.897,1.052c0.388,0.248 0.847,0.372 1.377,0.372c0.362,0 0.679,-0.056 0.952,-0.169c0.274,-0.112 0.504,-0.264 0.691,-0.455c0.188,-0.19 0.329,-0.4 0.426,-0.628l0.84,0.273c-0.116,0.322 -0.306,0.618 -0.569,0.89c-0.264,0.272 -0.592,0.49 -0.985,0.654c-0.393,0.164 -0.844,0.246 -1.355,0.246Z" style="fill-rule:nonzero;"/>
        <path d="M84.386,227.241c-0.627,-0 -1.175,-0.166 -1.646,-0.497c-0.47,-0.332 -0.837,-0.794 -1.101,-1.387c-0.263,-0.594 -0.395,-1.285 -0.395,-2.074c-0,-0.785 0.132,-1.474 0.395,-2.065c0.264,-0.592 0.632,-1.053 1.106,-1.382c0.474,-0.33 1.026,-0.495 1.656,-0.495c0.464,-0 0.85,0.082 1.158,0.246c0.308,0.164 0.555,0.367 0.741,0.609c0.186,0.242 0.33,0.477 0.432,0.706l0.08,0l0,-4.002l0.89,-0l-0,10.182l-0.865,-0l-0,-1.417l-0.105,-0c-0.102,0.232 -0.248,0.47 -0.437,0.713c-0.189,0.244 -0.438,0.449 -0.748,0.614c-0.31,0.166 -0.697,0.249 -1.161,0.249Zm0.104,-0.811c0.494,0 0.915,-0.135 1.263,-0.405c0.348,-0.27 0.614,-0.643 0.798,-1.118c0.184,-0.476 0.276,-1.022 0.276,-1.639c-0,-0.609 -0.091,-1.149 -0.274,-1.618c-0.182,-0.469 -0.447,-0.837 -0.795,-1.103c-0.348,-0.267 -0.771,-0.401 -1.268,-0.401c-0.51,0 -0.94,0.139 -1.29,0.415c-0.35,0.277 -0.615,0.651 -0.795,1.122c-0.181,0.47 -0.271,0.999 -0.271,1.585c-0,0.594 0.091,1.129 0.273,1.606c0.182,0.478 0.448,0.856 0.798,1.136c0.35,0.28 0.778,0.42 1.285,0.42Z" style="fill-rule:nonzero;"/>
        <path d="M95.075,224.163l-0,-4.718l0.885,0l-0,7.637l-0.885,-0l-0,-1.268l-0.07,-0c-0.179,0.391 -0.462,0.717 -0.85,0.977c-0.388,0.26 -0.862,0.39 -1.422,0.39c-0.487,0 -0.92,-0.107 -1.297,-0.321c-0.378,-0.213 -0.675,-0.527 -0.89,-0.942c-0.216,-0.414 -0.323,-0.923 -0.323,-1.526l-0,-4.947l0.884,0l0,4.892c0,0.597 0.176,1.077 0.527,1.44c0.352,0.363 0.803,0.544 1.353,0.544c0.344,0 0.676,-0.083 0.994,-0.249c0.318,-0.165 0.58,-0.408 0.786,-0.728c0.205,-0.32 0.308,-0.713 0.308,-1.181Z" style="fill-rule:nonzero;"/>
        <rect x="98.296" y="216.9" width="0.885" height="10.182" style="fill-rule:nonzero;"/>
        <path d="M104.605,227.241c-0.712,-0 -1.329,-0.167 -1.849,-0.5c-0.52,-0.333 -0.922,-0.795 -1.206,-1.387c-0.283,-0.592 -0.425,-1.273 -0.425,-2.046c0,-0.769 0.142,-1.452 0.425,-2.051c0.284,-0.598 0.676,-1.067 1.179,-1.406c0.502,-0.34 1.083,-0.51 1.742,-0.51c0.414,-0 0.814,0.075 1.198,0.226c0.385,0.151 0.73,0.381 1.037,0.691c0.306,0.31 0.549,0.7 0.728,1.169c0.179,0.469 0.269,1.023 0.269,1.663l-0,0.437l-5.966,0l-0,-0.781l5.061,0c-0,-0.49 -0.099,-0.932 -0.296,-1.324c-0.197,-0.393 -0.471,-0.704 -0.82,-0.933c-0.35,-0.228 -0.754,-0.343 -1.211,-0.343c-0.484,0 -0.91,0.13 -1.278,0.388c-0.368,0.259 -0.655,0.6 -0.862,1.024c-0.207,0.425 -0.313,0.889 -0.316,1.392l0,0.468c0,0.606 0.105,1.136 0.316,1.588c0.21,0.452 0.509,0.803 0.897,1.052c0.388,0.248 0.847,0.372 1.377,0.372c0.362,0 0.679,-0.056 0.952,-0.169c0.274,-0.112 0.504,-0.264 0.691,-0.455c0.188,-0.19 0.329,-0.4 0.426,-0.628l0.84,0.273c-0.116,0.322 -0.306,0.618 -0.57,0.89c-0.263,0.272 -0.591,0.49 -0.984,0.654c-0.393,0.164 -0.844,0.246 -1.355,0.246Z" style="fill-rule:nonzero;"/>
        <path d="M109.647,227.082l-0,-7.637l0.86,0l-0,1.174l0.064,-0c0.153,-0.385 0.419,-0.696 0.798,-0.933c0.38,-0.237 0.81,-0.355 1.29,-0.355c0.073,-0 0.154,0.002 0.244,0.005c0.089,0.003 0.164,0.007 0.224,0.01l-0,0.9c-0.04,-0.007 -0.11,-0.017 -0.209,-0.03c-0.1,-0.013 -0.207,-0.02 -0.323,-0.02c-0.398,0 -0.752,0.084 -1.062,0.251c-0.31,0.167 -0.554,0.399 -0.733,0.694c-0.179,0.295 -0.269,0.631 -0.269,1.009l0,4.932l-0.884,-0Z" style="fill-rule:nonzero;"/>
        <g transform="matrix(1,0,0,1,-53.0333,-83.1481)">
            <g transform="matrix(14,0,0,14,456.777,308.197)">
                <rect x="0.083" y="-0.727" width="0.063" height="0.727" style="fill-rule:nonzero;"/>
            </g>
            <g transform="matrix(14,0,0,14,459.999,308.197)">
                <path d="M0.295,0.011c-0.047,0 -0.088,-0.012 -0.124,-0.036c-0.036,-0.023 -0.065,-0.056 -0.085,-0.099c-0.02,-0.042 -0.031,-0.091 -0.031,-0.146c0,-0.056 0.011,-0.105 0.031,-0.148c0.02,-0.042 0.049,-0.075 0.085,-0.099c0.036,-0.024 0.077,-0.036 0.124,-0.036c0.048,0 0.089,0.012 0.125,0.036c0.036,0.024 0.064,0.057 0.085,0.099c0.02,0.043 0.031,0.092 0.031,0.148c-0,0.055 -0.011,0.104 -0.031,0.146c-0.02,0.043 -0.049,0.076 -0.085,0.099c-0.036,0.024 -0.077,0.036 -0.125,0.036Zm0,-0.058c0.038,0 0.07,-0.01 0.097,-0.03c0.026,-0.02 0.046,-0.048 0.06,-0.081c0.013,-0.034 0.02,-0.072 0.02,-0.112c-0,-0.041 -0.007,-0.078 -0.02,-0.112c-0.014,-0.035 -0.034,-0.062 -0.06,-0.082c-0.027,-0.021 -0.059,-0.031 -0.097,-0.031c-0.037,-0 -0.069,0.01 -0.096,0.031c-0.026,0.02 -0.046,0.047 -0.06,0.082c-0.013,0.034 -0.02,0.071 -0.02,0.112c-0,0.04 0.007,0.078 0.02,0.112c0.014,0.033 0.034,0.061 0.06,0.081c0.026,0.02 0.059,0.03 0.096,0.03Z" style="fill-rule:nonzero;"/>
            </g>
            <g transform="matrix(14,0,0,14,468.272,308.197)">
                <path d="M0.297,0.011c-0.049,0 -0.092,-0.012 -0.128,-0.036c-0.036,-0.025 -0.064,-0.058 -0.084,-0.1c-0.02,-0.043 -0.03,-0.091 -0.03,-0.145c0,-0.055 0.011,-0.104 0.031,-0.146c0.02,-0.043 0.048,-0.076 0.084,-0.101c0.036,-0.024 0.078,-0.036 0.125,-0.036c0.037,0 0.07,0.007 0.1,0.021c0.029,0.014 0.054,0.034 0.073,0.06c0.019,0.025 0.031,0.055 0.036,0.088l-0.064,0c-0.006,-0.03 -0.022,-0.057 -0.047,-0.079c-0.026,-0.021 -0.058,-0.032 -0.096,-0.032c-0.035,-0 -0.066,0.009 -0.093,0.028c-0.027,0.019 -0.047,0.045 -0.062,0.078c-0.016,0.034 -0.023,0.073 -0.023,0.117c-0,0.044 0.007,0.083 0.022,0.117c0.015,0.034 0.035,0.061 0.062,0.08c0.027,0.019 0.058,0.028 0.094,0.028c0.024,0 0.046,-0.004 0.066,-0.013c0.02,-0.009 0.037,-0.022 0.05,-0.039c0.014,-0.017 0.023,-0.037 0.028,-0.06l0.064,-0c-0.005,0.033 -0.017,0.062 -0.035,0.088c-0.019,0.025 -0.043,0.046 -0.072,0.06c-0.03,0.015 -0.064,0.022 -0.101,0.022Z" style="fill-rule:nonzero;"/>
            </g>
            <g transform="matrix(14,0,0,14,476.062,308.197)">
                <path d="M0.236,0.012c-0.033,0 -0.063,-0.006 -0.09,-0.019c-0.028,-0.013 -0.049,-0.032 -0.065,-0.056c-0.016,-0.025 -0.025,-0.054 -0.025,-0.089c0,-0.027 0.006,-0.05 0.016,-0.069c0.01,-0.018 0.024,-0.033 0.043,-0.045c0.019,-0.012 0.041,-0.021 0.066,-0.028c0.026,-0.007 0.054,-0.012 0.085,-0.016c0.031,-0.004 0.056,-0.007 0.078,-0.01c0.021,-0.003 0.037,-0.007 0.048,-0.013c0.011,-0.007 0.017,-0.017 0.017,-0.03l-0,-0.013c-0,-0.037 -0.011,-0.067 -0.033,-0.088c-0.023,-0.021 -0.054,-0.032 -0.096,-0.032c-0.039,-0 -0.071,0.009 -0.096,0.026c-0.025,0.017 -0.042,0.037 -0.052,0.061l-0.06,-0.022c0.012,-0.03 0.029,-0.053 0.051,-0.071c0.022,-0.018 0.046,-0.031 0.073,-0.039c0.027,-0.008 0.055,-0.012 0.082,-0.012c0.021,0 0.043,0.003 0.066,0.008c0.022,0.006 0.043,0.015 0.063,0.028c0.019,0.014 0.035,0.032 0.047,0.056c0.012,0.024 0.018,0.054 0.018,0.091l-0,0.37l-0.063,0l-0,-0.086l-0.004,-0c-0.008,0.016 -0.019,0.031 -0.034,0.047c-0.015,0.015 -0.034,0.027 -0.056,0.037c-0.023,0.01 -0.049,0.014 -0.079,0.014Zm0.008,-0.057c0.034,-0 0.063,-0.008 0.088,-0.023c0.024,-0.015 0.043,-0.035 0.057,-0.059c0.013,-0.025 0.02,-0.052 0.02,-0.082l-0,-0.079c-0.005,0.005 -0.013,0.009 -0.024,0.012c-0.011,0.004 -0.024,0.007 -0.038,0.009c-0.014,0.003 -0.028,0.006 -0.043,0.007c-0.014,0.002 -0.027,0.004 -0.038,0.005c-0.031,0.004 -0.057,0.01 -0.079,0.018c-0.022,0.008 -0.038,0.019 -0.05,0.033c-0.012,0.014 -0.017,0.032 -0.017,0.054c-0,0.034 0.012,0.059 0.035,0.077c0.024,0.018 0.054,0.028 0.089,0.028Z" style="fill-rule:nonzero;"/>
            </g>
            <g transform="matrix(14,0,0,14,483.853,308.197)">
                <rect x="0.083" y="-0.727" width="0.063" height="0.727" style="fill-rule:nonzero;"/>
            </g>
            <g transform="matrix(14,0,0,14,491.012,308.197)">
                <path d="M0.28,0.011c-0.045,0 -0.084,-0.011 -0.118,-0.035c-0.033,-0.024 -0.06,-0.057 -0.078,-0.099c-0.019,-0.043 -0.029,-0.092 -0.029,-0.148c0,-0.056 0.01,-0.106 0.029,-0.148c0.018,-0.042 0.045,-0.075 0.079,-0.099c0.033,-0.023 0.073,-0.035 0.118,-0.035c0.033,0 0.061,0.006 0.083,0.018c0.022,0.011 0.039,0.026 0.053,0.043c0.013,0.017 0.023,0.034 0.03,0.051l0.006,-0l0,-0.286l0.064,-0l-0,0.727l-0.062,0l-0,-0.101l-0.008,-0c-0.007,0.016 -0.017,0.033 -0.031,0.051c-0.013,0.017 -0.031,0.032 -0.053,0.044c-0.022,0.011 -0.05,0.017 -0.083,0.017Zm0.007,-0.058c0.036,0 0.066,-0.009 0.09,-0.028c0.025,-0.02 0.044,-0.046 0.057,-0.08c0.014,-0.034 0.02,-0.073 0.02,-0.117c0,-0.044 -0.006,-0.082 -0.019,-0.116c-0.013,-0.033 -0.032,-0.06 -0.057,-0.079c-0.025,-0.019 -0.055,-0.028 -0.091,-0.028c-0.036,-0 -0.067,0.01 -0.092,0.029c-0.025,0.02 -0.044,0.047 -0.057,0.08c-0.013,0.034 -0.019,0.072 -0.019,0.114c-0,0.042 0.006,0.08 0.019,0.114c0.014,0.034 0.033,0.061 0.057,0.081c0.025,0.02 0.056,0.03 0.092,0.03Z" style="fill-rule:nonzero;"/>
            </g>
            <g transform="matrix(14,0,0,14,499.598,308.197)">
                <path d="M0.236,0.012c-0.033,0 -0.063,-0.006 -0.09,-0.019c-0.028,-0.013 -0.049,-0.032 -0.065,-0.056c-0.016,-0.025 -0.025,-0.054 -0.025,-0.089c0,-0.027 0.006,-0.05 0.016,-0.069c0.01,-0.018 0.024,-0.033 0.043,-0.045c0.019,-0.012 0.041,-0.021 0.066,-0.028c0.026,-0.007 0.054,-0.012 0.085,-0.016c0.031,-0.004 0.056,-0.007 0.078,-0.01c0.021,-0.003 0.037,-0.007 0.048,-0.013c0.011,-0.007 0.017,-0.017 0.017,-0.03l-0,-0.013c-0,-0.037 -0.011,-0.067 -0.033,-0.088c-0.023,-0.021 -0.054,-0.032 -0.096,-0.032c-0.039,-0 -0.071,0.009 -0.096,0.026c-0.025,0.017 -0.042,0.037 -0.052,0.061l-0.06,-0.022c0.012,-0.03 0.029,-0.053 0.051,-0.071c0.022,-0.018 0.046,-0.031 0.073,-0.039c0.027,-0.008 0.055,-0.012 0.082,-0.012c0.021,0 0.043,0.003 0.066,0.008c0.022,0.006 0.043,0.015 0.063,0.028c0.019,0.014 0.035,0.032 0.047,0.056c0.012,0.024 0.018,0.054 0.018,0.091l-0,0.37l-0.063,0l-0,-0.086l-0.004,-0c-0.008,0.016 -0.019,0.031 -0.034,0.047c-0.015,0.015 -0.034,0.027 -0.056,0.037c-0.023,0.01 -0.049,0.014 -0.079,0.014Zm0.008,-0.057c0.034,-0 0.063,-0.008 0.088,-0.023c0.024,-0.015 0.043,-0.035 0.057,-0.059c0.013,-0.025 0.02,-0.052 0.02,-0.082l-0,-0.079c-0.005,0.005 -0.013,0.009 -0.024,0.012c-0.011,0.004 -0.024,0.007 -0.038,0.009c-0.014,0.003 -0.028,0.006 -0.043,0.007c-0.014,0.002 -0.027,0.004 -0.038,0.005c-0.031,0.004 -0.057,0.01 -0.079,0.018c-0.022,0.008 -0.038,0.019 -0.05,0.033c-0.012,0.014 -0.017,0.032 -0.017,0.054c-0,0.034 0.012,0.059 0.035,0.077c0.024,0.018 0.054,0.028 0.089,0.028Z" style="fill-rule:nonzero;"/>
            </g>
            <g transform="matrix(14,0,0,14,507.388,308.197)">
                <path d="M0.298,-0.545l0,0.055l-0.26,-0l-0,-0.055l0.26,-0Zm-0.179,-0.131l0.064,-0l-0,0.534c-0,0.022 0.004,0.04 0.012,0.053c0.007,0.013 0.018,0.022 0.03,0.027c0.013,0.006 0.026,0.008 0.04,0.008c0.009,0 0.016,-0 0.022,-0.001c0.005,-0.001 0.011,-0.002 0.015,-0.004l0.014,0.058c-0.006,0.002 -0.014,0.004 -0.023,0.006c-0.009,0.002 -0.02,0.003 -0.033,0.003c-0.024,0 -0.046,-0.005 -0.067,-0.015c-0.022,-0.01 -0.039,-0.025 -0.053,-0.046c-0.014,-0.02 -0.021,-0.045 -0.021,-0.074l0,-0.549Z" style="fill-rule:nonzero;"/>
            </g>
            <g transform="matrix(14,0,0,14,512.405,308.197)">
                <path d="M0.236,0.012c-0.033,0 -0.063,-0.006 -0.09,-0.019c-0.028,-0.013 -0.049,-0.032 -0.065,-0.056c-0.016,-0.025 -0.025,-0.054 -0.025,-0.089c0,-0.027 0.006,-0.05 0.016,-0.069c0.01,-0.018 0.024,-0.033 0.043,-0.045c0.019,-0.012 0.041,-0.021 0.066,-0.028c0.026,-0.007 0.054,-0.012 0.085,-0.016c0.031,-0.004 0.056,-0.007 0.078,-0.01c0.021,-0.003 0.037,-0.007 0.048,-0.013c0.011,-0.007 0.017,-0.017 0.017,-0.03l-0,-0.013c-0,-0.037 -0.011,-0.067 -0.033,-0.088c-0.023,-0.021 -0.054,-0.032 -0.096,-0.032c-0.039,-0 -0.071,0.009 -0.096,0.026c-0.025,0.017 -0.042,0.037 -0.052,0.061l-0.06,-0.022c0.012,-0.03 0.029,-0.053 0.051,-0.071c0.022,-0.018 0.046,-0.031 0.073,-0.039c0.027,-0.008 0.055,-0.012 0.082,-0.012c0.021,0 0.043,0.003 0.066,0.008c0.022,0.006 0.043,0.015 0.063,0.028c0.019,0.014 0.035,0.032 0.047,0.056c0.012,0.024 0.018,0.054 0.018,0.091l-0,0.37l-0.063,0l-0,-0.086l-0.004,-0c-0.008,0.016 -0.019,0.031 -0.034,0.047c-0.015,0.015 -0.034,0.027 -0.056,0.037c-0.023,0.01 -0.049,0.014 -0.079,0.014Zm0.008,-0.057c0.034,-0 0.063,-0.008 0.088,-0.023c0.024,-0.015 0.043,-0.035 0.057,-0.059c0.013,-0.025 0.02,-0.052 0.02,-0.082l-0,-0.079c-0.005,0.005 -0.013,0.009 -0.024,0.012c-0.011,0.004 -0.024,0.007 -0.038,0.009c-0.014,0.003 -0.028,0.006 -0.043,0.007c-0.014,0.002 -0.027,0.004 -0.038,0.005c-0.031,0.004 -0.057,0.01 -0.079,0.018c-0.022,0.008 -0.038,0.019 -0.05,0.033c-0.012,0.014 -0.017,0.032 -0.017,0.054c-0,0.034 0.012,0.059 0.035,0.077c0.024,0.018 0.054,0.028 0.089,0.028Z" style="fill-rule:nonzero;"/>
            </g>
            <g transform="matrix(14,0,0,14,524.133,308.197)">
                <path d="M0.45,-0.426l-0.058,0.017c-0.006,-0.017 -0.014,-0.032 -0.024,-0.045c-0.011,-0.013 -0.024,-0.024 -0.041,-0.031c-0.016,-0.008 -0.037,-0.012 -0.062,-0.012c-0.037,-0 -0.067,0.009 -0.091,0.026c-0.023,0.018 -0.035,0.04 -0.035,0.068c-0,0.023 0.008,0.042 0.024,0.057c0.016,0.015 0.041,0.026 0.075,0.035l0.083,0.02c0.045,0.011 0.08,0.029 0.102,0.053c0.023,0.024 0.035,0.054 0.035,0.091c-0,0.03 -0.009,0.058 -0.026,0.082c-0.017,0.024 -0.041,0.042 -0.071,0.056c-0.03,0.014 -0.066,0.02 -0.106,0.02c-0.053,0 -0.097,-0.012 -0.131,-0.036c-0.035,-0.024 -0.057,-0.058 -0.067,-0.104l0.061,-0.015c0.008,0.033 0.023,0.057 0.046,0.074c0.023,0.016 0.053,0.025 0.09,0.025c0.042,-0 0.076,-0.01 0.101,-0.029c0.025,-0.019 0.037,-0.042 0.037,-0.071c0,-0.022 -0.007,-0.04 -0.022,-0.055c-0.014,-0.015 -0.037,-0.026 -0.066,-0.033l-0.09,-0.022c-0.047,-0.011 -0.082,-0.029 -0.105,-0.054c-0.022,-0.024 -0.034,-0.055 -0.034,-0.091c0,-0.03 0.008,-0.057 0.025,-0.08c0.016,-0.022 0.039,-0.04 0.067,-0.053c0.029,-0.013 0.062,-0.02 0.098,-0.02c0.05,0 0.09,0.011 0.12,0.034c0.03,0.023 0.052,0.054 0.065,0.093Z" style="fill-rule:nonzero;"/>
            </g>
            <g transform="matrix(14,0,0,14,531.312,308.197)">
                <path d="M0.147,-0.341l-0,0.341l-0.064,-0l0,-0.727l0.064,-0l-0,0.267l0.005,0c0.013,-0.028 0.033,-0.051 0.06,-0.067c0.027,-0.017 0.061,-0.026 0.102,-0.026c0.037,0 0.069,0.008 0.097,0.023c0.028,0.015 0.05,0.038 0.066,0.067c0.015,0.03 0.023,0.066 0.023,0.11l0,0.353l-0.064,-0l0,-0.349c0,-0.045 -0.012,-0.081 -0.037,-0.107c-0.025,-0.026 -0.059,-0.039 -0.101,-0.039c-0.029,0 -0.055,0.006 -0.078,0.019c-0.023,0.012 -0.04,0.03 -0.054,0.053c-0.013,0.023 -0.019,0.05 -0.019,0.082Z" style="fill-rule:nonzero;"/>
            </g>
            <g transform="matrix(14,0,0,14,539.48,308.197)">
                <path d="M0.236,0.012c-0.033,0 -0.063,-0.006 -0.09,-0.019c-0.028,-0.013 -0.049,-0.032 -0.065,-0.056c-0.016,-0.025 -0.025,-0.054 -0.025,-0.089c0,-0.027 0.006,-0.05 0.016,-0.069c0.01,-0.018 0.024,-0.033 0.043,-0.045c0.019,-0.012 0.041,-0.021 0.066,-0.028c0.026,-0.007 0.054,-0.012 0.085,-0.016c0.031,-0.004 0.056,-0.007 0.078,-0.01c0.021,-0.003 0.037,-0.007 0.048,-0.013c0.011,-0.007 0.017,-0.017 0.017,-0.03l-0,-0.013c-0,-0.037 -0.011,-0.067 -0.033,-0.088c-0.023,-0.021 -0.054,-0.032 -0.096,-0.032c-0.039,-0 -0.071,0.009 -0.096,0.026c-0.025,0.017 -0.042,0.037 -0.052,0.061l-0.06,-0.022c0.012,-0.03 0.029,-0.053 0.051,-0.071c0.022,-0.018 0.046,-0.031 0.073,-0.039c0.027,-0.008 0.055,-0.012 0.082,-0.012c0.021,0 0.043,0.003 0.066,0.008c0.022,0.006 0.043,0.015 0.063,0.028c0.019,0.014 0.035,0.032 0.047,0.056c0.012,0.024 0.018,0.054 0.018,0.091l-0,0.37l-0.063,0l-0,-0.086l-0.004,-0c-0.008,0.016 -0.019,0.031 -0.034,0.047c-0.015,0.015 -0.034,0.027 -0.056,0.037c-0.023,0.01 -0.049,0.014 -0.079,0.014Zm0.008,-0.057c0.034,-0 0.063,-0.008 0.088,-0.023c0.024,-0.015 0.043,-0.035 0.057,-0.059c0.013,-0.025 0.02,-0.052 0.02,-0.082l-0,-0.079c-0.005,0.005 -0.013,0.009 -0.024,0.012c-0.011,0.004 -0.024,0.007 -0.038,0.009c-0.014,0.003 -0.028,0.006 -0.043,0.007c-0.014,0.002 -0.027,0.004 -0.038,0.005c-0.031,0.004 -0.057,0.01 -0.079,0.018c-0.022,0.008 -0.038,0.019 -0.05,0.033c-0.012,0.014 -0.017,0.032 -0.017,0.054c-0,0.034 0.012,0.059 0.035,0.077c0.024,0.018 0.054,0.028 0.089,0.028Z" style="fill-rule:nonzero;"/>
            </g>
            <g transform="matrix(14,0,0,14,547.27,308.197)">
                <path d="M0.083,-0l0,-0.545l0.062,-0l-0,0.083l0.005,0c0.01,-0.027 0.029,-0.049 0.056,-0.066c0.028,-0.017 0.058,-0.026 0.093,-0.026c0.005,0 0.011,0 0.017,0.001c0.006,-0 0.012,0 0.016,0l0,0.065c-0.003,-0.001 -0.008,-0.001 -0.015,-0.002c-0.007,-0.001 -0.015,-0.002 -0.023,-0.002c-0.028,0 -0.054,0.006 -0.076,0.018c-0.022,0.012 -0.039,0.029 -0.052,0.05c-0.013,0.021 -0.019,0.045 -0.019,0.072l-0,0.352l-0.064,0Z" style="fill-rule:nonzero;"/>
            </g>
            <g transform="matrix(14,0,0,14,552.023,308.197)">
                <path d="M0.304,0.011c-0.051,0 -0.095,-0.012 -0.132,-0.035c-0.037,-0.024 -0.066,-0.057 -0.086,-0.099c-0.02,-0.043 -0.031,-0.091 -0.031,-0.147c0,-0.054 0.011,-0.103 0.031,-0.146c0.02,-0.043 0.048,-0.076 0.084,-0.101c0.036,-0.024 0.077,-0.036 0.124,-0.036c0.03,0 0.059,0.005 0.086,0.016c0.027,0.011 0.052,0.027 0.074,0.05c0.022,0.022 0.039,0.05 0.052,0.083c0.013,0.034 0.019,0.073 0.019,0.119l0,0.031l-0.426,0l0,-0.056l0.362,0c-0,-0.035 -0.007,-0.066 -0.022,-0.094c-0.014,-0.028 -0.033,-0.051 -0.058,-0.067c-0.025,-0.016 -0.054,-0.024 -0.087,-0.024c-0.034,-0 -0.065,0.009 -0.091,0.027c-0.026,0.019 -0.047,0.043 -0.061,0.073c-0.015,0.031 -0.023,0.064 -0.023,0.1l-0,0.033c-0,0.044 0.007,0.081 0.023,0.114c0.015,0.032 0.036,0.057 0.064,0.075c0.027,0.018 0.06,0.026 0.098,0.026c0.026,0 0.048,-0.004 0.068,-0.012c0.02,-0.008 0.036,-0.018 0.049,-0.032c0.014,-0.014 0.024,-0.029 0.031,-0.045l0.06,0.02c-0.009,0.022 -0.022,0.044 -0.041,0.063c-0.019,0.02 -0.042,0.035 -0.07,0.047c-0.028,0.012 -0.061,0.017 -0.097,0.017Z" style="fill-rule:nonzero;"/>
            </g>
            <g transform="matrix(14,0,0,14,486.751,322.197)">
                <path d="M0.11,-0.364c-0,-0.085 0.011,-0.165 0.032,-0.241c0.022,-0.076 0.052,-0.147 0.093,-0.213l0.057,-0c-0.017,0.028 -0.033,0.059 -0.047,0.095c-0.014,0.035 -0.027,0.073 -0.037,0.113c-0.011,0.04 -0.019,0.08 -0.024,0.122c-0.006,0.042 -0.009,0.083 -0.009,0.124c0,0.055 0.005,0.11 0.015,0.166c0.01,0.055 0.024,0.108 0.041,0.158c0.018,0.05 0.038,0.094 0.061,0.131l-0.057,-0c-0.041,-0.067 -0.071,-0.138 -0.093,-0.214c-0.021,-0.075 -0.032,-0.156 -0.032,-0.241Z" style="fill-rule:nonzero;"/>
            </g>
            <g transform="matrix(14,0,0,14,491.603,322.197)">
                <path d="M0.31,0.01c-0.03,-0 -0.059,-0.006 -0.088,-0.018c-0.029,-0.012 -0.055,-0.032 -0.077,-0.058c-0.023,-0.027 -0.042,-0.062 -0.055,-0.106c-0.014,-0.044 -0.02,-0.098 -0.02,-0.161c-0,-0.06 0.005,-0.114 0.015,-0.163c0.011,-0.049 0.026,-0.092 0.047,-0.128c0.021,-0.036 0.047,-0.064 0.078,-0.084c0.031,-0.019 0.068,-0.029 0.11,-0.029c0.039,-0 0.074,0.008 0.104,0.024c0.03,0.016 0.054,0.039 0.073,0.068c0.019,0.029 0.031,0.062 0.035,0.1l-0.065,-0c-0.007,-0.039 -0.022,-0.07 -0.047,-0.095c-0.025,-0.025 -0.058,-0.038 -0.1,-0.038c-0.06,0 -0.106,0.028 -0.139,0.083c-0.032,0.056 -0.049,0.134 -0.049,0.236l0.005,-0c0.011,-0.022 0.026,-0.041 0.045,-0.056c0.018,-0.016 0.039,-0.028 0.062,-0.037c0.024,-0.009 0.048,-0.014 0.074,-0.014c0.041,0 0.078,0.011 0.111,0.031c0.034,0.021 0.061,0.049 0.081,0.084c0.02,0.036 0.03,0.077 0.03,0.122c0,0.044 -0.009,0.084 -0.028,0.12c-0.02,0.036 -0.046,0.065 -0.081,0.087c-0.034,0.022 -0.075,0.032 -0.121,0.032Zm0,-0.06c0.032,0 0.06,-0.008 0.085,-0.024c0.025,-0.016 0.045,-0.038 0.059,-0.065c0.015,-0.027 0.022,-0.057 0.022,-0.09c-0,-0.033 -0.007,-0.062 -0.022,-0.089c-0.014,-0.027 -0.034,-0.048 -0.059,-0.064c-0.025,-0.016 -0.053,-0.024 -0.085,-0.024c-0.024,0 -0.047,0.005 -0.067,0.015c-0.021,0.01 -0.039,0.023 -0.055,0.04c-0.015,0.017 -0.026,0.036 -0.034,0.058c-0.008,0.022 -0.011,0.045 -0.009,0.069c0.002,0.033 0.011,0.063 0.026,0.089c0.014,0.027 0.034,0.047 0.058,0.063c0.024,0.015 0.051,0.022 0.081,0.022Z" style="fill-rule:nonzero;"/>
            </g>
            <g transform="matrix(14,0,0,14,500.14,322.197)">
                <path d="M0.064,-0.156l-0,-0.054l0.324,-0.517l0.04,-0l-0,0.09l-0.03,0l-0.26,0.416l-0,0.005l0.425,0l-0,0.06l-0.499,-0Zm0.339,0.156l0,-0.727l0.063,-0l0,0.727l-0.063,-0Z" style="fill-rule:nonzero;"/>
            </g>
            <g transform="matrix(14,0,0,14,508.91,322.197)">
                <path d="M0.141,-0.206l-0.001,-0.083l0.014,0l0.256,-0.256l0.08,-0l-0.252,0.252l-0.006,0.001l-0.091,0.086Zm-0.058,0.206l0,-0.727l0.064,-0l-0,0.727l-0.064,-0Zm0.34,-0l-0.221,-0.28l0.045,-0.044l0.257,0.324l-0.081,-0Z" style="fill-rule:nonzero;"/>
            </g>
            <g transform="matrix(14,0,0,14,516.263,322.197)">
                <path d="M0.097,-0l-0,-0.727l0.245,-0c0.047,-0 0.087,0.008 0.118,0.025c0.032,0.016 0.056,0.039 0.072,0.067c0.015,0.029 0.023,0.062 0.023,0.098c0,0.03 -0.005,0.056 -0.015,0.078c-0.01,0.021 -0.024,0.039 -0.041,0.052c-0.018,0.013 -0.037,0.023 -0.059,0.029l-0,0.005c0.023,0.002 0.046,0.01 0.068,0.025c0.022,0.015 0.04,0.036 0.054,0.062c0.015,0.027 0.022,0.058 0.022,0.095c-0,0.037 -0.008,0.07 -0.025,0.098c-0.016,0.029 -0.041,0.052 -0.075,0.068c-0.034,0.017 -0.076,0.025 -0.129,0.025l-0.258,-0Zm0.066,-0.06l0.192,0c0.057,0 0.098,-0.012 0.125,-0.037c0.027,-0.025 0.04,-0.056 0.04,-0.094c0,-0.027 -0.006,-0.053 -0.02,-0.075c-0.013,-0.023 -0.032,-0.041 -0.056,-0.054c-0.025,-0.013 -0.053,-0.02 -0.086,-0.02l-0.195,0l-0,0.28Zm-0,-0.339l0.185,0c0.029,0 0.054,-0.006 0.075,-0.018c0.022,-0.011 0.039,-0.028 0.051,-0.049c0.012,-0.02 0.018,-0.044 0.018,-0.071c-0,-0.039 -0.013,-0.07 -0.038,-0.094c-0.025,-0.024 -0.062,-0.037 -0.112,-0.037l-0.179,0l-0,0.269Z" style="fill-rule:nonzero;"/>
            </g>
            <g transform="matrix(14,0,0,14,525.326,322.197)">
                <path d="M0.237,-0.364c-0,0.086 -0.011,0.166 -0.032,0.242c-0.022,0.076 -0.053,0.147 -0.093,0.213l-0.058,-0c0.018,-0.028 0.033,-0.06 0.048,-0.095c0.014,-0.035 0.026,-0.073 0.037,-0.113c0.01,-0.04 0.018,-0.081 0.024,-0.123c0.006,-0.042 0.009,-0.083 0.009,-0.124c-0,-0.054 -0.005,-0.109 -0.015,-0.165c-0.01,-0.056 -0.024,-0.109 -0.042,-0.158c-0.017,-0.05 -0.038,-0.094 -0.061,-0.131l0.058,-0c0.04,0.066 0.071,0.137 0.093,0.213c0.021,0.076 0.032,0.156 0.032,0.241Z" style="fill-rule:nonzero;"/>
            </g>
        </g>
        <path d="M373.832,62.791l0,-7.637l0.86,0l0,1.174l0.08,-0c0.152,-0.395 0.407,-0.705 0.763,-0.933c0.356,-0.227 0.785,-0.34 1.285,-0.34c0.527,-0 0.96,0.123 1.3,0.37c0.34,0.247 0.594,0.586 0.763,1.017l0.065,0c0.172,-0.424 0.453,-0.761 0.843,-1.012c0.389,-0.25 0.862,-0.375 1.419,-0.375c0.709,-0 1.269,0.223 1.68,0.669c0.411,0.445 0.617,1.096 0.617,1.951l-0,5.116l-0.885,-0l-0,-5.116c-0,-0.603 -0.154,-1.056 -0.462,-1.357c-0.309,-0.302 -0.715,-0.453 -1.219,-0.453c-0.583,0 -1.032,0.179 -1.347,0.537c-0.315,0.358 -0.472,0.812 -0.472,1.362l-0,5.027l-0.905,-0l0,-5.196c0,-0.517 -0.144,-0.934 -0.432,-1.252c-0.289,-0.319 -0.695,-0.478 -1.219,-0.478c-0.351,0 -0.667,0.086 -0.947,0.259c-0.28,0.172 -0.5,0.412 -0.661,0.718c-0.161,0.307 -0.241,0.659 -0.241,1.057l0,4.892l-0.885,-0Z" style="fill-rule:nonzero;"/>
        <path d="M387.976,62.965c-0.46,-0 -0.881,-0.091 -1.263,-0.271c-0.381,-0.181 -0.684,-0.443 -0.909,-0.786c-0.226,-0.343 -0.338,-0.76 -0.338,-1.25c-0,-0.378 0.071,-0.696 0.213,-0.955c0.143,-0.258 0.345,-0.47 0.607,-0.636c0.262,-0.166 0.572,-0.297 0.93,-0.393c0.358,-0.096 0.752,-0.17 1.183,-0.223c0.427,-0.053 0.79,-0.1 1.086,-0.14c0.297,-0.039 0.523,-0.102 0.679,-0.189c0.156,-0.086 0.233,-0.225 0.233,-0.417l0,-0.179c0,-0.521 -0.155,-0.931 -0.464,-1.231c-0.31,-0.3 -0.755,-0.45 -1.335,-0.45c-0.55,0 -0.999,0.121 -1.345,0.363c-0.346,0.242 -0.589,0.527 -0.728,0.855l-0.841,-0.303c0.173,-0.417 0.411,-0.751 0.716,-1.002c0.305,-0.25 0.647,-0.43 1.024,-0.541c0.378,-0.112 0.761,-0.167 1.149,-0.167c0.292,-0 0.596,0.038 0.912,0.114c0.317,0.077 0.611,0.208 0.883,0.396c0.271,0.187 0.492,0.447 0.661,0.78c0.169,0.333 0.253,0.755 0.253,1.265l0,5.186l-0.885,-0l0,-1.208l-0.054,-0c-0.106,0.225 -0.264,0.444 -0.473,0.656c-0.208,0.212 -0.47,0.386 -0.785,0.522c-0.315,0.136 -0.684,0.204 -1.109,0.204Zm0.12,-0.811c0.47,0 0.878,-0.104 1.223,-0.313c0.344,-0.209 0.61,-0.486 0.798,-0.833c0.187,-0.346 0.28,-0.728 0.28,-1.146l0,-1.103c-0.066,0.063 -0.176,0.119 -0.33,0.169c-0.154,0.05 -0.332,0.093 -0.532,0.132c-0.201,0.038 -0.4,0.07 -0.599,0.097c-0.199,0.026 -0.378,0.049 -0.537,0.069c-0.431,0.053 -0.799,0.136 -1.104,0.249c-0.305,0.112 -0.538,0.267 -0.701,0.465c-0.162,0.197 -0.243,0.449 -0.243,0.758c-0,0.464 0.165,0.822 0.497,1.076c0.331,0.254 0.747,0.38 1.248,0.38Z" style="fill-rule:nonzero;"/>
        <path d="M396.642,55.154l-0,0.771l-3.644,-0l-0,-0.771l3.644,0Zm-2.506,-1.829l0.89,-0l-0,7.472c-0,0.318 0.055,0.568 0.164,0.748c0.109,0.181 0.252,0.309 0.428,0.383c0.175,0.075 0.363,0.112 0.561,0.112c0.116,0 0.216,-0.007 0.299,-0.022c0.083,-0.015 0.155,-0.031 0.218,-0.048l0.189,0.801c-0.086,0.033 -0.192,0.064 -0.318,0.092c-0.126,0.028 -0.282,0.042 -0.467,0.042c-0.325,0 -0.637,-0.071 -0.937,-0.214c-0.3,-0.142 -0.546,-0.354 -0.739,-0.636c-0.192,-0.282 -0.288,-0.631 -0.288,-1.049l0,-7.681Z" style="fill-rule:nonzero;"/>
        <path d="M398.65,62.791l0,-7.637l0.86,0l0,1.174l0.065,-0c0.152,-0.385 0.418,-0.696 0.798,-0.933c0.379,-0.236 0.809,-0.355 1.29,-0.355c0.073,0 0.154,0.002 0.244,0.005c0.089,0.003 0.164,0.007 0.223,0.01l0,0.9c-0.039,-0.007 -0.109,-0.017 -0.208,-0.03c-0.1,-0.013 -0.208,-0.02 -0.324,-0.02c-0.397,0 -0.751,0.084 -1.061,0.251c-0.31,0.168 -0.554,0.399 -0.733,0.694c-0.179,0.295 -0.269,0.631 -0.269,1.009l0,4.932l-0.885,-0Z" style="fill-rule:nonzero;"/>
        <path d="M403.652,62.791l-0,-7.637l0.89,0l-0,7.637l-0.89,-0Zm0.452,-8.949c-0.182,-0 -0.338,-0.062 -0.467,-0.187c-0.129,-0.124 -0.194,-0.274 -0.194,-0.449c-0,-0.176 0.065,-0.326 0.194,-0.45c0.129,-0.125 0.285,-0.187 0.467,-0.187c0.182,0 0.338,0.062 0.467,0.187c0.13,0.124 0.194,0.274 0.194,0.45c0,0.175 -0.064,0.325 -0.194,0.449c-0.129,0.125 -0.285,0.187 -0.467,0.187Z" style="fill-rule:nonzero;"/>
        <path d="M407.435,55.154l1.969,3.257l1.969,-3.257l1.029,0l-2.456,3.819l2.456,3.818l-1.029,-0l-1.969,-3.152l-1.969,3.152l-1.024,-0l2.426,-3.818l-2.426,-3.819l1.024,0Z" style="fill-rule:nonzero;"/>
        <path d="M423.051,59.872l-0,-4.718l0.885,0l-0,7.637l-0.885,-0l-0,-1.268l-0.07,-0c-0.179,0.391 -0.462,0.717 -0.85,0.977c-0.388,0.26 -0.862,0.39 -1.422,0.39c-0.487,0 -0.92,-0.107 -1.297,-0.321c-0.378,-0.213 -0.675,-0.527 -0.89,-0.942c-0.216,-0.414 -0.323,-0.923 -0.323,-1.526l-0,-4.947l0.885,0l-0,4.892c-0,0.597 0.175,1.077 0.527,1.44c0.351,0.363 0.802,0.544 1.352,0.544c0.344,0 0.676,-0.083 0.994,-0.248c0.318,-0.166 0.58,-0.409 0.786,-0.729c0.205,-0.32 0.308,-0.713 0.308,-1.181Z" style="fill-rule:nonzero;"/>
        <path d="M427.157,58.018l0,4.773l-0.885,-0l0,-7.637l0.861,0l-0,1.199l0.079,-0c0.179,-0.392 0.458,-0.706 0.838,-0.943c0.379,-0.237 0.849,-0.355 1.409,-0.355c0.514,-0 0.966,0.107 1.355,0.321c0.389,0.213 0.693,0.527 0.91,0.942c0.217,0.414 0.325,0.923 0.325,1.526l0,4.947l-0.885,-0l0,-4.892c0,-0.627 -0.174,-1.122 -0.524,-1.487c-0.35,-0.364 -0.818,-0.547 -1.404,-0.547c-0.402,0 -0.758,0.086 -1.069,0.259c-0.312,0.172 -0.558,0.42 -0.739,0.743c-0.18,0.323 -0.271,0.707 -0.271,1.151Z" style="fill-rule:nonzero;"/>
        <path d="M434.396,62.791l0,-7.637l0.89,0l-0,7.637l-0.89,-0Zm0.452,-8.949c-0.182,-0 -0.338,-0.062 -0.467,-0.187c-0.129,-0.124 -0.194,-0.274 -0.194,-0.449c0,-0.176 0.065,-0.326 0.194,-0.45c0.129,-0.125 0.285,-0.187 0.467,-0.187c0.183,0 0.339,0.062 0.468,0.187c0.129,0.124 0.194,0.274 0.194,0.45c-0,0.175 -0.065,0.325 -0.194,0.449c-0.129,0.125 -0.285,0.187 -0.468,0.187Z" style="fill-rule:nonzero;"/>
        <path d="M440.64,55.154l0,0.771l-3.644,-0l0,-0.771l3.644,0Zm-2.505,-1.829l0.89,-0l-0,7.472c-0,0.318 0.054,0.568 0.164,0.748c0.109,0.181 0.252,0.309 0.427,0.383c0.176,0.075 0.363,0.112 0.562,0.112c0.116,0 0.215,-0.007 0.298,-0.022c0.083,-0.015 0.156,-0.031 0.219,-0.048l0.189,0.801c-0.086,0.033 -0.192,0.064 -0.318,0.092c-0.126,0.028 -0.282,0.042 -0.468,0.042c-0.324,0 -0.637,-0.071 -0.937,-0.214c-0.3,-0.142 -0.546,-0.354 -0.738,-0.636c-0.192,-0.282 -0.288,-0.631 -0.288,-1.049l-0,-7.681Z" style="fill-rule:nonzero;"/>
        <path d="M247.977,52.563l-2.789,7.637l-0.945,-0l-2.789,-7.637l0.96,0l2.267,6.469l0.069,-0l2.267,-6.469l0.96,0Z" style="fill-rule:nonzero;"/>
        <path d="M252.511,60.359c-0.713,-0 -1.329,-0.167 -1.85,-0.5c-0.52,-0.333 -0.922,-0.795 -1.205,-1.387c-0.284,-0.591 -0.425,-1.273 -0.425,-2.046c-0,-0.769 0.141,-1.452 0.425,-2.05c0.283,-0.599 0.676,-1.068 1.178,-1.407c0.502,-0.34 1.083,-0.51 1.743,-0.51c0.414,0 0.813,0.075 1.198,0.226c0.384,0.151 0.73,0.381 1.036,0.691c0.307,0.31 0.55,0.7 0.729,1.169c0.179,0.469 0.268,1.023 0.268,1.663l0,0.437l-5.966,0l0,-0.78l5.061,-0c0,-0.491 -0.098,-0.933 -0.295,-1.325c-0.198,-0.393 -0.471,-0.704 -0.821,-0.933c-0.349,-0.228 -0.753,-0.343 -1.21,-0.343c-0.484,0 -0.91,0.13 -1.278,0.388c-0.368,0.259 -0.655,0.6 -0.863,1.024c-0.207,0.425 -0.312,0.889 -0.315,1.392l-0,0.468c-0,0.606 0.105,1.136 0.315,1.588c0.211,0.453 0.51,0.803 0.898,1.052c0.388,0.248 0.847,0.373 1.377,0.373c0.361,-0 0.678,-0.057 0.952,-0.169c0.273,-0.113 0.504,-0.265 0.691,-0.455c0.187,-0.191 0.329,-0.401 0.425,-0.629l0.84,0.273c-0.116,0.322 -0.306,0.618 -0.569,0.89c-0.263,0.272 -0.592,0.49 -0.984,0.654c-0.393,0.164 -0.845,0.246 -1.355,0.246Z" style="fill-rule:nonzero;"/>
        <path d="M260.535,60.359c-0.683,-0 -1.277,-0.171 -1.782,-0.512c-0.506,-0.342 -0.898,-0.809 -1.176,-1.402c-0.278,-0.593 -0.418,-1.27 -0.418,-2.029c0,-0.765 0.142,-1.446 0.425,-2.043c0.284,-0.596 0.677,-1.065 1.181,-1.404c0.504,-0.34 1.089,-0.51 1.755,-0.51c0.511,0 0.973,0.099 1.387,0.296c0.414,0.197 0.757,0.474 1.027,0.83c0.27,0.356 0.44,0.772 0.509,1.246l-0.894,-0c-0.093,-0.431 -0.316,-0.8 -0.669,-1.107c-0.353,-0.306 -0.801,-0.46 -1.345,-0.46c-0.487,0 -0.918,0.132 -1.293,0.396c-0.374,0.263 -0.667,0.629 -0.877,1.098c-0.211,0.469 -0.316,1.012 -0.316,1.629c0,0.619 0.103,1.167 0.308,1.643c0.206,0.475 0.495,0.847 0.868,1.116c0.373,0.268 0.81,0.403 1.31,0.403c0.338,-0 0.647,-0.064 0.927,-0.192c0.28,-0.127 0.516,-0.309 0.706,-0.544c0.191,-0.236 0.319,-0.516 0.385,-0.84l0.895,-0c-0.066,0.46 -0.229,0.87 -0.489,1.23c-0.261,0.36 -0.597,0.642 -1.01,0.848c-0.412,0.205 -0.884,0.308 -1.414,0.308Z" style="fill-rule:nonzero;"/>
        <path d="M268.35,52.563l0,0.771l-3.644,0l0,-0.771l3.644,0Zm-2.505,-1.829l0.89,-0l-0,7.472c-0,0.318 0.054,0.568 0.164,0.748c0.109,0.181 0.252,0.309 0.427,0.383c0.176,0.075 0.363,0.112 0.562,0.112c0.116,0 0.215,-0.007 0.298,-0.022c0.083,-0.015 0.156,-0.031 0.219,-0.047l0.189,0.8c-0.086,0.033 -0.192,0.064 -0.318,0.092c-0.126,0.028 -0.282,0.042 -0.468,0.042c-0.324,0 -0.637,-0.071 -0.937,-0.214c-0.3,-0.142 -0.546,-0.354 -0.738,-0.636c-0.192,-0.282 -0.288,-0.631 -0.288,-1.049l-0,-7.681Z" style="fill-rule:nonzero;"/>
        <path d="M273.247,60.359c-0.659,-0 -1.242,-0.167 -1.747,-0.502c-0.506,-0.335 -0.901,-0.798 -1.186,-1.39c-0.285,-0.591 -0.427,-1.275 -0.427,-2.051c-0,-0.782 0.142,-1.47 0.427,-2.065c0.285,-0.595 0.68,-1.059 1.186,-1.392c0.505,-0.333 1.088,-0.5 1.747,-0.5c0.66,0 1.242,0.167 1.745,0.502c0.504,0.335 0.899,0.799 1.186,1.392c0.287,0.594 0.43,1.281 0.43,2.063c0,0.776 -0.142,1.46 -0.427,2.051c-0.285,0.592 -0.681,1.055 -1.186,1.39c-0.506,0.335 -1.088,0.502 -1.748,0.502Zm0,-0.81c0.531,-0 0.98,-0.143 1.348,-0.428c0.368,-0.285 0.647,-0.665 0.837,-1.139c0.191,-0.473 0.286,-0.995 0.286,-1.566c0,-0.57 -0.095,-1.093 -0.286,-1.571c-0.19,-0.477 -0.469,-0.86 -0.837,-1.148c-0.368,-0.288 -0.817,-0.433 -1.348,-0.433c-0.527,0 -0.975,0.145 -1.344,0.433c-0.37,0.288 -0.65,0.671 -0.841,1.148c-0.19,0.478 -0.286,1.001 -0.286,1.571c0,0.571 0.096,1.093 0.286,1.566c0.191,0.474 0.47,0.854 0.838,1.139c0.368,0.285 0.817,0.428 1.347,0.428Z" style="fill-rule:nonzero;"/>
        <path d="M278.552,60.2l0,-7.637l0.86,0l0,1.174l0.065,-0c0.152,-0.385 0.418,-0.695 0.798,-0.932c0.379,-0.237 0.809,-0.356 1.29,-0.356c0.073,0 0.154,0.002 0.243,0.005c0.09,0.003 0.165,0.007 0.224,0.01l0,0.9c-0.04,-0.007 -0.109,-0.017 -0.209,-0.03c-0.099,-0.013 -0.207,-0.02 -0.323,-0.02c-0.398,0 -0.751,0.084 -1.061,0.251c-0.31,0.168 -0.555,0.399 -0.734,0.694c-0.179,0.295 -0.268,0.631 -0.268,1.009l0,4.932l-0.885,-0Z" style="fill-rule:nonzero;"/>
        <path d="M287.481,60.2l0,-7.637l0.86,0l0,1.174l0.065,-0c0.152,-0.385 0.418,-0.695 0.798,-0.932c0.379,-0.237 0.809,-0.356 1.29,-0.356c0.073,0 0.154,0.002 0.243,0.005c0.09,0.003 0.164,0.007 0.224,0.01l0,0.9c-0.04,-0.007 -0.109,-0.017 -0.209,-0.03c-0.099,-0.013 -0.207,-0.02 -0.323,-0.02c-0.398,0 -0.751,0.084 -1.061,0.251c-0.31,0.168 -0.555,0.399 -0.734,0.694c-0.179,0.295 -0.268,0.631 -0.268,1.009l-0,4.932l-0.885,-0Z" style="fill-rule:nonzero;"/>
        <path d="M295.321,60.359c-0.712,-0 -1.329,-0.167 -1.849,-0.5c-0.521,-0.333 -0.922,-0.795 -1.206,-1.387c-0.283,-0.591 -0.425,-1.273 -0.425,-2.046c0,-0.769 0.142,-1.452 0.425,-2.05c0.284,-0.599 0.676,-1.068 1.178,-1.407c0.503,-0.34 1.083,-0.51 1.743,-0.51c0.414,0 0.814,0.075 1.198,0.226c0.385,0.151 0.73,0.381 1.037,0.691c0.306,0.31 0.549,0.7 0.728,1.169c0.179,0.469 0.269,1.023 0.269,1.663l-0,0.437l-5.966,0l-0,-0.78l5.061,-0c-0,-0.491 -0.099,-0.933 -0.296,-1.325c-0.197,-0.393 -0.471,-0.704 -0.82,-0.933c-0.35,-0.228 -0.754,-0.343 -1.211,-0.343c-0.484,0 -0.91,0.13 -1.278,0.388c-0.368,0.259 -0.655,0.6 -0.862,1.024c-0.207,0.425 -0.313,0.889 -0.316,1.392l0,0.468c0,0.606 0.105,1.136 0.316,1.588c0.21,0.453 0.509,0.803 0.897,1.052c0.388,0.248 0.847,0.373 1.377,0.373c0.362,-0 0.679,-0.057 0.952,-0.169c0.274,-0.113 0.504,-0.265 0.691,-0.455c0.188,-0.191 0.329,-0.401 0.425,-0.629l0.841,0.273c-0.116,0.322 -0.306,0.618 -0.57,0.89c-0.263,0.272 -0.591,0.49 -0.984,0.654c-0.393,0.164 -0.844,0.246 -1.355,0.246Z" style="fill-rule:nonzero;"/>
        <path d="M303.276,63.223c-0.521,-0 -0.976,-0.068 -1.367,-0.202c-0.392,-0.134 -0.721,-0.317 -0.99,-0.549c-0.268,-0.232 -0.477,-0.492 -0.626,-0.781l0.726,-0.477c0.109,0.192 0.256,0.381 0.44,0.567c0.184,0.185 0.424,0.34 0.721,0.462c0.296,0.123 0.662,0.184 1.096,0.184c0.676,0 1.222,-0.169 1.638,-0.507c0.416,-0.338 0.624,-0.863 0.624,-1.576l-0,-1.72l-0.08,-0c-0.102,0.232 -0.25,0.463 -0.442,0.693c-0.192,0.231 -0.443,0.422 -0.753,0.575c-0.31,0.152 -0.694,0.228 -1.151,0.228c-0.61,0 -1.151,-0.151 -1.624,-0.452c-0.472,-0.302 -0.843,-0.733 -1.113,-1.295c-0.27,-0.562 -0.405,-1.232 -0.405,-2.011c-0,-0.772 0.131,-1.452 0.395,-2.039c0.263,-0.586 0.632,-1.044 1.106,-1.372c0.474,-0.328 1.026,-0.492 1.656,-0.492c0.467,0 0.855,0.082 1.163,0.246c0.308,0.164 0.556,0.367 0.743,0.609c0.188,0.242 0.334,0.477 0.44,0.706l0.09,0l-0,-1.457l0.865,0l-0,7.836c-0,0.646 -0.138,1.178 -0.413,1.596c-0.275,0.417 -0.649,0.726 -1.123,0.927c-0.474,0.2 -1.013,0.301 -1.616,0.301Zm-0.06,-3.913c0.491,-0 0.91,-0.119 1.258,-0.356c0.348,-0.237 0.615,-0.577 0.8,-1.021c0.186,-0.444 0.279,-0.973 0.279,-1.586c-0,-0.597 -0.091,-1.126 -0.274,-1.589c-0.182,-0.462 -0.446,-0.827 -0.793,-1.093c-0.346,-0.267 -0.769,-0.401 -1.27,-0.401c-0.51,0 -0.941,0.138 -1.292,0.413c-0.352,0.275 -0.617,0.646 -0.796,1.111c-0.179,0.466 -0.268,0.985 -0.268,1.559c-0,0.583 0.091,1.098 0.273,1.544c0.182,0.445 0.449,0.793 0.8,1.044c0.352,0.25 0.779,0.375 1.283,0.375Z" style="fill-rule:nonzero;"/>
        <path d="M308.784,60.2l0,-7.637l0.89,0l0,7.637l-0.89,-0Zm0.453,-8.949c-0.183,-0 -0.338,-0.062 -0.468,-0.186c-0.129,-0.125 -0.194,-0.275 -0.194,-0.45c0,-0.176 0.065,-0.326 0.194,-0.45c0.13,-0.125 0.285,-0.187 0.468,-0.187c0.182,0 0.338,0.062 0.467,0.187c0.129,0.124 0.194,0.274 0.194,0.45c-0,0.175 -0.065,0.325 -0.194,0.45c-0.129,0.124 -0.285,0.186 -0.467,0.186Z" style="fill-rule:nonzero;"/>
        <path d="M317.151,54.239l-0.81,0.229c-0.079,-0.229 -0.192,-0.436 -0.338,-0.622c-0.146,-0.185 -0.336,-0.333 -0.569,-0.442c-0.234,-0.11 -0.523,-0.164 -0.868,-0.164c-0.517,-0 -0.941,0.122 -1.272,0.367c-0.332,0.246 -0.498,0.562 -0.498,0.95c0,0.328 0.114,0.594 0.341,0.798c0.227,0.204 0.577,0.365 1.051,0.485l1.154,0.283c0.64,0.156 1.119,0.403 1.439,0.741c0.32,0.338 0.48,0.762 0.48,1.273c-0,0.43 -0.119,0.813 -0.358,1.148c-0.239,0.335 -0.571,0.597 -0.997,0.788c-0.426,0.191 -0.919,0.286 -1.479,0.286c-0.746,-0 -1.36,-0.168 -1.844,-0.505c-0.484,-0.336 -0.794,-0.822 -0.93,-1.459l0.85,-0.209c0.109,0.454 0.324,0.797 0.644,1.029c0.32,0.232 0.741,0.348 1.265,0.348c0.587,0 1.056,-0.131 1.407,-0.395c0.351,-0.263 0.527,-0.594 0.527,-0.992c0,-0.308 -0.103,-0.567 -0.308,-0.778c-0.206,-0.21 -0.517,-0.365 -0.935,-0.465l-1.248,-0.298c-0.663,-0.159 -1.153,-0.411 -1.471,-0.755c-0.318,-0.345 -0.478,-0.773 -0.478,-1.283c0,-0.421 0.115,-0.791 0.344,-1.111c0.228,-0.32 0.543,-0.571 0.944,-0.754c0.401,-0.182 0.859,-0.273 1.372,-0.273c0.7,0 1.259,0.158 1.678,0.475c0.419,0.316 0.722,0.751 0.907,1.305Z" style="fill-rule:nonzero;"/>
        <path d="M322.208,52.563l-0,0.771l-3.645,0l0,-0.771l3.645,0Zm-2.506,-1.829l0.89,-0l-0,7.472c-0,0.318 0.055,0.568 0.164,0.748c0.109,0.181 0.252,0.309 0.427,0.383c0.176,0.075 0.363,0.112 0.562,0.112c0.116,0 0.216,-0.007 0.299,-0.022c0.082,-0.015 0.155,-0.031 0.218,-0.047l0.189,0.8c-0.086,0.033 -0.192,0.064 -0.318,0.092c-0.126,0.028 -0.282,0.042 -0.467,0.042c-0.325,0 -0.637,-0.071 -0.937,-0.214c-0.3,-0.142 -0.546,-0.354 -0.739,-0.636c-0.192,-0.282 -0.288,-0.631 -0.288,-1.049l-0,-7.681Z" style="fill-rule:nonzero;"/>
        <path d="M327.224,60.359c-0.713,-0 -1.329,-0.167 -1.849,-0.5c-0.521,-0.333 -0.923,-0.795 -1.206,-1.387c-0.283,-0.591 -0.425,-1.273 -0.425,-2.046c-0,-0.769 0.142,-1.452 0.425,-2.05c0.283,-0.599 0.676,-1.068 1.178,-1.407c0.502,-0.34 1.083,-0.51 1.743,-0.51c0.414,0 0.813,0.075 1.198,0.226c0.384,0.151 0.73,0.381 1.036,0.691c0.307,0.31 0.55,0.7 0.729,1.169c0.179,0.469 0.268,1.023 0.268,1.663l0,0.437l-5.966,0l0,-0.78l5.061,-0c0,-0.491 -0.098,-0.933 -0.295,-1.325c-0.198,-0.393 -0.471,-0.704 -0.821,-0.933c-0.349,-0.228 -0.753,-0.343 -1.21,-0.343c-0.484,0 -0.91,0.13 -1.278,0.388c-0.368,0.259 -0.655,0.6 -0.863,1.024c-0.207,0.425 -0.312,0.889 -0.315,1.392l-0,0.468c-0,0.606 0.105,1.136 0.315,1.588c0.211,0.453 0.51,0.803 0.898,1.052c0.388,0.248 0.847,0.373 1.377,0.373c0.361,-0 0.679,-0.057 0.952,-0.169c0.273,-0.113 0.504,-0.265 0.691,-0.455c0.187,-0.191 0.329,-0.401 0.425,-0.629l0.84,0.273c-0.116,0.322 -0.305,0.618 -0.569,0.89c-0.263,0.272 -0.592,0.49 -0.984,0.654c-0.393,0.164 -0.845,0.246 -1.355,0.246Z" style="fill-rule:nonzero;"/>
        <path d="M332.265,60.2l0,-7.637l0.86,0l0,1.174l0.065,-0c0.152,-0.385 0.418,-0.695 0.798,-0.932c0.379,-0.237 0.809,-0.356 1.29,-0.356c0.073,0 0.154,0.002 0.244,0.005c0.089,0.003 0.164,0.007 0.223,0.01l0,0.9c-0.04,-0.007 -0.109,-0.017 -0.209,-0.03c-0.099,-0.013 -0.207,-0.02 -0.323,-0.02c-0.397,0 -0.751,0.084 -1.061,0.251c-0.31,0.168 -0.554,0.399 -0.733,0.694c-0.179,0.295 -0.269,0.631 -0.269,1.009l0,4.932l-0.885,-0Z" style="fill-rule:nonzero;"/>
        <path d="M342.387,54.239l-0.81,0.229c-0.08,-0.229 -0.192,-0.436 -0.338,-0.622c-0.146,-0.185 -0.336,-0.333 -0.569,-0.442c-0.234,-0.11 -0.523,-0.164 -0.868,-0.164c-0.517,-0 -0.941,0.122 -1.273,0.367c-0.331,0.246 -0.497,0.562 -0.497,0.95c0,0.328 0.114,0.594 0.341,0.798c0.227,0.204 0.577,0.365 1.051,0.485l1.154,0.283c0.639,0.156 1.119,0.403 1.439,0.741c0.32,0.338 0.48,0.762 0.48,1.273c-0,0.43 -0.12,0.813 -0.358,1.148c-0.239,0.335 -0.571,0.597 -0.997,0.788c-0.426,0.191 -0.919,0.286 -1.479,0.286c-0.746,-0 -1.361,-0.168 -1.845,-0.505c-0.484,-0.336 -0.793,-0.822 -0.929,-1.459l0.85,-0.209c0.109,0.454 0.324,0.797 0.644,1.029c0.32,0.232 0.741,0.348 1.265,0.348c0.587,0 1.056,-0.131 1.407,-0.395c0.351,-0.263 0.527,-0.594 0.527,-0.992c-0,-0.308 -0.103,-0.567 -0.308,-0.778c-0.206,-0.21 -0.517,-0.365 -0.935,-0.465l-1.248,-0.298c-0.663,-0.159 -1.153,-0.411 -1.471,-0.755c-0.319,-0.345 -0.478,-0.773 -0.478,-1.283c0,-0.421 0.115,-0.791 0.343,-1.111c0.229,-0.32 0.544,-0.571 0.945,-0.754c0.401,-0.182 0.858,-0.273 1.372,-0.273c0.699,0 1.259,0.158 1.678,0.475c0.419,0.316 0.722,0.751 0.907,1.305Z" style="fill-rule:nonzero;"/>
        <rect x="150.178" y="109.791" width="3" height="3"/>
        <path d="M151.678,110.391l0,-43.406" style="fill:none;stroke:black;stroke-width:1px;"/>
        <rect x="76.178" y="175.667" width="3" height="3"/>
        <path d="M77.678,178.067l0,36.996" style="fill:none;stroke:black;stroke-width:1px;"/>
        <rect x="454.178" y="176.925" width="3" height="3"/>
        <path d="M455.678,179.325l0,33.466" style="fill:none;stroke:black;stroke-width:1px;"/>
        <g transform="matrix(1,0,0,1,319.967,-84.4064)">
            <g transform="matrix(14,0,0,14,479.923,308.197)">
                <path d="M0.097,-0l-0,-0.727l0.066,-0l-0,0.667l0.347,0l-0,0.06l-0.413,-0Z" style="fill-rule:nonzero;"/>
            </g>
            <g transform="matrix(14,0,0,14,487.161,308.197)">
                <path d="M0.305,-0.727l0,0.727l-0.066,-0l-0,-0.658l-0.004,0l-0.171,0.114l0,-0.069l0.172,-0.114l0.069,-0Z" style="fill-rule:nonzero;"/>
            </g>
            <g transform="matrix(14,0,0,14,497.338,308.197)">
                <path d="M0.297,0.011c-0.049,0 -0.092,-0.012 -0.128,-0.036c-0.036,-0.025 -0.064,-0.058 -0.084,-0.1c-0.02,-0.043 -0.03,-0.091 -0.03,-0.145c0,-0.055 0.011,-0.104 0.031,-0.146c0.02,-0.043 0.048,-0.076 0.084,-0.101c0.036,-0.024 0.078,-0.036 0.125,-0.036c0.037,0 0.07,0.007 0.1,0.021c0.029,0.014 0.054,0.034 0.073,0.06c0.019,0.025 0.031,0.055 0.036,0.088l-0.064,0c-0.006,-0.03 -0.022,-0.057 -0.047,-0.079c-0.026,-0.021 -0.058,-0.032 -0.096,-0.032c-0.035,-0 -0.066,0.009 -0.093,0.028c-0.027,0.019 -0.047,0.045 -0.062,0.078c-0.016,0.034 -0.023,0.073 -0.023,0.117c-0,0.044 0.007,0.083 0.022,0.117c0.015,0.034 0.035,0.061 0.062,0.08c0.027,0.019 0.058,0.028 0.094,0.028c0.024,0 0.046,-0.004 0.066,-0.013c0.02,-0.009 0.037,-0.022 0.05,-0.039c0.014,-0.017 0.023,-0.037 0.028,-0.06l0.064,-0c-0.005,0.033 -0.017,0.062 -0.035,0.088c-0.019,0.025 -0.043,0.046 -0.072,0.06c-0.03,0.015 -0.064,0.022 -0.101,0.022Z" style="fill-rule:nonzero;"/>
            </g>
            <g transform="matrix(14,0,0,14,505.129,308.197)">
                <path d="M0.236,0.012c-0.033,0 -0.063,-0.006 -0.09,-0.019c-0.028,-0.013 -0.049,-0.032 -0.065,-0.056c-0.016,-0.025 -0.025,-0.054 -0.025,-0.089c0,-0.027 0.006,-0.05 0.016,-0.069c0.01,-0.018 0.024,-0.033 0.043,-0.045c0.019,-0.012 0.041,-0.021 0.066,-0.028c0.026,-0.007 0.054,-0.012 0.085,-0.016c0.031,-0.004 0.056,-0.007 0.078,-0.01c0.021,-0.003 0.037,-0.007 0.048,-0.013c0.011,-0.007 0.017,-0.017 0.017,-0.03l-0,-0.013c-0,-0.037 -0.011,-0.067 -0.033,-0.088c-0.023,-0.021 -0.054,-0.032 -0.096,-0.032c-0.039,-0 -0.071,0.009 -0.096,0.026c-0.025,0.017 -0.042,0.037 -0.052,0.061l-0.06,-0.022c0.012,-0.03 0.029,-0.053 0.051,-0.071c0.022,-0.018 0.046,-0.031 0.073,-0.039c0.027,-0.008 0.055,-0.012 0.082,-0.012c0.021,0 0.043,0.003 0.066,0.008c0.022,0.006 0.043,0.015 0.063,0.028c0.019,0.014 0.035,0.032 0.047,0.056c0.012,0.024 0.018,0.054 0.018,0.091l-0,0.37l-0.063,0l-0,-0.086l-0.004,-0c-0.008,0.016 -0.019,0.031 -0.034,0.047c-0.015,0.015 -0.034,0.027 -0.056,0.037c-0.023,0.01 -0.049,0.014 -0.079,0.014Zm0.008,-0.057c0.034,-0 0.063,-0.008 0.088,-0.023c0.024,-0.015 0.043,-0.035 0.057,-0.059c0.013,-0.025 0.02,-0.052 0.02,-0.082l-0,-0.079c-0.005,0.005 -0.013,0.009 -0.024,0.012c-0.011,0.004 -0.024,0.007 -0.038,0.009c-0.014,0.003 -0.028,0.006 -0.043,0.007c-0.014,0.002 -0.027,0.004 -0.038,0.005c-0.031,0.004 -0.057,0.01 -0.079,0.018c-0.022,0.008 -0.038,0.019 -0.05,0.033c-0.012,0.014 -0.017,0.032 -0.017,0.054c-0,0.034 0.012,0.059 0.035,0.077c0.024,0.018 0.054,0.028 0.089,0.028Z" style="fill-rule:nonzero;"/>
            </g>
            <g transform="matrix(14,0,0,14,512.919,308.197)">
                <path d="M0.297,0.011c-0.049,0 -0.092,-0.012 -0.128,-0.036c-0.036,-0.025 -0.064,-0.058 -0.084,-0.1c-0.02,-0.043 -0.03,-0.091 -0.03,-0.145c0,-0.055 0.011,-0.104 0.031,-0.146c0.02,-0.043 0.048,-0.076 0.084,-0.101c0.036,-0.024 0.078,-0.036 0.125,-0.036c0.037,0 0.07,0.007 0.1,0.021c0.029,0.014 0.054,0.034 0.073,0.06c0.019,0.025 0.031,0.055 0.036,0.088l-0.064,0c-0.006,-0.03 -0.022,-0.057 -0.047,-0.079c-0.026,-0.021 -0.058,-0.032 -0.096,-0.032c-0.035,-0 -0.066,0.009 -0.093,0.028c-0.027,0.019 -0.047,0.045 -0.062,0.078c-0.016,0.034 -0.023,0.073 -0.023,0.117c-0,0.044 0.007,0.083 0.022,0.117c0.015,0.034 0.035,0.061 0.062,0.08c0.027,0.019 0.058,0.028 0.094,0.028c0.024,0 0.046,-0.004 0.066,-0.013c0.02,-0.009 0.037,-0.022 0.05,-0.039c0.014,-0.017 0.023,-0.037 0.028,-0.06l0.064,-0c-0.005,0.033 -0.017,0.062 -0.035,0.088c-0.019,0.025 -0.043,0.046 -0.072,0.06c-0.03,0.015 -0.064,0.022 -0.101,0.022Z" style="fill-rule:nonzero;"/>
            </g>
            <g transform="matrix(14,0,0,14,520.71,308.197)">
                <path d="M0.147,-0.341l-0,0.341l-0.064,-0l0,-0.727l0.064,-0l-0,0.267l0.005,0c0.013,-0.028 0.033,-0.051 0.06,-0.067c0.027,-0.017 0.061,-0.026 0.102,-0.026c0.037,0 0.069,0.008 0.097,0.023c0.028,0.015 0.05,0.038 0.066,0.067c0.015,0.03 0.023,0.066 0.023,0.11l0,0.353l-0.064,-0l0,-0.349c0,-0.045 -0.012,-0.081 -0.037,-0.107c-0.025,-0.026 -0.059,-0.039 -0.101,-0.039c-0.029,0 -0.055,0.006 -0.078,0.019c-0.023,0.012 -0.04,0.03 -0.054,0.053c-0.013,0.023 -0.019,0.05 -0.019,0.082Z" style="fill-rule:nonzero;"/>
            </g>
            <g transform="matrix(14,0,0,14,528.878,308.197)">
                <path d="M0.304,0.011c-0.051,0 -0.095,-0.012 -0.132,-0.035c-0.037,-0.024 -0.066,-0.057 -0.086,-0.099c-0.02,-0.043 -0.031,-0.091 -0.031,-0.147c0,-0.054 0.011,-0.103 0.031,-0.146c0.02,-0.043 0.048,-0.076 0.084,-0.101c0.036,-0.024 0.077,-0.036 0.124,-0.036c0.03,0 0.059,0.005 0.086,0.016c0.027,0.011 0.052,0.027 0.074,0.05c0.022,0.022 0.039,0.05 0.052,0.083c0.013,0.034 0.019,0.073 0.019,0.119l0,0.031l-0.426,0l0,-0.056l0.362,0c-0,-0.035 -0.007,-0.066 -0.022,-0.094c-0.014,-0.028 -0.033,-0.051 -0.058,-0.067c-0.025,-0.016 -0.054,-0.024 -0.087,-0.024c-0.034,-0 -0.065,0.009 -0.091,0.027c-0.026,0.019 -0.047,0.043 -0.061,0.073c-0.015,0.031 -0.023,0.064 -0.023,0.1l-0,0.033c-0,0.044 0.007,0.081 0.023,0.114c0.015,0.032 0.036,0.057 0.064,0.075c0.027,0.018 0.06,0.026 0.098,0.026c0.026,0 0.048,-0.004 0.068,-0.012c0.02,-0.008 0.036,-0.018 0.049,-0.032c0.014,-0.014 0.024,-0.029 0.031,-0.045l0.06,0.02c-0.009,0.022 -0.022,0.044 -0.041,0.063c-0.019,0.02 -0.042,0.035 -0.07,0.047c-0.028,0.012 -0.061,0.017 -0.097,0.017Z" style="fill-rule:nonzero;"/>
            </g>
            <g transform="matrix(14,0,0,14,486.048,322.197)">
                <path d="M0.11,-0.364c-0,-0.085 0.011,-0.165 0.032,-0.241c0.022,-0.076 0.052,-0.147 0.093,-0.213l0.057,-0c-0.017,0.028 -0.033,0.059 -0.047,0.095c-0.014,0.035 -0.027,0.073 -0.037,0.113c-0.011,0.04 -0.019,0.08 -0.024,0.122c-0.006,0.042 -0.009,0.083 -0.009,0.124c0,0.055 0.005,0.11 0.015,0.166c0.01,0.055 0.024,0.108 0.041,0.158c0.018,0.05 0.038,0.094 0.061,0.131l-0.057,-0c-0.041,-0.067 -0.071,-0.138 -0.093,-0.214c-0.021,-0.075 -0.032,-0.156 -0.032,-0.241Z" style="fill-rule:nonzero;"/>
            </g>
            <g transform="matrix(14,0,0,14,490.9,322.197)">
                <path d="M0.305,-0.727l0,0.727l-0.066,-0l-0,-0.658l-0.004,0l-0.171,0.114l0,-0.069l0.172,-0.114l0.069,-0Z" style="fill-rule:nonzero;"/>
            </g>
            <g transform="matrix(14,0,0,14,497.139,322.197)">
                <path d="M0.31,0.01c-0.03,-0 -0.059,-0.006 -0.088,-0.018c-0.029,-0.012 -0.055,-0.032 -0.077,-0.058c-0.023,-0.027 -0.042,-0.062 -0.055,-0.106c-0.014,-0.044 -0.02,-0.098 -0.02,-0.161c-0,-0.06 0.005,-0.114 0.015,-0.163c0.011,-0.049 0.026,-0.092 0.047,-0.128c0.021,-0.036 0.047,-0.064 0.078,-0.084c0.031,-0.019 0.068,-0.029 0.11,-0.029c0.039,-0 0.074,0.008 0.104,0.024c0.03,0.016 0.054,0.039 0.073,0.068c0.019,0.029 0.031,0.062 0.035,0.1l-0.065,-0c-0.007,-0.039 -0.022,-0.07 -0.047,-0.095c-0.025,-0.025 -0.058,-0.038 -0.1,-0.038c-0.06,0 -0.106,0.028 -0.139,0.083c-0.032,0.056 -0.049,0.134 -0.049,0.236l0.005,-0c0.011,-0.022 0.026,-0.041 0.045,-0.056c0.018,-0.016 0.039,-0.028 0.062,-0.037c0.024,-0.009 0.048,-0.014 0.074,-0.014c0.041,0 0.078,0.011 0.111,0.031c0.034,0.021 0.061,0.049 0.081,0.084c0.02,0.036 0.03,0.077 0.03,0.122c0,0.044 -0.009,0.084 -0.028,0.12c-0.02,0.036 -0.046,0.065 -0.081,0.087c-0.034,0.022 -0.075,0.032 -0.121,0.032Zm0,-0.06c0.032,0 0.06,-0.008 0.085,-0.024c0.025,-0.016 0.045,-0.038 0.059,-0.065c0.015,-0.027 0.022,-0.057 0.022,-0.09c-0,-0.033 -0.007,-0.062 -0.022,-0.089c-0.014,-0.027 -0.034,-0.048 -0.059,-0.064c-0.025,-0.016 -0.053,-0.024 -0.085,-0.024c-0.024,0 -0.047,0.005 -0.067,0.015c-0.021,0.01 -0.039,0.023 -0.055,0.04c-0.015,0.017 -0.026,0.036 -0.034,0.058c-0.008,0.022 -0.011,0.045 -0.009,0.069c0.002,0.033 0.011,0.063 0.026,0.089c0.014,0.027 0.034,0.047 0.058,0.063c0.024,0.015 0.051,0.022 0.081,0.022Z" style="fill-rule:nonzero;"/>
            </g>
            <g transform="matrix(14,0,0,14,509.613,322.197)">
                <path d="M0.141,-0.206l-0.001,-0.083l0.014,0l0.256,-0.256l0.08,-0l-0.252,0.252l-0.006,0.001l-0.091,0.086Zm-0.058,0.206l0,-0.727l0.064,-0l-0,0.727l-0.064,-0Zm0.34,-0l-0.221,-0.28l0.045,-0.044l0.257,0.324l-0.081,-0Z" style="fill-rule:nonzero;"/>
            </g>
            <g transform="matrix(14,0,0,14,516.966,322.197)">
                <path d="M0.097,-0l-0,-0.727l0.245,-0c0.047,-0 0.087,0.008 0.118,0.025c0.032,0.016 0.056,0.039 0.072,0.067c0.015,0.029 0.023,0.062 0.023,0.098c0,0.03 -0.005,0.056 -0.015,0.078c-0.01,0.021 -0.024,0.039 -0.041,0.052c-0.018,0.013 -0.037,0.023 -0.059,0.029l-0,0.005c0.023,0.002 0.046,0.01 0.068,0.025c0.022,0.015 0.04,0.036 0.054,0.062c0.015,0.027 0.022,0.058 0.022,0.095c-0,0.037 -0.008,0.07 -0.025,0.098c-0.016,0.029 -0.041,0.052 -0.075,0.068c-0.034,0.017 -0.076,0.025 -0.129,0.025l-0.258,-0Zm0.066,-0.06l0.192,0c0.057,0 0.098,-0.012 0.125,-0.037c0.027,-0.025 0.04,-0.056 0.04,-0.094c0,-0.027 -0.006,-0.053 -0.02,-0.075c-0.013,-0.023 -0.032,-0.041 -0.056,-0.054c-0.025,-0.013 -0.053,-0.02 -0.086,-0.02l-0.195,0l-0,0.28Zm-0,-0.339l0.185,0c0.029,0 0.054,-0.006 0.075,-0.018c0.022,-0.011 0.039,-0.028 0.051,-0.049c0.012,-0.02 0.018,-0.044 0.018,-0.071c-0,-0.039 -0.013,-0.07 -0.038,-0.094c-0.025,-0.024 -0.062,-0.037 -0.112,-0.037l-0.179,0l-0,0.269Z" style="fill-rule:nonzero;"/>
            </g>
            <g transform="matrix(14,0,0,14,526.029,322.197)">
                <path d="M0.237,-0.364c-0,0.086 -0.011,0.166 -0.032,0.242c-0.022,0.076 -0.053,0.147 -0.093,0.213l-0.058,-0c0.018,-0.028 0.033,-0.06 0.048,-0.095c0.014,-0.035 0.026,-0.073 0.037,-0.113c0.01,-0.04 0.018,-0.081 0.024,-0.123c0.006,-0.042 0.009,-0.083 0.009,-0.124c-0,-0.054 -0.005,-0.109 -0.015,-0.165c-0.01,-0.056 -0.024,-0.109 -0.042,-0.158c-0.017,-0.05 -0.038,-0.094 -0.061,-0.131l0.058,-0c0.04,0.066 0.071,0.137 0.093,0.213c0.021,0.076 0.032,0.156 0.032,0.241Z" style="fill-rule:nonzero;"/>
            </g>
        </g>
        <rect x="827.178" y="175.667" width="3" height="3"/>
        <path d="M828.678,178.067l0,33.465" style="fill:none;stroke:black;stroke-width:1px;"/>
        <rect x="405.902" y="94.046" width="3" height="3"/>
        <path d="M407.402,94.646l-0,-27.661" style="fill:none;stroke:black;stroke-width:1px;"/>
        <rect x="290.178" y="126.791" width="3" height="3"/>
        <path d="M291.678,127.391l0,-60.406" style="fill:none;stroke:black;stroke-width:1px;"/>
    </g>
</svg>
