<svg viewBox="0 0 1017 1017" xmlns="http://www.w3.org/2000/svg" fill-rule="evenodd" clip-rule="evenodd" stroke-linejoin="round" stroke-miterlimit="2"><path fill="#5cbf93" d="M216.21 216.21h80v80h-80z"/><path fill="#ffd678" d="M306.21 216.21h80v80h-80zM396.21 216.21h80v80h-80zM396.21 306.21h80v80h-80zM486.21 306.21h80v80h-80zM486.21 396.21h80v80h-80zM486.21 216.21h80v80h-80zM396.21 486.21h80v80h-80zM306.21 486.21h80v80h-80zM306.21 396.21h80v80h-80zM216.21 396.21h80v80h-80zM216.21 306.21h80v80h-80zM216.21 486.21h80v80h-80z"/><path fill="#5cbf93" d="M306.21 306.21h80v80h-80zM396.21 396.21h80v80h-80zM486.21 486.21h80v80h-80z"/><path d="M242.6 270.72V237.6h-9.35v2.16h6.81v30.96h2.55zM275.73 254.2c0-8.54-3.6-17.08-12-17.08-8.35 0-12 8.54-12 17.09 0 8.5 3.6 17.04 12 17.04s12-8.55 12-17.04zm-2.79-.09c0 8.64-3.21 14.74-9.21 14.74-6 0-9.27-6.1-9.27-14.74s3.27-14.73 9.27-14.73 9.21 6.1 9.21 14.73zM336.24 273.46v-33.12h-9.36v2.16h6.82v30.96h2.54zM368.64 273.46v-2.4h-18l9.6-9.36c1.68-1.68 7.06-6.24 7.06-12.1 0-5.9-4.42-9.74-10.42-9.74s-8.88 4.32-10.08 6.96l1.92 1.2c.96-2.16 3.36-5.85 8.16-5.85 4.8 0 7.78 3.21 7.78 7.53s-3.46 7.92-5.62 10.08l-12 11.76.48 1.92h21.12zM426.24 273.46v-33.12h-9.36v2.16h6.82v30.96h2.54zM458.64 273.46v-2.4h-18l9.6-9.36c1.68-1.68 7.06-6.24 7.06-12.1 0-5.9-4.42-9.74-10.42-9.74s-8.88 4.32-10.08 6.96l1.92 1.2c.96-2.16 3.36-5.85 8.16-5.85 4.8 0 7.78 3.21 7.78 7.53s-3.46 7.92-5.62 10.08l-12 11.76.48 1.92h21.12zM512.6 273.46v-33.12h-9.35v2.16h6.81v30.96h2.55zM545 273.46v-2.4h-18l9.6-9.36c1.69-1.68 7.06-6.24 7.06-12.1 0-5.9-4.41-9.74-10.41-9.74s-8.88 4.32-10.08 6.96l1.92 1.2c.96-2.16 3.36-5.85 8.16-5.85 4.8 0 7.77 3.21 7.77 7.53s-3.45 7.92-5.61 10.08l-12 11.76.48 1.92H545zM242.6 362.1v-33.13h-9.35v2.16h6.81v30.96h2.55zM275 362.1v-2.4h-18l9.6-9.37c1.69-1.68 7.06-6.24 7.06-12.1 0-5.9-4.41-9.74-10.41-9.74s-8.88 4.32-10.08 6.96l1.92 1.2c.96-2.16 3.36-5.85 8.16-5.85 4.8 0 7.77 3.21 7.77 7.53s-3.45 7.92-5.61 10.08l-12 11.76.48 1.92H275zM336.24 364.84v-33.12h-9.36v2.16h6.82v30.96h2.54zM369.36 348.32c0-8.54-3.6-17.08-12-17.08-8.35 0-12 8.54-12 17.08 0 8.5 3.6 17.04 12 17.04s12-8.54 12-17.04zm-2.78-.1c0 8.65-3.22 14.74-9.22 14.74s-9.26-6.1-9.26-14.73c0-8.64 3.26-14.74 9.26-14.74s9.22 6.1 9.22 14.74zM426.24 364.84v-33.12h-9.36v2.16h6.82v30.96h2.54zM458.64 364.84v-2.4h-18l9.6-9.36c1.68-1.68 7.06-6.24 7.06-12.1 0-5.9-4.42-9.74-10.42-9.74s-8.88 4.32-10.08 6.96l1.92 1.2c.96-2.16 3.36-5.86 8.16-5.86 4.8 0 7.78 3.22 7.78 7.54s-3.46 7.92-5.62 10.08l-12 11.76.48 1.92h21.12zM512.6 364.84v-33.12h-9.35v2.16h6.81v30.96h2.55zM545 364.84v-2.4h-18l9.6-9.36c1.69-1.68 7.06-6.24 7.06-12.1 0-5.9-4.41-9.74-10.41-9.74s-8.88 4.32-10.08 6.96l1.92 1.2c.96-2.16 3.36-5.86 8.16-5.86 4.8 0 7.77 3.22 7.77 7.54s-3.45 7.92-5.61 10.08l-12 11.76.48 1.92H545zM239.42 452.1v-33.13h-9.36v2.16h6.82v30.96h2.54zM271.82 452.1v-2.4h-18l9.6-9.37c1.68-1.68 7.06-6.24 7.06-12.1 0-5.9-4.42-9.74-10.42-9.74s-8.88 4.32-10.08 6.96l1.92 1.2c.96-2.16 3.36-5.85 8.16-5.85 4.8 0 7.78 3.21 7.78 7.53s-3.46 7.92-5.62 10.08l-12 11.76.48 1.92h21.12zM333.06 454.84v-33.12h-9.36v2.16h6.81v30.96h2.55zM365.46 454.84v-2.4h-18l9.6-9.36c1.68-1.68 7.05-6.24 7.05-12.1 0-5.9-4.41-9.74-10.41-9.74s-8.88 4.32-10.08 6.96l1.92 1.2c.96-2.16 3.36-5.86 8.16-5.86 4.8 0 7.77 3.22 7.77 7.54s-3.45 7.92-5.61 10.08l-12 11.76.48 1.92h21.12zM423.06 454.84v-33.12h-9.36v2.16h6.81v30.96h2.55zM456.18 438.32c0-8.54-3.6-17.08-12-17.08-8.36 0-12 8.54-12 17.08 0 8.5 3.6 17.04 12 17.04s12-8.54 12-17.04zm-2.79-.1c0 8.65-3.21 14.74-9.21 14.74-6 0-9.27-6.1-9.27-14.73 0-8.64 3.27-14.74 9.27-14.74s9.21 6.1 9.21 14.74zM509.42 454.84v-33.12h-9.36v2.16h6.82v30.96h2.54zM541.82 454.84v-2.4h-18l9.6-9.36c1.68-1.68 7.06-6.24 7.06-12.1 0-5.9-4.42-9.74-10.42-9.74s-8.88 4.32-10.08 6.96l1.92 1.2c.96-2.16 3.36-5.86 8.16-5.86 4.8 0 7.78 3.22 7.78 7.54s-3.46 7.92-5.62 10.08l-12 11.76.48 1.92h21.12zM239.42 542.1v-33.13h-9.36v2.16h6.82v30.96h2.54zM271.82 542.1v-2.4h-18l9.6-9.37c1.68-1.68 7.06-6.24 7.06-12.1 0-5.9-4.42-9.74-10.42-9.74s-8.88 4.32-10.08 6.96l1.92 1.2c.96-2.16 3.36-5.85 8.16-5.85 4.8 0 7.78 3.21 7.78 7.53s-3.46 7.92-5.62 10.08l-12 11.76.48 1.92h21.12zM333.06 544.84v-33.12h-9.36v2.16h6.81v30.96h2.55zM365.46 544.84v-2.4h-18l9.6-9.36c1.68-1.68 7.05-6.24 7.05-12.1 0-5.9-4.41-9.74-10.41-9.74s-8.88 4.32-10.08 6.96l1.92 1.2c.96-2.16 3.36-5.86 8.16-5.86 4.8 0 7.77 3.22 7.77 7.54s-3.45 7.92-5.61 10.08l-12 11.76.48 1.92h21.12zM423.06 544.84v-33.12h-9.36v2.16h6.81v30.96h2.55zM455.46 544.84v-2.4h-18l9.6-9.36c1.68-1.68 7.05-6.24 7.05-12.1 0-5.9-4.41-9.74-10.41-9.74s-8.88 4.32-10.08 6.96l1.92 1.2c.96-2.16 3.36-5.86 8.16-5.86 4.8 0 7.77 3.22 7.77 7.54s-3.45 7.92-5.61 10.08l-12 11.76.48 1.92h21.12zM509.42 544.84v-33.12h-9.36v2.16h6.82v30.96h2.54zM542.54 528.32c0-8.54-3.6-17.08-12-17.08-8.35 0-12 8.54-12 17.08 0 8.5 3.6 17.04 12 17.04s12-8.54 12-17.04zm-2.78-.1c0 8.65-3.22 14.74-9.22 14.74s-9.26-6.1-9.26-14.73c0-8.64 3.26-14.74 9.26-14.74s9.22 6.1 9.22 14.74z" fill-rule="nonzero"/><g><path fill="#5cbf93" d="M616.21 616.21h80v80h-80z"/><path fill="#ffd678" d="M706.21 616.21h80v80h-80zM796.21 616.21h80v80h-80zM796.21 706.21h80v80h-80zM886.21 706.21h80v80h-80zM886.21 796.21h80v80h-80zM886.21 616.21h80v80h-80zM796.21 886.21h80v80h-80zM706.21 886.21h80v80h-80zM706.21 796.21h80v80h-80zM616.21 796.21h80v80h-80zM616.21 706.21h80v80h-80zM616.21 886.21h80v80h-80z"/><path fill="#5cbf93" d="M706.21 706.21h80v80h-80zM796.21 796.21h80v80h-80zM886.21 886.21h80v80h-80z"/><path d="M642.6 670.72V637.6h-9.35v2.16h6.81v30.96h2.55zM675.73 654.2c0-8.54-3.6-17.08-12-17.08-8.35 0-12 8.54-12 17.09 0 8.5 3.6 17.04 12 17.04s12-8.55 12-17.04zm-2.79-.09c0 8.64-3.21 14.74-9.21 14.74-6 0-9.27-6.1-9.27-14.74s3.27-14.73 9.27-14.73 9.21 6.1 9.21 14.73zM736.24 673.46v-33.12h-9.36v2.16h6.82v30.96h2.54zM768.64 673.46v-2.4h-18l9.6-9.36c1.68-1.68 7.06-6.24 7.06-12.1 0-5.9-4.42-9.74-10.42-9.74s-8.88 4.32-10.08 6.96l1.92 1.2c.96-2.16 3.36-5.85 8.16-5.85 4.8 0 7.78 3.21 7.78 7.53s-3.46 7.92-5.62 10.08l-12 11.76.48 1.92h21.12zM826.24 673.46v-33.12h-9.36v2.16h6.82v30.96h2.54zM858.64 673.46v-2.4h-18l9.6-9.36c1.68-1.68 7.06-6.24 7.06-12.1 0-5.9-4.42-9.74-10.42-9.74s-8.88 4.32-10.08 6.96l1.92 1.2c.96-2.16 3.36-5.85 8.16-5.85 4.8 0 7.78 3.21 7.78 7.53s-3.46 7.92-5.62 10.08l-12 11.76.48 1.92h21.12zM912.6 673.46v-33.12h-9.35v2.16h6.81v30.96h2.55zM945 673.46v-2.4h-18l9.6-9.36c1.69-1.68 7.06-6.24 7.06-12.1 0-5.9-4.41-9.74-10.41-9.74s-8.88 4.32-10.08 6.96l1.92 1.2c.96-2.16 3.36-5.85 8.16-5.85 4.8 0 7.77 3.21 7.77 7.53s-3.45 7.92-5.61 10.08l-12 11.76.48 1.92H945zM642.6 762.1v-33.13h-9.35v2.16h6.81v30.96h2.55zM675 762.1v-2.4h-18l9.6-9.37c1.69-1.68 7.06-6.24 7.06-12.1 0-5.9-4.41-9.74-10.41-9.74s-8.88 4.32-10.08 6.96l1.92 1.2c.96-2.16 3.36-5.85 8.16-5.85 4.8 0 7.77 3.21 7.77 7.53s-3.45 7.92-5.61 10.08l-12 11.76.48 1.92H675zM736.24 764.84v-33.12h-9.36v2.16h6.82v30.96h2.54zM769.36 748.32c0-8.54-3.6-17.08-12-17.08-8.35 0-12 8.54-12 17.08 0 8.5 3.6 17.04 12 17.04s12-8.54 12-17.04zm-2.78-.1c0 8.65-3.22 14.74-9.22 14.74s-9.26-6.1-9.26-14.73c0-8.64 3.26-14.74 9.26-14.74s9.22 6.1 9.22 14.74zM826.24 764.84v-33.12h-9.36v2.16h6.82v30.96h2.54zM858.64 764.84v-2.4h-18l9.6-9.36c1.68-1.68 7.06-6.24 7.06-12.1 0-5.9-4.42-9.74-10.42-9.74s-8.88 4.32-10.08 6.96l1.92 1.2c.96-2.16 3.36-5.86 8.16-5.86 4.8 0 7.78 3.22 7.78 7.54s-3.46 7.92-5.62 10.08l-12 11.76.48 1.92h21.12zM912.6 764.84v-33.12h-9.35v2.16h6.81v30.96h2.55zM945 764.84v-2.4h-18l9.6-9.36c1.69-1.68 7.06-6.24 7.06-12.1 0-5.9-4.41-9.74-10.41-9.74s-8.88 4.32-10.08 6.96l1.92 1.2c.96-2.16 3.36-5.86 8.16-5.86 4.8 0 7.77 3.22 7.77 7.54s-3.45 7.92-5.61 10.08l-12 11.76.48 1.92H945zM639.42 852.1v-33.13h-9.36v2.16h6.82v30.96h2.54zM671.82 852.1v-2.4h-18l9.6-9.37c1.68-1.68 7.06-6.24 7.06-12.1 0-5.9-4.42-9.74-10.42-9.74s-8.88 4.32-10.08 6.96l1.92 1.2c.96-2.16 3.36-5.85 8.16-5.85 4.8 0 7.78 3.21 7.78 7.53s-3.46 7.92-5.62 10.08l-12 11.76.48 1.92h21.12zM733.06 854.84v-33.12h-9.36v2.16h6.81v30.96h2.55zM765.46 854.84v-2.4h-18l9.6-9.36c1.68-1.68 7.05-6.24 7.05-12.1 0-5.9-4.41-9.74-10.41-9.74s-8.88 4.32-10.08 6.96l1.92 1.2c.96-2.16 3.36-5.86 8.16-5.86 4.8 0 7.77 3.22 7.77 7.54s-3.45 7.92-5.61 10.08l-12 11.76.48 1.92h21.12zM823.06 854.84v-33.12h-9.36v2.16h6.81v30.96h2.55zM856.18 838.32c0-8.54-3.6-17.08-12-17.08-8.36 0-12 8.54-12 17.08 0 8.5 3.6 17.04 12 17.04s12-8.54 12-17.04zm-2.79-.1c0 8.65-3.21 14.74-9.21 14.74-6 0-9.27-6.1-9.27-14.73 0-8.64 3.27-14.74 9.27-14.74s9.21 6.1 9.21 14.74zM909.42 854.84v-33.12h-9.36v2.16h6.82v30.96h2.54zM941.82 854.84v-2.4h-18l9.6-9.36c1.68-1.68 7.06-6.24 7.06-12.1 0-5.9-4.42-9.74-10.42-9.74s-8.88 4.32-10.08 6.96l1.92 1.2c.96-2.16 3.36-5.86 8.16-5.86 4.8 0 7.78 3.22 7.78 7.54s-3.46 7.92-5.62 10.08l-12 11.76.48 1.92h21.12zM639.42 942.1v-33.13h-9.36v2.16h6.82v30.96h2.54zM671.82 942.1v-2.4h-18l9.6-9.37c1.68-1.68 7.06-6.24 7.06-12.1 0-5.9-4.42-9.74-10.42-9.74s-8.88 4.32-10.08 6.96l1.92 1.2c.96-2.16 3.36-5.85 8.16-5.85 4.8 0 7.78 3.21 7.78 7.53s-3.46 7.92-5.62 10.08l-12 11.76.48 1.92h21.12zM733.06 944.84v-33.12h-9.36v2.16h6.81v30.96h2.55zM765.46 944.84v-2.4h-18l9.6-9.36c1.68-1.68 7.05-6.24 7.05-12.1 0-5.9-4.41-9.74-10.41-9.74s-8.88 4.32-10.08 6.96l1.92 1.2c.96-2.16 3.36-5.86 8.16-5.86 4.8 0 7.77 3.22 7.77 7.54s-3.45 7.92-5.61 10.08l-12 11.76.48 1.92h21.12zM823.06 944.84v-33.12h-9.36v2.16h6.81v30.96h2.55zM855.46 944.84v-2.4h-18l9.6-9.36c1.68-1.68 7.05-6.24 7.05-12.1 0-5.9-4.41-9.74-10.41-9.74s-8.88 4.32-10.08 6.96l1.92 1.2c.96-2.16 3.36-5.86 8.16-5.86 4.8 0 7.77 3.22 7.77 7.54s-3.45 7.92-5.61 10.08l-12 11.76.48 1.92h21.12zM909.42 944.84v-33.12h-9.36v2.16h6.82v30.96h2.54zM942.54 928.32c0-8.54-3.6-17.08-12-17.08-8.35 0-12 8.54-12 17.08 0 8.5 3.6 17.04 12 17.04s12-8.54 12-17.04zm-2.78-.1c0 8.65-3.22 14.74-9.22 14.74s-9.26-6.1-9.26-14.73c0-8.64 3.26-14.74 9.26-14.74s9.22 6.1 9.22 14.74z" fill-rule="nonzero"/></g><g><path fill="#ff9b92" d="M216.21 616.21h80v80h-80zM306.21 616.21h80v80h-80zM396.21 616.21h80v80h-80zM396.21 706.21h80v80h-80zM486.21 706.21h80v80h-80zM486.21 796.21h80v80h-80zM486.21 616.21h80v80h-80zM396.21 886.21h80v80h-80zM306.21 886.21h80v80h-80zM306.21 796.21h80v80h-80zM216.21 796.21h80v80h-80zM216.21 706.21h80v80h-80zM216.21 886.21h80v80h-80zM306.21 706.21h80v80h-80zM396.21 796.21h80v80h-80zM486.21 886.21h80v80h-80z"/><path d="M254.13 661.14a8.2 8.2 0 00-6.72-8.4v-.14a7.55 7.55 0 005.76-7.68c0-5.28-4.56-8.4-9.6-8.4s-7.73 2.4-9.84 5.04l1.68 1.44c1.92-2.16 4.08-4.18 7.92-4.18s7.2 2.26 7.2 6.34-2.88 6.38-6.96 6.38h-2.16v2.5h2.16c4.32 0 7.92 2.4 7.92 7.1 0 4.66-3.5 7.15-8.55 7.15-5.04 0-8.01-4.99-8.01-4.99l-1.92 1.54s3.21 5.76 9.84 5.76c6.57 0 11.28-3.84 11.28-9.46zM281.97 670.12v-2.4h-18l9.6-9.36c1.68-1.68 7.05-6.24 7.05-12.1 0-5.9-4.41-9.74-10.41-9.74s-8.88 4.32-10.08 6.96l1.92 1.2c.96-2.16 3.36-5.86 8.16-5.86 4.8 0 7.77 3.22 7.77 7.54s-3.45 7.92-5.61 10.08l-12 11.76.48 1.92h21.12zM347.76 663.89a8.2 8.2 0 00-6.72-8.4v-.15a7.55 7.55 0 005.76-7.68c0-5.28-4.56-8.4-9.6-8.4s-7.73 2.4-9.84 5.04l1.68 1.44c1.92-2.16 4.08-4.17 7.92-4.17s7.2 2.25 7.2 6.33-2.88 6.39-6.96 6.39h-2.16v2.5h2.16c4.32 0 7.92 2.4 7.92 7.1 0 4.65-3.5 7.15-8.54 7.15-5.04 0-8.02-5-8.02-5l-1.92 1.54s3.22 5.76 9.84 5.76c6.58 0 11.28-3.84 11.28-9.45zM375.6 672.86v-2.4h-18l9.6-9.36c1.68-1.68 7.06-6.24 7.06-12.1 0-5.9-4.42-9.74-10.42-9.74s-8.88 4.32-10.08 6.96l1.92 1.2c.96-2.16 3.36-5.85 8.16-5.85 4.8 0 7.78 3.21 7.78 7.53s-3.46 7.92-5.62 10.08l-12 11.76.48 1.92h21.12zM437.76 663.89a8.2 8.2 0 00-6.72-8.4v-.15a7.55 7.55 0 005.76-7.68c0-5.28-4.56-8.4-9.6-8.4s-7.73 2.4-9.84 5.04l1.68 1.44c1.92-2.16 4.08-4.17 7.92-4.17s7.2 2.25 7.2 6.33-2.88 6.39-6.96 6.39h-2.16v2.5h2.16c4.32 0 7.92 2.4 7.92 7.1 0 4.65-3.5 7.15-8.54 7.15-5.04 0-8.02-5-8.02-5l-1.92 1.54s3.22 5.76 9.84 5.76c6.58 0 11.28-3.84 11.28-9.45zM465.6 672.86v-2.4h-18l9.6-9.36c1.68-1.68 7.06-6.24 7.06-12.1 0-5.9-4.42-9.74-10.42-9.74s-8.88 4.32-10.08 6.96l1.92 1.2c.96-2.16 3.36-5.85 8.16-5.85 4.8 0 7.78 3.21 7.78 7.53s-3.46 7.92-5.62 10.08l-12 11.76.48 1.92h21.12zM524.13 663.89a8.2 8.2 0 00-6.72-8.4v-.15a7.55 7.55 0 005.76-7.68c0-5.28-4.56-8.4-9.6-8.4s-7.73 2.4-9.84 5.04l1.68 1.44c1.92-2.16 4.08-4.17 7.92-4.17s7.2 2.25 7.2 6.33-2.88 6.39-6.96 6.39h-2.16v2.5h2.16c4.32 0 7.92 2.4 7.92 7.1 0 4.65-3.5 7.15-8.55 7.15-5.04 0-8.01-5-8.01-5l-1.92 1.54s3.21 5.76 9.84 5.76c6.57 0 11.28-3.84 11.28-9.45zM551.97 672.86v-2.4h-18l9.6-9.36c1.68-1.68 7.05-6.24 7.05-12.1 0-5.9-4.41-9.74-10.41-9.74s-8.88 4.32-10.08 6.96l1.92 1.2c.96-2.16 3.36-5.85 8.16-5.85 4.8 0 7.77 3.21 7.77 7.53s-3.45 7.92-5.61 10.08l-12 11.76.48 1.92h21.12zM254.13 752.51a8.2 8.2 0 00-6.72-8.4v-.14a7.55 7.55 0 005.76-7.68c0-5.28-4.56-8.4-9.6-8.4s-7.73 2.4-9.84 5.04l1.68 1.44c1.92-2.16 4.08-4.18 7.92-4.18s7.2 2.26 7.2 6.34-2.88 6.38-6.96 6.38h-2.16v2.5h2.16c4.32 0 7.92 2.4 7.92 7.1 0 4.66-3.5 7.16-8.55 7.16-5.04 0-8.01-5-8.01-5l-1.92 1.54s3.21 5.76 9.84 5.76c6.57 0 11.28-3.84 11.28-9.46zM281.97 761.49v-2.4h-18l9.6-9.36c1.68-1.68 7.05-6.24 7.05-12.1 0-5.9-4.41-9.74-10.41-9.74s-8.88 4.32-10.08 6.96l1.92 1.2c.96-2.16 3.36-5.86 8.16-5.86 4.8 0 7.77 3.22 7.77 7.54s-3.45 7.92-5.61 10.08l-12 11.76.48 1.92h21.12zM347.76 755.26a8.2 8.2 0 00-6.72-8.4v-.15a7.55 7.55 0 005.76-7.68c0-5.28-4.56-8.4-9.6-8.4s-7.73 2.4-9.84 5.04l1.68 1.44c1.92-2.16 4.08-4.17 7.92-4.17s7.2 2.25 7.2 6.33-2.88 6.39-6.96 6.39h-2.16v2.5h2.16c4.32 0 7.92 2.4 7.92 7.1 0 4.65-3.5 7.15-8.54 7.15-5.04 0-8.02-5-8.02-5l-1.92 1.54s3.22 5.76 9.84 5.76c6.58 0 11.28-3.84 11.28-9.45zM375.6 764.23v-2.4h-18l9.6-9.36c1.68-1.68 7.06-6.24 7.06-12.1 0-5.9-4.42-9.74-10.42-9.74s-8.88 4.32-10.08 6.96l1.92 1.2c.96-2.16 3.36-5.85 8.16-5.85 4.8 0 7.78 3.21 7.78 7.53s-3.46 7.92-5.62 10.08l-12 11.76.48 1.92h21.12zM437.76 755.26a8.2 8.2 0 00-6.72-8.4v-.15a7.55 7.55 0 005.76-7.68c0-5.28-4.56-8.4-9.6-8.4s-7.73 2.4-9.84 5.04l1.68 1.44c1.92-2.16 4.08-4.17 7.92-4.17s7.2 2.25 7.2 6.33-2.88 6.39-6.96 6.39h-2.16v2.5h2.16c4.32 0 7.92 2.4 7.92 7.1 0 4.65-3.5 7.15-8.54 7.15-5.04 0-8.02-5-8.02-5l-1.92 1.54s3.22 5.76 9.84 5.76c6.58 0 11.28-3.84 11.28-9.45zM465.6 764.23v-2.4h-18l9.6-9.36c1.68-1.68 7.06-6.24 7.06-12.1 0-5.9-4.42-9.74-10.42-9.74s-8.88 4.32-10.08 6.96l1.92 1.2c.96-2.16 3.36-5.85 8.16-5.85 4.8 0 7.78 3.21 7.78 7.53s-3.46 7.92-5.62 10.08l-12 11.76.48 1.92h21.12zM524.13 755.26a8.2 8.2 0 00-6.72-8.4v-.15a7.55 7.55 0 005.76-7.68c0-5.28-4.56-8.4-9.6-8.4s-7.73 2.4-9.84 5.04l1.68 1.44c1.92-2.16 4.08-4.17 7.92-4.17s7.2 2.25 7.2 6.33-2.88 6.39-6.96 6.39h-2.16v2.5h2.16c4.32 0 7.92 2.4 7.92 7.1 0 4.65-3.5 7.15-8.55 7.15-5.04 0-8.01-5-8.01-5l-1.92 1.54s3.21 5.76 9.84 5.76c6.57 0 11.28-3.84 11.28-9.45zM551.97 764.23v-2.4h-18l9.6-9.36c1.68-1.68 7.05-6.24 7.05-12.1 0-5.9-4.41-9.74-10.41-9.74s-8.88 4.32-10.08 6.96l1.92 1.2c.96-2.16 3.36-5.85 8.16-5.85 4.8 0 7.77 3.21 7.77 7.53s-3.45 7.92-5.61 10.08l-12 11.76.48 1.92h21.12zM250.94 842.51a8.2 8.2 0 00-6.72-8.4v-.14a7.55 7.55 0 005.76-7.68c0-5.28-4.56-8.4-9.6-8.4s-7.72 2.4-9.84 5.04l1.68 1.44c1.92-2.16 4.08-4.18 7.92-4.18s7.2 2.26 7.2 6.34-2.88 6.38-6.96 6.38h-2.16v2.5h2.16c4.32 0 7.92 2.4 7.92 7.1 0 4.66-3.5 7.16-8.54 7.16-5.04 0-8.02-5-8.02-5l-1.92 1.54s3.22 5.76 9.84 5.76c6.58 0 11.28-3.84 11.28-9.46zM278.78 851.49v-2.4h-18l9.6-9.36c1.68-1.68 7.06-6.24 7.06-12.1 0-5.9-4.42-9.74-10.42-9.74s-8.88 4.32-10.08 6.96l1.92 1.2c.96-2.16 3.36-5.86 8.16-5.86 4.8 0 7.78 3.22 7.78 7.54s-3.46 7.92-5.62 10.08l-12 11.76.48 1.92h21.12zM344.58 845.26a8.2 8.2 0 00-6.72-8.4v-.15a7.55 7.55 0 005.76-7.68c0-5.28-4.56-8.4-9.6-8.4s-7.73 2.4-9.84 5.04l1.68 1.44c1.92-2.16 4.08-4.17 7.92-4.17s7.2 2.25 7.2 6.33-2.88 6.39-6.96 6.39h-2.16v2.5h2.16c4.32 0 7.92 2.4 7.92 7.1 0 4.65-3.5 7.15-8.55 7.15-5.04 0-8.01-5-8.01-5l-1.92 1.54s3.21 5.76 9.84 5.76c6.57 0 11.28-3.84 11.28-9.45zM372.42 854.23v-2.4h-18l9.6-9.36c1.68-1.68 7.05-6.24 7.05-12.1 0-5.9-4.41-9.74-10.41-9.74s-8.88 4.32-10.08 6.96l1.92 1.2c.96-2.16 3.36-5.85 8.16-5.85 4.8 0 7.77 3.21 7.77 7.53s-3.45 7.92-5.61 10.08l-12 11.76.48 1.92h21.12zM434.58 845.26a8.2 8.2 0 00-6.72-8.4v-.15a7.55 7.55 0 005.76-7.68c0-5.28-4.56-8.4-9.6-8.4s-7.73 2.4-9.84 5.04l1.68 1.44c1.92-2.16 4.08-4.17 7.92-4.17s7.2 2.25 7.2 6.33-2.88 6.39-6.96 6.39h-2.16v2.5h2.16c4.32 0 7.92 2.4 7.92 7.1 0 4.65-3.5 7.15-8.55 7.15-5.04 0-8.01-5-8.01-5l-1.92 1.54s3.21 5.76 9.84 5.76c6.57 0 11.28-3.84 11.28-9.45zM462.42 854.23v-2.4h-18l9.6-9.36c1.68-1.68 7.05-6.24 7.05-12.1 0-5.9-4.41-9.74-10.41-9.74s-8.88 4.32-10.08 6.96l1.92 1.2c.96-2.16 3.36-5.85 8.16-5.85 4.8 0 7.77 3.21 7.77 7.53s-3.45 7.92-5.61 10.08l-12 11.76.48 1.92h21.12zM520.94 845.26a8.2 8.2 0 00-6.72-8.4v-.15a7.55 7.55 0 005.76-7.68c0-5.28-4.56-8.4-9.6-8.4s-7.72 2.4-9.84 5.04l1.68 1.44c1.92-2.16 4.08-4.17 7.92-4.17s7.2 2.25 7.2 6.33-2.88 6.39-6.96 6.39h-2.16v2.5h2.16c4.32 0 7.92 2.4 7.92 7.1 0 4.65-3.5 7.15-8.54 7.15-5.04 0-8.02-5-8.02-5l-1.92 1.54s3.22 5.76 9.84 5.76c6.58 0 11.28-3.84 11.28-9.45zM548.78 854.23v-2.4h-18l9.6-9.36c1.68-1.68 7.06-6.24 7.06-12.1 0-5.9-4.42-9.74-10.42-9.74s-8.88 4.32-10.08 6.96l1.92 1.2c.96-2.16 3.36-5.85 8.16-5.85 4.8 0 7.78 3.21 7.78 7.53s-3.46 7.92-5.62 10.08l-12 11.76.48 1.92h21.12zM250.94 932.51a8.2 8.2 0 00-6.72-8.4v-.14a7.55 7.55 0 005.76-7.68c0-5.28-4.56-8.4-9.6-8.4s-7.72 2.4-9.84 5.04l1.68 1.44c1.92-2.16 4.08-4.18 7.92-4.18s7.2 2.26 7.2 6.34-2.88 6.38-6.96 6.38h-2.16v2.5h2.16c4.32 0 7.92 2.4 7.92 7.1 0 4.66-3.5 7.16-8.54 7.16-5.04 0-8.02-5-8.02-5l-1.92 1.54s3.22 5.76 9.84 5.76c6.58 0 11.28-3.84 11.28-9.46zM278.78 941.49v-2.4h-18l9.6-9.36c1.68-1.68 7.06-6.24 7.06-12.1 0-5.9-4.42-9.74-10.42-9.74s-8.88 4.32-10.08 6.96l1.92 1.2c.96-2.16 3.36-5.86 8.16-5.86 4.8 0 7.78 3.22 7.78 7.54s-3.46 7.92-5.62 10.08l-12 11.76.48 1.92h21.12zM344.58 935.26a8.2 8.2 0 00-6.72-8.4v-.15a7.55 7.55 0 005.76-7.68c0-5.28-4.56-8.4-9.6-8.4s-7.73 2.4-9.84 5.04l1.68 1.44c1.92-2.16 4.08-4.17 7.92-4.17s7.2 2.25 7.2 6.33-2.88 6.39-6.96 6.39h-2.16v2.5h2.16c4.32 0 7.92 2.4 7.92 7.1 0 4.65-3.5 7.15-8.55 7.15-5.04 0-8.01-5-8.01-5l-1.92 1.54s3.21 5.76 9.84 5.76c6.57 0 11.28-3.84 11.28-9.45zM372.42 944.23v-2.4h-18l9.6-9.36c1.68-1.68 7.05-6.24 7.05-12.1 0-5.9-4.41-9.74-10.41-9.74s-8.88 4.32-10.08 6.96l1.92 1.2c.96-2.16 3.36-5.85 8.16-5.85 4.8 0 7.77 3.21 7.77 7.53s-3.45 7.92-5.61 10.08l-12 11.76.48 1.92h21.12zM434.58 935.26a8.2 8.2 0 00-6.72-8.4v-.15a7.55 7.55 0 005.76-7.68c0-5.28-4.56-8.4-9.6-8.4s-7.73 2.4-9.84 5.04l1.68 1.44c1.92-2.16 4.08-4.17 7.92-4.17s7.2 2.25 7.2 6.33-2.88 6.39-6.96 6.39h-2.16v2.5h2.16c4.32 0 7.92 2.4 7.92 7.1 0 4.65-3.5 7.15-8.55 7.15-5.04 0-8.01-5-8.01-5l-1.92 1.54s3.21 5.76 9.84 5.76c6.57 0 11.28-3.84 11.28-9.45zM462.42 944.23v-2.4h-18l9.6-9.36c1.68-1.68 7.05-6.24 7.05-12.1 0-5.9-4.41-9.74-10.41-9.74s-8.88 4.32-10.08 6.96l1.92 1.2c.96-2.16 3.36-5.85 8.16-5.85 4.8 0 7.77 3.21 7.77 7.53s-3.45 7.92-5.61 10.08l-12 11.76.48 1.92h21.12zM520.94 935.26a8.2 8.2 0 00-6.72-8.4v-.15a7.55 7.55 0 005.76-7.68c0-5.28-4.56-8.4-9.6-8.4s-7.72 2.4-9.84 5.04l1.68 1.44c1.92-2.16 4.08-4.17 7.92-4.17s7.2 2.25 7.2 6.33-2.88 6.39-6.96 6.39h-2.16v2.5h2.16c4.32 0 7.92 2.4 7.92 7.1 0 4.65-3.5 7.15-8.54 7.15-5.04 0-8.02-5-8.02-5l-1.92 1.54s3.22 5.76 9.84 5.76c6.58 0 11.28-3.84 11.28-9.45zM548.78 944.23v-2.4h-18l9.6-9.36c1.68-1.68 7.06-6.24 7.06-12.1 0-5.9-4.42-9.74-10.42-9.74s-8.88 4.32-10.08 6.96l1.92 1.2c.96-2.16 3.36-5.85 8.16-5.85 4.8 0 7.78 3.21 7.78 7.53s-3.46 7.92-5.62 10.08l-12 11.76.48 1.92h21.12z" fill-rule="nonzero"/></g><g><path fill="#ff9b92" d="M616.21 216.21h80v80h-80zM706.21 216.21h80v80h-80zM796.21 216.21h80v80h-80zM796.21 306.21h80v80h-80zM886.21 306.21h80v80h-80zM886.21 396.21h80v80h-80zM886.21 216.21h80v80h-80zM796.21 486.21h80v80h-80zM706.21 486.21h80v80h-80zM706.21 396.21h80v80h-80zM616.21 396.21h80v80h-80zM616.21 306.21h80v80h-80zM616.21 486.21h80v80h-80zM706.21 306.21h80v80h-80zM796.21 396.21h80v80h-80zM886.21 486.21h80v80h-80z"/><path d="M654.13 261.14a8.2 8.2 0 00-6.72-8.4v-.14a7.55 7.55 0 005.76-7.68c0-5.28-4.56-8.4-9.6-8.4s-7.73 2.4-9.84 5.04l1.68 1.44c1.92-2.16 4.08-4.18 7.92-4.18s7.2 2.26 7.2 6.34-2.88 6.38-6.96 6.38h-2.16v2.5h2.16c4.32 0 7.92 2.4 7.92 7.1 0 4.66-3.5 7.15-8.55 7.15-5.04 0-8.01-4.99-8.01-4.99l-1.92 1.54s3.21 5.76 9.84 5.76c6.57 0 11.28-3.84 11.28-9.46zM681.97 270.12v-2.4h-18l9.6-9.36c1.68-1.68 7.05-6.24 7.05-12.1 0-5.9-4.41-9.74-10.41-9.74s-8.88 4.32-10.08 6.96l1.92 1.2c.96-2.16 3.36-5.86 8.16-5.86 4.8 0 7.77 3.22 7.77 7.54s-3.45 7.92-5.61 10.08l-12 11.76.48 1.92h21.12zM747.76 263.89a8.2 8.2 0 00-6.72-8.4v-.15a7.55 7.55 0 005.76-7.68c0-5.28-4.56-8.4-9.6-8.4s-7.73 2.4-9.84 5.04l1.68 1.44c1.92-2.16 4.08-4.17 7.92-4.17s7.2 2.25 7.2 6.33-2.88 6.39-6.96 6.39h-2.16v2.5h2.16c4.32 0 7.92 2.4 7.92 7.1 0 4.65-3.5 7.15-8.54 7.15-5.04 0-8.02-5-8.02-5l-1.92 1.54s3.22 5.76 9.84 5.76c6.58 0 11.28-3.84 11.28-9.45zM775.6 272.86v-2.4h-18l9.6-9.36c1.68-1.68 7.06-6.24 7.06-12.1 0-5.9-4.42-9.74-10.42-9.74s-8.88 4.32-10.08 6.96l1.92 1.2c.96-2.16 3.36-5.85 8.16-5.85 4.8 0 7.78 3.21 7.78 7.53s-3.46 7.92-5.62 10.08l-12 11.76.48 1.92h21.12zM837.76 263.89a8.2 8.2 0 00-6.72-8.4v-.15a7.55 7.55 0 005.76-7.68c0-5.28-4.56-8.4-9.6-8.4s-7.73 2.4-9.84 5.04l1.68 1.44c1.92-2.16 4.08-4.17 7.92-4.17s7.2 2.25 7.2 6.33-2.88 6.39-6.96 6.39h-2.16v2.5h2.16c4.32 0 7.92 2.4 7.92 7.1 0 4.65-3.5 7.15-8.54 7.15-5.04 0-8.02-5-8.02-5l-1.92 1.54s3.22 5.76 9.84 5.76c6.58 0 11.28-3.84 11.28-9.45zM865.6 272.86v-2.4h-18l9.6-9.36c1.68-1.68 7.06-6.24 7.06-12.1 0-5.9-4.42-9.74-10.42-9.74s-8.88 4.32-10.08 6.96l1.92 1.2c.96-2.16 3.36-5.85 8.16-5.85 4.8 0 7.78 3.21 7.78 7.53s-3.46 7.92-5.62 10.08l-12 11.76.48 1.92h21.12zM924.13 263.89a8.2 8.2 0 00-6.72-8.4v-.15a7.55 7.55 0 005.76-7.68c0-5.28-4.56-8.4-9.6-8.4s-7.73 2.4-9.84 5.04l1.68 1.44c1.92-2.16 4.08-4.17 7.92-4.17s7.2 2.25 7.2 6.33-2.88 6.39-6.96 6.39h-2.16v2.5h2.16c4.32 0 7.92 2.4 7.92 7.1 0 4.65-3.5 7.15-8.55 7.15-5.04 0-8.01-5-8.01-5l-1.92 1.54s3.21 5.76 9.84 5.76c6.57 0 11.28-3.84 11.28-9.45zM951.97 272.86v-2.4h-18l9.6-9.36c1.68-1.68 7.05-6.24 7.05-12.1 0-5.9-4.41-9.74-10.41-9.74s-8.88 4.32-10.08 6.96l1.92 1.2c.96-2.16 3.36-5.85 8.16-5.85 4.8 0 7.77 3.21 7.77 7.53s-3.45 7.92-5.61 10.08l-12 11.76.48 1.92h21.12zM654.13 352.51a8.2 8.2 0 00-6.72-8.4v-.14a7.55 7.55 0 005.76-7.68c0-5.28-4.56-8.4-9.6-8.4s-7.73 2.4-9.84 5.04l1.68 1.44c1.92-2.16 4.08-4.18 7.92-4.18s7.2 2.26 7.2 6.34-2.88 6.38-6.96 6.38h-2.16v2.5h2.16c4.32 0 7.92 2.4 7.92 7.1 0 4.66-3.5 7.16-8.55 7.16-5.04 0-8.01-5-8.01-5l-1.92 1.54s3.21 5.76 9.84 5.76c6.57 0 11.28-3.84 11.28-9.46zM681.97 361.49v-2.4h-18l9.6-9.36c1.68-1.68 7.05-6.24 7.05-12.1 0-5.9-4.41-9.74-10.41-9.74s-8.88 4.32-10.08 6.96l1.92 1.2c.96-2.16 3.36-5.86 8.16-5.86 4.8 0 7.77 3.22 7.77 7.54s-3.45 7.92-5.61 10.08l-12 11.76.48 1.92h21.12zM747.76 355.26a8.2 8.2 0 00-6.72-8.4v-.15a7.55 7.55 0 005.76-7.68c0-5.28-4.56-8.4-9.6-8.4s-7.73 2.4-9.84 5.04l1.68 1.44c1.92-2.16 4.08-4.17 7.92-4.17s7.2 2.25 7.2 6.33-2.88 6.39-6.96 6.39h-2.16v2.5h2.16c4.32 0 7.92 2.4 7.92 7.1 0 4.65-3.5 7.15-8.54 7.15-5.04 0-8.02-5-8.02-5l-1.92 1.54s3.22 5.76 9.84 5.76c6.58 0 11.28-3.84 11.28-9.45zM775.6 364.23v-2.4h-18l9.6-9.36c1.68-1.68 7.06-6.24 7.06-12.1 0-5.9-4.42-9.74-10.42-9.74s-8.88 4.32-10.08 6.96l1.92 1.2c.96-2.16 3.36-5.85 8.16-5.85 4.8 0 7.78 3.21 7.78 7.53s-3.46 7.92-5.62 10.08l-12 11.76.48 1.92h21.12zM837.76 355.26a8.2 8.2 0 00-6.72-8.4v-.15a7.55 7.55 0 005.76-7.68c0-5.28-4.56-8.4-9.6-8.4s-7.73 2.4-9.84 5.04l1.68 1.44c1.92-2.16 4.08-4.17 7.92-4.17s7.2 2.25 7.2 6.33-2.88 6.39-6.96 6.39h-2.16v2.5h2.16c4.32 0 7.92 2.4 7.92 7.1 0 4.65-3.5 7.15-8.54 7.15-5.04 0-8.02-5-8.02-5l-1.92 1.54s3.22 5.76 9.84 5.76c6.58 0 11.28-3.84 11.28-9.45zM865.6 364.23v-2.4h-18l9.6-9.36c1.68-1.68 7.06-6.24 7.06-12.1 0-5.9-4.42-9.74-10.42-9.74s-8.88 4.32-10.08 6.96l1.92 1.2c.96-2.16 3.36-5.85 8.16-5.85 4.8 0 7.78 3.21 7.78 7.53s-3.46 7.92-5.62 10.08l-12 11.76.48 1.92h21.12zM924.13 355.26a8.2 8.2 0 00-6.72-8.4v-.15a7.55 7.55 0 005.76-7.68c0-5.28-4.56-8.4-9.6-8.4s-7.73 2.4-9.84 5.04l1.68 1.44c1.92-2.16 4.08-4.17 7.92-4.17s7.2 2.25 7.2 6.33-2.88 6.39-6.96 6.39h-2.16v2.5h2.16c4.32 0 7.92 2.4 7.92 7.1 0 4.65-3.5 7.15-8.55 7.15-5.04 0-8.01-5-8.01-5l-1.92 1.54s3.21 5.76 9.84 5.76c6.57 0 11.28-3.84 11.28-9.45zM951.97 364.23v-2.4h-18l9.6-9.36c1.68-1.68 7.05-6.24 7.05-12.1 0-5.9-4.41-9.74-10.41-9.74s-8.88 4.32-10.08 6.96l1.92 1.2c.96-2.16 3.36-5.85 8.16-5.85 4.8 0 7.77 3.21 7.77 7.53s-3.45 7.92-5.61 10.08l-12 11.76.48 1.92h21.12zM650.94 442.51a8.2 8.2 0 00-6.72-8.4v-.14a7.55 7.55 0 005.76-7.68c0-5.28-4.56-8.4-9.6-8.4s-7.72 2.4-9.84 5.04l1.68 1.44c1.92-2.16 4.08-4.18 7.92-4.18s7.2 2.26 7.2 6.34-2.88 6.38-6.96 6.38h-2.16v2.5h2.16c4.32 0 7.92 2.4 7.92 7.1 0 4.66-3.5 7.16-8.54 7.16-5.04 0-8.02-5-8.02-5l-1.92 1.54s3.22 5.76 9.84 5.76c6.58 0 11.28-3.84 11.28-9.46zM678.78 451.49v-2.4h-18l9.6-9.36c1.68-1.68 7.06-6.24 7.06-12.1 0-5.9-4.42-9.74-10.42-9.74s-8.88 4.32-10.08 6.96l1.92 1.2c.96-2.16 3.36-5.86 8.16-5.86 4.8 0 7.78 3.22 7.78 7.54s-3.46 7.92-5.62 10.08l-12 11.76.48 1.92h21.12zM744.58 445.26a8.2 8.2 0 00-6.72-8.4v-.15a7.55 7.55 0 005.76-7.68c0-5.28-4.56-8.4-9.6-8.4s-7.73 2.4-9.84 5.04l1.68 1.44c1.92-2.16 4.08-4.17 7.92-4.17s7.2 2.25 7.2 6.33-2.88 6.39-6.96 6.39h-2.16v2.5h2.16c4.32 0 7.92 2.4 7.92 7.1 0 4.65-3.5 7.15-8.55 7.15-5.04 0-8.01-5-8.01-5l-1.92 1.54s3.21 5.76 9.84 5.76c6.57 0 11.28-3.84 11.28-9.45zM772.42 454.23v-2.4h-18l9.6-9.36c1.68-1.68 7.05-6.24 7.05-12.1 0-5.9-4.41-9.74-10.41-9.74s-8.88 4.32-10.08 6.96l1.92 1.2c.96-2.16 3.36-5.85 8.16-5.85 4.8 0 7.77 3.21 7.77 7.53s-3.45 7.92-5.61 10.08l-12 11.76.48 1.92h21.12zM834.58 445.26a8.2 8.2 0 00-6.72-8.4v-.15a7.55 7.55 0 005.76-7.68c0-5.28-4.56-8.4-9.6-8.4s-7.73 2.4-9.84 5.04l1.68 1.44c1.92-2.16 4.08-4.17 7.92-4.17s7.2 2.25 7.2 6.33-2.88 6.39-6.96 6.39h-2.16v2.5h2.16c4.32 0 7.92 2.4 7.92 7.1 0 4.65-3.5 7.15-8.55 7.15-5.04 0-8.01-5-8.01-5l-1.92 1.54s3.21 5.76 9.84 5.76c6.57 0 11.28-3.84 11.28-9.45zM862.42 454.23v-2.4h-18l9.6-9.36c1.68-1.68 7.05-6.24 7.05-12.1 0-5.9-4.41-9.74-10.41-9.74s-8.88 4.32-10.08 6.96l1.92 1.2c.96-2.16 3.36-5.85 8.16-5.85 4.8 0 7.77 3.21 7.77 7.53s-3.45 7.92-5.61 10.08l-12 11.76.48 1.92h21.12zM920.94 445.26a8.2 8.2 0 00-6.72-8.4v-.15a7.55 7.55 0 005.76-7.68c0-5.28-4.56-8.4-9.6-8.4s-7.72 2.4-9.84 5.04l1.68 1.44c1.92-2.16 4.08-4.17 7.92-4.17s7.2 2.25 7.2 6.33-2.88 6.39-6.96 6.39h-2.16v2.5h2.16c4.32 0 7.92 2.4 7.92 7.1 0 4.65-3.5 7.15-8.54 7.15-5.04 0-8.02-5-8.02-5l-1.92 1.54s3.22 5.76 9.84 5.76c6.58 0 11.28-3.84 11.28-9.45zM948.78 454.23v-2.4h-18l9.6-9.36c1.68-1.68 7.06-6.24 7.06-12.1 0-5.9-4.42-9.74-10.42-9.74s-8.88 4.32-10.08 6.96l1.92 1.2c.96-2.16 3.36-5.85 8.16-5.85 4.8 0 7.78 3.21 7.78 7.53s-3.46 7.92-5.62 10.08l-12 11.76.48 1.92h21.12zM650.94 532.51a8.2 8.2 0 00-6.72-8.4v-.14a7.55 7.55 0 005.76-7.68c0-5.28-4.56-8.4-9.6-8.4s-7.72 2.4-9.84 5.04l1.68 1.44c1.92-2.16 4.08-4.18 7.92-4.18s7.2 2.26 7.2 6.34-2.88 6.38-6.96 6.38h-2.16v2.5h2.16c4.32 0 7.92 2.4 7.92 7.1 0 4.66-3.5 7.16-8.54 7.16-5.04 0-8.02-5-8.02-5l-1.92 1.54s3.22 5.76 9.84 5.76c6.58 0 11.28-3.84 11.28-9.46zM678.78 541.49v-2.4h-18l9.6-9.36c1.68-1.68 7.06-6.24 7.06-12.1 0-5.9-4.42-9.74-10.42-9.74s-8.88 4.32-10.08 6.96l1.92 1.2c.96-2.16 3.36-5.86 8.16-5.86 4.8 0 7.78 3.22 7.78 7.54s-3.46 7.92-5.62 10.08l-12 11.76.48 1.92h21.12zM744.58 535.26a8.2 8.2 0 00-6.72-8.4v-.15a7.55 7.55 0 005.76-7.68c0-5.28-4.56-8.4-9.6-8.4s-7.73 2.4-9.84 5.04l1.68 1.44c1.92-2.16 4.08-4.17 7.92-4.17s7.2 2.25 7.2 6.33-2.88 6.39-6.96 6.39h-2.16v2.5h2.16c4.32 0 7.92 2.4 7.92 7.1 0 4.65-3.5 7.15-8.55 7.15-5.04 0-8.01-5-8.01-5l-1.92 1.54s3.21 5.76 9.84 5.76c6.57 0 11.28-3.84 11.28-9.45zM772.42 544.23v-2.4h-18l9.6-9.36c1.68-1.68 7.05-6.24 7.05-12.1 0-5.9-4.41-9.74-10.41-9.74s-8.88 4.32-10.08 6.96l1.92 1.2c.96-2.16 3.36-5.85 8.16-5.85 4.8 0 7.77 3.21 7.77 7.53s-3.45 7.92-5.61 10.08l-12 11.76.48 1.92h21.12zM834.58 535.26a8.2 8.2 0 00-6.72-8.4v-.15a7.55 7.55 0 005.76-7.68c0-5.28-4.56-8.4-9.6-8.4s-7.73 2.4-9.84 5.04l1.68 1.44c1.92-2.16 4.08-4.17 7.92-4.17s7.2 2.25 7.2 6.33-2.88 6.39-6.96 6.39h-2.16v2.5h2.16c4.32 0 7.92 2.4 7.92 7.1 0 4.65-3.5 7.15-8.55 7.15-5.04 0-8.01-5-8.01-5l-1.92 1.54s3.21 5.76 9.84 5.76c6.57 0 11.28-3.84 11.28-9.45zM862.42 544.23v-2.4h-18l9.6-9.36c1.68-1.68 7.05-6.24 7.05-12.1 0-5.9-4.41-9.74-10.41-9.74s-8.88 4.32-10.08 6.96l1.92 1.2c.96-2.16 3.36-5.85 8.16-5.85 4.8 0 7.77 3.21 7.77 7.53s-3.45 7.92-5.61 10.08l-12 11.76.48 1.92h21.12zM920.94 535.26a8.2 8.2 0 00-6.72-8.4v-.15a7.55 7.55 0 005.76-7.68c0-5.28-4.56-8.4-9.6-8.4s-7.72 2.4-9.84 5.04l1.68 1.44c1.92-2.16 4.08-4.17 7.92-4.17s7.2 2.25 7.2 6.33-2.88 6.39-6.96 6.39h-2.16v2.5h2.16c4.32 0 7.92 2.4 7.92 7.1 0 4.65-3.5 7.15-8.54 7.15-5.04 0-8.02-5-8.02-5l-1.92 1.54s3.22 5.76 9.84 5.76c6.58 0 11.28-3.84 11.28-9.45zM948.78 544.23v-2.4h-18l9.6-9.36c1.68-1.68 7.06-6.24 7.06-12.1 0-5.9-4.42-9.74-10.42-9.74s-8.88 4.32-10.08 6.96l1.92 1.2c.96-2.16 3.36-5.85 8.16-5.85 4.8 0 7.78 3.21 7.78 7.53s-3.46 7.92-5.62 10.08l-12 11.76.48 1.92h21.12z" fill-rule="nonzero"/></g><g><path d="M269.44 183.58c0-8.54-3.6-17.08-12-17.08-8.35 0-12 8.54-12 17.08 0 8.5 3.6 17.04 12 17.04s12-8.54 12-17.04zm-2.78-.1c0 8.65-3.22 14.74-9.22 14.74s-9.26-6.1-9.26-14.73c0-8.64 3.26-14.74 9.26-14.74s9.22 6.1 9.22 14.74zM282.82 83.89V50.77h-2.59v28.56L258.4 50.77h-2.59v33.12h2.6V54.85l22.07 29.04h2.35zM314.27 70.54V50.77h-2.6v20.01c0 2.5-.04 5.52-1.67 7.78-1.59 2.16-4.13 3.5-7.49 3.5-3.36 0-5.9-1.34-7.49-3.5-1.63-2.26-1.68-5.28-1.68-7.78V50.77h-2.59v19.77c0 3.75.14 7.06 2.35 9.84 2.16 2.7 5.33 4.08 9.41 4.08s7.25-1.39 9.4-4.08c2.22-2.78 2.36-6.1 2.36-9.84zM355.79 83.89l-3.36-33.12h-3.02l-11.43 28.27-11.37-28.27h-2.98l-3.36 33.12h2.6l2.73-28.8 12.29 29.37h.24l12.24-29.32 2.83 28.75h2.59zM388.19 83.89l-14.16-33.22h-1.44L358.43 83.9h2.74l4.12-9.94h15.8l4.08 9.94h3.02zm-8.11-12.34h-13.83l6.92-16.94 6.9 16.94zM419.2 83.89v-13.3c0-5.28-1.49-9.36-7.87-9.36-3.22 0-6.1 1.87-7.2 4.51v-4.12h-2.5v22.27h2.5V72.85c0-5.28 2.3-9.46 7.1-9.46s5.42 3.7 5.42 7.3v13.2h2.55zM447.28 72.85c0-6.72-5.04-11.62-11.42-11.62-6.34 0-11.38 4.9-11.38 11.62 0 6.72 5.04 11.52 11.38 11.52a11.2 11.2 0 0011.42-11.52zm-2.64-.1c0 5.14-3.36 9.36-8.78 9.36-5.38 0-8.74-4.22-8.74-9.36 0-5.18 3.36-9.36 8.74-9.36 5.42 0 8.78 4.18 8.78 9.36zM451.12 72.75c0 6.58 4.32 11.62 11.04 11.62a9.19 9.19 0 008.26-4.61v4.13h2.54V50.77h-2.54v15.02a9.57 9.57 0 00-8.36-4.56c-6.62 0-10.94 4.9-10.94 11.52zm2.64 0c0-5.18 3.02-9.36 8.4-9.36 5.42 0 8.4 4.18 8.4 9.36 0 5.14-2.98 9.36-8.4 9.36-5.38 0-8.4-4.22-8.4-9.36zM499.6 71.65c0-6-4.22-10.42-10.08-10.42-5.9 0-10.8 4.66-10.8 11.52 0 6.82 4.18 11.62 10.66 11.62s9.26-3.36 9.26-3.36l-1.2-1.78s-2.78 2.88-7.82 2.88c-5.04 0-8.02-3.5-8.26-8.78h18.1s.14-.96.14-1.68zm-2.54-.48h-15.6c.14-3.12 2.4-7.78 7.92-7.78s7.68 4.9 7.68 7.78zM518.42 77.8c0-4.23-4.18-5.67-6.96-6.63-2.74-.96-5.14-1.97-5.14-4.27s1.78-3.56 4.27-3.56c2.5 0 4.03.87 5.57 2.55l1.54-1.54a8.53 8.53 0 00-7.01-3.12c-3.27 0-6.77 1.92-6.77 5.95 0 4.04 4.18 5.48 6.1 6.15 1.92.67 5.9 1.68 5.9 4.56s-2.45 4.22-5.23 4.22c-2.79 0-5-1.39-6.43-3.5l-1.78 1.44c1.4 2.3 3.98 4.32 8.11 4.32 4.13 0 7.83-2.4 7.83-6.58zM358.26 127.33l-1.68-1.68c-2.4 2.64-6 4.37-10.56 4.37-8.16 0-13.92-6.1-13.92-14.74s5.76-14.64 13.92-14.64c4.8 0 8.64 2.2 10.32 4.37l1.68-1.92c-2.4-2.4-6.24-4.8-12-4.8-9.36 0-16.7 7-16.7 17.09 0 10.08 7.1 17.08 16.7 17.08 6 0 9.84-2.5 12.24-5.13zM382.02 107.6a8.1 8.1 0 00-3.02-6.53c-1.92-1.68-4.52-2.3-7.64-2.3h-7.58v33.12h2.6v-15.46h4.98c3.12 0 5.72-.62 7.64-2.3a8.1 8.1 0 003.02-6.53zm-2.74 0c0 4.7-3.64 6.48-7.82 6.48h-5.09v-12.96h5.09c4.18 0 7.82 1.78 7.82 6.48zM411.06 118.54V98.77h-2.6v20.01c0 2.5-.04 5.52-1.67 7.78-1.59 2.16-4.13 3.5-7.49 3.5-3.36 0-5.9-1.34-7.49-3.5-1.63-2.26-1.68-5.28-1.68-7.78V98.77h-2.59v19.77c0 3.75.14 7.06 2.35 9.84 2.16 2.7 5.33 4.08 9.41 4.08s7.25-1.39 9.4-4.08c2.22-2.78 2.36-6.1 2.36-9.84zM436.74 131.89V98.77h-9.36v2.16h6.82v30.96h2.54z" fill-rule="nonzero"/><g><path d="M692.82 83.89V50.77h-2.6v28.56L668.4 50.77h-2.6v33.12h2.6V54.85l22.08 29.04h2.35zM724.27 70.54V50.77h-2.6v20.01c0 2.5-.04 5.52-1.68 7.78-1.58 2.16-4.12 3.5-7.48 3.5-3.36 0-5.9-1.34-7.5-3.5-1.62-2.26-1.67-5.28-1.67-7.78V50.77h-2.6v19.77c0 3.75.15 7.06 2.36 9.84 2.16 2.7 5.33 4.08 9.4 4.08 4.09 0 7.25-1.39 9.41-4.08 2.21-2.78 2.36-6.1 2.36-9.84zM765.79 83.89l-3.36-33.12h-3.03l-11.42 28.27-11.38-28.27h-2.97l-3.36 33.12h2.59l2.73-28.8 12.3 29.37h.23l12.24-29.32 2.83 28.75h2.6zM798.19 83.89l-14.16-33.22h-1.44L768.43 83.9h2.73l4.13-9.94h15.8l4.07 9.94h3.03zm-8.12-12.34h-13.82l6.91-16.94 6.91 16.94zM829.2 83.89v-13.3c0-5.28-1.5-9.36-7.88-9.36-3.21 0-6.1 1.87-7.2 4.51v-4.12h-2.5v22.27h2.5V72.85c0-5.28 2.3-9.46 7.1-9.46s5.43 3.7 5.43 7.3v13.2h2.54zM857.28 72.85c0-6.72-5.04-11.62-11.43-11.62-6.33 0-11.37 4.9-11.37 11.62 0 6.72 5.04 11.52 11.37 11.52a11.2 11.2 0 0011.43-11.52zm-2.64-.1c0 5.14-3.36 9.36-8.79 9.36-5.37 0-8.73-4.22-8.73-9.36 0-5.18 3.36-9.36 8.73-9.36 5.43 0 8.79 4.18 8.79 9.36zM861.12 72.75c0 6.58 4.32 11.62 11.04 11.62a9.19 9.19 0 008.25-4.61v4.13h2.55V50.77h-2.55v15.02a9.57 9.57 0 00-8.35-4.56c-6.62 0-10.94 4.9-10.94 11.52zm2.64 0c0-5.18 3.02-9.36 8.4-9.36 5.42 0 8.4 4.18 8.4 9.36 0 5.14-2.98 9.36-8.4 9.36-5.38 0-8.4-4.22-8.4-9.36zM909.6 71.65c0-6-4.23-10.42-10.08-10.42-5.9 0-10.8 4.66-10.8 11.52 0 6.82 4.17 11.62 10.65 11.62s9.27-3.36 9.27-3.36l-1.2-1.78s-2.79 2.88-7.83 2.88-8.01-3.5-8.25-8.78h18.1s.14-.96.14-1.68zm-2.55-.48h-15.6c.15-3.12 2.4-7.78 7.92-7.78s7.68 4.9 7.68 7.78zM928.41 77.8c0-4.23-4.17-5.67-6.96-6.63-2.73-.96-5.13-1.97-5.13-4.27s1.77-3.56 4.27-3.56c2.5 0 4.03.87 5.57 2.55l1.53-1.54a8.53 8.53 0 00-7-3.12c-3.27 0-6.77 1.92-6.77 5.95 0 4.04 4.17 5.48 6.1 6.15 1.91.67 5.9 1.68 5.9 4.56s-2.45 4.22-5.24 4.22c-2.78 0-4.99-1.39-6.43-3.5l-1.77 1.44c1.39 2.3 3.98 4.32 8.1 4.32 4.14 0 7.83-2.4 7.83-6.58zM764.78 127.33l-1.68-1.68c-2.4 2.64-6 4.37-10.56 4.37-8.16 0-13.92-6.1-13.92-14.74s5.76-14.64 13.92-14.64c4.8 0 8.64 2.2 10.32 4.37l1.68-1.92c-2.4-2.4-6.24-4.8-12-4.8-9.36 0-16.7 7-16.7 17.09 0 10.08 7.1 17.08 16.7 17.08 6 0 9.84-2.5 12.24-5.13zM788.54 107.6a8.1 8.1 0 00-3.03-6.53c-1.92-1.68-4.51-2.3-7.63-2.3h-7.58v33.12h2.59v-15.46h4.99c3.12 0 5.71-.62 7.63-2.3a8.1 8.1 0 003.03-6.53zm-2.74 0c0 4.7-3.65 6.48-7.82 6.48h-5.1v-12.96h5.1c4.17 0 7.82 1.78 7.82 6.48zM817.58 118.54V98.77h-2.6v20.01c0 2.5-.04 5.52-1.68 7.78-1.58 2.16-4.12 3.5-7.48 3.5-3.36 0-5.9-1.34-7.5-3.5-1.62-2.26-1.67-5.28-1.67-7.78V98.77h-2.6v19.77c0 3.75.15 7.06 2.36 9.84 2.16 2.7 5.33 4.08 9.4 4.08 4.09 0 7.25-1.39 9.41-4.08 2.21-2.78 2.36-6.1 2.36-9.84zM855.74 131.89v-2.4h-18l9.6-9.36c1.68-1.68 7.05-6.24 7.05-12.1 0-5.9-4.41-9.74-10.41-9.74s-8.88 4.32-10.08 6.96l1.92 1.2c.96-2.16 3.36-5.86 8.16-5.86 4.8 0 7.77 3.22 7.77 7.54s-3.45 7.92-5.61 10.08l-12 11.76.48 1.92h21.12z" fill-rule="nonzero"/></g><path d="M350.23 200.1v-33.12h-9.36v2.16h6.82v30.96h2.54zM450.6 200.72v-2.4h-18l9.6-9.36c1.67-1.68 7.05-6.24 7.05-12.1 0-5.9-4.42-9.74-10.42-9.74s-8.88 4.32-10.08 6.96l1.92 1.2c.96-2.16 3.36-5.86 8.16-5.86 4.8 0 7.78 3.22 7.78 7.54s-3.46 7.92-5.62 10.08l-12 11.76.48 1.92h21.12zM536.9 191.74a8.2 8.2 0 00-6.72-8.4v-.14a7.55 7.55 0 005.76-7.68c0-5.28-4.56-8.4-9.6-8.4s-7.73 2.4-9.84 5.04l1.68 1.44c1.92-2.16 4.08-4.18 7.92-4.18s7.2 2.26 7.2 6.34-2.88 6.38-6.96 6.38h-2.16v2.5h2.16c4.32 0 7.92 2.4 7.92 7.1 0 4.66-3.5 7.16-8.55 7.16-5.04 0-8.01-5-8.01-5l-1.92 1.54s3.21 5.76 9.84 5.76c6.57 0 11.28-3.84 11.28-9.46zM673.07 192.4V190h-5.09v-23.28h-2.35l-17.28 23.76v1.92h17.09v7.68h2.54v-7.68h5.1zm-7.63-2.4h-14.2l14.2-19.44V190zM761.9 189.76c0-6.96-5.52-10.8-11.04-10.8-1.68 0-3.5.24-4.94.96l2.3-10.65h12.96v-2.3H746.3l-3.12 15.11 1.68.96c1.2-1.2 3.6-1.77 5.76-1.77 4.32 0 8.64 2.73 8.64 8.5 0 5.75-4.32 8.54-8.64 8.54s-7.2-2.3-8.4-4.7l-1.92 1.43c.96 1.92 4.08 5.62 10.08 5.62s11.52-3.94 11.52-10.9zM853.74 190.15c0-6.24-4.94-10.23-10.22-10.23s-8.02 3.03-9.36 6.15c0-6.63 1.4-16.8 9.98-16.8 3.36 0 5.52 1.44 7.3 3.12l1.44-1.78s-2.74-3.5-8.64-3.5c-9.65 0-12.58 9.7-12.58 17.76 0 7.63 2.02 16.41 11.52 16.41 6.48 0 10.56-4.9 10.56-11.13zm-2.64.43c0 4.32-2.54 8.4-7.92 8.4-5.42 0-8.06-4.08-8.06-8.4s2.64-8.4 8.06-8.4c5.38 0 7.92 4.08 7.92 8.4zM941.73 169.03l-.72-1.44h-21.84v2.3h19.44l-16.32 30.82h2.64l16.8-31.68z" fill-rule="nonzero"/></g><g><path d="M199.44 910.94l-.72-1.44h-21.84v2.3h19.44L180 942.62h2.64l16.8-31.68zM197.93 845.28c0-6.24-4.95-10.22-10.23-10.22s-8.01 3.02-9.36 6.14c0-6.62 1.4-16.8 9.99-16.8 3.36 0 5.52 1.44 7.3 3.12l1.43-1.78s-2.73-3.5-8.64-3.5c-9.64 0-12.57 9.7-12.57 17.76 0 7.63 2.01 16.42 11.52 16.42 6.48 0 10.56-4.9 10.56-11.14zm-2.64.43c0 4.32-2.55 8.4-7.92 8.4-5.43 0-8.07-4.08-8.07-8.4s2.64-8.4 8.07-8.4c5.37 0 7.92 4.08 7.92 8.4zM198.2 750.23c0-6.96-5.53-10.8-11.05-10.8-1.68 0-3.5.24-4.94.96l2.3-10.65h12.96v-2.3H182.6l-3.12 15.11 1.68.96c1.2-1.2 3.6-1.77 5.76-1.77 4.32 0 8.64 2.73 8.64 8.5 0 5.75-4.32 8.54-8.64 8.54s-7.2-2.3-8.4-4.7l-1.92 1.43c.96 1.92 4.08 5.62 10.08 5.62s11.52-3.94 11.52-10.9zM199.82 666.33v-2.4h-5.08v-23.28h-2.36L175.1 664.4v1.92h17.1V674h2.54v-7.68h5.08zm-7.63-2.4H178l14.2-19.44v19.44zM197.5 536.87a8.2 8.2 0 00-6.71-8.4v-.14a7.55 7.55 0 005.76-7.68c0-5.28-4.56-8.4-9.6-8.4s-7.73 2.4-9.84 5.04l1.68 1.44c1.92-2.16 4.08-4.18 7.92-4.18s7.2 2.26 7.2 6.34-2.88 6.38-6.96 6.38h-2.16v2.5h2.16c4.32 0 7.92 2.4 7.92 7.1 0 4.66-3.5 7.15-8.55 7.15-5.04 0-8.01-4.99-8.01-4.99l-1.92 1.54s3.21 5.76 9.84 5.76c6.57 0 11.28-3.84 11.28-9.46zM198.4 453.4V451h-18l9.6-9.35c1.68-1.68 7.05-6.24 7.05-12.1 0-5.9-4.41-9.74-10.41-9.74s-8.88 4.32-10.08 6.96l1.92 1.2c.96-2.16 3.36-5.86 8.16-5.86 4.8 0 7.77 3.22 7.77 7.54s-3.45 7.92-5.61 10.08l-12 11.76.48 1.92h21.12zM189.16 362.52V329.4h-9.36v2.16h6.81v30.96h2.55zM199.48 253.91c0-8.54-3.6-17.09-12-17.09-8.36 0-12 8.55-12 17.1 0 8.49 3.6 17.03 12 17.03s12-8.54 12-17.04zm-2.79-.1c0 8.65-3.21 14.74-9.21 14.74-6 0-9.27-6.1-9.27-14.73 0-8.64 3.27-14.74 9.27-14.74s9.21 6.1 9.21 14.74zM83.89 903.98H50.77v2.59h28.56L50.77 928.4V931h33.12v-2.6H54.85l29.04-22.07v-2.35zM70.54 872.53H50.77v2.6h20.01c2.5 0 5.52.04 7.78 1.67 2.16 1.59 3.5 4.13 3.5 7.49 0 3.36-1.34 5.9-3.5 7.49-2.26 1.63-5.28 1.68-7.78 1.68H50.77v2.59h19.77c3.75 0 7.06-.14 9.84-2.35 2.7-2.16 4.08-5.33 4.08-9.41s-1.39-7.25-4.08-9.4c-2.78-2.22-6.1-2.36-9.84-2.36zM83.89 831.01l-33.12 3.36v3.02l28.27 11.43-28.27 11.37v2.98l33.12 3.36v-2.6l-28.8-2.73 29.37-12.29v-.24l-29.32-12.24 28.75-2.83v-2.59zM83.89 798.61l-33.22 14.16v1.44l33.22 14.16v-2.74l-9.94-4.12v-15.8l9.94-4.08v-3.02zm-12.34 8.11v13.83l-16.94-6.92 16.94-6.9zM83.89 767.6h-13.3c-5.28 0-9.36 1.49-9.36 7.87 0 3.22 1.87 6.1 4.51 7.2h-4.12v2.5h22.27v-2.5H72.85c-5.28 0-9.46-2.3-9.46-7.1s3.7-5.42 7.3-5.42h13.2v-2.55zM72.85 739.52c-6.72 0-11.62 5.04-11.62 11.42 0 6.34 4.9 11.38 11.62 11.38 6.72 0 11.52-5.04 11.52-11.38a11.2 11.2 0 00-11.52-11.42zm-.1 2.64c5.14 0 9.36 3.36 9.36 8.78 0 5.38-4.22 8.74-9.36 8.74-5.18 0-9.36-3.36-9.36-8.74 0-5.42 4.18-8.78 9.36-8.78zM72.75 735.68c6.58 0 11.62-4.32 11.62-11.04a9.19 9.19 0 00-4.61-8.26h4.13v-2.54H50.77v2.54h15.02a9.57 9.57 0 00-4.56 8.36c0 6.62 4.9 10.94 11.52 10.94zm0-2.64c-5.18 0-9.36-3.02-9.36-8.4 0-5.42 4.18-8.4 9.36-8.4 5.14 0 9.36 2.98 9.36 8.4 0 5.38-4.22 8.4-9.36 8.4zM71.65 687.2c-6 0-10.42 4.22-10.42 10.08 0 5.9 4.66 10.8 11.52 10.8 6.82 0 11.62-4.18 11.62-10.66S81 688.16 81 688.16l-1.78 1.2s2.88 2.78 2.88 7.82c0 5.04-3.5 8.02-8.78 8.26v-18.1s-.96-.14-1.68-.14zm-.48 2.54v15.6c-3.12-.14-7.78-2.4-7.78-7.92s4.9-7.68 7.78-7.68zM77.8 668.38c-4.23 0-5.67 4.18-6.63 6.96-.96 2.74-1.97 5.14-4.27 5.14s-3.56-1.78-3.56-4.27c0-2.5.87-4.03 2.55-5.57l-1.54-1.54a8.53 8.53 0 00-3.12 7.01c0 3.27 1.92 6.77 5.95 6.77 4.04 0 5.48-4.18 6.15-6.1.67-1.92 1.68-5.9 4.56-5.9s4.22 2.45 4.22 5.23c0 2.79-1.39 5-3.5 6.43l1.44 1.78c2.3-1.4 4.32-3.98 4.32-8.11 0-4.13-2.4-7.83-6.58-7.83zM127.33 832.02l-1.68 1.68c2.64 2.4 4.37 6 4.37 10.56 0 8.16-6.1 13.92-14.74 13.92s-14.64-5.76-14.64-13.92c0-4.8 2.2-8.64 4.37-10.32l-1.92-1.68c-2.4 2.4-4.8 6.24-4.8 12 0 9.36 7 16.7 17.09 16.7 10.08 0 17.08-7.1 17.08-16.7 0-6-2.5-9.84-5.13-12.24zM107.6 808.26a8.1 8.1 0 00-6.53 3.02c-1.68 1.92-2.3 4.52-2.3 7.64v7.58h33.12v-2.6h-15.46v-4.98c0-3.12-.62-5.72-2.3-7.64a8.1 8.1 0 00-6.53-3.02zm0 2.74c4.7 0 6.48 3.64 6.48 7.82v5.09h-12.96v-5.09c0-4.18 1.78-7.82 6.48-7.82zM118.54 779.22H98.77v2.6h20.01c2.5 0 5.52.04 7.78 1.67 2.16 1.59 3.5 4.13 3.5 7.49 0 3.36-1.34 5.9-3.5 7.49-2.26 1.63-5.28 1.68-7.78 1.68H98.77v2.59h19.77c3.75 0 7.06-.14 9.84-2.35 2.7-2.16 4.08-5.33 4.08-9.41s-1.39-7.25-4.08-9.4c-2.78-2.22-6.1-2.36-9.84-2.36zM131.89 741.06h-2.4v18l-9.36-9.6c-1.68-1.68-6.24-7.06-12.1-7.06-5.9 0-9.74 4.42-9.74 10.42s4.32 8.88 6.96 10.08l1.2-1.92c-2.16-.96-5.86-3.36-5.86-8.16 0-4.8 3.22-7.78 7.54-7.78s7.92 3.46 10.08 5.62l11.76 12 1.92-.48v-21.12z" fill-rule="nonzero"/><g><path d="M83.89 493.98H50.77v2.59h28.56L50.77 518.4V521h33.12v-2.6H54.85l29.04-22.07v-2.35zM70.54 462.53H50.77v2.6h20.01c2.5 0 5.52.04 7.78 1.67 2.16 1.59 3.5 4.13 3.5 7.49 0 3.36-1.34 5.9-3.5 7.49-2.26 1.63-5.28 1.68-7.78 1.68H50.77v2.59h19.77c3.75 0 7.06-.14 9.84-2.35 2.7-2.16 4.08-5.33 4.08-9.41s-1.39-7.25-4.08-9.4c-2.78-2.22-6.1-2.36-9.84-2.36zM83.89 421.01l-33.12 3.36v3.02l28.27 11.43-28.27 11.37v2.98l33.12 3.36v-2.6l-28.8-2.73 29.37-12.29v-.24l-29.32-12.24 28.75-2.83v-2.59zM83.89 388.61l-33.22 14.16v1.44l33.22 14.16v-2.74l-9.94-4.12v-15.8l9.94-4.08v-3.02zm-12.34 8.11v13.83l-16.94-6.92 16.94-6.9zM83.89 357.6h-13.3c-5.28 0-9.36 1.49-9.36 7.87 0 3.22 1.87 6.1 4.51 7.2h-4.12v2.5h22.27v-2.5H72.85c-5.28 0-9.46-2.3-9.46-7.1s3.7-5.42 7.3-5.42h13.2v-2.55zM72.85 329.52c-6.72 0-11.62 5.04-11.62 11.42 0 6.34 4.9 11.38 11.62 11.38 6.72 0 11.52-5.04 11.52-11.38a11.2 11.2 0 00-11.52-11.42zm-.1 2.64c5.14 0 9.36 3.36 9.36 8.78 0 5.38-4.22 8.74-9.36 8.74-5.18 0-9.36-3.36-9.36-8.74 0-5.42 4.18-8.78 9.36-8.78zM72.75 325.68c6.58 0 11.62-4.32 11.62-11.04a9.19 9.19 0 00-4.61-8.26h4.13v-2.54H50.77v2.54h15.02a9.57 9.57 0 00-4.56 8.36c0 6.62 4.9 10.94 11.52 10.94zm0-2.64c-5.18 0-9.36-3.02-9.36-8.4 0-5.42 4.18-8.4 9.36-8.4 5.14 0 9.36 2.98 9.36 8.4 0 5.38-4.22 8.4-9.36 8.4zM71.65 277.2c-6 0-10.42 4.22-10.42 10.08 0 5.9 4.66 10.8 11.52 10.8 6.82 0 11.62-4.18 11.62-10.66S81 278.16 81 278.16l-1.78 1.2s2.88 2.78 2.88 7.82c0 5.04-3.5 8.02-8.78 8.26v-18.1s-.96-.14-1.68-.14zm-.48 2.54v15.6c-3.12-.14-7.78-2.4-7.78-7.92s4.9-7.68 7.78-7.68zM77.8 258.38c-4.23 0-5.67 4.18-6.63 6.96-.96 2.74-1.97 5.14-4.27 5.14s-3.56-1.78-3.56-4.27c0-2.5.87-4.03 2.55-5.57l-1.54-1.54a8.53 8.53 0 00-3.12 7.01c0 3.27 1.92 6.77 5.95 6.77 4.04 0 5.48-4.18 6.15-6.1.67-1.92 1.68-5.9 4.56-5.9s4.22 2.45 4.22 5.23c0 2.79-1.39 5-3.5 6.43l1.44 1.78c2.3-1.4 4.32-3.98 4.32-8.11 0-4.13-2.4-7.83-6.58-7.83zM127.33 418.54l-1.68 1.68c2.64 2.4 4.37 6 4.37 10.56 0 8.16-6.1 13.92-14.74 13.92s-14.64-5.76-14.64-13.92c0-4.8 2.2-8.64 4.37-10.32l-1.92-1.68c-2.4 2.4-4.8 6.24-4.8 12 0 9.36 7 16.7 17.09 16.7 10.08 0 17.08-7.1 17.08-16.7 0-6-2.5-9.84-5.13-12.24zM107.6 394.78a8.1 8.1 0 00-6.53 3.02c-1.68 1.92-2.3 4.52-2.3 7.64v7.58h33.12v-2.6h-15.46v-4.98c0-3.12-.62-5.72-2.3-7.64a8.1 8.1 0 00-6.53-3.02zm0 2.74c4.7 0 6.48 3.64 6.48 7.82v5.09h-12.96v-5.09c0-4.18 1.78-7.82 6.48-7.82zM118.54 365.74H98.77v2.6h20.01c2.5 0 5.52.04 7.78 1.67 2.16 1.59 3.5 4.13 3.5 7.49 0 3.36-1.34 5.9-3.5 7.49-2.26 1.63-5.28 1.68-7.78 1.68H98.77v2.59h19.77c3.75 0 7.06-.14 9.84-2.35 2.7-2.16 4.08-5.33 4.08-9.41s-1.39-7.25-4.08-9.4c-2.78-2.22-6.1-2.36-9.84-2.36zM131.89 340.06H98.77v9.36h2.16v-6.82h30.96v-2.54z" fill-rule="nonzero"/></g></g></svg>