<?xml version="1.0" encoding="UTF-8" standalone="no"?>
<!DOCTYPE svg PUBLIC "-//W3C//DTD SVG 1.1//EN" "http://www.w3.org/Graphics/SVG/1.1/DTD/svg11.dtd">
<svg width="100%" height="100%" viewBox="0 0 1300 668" version="1.1" xmlns="http://www.w3.org/2000/svg" xmlns:xlink="http://www.w3.org/1999/xlink" xml:space="preserve" xmlns:serif="http://www.serif.com/" style="fill-rule:evenodd;clip-rule:evenodd;stroke-linecap:round;stroke-linejoin:round;stroke-miterlimit:1.5;">
    <g>
        <rect x="70" y="194.952" width="80" height="80" style="fill:rgb(137,194,212);"/>
        <rect x="70" y="114.952" width="80" height="160" style="fill:none;stroke:black;stroke-width:5px;"/>
        <path d="M70,194.952l80,0" style="fill:none;stroke:black;stroke-width:5px;"/>
        <path d="M88.76,249.421l0,-28.98l-8.19,0l0,1.89l5.964,0l0,27.09l2.226,0Z" style="fill-rule:nonzero;"/>
        <path d="M117.11,249.421l0,-2.1l-15.75,0l8.4,-8.19c1.47,-1.47 6.174,-5.46 6.174,-10.584c0,-5.166 -3.864,-8.526 -9.114,-8.526c-5.25,0 -7.77,3.78 -8.82,6.09l1.68,1.05c0.84,-1.89 2.94,-5.124 7.14,-5.124c4.2,0 6.804,2.814 6.804,6.594c0,3.78 -3.024,6.93 -4.914,8.82l-10.5,10.29l0.42,1.68l18.48,0Z" style="fill-rule:nonzero;"/>
        <path d="M140,241.567c0,-3.78 -2.31,-6.426 -5.586,-7.476l0,-0.084c1.806,-0.756 4.62,-2.226 4.62,-6.72c0,-4.536 -3.864,-7.266 -8.274,-7.266c-4.41,0 -8.316,2.73 -8.316,7.266c0,4.494 2.856,5.964 4.62,6.72l0,0.084c-3.234,1.05 -5.544,3.696 -5.544,7.476c0,5.25 3.78,8.316 9.24,8.316c5.46,0 9.24,-3.066 9.24,-8.316Zm-3.276,-14.028c0,3.57 -2.604,5.502 -5.964,5.502c-3.36,0 -6.006,-1.932 -6.006,-5.502c0,-3.57 2.646,-5.502 6.006,-5.502c3.36,0 5.964,1.932 5.964,5.502Zm0.966,13.902c0,3.99 -3.15,6.468 -6.93,6.468c-3.78,0 -6.93,-2.478 -6.93,-6.468c0,-3.99 2.94,-6.384 6.93,-6.384c3.99,0 6.93,2.394 6.93,6.384Z" style="fill-rule:nonzero;"/>
        <path d="M121.835,154.994c0,-7.476 -3.15,-14.952 -10.5,-14.952c-7.308,0 -10.5,7.476 -10.5,14.952c0,7.434 3.15,14.91 10.5,14.91c7.35,0 10.5,-7.476 10.5,-14.91Zm-2.436,-0.084c0,7.56 -2.814,12.894 -8.064,12.894c-5.25,0 -8.106,-5.334 -8.106,-12.894c0,-7.56 2.856,-12.894 8.106,-12.894c5.25,0 8.064,5.334 8.064,12.894Z" style="fill-rule:nonzero;"/>
        <rect x="210" y="194.952" width="80" height="80" style="fill:rgb(137,194,212);"/>
        <rect x="210" y="114.952" width="80" height="160" style="fill:none;stroke:black;stroke-width:5px;"/>
        <path d="M210,194.952l80,0" style="fill:none;stroke:black;stroke-width:5px;"/>
        <path d="M228.76,249.421l0,-28.98l-8.19,0l0,1.89l5.964,0l0,27.09l2.226,0Z" style="fill-rule:nonzero;"/>
        <path d="M257.11,249.421l0,-2.1l-15.75,0l8.4,-8.19c1.47,-1.47 6.174,-5.46 6.174,-10.584c0,-5.166 -3.864,-8.526 -9.114,-8.526c-5.25,0 -7.77,3.78 -8.82,6.09l1.68,1.05c0.84,-1.89 2.94,-5.124 7.14,-5.124c4.2,0 6.804,2.814 6.804,6.594c-0,3.78 -3.024,6.93 -4.914,8.82l-10.5,10.29l0.42,1.68l18.48,0Z" style="fill-rule:nonzero;"/>
        <path d="M280.21,234.301c0,-6.678 -1.806,-14.28 -10.08,-14.28c-5.67,0 -9.24,4.284 -9.24,9.744c0,5.46 4.284,8.946 8.904,8.946c4.62,0 7.056,-2.73 8.19,-5.46c0,5.46 -1.05,9.24 -2.52,11.466c-1.47,2.184 -3.15,3.234 -6.09,3.234c-2.898,0 -5.124,-1.134 -6.72,-2.604l-1.26,1.554c0.42,0.42 2.73,3.024 7.98,3.024c8.358,0 10.836,-8.694 10.836,-15.624Zm-3.066,-4.956c-0,3.78 -2.31,7.35 -7.014,7.35c-4.746,0 -6.93,-3.57 -6.93,-7.35c-0,-3.78 2.184,-7.35 6.93,-7.35c4.704,0 7.014,3.57 7.014,7.35Z" style="fill-rule:nonzero;"/>
        <path d="M250.285,169.442l0,-28.98l-8.19,0l0,1.89l5.964,0l0,27.09l2.226,0Z" style="fill-rule:nonzero;"/>
        <path d="M165,222.452l-15,-7.5l15,-7.5l0,15Z" style="fill:rgb(0,78,142);"/>
        <path d="M150,174.952l20,0l0,40l-8,0" style="fill:none;stroke:rgb(0,78,142);stroke-width:5px;"/>
        <path d="M195,127.452l15,7.5l-15,7.5l0,-15Z" style="fill:rgb(0,78,142);"/>
        <path d="M150,254.952l40,0l0,-120l8,0" style="fill:none;stroke:rgb(0,78,142);stroke-width:5px;"/>
        <rect x="350" y="194.952" width="80" height="80" style="fill:rgb(137,194,212);"/>
        <rect x="350" y="114.952" width="80" height="160" style="fill:none;stroke:black;stroke-width:5px;"/>
        <path d="M350,194.952l80,0" style="fill:none;stroke:black;stroke-width:5px;"/>
        <path d="M368.76,249.421l0,-28.98l-8.19,0l0,1.89l5.964,0l0,27.09l2.226,0Z" style="fill-rule:nonzero;"/>
        <path d="M396.27,241.567c0,-4.956 -3.78,-7.056 -5.88,-7.35l0,-0.126c1.68,-0.42 5.04,-2.1 5.04,-6.72c0,-4.62 -3.99,-7.35 -8.4,-7.35c-4.41,0 -6.762,2.1 -8.61,4.41l1.47,1.26c1.68,-1.89 3.57,-3.654 6.93,-3.654c3.36,0 6.3,1.974 6.3,5.544c-0,3.57 -2.52,5.586 -6.09,5.586l-1.89,0l-0,2.184l1.89,0c3.78,0 6.93,2.1 6.93,6.216c-0,4.074 -3.066,6.258 -7.476,6.258c-4.41,0 -7.014,-4.368 -7.014,-4.368l-1.68,1.344c-0,0 2.814,5.04 8.61,5.04c5.754,0 9.87,-3.36 9.87,-8.274Z" style="fill-rule:nonzero;"/>
        <path d="M421.26,234.973c0,-7.476 -3.15,-14.952 -10.5,-14.952c-7.308,0 -10.5,7.476 -10.5,14.952c0,7.434 3.15,14.91 10.5,14.91c7.35,0 10.5,-7.476 10.5,-14.91Zm-2.436,-0.084c0,7.56 -2.814,12.894 -8.064,12.894c-5.25,0 -8.106,-5.334 -8.106,-12.894c0,-7.56 2.856,-12.894 8.106,-12.894c5.25,0 8.064,5.334 8.064,12.894Z" style="fill-rule:nonzero;"/>
        <path d="M401.205,169.442l0,-2.1l-15.75,0l8.4,-8.19c1.47,-1.47 6.174,-5.46 6.174,-10.584c0,-5.166 -3.864,-8.526 -9.114,-8.526c-5.25,0 -7.77,3.78 -8.82,6.09l1.68,1.05c0.84,-1.89 2.94,-5.124 7.14,-5.124c4.2,0 6.804,2.814 6.804,6.594c0,3.78 -3.024,6.93 -4.914,8.82l-10.5,10.29l0.42,1.68l18.48,0Z" style="fill-rule:nonzero;"/>
        <path d="M305,222.452l-15,-7.5l15,-7.5l0,15Z" style="fill:rgb(0,78,142);"/>
        <path d="M290,174.952l20,0l0,40l-8,0" style="fill:none;stroke:rgb(0,78,142);stroke-width:5px;"/>
        <path d="M335,127.452l15,7.5l-15,7.5l0,-15Z" style="fill:rgb(0,78,142);"/>
        <path d="M290,254.952l40,0l0,-120l8,0" style="fill:none;stroke:rgb(0,78,142);stroke-width:5px;"/>
        <rect x="490" y="194.952" width="80" height="80" style="fill:rgb(137,194,212);"/>
        <rect x="490" y="114.952" width="80" height="160" style="fill:none;stroke:black;stroke-width:5px;"/>
        <path d="M490,194.952l80,0" style="fill:none;stroke:black;stroke-width:5px;"/>
        <path d="M508.76,249.421l0,-28.98l-8.19,0l0,1.89l5.964,0l0,27.09l2.226,0Z" style="fill-rule:nonzero;"/>
        <path d="M536.27,241.567c0,-4.956 -3.78,-7.056 -5.88,-7.35l0,-0.126c1.68,-0.42 5.04,-2.1 5.04,-6.72c0,-4.62 -3.99,-7.35 -8.4,-7.35c-4.41,0 -6.762,2.1 -8.61,4.41l1.47,1.26c1.68,-1.89 3.57,-3.654 6.93,-3.654c3.36,0 6.3,1.974 6.3,5.544c0,3.57 -2.52,5.586 -6.09,5.586l-1.89,0l0,2.184l1.89,0c3.78,0 6.93,2.1 6.93,6.216c0,4.074 -3.066,6.258 -7.476,6.258c-4.41,0 -7.014,-4.368 -7.014,-4.368l-1.68,1.344c0,0 2.814,5.04 8.61,5.04c5.754,0 9.87,-3.36 9.87,-8.274Z" style="fill-rule:nonzero;"/>
        <path d="M549.71,249.421l0,-28.98l-8.19,0l0,1.89l5.964,0l0,27.09l2.226,0Z" style="fill-rule:nonzero;"/>
        <path d="M540.365,161.588c0,-4.956 -3.78,-7.056 -5.88,-7.35l0,-0.126c1.68,-0.42 5.04,-2.1 5.04,-6.72c0,-4.62 -3.99,-7.35 -8.4,-7.35c-4.41,0 -6.762,2.1 -8.61,4.41l1.47,1.26c1.68,-1.89 3.57,-3.654 6.93,-3.654c3.36,0 6.3,1.974 6.3,5.544c0,3.57 -2.52,5.586 -6.09,5.586l-1.89,0l0,2.184l1.89,0c3.78,0 6.93,2.1 6.93,6.216c0,4.074 -3.066,6.258 -7.476,6.258c-4.41,0 -7.014,-4.368 -7.014,-4.368l-1.68,1.344c0,0 2.814,5.04 8.61,5.04c5.754,0 9.87,-3.36 9.87,-8.274Z" style="fill-rule:nonzero;"/>
        <path d="M445,222.452l-15,-7.5l15,-7.5l0,15Z" style="fill:rgb(0,78,142);"/>
        <path d="M430,174.952l20,0l0,40l-8,0" style="fill:none;stroke:rgb(0,78,142);stroke-width:5px;"/>
        <path d="M475,127.452l15,7.5l-15,7.5l0,-15Z" style="fill:rgb(0,78,142);"/>
        <path d="M430,254.952l40,0l0,-120l8,0" style="fill:none;stroke:rgb(0,78,142);stroke-width:5px;"/>
        <path d="M615,187.452l15,7.5l-15,7.5l0,-15Z" style="fill:rgb(0,78,142);"/>
        <path d="M570,254.952l40,0l0,-60l8,0" style="fill:none;stroke:rgb(0,78,142);stroke-width:5px;"/>
        <rect x="710" y="194.952" width="80" height="80" style="fill:rgb(137,194,212);"/>
        <rect x="710" y="114.952" width="80" height="160" style="fill:none;stroke:black;stroke-width:5px;"/>
        <path d="M710,194.952l80,0" style="fill:none;stroke:black;stroke-width:5px;"/>
        <path d="M728.76,249.421l0,-28.98l-8.19,-0l0,1.89l5.964,0l0,27.09l2.226,0Z" style="fill-rule:nonzero;"/>
        <path d="M758.16,242.701l0,-2.1l-4.452,0l0,-20.37l-2.058,0l-15.12,20.79l0,1.68l14.952,0l0,6.72l2.226,0l0,-6.72l4.452,0Zm-6.678,-2.1l-12.432,0l12.432,-17.01l0,17.01Z" style="fill-rule:nonzero;"/>
        <path d="M781.26,234.973c0,-7.476 -3.15,-14.952 -10.5,-14.952c-7.308,-0 -10.5,7.476 -10.5,14.952c0,7.434 3.15,14.91 10.5,14.91c7.35,-0 10.5,-7.476 10.5,-14.91Zm-2.436,-0.084c0,7.56 -2.814,12.894 -8.064,12.894c-5.25,-0 -8.106,-5.334 -8.106,-12.894c0,-7.56 2.856,-12.894 8.106,-12.894c5.25,0 8.064,5.334 8.064,12.894Z" style="fill-rule:nonzero;"/>
        <path d="M739.92,169.547l0,-28.98l-8.19,0l0,1.89l5.964,0l0,27.09l2.226,0Z" style="fill-rule:nonzero;"/>
        <path d="M768.27,169.547l0,-2.1l-15.75,0l8.4,-8.19c1.47,-1.47 6.174,-5.46 6.174,-10.584c0,-5.166 -3.864,-8.526 -9.114,-8.526c-5.25,0 -7.77,3.78 -8.82,6.09l1.68,1.05c0.84,-1.89 2.94,-5.124 7.14,-5.124c4.2,0 6.804,2.814 6.804,6.594c0,3.78 -3.024,6.93 -4.914,8.82l-10.5,10.29l0.42,1.68l18.48,0Z" style="fill-rule:nonzero;"/>
        <rect x="850" y="194.952" width="80" height="80" style="fill:rgb(137,194,212);"/>
        <rect x="850" y="114.952" width="80" height="160" style="fill:none;stroke:black;stroke-width:5px;"/>
        <path d="M850,194.952l80,0" style="fill:none;stroke:black;stroke-width:5px;"/>
        <path d="M868.76,249.421l0,-28.98l-8.19,0l0,1.89l5.964,0l0,27.09l2.226,0Z" style="fill-rule:nonzero;"/>
        <path d="M898.16,242.701l0,-2.1l-4.452,0l0,-20.37l-2.058,0l-15.12,20.79l0,1.68l14.952,0l0,6.72l2.226,0l0,-6.72l4.452,0Zm-6.678,-2.1l-12.432,0l12.432,-17.01l0,17.01Z" style="fill-rule:nonzero;"/>
        <path d="M909.71,249.421l0,-28.98l-8.19,0l0,1.89l5.964,0l0,27.09l2.226,0Z" style="fill-rule:nonzero;"/>
        <path d="M880.34,169.952l-0,-28.98l-8.19,-0l-0,1.89l5.964,0l-0,27.09l2.226,0Z" style="fill-rule:nonzero;"/>
        <path d="M907.85,162.098c-0,-4.956 -3.78,-7.056 -5.88,-7.35l-0,-0.126c1.68,-0.42 5.04,-2.1 5.04,-6.72c0,-4.62 -3.99,-7.35 -8.4,-7.35c-4.41,-0 -6.762,2.1 -8.61,4.41l1.47,1.26c1.68,-1.89 3.57,-3.654 6.93,-3.654c3.36,-0 6.3,1.974 6.3,5.544c0,3.57 -2.52,5.586 -6.09,5.586l-1.89,-0l0,2.184l1.89,-0c3.78,-0 6.93,2.1 6.93,6.216c0,4.074 -3.066,6.258 -7.476,6.258c-4.41,-0 -7.014,-4.368 -7.014,-4.368l-1.68,1.344c0,-0 2.814,5.04 8.61,5.04c5.754,-0 9.87,-3.36 9.87,-8.274Z" style="fill-rule:nonzero;"/>
        <path d="M805,222.452l-15,-7.5l15,-7.5l0,15Z" style="fill:rgb(0,78,142);"/>
        <path d="M790,174.952l20,0l0,40l-8,0" style="fill:none;stroke:rgb(0,78,142);stroke-width:5px;"/>
        <path d="M835,127.452l15,7.5l-15,7.5l0,-15Z" style="fill:rgb(0,78,142);"/>
        <path d="M790,254.952l40,0l0,-120l8,0" style="fill:none;stroke:rgb(0,78,142);stroke-width:5px;"/>
        <rect x="990" y="194.952" width="80" height="80" style="fill:rgb(137,194,212);"/>
        <rect x="990" y="114.952" width="80" height="160" style="fill:none;stroke:black;stroke-width:5px;"/>
        <path d="M990,194.952l80,0" style="fill:none;stroke:black;stroke-width:5px;"/>
        <path d="M1008.76,249.421l0,-28.98l-8.19,0l0,1.89l5.964,0l0,27.09l2.226,0Z" style="fill-rule:nonzero;"/>
        <path d="M1038.16,242.701l0,-2.1l-4.452,0l0,-20.37l-2.058,0l-15.12,20.79l0,1.68l14.952,0l0,6.72l2.226,0l-0,-6.72l4.452,0Zm-6.678,-2.1l-12.432,0l12.432,-17.01l0,17.01Z" style="fill-rule:nonzero;"/>
        <path d="M1060.63,249.421l0,-2.1l-15.75,0l8.4,-8.19c1.47,-1.47 6.174,-5.46 6.174,-10.584c-0,-5.166 -3.864,-8.526 -9.114,-8.526c-5.25,0 -7.77,3.78 -8.82,6.09l1.68,1.05c0.84,-1.89 2.94,-5.124 7.14,-5.124c4.2,0 6.804,2.814 6.804,6.594c-0,3.78 -3.024,6.93 -4.914,8.82l-10.5,10.29l0.42,1.68l18.48,0Z" style="fill-rule:nonzero;"/>
        <path d="M1019.39,169.652l0,-28.98l-8.19,0l0,1.89l5.964,0l0,27.09l2.226,0Z" style="fill-rule:nonzero;"/>
        <path d="M1048.8,162.932l0,-2.1l-4.452,0l0,-20.37l-2.058,0l-15.12,20.79l-0,1.68l14.952,0l-0,6.72l2.226,0l-0,-6.72l4.452,0Zm-6.678,-2.1l-12.432,0l12.432,-17.01l-0,17.01Z" style="fill-rule:nonzero;"/>
        <path d="M945,222.452l-15,-7.5l15,-7.5l0,15Z" style="fill:rgb(0,78,142);"/>
        <path d="M930,174.952l20,0l0,40l-8,0" style="fill:none;stroke:rgb(0,78,142);stroke-width:5px;"/>
        <path d="M975,127.452l15,7.5l-15,7.5l0,-15Z" style="fill:rgb(0,78,142);"/>
        <path d="M930,254.952l40,0l0,-120l8,0" style="fill:none;stroke:rgb(0,78,142);stroke-width:5px;"/>
        <rect x="1130" y="194.952" width="80" height="80" style="fill:rgb(137,194,212);"/>
        <rect x="1130" y="114.952" width="80" height="160" style="fill:none;stroke:black;stroke-width:5px;"/>
        <path d="M1130,194.952l80,0" style="fill:none;stroke:black;stroke-width:5px;"/>
        <path d="M1148.76,249.421l0,-28.98l-8.19,0l0,1.89l5.964,0l0,27.09l2.226,0Z" style="fill-rule:nonzero;"/>
        <path d="M1178.16,242.701l0,-2.1l-4.452,0l0,-20.37l-2.058,0l-15.12,20.79l-0,1.68l14.952,0l-0,6.72l2.226,0l-0,-6.72l4.452,0Zm-6.678,-2.1l-12.432,0l12.432,-17.01l-0,17.01Z" style="fill-rule:nonzero;"/>
        <path d="M1199.79,241.567c0,-4.956 -3.78,-7.056 -5.88,-7.35l0,-0.126c1.68,-0.42 5.04,-2.1 5.04,-6.72c0,-4.62 -3.99,-7.35 -8.4,-7.35c-4.41,0 -6.762,2.1 -8.61,4.41l1.47,1.26c1.68,-1.89 3.57,-3.654 6.93,-3.654c3.36,0 6.3,1.974 6.3,5.544c0,3.57 -2.52,5.586 -6.09,5.586l-1.89,0l0,2.184l1.89,0c3.78,0 6.93,2.1 6.93,6.216c0,4.074 -3.066,6.258 -7.476,6.258c-4.41,-0 -7.014,-4.368 -7.014,-4.368l-1.68,1.344c0,-0 2.814,5.04 8.61,5.04c5.754,-0 9.87,-3.36 9.87,-8.274Z" style="fill-rule:nonzero;"/>
        <path d="M1160.34,169.19l0,-28.98l-8.19,0l0,1.89l5.964,0l0,27.09l2.226,0Z" style="fill-rule:nonzero;"/>
        <path d="M1187.85,160.16c-0,-6.09 -4.83,-9.45 -9.66,-9.45c-1.47,0 -3.066,0.21 -4.326,0.84l2.016,-9.324l11.34,0l0,-2.016l-13.02,0l-2.73,13.23l1.47,0.84c1.05,-1.05 3.15,-1.554 5.04,-1.554c3.78,0 7.56,2.394 7.56,7.434c0,5.04 -3.78,7.476 -7.56,7.476c-3.78,0 -6.3,-2.016 -7.35,-4.116l-1.68,1.26c0.84,1.68 3.57,4.914 8.82,4.914c5.25,0 10.08,-3.444 10.08,-9.534Z" style="fill-rule:nonzero;"/>
        <path d="M1085,222.452l-15,-7.5l15,-7.5l0,15Z" style="fill:rgb(0,78,142);"/>
        <path d="M1070,174.952l20,0l0,40l-8,0" style="fill:none;stroke:rgb(0,78,142);stroke-width:5px;"/>
        <path d="M1225,227.452l-15,-7.5l15,-7.5l0,15Z" style="fill:rgb(0,78,142);"/>
        <path d="M1210,179.952l20,-0l0,40l-8,-0" style="fill:none;stroke:rgb(0,78,142);stroke-width:5px;"/>
        <path d="M1115,127.452l15,7.5l-15,7.5l0,-15Z" style="fill:rgb(0,78,142);"/>
        <path d="M1070,254.952l40,0l0,-120l8,0" style="fill:none;stroke:rgb(0,78,142);stroke-width:5px;"/>
        <g>
            <circle cx="640" cy="194.952" r="5"/>
            <circle cx="660" cy="194.952" r="5"/>
            <circle cx="680" cy="194.952" r="5"/>
        </g>
        <rect x="50" y="94.952" width="1200" height="200" style="fill:none;stroke:black;stroke-width:5px;"/>
        <path d="M550.922,79.4l-0,-28.98l-2.268,0l-0,24.99l-19.11,-24.99l-2.268,0l0,28.98l2.268,0l-0,-25.41l19.32,25.41l2.058,0Z" style="fill-rule:nonzero;"/>
        <path d="M578.432,67.724l0,-17.304l-2.268,0l0,17.514c0,2.184 -0.042,4.83 -1.47,6.804c-1.386,1.89 -3.612,3.066 -6.552,3.066c-2.94,0 -5.166,-1.176 -6.552,-3.066c-1.428,-1.974 -1.47,-4.62 -1.47,-6.804l0,-17.514l-2.268,0l0,17.304c0,3.276 0.126,6.174 2.058,8.61c1.89,2.352 4.662,3.57 8.232,3.57c3.57,0 6.342,-1.218 8.232,-3.57c1.932,-2.436 2.058,-5.334 2.058,-8.61Z" style="fill-rule:nonzero;"/>
        <path d="M614.762,79.4l-2.94,-28.98l-2.646,0l-9.996,24.738l-9.954,-24.738l-2.604,0l-2.94,28.98l2.268,0l2.394,-25.2l10.752,25.704l0.21,0l10.71,-25.662l2.478,25.158l2.268,0Z" style="fill-rule:nonzero;"/>
        <path d="M643.112,79.4l-12.39,-29.064l-1.26,-0l-12.39,29.064l2.394,0l3.612,-8.694l13.818,0l3.57,8.694l2.646,0Zm-7.098,-10.794l-12.096,0l6.048,-14.826l6.048,14.826Z" style="fill-rule:nonzero;"/>
        <path d="M670.244,79.4l0,-11.634c0,-4.62 -1.302,-8.19 -6.888,-8.19c-2.814,0 -5.334,1.638 -6.3,3.948l-0,-3.612l-2.184,0l-0,19.488l2.184,0l-0,-9.66c-0,-4.62 2.016,-8.274 6.216,-8.274c4.2,0 4.746,3.234 4.746,6.384l0,11.55l2.226,0Z" style="fill-rule:nonzero;"/>
        <path d="M694.814,69.74c0,-5.88 -4.41,-10.164 -9.996,-10.164c-5.544,0 -9.954,4.284 -9.954,10.164c-0,5.88 4.41,10.08 9.954,10.08c5.586,0 9.996,-4.2 9.996,-10.08Zm-2.31,-0.084c0,4.494 -2.94,8.19 -7.686,8.19c-4.704,0 -7.644,-3.696 -7.644,-8.19c0,-4.536 2.94,-8.19 7.644,-8.19c4.746,0 7.686,3.654 7.686,8.19Z" style="fill-rule:nonzero;"/>
        <path d="M698.174,69.656c-0,5.754 3.78,10.164 9.66,10.164c2.94,0 5.586,-1.26 7.224,-4.032l-0,3.612l2.226,0l-0,-28.98l-2.226,0l-0,13.146c-1.89,-2.856 -4.494,-3.99 -7.308,-3.99c-5.796,0 -9.576,4.284 -9.576,10.08Zm2.31,0c0,-4.536 2.646,-8.19 7.35,-8.19c4.746,0 7.35,3.654 7.35,8.19c0,4.494 -2.604,8.19 -7.35,8.19c-4.704,0 -7.35,-3.696 -7.35,-8.19Z" style="fill-rule:nonzero;"/>
        <path d="M740.594,68.69c-0,-5.25 -3.696,-9.114 -8.82,-9.114c-5.166,0 -9.45,4.074 -9.45,10.08c-0,5.964 3.654,10.164 9.324,10.164c5.67,0 8.106,-2.94 8.106,-2.94l-1.05,-1.554c-0,0 -2.436,2.52 -6.846,2.52c-4.41,0 -7.014,-3.066 -7.224,-7.686l15.834,0c0,0 0.126,-0.84 0.126,-1.47Zm-2.226,-0.42l-13.65,0c0.126,-2.73 2.1,-6.804 6.93,-6.804c4.83,0 6.72,4.284 6.72,6.804Z" style="fill-rule:nonzero;"/>
        <path d="M772.724,64.952c-0,-7.476 -3.15,-14.952 -10.5,-14.952c-7.308,0 -10.5,7.476 -10.5,14.952c-0,7.434 3.15,14.91 10.5,14.91c7.35,0 10.5,-7.476 10.5,-14.91Zm-2.436,-0.084c-0,7.56 -2.814,12.894 -8.064,12.894c-5.25,0 -8.106,-5.334 -8.106,-12.894c-0,-7.56 2.856,-12.894 8.106,-12.894c5.25,0 8.064,5.334 8.064,12.894Z" style="fill-rule:nonzero;"/>
    </g>
    <g>
        <rect x="70" y="517.344" width="80" height="80" style="fill:rgb(137,194,212);"/>
        <rect x="70" y="437.344" width="80" height="160" style="fill:none;stroke:black;stroke-width:5px;"/>
        <path d="M70,517.344l80,0" style="fill:none;stroke:black;stroke-width:5px;"/>
        <path d="M88.76,571.813l-0,-28.98l-8.19,0l-0,1.89l5.964,0l-0,27.09l2.226,0Z" style="fill-rule:nonzero;"/>
        <path d="M118.16,565.093l-0,-2.1l-4.452,0l-0,-20.37l-2.058,0l-15.12,20.79l-0,1.68l14.952,0l-0,6.72l2.226,0l-0,-6.72l4.452,0Zm-6.678,-2.1l-12.432,0l12.432,-17.01l-0,17.01Z" style="fill-rule:nonzero;"/>
        <path d="M141.68,565.093l-0,-2.1l-4.452,0l-0,-20.37l-2.058,0l-15.12,20.79l-0,1.68l14.952,0l-0,6.72l2.226,0l-0,-6.72l4.452,0Zm-6.678,-2.1l-12.432,0l12.432,-17.01l-0,17.01Z" style="fill-rule:nonzero;"/>
        <path d="M98.19,491.33l-0,-28.98l-8.19,0l-0,1.89l5.964,0l-0,27.09l2.226,0Z" style="fill-rule:nonzero;"/>
        <path d="M126.54,482.09c-0,-5.46 -4.326,-8.946 -8.946,-8.946c-4.62,0 -7.014,2.646 -8.19,5.376c-0,-5.796 1.218,-14.7 8.736,-14.7c2.94,0 4.83,1.26 6.384,2.73l1.26,-1.554c-0,0 -2.394,-3.066 -7.56,-3.066c-8.442,0 -11.004,8.484 -11.004,15.54c-0,6.678 1.764,14.364 10.08,14.364c5.67,0 9.24,-4.284 9.24,-9.744Zm-2.31,0.378c-0,3.78 -2.226,7.35 -6.93,7.35c-4.746,0 -7.056,-3.57 -7.056,-7.35c-0,-3.78 2.31,-7.35 7.056,-7.35c4.704,0 6.93,3.57 6.93,7.35Z" style="fill-rule:nonzero;"/>
        <rect x="210" y="517.344" width="80" height="80" style="fill:rgb(137,194,212);"/>
        <rect x="210" y="437.344" width="80" height="160" style="fill:none;stroke:black;stroke-width:5px;"/>
        <path d="M210,517.344l80,0" style="fill:none;stroke:black;stroke-width:5px;"/>
        <path d="M228.76,571.813l-0,-28.98l-8.19,0l-0,1.89l5.964,0l-0,27.09l2.226,0Z" style="fill-rule:nonzero;"/>
        <path d="M258.16,565.093l-0,-2.1l-4.452,0l-0,-20.37l-2.058,0l-15.12,20.79l-0,1.68l14.952,0l-0,6.72l2.226,0l-0,-6.72l4.452,0Zm-6.678,-2.1l-12.432,0l12.432,-17.01l-0,17.01Z" style="fill-rule:nonzero;"/>
        <path d="M279.79,562.783c-0,-6.09 -4.83,-9.45 -9.66,-9.45c-1.47,0 -3.066,0.21 -4.326,0.84l2.016,-9.324l11.34,0l0,-2.016l-13.02,0l-2.73,13.23l1.47,0.84c1.05,-1.05 3.15,-1.554 5.04,-1.554c3.78,0 7.56,2.394 7.56,7.434c-0,5.04 -3.78,7.476 -7.56,7.476c-3.78,0 -6.3,-2.016 -7.35,-4.116l-1.68,1.26c0.84,1.68 3.57,4.914 8.82,4.914c5.25,0 10.08,-3.444 10.08,-9.534Z" style="fill-rule:nonzero;"/>
        <path d="M239.605,491.414l-0,-28.98l-8.19,0l-0,1.89l5.964,0l-0,27.09l2.226,0Z" style="fill-rule:nonzero;"/>
        <path d="M268.585,463.694l-0.63,-1.26l-19.11,0l0,2.016l17.01,0l-14.28,26.964l2.31,0l14.7,-27.72Z" style="fill-rule:nonzero;"/>
        <path d="M165,544.844l-15,-7.5l15,-7.5l-0,15Z" style="fill:rgb(0,78,142);"/>
        <path d="M150,497.344l20,0l-0,40l-8,0" style="fill:none;stroke:rgb(0,78,142);stroke-width:5px;"/>
        <path d="M195,449.844l15,7.5l-15,7.5l-0,-15Z" style="fill:rgb(0,78,142);"/>
        <path d="M150,577.344l40,0l-0,-120l8,0" style="fill:none;stroke:rgb(0,78,142);stroke-width:5px;"/>
        <rect x="350" y="517.344" width="80" height="80" style="fill:rgb(137,194,212);"/>
        <rect x="350" y="437.344" width="80" height="160" style="fill:none;stroke:black;stroke-width:5px;"/>
        <path d="M350,517.344l80,0" style="fill:none;stroke:black;stroke-width:5px;"/>
        <path d="M368.76,571.813l-0,-28.98l-8.19,0l-0,1.89l5.964,0l-0,27.09l2.226,0Z" style="fill-rule:nonzero;"/>
        <path d="M398.16,565.093l-0,-2.1l-4.452,0l-0,-20.37l-2.058,0l-15.12,20.79l-0,1.68l14.952,0l-0,6.72l2.226,0l-0,-6.72l4.452,0Zm-6.678,-2.1l-12.432,0l12.432,-17.01l-0,17.01Z" style="fill-rule:nonzero;"/>
        <path d="M420.63,562.573c-0,-5.46 -4.326,-8.946 -8.946,-8.946c-4.62,0 -7.014,2.646 -8.19,5.376c-0,-5.796 1.218,-14.7 8.736,-14.7c2.94,0 4.83,1.26 6.384,2.73l1.26,-1.554c0,0 -2.394,-3.066 -7.56,-3.066c-8.442,0 -11.004,8.484 -11.004,15.54c0,6.678 1.764,14.364 10.08,14.364c5.67,0 9.24,-4.284 9.24,-9.744Zm-2.31,0.378c0,3.78 -2.226,7.35 -6.93,7.35c-4.746,0 -7.056,-3.57 -7.056,-7.35c0,-3.78 2.31,-7.35 7.056,-7.35c4.704,0 6.93,3.57 6.93,7.35Z" style="fill-rule:nonzero;"/>
        <path d="M380.235,491.876l-0,-28.98l-8.19,0l-0,1.89l5.964,0l-0,27.09l2.226,0Z" style="fill-rule:nonzero;"/>
        <path d="M407.955,484.022c0,-3.78 -2.31,-6.426 -5.586,-7.476l0,-0.084c1.806,-0.756 4.62,-2.226 4.62,-6.72c0,-4.536 -3.864,-7.266 -8.274,-7.266c-4.41,0 -8.316,2.73 -8.316,7.266c0,4.494 2.856,5.964 4.62,6.72l0,0.084c-3.234,1.05 -5.544,3.696 -5.544,7.476c-0,5.25 3.78,8.316 9.24,8.316c5.46,0 9.24,-3.066 9.24,-8.316Zm-3.276,-14.028c-0,3.57 -2.604,5.502 -5.964,5.502c-3.36,0 -6.006,-1.932 -6.006,-5.502c-0,-3.57 2.646,-5.502 6.006,-5.502c3.36,0 5.964,1.932 5.964,5.502Zm0.966,13.902c-0,3.99 -3.15,6.468 -6.93,6.468c-3.78,0 -6.93,-2.478 -6.93,-6.468c-0,-3.99 2.94,-6.384 6.93,-6.384c3.99,0 6.93,2.394 6.93,6.384Z" style="fill-rule:nonzero;"/>
        <path d="M305,544.844l-15,-7.5l15,-7.5l0,15Z" style="fill:rgb(0,78,142);"/>
        <path d="M290,497.344l20,0l0,40l-8,0" style="fill:none;stroke:rgb(0,78,142);stroke-width:5px;"/>
        <path d="M335,449.844l15,7.5l-15,7.5l0,-15Z" style="fill:rgb(0,78,142);"/>
        <path d="M290,577.344l40,0l0,-120l8,0" style="fill:none;stroke:rgb(0,78,142);stroke-width:5px;"/>
        <rect x="490" y="517.344" width="80" height="80" style="fill:rgb(137,194,212);"/>
        <rect x="490" y="437.344" width="80" height="160" style="fill:none;stroke:black;stroke-width:5px;"/>
        <path d="M490,517.344l80,0" style="fill:none;stroke:black;stroke-width:5px;"/>
        <path d="M508.76,571.813l-0,-28.98l-8.19,0l-0,1.89l5.964,0l-0,27.09l2.226,0Z" style="fill-rule:nonzero;"/>
        <path d="M538.16,565.093l0,-2.1l-4.452,0l0,-20.37l-2.058,0l-15.12,20.79l0,1.68l14.952,0l0,6.72l2.226,0l0,-6.72l4.452,0Zm-6.678,-2.1l-12.432,0l12.432,-17.01l0,17.01Z" style="fill-rule:nonzero;"/>
        <path d="M559.79,544.093l-0.63,-1.26l-19.11,0l0,2.016l17.01,0l-14.28,26.964l2.31,0l14.7,-27.72Z" style="fill-rule:nonzero;"/>
        <path d="M520.13,491.33l0,-28.98l-8.19,0l-0,1.89l5.964,0l0,27.09l2.226,0Z" style="fill-rule:nonzero;"/>
        <path d="M548.06,476.21c-0,-6.678 -1.806,-14.28 -10.08,-14.28c-5.67,0 -9.24,4.284 -9.24,9.744c-0,5.46 4.284,8.946 8.904,8.946c4.62,0 7.056,-2.73 8.19,-5.46c-0,5.46 -1.05,9.24 -2.52,11.466c-1.47,2.184 -3.15,3.234 -6.09,3.234c-2.898,0 -5.124,-1.134 -6.72,-2.604l-1.26,1.554c0.42,0.42 2.73,3.024 7.98,3.024c8.358,0 10.836,-8.694 10.836,-15.624Zm-3.066,-4.956c-0,3.78 -2.31,7.35 -7.014,7.35c-4.746,0 -6.93,-3.57 -6.93,-7.35c-0,-3.78 2.184,-7.35 6.93,-7.35c4.704,0 7.014,3.57 7.014,7.35Z" style="fill-rule:nonzero;"/>
        <path d="M445,544.844l-15,-7.5l15,-7.5l0,15Z" style="fill:rgb(0,78,142);"/>
        <path d="M430,497.344l20,0l0,40l-8,0" style="fill:none;stroke:rgb(0,78,142);stroke-width:5px;"/>
        <path d="M475,449.844l15,7.5l-15,7.5l0,-15Z" style="fill:rgb(0,78,142);"/>
        <path d="M430,577.344l40,0l0,-120l8,0" style="fill:none;stroke:rgb(0,78,142);stroke-width:5px;"/>
        <path d="M615,509.844l15,7.5l-15,7.5l0,-15Z" style="fill:rgb(0,78,142);"/>
        <path d="M570,577.344l40,0l0,-60l8,0" style="fill:none;stroke:rgb(0,78,142);stroke-width:5px;"/>
        <rect x="710" y="517.344" width="80" height="80" style="fill:rgb(137,194,212);"/>
        <rect x="710" y="437.344" width="80" height="160" style="fill:none;stroke:black;stroke-width:5px;"/>
        <path d="M710,517.344l80,0" style="fill:none;stroke:black;stroke-width:5px;"/>
        <path d="M728.76,571.813l0,-28.98l-8.19,0l0,1.89l5.964,0l0,27.09l2.226,0Z" style="fill-rule:nonzero;"/>
        <path d="M756.27,562.783c0,-6.09 -4.83,-9.45 -9.66,-9.45c-1.47,0 -3.066,0.21 -4.326,0.84l2.016,-9.324l11.34,0l0,-2.016l-13.02,0l-2.73,13.23l1.47,0.84c1.05,-1.05 3.15,-1.554 5.04,-1.554c3.78,-0 7.56,2.394 7.56,7.434c0,5.04 -3.78,7.476 -7.56,7.476c-3.78,0 -6.3,-2.016 -7.35,-4.116l-1.68,1.26c0.84,1.68 3.57,4.914 8.82,4.914c5.25,0 10.08,-3.444 10.08,-9.534Z" style="fill-rule:nonzero;"/>
        <path d="M780.63,562.573c0,-5.46 -4.326,-8.946 -8.946,-8.946c-4.62,0 -7.014,2.646 -8.19,5.376c0,-5.796 1.218,-14.7 8.736,-14.7c2.94,0 4.83,1.26 6.384,2.73l1.26,-1.554c0,0 -2.394,-3.066 -7.56,-3.066c-8.442,0 -11.004,8.484 -11.004,15.54c0,6.678 1.764,14.364 10.08,14.364c5.67,0 9.24,-4.284 9.24,-9.744Zm-2.31,0.378c0,3.78 -2.226,7.35 -6.93,7.35c-4.746,0 -7.056,-3.57 -7.056,-7.35c0,-3.78 2.31,-7.35 7.056,-7.35c4.704,0 6.93,3.57 6.93,7.35Z" style="fill-rule:nonzero;"/>
        <path d="M750.84,491.939l0,-2.1l-15.75,0l8.4,-8.19c1.47,-1.47 6.174,-5.46 6.174,-10.584c0,-5.166 -3.864,-8.526 -9.114,-8.526c-5.25,0 -7.77,3.78 -8.82,6.09l1.68,1.05c0.84,-1.89 2.94,-5.124 7.14,-5.124c4.2,0 6.804,2.814 6.804,6.594c0,3.78 -3.024,6.93 -4.914,8.82l-10.5,10.29l0.42,1.68l18.48,0Z" style="fill-rule:nonzero;"/>
        <path d="M773.73,484.085c0,-3.78 -2.31,-6.426 -5.586,-7.476l0,-0.084c1.806,-0.756 4.62,-2.226 4.62,-6.72c0,-4.536 -3.864,-7.266 -8.274,-7.266c-4.41,0 -8.316,2.73 -8.316,7.266c0,4.494 2.856,5.964 4.62,6.72l0,0.084c-3.234,1.05 -5.544,3.696 -5.544,7.476c0,5.25 3.78,8.316 9.24,8.316c5.46,0 9.24,-3.066 9.24,-8.316Zm-3.276,-14.028c0,3.57 -2.604,5.502 -5.964,5.502c-3.36,0 -6.006,-1.932 -6.006,-5.502c0,-3.57 2.646,-5.502 6.006,-5.502c3.36,0 5.964,1.932 5.964,5.502Zm0.966,13.902c0,3.99 -3.15,6.468 -6.93,6.468c-3.78,0 -6.93,-2.478 -6.93,-6.468c-0,-3.99 2.94,-6.384 6.93,-6.384c3.99,0 6.93,2.394 6.93,6.384Z" style="fill-rule:nonzero;"/>
        <rect x="850" y="517.344" width="80" height="80" style="fill:rgb(137,194,212);"/>
        <rect x="850" y="437.344" width="80" height="160" style="fill:none;stroke:black;stroke-width:5px;"/>
        <path d="M850,517.344l80,0" style="fill:none;stroke:black;stroke-width:5px;"/>
        <path d="M868.76,571.813l0,-28.98l-8.19,0l0,1.89l5.964,0l0,27.09l2.226,0Z" style="fill-rule:nonzero;"/>
        <path d="M896.27,562.783c0,-6.09 -4.83,-9.45 -9.66,-9.45c-1.47,0 -3.066,0.21 -4.326,0.84l2.016,-9.324l11.34,0l0,-2.016l-13.02,0l-2.73,13.23l1.47,0.84c1.05,-1.05 3.15,-1.554 5.04,-1.554c3.78,-0 7.56,2.394 7.56,7.434c0,5.04 -3.78,7.476 -7.56,7.476c-3.78,0 -6.3,-2.016 -7.35,-4.116l-1.68,1.26c0.84,1.68 3.57,4.914 8.82,4.914c5.25,0 10.08,-3.444 10.08,-9.534Z" style="fill-rule:nonzero;"/>
        <path d="M920.21,544.093l-0.63,-1.26l-19.11,0l0,2.016l17.01,0l-14.28,26.964l2.31,0l14.7,-27.72Z" style="fill-rule:nonzero;"/>
        <path d="M891.26,492.344l-0,-2.1l-15.75,0l8.4,-8.19c1.47,-1.47 6.174,-5.46 6.174,-10.584c-0,-5.166 -3.864,-8.526 -9.114,-8.526c-5.25,0 -7.77,3.78 -8.82,6.09l1.68,1.05c0.84,-1.89 2.94,-5.124 7.14,-5.124c4.2,0 6.804,2.814 6.804,6.594c0,3.78 -3.024,6.93 -4.914,8.82l-10.5,10.29l0.42,1.68l18.48,0Z" style="fill-rule:nonzero;"/>
        <path d="M914.36,477.224c-0,-6.678 -1.806,-14.28 -10.08,-14.28c-5.67,0 -9.24,4.284 -9.24,9.744c-0,5.46 4.284,8.946 8.904,8.946c4.62,0 7.056,-2.73 8.19,-5.46c-0,5.46 -1.05,9.24 -2.52,11.466c-1.47,2.184 -3.15,3.234 -6.09,3.234c-2.898,0 -5.124,-1.134 -6.72,-2.604l-1.26,1.554c0.42,0.42 2.73,3.024 7.98,3.024c8.358,0 10.836,-8.694 10.836,-15.624Zm-3.066,-4.956c-0,3.78 -2.31,7.35 -7.014,7.35c-4.746,0 -6.93,-3.57 -6.93,-7.35c-0,-3.78 2.184,-7.35 6.93,-7.35c4.704,0 7.014,3.57 7.014,7.35Z" style="fill-rule:nonzero;"/>
        <path d="M805,544.844l-15,-7.5l15,-7.5l0,15Z" style="fill:rgb(0,78,142);"/>
        <path d="M790,497.344l20,0l0,40l-8,0" style="fill:none;stroke:rgb(0,78,142);stroke-width:5px;"/>
        <path d="M835,449.844l15,7.5l-15,7.5l0,-15Z" style="fill:rgb(0,78,142);"/>
        <path d="M790,577.344l40,0l0,-120l8,0" style="fill:none;stroke:rgb(0,78,142);stroke-width:5px;"/>
        <rect x="990" y="517.344" width="80" height="80" style="fill:rgb(137,194,212);"/>
        <rect x="990" y="437.344" width="80" height="160" style="fill:none;stroke:black;stroke-width:5px;"/>
        <path d="M990,517.344l80,0" style="fill:none;stroke:black;stroke-width:5px;"/>
        <path d="M1008.76,571.813l0,-28.98l-8.19,0l0,1.89l5.964,0l0,27.09l2.226,0Z" style="fill-rule:nonzero;"/>
        <path d="M1036.27,562.783c0,-6.09 -4.83,-9.45 -9.66,-9.45c-1.47,0 -3.066,0.21 -4.326,0.84l2.016,-9.324l11.34,0l0,-2.016l-13.02,0l-2.73,13.23l1.47,0.84c1.05,-1.05 3.15,-1.554 5.04,-1.554c3.78,-0 7.56,2.394 7.56,7.434c0,5.04 -3.78,7.476 -7.56,7.476c-3.78,0 -6.3,-2.016 -7.35,-4.116l-1.68,1.26c0.84,1.68 3.57,4.914 8.82,4.914c5.25,0 10.08,-3.444 10.08,-9.534Z" style="fill-rule:nonzero;"/>
        <path d="M1060,563.959c0,-3.78 -2.31,-6.426 -5.586,-7.476l0,-0.084c1.806,-0.756 4.62,-2.226 4.62,-6.72c0,-4.536 -3.864,-7.266 -8.274,-7.266c-4.41,0 -8.316,2.73 -8.316,7.266c0,4.494 2.856,5.964 4.62,6.72l0,0.084c-3.234,1.05 -5.544,3.696 -5.544,7.476c0,5.25 3.78,8.316 9.24,8.316c5.46,0 9.24,-3.066 9.24,-8.316Zm-3.276,-14.028c0,3.57 -2.604,5.502 -5.964,5.502c-3.36,0 -6.006,-1.932 -6.006,-5.502c0,-3.57 2.646,-5.502 6.006,-5.502c3.36,0 5.964,1.932 5.964,5.502Zm0.966,13.902c0,3.99 -3.15,6.468 -6.93,6.468c-3.78,0 -6.93,-2.478 -6.93,-6.468c0,-3.99 2.94,-6.384 6.93,-6.384c3.99,0 6.93,2.394 6.93,6.384Z" style="fill-rule:nonzero;"/>
        <path d="M1029.47,484.19c0,-4.956 -3.78,-7.056 -5.88,-7.35l0,-0.126c1.68,-0.42 5.04,-2.1 5.04,-6.72c0,-4.62 -3.99,-7.35 -8.4,-7.35c-4.41,0 -6.762,2.1 -8.61,4.41l1.47,1.26c1.68,-1.89 3.57,-3.654 6.93,-3.654c3.36,0 6.3,1.974 6.3,5.544c0,3.57 -2.52,5.586 -6.09,5.586l-1.89,0l-0,2.184l1.89,0c3.78,0 6.93,2.1 6.93,6.216c0,4.074 -3.066,6.258 -7.476,6.258c-4.41,0 -7.014,-4.368 -7.014,-4.368l-1.68,1.344c-0,0 2.814,5.04 8.61,5.04c5.754,0 9.87,-3.36 9.87,-8.274Z" style="fill-rule:nonzero;"/>
        <path d="M1054.46,477.596c0,-7.476 -3.15,-14.952 -10.5,-14.952c-7.308,0 -10.5,7.476 -10.5,14.952c0,7.434 3.15,14.91 10.5,14.91c7.35,0 10.5,-7.476 10.5,-14.91Zm-2.436,-0.084c0,7.56 -2.814,12.894 -8.064,12.894c-5.25,0 -8.106,-5.334 -8.106,-12.894c0,-7.56 2.856,-12.894 8.106,-12.894c5.25,0 8.064,5.334 8.064,12.894Z" style="fill-rule:nonzero;"/>
        <path d="M945,544.844l-15,-7.5l15,-7.5l0,15Z" style="fill:rgb(0,78,142);"/>
        <path d="M930,497.344l20,0l0,40l-8,0" style="fill:none;stroke:rgb(0,78,142);stroke-width:5px;"/>
        <path d="M975,449.844l15,7.5l-15,7.5l0,-15Z" style="fill:rgb(0,78,142);"/>
        <path d="M930,577.344l40,0l0,-120l8,0" style="fill:none;stroke:rgb(0,78,142);stroke-width:5px;"/>
        <rect x="1130" y="517.344" width="80" height="80" style="fill:rgb(137,194,212);"/>
        <rect x="1130" y="437.344" width="80" height="160" style="fill:none;stroke:black;stroke-width:5px;"/>
        <path d="M1130,517.344l80,0" style="fill:none;stroke:black;stroke-width:5px;"/>
        <path d="M1148.76,571.813l0,-28.98l-8.19,0l0,1.89l5.964,0l0,27.09l2.226,0Z" style="fill-rule:nonzero;"/>
        <path d="M1176.27,562.783c0,-6.09 -4.83,-9.45 -9.66,-9.45c-1.47,0 -3.066,0.21 -4.326,0.84l2.016,-9.324l11.34,0l0,-2.016l-13.02,0l-2.73,13.23l1.47,0.84c1.05,-1.05 3.15,-1.554 5.04,-1.554c3.78,-0 7.56,2.394 7.56,7.434c0,5.04 -3.78,7.476 -7.56,7.476c-3.78,0 -6.3,-2.016 -7.35,-4.116l-1.68,1.26c0.84,1.68 3.57,4.914 8.82,4.914c5.25,0 10.08,-3.444 10.08,-9.534Z" style="fill-rule:nonzero;"/>
        <path d="M1200.21,556.693c0,-6.678 -1.806,-14.28 -10.08,-14.28c-5.67,0 -9.24,4.284 -9.24,9.744c0,5.46 4.284,8.946 8.904,8.946c4.62,0 7.056,-2.73 8.19,-5.46c-0,5.46 -1.05,9.24 -2.52,11.466c-1.47,2.184 -3.15,3.234 -6.09,3.234c-2.898,0 -5.124,-1.134 -6.72,-2.604l-1.26,1.554c0.42,0.42 2.73,3.024 7.98,3.024c8.358,0 10.836,-8.694 10.836,-15.624Zm-3.066,-4.956c-0,3.78 -2.31,7.35 -7.014,7.35c-4.746,0 -6.93,-3.57 -6.93,-7.35c-0,-3.78 2.184,-7.35 6.93,-7.35c4.704,0 7.014,3.57 7.014,7.35Z" style="fill-rule:nonzero;"/>
        <path d="M1170.42,483.728c-0,-4.956 -3.78,-7.056 -5.88,-7.35l0,-0.126c1.68,-0.42 5.04,-2.1 5.04,-6.72c0,-4.62 -3.99,-7.35 -8.4,-7.35c-4.41,0 -6.762,2.1 -8.61,4.41l1.47,1.26c1.68,-1.89 3.57,-3.654 6.93,-3.654c3.36,0 6.3,1.974 6.3,5.544c0,3.57 -2.52,5.586 -6.09,5.586l-1.89,0l0,2.184l1.89,0c3.78,0 6.93,2.1 6.93,6.216c-0,4.074 -3.066,6.258 -7.476,6.258c-4.41,0 -7.014,-4.368 -7.014,-4.368l-1.68,1.344c-0,0 2.814,5.04 8.61,5.04c5.754,0 9.87,-3.36 9.87,-8.274Z" style="fill-rule:nonzero;"/>
        <path d="M1183.86,491.582l-0,-28.98l-8.19,0l-0,1.89l5.964,0l-0,27.09l2.226,0Z" style="fill-rule:nonzero;"/>
        <path d="M1085,544.844l-15,-7.5l15,-7.5l0,15Z" style="fill:rgb(0,78,142);"/>
        <path d="M1070,497.344l20,0l0,40l-8,0" style="fill:none;stroke:rgb(0,78,142);stroke-width:5px;"/>
        <path d="M1225,549.844l-15,-7.5l15,-7.5l0,15Z" style="fill:rgb(0,78,142);"/>
        <path d="M1210,502.344l20,0l0,40l-8,0" style="fill:none;stroke:rgb(0,78,142);stroke-width:5px;"/>
        <path d="M1115,449.844l15,7.5l-15,7.5l0,-15Z" style="fill:rgb(0,78,142);"/>
        <path d="M1070,577.344l40,0l0,-120l8,0" style="fill:none;stroke:rgb(0,78,142);stroke-width:5px;"/>
        <g>
            <circle cx="640" cy="517.344" r="5"/>
            <circle cx="660" cy="517.344" r="5"/>
            <circle cx="680" cy="517.344" r="5"/>
        </g>
        <rect x="50" y="417.344" width="1200" height="200" style="fill:none;stroke:black;stroke-width:5px;"/>
        <path d="M559.748,401.624l-0,-28.98l-2.268,-0l-0,24.99l-19.11,-24.99l-2.268,-0l0,28.98l2.268,-0l-0,-25.41l19.32,25.41l2.058,-0Z" style="fill-rule:nonzero;"/>
        <path d="M587.258,389.948l0,-17.304l-2.268,-0l0,17.514c0,2.184 -0.042,4.83 -1.47,6.804c-1.386,1.89 -3.612,3.066 -6.552,3.066c-2.94,0 -5.166,-1.176 -6.552,-3.066c-1.428,-1.974 -1.47,-4.62 -1.47,-6.804l0,-17.514l-2.268,-0l0,17.304c0,3.276 0.126,6.174 2.058,8.61c1.89,2.352 4.662,3.57 8.232,3.57c3.57,0 6.342,-1.218 8.232,-3.57c1.932,-2.436 2.058,-5.334 2.058,-8.61Z" style="fill-rule:nonzero;"/>
        <path d="M623.588,401.624l-2.94,-28.98l-2.646,-0l-9.996,24.738l-9.954,-24.738l-2.604,-0l-2.94,28.98l2.268,-0l2.394,-25.2l10.752,25.704l0.21,-0l10.71,-25.662l2.478,25.158l2.268,-0Z" style="fill-rule:nonzero;"/>
        <path d="M651.938,401.624l-12.39,-29.064l-1.26,-0l-12.39,29.064l2.394,-0l3.612,-8.694l13.818,-0l3.57,8.694l2.646,-0Zm-7.098,-10.794l-12.096,-0l6.048,-14.826l6.048,14.826Z" style="fill-rule:nonzero;"/>
        <path d="M679.07,401.624l0,-11.634c0,-4.62 -1.302,-8.19 -6.888,-8.19c-2.814,-0 -5.334,1.638 -6.3,3.948l-0,-3.612l-2.184,0l-0,19.488l2.184,0l-0,-9.66c-0,-4.62 2.016,-8.274 6.216,-8.274c4.2,0 4.746,3.234 4.746,6.384l0,11.55l2.226,0Z" style="fill-rule:nonzero;"/>
        <path d="M703.64,391.964c0,-5.88 -4.41,-10.164 -9.996,-10.164c-5.544,-0 -9.954,4.284 -9.954,10.164c-0,5.88 4.41,10.08 9.954,10.08c5.586,0 9.996,-4.2 9.996,-10.08Zm-2.31,-0.084c0,4.494 -2.94,8.19 -7.686,8.19c-4.704,0 -7.644,-3.696 -7.644,-8.19c0,-4.536 2.94,-8.19 7.644,-8.19c4.746,-0 7.686,3.654 7.686,8.19Z" style="fill-rule:nonzero;"/>
        <path d="M707,391.88c-0,5.754 3.78,10.164 9.66,10.164c2.94,0 5.586,-1.26 7.224,-4.032l-0,3.612l2.226,-0l-0,-28.98l-2.226,-0l-0,13.146c-1.89,-2.856 -4.494,-3.99 -7.308,-3.99c-5.796,-0 -9.576,4.284 -9.576,10.08Zm2.31,0c0,-4.536 2.646,-8.19 7.35,-8.19c4.746,-0 7.35,3.654 7.35,8.19c0,4.494 -2.604,8.19 -7.35,8.19c-4.704,0 -7.35,-3.696 -7.35,-8.19Z" style="fill-rule:nonzero;"/>
        <path d="M749.42,390.914c0,-5.25 -3.696,-9.114 -8.82,-9.114c-5.166,-0 -9.45,4.074 -9.45,10.08c0,5.964 3.654,10.164 9.324,10.164c5.67,0 8.106,-2.94 8.106,-2.94l-1.05,-1.554c0,-0 -2.436,2.52 -6.846,2.52c-4.41,0 -7.014,-3.066 -7.224,-7.686l15.834,-0c0,-0 0.126,-0.84 0.126,-1.47Zm-2.226,-0.42l-13.65,0c0.126,-2.73 2.1,-6.804 6.93,-6.804c4.83,-0 6.72,4.284 6.72,6.804Z" style="fill-rule:nonzero;"/>
        <path d="M770,401.624l0,-28.98l-8.19,-0l0,1.89l5.964,0l0,27.09l2.226,0Z" style="fill-rule:nonzero;"/>
    </g>
    <path d="M117.5,422.344l-7.5,15l-7.5,-15l15,0Z" style="fill:rgb(0,78,142);"/>
    <path d="M1210,254.952l20,0l0,80l-1120,40l0,50.392" style="fill:none;stroke:rgb(0,78,142);stroke-width:5px;"/>
</svg>
