<?xml version="1.0" encoding="UTF-8" standalone="no"?>
<!DOCTYPE svg PUBLIC "-//W3C//DTD SVG 1.1//EN" "http://www.w3.org/Graphics/SVG/1.1/DTD/svg11.dtd">
<svg width="100%" height="100%" viewBox="0 0 1423 979" version="1.1" xmlns="http://www.w3.org/2000/svg" xmlns:xlink="http://www.w3.org/1999/xlink" xml:space="preserve" xmlns:serif="http://www.serif.com/" style="fill-rule:evenodd;clip-rule:evenodd;stroke-linecap:round;stroke-linejoin:round;stroke-miterlimit:1.5;">
    <g>
        <g>
            <g>
                <path d="M50,494.885l664.226,383.491l443.399,-255.996l-0,-29.999l-664.226,-383.491l-443.399,255.996l-0,29.999Z" style="fill:none;stroke:rgb(161,161,161);stroke-width:7.5px;"/>
                <path d="M50,464.886l664.226,383.491l443.399,-255.996" style="fill:none;stroke:rgb(161,161,161);stroke-width:7.5px;"/>
                <path d="M714.226,848.377l-0,29.999" style="fill:none;stroke:rgb(161,161,161);stroke-width:7.5px;"/>
            </g>
            <path d="M770.233,922.664l2.383,-1.376l-18.179,-10.496l5.875,-3.392c6.097,-3.52 8.813,-8.864 2.051,-12.768c-6.374,-3.679 -14.577,-3.167 -22.115,1.184l-8.258,4.768l38.243,22.08Zm-11.861,-16.704l-6.152,3.552l-15.63,-9.024l6.042,-3.488c5.431,-3.135 11.805,-4.063 17.237,-0.928c5.154,2.976 3.214,7.168 -1.497,9.888Z" style="fill-rule:nonzero;"/>
            <path d="M796.948,907.24l2.272,-1.312l-14.576,-8.416c-3.88,-2.24 -4.656,-3.839 -4.933,-5.023c-0.111,-0.64 -0.222,-2.432 2.106,-3.776c1.219,-0.704 2.55,-1.28 3.436,-1.536l-2.106,-1.6c0,-0 -1.773,0.64 -3.381,1.568c-2.771,1.6 -3.658,3.968 -1.552,6.656l-4.544,-2.624l-2.273,1.312l25.551,14.751Z" style="fill-rule:nonzero;"/>
            <path d="M824.162,876.745c-7.483,-4.32 -18.235,-4.704 -26.161,-0.128c-7.926,4.576 -7.261,10.784 0.222,15.104c7.704,4.447 18.401,4.799 26.327,0.224c7.925,-4.576 7.316,-10.752 -0.388,-15.2Zm-2.439,1.472c6.041,3.488 7.094,8.768 0.665,12.48c-6.429,3.712 -15.574,3.104 -21.616,-0.384c-6.263,-3.616 -6.983,-8.768 -0.609,-12.448c6.373,-3.68 15.297,-3.264 21.56,0.352Z" style="fill-rule:nonzero;"/>
            <path d="M812.301,858.185c-1.22,-0.704 -3.104,-0.704 -4.268,-0.032c-1.164,0.672 -1.164,1.76 0.055,2.464c1.164,0.672 3.104,0.704 4.268,0.032c1.164,-0.672 1.109,-1.792 -0.055,-2.464Zm33.255,30.784l2.05,1.184c0,-0 1.164,-0.16 2.716,-1.056c6.429,-3.712 1.607,-6.88 -3.492,-9.824l-26.271,-15.168l-2.272,1.312l26.271,15.168c4.212,2.432 8.369,4.704 4.157,7.136c-1.053,0.608 -2.106,1.024 -3.159,1.248Z" style="fill-rule:nonzero;"/>
            <path d="M872.27,859.977l-2.826,-0.288c-0,0 0.166,3.744 -5.487,7.008c-5.931,3.424 -14.134,3.168 -20.729,-0.32l21.061,-12.16c0,0 -0.887,-0.704 -1.663,-1.152c-6.817,-3.936 -16.35,-4.32 -23.389,-0.256c-6.762,3.904 -6.873,10.176 0.998,14.72c7.704,4.448 18.013,4.96 25.384,0.704c7.427,-4.288 6.707,-8.352 6.651,-8.256Zm-12.47,-5.728l-18.734,10.816c-3.99,-2.496 -5.819,-7.456 0.166,-10.912c6.651,-3.84 15.131,-1.888 18.568,0.096Z" style="fill-rule:nonzero;"/>
            <path d="M900.204,843.017l-3.048,0.096c0,0 0.665,3.968 -4.822,7.136c-5.986,3.456 -14.965,3.2 -21.56,-0.608c-6.374,-3.68 -6.319,-8.832 -0.721,-12.064c5.21,-3.008 9.811,-2.784 12.305,-2.688l0.332,-1.856c-1.441,-0.128 -7.926,-0.736 -14.687,3.168c-7.095,4.096 -7.316,10.496 0.443,14.976c7.815,4.512 18.955,4.48 25.939,0.448c6.762,-3.904 5.986,-7.36 5.819,-8.608Z" style="fill-rule:nonzero;"/>
            <path d="M918.993,836.521l-2.327,-1.024c-0,0 -0.388,1.056 -2.051,2.016c-3.436,1.984 -6.429,0.768 -10.143,-1.376l-15.408,-8.896l6.596,-3.807l-2.217,-1.28l-6.541,3.775l-8.258,-4.767l-2.328,1.344l8.259,4.767l-3.88,2.24l2.217,1.28l3.88,-2.24l13.246,7.648c4.212,2.432 6.984,3.776 9.533,4.16c2.383,0.288 4.656,-0.192 6.762,-1.408c1.607,-0.928 2.494,-1.76 2.66,-2.432Z" style="fill-rule:nonzero;"/>
        </g>
        <g>
            <g>
                <path d="M479.209,50l7.402,224.231l-113.08,65.287l-63.943,-191.587l169.621,-97.931Z" style="fill:rgb(196,196,196);stroke:rgb(137,194,212);stroke-width:10px;"/>
                <path d="M479.209,50l7.402,224.231l113.081,65.287l49.138,-191.587l-169.621,-97.931Z" style="fill:rgb(232,232,232);stroke:rgb(137,194,212);stroke-width:10px;"/>
                <g>
                    <path d="M430.799,257.489l-32.699,18.879l-0,37.758l32.699,18.879l32.7,-18.879l-0,-37.758l-32.7,-18.879Z" style="fill:rgb(92,191,147);stroke:rgb(5,77,0);stroke-width:10px;"/>
                    <path d="M430.799,295.247l0,37.758" style="fill:none;stroke:rgb(5,77,0);stroke-width:10px;"/>
                    <path d="M398.1,276.368l32.699,18.879l28.333,-16.358" style="fill:none;stroke:rgb(5,77,0);stroke-width:10px;"/>
                </g>
                <g>
                    <path d="M531.32,240.008l-32.7,18.879l0,37.759l32.7,18.879l32.7,-18.879l-0,-37.759l-32.7,-18.879Z" style="fill:rgb(198,144,210);stroke:rgb(174,87,193);stroke-width:10px;"/>
                    <path d="M531.32,277.766l-0,37.759" style="fill:none;stroke:rgb(174,87,193);stroke-width:10px;"/>
                    <path d="M498.62,258.887l32.7,18.879l28.332,-16.357" style="fill:none;stroke:rgb(174,87,193);stroke-width:10px;"/>
                </g>
                <g>
                    <path d="M439.409,164.514l-32.699,18.887l-0,37.773l32.699,18.886l32.7,-18.886l-0,-37.773l-32.7,-18.887Z" style="fill:rgb(255,155,146);stroke:rgb(187,85,89);stroke-width:10px;"/>
                    <path d="M439.409,202.287l0,37.773" style="fill:none;stroke:rgb(187,85,89);stroke-width:10px;"/>
                    <path d="M406.71,183.401l32.699,18.886l28.333,-16.364" style="fill:none;stroke:rgb(187,85,89);stroke-width:10px;"/>
                </g>
                <path d="M309.588,147.931l63.943,191.587l113.08,65.287l-7.402,-158.944l-169.621,-97.93Z" style="fill:rgb(200,211,215);fill-opacity:0.5;stroke:rgb(137,194,212);stroke-width:10px;"/>
                <path d="M479.209,245.861l7.402,158.944l113.081,-65.287l49.138,-191.587l-169.621,97.93Z" style="fill:rgb(176,207,216);fill-opacity:0.5;stroke:rgb(137,194,212);stroke-width:10px;"/>
            </g>
            <path d="M239.948,489.306c-5.265,-3.04 -11.861,-3.008 -18.512,-0.32c3.271,-3.04 1.94,-6.24 -2.272,-8.672c-7.039,-4.064 -14.022,-2.976 -21.339,1.248l-8.535,4.928l38.243,22.08l9.367,-5.408c8.646,-4.992 9.921,-9.888 3.048,-13.856Zm-2.272,1.568c6.54,3.776 3.104,7.488 -2.993,11.008l-6.984,4.032l-16.572,-9.568l6.042,-3.488c6.484,-3.744 14.022,-5.728 20.507,-1.984Zm-21.006,-9.12c5.875,3.392 3.492,6.816 -1.718,9.824l-6.042,3.488l-15.02,-8.672l6.152,-3.552c5.654,-3.264 10.864,-4.416 16.628,-1.088Z" style="fill-rule:nonzero;"/>
            <path d="M274.977,481.178l2.328,-1.344l-25.551,-14.752l-2.328,1.344l13.191,7.616c5.099,2.944 8.591,7.52 2.605,10.976c-5.875,3.392 -10.919,1.376 -14.854,-0.896l-15.796,-9.12l-2.328,1.344l15.187,8.768c6.817,3.936 12.858,5.184 19.731,1.216c3.603,-2.08 4.822,-5.28 2.993,-7.936l4.822,2.784Z" style="fill-rule:nonzero;"/>
            <path d="M302.8,460.506l-3.048,0.096c-0,0 0.665,3.968 -4.822,7.136c-5.986,3.456 -14.965,3.2 -21.561,-0.608c-6.373,-3.68 -6.318,-8.832 -0.72,-12.064c5.21,-3.008 9.81,-2.784 12.304,-2.688l0.333,-1.856c-1.441,-0.128 -7.926,-0.736 -14.688,3.168c-7.094,4.096 -7.316,10.496 0.444,14.976c7.815,4.512 18.955,4.48 25.938,0.448c6.762,-3.904 5.986,-7.36 5.82,-8.608Z" style="fill-rule:nonzero;"/>
            <path d="M303.41,452.09l0.277,-4.192l25.107,2.208l3.049,-1.76l-28.045,-2.368l0.776,-11.391l-3.049,1.76l-0.609,14.303l-24.775,-14.303l-2.273,1.312l38.243,22.079l2.273,-1.312l-10.974,-6.336Z" style="fill-rule:nonzero;"/>
            <path d="M353.181,432.251l-2.826,-0.288c-0,-0 0.166,3.744 -5.487,7.008c-5.931,3.423 -14.134,3.168 -20.729,-0.32l21.061,-12.16c0,-0 -0.887,-0.704 -1.663,-1.152c-6.817,-3.936 -16.35,-4.32 -23.389,-0.256c-6.762,3.904 -6.873,10.176 0.998,14.72c7.704,4.447 18.013,4.959 25.384,0.704c7.427,-4.288 6.707,-8.352 6.651,-8.256Zm-12.47,-5.728l-18.734,10.816c-3.991,-2.496 -5.82,-7.456 0.166,-10.912c6.651,-3.84 15.131,-1.888 18.568,0.096Z" style="fill-rule:nonzero;"/>
            <path d="M373.633,423.963l-2.328,-1.024c0,-0 -0.388,1.056 -2.051,2.016c-3.436,1.984 -6.429,0.768 -10.142,-1.376l-15.408,-8.896l6.595,-3.808l-2.217,-1.28l-6.54,3.776l-8.258,-4.768l-2.328,1.344l8.258,4.768l-3.88,2.24l2.217,1.28l3.88,-2.24l13.247,7.648c4.212,2.432 6.983,3.776 9.533,4.16c2.383,0.288 4.655,-0.192 6.762,-1.408c1.607,-0.928 2.494,-1.76 2.66,-2.432Z" style="fill-rule:nonzero;"/>
            <path d="M397.022,410.715l2.384,-1.376l-38.244,-22.08l-10.364,5.984l2.162,1.248l7.981,-4.608l36.081,20.832Z" style="fill-rule:nonzero;"/>
        </g>
        <g>
            <g>
                <path d="M702.579,178.962l7.402,224.232l-113.081,65.287l-63.942,-191.588l169.621,-97.931Z" style="fill:rgb(196,196,196);stroke:rgb(137,194,212);stroke-width:10px;"/>
                <path d="M702.579,178.962l7.402,224.232l113.08,65.287l49.138,-191.588l-169.62,-97.931Z" style="fill:rgb(232,232,232);stroke:rgb(137,194,212);stroke-width:10px;"/>
                <g>
                    <path d="M654.169,386.451l-32.7,18.879l0,37.759l32.7,18.879l32.699,-18.879l0,-37.759l-32.699,-18.879Z" style="fill:rgb(92,191,147);stroke:rgb(5,77,0);stroke-width:10px;"/>
                    <path d="M654.169,424.21l-0,37.758" style="fill:none;stroke:rgb(5,77,0);stroke-width:10px;"/>
                    <path d="M621.469,405.33l32.7,18.88l28.332,-16.358" style="fill:none;stroke:rgb(5,77,0);stroke-width:10px;"/>
                </g>
                <g>
                    <path d="M754.689,368.971l-32.699,18.879l-0,37.758l32.699,18.879l32.7,-18.879l-0,-37.758l-32.7,-18.879Z" style="fill:rgb(198,144,210);stroke:rgb(174,87,193);stroke-width:10px;"/>
                    <path d="M754.689,406.729l0,37.758" style="fill:none;stroke:rgb(174,87,193);stroke-width:10px;"/>
                    <path d="M721.99,387.85l32.699,18.879l28.333,-16.358" style="fill:none;stroke:rgb(174,87,193);stroke-width:10px;"/>
                </g>
                <g>
                    <path d="M662.779,293.477l-32.7,18.886l0,37.773l32.7,18.887l32.699,-18.887l0,-37.773l-32.699,-18.886Z" style="fill:rgb(255,155,146);stroke:rgb(187,85,89);stroke-width:10px;"/>
                    <path d="M662.779,331.25l-0,37.773" style="fill:none;stroke:rgb(187,85,89);stroke-width:10px;"/>
                    <path d="M630.079,312.363l32.7,18.887l28.332,-16.364" style="fill:none;stroke:rgb(187,85,89);stroke-width:10px;"/>
                </g>
                <path d="M532.958,276.893l63.942,191.588l113.081,65.287l-7.402,-158.944l-169.621,-97.931Z" style="fill:rgb(200,211,215);fill-opacity:0.5;stroke:rgb(137,194,212);stroke-width:10px;"/>
                <path d="M702.579,374.824l7.402,158.944l113.08,-65.287l49.138,-191.588l-169.62,97.931Z" style="fill:rgb(176,207,216);fill-opacity:0.5;stroke:rgb(137,194,212);stroke-width:10px;"/>
            </g>
            <path d="M450.064,627.384c-5.266,-3.04 -11.861,-3.008 -18.512,-0.32c3.27,-3.04 1.94,-6.24 -2.272,-8.672c-7.039,-4.064 -14.023,-2.976 -21.339,1.248l-8.535,4.928l38.243,22.08l9.366,-5.408c8.647,-4.992 9.922,-9.888 3.049,-13.856Zm-2.273,1.568c6.541,3.776 3.104,7.488 -2.993,11.008l-6.983,4.032l-16.572,-9.568l6.041,-3.488c6.485,-3.744 14.023,-5.728 20.507,-1.984Zm-21.006,-9.12c5.875,3.392 3.492,6.816 -1.718,9.824l-6.041,3.488l-15.02,-8.672l6.152,-3.552c5.653,-3.264 10.863,-4.416 16.627,-1.088Z" style="fill-rule:nonzero;"/>
            <path d="M485.092,619.256l2.328,-1.344l-25.551,-14.752l-2.328,1.344l13.192,7.616c5.099,2.944 8.59,7.52 2.605,10.976c-5.875,3.392 -10.919,1.376 -14.854,-0.896l-15.796,-9.12l-2.328,1.344l15.186,8.768c6.817,3.936 12.859,5.184 19.731,1.216c3.603,-2.08 4.822,-5.28 2.993,-7.936l4.822,2.784Z" style="fill-rule:nonzero;"/>
            <path d="M512.916,598.584l-3.049,0.096c0,0 0.665,3.968 -4.822,7.136c-5.986,3.456 -14.964,3.2 -21.56,-0.608c-6.374,-3.68 -6.318,-8.832 -0.721,-12.064c5.21,-3.008 9.811,-2.784 12.305,-2.688l0.332,-1.856c-1.441,-0.128 -7.925,-0.736 -14.687,3.168c-7.095,4.096 -7.316,10.496 0.443,14.976c7.815,4.512 18.955,4.48 25.939,0.448c6.762,-3.904 5.986,-7.36 5.82,-8.608Z" style="fill-rule:nonzero;"/>
            <path d="M513.525,590.168l0.277,-4.192l25.108,2.208l3.048,-1.76l-28.045,-2.368l0.776,-11.391l-3.048,1.76l-0.61,14.303l-24.775,-14.303l-2.272,1.312l38.243,22.079l2.272,-1.312l-10.974,-6.336Z" style="fill-rule:nonzero;"/>
            <path d="M563.297,570.329l-2.827,-0.288c0,-0 0.166,3.744 -5.487,7.008c-5.93,3.423 -14.133,3.167 -20.729,-0.32l21.062,-12.16c-0,-0 -0.887,-0.704 -1.663,-1.152c-6.817,-3.936 -16.351,-4.32 -23.389,-0.256c-6.762,3.904 -6.873,10.176 0.997,14.72c7.704,4.447 18.013,4.959 25.385,0.704c7.427,-4.288 6.706,-8.352 6.651,-8.256Zm-12.471,-5.728l-18.733,10.816c-3.991,-2.496 -5.82,-7.456 0.166,-10.912c6.651,-3.84 15.131,-1.888 18.567,0.096Z" style="fill-rule:nonzero;"/>
            <path d="M583.748,562.041l-2.327,-1.024c-0,-0 -0.388,1.056 -2.051,2.016c-3.436,1.984 -6.429,0.768 -10.143,-1.376l-15.408,-8.896l6.596,-3.808l-2.217,-1.28l-6.54,3.776l-8.259,-4.768l-2.328,1.344l8.259,4.768l-3.88,2.24l2.217,1.28l3.88,-2.24l13.246,7.648c4.212,2.432 6.984,3.776 9.533,4.16c2.384,0.288 4.656,-0.192 6.762,-1.408c1.607,-0.928 2.494,-1.76 2.66,-2.432Z" style="fill-rule:nonzero;"/>
            <path d="M600.043,552.889l23.999,-13.856l-2.272,-1.312l-21.062,12.16l0.111,-13.056c0,-2.176 0.887,-8.896 -5.875,-12.8c-6.817,-3.936 -15.74,-3.904 -22.89,0.224c-6.762,3.904 -5.266,8.736 -3.492,11.424l3.104,-0.64c-1.497,-2.016 -3.048,-6.24 2.66,-9.536c5.709,-3.296 12.693,-3.168 18.124,-0.032c5.155,2.976 5.432,7.872 5.376,10.656l-0.166,15.968l2.383,0.8Z" style="fill-rule:nonzero;"/>
        </g>
        <g>
            <g>
                <path d="M929.395,302.078l7.402,224.231l-113.08,65.287l-63.943,-191.588l169.621,-97.93Z" style="fill:rgb(196,196,196);stroke:rgb(137,194,212);stroke-width:10px;"/>
                <path d="M929.395,302.078l7.402,224.231l113.081,65.287l49.138,-191.588l-169.621,-97.93Z" style="fill:rgb(232,232,232);stroke:rgb(137,194,212);stroke-width:10px;"/>
                <g>
                    <path d="M880.985,509.567l-32.699,18.879l-0,37.758l32.699,18.879l32.7,-18.879l-0,-37.758l-32.7,-18.879Z" style="fill:rgb(92,191,147);stroke:rgb(5,77,0);stroke-width:10px;"/>
                    <path d="M880.985,547.325l0,37.758" style="fill:none;stroke:rgb(5,77,0);stroke-width:10px;"/>
                    <path d="M848.286,528.446l32.699,18.879l28.333,-16.358" style="fill:none;stroke:rgb(5,77,0);stroke-width:10px;"/>
                </g>
                <g>
                    <path d="M981.506,492.086l-32.7,18.879l0,37.758l32.7,18.879l32.699,-18.879l0,-37.758l-32.699,-18.879Z" style="fill:rgb(198,144,210);stroke:rgb(174,87,193);stroke-width:10px;"/>
                    <path d="M981.506,529.844l-0,37.758" style="fill:none;stroke:rgb(174,87,193);stroke-width:10px;"/>
                    <path d="M948.806,510.965l32.7,18.879l28.332,-16.358" style="fill:none;stroke:rgb(174,87,193);stroke-width:10px;"/>
                </g>
                <g>
                    <path d="M889.595,416.592l-32.699,18.887l-0,37.773l32.699,18.886l32.7,-18.886l-0,-37.773l-32.7,-18.887Z" style="fill:rgb(255,155,146);stroke:rgb(187,85,89);stroke-width:10px;"/>
                    <path d="M889.595,454.365l0,37.773" style="fill:none;stroke:rgb(187,85,89);stroke-width:10px;"/>
                    <path d="M856.896,435.479l32.699,18.886l28.332,-16.364" style="fill:none;stroke:rgb(187,85,89);stroke-width:10px;"/>
                </g>
                <path d="M759.774,400.008l63.943,191.588l113.08,65.287l-7.402,-158.944l-169.621,-97.931Z" style="fill:rgb(200,211,215);fill-opacity:0.5;stroke:rgb(137,194,212);stroke-width:10px;"/>
                <path d="M929.395,497.939l7.402,158.944l113.081,-65.287l49.138,-191.588l-169.621,97.931Z" style="fill:rgb(176,207,216);fill-opacity:0.5;stroke:rgb(137,194,212);stroke-width:10px;"/>
            </g>
            <path d="M673.898,755.974c-5.266,-3.04 -11.861,-3.008 -18.512,-0.32c3.27,-3.04 1.94,-6.24 -2.273,-8.672c-7.039,-4.064 -14.022,-2.976 -21.338,1.248l-8.536,4.928l38.243,22.08l9.367,-5.408c8.647,-4.992 9.921,-9.888 3.049,-13.856Zm-2.273,1.568c6.54,3.776 3.104,7.488 -2.993,11.008l-6.983,4.032l-16.572,-9.568l6.041,-3.488c6.485,-3.744 14.022,-5.728 20.507,-1.984Zm-21.006,-9.12c5.875,3.392 3.492,6.816 -1.718,9.824l-6.041,3.488l-15.02,-8.672l6.152,-3.552c5.653,-3.264 10.863,-4.416 16.627,-1.088Z" style="fill-rule:nonzero;"/>
            <path d="M708.926,747.846l2.328,-1.344l-25.551,-14.751l-2.328,1.344l13.191,7.616c5.099,2.943 8.591,7.519 2.605,10.975c-5.875,3.392 -10.918,1.376 -14.854,-0.896l-15.796,-9.119l-2.327,1.343l15.186,8.768c6.817,3.936 12.859,5.184 19.731,1.216c3.603,-2.08 4.822,-5.28 2.993,-7.936l4.822,2.784Z" style="fill-rule:nonzero;"/>
            <path d="M736.749,727.175l-3.048,0.096c-0,-0 0.665,3.968 -4.822,7.136c-5.986,3.456 -14.965,3.2 -21.56,-0.608c-6.374,-3.68 -6.319,-8.832 -0.721,-12.064c5.21,-3.008 9.81,-2.784 12.305,-2.688l0.332,-1.856c-1.441,-0.128 -7.926,-0.736 -14.687,3.168c-7.095,4.096 -7.317,10.496 0.443,14.976c7.815,4.512 18.955,4.48 25.939,0.448c6.762,-3.904 5.986,-7.36 5.819,-8.608Z" style="fill-rule:nonzero;"/>
            <path d="M737.359,718.759l0.277,-4.192l25.108,2.208l3.048,-1.76l-28.045,-2.368l0.776,-11.392l-3.048,1.76l-0.61,14.304l-24.775,-14.304l-2.272,1.312l38.243,22.08l2.272,-1.312l-10.974,-6.336Z" style="fill-rule:nonzero;"/>
            <path d="M787.131,698.919l-2.827,-0.288c-0,0 0.166,3.744 -5.487,7.008c-5.931,3.424 -14.134,3.168 -20.729,-0.32l21.061,-12.16c0,0 -0.886,-0.704 -1.662,-1.152c-6.818,-3.936 -16.351,-4.32 -23.39,-0.256c-6.762,3.904 -6.872,10.176 0.998,14.72c7.704,4.448 18.013,4.96 25.385,0.704c7.426,-4.288 6.706,-8.352 6.651,-8.256Zm-12.471,-5.728l-18.734,10.816c-3.99,-2.496 -5.819,-7.456 0.167,-10.912c6.651,-3.84 15.131,-1.888 18.567,0.096Z" style="fill-rule:nonzero;"/>
            <path d="M807.582,690.631l-2.328,-1.024c0,0 -0.388,1.056 -2.05,2.016c-3.437,1.984 -6.43,0.768 -10.143,-1.376l-15.408,-8.896l6.595,-3.808l-2.217,-1.28l-6.54,3.776l-8.258,-4.768l-2.328,1.344l8.258,4.768l-3.879,2.24l2.217,1.28l3.879,-2.24l13.247,7.648c4.212,2.432 6.984,3.776 9.533,4.16c2.383,0.288 4.656,-0.192 6.762,-1.408c1.607,-0.928 2.494,-1.76 2.66,-2.432Z" style="fill-rule:nonzero;"/>
            <path d="M818.834,661.224l-0.167,-0.096c1.663,-1.536 3.603,-5.664 -2.605,-9.248c-6.041,-3.488 -14.133,-2.528 -19.842,0.768c-5.709,3.296 -6.152,7.072 -5.487,10.016l2.993,-0.32c-0.332,-2.688 -0.111,-5.632 4.434,-8.256c4.6,-2.656 10.919,-3.36 15.796,-0.544c4.878,2.816 4.268,6.624 -0.443,9.344l-2.384,1.376l2.55,1.472l2.383,-1.376c5.155,-2.976 12.36,-3.808 18.013,-0.544c5.543,3.2 4.379,7.328 -1.662,10.815c-6.042,3.488 -15.464,1.952 -15.131,1.952c-0.167,0.672 -0.444,1.344 -0.61,1.952c-0.333,0 10.143,1.888 17.791,-2.528c7.538,-4.351 8.369,-10.015 2.051,-13.663c-6.706,-3.872 -14.632,-2.496 -17.68,-1.12Z" style="fill-rule:nonzero;"/>
        </g>
        <g>
            <path d="M1240.95,674.872c-0,-8.64 -5.824,-15.231 -14.976,-15.231c-9.152,-0 -14.976,6.591 -14.976,15.231c0,8.896 5.824,15.424 14.976,15.424c9.152,0 14.976,-6.528 14.976,-15.424Zm-2.88,0.064c-0,6.976 -4.672,12.864 -12.096,12.864c-7.424,0 -12.096,-5.888 -12.096,-12.864c-0,-7.232 4.736,-12.8 12.096,-12.8c7.36,0 12.096,5.568 12.096,12.8Z" style="fill-rule:nonzero;"/>
            <path d="M1248.89,689.656l2.688,0l0,-5.824c1.856,3.968 6.592,6.464 12.032,6.464c8.832,0 13.824,-6.72 13.824,-15.424c0,-8.832 -5.696,-15.231 -14.528,-15.231c-4.992,-0 -9.92,3.007 -11.392,7.487l0,-21.631l-2.624,-0l0,44.159Zm14.272,-1.792c-7.424,0 -11.712,-5.888 -11.712,-12.928c0,-7.104 4.736,-12.864 11.456,-12.864c7.424,0 11.648,5.76 11.648,12.864c0,7.168 -3.968,12.928 -11.392,12.928Z" style="fill-rule:nonzero;"/>
            <path d="M1289.08,649.465c-0,-1.408 -1.088,-2.496 -2.432,-2.496c-1.344,-0 -2.432,1.088 -2.432,2.496c-0,1.344 1.088,2.496 2.432,2.496c1.344,-0 2.432,-1.152 2.432,-2.496Zm-11.584,49.983l0,2.368c0,-0 0.832,0.512 2.624,0.512c7.424,-0 7.808,-5.952 7.808,-11.84l-0,-30.335l-2.624,-0l-0,30.335c-0,4.864 0.128,9.536 -4.736,9.536c-1.216,-0 -2.24,-0.192 -3.072,-0.576Z" style="fill-rule:nonzero;"/>
            <path d="M1321.91,685.88l-1.344,-1.92c0,0 -3.648,3.84 -10.175,3.84c-6.848,0 -11.328,-4.992 -11.648,-12.288l24.319,0c0,0 0.192,-1.216 0.192,-2.112c0,-7.872 -5.12,-13.759 -13.247,-13.759c-7.808,-0 -14.144,6.207 -14.144,15.295c-0,8.896 5.44,15.36 13.952,15.36c8.575,0 12.223,-4.48 12.095,-4.416Zm-1.472,-12.928l-21.631,0c0.192,-4.8 4.096,-10.816 11.008,-10.816c7.679,0 10.623,6.848 10.623,10.816Z" style="fill-rule:nonzero;"/>
            <path d="M1355,685.048l-1.856,-1.664c-0,0 -3.584,4.352 -9.92,4.352c-6.912,0 -11.84,-5.44 -11.84,-13.056c0,-7.36 5.184,-12.48 11.648,-12.48c6.016,0 8.448,2.88 9.792,4.416l2.048,-1.664c-0.704,-0.96 -3.84,-5.311 -11.648,-5.311c-8.192,-0 -14.72,6.271 -14.72,15.231c0,9.024 6.464,15.424 14.528,15.424c7.808,0 10.816,-3.904 11.968,-5.248Z" style="fill-rule:nonzero;"/>
            <path d="M1372.34,689.4l-0.32,-2.368c-0,0 -1.28,0.832 -3.2,0.832c-3.968,0 -4.48,-2.944 -4.48,-7.232l-0,-17.792l7.616,0l-0,-2.559l-7.552,-0l-0,-9.536l-2.688,-0l-0,9.536l-4.48,-0l-0,2.559l4.48,0l-0,15.296c-0,4.864 0.256,7.808 1.344,9.664c1.088,1.664 2.88,2.496 5.312,2.496c1.856,0 3.2,-0.32 3.968,-0.896Z" style="fill-rule:nonzero;"/>
            <path d="M999.789,538.641l204.194,117.892" style="fill:none;stroke:black;stroke-width:7.5px;"/>
        </g>
    </g>
</svg>
