<svg viewBox="0 0 1423 979" xmlns="http://www.w3.org/2000/svg" fill-rule="evenodd" clip-rule="evenodd" stroke-linecap="round" stroke-linejoin="round" stroke-miterlimit="1.5"><g fill="none" stroke="#a1a1a1" stroke-width="7.5"><path d="M50 494.88l664.23 383.5 443.4-256v-30L493.4 208.9 50 464.89v30z"/><path d="M50 464.89l664.23 383.49 443.4-256M714.23 848.38v30"/></g><path d="M770.23 922.66l2.39-1.37-18.18-10.5 5.87-3.39c6.1-3.52 8.82-8.86 2.05-12.77-6.37-3.68-14.57-3.17-22.11 1.19l-8.26 4.76 38.24 22.08zm-11.86-16.7l-6.15 3.55-15.63-9.02 6.04-3.49c5.43-3.13 11.8-4.06 17.24-.93 5.15 2.98 3.21 7.17-1.5 9.89zM796.95 907.24l2.27-1.31-14.58-8.42c-3.88-2.24-4.65-3.84-4.93-5.02-.11-.64-.22-2.43 2.1-3.78 1.23-.7 2.56-1.28 3.44-1.53l-2.1-1.6s-1.78.64-3.38 1.56c-2.77 1.6-3.66 3.97-1.56 6.66l-4.54-2.62-2.27 1.3 25.55 14.76zM824.16 876.75c-7.48-4.32-18.23-4.7-26.16-.13s-7.26 10.78.22 15.1c7.7 4.45 18.4 4.8 26.33.22 7.92-4.57 7.32-10.75-.39-15.2zm-2.44 1.47c6.04 3.48 7.1 8.76.67 12.48-6.43 3.7-15.58 3.1-21.62-.39-6.26-3.61-6.98-8.76-.6-12.44 6.37-3.68 15.29-3.27 21.55.35zM812.3 858.18c-1.22-.7-3.1-.7-4.27-.03-1.16.67-1.16 1.76.06 2.47 1.16.67 3.1.7 4.27.03 1.16-.67 1.1-1.8-.06-2.46zm33.26 30.79l2.05 1.18s1.16-.16 2.71-1.05c6.43-3.72 1.6-6.88-3.49-9.83l-26.27-15.17-2.27 1.32 26.27 15.16c4.21 2.44 8.37 4.7 4.16 7.14-1.06.6-2.11 1.02-3.16 1.25zM872.27 859.98l-2.83-.3s.17 3.75-5.48 7.02c-5.93 3.42-14.14 3.16-20.73-.32l21.06-12.16s-.89-.7-1.66-1.16c-6.82-3.93-16.35-4.32-23.4-.25-6.76 3.9-6.87 10.18 1 14.72 7.7 4.45 18.02 4.96 25.39.7 7.43-4.29 6.7-8.35 6.65-8.25zm-12.47-5.73l-18.73 10.82c-4-2.5-5.82-7.46.16-10.92 6.65-3.84 15.13-1.88 18.57.1zM900.2 843.02l-3.04.1s.66 3.96-4.83 7.13c-5.98 3.46-14.96 3.2-21.56-.6-6.37-3.69-6.31-8.84-.72-12.07 5.21-3.01 9.81-2.79 12.3-2.7l.34-1.85c-1.44-.12-7.93-.73-14.69 3.17-7.1 4.1-7.31 10.5.45 14.98 7.81 4.5 18.95 4.48 25.93.45 6.77-3.9 6-7.36 5.82-8.61zM919 836.52l-2.33-1.02s-.4 1.05-2.05 2.01c-3.44 1.99-6.43.77-10.15-1.37l-15.4-8.9 6.59-3.8-2.22-1.29-6.54 3.78-8.26-4.77-2.32 1.35 8.25 4.76-3.88 2.24 2.22 1.28 3.88-2.24 13.25 7.65c4.21 2.43 6.98 3.78 9.53 4.16 2.38.29 4.66-.2 6.76-1.4 1.61-.94 2.5-1.77 2.66-2.44z" fill-rule="nonzero"/><g><g stroke-width="10"><path d="M479.2 50l7.41 224.23-113.08 65.29-63.94-191.59L479.2 50z" fill="#c4c4c4" stroke="#89c2d4"/><path d="M479.2 50l7.41 224.23 113.08 65.29 49.14-191.59L479.21 50z" fill="#e8e8e8" stroke="#89c2d4"/><g stroke="#054d00"><path d="M430.8 257.49l-32.7 18.88v37.76L430.8 333l32.7-18.87v-37.76l-32.7-18.88z" fill="#5cbf93"/><path d="M430.8 295.25V333M398.1 276.37l32.7 18.88 28.33-16.36" fill="none"/></g><g stroke="#ae57c1"><path d="M531.32 240l-32.7 18.89v37.76l32.7 18.88 32.7-18.88v-37.76L531.32 240z" fill="#c690d2"/><path d="M531.32 277.77v37.76M498.62 258.89l32.7 18.88 28.33-16.36" fill="none"/></g><g stroke="#bb5559"><path d="M439.4 164.51l-32.69 18.9v37.76l32.7 18.89 32.7-18.89V183.4l-32.7-18.89z" fill="#ff9b92"/><path d="M439.4 202.29v37.77M406.71 183.4l32.7 18.89 28.33-16.37" fill="none"/></g><path d="M309.59 147.93l63.94 191.59 113.08 65.29-7.4-158.95-169.62-97.93z" fill="#c8d3d7" fill-opacity=".5" stroke="#89c2d4"/><path d="M479.2 245.86l7.41 158.94 113.08-65.28 49.14-191.59-169.62 97.93z" fill="#b0cfd8" fill-opacity=".5" stroke="#89c2d4"/></g><path d="M239.95 489.3c-5.27-3.03-11.86-3-18.51-.31 3.27-3.04 1.94-6.24-2.28-8.68-7.03-4.06-14.02-2.97-21.33 1.25l-8.54 4.93 38.24 22.08 9.37-5.4c8.65-5 9.92-9.9 3.05-13.86zm-2.27 1.57c6.54 3.78 3.1 7.5-3 11.01l-6.98 4.03-16.57-9.56 6.04-3.5c6.48-3.74 14.02-5.72 20.5-1.98zm-21.01-9.12c5.88 3.4 3.5 6.82-1.72 9.83l-6.04 3.49-15.02-8.68 6.15-3.55c5.66-3.26 10.87-4.41 16.63-1.09zM274.98 481.18l2.32-1.35-25.55-14.75-2.32 1.35 13.19 7.61c5.1 2.95 8.59 7.52 2.6 10.98-5.87 3.39-10.92 1.37-14.85-.9l-15.8-9.12-2.33 1.35 15.2 8.76c6.8 3.94 12.85 5.19 19.72 1.22 3.6-2.08 4.82-5.28 3-7.94l4.82 2.79zM302.8 460.5l-3.05.1s.67 3.97-4.82 7.14c-5.99 3.45-14.96 3.2-21.56-.61-6.37-3.68-6.32-8.83-.72-12.06 5.2-3.01 9.8-2.79 12.3-2.7l.34-1.85c-1.45-.13-7.93-.73-14.7 3.17-7.09 4.1-7.3 10.5.45 14.98 7.82 4.5 18.96 4.48 25.94.44 6.76-3.9 5.99-7.36 5.82-8.6zM303.41 452.09l.28-4.2 25.1 2.22 3.05-1.76-28.04-2.37.77-11.4-3.05 1.77-.6 14.3-24.78-14.3-2.27 1.3 38.24 22.09 2.27-1.31-10.97-6.34zM353.18 432.25l-2.83-.29s.17 3.75-5.48 7.01c-5.93 3.42-14.14 3.17-20.73-.32l21.06-12.16s-.89-.7-1.66-1.15c-6.82-3.94-16.35-4.32-23.4-.26-6.75 3.9-6.87 10.18 1 14.72 7.71 4.45 18.02 4.96 25.39.7 7.43-4.28 6.7-8.34 6.65-8.25zm-12.47-5.73l-18.73 10.82c-4-2.5-5.82-7.46.16-10.91 6.65-3.84 15.13-1.9 18.57.1zM373.63 423.96l-2.33-1.02s-.38 1.06-2.05 2.02c-3.43 1.98-6.42.76-10.14-1.38l-15.4-8.9 6.59-3.8-2.22-1.28-6.54 3.77-8.26-4.77-2.32 1.35 8.25 4.77-3.88 2.24 2.22 1.28 3.88-2.24 13.25 7.64c4.21 2.44 6.98 3.78 9.53 4.16 2.38.3 4.66-.19 6.76-1.4 1.61-.93 2.5-1.76 2.66-2.44zM397.02 410.71l2.39-1.37-38.25-22.08-10.36 5.98 2.16 1.25 7.98-4.6 36.08 20.82z" fill-rule="nonzero"/></g><g><g stroke-width="10"><path d="M702.58 178.96l7.4 224.23-113.08 65.3-63.94-191.6 169.62-97.93z" fill="#c4c4c4" stroke="#89c2d4"/><path d="M702.58 178.96l7.4 224.23 113.08 65.3 49.14-191.6-169.62-97.93z" fill="#e8e8e8" stroke="#89c2d4"/><g stroke="#054d00"><path d="M654.17 386.45l-32.7 18.88v37.76l32.7 18.88 32.7-18.88v-37.76l-32.7-18.88z" fill="#5cbf93"/><path d="M654.17 424.21v37.76M621.47 405.33l32.7 18.88 28.33-16.36" fill="none"/></g><g stroke="#ae57c1"><path d="M754.69 368.97l-32.7 18.88v37.76l32.7 18.88 32.7-18.88v-37.76l-32.7-18.88z" fill="#c690d2"/><path d="M754.69 406.73v37.76M721.99 387.85l32.7 18.88 28.33-16.36" fill="none"/></g><g stroke="#bb5559"><path d="M662.78 293.48l-32.7 18.88v37.78l32.7 18.88 32.7-18.88v-37.78l-32.7-18.88z" fill="#ff9b92"/><path d="M662.78 331.25v37.77M630.08 312.36l32.7 18.89 28.33-16.36" fill="none"/></g><path d="M532.96 276.9l63.94 191.58 113.08 65.29-7.4-158.95-169.62-97.93z" fill="#c8d3d7" fill-opacity=".5" stroke="#89c2d4"/><path d="M702.58 374.82l7.4 158.95 113.08-65.29L872.2 276.9l-169.62 97.93z" fill="#b0cfd8" fill-opacity=".5" stroke="#89c2d4"/></g><path d="M450.06 627.38c-5.26-3.04-11.86-3-18.5-.32 3.26-3.04 1.93-6.24-2.28-8.67-7.04-4.06-14.02-2.97-21.34 1.25l-8.53 4.93 38.24 22.08 9.37-5.41c8.64-5 9.92-9.89 3.04-13.86zm-2.27 1.57c6.54 3.78 3.1 7.49-3 11.01l-6.98 4.03-16.57-9.57 6.04-3.48c6.49-3.75 14.03-5.73 20.51-1.99zm-21-9.12c5.87 3.4 3.49 6.82-1.72 9.83l-6.04 3.48-15.02-8.67 6.15-3.55c5.65-3.26 10.86-4.42 16.62-1.09zM485.1 619.26l2.32-1.35-25.55-14.75-2.33 1.34 13.2 7.62c5.1 2.94 8.58 7.52 2.6 10.98-5.88 3.39-10.92 1.37-14.86-.9l-15.8-9.12-2.32 1.34 15.19 8.77c6.81 3.94 12.86 5.19 19.73 1.22 3.6-2.08 4.82-5.28 2.99-7.94l4.82 2.79zM512.92 598.58l-3.05.1s.66 3.97-4.82 7.14c-6 3.45-14.97 3.2-21.56-.61-6.38-3.68-6.32-8.83-.73-12.07 5.21-3 9.82-2.78 12.3-2.68l.34-1.86c-1.44-.13-7.92-.74-14.69 3.17-7.1 4.1-7.31 10.5.45 14.97 7.81 4.52 18.95 4.48 25.94.45 6.76-3.9 5.98-7.36 5.82-8.6zM513.52 590.17l.28-4.2 25.11 2.21 3.05-1.76-28.05-2.36.78-11.4-3.05 1.76-.6 14.3-24.78-14.3-2.28 1.32 38.25 22.08 2.27-1.32-10.97-6.33zM563.3 570.33l-2.83-.29s.17 3.74-5.49 7c-5.93 3.43-14.13 3.18-20.73-.31l21.07-12.16s-.9-.7-1.67-1.15c-6.81-3.94-16.35-4.32-23.39-.26-6.76 3.9-6.87 10.18 1 14.72 7.7 4.45 18.01 4.96 25.39.7 7.42-4.28 6.7-8.35 6.65-8.25zm-12.47-5.73l-18.74 10.82c-3.99-2.5-5.82-7.46.17-10.91 6.65-3.84 15.13-1.9 18.57.1zM583.75 562.04l-2.33-1.02s-.39 1.05-2.05 2.01c-3.44 1.99-6.43.77-10.14-1.37l-15.41-8.9 6.6-3.8-2.22-1.29-6.54 3.78-8.26-4.77-2.33 1.35 8.26 4.76-3.88 2.24 2.22 1.28 3.88-2.24 13.24 7.65c4.22 2.43 6.99 3.78 9.54 4.16 2.38.29 4.65-.2 6.76-1.4 1.6-.93 2.5-1.77 2.66-2.44zM600.04 552.89l24-13.86-2.27-1.3-21.06 12.15.1-13.06c0-2.17.9-8.9-5.87-12.8-6.81-3.93-15.74-3.9-22.89.23-6.76 3.9-5.26 8.74-3.49 11.42l3.1-.64c-1.5-2.01-3.04-6.24 2.67-9.53 5.7-3.3 12.69-3.17 18.12-.03 5.16 2.97 5.43 7.87 5.38 10.65l-.17 15.97 2.38.8z" fill-rule="nonzero"/></g><g><g stroke-width="10"><path d="M929.4 302.08l7.4 224.23-113.08 65.29L759.77 400l169.63-97.92z" fill="#c4c4c4" stroke="#89c2d4"/><path d="M929.4 302.08l7.4 224.23 113.08 65.29 49.14-191.6-169.63-97.92z" fill="#e8e8e8" stroke="#89c2d4"/><g stroke="#054d00"><path d="M880.99 509.57l-32.7 18.88v37.75l32.7 18.88 32.7-18.88v-37.75l-32.7-18.88z" fill="#5cbf93"/><path d="M880.99 547.33v37.75M848.29 528.45l32.7 18.87 28.33-16.35" fill="none"/></g><g stroke="#ae57c1"><path d="M981.5 492.09l-32.7 18.88v37.75l32.7 18.88 32.7-18.88v-37.75l-32.7-18.88z" fill="#c690d2"/><path d="M981.5 529.84v37.76M948.8 510.96l32.7 18.88 28.34-16.35" fill="none"/></g><g stroke="#bb5559"><path d="M889.6 416.6l-32.7 18.88v37.77l32.7 18.89 32.7-18.89v-37.77l-32.7-18.89z" fill="#ff9b92"/><path d="M889.6 454.37v37.77M856.9 435.48l32.7 18.88L917.92 438" fill="none"/></g><path d="M759.77 400l63.95 191.6 113.08 65.28-7.4-158.94L759.76 400z" fill="#c8d3d7" fill-opacity=".5" stroke="#89c2d4"/><path d="M929.4 497.94l7.4 158.94 113.08-65.28 49.14-191.6-169.63 97.94z" fill="#b0cfd8" fill-opacity=".5" stroke="#89c2d4"/></g><path d="M673.9 755.97c-5.27-3.04-11.86-3-18.51-.32 3.27-3.04 1.94-6.24-2.28-8.67-7.04-4.06-14.02-2.97-21.34 1.25l-8.53 4.93 38.24 22.08 9.37-5.41c8.65-5 9.92-9.89 3.05-13.86zm-2.27 1.57c6.54 3.78 3.1 7.49-3 11.01l-6.98 4.03-16.57-9.57 6.04-3.48c6.48-3.75 14.02-5.73 20.5-1.99zm-21.01-9.12c5.87 3.4 3.5 6.82-1.72 9.83l-6.04 3.48-15.02-8.67 6.15-3.55c5.66-3.26 10.87-4.42 16.63-1.09zM708.93 747.85l2.32-1.35-25.55-14.75-2.33 1.34 13.2 7.62c5.1 2.94 8.59 7.52 2.6 10.98-5.87 3.39-10.92 1.37-14.85-.9l-15.8-9.12-2.33 1.34 15.19 8.77c6.82 3.94 12.86 5.19 19.73 1.22 3.6-2.08 4.82-5.28 3-7.94l4.82 2.79zM736.75 727.17l-3.05.1s.67 3.97-4.82 7.14c-5.99 3.45-14.97 3.2-21.56-.61-6.37-3.68-6.32-8.83-.72-12.06 5.2-3.01 9.8-2.79 12.3-2.7l.34-1.85c-1.45-.13-7.93-.74-14.7 3.17-7.09 4.1-7.3 10.5.45 14.98 7.82 4.5 18.96 4.48 25.94.44 6.76-3.9 5.99-7.36 5.82-8.6zM737.36 718.76l.28-4.2 25.1 2.22 3.05-1.76-28.04-2.37.77-11.4-3.04 1.76-.61 14.3-24.78-14.3-2.27 1.32 38.24 22.08 2.27-1.32-10.97-6.33zM787.13 698.92l-2.83-.29s.17 3.74-5.48 7c-5.93 3.43-14.14 3.18-20.73-.31l21.06-12.16s-.89-.7-1.66-1.15c-6.82-3.94-16.35-4.32-23.4-.26-6.76 3.9-6.87 10.18 1 14.72 7.7 4.45 18.02 4.96 25.39.7 7.43-4.28 6.7-8.35 6.65-8.25zm-12.47-5.73l-18.73 10.82c-4-2.5-5.82-7.46.16-10.91 6.65-3.84 15.13-1.9 18.57.1zM807.58 690.63l-2.33-1.02s-.38 1.05-2.05 2.01c-3.43 1.99-6.43.77-10.14-1.37l-15.4-8.9 6.59-3.8-2.22-1.29-6.54 3.78-8.26-4.77-2.32 1.34 8.25 4.77-3.88 2.24 2.22 1.28 3.88-2.24 13.25 7.65c4.2 2.43 6.98 3.78 9.53 4.16 2.38.29 4.66-.2 6.76-1.4 1.6-.94 2.5-1.77 2.66-2.44zM818.83 661.22l-.16-.1c1.66-1.53 3.6-5.66-2.6-9.24-6.05-3.49-14.14-2.53-19.85.77-5.7 3.3-6.15 7.07-5.49 10.01l3-.32c-.34-2.68-.12-5.63 4.43-8.25 4.6-2.66 10.92-3.36 15.8-.55 4.87 2.82 4.26 6.63-.45 9.35l-2.38 1.37 2.55 1.48 2.38-1.38c5.16-2.98 12.36-3.8 18.02-.54 5.54 3.2 4.37 7.32-1.67 10.81s-15.46 1.95-15.13 1.95c-.16.68-.44 1.35-.6 1.96-.34 0 10.14 1.88 17.78-2.53 7.54-4.35 8.37-10.02 2.05-13.67-6.7-3.87-14.63-2.5-17.68-1.12z" fill-rule="nonzero"/></g><g><path d="M1240.95 674.87c0-8.64-5.82-15.23-14.98-15.23-9.15 0-14.97 6.6-14.97 15.23 0 8.9 5.82 15.43 14.97 15.43 9.16 0 14.98-6.53 14.98-15.43zm-2.88.07c0 6.97-4.67 12.86-12.1 12.86-7.42 0-12.1-5.89-12.1-12.86 0-7.24 4.74-12.8 12.1-12.8 7.36 0 12.1 5.56 12.1 12.8zM1248.89 689.66h2.69v-5.83c1.85 3.97 6.59 6.47 12.03 6.47 8.83 0 13.82-6.72 13.82-15.43 0-8.83-5.7-15.23-14.52-15.23-5 0-9.92 3-11.4 7.49V645.5h-2.62v44.16zm14.27-1.8c-7.42 0-11.71-5.88-11.71-12.92 0-7.1 4.74-12.87 11.46-12.87 7.42 0 11.64 5.76 11.64 12.87 0 7.16-3.96 12.92-11.39 12.92zM1289.08 649.47c0-1.41-1.09-2.5-2.43-2.5a2.45 2.45 0 00-2.43 2.5c0 1.34 1.08 2.5 2.43 2.5a2.49 2.49 0 002.43-2.5zm-11.58 49.98v2.37s.83.5 2.62.5c7.42 0 7.8-5.94 7.8-11.83v-30.34h-2.62v30.34c0 4.86.13 9.53-4.73 9.53-1.22 0-2.24-.19-3.07-.57zM1321.91 685.88l-1.34-1.92s-3.65 3.84-10.18 3.84c-6.85 0-11.33-5-11.65-12.29h24.32s.2-1.21.2-2.11c0-7.87-5.13-13.76-13.25-13.76-7.81 0-14.15 6.2-14.15 15.3 0 8.9 5.44 15.36 13.96 15.36 8.57 0 12.22-4.48 12.09-4.42zm-1.47-12.93h-21.63c.19-4.8 4.1-10.81 11-10.81 7.68 0 10.63 6.84 10.63 10.81zM1355 685.05l-1.86-1.67s-3.58 4.36-9.92 4.36c-6.9 0-11.84-5.44-11.84-13.06 0-7.36 5.19-12.48 11.65-12.48 6.02 0 8.45 2.88 9.8 4.42l2.04-1.67c-.7-.96-3.84-5.3-11.65-5.3-8.19 0-14.72 6.26-14.72 15.22 0 9.03 6.47 15.43 14.53 15.43 7.81 0 10.82-3.9 11.97-5.25zM1372.34 689.4l-.32-2.37s-1.28.83-3.2.83c-3.97 0-4.48-2.94-4.48-7.23v-17.79h7.62v-2.56h-7.56v-9.54h-2.68v9.54h-4.48v2.56h4.48v15.3c0 4.86.25 7.8 1.34 9.66 1.09 1.66 2.88 2.5 5.31 2.5 1.86 0 3.2-.32 3.97-.9z" fill-rule="nonzero"/><path d="M999.79 538.64l204.2 117.9" fill="none" stroke="#000" stroke-width="7.5"/></g></svg>