<svg viewBox="0 0 1395 860" xmlns="http://www.w3.org/2000/svg" fill-rule="evenodd" clip-rule="evenodd" stroke-linecap="round" stroke-linejoin="round" stroke-miterlimit="1.5"><path d="M1216.38 51.4l23.44-1.4-12.94 19.6-10.5-18.2z"/><path d="M1158.47 96.97l66.8-38.57" fill="none" stroke="#000" stroke-width="7"/><g stroke="#ae57c1" stroke-width="7"><path d="M1103.05 192.97l55.42-32v-64l-55.42-32-55.42 32v64l55.42 32z" fill="#c690d2"/><path d="M1047.62 96.97l55.42 32 55.43-32M1103.05 192.97v-64" fill="none"/></g><g stroke="#054d00" stroke-width="7"><path d="M936.78 288.97l166.27-96v-64l-55.42-32-166.28 96v64l55.43 32z" fill="#5cbf93"/><path d="M881.35 192.97l55.43 32 166.27-96" fill="#5cbf93"/><path d="M936.78 288.97v-64" fill="none"/></g><g stroke="#ae57c1" stroke-width="7"><path d="M770.5 384.97l166.28-96v-64l-55.43-32-166.27 96v64l55.43 32z" fill="#c690d2"/><path d="M715.08 288.97l55.43 32 166.27-96M770.5 384.97v-64" fill="none"/></g><g stroke="#054d00" stroke-width="7"><path d="M715.08 416.97l55.43-32v-64l-55.43-32-55.42 32v64l55.42 32z" fill="#5cbf93"/><path d="M659.66 320.97l55.42 32 55.43-32M715.08 416.97v-64" fill="none"/></g><g stroke="#db811f" stroke-width="7"><path d="M548.81 512.97l166.27-96v-64l-55.42-32-166.27 96v64l55.42 32z" fill="#f3c366"/><path d="M493.39 416.97l55.42 32 166.27-96M548.81 512.97v-64" fill="none"/></g><g stroke="#054d00" stroke-width="7"><path d="M437.96 576.97l110.85-64v-64l-55.42-32-110.85 64v64l55.43 32z" fill="#5cbf93"/><path d="M382.54 480.97l55.42 32 110.85-64M437.96 576.97v-64" fill="none"/></g><g stroke="#db811f" stroke-width="7"><path d="M382.54 608.97l55.42-32v-64l-55.42-32-55.42 32v64l55.42 32z" fill="#f3c366"/><path d="M327.12 512.97l55.42 32 55.42-32M382.54 608.97v-64" fill="none"/></g><g stroke="#ae57c1" stroke-width="7"><path d="M216.27 704.97l166.27-96v-64l-55.42-32-166.27 96v64l55.42 32z" fill="#c690d2"/><path d="M160.85 608.97l55.42 32 166.27-96M216.27 704.97v-64" fill="none"/></g><path d="M50 736.97l138.56-80" fill="none" stroke="#000" stroke-width="7"/><path d="M245.73 709.85l-23.44-1.4 12.94 19.59 10.5-18.19z"/><path d="M236.84 716.84l96.3 55.6" fill="none" stroke="#000" stroke-width="7"/><path d="M1187.93 165.85l-23.44-1.4 12.94 19.59 10.5-18.19z"/><path d="M1179.04 172.84l96.3 55.6" fill="none" stroke="#000" stroke-width="7"/><path d="M1070.15 233.85l-23.44-1.4 12.94 19.59 10.5-18.19z"/><path d="M1061.27 240.84l96.3 55.6" fill="none" stroke="#000" stroke-width="7"/><path d="M952.38 301.85l-23.44-1.4 12.94 19.59 10.5-18.19z"/><path d="M943.5 308.84c30.06 17.37 96.29 55.6 96.29 55.6" fill="none" stroke="#000" stroke-width="7"/><path d="M834.6 369.85l-23.43-1.4 12.93 19.59 10.5-18.19z"/><path d="M825.72 376.84l96.3 55.6" fill="none" stroke="#000" stroke-width="7"/><path d="M716.83 437.85l-23.44-1.4 12.94 19.59 10.5-18.19z"/><path d="M707.94 444.84l96.3 55.6" fill="none" stroke="#000" stroke-width="7"/><path d="M599.05 505.85l-23.43-1.4 12.93 19.59 10.5-18.19z"/><path d="M590.17 512.84l96.3 55.6" fill="none" stroke="#000" stroke-width="7"/><path d="M481.28 573.85l-23.44-1.4 12.94 19.59 10.5-18.19z"/><path d="M472.4 580.84c30.06 17.37 96.29 55.6 96.29 55.6" fill="none" stroke="#000" stroke-width="7"/><path d="M363.5 641.85l-23.43-1.4L353 660.03l10.5-18.19z"/><path d="M354.62 648.84l96.3 55.6" fill="none" stroke="#000" stroke-width="7"/><g fill-rule="nonzero"><path d="M343.75 781l-2.72-1.57-25.72 14.85 2.72 1.57 11.36-6.56 35.53 20.5 2.99-1.72-35.53-20.51 11.36-6.56zM390.13 773.22c-9.86-5.7-23.88-8.99-33.58-3.39-9.65 5.57-4 13.7 5.87 19.4 9.81 5.66 23.83 8.95 33.53 3.35 9.7-5.6 4-13.7-5.81-19.36zm-3.32 1.8c9.98 5.76 13.3 11.96 6.37 15.96-6.93 4-17.73 2.11-27.7-3.65-9.99-5.76-13.26-12-6.33-16s17.68-2.08 27.66 3.68zM470.72 709.03l-2.72-1.56-25.72 14.84 2.72 1.57 11.36-6.56 35.53 20.51 2.99-1.72-35.53-20.52 11.37-6.56zM520.93 721.07l-38.24-22.08-10.81 6.24 2.5 1.44 7.86-4.55L518 722.76l2.94-1.7zM580.71 644.88l-2.71-1.56-25.72 14.84 2.72 1.57 11.36-6.56 35.52 20.52 3-1.73-35.53-20.52 11.36-6.56zM645.34 648.6l-2.78-1.6-20.78 12 .28-12.64c0-2.24.94-8.87-5.82-12.77-6.82-3.94-16.35-3.55-23.28.45s-5.27 8.8-3.6 11.36l3.6-.48c-1.39-2.08-2.88-6.15 2.66-9.35 5.54-3.2 12.7-3.04 17.68-.16 4.99 2.88 5.15 7.59 5.15 10.47l-.27 15.84 2.77.96 24.39-14.08zM698.7 576.76l-2.7-1.57-25.73 14.85 2.72 1.57 11.36-6.56 35.53 20.5 3-1.72-35.53-20.51 11.36-6.56zM751.86 575.13c-6.54-3.78-14.3-2.5-17.46-1.12l-.17-.1c1.67-1.6 3.88-5.44-2.21-8.96-6.1-3.52-14.97-2.56-20.79.8-5.82 3.36-6.15 6.75-5.54 9.92l3.6-.16c-.27-2.72-.1-5.5 4.33-8.06 4.43-2.56 10.91-3.3 15.63-.58 4.7 2.72 4.04 6.18-.67 8.9l-2.5 1.44 2.89 1.66 2.5-1.44c4.98-2.88 11.9-3.68 17.34-.54 5.38 3.1 4.21 7.1-1.6 10.46-5.83 3.36-15.03 2.02-15.03 2.02l-.44 2.3s10.36 1.7 18.01-2.72c7.6-4.38 8.6-10.08 2.1-13.82zM816.12 509.6l-2.72-1.56-25.71 14.85 2.71 1.57 11.37-6.56 35.52 20.5 3-1.72-35.53-20.51 11.36-6.56zM873.26 507.4l-2.77-1.6-5.87 3.4-26.88-15.53-2.72 1.57 7.48 27.36 2.22 1.28 19.73-11.4 8.87 5.13 2.93-1.7-8.86-5.12 5.87-3.4zm-11.58 3.49l-16.4 9.47-6.05-22.43 22.45 12.96zM934.7 441.14l-2.72-1.57-25.71 14.85 2.71 1.57 11.36-6.56 35.53 20.51 3-1.73-35.53-20.5 11.36-6.57zM986.3 438.62c-8.04-4.64-18.85-3.52-25.22.16-1.94 1.12-3.77 2.5-4.6 3.93l-9.64-8.64 14.96-8.64-2.66-1.53-17.18 9.92 13.86 12.16 3.04-.48c0-1.6 2.11-3.59 4.6-5.03 5-2.88 13.14-3.93 19.79-.1 6.65 3.85 4.88 8.58-.11 11.46A22.95 22.95 0 01968 454.3l-.56 2.24c3.33.64 11.2 1.02 18.13-2.98s8.76-10.3.72-14.94zM1050.69 372.76l-2.72-1.57-25.71 14.85 2.71 1.57 11.37-6.56 35.52 20.51 3-1.73-35.53-20.5 11.36-6.57zM1103.12 369.44c-7.2-4.16-17.51-3.52-23.61 0-6.1 3.52-5.76 7.36-3.71 10.33-7.65-4.41-17.8-12.13-7.87-17.85 3.88-2.24 8.03-2.72 12.02-2.79l-.39-2.14s-7.2-.51-14.02 3.42c-11.14 6.43-3.32 14.85 5.99 20.22 8.81 5.1 21.28 9.6 32.26 3.27 7.48-4.32 6.54-10.3-.67-14.46zm-2.55 2.04c4.99 2.88 6.76 7.3.55 10.88-6.26 3.62-14.02 2.66-19-.22-5-2.88-6.66-7.36-.4-10.98 6.21-3.58 13.86-2.56 18.85.32zM1168.69 304.63l-2.71-1.56-25.72 14.85 2.71 1.56 11.37-6.56 35.52 20.51 3-1.72-35.53-20.51 11.36-6.56zM1197.57 286.75l-2.5-.48-25.21 14.56 2.66 1.53 22.45-12.96 16.73 31.43 3.05-1.76-17.18-32.32zM1286.75 236.5l-2.71-1.57-25.72 14.85 2.71 1.57 11.37-6.56 35.52 20.51 3-1.73-35.53-20.5 11.36-6.57zM1340.18 234.71c-4.99-2.88-11.53-3.13-17.24-1.44l-.1-.06c1.38-1.95 3.15-5.22-2.78-8.64-5.99-3.46-14.69-2.6-20.5.77-5.83 3.36-7.38 8.41-1.4 11.87 5.94 3.42 11.65 2.36 14.97 1.6l.11.06c-2.88 3.26-2.44 7.04 2.55 9.92 6.93 4 15.96 3.46 23.17-.7 7.2-4.16 8.15-9.38 1.22-13.38zm-22.84-8.2c4.72 2.73 3.83 6.19-.6 8.75-4.44 2.56-10.48 3.1-15.19.38-4.71-2.72-3.77-6.2.67-8.77 4.43-2.56 10.41-3.07 15.13-.35zm19.63 9.87c5.26 3.04 4.37 7.32-.61 10.2-5 2.88-12.42 3.4-17.68.35-5.27-3.04-4.55-7.1.72-10.14 5.26-3.04 12.3-3.45 17.56-.41z"/></g><path d="M153.05 60.74V57.6h-22.4v44.16h3.46V81.22h17.79v-3.14h-17.8V60.74h18.95zM183.58 101.76v-29.7h-3.33V88c0 5.76-2.56 11.52-9.15 11.52-6.53 0-7.36-4.8-7.36-9.28V72.06h-3.33v17.67c0 7.3 2.05 12.67 10.24 12.67 4.16 0 7.68-1.92 9.6-5.44v4.8h3.33zM216.6 101.76V84.03c0-7.04-1.98-12.48-10.5-12.48-4.28 0-8.12 2.5-9.6 6.02v-5.5h-3.32v29.69h3.33V87.04c0-7.04 3.07-12.6 9.47-12.6s7.23 4.92 7.23 9.72v17.6h3.4zM250.33 97.28l-1.92-2.24s-3.2 4.35-9.92 4.35-11.33-5.31-11.33-12.67 5.25-12.16 11.2-12.16c5.89 0 8.45 2.88 9.73 4.35l2.11-2.24c-.64-.83-3.84-5.12-11.71-5.12-7.8 0-14.85 6.21-14.85 15.36 0 9.09 6.53 15.49 14.53 15.49 8 0 11.07-3.84 12.16-5.12zM268.12 101.44l-.32-2.88s-1.28.83-3.2.83c-3.97 0-4.35-3.9-4.35-7.17V75.2h7.55v-3h-7.49v-9.48h-3.39v9.47h-4.48v3.01h4.48v15.04c0 4.8.07 6.98 1.09 8.96 1.09 1.98 2.75 3.2 5.63 3.2 1.92 0 3.4-.32 4.48-.96zM278.62 61.5a2.73 2.73 0 00-2.76-2.75 2.73 2.73 0 00-2.75 2.75 2.73 2.73 0 002.75 2.76 2.73 2.73 0 002.76-2.76zm-1.1 40.26v-29.7h-3.32v29.7h3.33zM315.6 87.04c0-8.96-6.71-15.49-15.23-15.49-8.44 0-15.16 6.53-15.16 15.49s6.72 15.36 15.17 15.36c8.5 0 15.23-6.4 15.23-15.36zm-3.51-.13c0 6.85-4.48 12.48-11.71 12.48-7.17 0-11.65-5.63-11.65-12.48 0-6.91 4.48-12.48 11.64-12.48 7.24 0 11.72 5.57 11.72 12.48zM346.39 101.76V84.03c0-7.04-1.98-12.48-10.5-12.48-4.28 0-8.12 2.5-9.6 6.02v-5.5h-3.32v29.69h3.32V87.04c0-7.04 3.08-12.6 9.48-12.6s7.23 4.92 7.23 9.72v17.6h3.39zM379.99 101.76V57.6H367.5v2.88h9.09v41.28h3.39z" fill-rule="nonzero"/><path fill="#c690d2" stroke="#ae57c1" stroke-width="7" d="M50 50h60v60H50z"/><path d="M153.05 160.74v-3.14h-22.4v44.16h3.46v-20.54h17.79v-3.14h-17.8v-17.34h18.95zM183.58 201.76v-29.7h-3.33V188c0 5.76-2.56 11.52-9.15 11.52-6.53 0-7.36-4.8-7.36-9.28v-18.18h-3.33v17.67c0 7.3 2.05 12.67 10.24 12.67 4.16 0 7.68-1.92 9.6-5.44v4.8h3.33zM216.6 201.76v-17.73c0-7.04-1.98-12.48-10.5-12.48-4.28 0-8.12 2.5-9.6 6.02v-5.5h-3.32v29.69h3.33v-14.72c0-7.04 3.07-12.6 9.47-12.6s7.23 4.92 7.23 9.72v17.6h3.4zM250.33 197.28l-1.92-2.24s-3.2 4.35-9.92 4.35-11.33-5.31-11.33-12.67 5.25-12.16 11.2-12.16c5.89 0 8.45 2.88 9.73 4.35l2.11-2.24c-.64-.83-3.84-5.12-11.71-5.12-7.8 0-14.85 6.21-14.85 15.36 0 9.09 6.53 15.49 14.53 15.49 8 0 11.07-3.84 12.16-5.12zM268.12 201.44l-.32-2.88s-1.28.83-3.2.83c-3.97 0-4.35-3.9-4.35-7.17V175.2h7.55v-3h-7.49v-9.48h-3.39v9.47h-4.48v3.01h4.48v15.04c0 4.8.07 6.98 1.09 8.96 1.09 1.98 2.75 3.2 5.63 3.2 1.92 0 3.4-.32 4.48-.96zM278.62 161.5a2.73 2.73 0 00-2.76-2.75 2.73 2.73 0 00-2.75 2.75 2.73 2.73 0 002.75 2.76 2.73 2.73 0 002.76-2.76zm-1.1 40.26v-29.7h-3.32v29.7h3.33zM315.6 187.04c0-8.96-6.71-15.49-15.23-15.49-8.44 0-15.16 6.53-15.16 15.49s6.72 15.36 15.17 15.36c8.5 0 15.23-6.4 15.23-15.36zm-3.51-.13c0 6.85-4.48 12.48-11.71 12.48-7.17 0-11.65-5.63-11.65-12.48 0-6.91 4.48-12.48 11.64-12.48 7.24 0 11.72 5.57 11.72 12.48zM346.39 201.76v-17.73c0-7.04-1.98-12.48-10.5-12.48-4.28 0-8.12 2.5-9.6 6.02v-5.5h-3.32v29.69h3.32v-14.72c0-7.04 3.08-12.6 9.48-12.6s7.23 4.92 7.23 9.72v17.6h3.39zM396.63 201.76v-3.2h-24l12.8-12.48c2.24-2.24 9.4-8.32 9.4-16.13 0-7.87-5.88-12.99-13.88-12.99s-11.84 5.76-13.44 9.28l2.56 1.6c1.28-2.88 4.48-7.8 10.88-7.8s10.37 4.28 10.37 10.04c0 5.76-4.61 10.56-7.5 13.44l-16 15.68.65 2.56h28.16z" fill-rule="nonzero"/><path fill="#f3c366" stroke="#db811f" stroke-width="7" d="M50 150h60v60H50z"/><g><path d="M153.05 260.74v-3.14h-22.4v44.16h3.46v-20.54h17.79v-3.14h-17.8v-17.34h18.95zM183.58 301.76v-29.7h-3.33V288c0 5.76-2.56 11.52-9.15 11.52-6.53 0-7.36-4.8-7.36-9.28v-18.18h-3.33v17.67c0 7.3 2.05 12.67 10.24 12.67 4.16 0 7.68-1.92 9.6-5.44v4.8h3.33zM216.6 301.76v-17.73c0-7.04-1.98-12.48-10.5-12.48-4.28 0-8.12 2.5-9.6 6.02v-5.5h-3.32v29.69h3.33v-14.72c0-7.04 3.07-12.6 9.47-12.6s7.23 4.92 7.23 9.72v17.6h3.4zM250.33 297.28l-1.92-2.24s-3.2 4.35-9.92 4.35-11.33-5.31-11.33-12.67 5.25-12.16 11.2-12.16c5.89 0 8.45 2.88 9.73 4.35l2.11-2.24c-.64-.83-3.84-5.12-11.71-5.12-7.8 0-14.85 6.21-14.85 15.36 0 9.09 6.53 15.49 14.53 15.49 8 0 11.07-3.84 12.16-5.12zM268.12 301.44l-.32-2.88s-1.28.83-3.2.83c-3.97 0-4.35-3.9-4.35-7.17V275.2h7.55v-3h-7.49v-9.48h-3.39v9.47h-4.48v3.01h4.48v15.04c0 4.8.07 6.98 1.09 8.96 1.09 1.98 2.75 3.2 5.63 3.2 1.92 0 3.4-.32 4.48-.96zM278.62 261.5a2.73 2.73 0 00-2.76-2.75 2.73 2.73 0 00-2.75 2.75 2.73 2.73 0 002.75 2.76 2.73 2.73 0 002.76-2.76zm-1.1 40.26v-29.7h-3.32v29.7h3.33zM315.6 287.04c0-8.96-6.71-15.49-15.23-15.49-8.44 0-15.16 6.53-15.16 15.49s6.72 15.36 15.17 15.36c8.5 0 15.23-6.4 15.23-15.36zm-3.51-.13c0 6.85-4.48 12.48-11.71 12.48-7.17 0-11.65-5.63-11.65-12.48 0-6.91 4.48-12.48 11.64-12.48 7.24 0 11.72 5.57 11.72 12.48zM346.39 301.76v-17.73c0-7.04-1.98-12.48-10.5-12.48-4.28 0-8.12 2.5-9.6 6.02v-5.5h-3.32v29.69h3.32v-14.72c0-7.04 3.08-12.6 9.48-12.6s7.23 4.92 7.23 9.72v17.6h3.39zM395.35 289.8c0-7.56-5.76-10.76-8.96-11.2v-.2c2.56-.64 7.68-3.2 7.68-10.24s-6.08-11.2-12.8-11.2c-6.72 0-10.3 3.2-13.12 6.72l2.24 1.92c2.56-2.88 5.44-5.57 10.56-5.57s9.6 3.01 9.6 8.45c0 5.44-3.84 8.51-9.28 8.51h-2.88v3.33h2.88c5.76 0 10.56 3.2 10.56 9.47 0 6.21-4.67 9.54-11.4 9.54-6.71 0-10.68-6.66-10.68-6.66l-2.56 2.05s4.29 7.68 13.12 7.68c8.77 0 15.04-5.12 15.04-12.6z" fill-rule="nonzero"/><path fill="#5cbf93" stroke="#054d00" stroke-width="7" d="M50 250h60v60H50z"/></g><path d="M375.8 446.3l-16.35-34.86-1.66.96-16.35 53.73 3.15-1.82 4.77-16 18.24-10.53 4.7 10.53 3.5-2.02zm-9.37-11.05l-15.96 9.22 7.98-27.2 7.98 17.98zM405.73 414.3c0-8.78-4.82-12.71-12.75-8.14-3.88 2.24-7.43 6.34-9.59 11.81v-5.76l-2.88 1.67v41.85l2.88-1.66v-17.73c2.5 3.04 5.99 2.75 9.7.6 7.65-4.4 12.64-13.82 12.64-22.65zm-3.05 1.75c0 6.91-3.5 14.37-9.7 17.95-6.26 3.62-9.7.03-9.7-6.75 0-6.98 3.44-14.6 9.7-18.2 6.2-3.6 9.7.15 9.7 7zM437.6 395.9c0-8.78-4.83-12.71-12.75-8.14-3.88 2.24-7.43 6.34-9.59 11.81v-5.76l-2.88 1.67v41.85l2.88-1.66v-17.73c2.5 3.04 5.99 2.75 9.7.6 7.65-4.4 12.64-13.82 12.64-22.65zm-3.05 1.75c0 6.91-3.5 14.37-9.7 17.95-6.26 3.62-9.7.03-9.7-6.75 0-6.98 3.44-14.6 9.7-18.2 6.2-3.6 9.7.15 9.7 7zM447.13 405.1v-44.15l-2.88 1.66v44.16l2.88-1.66zM459.82 357.52c0-1.53-1.05-2.14-2.38-1.37a5.22 5.22 0 00-2.38 4.13c0 1.53 1.05 2.14 2.38 1.37a5.22 5.22 0 002.38-4.13zm-.94 40.8v-29.7L456 370.3V400l2.88-1.67zM488.64 376.66l-1.66-1.28s-2.77 5.95-8.6 9.31c-5.81 3.36-9.8.35-9.8-7 0-7.37 4.54-14.8 9.7-17.77 5.1-2.94 7.31-1.34 8.42-.5l1.83-3.3c-.55-.52-3.32-3.2-10.14.73-6.76 3.9-12.86 13.63-12.86 22.79 0 9.08 5.65 12.22 12.58 8.22s9.59-9.38 10.53-11.2zM512.36 367.44v-17.6c0-7.87-3.1-10.81-10.25-6.69-3.88 2.24-6.93 5.73-8.6 7.97l1.12 1.8a27 27 0 017.59-6.95c4.05-2.34 7.2-1.47 7.2 3.97v1.6l-7.03 4.38c-6.93 4.32-10.26 9.76-10.26 14.88 0 5.12 3.6 6.88 8.6 4 4.98-2.88 7.75-8 8.7-9.82v4.16l2.93-1.7zm-2.93-13.34v7.36c-1.22 2.94-4 7.74-8.15 10.14-4.16 2.4-6.26.74-6.26-2.46s1.71-6.88 7.09-10.3l7.32-4.74zM530.65 356.56l-.27-2.72s-1.11 1.47-2.78 2.43c-3.43 1.99-3.76-1.72-3.76-4.99v-17.02l6.54-3.78v-3l-6.49 3.74v-9.47l-2.94 1.7v9.47l-3.88 2.24v3l3.88-2.24v15.04c0 4.8.06 6.95.95 8.42.94 1.44 2.38 1.82 4.87.38a13.43 13.43 0 003.88-3.2zM539.74 311.38c0-1.54-1.05-2.14-2.38-1.38a5.22 5.22 0 00-2.38 4.13c0 1.54 1.05 2.15 2.38 1.38a5.22 5.22 0 002.38-4.13zm-.94 40.8v-29.7l-2.88 1.67v29.7l2.88-1.67zM571.78 318.42c0-8.96-5.82-12.13-13.2-7.87-7.31 4.22-13.13 14.1-13.13 23.07 0 8.96 5.82 12 13.14 7.77 7.37-4.25 13.19-14.01 13.19-22.97zm-3.05 1.63c0 6.85-3.88 14.72-10.14 18.34-6.21 3.58-10.1.19-10.1-6.66 0-6.91 3.89-14.72 10.1-18.3 6.26-3.62 10.14-.3 10.14 6.62zM598.44 317.75v-17.73c0-7.04-1.72-11.49-9.1-7.23-3.7 2.14-7.03 6.56-8.3 10.81v-5.5l-2.89 1.66v29.7l2.88-1.67v-14.72c0-7.04 2.66-14.14 8.2-17.34 5.55-3.2 6.27 1.31 6.27 6.11v17.6l2.94-1.7zM639.73 277.59c0-8-4.88-11.07-11.64-7.17-6.82 3.93-12.47 13.4-12.47 22.56 0 9.09 4.82 12.7 12.3 8.38 7.48-4.32 10.7-10.65 10.7-10.65l-1.39-1.57s-3.21 5.7-9.03 9.06c-5.82 3.36-9.26.67-9.54-6.21l20.9-12.07s.17-1.37.17-2.33zm-2.94 1.05l-18.01 10.4c.16-4.25 2.77-11.97 9.14-15.65 6.37-3.68 8.87 1.41 8.87 5.25zM665.5 279.03l-10.53-9.6 9.25-19.36-3.16 1.82-7.75 16.45-7.76-7.49-3.22 1.86 9.31 8.64-10.53 21.76 3.33-1.92 8.87-18.7 8.86 8.46 3.33-1.92zM691.27 247.83c0-8-4.88-11.08-11.64-7.17-6.82 3.93-12.47 13.4-12.47 22.56 0 9.09 4.82 12.7 12.3 8.38 7.49-4.32 10.7-10.65 10.7-10.65l-1.38-1.57s-3.22 5.7-9.04 9.06c-5.82 3.36-9.25.67-9.53-6.21l20.9-12.07s.16-1.37.16-2.33zm-2.94 1.05l-18.01 10.4c.17-4.25 2.77-11.96 9.14-15.64 6.38-3.68 8.87 1.4 8.87 5.24zM718.82 243.76l-1.67-1.28s-2.77 5.96-8.59 9.32c-5.82 3.36-9.8.35-9.8-7.01 0-7.36 4.54-14.79 9.7-17.76 5.1-2.95 7.3-1.35 8.42-.51l1.83-3.3c-.56-.51-3.33-3.2-10.15.74-6.76 3.9-12.86 13.63-12.86 22.78 0 9.09 5.66 12.22 12.59 8.22 6.92-4 9.58-9.37 10.53-11.2zM743.48 234v-29.7l-2.88 1.67v15.94c0 5.76-2.22 12.8-7.93 16.1-5.65 3.26-6.37-1.13-6.37-5.6v-18.18l-2.88 1.66v17.67c0 7.3 1.77 11.64 8.86 7.55 3.6-2.08 6.66-5.76 8.32-10.24v4.8l2.88-1.67zM762.32 222.8l-.27-2.72s-1.11 1.47-2.78 2.43c-3.43 1.99-3.76-1.72-3.76-4.99V200.5l6.54-3.78v-3l-6.49 3.74v-9.47l-2.94 1.7v9.46l-3.88 2.24v3.01l3.88-2.24v15.04c0 4.8.06 6.95.95 8.42.94 1.44 2.38 1.82 4.87.38a13.43 13.43 0 003.88-3.2zM771.41 177.62c0-1.54-1.05-2.15-2.38-1.38a5.22 5.22 0 00-2.38 4.13c0 1.54 1.05 2.14 2.38 1.38a5.22 5.22 0 002.38-4.13zm-.94 40.8v-29.7l-2.88 1.67v29.7l2.88-1.67zM803.45 184.66c0-8.96-5.82-12.13-13.2-7.87-7.3 4.22-13.13 14.1-13.13 23.07 0 8.96 5.82 12 13.14 7.77 7.37-4.25 13.19-14.01 13.19-22.97zm-3.05 1.63c0 6.85-3.88 14.72-10.14 18.34-6.21 3.58-10.09.19-10.09-6.66 0-6.91 3.88-14.72 10.09-18.3 6.26-3.62 10.14-.3 10.14 6.62zM830.1 183.99v-17.73c0-7.04-1.71-11.49-9.08-7.23-3.72 2.14-7.04 6.56-8.32 10.81v-5.5l-2.88 1.66v29.7l2.88-1.67v-14.72c0-7.04 2.66-14.14 8.2-17.34 5.55-3.2 6.27 1.31 6.27 6.11v17.6l2.94-1.7zM844.9 605c-5.83-3.36-13.03-2.14-14.42-1.92-1.38.22-7.42 1.66-11.3 2.56-3.88.9-8.6 1.63-12.92-.86-4.32-2.5-3.1-5.9 1.33-8.45 4.44-2.56 8.98-2.5 12.25-2.27l.28-2.28c-.89-.12-8.54-.83-14.97 2.88-6.43 3.72-7.37 8.74-1.83 11.94 5.55 3.2 12.09 2.3 14.41 1.92 2.39-.42 5.94-1.25 9.04-2.02 3.1-.76 10.09-2.62 15.07.26 5 2.88 4.05 6.94-.88 9.8-4.93 2.84-11.64 2.8-15.58 2.14l-.66 2.3c2.38.42 11.14 1.5 18.57-2.78 7.42-4.3 7.42-9.86 1.6-13.22zM880.92 595.72l-15.24-8.8c-6.82-3.93-14.02-4.51-21.17-.38-3.88 2.24-5.44 4.86-6 6.46l3.22.58c.11-.58 1.39-3.36 5.38-5.67a14.3 14.3 0 0114.24-.1l1.39.8-6.76 4.23c-6.65 4.16-6.93 7.84-2.5 10.4 4.44 2.56 11.37 2.4 16.35-.48 5-2.88 4.72-6.24 4.55-7.42l3.6 2.08 2.94-1.7zm-15.96-5.82l6.37 3.68c.72 1.82.72 5.02-3.44 7.42-4.15 2.4-8.75 2.18-11.52.58-2.78-1.6-3.39-3.94 1.71-7.2l6.88-4.48zM923.7 571.02l-15.62-9.03c-5.16-2.97-12.03-5.21-19.12-1.12-3.44 1.99-4.44 4.93-2.78 7.81-4.43-1.28-8.97-1.02-13.02 1.31-3.44 1.99-4.32 5.25-2.55 7.5l-4.77-2.76-2.88 1.66 25.72 14.85 2.88-1.66-13.41-7.75c-5.43-3.13-7.6-7.45-2.6-10.33 4.43-2.56 9.25-1.06 13.57 1.44l15.63 9.02 2.88-1.66-13.4-7.75c-5.44-3.13-7.6-7.45-2.61-10.33 4.98-2.88 10.36-.42 13.58 1.44l15.63 9.02 2.88-1.66zM944.5 544.3c-7.6-4.39-18.24-4.96-26.17-.39-3.88 2.24-5.65 5.32-4.15 8.68l-5-2.88-2.88 1.66 36.25 20.93 2.89-1.67-15.36-8.86c6.38.8 11.36-.35 15.08-2.5 7.65-4.41 6.98-10.56-.67-14.97zm-3.06 1.76c5.99 3.45 7.2 8.19 1 11.77-6.26 3.62-14.52 2.82-20.4-.57-6.04-3.5-7.48-8.3-1.21-11.9 6.2-3.6 14.68-2.73 20.61.7zM966.77 546.15l-38.24-22.08-2.88 1.67 38.24 22.08 2.88-1.67zM983.4 520.23c-6.93-4-16.9-4.13-23.67-.22-6.81 3.93-7.09 10.3.84 14.88 7.87 4.54 18.23 4.96 25.71.64 7.49-4.32 6.82-8.42 6.82-8.42l-3.44-.38s.11 3.77-5.7 7.13c-5.82 3.36-13.3 3.01-19.68-.35l20.9-12.06s-.95-.74-1.78-1.22zm-3.49 1.38L961.9 532c-3.44-2.18-6.21-6.79.16-10.47 6.38-3.68 14.52-1.85 17.85.07zM1012.22 511.79c-4.88-2.82-11.36-1-15.69.22-4.26 1.18-8.2 2.11-10.86.58-2.66-1.54-2.05-3.56.83-5.22 2.88-1.66 5.66-2.11 9.37-2.02v-2.05c-4.27-.16-7.93.42-11.7 2.6-3.76 2.17-5.6 5.79-.94 8.48 4.66 2.68 11.14.86 14.14.03 2.99-.83 8.75-2.82 12.08-.9 3.32 1.92 2.05 4.45-1.17 6.3-3.21 1.86-7.37 2.4-11.47 1.96l-.39 2.14c4.27.61 9.6.23 14.36-2.52 4.77-2.76 6.26-6.82 1.44-9.6z" fill-rule="nonzero"/></svg>