<svg viewBox="0 0 2995 1576" xmlns="http://www.w3.org/2000/svg" fill-rule="evenodd" clip-rule="evenodd" stroke-linecap="round" stroke-linejoin="round" stroke-miterlimit="1.5"><g stroke="#5e5e5e" stroke-width="10"><path d="M875.77 474.41v64l720.56 415.56 720.57-415.55v-64L1596.33 58.4 875.77 474.4z" fill="#fff"/><path d="M875.77 474.41l720.56 416.02 720.57-416.01M1596.33 890.43v63.54" fill="none" stroke-linejoin="miter" stroke-miterlimit="1"/></g><g stroke-width="7"><g stroke="#33525c"><path d="M1540.9 454.41v20l-277.14 160.01-277.14-160v-20l277.14-160.02 277.14 160.01z" fill="#89c2d4"/><path d="M986.63 454.41l277.14 160 277.14-160M1263.77 614.42v20" fill="none" stroke-linejoin="miter" stroke-miterlimit="1"/></g><path d="M1291.48 320.4l166.28 96.01v20l-110.85 64-166.29-96v-20l110.86-64z" fill="#fff" stroke="#150900"/><path d="M1180.62 384.4l166.28 96.01 110.86-64M1346.91 480.41v20" fill="none" stroke="#000" stroke-linejoin="miter" stroke-miterlimit="1"/><g><path d="M1168.93 391.16l166.28 96v20l-110.85 64-166.28-96v-20l110.85-64z" fill="#fff" stroke="#150900"/><path d="M1058.08 455.16l166.28 96 110.86-64M1224.36 551.17v20" fill="none" stroke="#000" stroke-linejoin="miter" stroke-miterlimit="1"/></g></g><g stroke-width="7"><g stroke="#33525c"><path d="M1873.47 646.42v20l-277.14 160-277.14-160v-20l277.14-160 277.14 160z" fill="#89c2d4"/><path d="M1319.19 646.42l277.14 160 277.14-160M1596.33 806.43v20" fill="none" stroke-linejoin="miter" stroke-miterlimit="1"/></g><path d="M1624.05 512.41l166.28 96v20.01l-110.85 64-166.29-96v-20l110.86-64z" fill="#fff" stroke="#150900"/><path d="M1513.19 576.42l166.28 96 110.86-64M1679.48 672.42v20" fill="none" stroke="#000" stroke-linejoin="miter" stroke-miterlimit="1"/><g><path d="M1501.5 583.17l166.28 96v20l-110.85 64-166.29-96v-20l110.86-64z" fill="#fff" stroke="#150900"/><path d="M1390.64 647.17l166.28 96 110.86-64M1556.93 743.18v20" fill="none" stroke="#000" stroke-linejoin="miter" stroke-miterlimit="1"/></g></g><g stroke-width="7"><g stroke="#33525c"><path d="M1863.53 265.34v20l-277.14 160-277.14-160v-20l277.14-160.01 277.14 160z" fill="#89c2d4"/><path d="M1309.25 265.34l277.14 160 277.14-160M1586.39 425.35v20" fill="none" stroke-linejoin="miter" stroke-miterlimit="1"/></g><path d="M1614.11 131.33l166.28 96v20l-110.85 64.01-166.29-96v-20l110.86-64z" fill="#fff" stroke="#150900"/><path d="M1503.25 195.34l166.28 96 110.86-64M1669.53 291.34v20" fill="none" stroke="#000" stroke-linejoin="miter" stroke-miterlimit="1"/><g><path d="M1491.56 202.09l166.28 96v20l-110.85 64-166.29-96v-20l110.86-64z" fill="#fff" stroke="#150900"/><path d="M1380.7 266.09l166.28 96 110.86-64M1546.99 362.1v20" fill="none" stroke="#000" stroke-linejoin="miter" stroke-miterlimit="1"/></g></g><g stroke-width="7"><g stroke="#33525c"><path d="M2186.55 453.67v20l-277.14 160-277.14-160v-20l277.14-160 277.14 160z" fill="#89c2d4"/><path d="M1632.27 453.67l277.14 160 277.14-160M1909.41 613.68v20" fill="none" stroke-linejoin="miter" stroke-miterlimit="1"/></g><path d="M1937.12 319.66l166.28 96v20l-110.85 64.01-166.29-96v-20l110.86-64z" fill="#fff" stroke="#150900"/><path d="M1826.26 383.67l166.28 96 110.86-64M1992.55 479.67v20" fill="none" stroke="#000" stroke-linejoin="miter" stroke-miterlimit="1"/><g><path d="M1814.57 390.42l166.28 96v20l-110.85 64-166.29-96v-20l110.86-64z" fill="#fff" stroke="#150900"/><path d="M1703.72 454.42l166.28 96 110.86-64M1870 550.42v20" fill="none" stroke="#000" stroke-linejoin="miter" stroke-miterlimit="1"/></g></g><g stroke="#5e5e5e" stroke-width="10"><path d="M50 957.7v64l720.56 415.56 720.57-415.56v-64L770.55 541.68 50 957.7z" fill="#fff"/><path d="M50 957.7l720.56 416.02 720.57-416.02M770.56 1373.72v63.54" fill="none" stroke-linejoin="miter" stroke-miterlimit="1"/></g><g stroke-width="7"><g stroke="#33525c"><path d="M715.13 937.7v20L438 1117.7l-277.14-160v-20l277.13-160.01 277.14 160z" fill="#89c2d4"/><path d="M160.86 937.7l277.13 160 277.14-160M438 1097.7v20" fill="none" stroke-linejoin="miter" stroke-miterlimit="1"/></g><path d="M465.7 803.7l166.3 96v20l-110.86 64-166.29-96v-20l110.86-64z" fill="#fff" stroke="#150900"/><path d="M354.85 867.7l166.29 96 110.85-64M521.14 963.7v20" fill="none" stroke="#000" stroke-linejoin="miter" stroke-miterlimit="1"/><g><path d="M343.16 874.44l166.28 96v20.01l-110.85 64-166.29-96v-20l110.86-64z" fill="#fff" stroke="#150900"/><path d="M232.3 938.45l166.29 96 110.85-64M398.59 1034.45v20" fill="none" stroke="#000" stroke-linejoin="miter" stroke-miterlimit="1"/></g></g><g stroke-width="7"><g stroke="#33525c"><path d="M1047.7 1129.7v20l-277.14 160-277.14-160v-20l277.14-160 277.14 160z" fill="#89c2d4"/><path d="M493.42 1129.7l277.14 160 277.14-160M770.56 1289.71v20" fill="none" stroke-linejoin="miter" stroke-miterlimit="1"/></g><path d="M798.28 995.7l166.28 96v20l-110.86 64-166.28-96v-20l110.86-64z" fill="#fff" stroke="#150900"/><path d="M687.42 1059.7l166.28 96 110.86-64M853.7 1155.71v20" fill="none" stroke="#000" stroke-linejoin="miter" stroke-miterlimit="1"/><g><path d="M675.73 1066.45l166.28 96v20l-110.85 64-166.29-96v-20l110.86-64z" fill="#fff" stroke="#150900"/><path d="M564.87 1130.46l166.29 96 110.85-64M731.16 1226.46v20" fill="none" stroke="#000" stroke-linejoin="miter" stroke-miterlimit="1"/></g></g><g stroke-width="7"><g stroke="#33525c"><path d="M1037.76 748.62v20L760.62 928.63l-277.14-160v-20L760.62 588.6l277.14 160.01z" fill="#89c2d4"/><path d="M483.48 748.62l277.14 160 277.14-160M760.62 908.63v20" fill="none" stroke-linejoin="miter" stroke-miterlimit="1"/></g><path d="M788.34 614.62l166.28 96v20l-110.86 64-166.28-96v-20l110.86-64z" fill="#fff" stroke="#150900"/><path d="M677.48 678.62l166.28 96 110.86-64M843.76 774.62v20" fill="none" stroke="#000" stroke-linejoin="miter" stroke-miterlimit="1"/><g><path d="M665.79 685.37l166.28 96v20l-110.86 64-166.28-96v-20l110.86-64z" fill="#fff" stroke="#150900"/><path d="M554.93 749.37l166.28 96 110.86-64M721.21 845.38v20" fill="none" stroke="#000" stroke-linejoin="miter" stroke-miterlimit="1"/></g></g><g stroke-width="7"><g stroke="#33525c"><path d="M1360.78 936.95v20l-277.14 160.01-277.14-160v-20l277.14-160.01 277.14 160z" fill="#89c2d4"/><path d="M806.5 936.95l277.13 160.01 277.14-160M1083.63 1096.96v20" fill="none" stroke-linejoin="miter" stroke-miterlimit="1"/></g><path d="M1111.35 802.95l166.28 96v20l-110.85 64-166.29-96v-20l110.86-64z" fill="#fff" stroke="#150900"/><path d="M1000.49 866.95l166.28 96 110.86-64M1166.78 962.95v20" fill="none" stroke="#000" stroke-linejoin="miter" stroke-miterlimit="1"/><g><path d="M988.8 873.7l166.29 96v20l-110.86 64-166.28-96v-20l110.85-64z" fill="#fff" stroke="#150900"/><path d="M877.95 937.7l166.28 96 110.86-64M1044.23 1033.71v20" fill="none" stroke="#000" stroke-linejoin="miter" stroke-miterlimit="1"/></g></g><path d="M1523.14 1235.09c0-14.08-10.37-22.79-22.4-22.79-11.97 0-22.4 8.7-22.4 22.79 0 14.08 10.43 22.78 22.4 22.78 12.03 0 22.4-8.7 22.4-22.78zm-3.58-.07c0 12.3-8.7 19.59-18.82 19.59-9.98 0-18.75-7.3-18.75-19.59 0-12.41 8.7-19.65 18.75-19.65 10.11 0 18.82 7.3 18.82 19.65zM1554.44 1257.1v-17.72c0-7.04-1.99-12.48-10.5-12.48-4.29 0-8.13 2.5-9.6 6.01v-5.5h-3.33v29.7h3.33v-14.73c0-7.04 3.07-12.6 9.47-12.6s7.23 4.92 7.23 9.72v17.6h3.4zM1589.32 1240.78c0-8-5.64-13.88-13.44-13.88-7.88 0-14.4 6.2-14.4 15.36 0 9.08 5.56 15.48 14.2 15.48s12.36-4.48 12.36-4.48l-1.6-2.36s-3.72 3.84-10.44 3.84c-6.72 0-10.68-4.68-11-11.72h24.12s.2-1.28.2-2.24zm-3.4-.64h-20.8c.2-4.16 3.2-10.36 10.56-10.36s10.24 6.52 10.24 10.36zM1637.32 1242.38c0-8.96-6.72-15.48-15.23-15.48-8.45 0-15.17 6.52-15.17 15.48s6.72 15.36 15.17 15.36c8.5 0 15.23-6.4 15.23-15.36zm-3.52-.12c0 6.84-4.48 12.48-11.71 12.48-7.17 0-11.65-5.64-11.65-12.48 0-6.92 4.48-12.48 11.65-12.48 7.23 0 11.7 5.56 11.7 12.48zM1658.44 1230.6l.32-3.26s-1.28-.44-3.2-.44c-3.2 0-6.47 2.04-7.55 6.08v-5.57h-3.33v29.7h3.33v-16c0-4.55 1.53-11.01 7.23-11.01 1.6 0 2.5.25 3.2.5zM1717.13 1257.1v-18.04c0-5.96-1.73-12.16-9.92-12.16-3.97 0-7.5 2.36-9.41 6.2-1.28-3.84-4.16-6.2-8.83-6.2-3.97 0-7.75 2.75-8.96 6.01v-5.5h-3.33v29.7h3.33v-15.5c0-6.27 3.07-11.83 8.83-11.83 5.12 0 6.4 4.28 6.4 9.28v18.04h3.33v-15.48c0-6.28 3.07-11.84 8.83-11.84s6.4 5.56 6.4 9.28v18.04h3.33zM1754.57 1242.38c0-8.96-6.72-15.48-15.24-15.48-8.44 0-15.16 6.52-15.16 15.48s6.72 15.36 15.16 15.36c8.52 0 15.24-6.4 15.24-15.36zm-3.52-.12c0 6.84-4.48 12.48-11.72 12.48-7.16 0-11.64-5.64-11.64-12.48 0-6.92 4.48-12.48 11.64-12.48 7.24 0 11.72 5.56 11.72 12.48zM1775.69 1230.6l.32-3.26s-1.28-.44-3.2-.44c-3.2 0-6.47 2.04-7.56 6.08v-5.57h-3.32v29.7h3.32v-16c0-4.55 1.54-11.01 7.24-11.01 1.6 0 2.5.25 3.2.5zM1806.4 1240.78c0-8-5.62-13.88-13.43-13.88-7.88 0-14.4 6.2-14.4 15.36 0 9.08 5.56 15.48 14.2 15.48 8.65 0 12.36-4.48 12.36-4.48l-1.6-2.36s-3.71 3.84-10.44 3.84c-6.72 0-10.68-4.68-11-11.72h24.13s.19-1.28.19-2.24zm-3.38-.64h-20.8c.19-4.16 3.2-10.36 10.55-10.36 7.37 0 10.25 6.52 10.25 10.36zM1850 1257.1v-17.72c0-7.04-2-12.48-10.5-12.48-4.3 0-8.13 2.5-9.6 6.01v-19.97h-3.33v44.16h3.33v-14.72c0-7.04 3.07-12.6 9.47-12.6s7.23 4.92 7.23 9.72v17.6h3.4zM1880.07 1257.1v-17.6c0-7.87-3.58-12.6-11.84-12.6-4.48 0-8 1.72-9.92 3l1.28 2.44c.64-.52 4.16-2.56 8.77-2.56 4.67 0 8.32 2.68 8.32 8.12v1.6l-8.13.32c-8 .32-11.84 3.84-11.84 8.96 0 5.12 4.16 8.96 9.92 8.96s8.96-3.52 10.05-4.8v4.16h3.4zm-3.39-15.04v7.36c-1.4 2.24-4.6 5.44-9.4 5.44-4.8 0-7.24-2.88-7.24-6.08s1.98-5.88 8.2-6.2l8.44-.52zM1902.8 1230.6l.31-3.26s-1.28-.44-3.2-.44c-3.2 0-6.46 2.04-7.55 6.08v-5.57h-3.33v29.7h3.33v-16c0-4.55 1.54-11.01 7.23-11.01 1.6 0 2.5.25 3.2.5zM1905.67 1242.26c0 8.76 5.76 15.48 14.72 15.48 4.48 0 8.51-1.92 11.01-6.14v5.5h3.4v-44.16h-3.4v20.04c-2.88-4.36-6.85-6.08-11.14-6.08-8.83 0-14.59 6.52-14.59 15.36zm3.52 0c0-6.92 4.03-12.48 11.2-12.48 7.23 0 11.2 5.56 11.2 12.48 0 6.84-3.97 12.48-11.2 12.48-7.17 0-11.2-5.64-11.2-12.48zM1985.03 1227.4h-3.52l-8 24.9-9.28-24.96h-2.56l-9.28 24.96-8-24.9h-3.52l9.92 29.7h2.88l9.28-24.96 9.28 24.96h2.88l9.92-29.7zM2011.6 1257.1v-17.6c0-7.87-3.6-12.6-11.85-12.6-4.48 0-8 1.72-9.92 3l1.28 2.44c.64-.52 4.16-2.56 8.77-2.56 4.67 0 8.32 2.68 8.32 8.12v1.6l-8.13.32c-8 .32-11.84 3.84-11.84 8.96 0 5.12 4.16 8.96 9.92 8.96s8.96-3.52 10.05-4.8v4.16h3.4zm-3.4-15.04v7.36c-1.4 2.24-4.6 5.44-9.4 5.44-4.8 0-7.24-2.88-7.24-6.08s1.98-5.88 8.2-6.2l8.44-.52zM2034.31 1230.6l.32-3.26s-1.28-.44-3.2-.44c-3.2 0-6.46 2.04-7.55 6.08v-5.57h-3.33v29.7h3.33v-16c0-4.55 1.54-11.01 7.23-11.01 1.6 0 2.5.25 3.2.5zM2065.03 1240.78c0-8-5.63-13.88-13.44-13.88-7.87 0-14.4 6.2-14.4 15.36 0 9.08 5.57 15.48 14.21 15.48s12.35-4.48 12.35-4.48l-1.6-2.36s-3.7 3.84-10.43 3.84c-6.72 0-10.69-4.68-11-11.72h24.12s.2-1.28.2-2.24zm-3.39-.64h-20.8c.2-4.16 3.2-10.36 10.56-10.36s10.24 6.52 10.24 10.36zM2109.32 1252.62l-1.92-2.24s-3.2 4.36-9.92 4.36-11.33-5.32-11.33-12.68c0-7.36 5.25-12.16 11.2-12.16 5.9 0 8.45 2.88 9.73 4.36l2.11-2.24c-.64-.84-3.84-5.12-11.7-5.12-7.82 0-14.86 6.2-14.86 15.36 0 9.08 6.53 15.48 14.53 15.48 8 0 11.07-3.84 12.16-5.12zM2143.11 1242.38c0-8.96-6.72-15.48-15.23-15.48-8.45 0-15.17 6.52-15.17 15.48s6.72 15.36 15.17 15.36c8.51 0 15.23-6.4 15.23-15.36zm-3.52-.12c0 6.84-4.48 12.48-11.71 12.48-7.17 0-11.65-5.64-11.65-12.48 0-6.92 4.48-12.48 11.65-12.48 7.23 0 11.71 5.56 11.71 12.48zM2173.9 1257.1v-17.72c0-7.04-1.99-12.48-10.5-12.48-4.29 0-8.13 2.5-9.6 6.01v-5.5h-3.33v29.7h3.33v-14.73c0-7.04 3.07-12.6 9.47-12.6s7.23 4.92 7.23 9.72v17.6h3.4zM2195.34 1256.78l-.32-2.88s-1.28.84-3.2.84c-3.97 0-4.35-3.9-4.35-7.17v-17.03h7.55v-3h-7.49v-9.48h-3.39v9.48h-4.48v3h4.48v15.04c0 4.8.06 6.98 1.09 8.96 1.09 1.99 2.75 3.2 5.63 3.2 1.92 0 3.4-.32 4.48-.96zM2226.7 1240.78c0-8-5.63-13.88-13.44-13.88-7.87 0-14.4 6.2-14.4 15.36 0 9.08 5.57 15.48 14.2 15.48 8.65 0 12.36-4.48 12.36-4.48l-1.6-2.36s-3.71 3.84-10.43 3.84-10.69-4.68-11-11.72h24.12s.2-1.28.2-2.24zm-3.4-.64h-20.8c.2-4.16 3.2-10.36 10.57-10.36 7.36 0 10.24 6.52 10.24 10.36zM2256.46 1257.1l-12.16-15.68 10.69-14.01h-3.65l-8.96 11.97-8.96-11.97h-3.71l10.75 14.01-12.16 15.68h3.84l10.24-13.56 10.24 13.56h3.84zM2273.74 1256.78l-.32-2.88s-1.28.84-3.2.84c-3.97 0-4.35-3.9-4.35-7.17v-17.03h7.55v-3h-7.49v-9.48h-3.39v9.48h-4.48v3h4.48v15.04c0 4.8.07 6.98 1.09 8.96 1.09 1.99 2.75 3.2 5.63 3.2 1.92 0 3.4-.32 4.48-.96zM2297.55 1248.98c0-5.64-5.57-7.56-9.28-8.84-3.65-1.28-6.85-2.62-6.85-5.7 0-3.06 2.37-4.73 5.7-4.73s5.37 1.15 7.42 3.4l2.05-2.05c-2.3-2.63-5-4.16-9.34-4.16-4.36 0-9.03 2.56-9.03 7.93 0 5.38 5.57 7.3 8.13 8.2 2.56.89 7.87 2.23 7.87 6.07 0 3.84-3.26 5.64-6.97 5.64-3.72 0-6.66-1.86-8.58-4.68l-2.37 1.92c1.86 3.08 5.31 5.76 10.82 5.76 5.5 0 10.43-3.2 10.43-8.76zM1520.77 1291.41h-3.52l-8 24.9-9.28-24.96h-2.56l-9.28 24.96-8-24.9h-3.52l9.92 29.7h2.88l9.28-24.96 9.28 24.96h2.88l9.92-29.7zM1531.27 1280.85a2.73 2.73 0 00-2.75-2.75 2.73 2.73 0 00-2.76 2.75 2.73 2.73 0 002.76 2.75 2.73 2.73 0 002.75-2.75zm-1.09 40.26v-29.7h-3.33v29.7h3.33zM1552.26 1320.79l-.32-2.88s-1.28.83-3.2.83c-3.97 0-4.35-3.9-4.35-7.17v-17.02h7.55v-3.01h-7.49v-9.47h-3.39v9.47h-4.48v3h4.48v15.05c0 4.8.06 6.97 1.09 8.96 1.09 1.98 2.75 3.2 5.63 3.2 1.92 0 3.4-.32 4.48-.96zM1581.76 1321.1v-17.72c0-7.04-1.98-12.48-10.5-12.48-4.28 0-8.12 2.5-9.6 6.01v-19.96h-3.32v44.16h3.33v-14.72c0-7.04 3.07-12.61 9.47-12.61s7.23 4.93 7.23 9.73v17.6h3.4zM1596.1 1280.85a2.73 2.73 0 00-2.75-2.75 2.73 2.73 0 00-2.75 2.75 2.73 2.73 0 002.75 2.75 2.73 2.73 0 002.75-2.75zm-1.09 40.26v-29.7h-3.33v29.7h3.33zM1628.36 1321.1v-17.72c0-7.04-1.99-12.48-10.5-12.48-4.29 0-8.13 2.5-9.6 6.01v-5.5h-3.33v29.7h3.33v-14.72c0-7.04 3.07-12.61 9.47-12.61s7.24 4.93 7.24 9.73v17.6h3.39zM1670.92 1321.1v-17.6c0-7.87-3.59-12.6-11.84-12.6-4.48 0-8 1.73-9.92 3l1.28 2.44c.64-.51 4.16-2.56 8.77-2.56 4.67 0 8.32 2.69 8.32 8.13v1.6l-8.13.32c-8 .32-11.84 3.84-11.84 8.96 0 5.12 4.16 8.96 9.92 8.96s8.96-3.52 10.05-4.8v4.16h3.39zm-3.4-15.03v7.36c-1.4 2.24-4.6 5.44-9.4 5.44-4.8 0-7.23-2.88-7.23-6.08s1.98-5.9 8.19-6.21l8.45-.51zM1710.73 1312.98c0-5.63-5.57-7.55-9.28-8.83-3.65-1.28-6.85-2.63-6.85-5.7 0-3.07 2.37-4.74 5.7-4.74 3.32 0 5.37 1.16 7.42 3.4l2.05-2.05c-2.3-2.63-5-4.16-9.35-4.16s-9.02 2.56-9.02 7.94c0 5.37 5.57 7.3 8.13 8.19 2.56.9 7.87 2.24 7.87 6.08s-3.27 5.63-6.98 5.63c-3.71 0-6.65-1.86-8.57-4.67l-2.37 1.92c1.85 3.07 5.31 5.76 10.81 5.76 5.5 0 10.44-3.2 10.44-8.77zM1722.37 1280.85a2.73 2.73 0 00-2.75-2.75 2.73 2.73 0 00-2.75 2.75 2.73 2.73 0 002.75 2.75 2.73 2.73 0 002.75-2.75zm-1.08 40.26v-29.7h-3.33v29.7h3.33zM1754.63 1321.1v-17.72c0-7.04-1.98-12.48-10.5-12.48-4.28 0-8.12 2.5-9.6 6.01v-5.5h-3.32v29.7h3.32v-14.72c0-7.04 3.08-12.61 9.48-12.61s7.23 4.93 7.23 9.73v17.6h3.4zM1790.8 1314.7v-23.29h-3.4v5.63c-1.99-3.52-5.89-6.14-11.2-6.14-7.8 0-14.53 5.82-14.53 15.1s6.72 15.1 14.53 15.1c5.31 0 9.02-2.49 11.2-6.33v2.18c0 7.8-2.75 13.95-11.52 13.95-4.8 0-9.28-2.43-10.88-4.03l-1.92 2.56s4.8 4.48 12.48 4.48c7.68 0 11.2-3.84 12.8-6.4 1.6-2.56 2.43-6.08 2.43-12.8zm-3.2-8.76c0 6.72-3.85 12.16-11.2 12.16-7.37 0-11.2-5.44-11.2-12.16s3.83-12.1 11.2-12.1c7.35 0 11.2 5.38 11.2 12.1zM1800.71 1276.95h3.2v44.16h-3.2zM1839.56 1304.79c0-8-5.63-13.9-13.44-13.9-7.87 0-14.4 6.22-14.4 15.37 0 9.09 5.57 15.49 14.2 15.49 8.65 0 12.36-4.48 12.36-4.48l-1.6-2.37s-3.71 3.84-10.43 3.84-10.7-4.67-11.01-11.71h24.13s.19-1.28.19-2.24zm-3.4-.64h-20.8c.2-4.16 3.2-10.37 10.57-10.37 7.36 0 10.24 6.53 10.24 10.37zM1883.85 1316.63l-1.92-2.24s-3.2 4.35-9.92 4.35-11.33-5.31-11.33-12.67 5.25-12.16 11.2-12.16c5.89 0 8.45 2.88 9.73 4.35l2.11-2.24c-.64-.83-3.84-5.12-11.71-5.12-7.81 0-14.85 6.2-14.85 15.36 0 9.09 6.53 15.49 14.53 15.49 8 0 11.07-3.84 12.16-5.12zM1917.64 1306.39c0-8.96-6.72-15.5-15.23-15.5-8.45 0-15.17 6.54-15.17 15.5s6.72 15.36 15.17 15.36c8.51 0 15.23-6.4 15.23-15.36zm-3.52-.13c0 6.85-4.48 12.48-11.71 12.48-7.17 0-11.65-5.63-11.65-12.48 0-6.91 4.48-12.48 11.65-12.48 7.23 0 11.71 5.57 11.71 12.48zM1938.76 1294.61l.32-3.26s-1.28-.45-3.2-.45c-3.2 0-6.46 2.05-7.55 6.08v-5.57H1925v29.7h3.33v-16c0-4.55 1.53-11.01 7.23-11.01 1.6 0 2.5.25 3.2.51zM1969.48 1304.79c0-8-5.63-13.9-13.44-13.9-7.87 0-14.4 6.22-14.4 15.37 0 9.09 5.57 15.49 14.2 15.49 8.65 0 12.36-4.48 12.36-4.48l-1.6-2.37s-3.71 3.84-10.43 3.84-10.69-4.67-11.01-11.71h24.13s.2-1.28.2-2.24zm-3.4-.64h-20.8c.2-4.16 3.2-10.37 10.57-10.37 7.36 0 10.24 6.53 10.24 10.37zM1983.24 1318.74c0-1.8-1.28-3.07-3.07-3.07-1.73 0-3 1.28-3 3.07 0 1.73 1.27 3 3 3 1.8 0 3.07-1.27 3.07-3zM2032 1321.1v-3.13h-20.98v-18.75h19.39v-3.14H2011v-16h20.55v-3.13h-24v44.16h24.45zM2061.64 1321.1v-17.6c0-7.87-3.58-12.6-11.84-12.6-4.48 0-8 1.73-9.92 3l1.28 2.44c.64-.51 4.16-2.56 8.77-2.56 4.67 0 8.32 2.69 8.32 8.13v1.6l-8.13.32c-8 .32-11.84 3.84-11.84 8.96 0 5.12 4.16 8.96 9.92 8.96s8.96-3.52 10.05-4.8v4.16h3.4zm-3.39-15.03v7.36c-1.4 2.24-4.6 5.44-9.4 5.44-4.8 0-7.24-2.88-7.24-6.08s1.98-5.9 8.2-6.21l8.44-.51zM2095.05 1316.63l-1.92-2.24s-3.2 4.35-9.92 4.35-11.33-5.31-11.33-12.67 5.25-12.16 11.2-12.16c5.89 0 8.45 2.88 9.73 4.35l2.11-2.24c-.64-.83-3.84-5.12-11.71-5.12-7.8 0-14.85 6.2-14.85 15.36 0 9.09 6.53 15.49 14.53 15.49 8 0 11.07-3.84 12.16-5.12zM2124.43 1321.1v-17.72c0-7.04-1.99-12.48-10.5-12.48-4.29 0-8.13 2.5-9.6 6.01v-19.96H2101v44.16h3.33v-14.72c0-7.04 3.07-12.61 9.47-12.61s7.23 4.93 7.23 9.73v17.6h3.4zM2175 1306.39c0-8.96-6.73-15.5-15.24-15.5-8.45 0-15.17 6.54-15.17 15.5s6.72 15.36 15.17 15.36c8.51 0 15.23-6.4 15.23-15.36zm-3.53-.13c0 6.85-4.48 12.48-11.71 12.48-7.17 0-11.65-5.63-11.65-12.48 0-6.91 4.48-12.48 11.65-12.48 7.23 0 11.71 5.57 11.71 12.48zM2195.15 1279.83l.32-2.88s-.96-.64-4.16-.64a7.51 7.51 0 00-6.27 3.39c-.96 1.4-1.73 3.65-1.73 7.8v4.04h-4.48v3h4.48v26.57h3.33v-26.56h7.55v-3.01h-7.55v-4.35c0-4.16.51-8 5.31-8 1.09 0 2.11.19 3.2.64zM2222.67 1320.79l-.32-2.88s-1.28.83-3.2.83c-3.97 0-4.35-3.9-4.35-7.17v-17.02h7.55v-3.01h-7.49v-9.47h-3.39v9.47H2207v3h4.48v15.05c0 4.8.07 6.97 1.09 8.96 1.09 1.98 2.75 3.2 5.63 3.2 1.92 0 3.4-.32 4.48-.96zM2252.18 1321.1v-17.72c0-7.04-1.99-12.48-10.5-12.48-4.29 0-8.13 2.5-9.6 6.01v-19.96h-3.33v44.16h3.33v-14.72c0-7.04 3.07-12.61 9.47-12.61s7.23 4.93 7.23 9.73v17.6h3.4zM2287.37 1304.79c0-8-5.63-13.9-13.44-13.9-7.87 0-14.4 6.22-14.4 15.37 0 9.09 5.57 15.49 14.21 15.49s12.35-4.48 12.35-4.48l-1.6-2.37s-3.71 3.84-10.43 3.84-10.69-4.67-11-11.71h24.12s.2-1.28.2-2.24zm-3.39-.64h-20.8c.2-4.16 3.2-10.37 10.56-10.37s10.24 6.53 10.24 10.37zM1492.61 1384.8l-.32-2.89s-1.28.83-3.2.83c-3.97 0-4.35-3.9-4.35-7.17v-17.02h7.55v-3h-7.49v-9.48h-3.39v9.47h-4.48v3.01h4.48v15.04c0 4.8.07 6.98 1.09 8.96 1.09 1.99 2.75 3.2 5.63 3.2 1.92 0 3.4-.32 4.48-.96zM1522.12 1385.11v-17.73c0-7.04-1.99-12.48-10.5-12.48-4.29 0-8.13 2.5-9.6 6.02v-19.97h-3.33v44.16h3.33v-14.72c0-7.04 3.07-12.6 9.47-12.6s7.23 4.92 7.23 9.72v17.6h3.4zM1545.48 1358.61l.32-3.26s-1.28-.45-3.2-.45c-3.2 0-6.47 2.05-7.56 6.08v-5.57h-3.32v29.7h3.32v-16c0-4.54 1.54-11 7.24-11 1.6 0 2.5.25 3.2.5zM1576.2 1368.8c0-8.01-5.64-13.9-13.44-13.9-7.88 0-14.4 6.21-14.4 15.36 0 9.1 5.56 15.5 14.2 15.5s12.36-4.49 12.36-4.49l-1.6-2.37s-3.72 3.84-10.44 3.84c-6.72 0-10.68-4.67-11-11.7H1576s.2-1.29.2-2.25zm-3.4-.65H1552c.2-4.16 3.2-10.37 10.56-10.37s10.24 6.53 10.24 10.37zM1604.36 1385.11v-17.6c0-7.87-3.59-12.6-11.84-12.6-4.48 0-8 1.72-9.92 3l1.28 2.43c.64-.51 4.16-2.56 8.76-2.56 4.68 0 8.33 2.69 8.33 8.13v1.6l-8.13.32c-8 .32-11.84 3.84-11.84 8.96 0 5.12 4.16 8.96 9.92 8.96s8.96-3.52 10.05-4.8v4.16h3.39zm-3.4-15.04v7.36c-1.4 2.24-4.6 5.44-9.4 5.44-4.8 0-7.24-2.88-7.24-6.08s1.99-5.89 8.2-6.2l8.45-.52zM1611.08 1370.26c0 8.77 5.76 15.5 14.72 15.5 4.48 0 8.5-1.93 11-6.15v5.5h3.4v-44.16h-3.4v20.03c-2.87-4.35-6.84-6.08-11.13-6.08-8.83 0-14.6 6.53-14.6 15.36zm3.52 0c0-6.91 4.03-12.48 11.2-12.48 7.23 0 11.2 5.57 11.2 12.48 0 6.85-3.97 12.48-11.2 12.48-7.17 0-11.2-5.63-11.2-12.48zM1685.77 1385.11v-29.7h-3.33v15.94c0 5.76-2.56 11.52-9.15 11.52-6.53 0-7.36-4.8-7.36-9.28v-18.18h-3.33v17.67c0 7.3 2.05 12.67 10.24 12.67 4.16 0 7.68-1.92 9.6-5.44v4.8h3.33zM1718.79 1385.11v-17.73c0-7.04-1.98-12.48-10.5-12.48-4.28 0-8.12 2.5-9.6 6.02v-5.5h-3.32v29.7h3.32v-14.73c0-7.04 3.08-12.6 9.48-12.6s7.23 4.92 7.23 9.72v17.6h3.39zM1725.83 1370.26c0 8.77 5.76 15.5 14.72 15.5 4.48 0 8.51-1.93 11-6.15v5.5h3.4v-44.16h-3.4v20.03c-2.87-4.35-6.84-6.08-11.13-6.08-8.83 0-14.59 6.53-14.59 15.36zm3.52 0c0-6.91 4.03-12.48 11.2-12.48 7.23 0 11.2 5.57 11.2 12.48 0 6.85-3.97 12.48-11.2 12.48-7.17 0-11.2-5.63-11.2-12.48zM1790.47 1368.8c0-8.01-5.63-13.9-13.44-13.9-7.87 0-14.4 6.21-14.4 15.36 0 9.1 5.57 15.5 14.2 15.5 8.65 0 12.36-4.49 12.36-4.49l-1.6-2.37s-3.71 3.84-10.43 3.84-10.69-4.67-11-11.7h24.12s.2-1.29.2-2.25zm-3.4-.65h-20.8c.2-4.16 3.2-10.37 10.57-10.37 7.36 0 10.24 6.53 10.24 10.37zM1811.27 1358.61l.32-3.26s-1.28-.45-3.2-.45c-3.2 0-6.46 2.05-7.55 6.08v-5.57h-3.33v29.7h3.33v-16c0-4.54 1.54-11 7.23-11 1.6 0 2.5.25 3.2.5zM1850 1385.11v-17.6c0-7.87-3.6-12.6-11.85-12.6-4.48 0-8 1.72-9.92 3l1.28 2.43c.64-.51 4.16-2.56 8.77-2.56 4.67 0 8.32 2.69 8.32 8.13v1.6l-8.13.32c-8 .32-11.84 3.84-11.84 8.96 0 5.12 4.16 8.96 9.92 8.96s8.96-3.52 10.05-4.8v4.16h3.4zm-3.4-15.04v7.36c-1.4 2.24-4.6 5.44-9.4 5.44-4.8 0-7.24-2.88-7.24-6.08s1.98-5.89 8.2-6.2l8.44-.52zM1896.2 1380.63l-1.92-2.24s-3.2 4.35-9.92 4.35-11.33-5.3-11.33-12.67c0-7.36 5.25-12.16 11.2-12.16 5.89 0 8.45 2.88 9.73 4.35l2.11-2.24c-.64-.83-3.84-5.12-11.71-5.12-7.8 0-14.85 6.21-14.85 15.36 0 9.1 6.53 15.5 14.53 15.5 8 0 11.07-3.85 12.16-5.13zM1930 1370.4c0-8.97-6.73-15.5-15.24-15.5-8.45 0-15.17 6.53-15.17 15.5 0 8.95 6.72 15.35 15.17 15.35 8.51 0 15.23-6.4 15.23-15.36zm-3.53-.14c0 6.85-4.48 12.48-11.71 12.48-7.17 0-11.65-5.63-11.65-12.48 0-6.91 4.48-12.48 11.65-12.48 7.23 0 11.71 5.57 11.71 12.48zM1951.11 1358.61l.32-3.26s-1.28-.45-3.2-.45c-3.2 0-6.46 2.05-7.55 6.08v-5.57h-3.33v29.7h3.33v-16c0-4.54 1.54-11 7.23-11 1.6 0 2.5.25 3.2.5zM1981.83 1368.8c0-8.01-5.63-13.9-13.44-13.9-7.87 0-14.4 6.21-14.4 15.36 0 9.1 5.57 15.5 14.21 15.5s12.35-4.49 12.35-4.49l-1.6-2.37s-3.7 3.84-10.43 3.84c-6.72 0-10.69-4.67-11-11.7h24.12s.2-1.29.2-2.25zm-3.39-.65h-20.8c.2-4.16 3.2-10.37 10.56-10.37s10.24 6.53 10.24 10.37zM2006.4 1344.85a2.73 2.73 0 00-2.74-2.75 2.73 2.73 0 00-2.75 2.75 2.73 2.73 0 002.75 2.76 2.73 2.73 0 002.75-2.76zm-1.08 40.26v-29.7H2002v29.7h3.33zM2033.29 1376.98c0-5.63-5.57-7.55-9.28-8.83-3.65-1.28-6.85-2.62-6.85-5.7 0-3.07 2.37-4.73 5.7-4.73s5.37 1.15 7.42 3.39l2.05-2.05c-2.3-2.62-5-4.16-9.34-4.16-4.36 0-9.03 2.56-9.03 7.94 0 5.37 5.57 7.3 8.13 8.2 2.56.89 7.87 2.23 7.87 6.07 0 3.84-3.26 5.63-6.97 5.63-3.72 0-6.66-1.85-8.58-4.67l-2.37 1.92c1.86 3.07 5.31 5.76 10.82 5.76 5.5 0 10.43-3.2 10.43-8.77zM2093.32 1355.41h-3.52l-8 24.9-9.28-24.96h-2.56l-9.28 24.96-8-24.9h-3.52l9.92 29.7h2.88l9.28-24.96 9.28 24.96h2.88l9.92-29.7zM2127.24 1370.4c0-8.97-6.72-15.5-15.23-15.5-8.45 0-15.17 6.53-15.17 15.5 0 8.95 6.72 15.35 15.17 15.35 8.51 0 15.23-6.4 15.23-15.36zm-3.52-.14c0 6.85-4.48 12.48-11.71 12.48-7.17 0-11.65-5.63-11.65-12.48 0-6.91 4.48-12.48 11.65-12.48 7.23 0 11.71 5.57 11.71 12.48zM2148.36 1358.61l.32-3.26s-1.28-.45-3.2-.45c-3.2 0-6.46 2.05-7.55 6.08v-5.57h-3.33v29.7h3.33v-16c0-4.54 1.53-11 7.23-11 1.6 0 2.5.25 3.2.5zM2177.8 1385.11l-14.08-18.37 12.16-11.33h-4.16l-14.27 13.38v-27.84h-3.33v44.16h3.33v-12.6l4.03-3.72 12.16 16.32h4.16zM2207.88 1368.8c0-8.01-5.63-13.9-13.44-13.9-7.87 0-14.4 6.21-14.4 15.36 0 9.1 5.57 15.5 14.2 15.5 8.65 0 12.36-4.49 12.36-4.49l-1.6-2.37s-3.71 3.84-10.43 3.84-10.69-4.67-11-11.7h24.12s.2-1.29.2-2.25zm-3.4-.65h-20.8c.2-4.16 3.2-10.37 10.57-10.37 7.36 0 10.24 6.53 10.24 10.37zM2213 1370.26c0 8.77 5.76 15.5 14.72 15.5 4.48 0 8.51-1.93 11-6.15v5.5h3.4v-44.16h-3.4v20.03c-2.87-4.35-6.84-6.08-11.13-6.08-8.83 0-14.59 6.53-14.59 15.36zm3.52 0c0-6.91 4.03-12.48 11.2-12.48 7.23 0 11.2 5.57 11.2 12.48 0 6.85-3.97 12.48-11.2 12.48-7.17 0-11.2-5.63-11.2-12.48zM1500.93 1449.11v-17.6c0-7.87-3.58-12.6-11.84-12.6-4.48 0-8 1.72-9.92 3l1.28 2.44c.64-.52 4.16-2.56 8.77-2.56 4.67 0 8.32 2.68 8.32 8.12v1.6l-8.13.32c-8 .32-11.84 3.84-11.84 8.96 0 5.12 4.16 8.96 9.92 8.96s8.96-3.52 10.05-4.8v4.16h3.4zm-3.39-15.04v7.36c-1.4 2.24-4.6 5.44-9.4 5.44-4.8 0-7.24-2.88-7.24-6.08s1.98-5.88 8.2-6.2l8.44-.52zM1527.94 1440.99c0-5.64-5.57-7.56-9.28-8.84-3.65-1.28-6.85-2.62-6.85-5.7 0-3.06 2.37-4.73 5.7-4.73s5.37 1.15 7.42 3.4l2.05-2.05c-2.3-2.63-5-4.16-9.34-4.16-4.36 0-9.03 2.56-9.03 7.93 0 5.38 5.57 7.3 8.13 8.2 2.56.89 7.87 2.23 7.87 6.07 0 3.84-3.26 5.64-6.97 5.64-3.72 0-6.66-1.86-8.58-4.68l-2.37 1.92c1.86 3.08 5.31 5.76 10.82 5.76 5.5 0 10.43-3.2 10.43-8.76zM1568.13 1449.11v-17.6c0-7.87-3.58-12.6-11.84-12.6-4.48 0-8 1.72-9.92 3l1.28 2.44c.64-.52 4.16-2.56 8.77-2.56 4.67 0 8.32 2.68 8.32 8.12v1.6l-8.13.32c-8 .32-11.84 3.84-11.84 8.96 0 5.12 4.16 8.96 9.92 8.96s8.96-3.52 10.05-4.8v4.16h3.4zm-3.39-15.04v7.36c-1.4 2.24-4.6 5.44-9.4 5.44-4.8 0-7.24-2.88-7.24-6.08s1.98-5.88 8.2-6.2l8.44-.52zM1590.21 1404.95h3.2v44.16h-3.2zM1631.62 1434.4c0-8.97-6.72-15.5-15.23-15.5-8.45 0-15.17 6.53-15.17 15.5 0 8.95 6.72 15.35 15.17 15.35 8.51 0 15.23-6.4 15.23-15.36zm-3.52-.13c0 6.84-4.48 12.48-11.71 12.48-7.17 0-11.65-5.64-11.65-12.48 0-6.92 4.48-12.48 11.65-12.48 7.23 0 11.71 5.56 11.71 12.48zM1665.86 1442.71v-23.3h-3.39v5.64c-1.98-3.52-5.89-6.14-11.2-6.14-7.8 0-14.53 5.82-14.53 15.1s6.72 15.1 14.53 15.1c5.31 0 9.02-2.5 11.2-6.33v2.17c0 7.81-2.75 13.96-11.52 13.96-4.8 0-9.28-2.44-10.88-4.04l-1.92 2.56s4.8 4.49 12.48 4.49c7.68 0 11.2-3.85 12.8-6.4 1.6-2.57 2.43-6.09 2.43-12.8zm-3.2-8.76c0 6.72-3.84 12.16-11.2 12.16-7.36 0-11.2-5.44-11.2-12.16s3.84-12.1 11.2-12.1c7.36 0 11.2 5.38 11.2 12.1zM1680.2 1408.86a2.73 2.73 0 00-2.75-2.76 2.73 2.73 0 00-2.76 2.76 2.73 2.73 0 002.76 2.75 2.73 2.73 0 002.75-2.75zm-1.09 40.25v-29.7h-3.33v29.7h3.33zM1713.48 1444.63l-1.92-2.24s-3.2 4.36-9.92 4.36-11.33-5.32-11.33-12.68c0-7.36 5.25-12.16 11.2-12.16 5.89 0 8.45 2.88 9.73 4.36l2.11-2.24c-.64-.84-3.84-5.12-11.71-5.12-7.81 0-14.85 6.2-14.85 15.36 0 9.08 6.53 15.48 14.53 15.48 8 0 11.07-3.84 12.16-5.12zM1740.87 1449.11v-17.6c0-7.87-3.58-12.6-11.84-12.6-4.48 0-8 1.72-9.92 3l1.28 2.44c.64-.52 4.16-2.56 8.77-2.56 4.67 0 8.32 2.68 8.32 8.12v1.6l-8.13.32c-8 .32-11.84 3.84-11.84 8.96 0 5.12 4.16 8.96 9.92 8.96s8.96-3.52 10.05-4.8v4.16h3.39zm-3.4-15.04v7.36c-1.4 2.24-4.6 5.44-9.4 5.44-4.8 0-7.23-2.88-7.23-6.08s1.98-5.88 8.19-6.2l8.45-.52zM1750.15 1404.95h3.2v44.16h-3.2zM1812.68 1443.03l-2.24-2.24c-3.2 3.52-8 5.83-14.08 5.83-10.88 0-18.56-8.13-18.56-19.65 0-11.52 7.68-19.52 18.56-19.52 6.4 0 11.52 2.94 13.76 5.82l2.24-2.56c-3.2-3.2-8.32-6.4-16-6.4-12.48 0-22.27 9.35-22.27 22.79s9.47 22.78 22.27 22.78c8 0 13.12-3.33 16.32-6.85zM1844.36 1416.73c0-3.84-1.47-6.47-4.03-8.7-2.56-2.25-6.02-3.08-10.18-3.08h-10.11v44.16h3.46v-20.6h6.65c4.16 0 7.62-.84 10.18-3.08 2.56-2.24 4.03-4.86 4.03-8.7zm-3.65 0c0 6.27-4.86 8.64-10.43 8.64h-6.78v-17.28h6.78c5.57 0 10.43 2.37 10.43 8.64zM1883.08 1431.32v-26.37h-3.46v26.7c0 3.32-.06 7.35-2.24 10.36-2.1 2.88-5.5 4.67-9.98 4.67s-7.87-1.79-9.98-4.67c-2.18-3-2.24-7.04-2.24-10.37v-26.69h-3.46v26.37c0 5 .2 9.41 3.14 13.12 2.88 3.59 7.1 5.44 12.54 5.44 5.44 0 9.66-1.85 12.54-5.44 2.95-3.71 3.14-8.13 3.14-13.12zM1919.56 1422.62l.32-3.27s-1.28-.44-3.2-.44c-3.2 0-6.46 2.04-7.55 6.08v-5.57h-3.33v29.7h3.33v-16c0-4.55 1.53-11.01 7.23-11.01 1.6 0 2.5.25 3.2.5zM1947.85 1449.11v-29.7h-3.33v15.94c0 5.76-2.56 11.52-9.15 11.52-6.53 0-7.36-4.8-7.36-9.28v-18.17h-3.33v17.66c0 7.3 2.05 12.67 10.24 12.67 4.16 0 7.68-1.92 9.6-5.44v4.8h3.33zM1980.87 1449.11v-17.72c0-7.04-1.98-12.48-10.5-12.48-4.28 0-8.12 2.5-9.6 6.01v-5.5h-3.32v29.7h3.33v-14.73c0-7.04 3.07-12.6 9.47-12.6s7.23 4.92 7.23 9.72v17.6h3.4zM2013.58 1449.11v-17.72c0-7.04-1.99-12.48-10.5-12.48-4.29 0-8.13 2.5-9.6 6.01v-5.5h-3.33v29.7h3.33v-14.73c0-7.04 3.07-12.6 9.47-12.6s7.24 4.92 7.24 9.72v17.6h3.39zM2027.6 1408.86a2.73 2.73 0 00-2.76-2.76 2.73 2.73 0 00-2.75 2.76 2.73 2.73 0 002.75 2.75 2.73 2.73 0 002.75-2.75zm-1.1 40.25v-29.7h-3.32v29.7h3.33zM2059.85 1449.11v-17.72c0-7.04-1.98-12.48-10.5-12.48-4.28 0-8.12 2.5-9.6 6.01v-5.5h-3.32v29.7h3.32v-14.73c0-7.04 3.08-12.6 9.48-12.6s7.23 4.92 7.23 9.72v17.6h3.39zM2096.01 1442.71v-23.3h-3.4v5.64c-1.98-3.52-5.88-6.14-11.2-6.14-7.8 0-14.52 5.82-14.52 15.1s6.72 15.1 14.53 15.1c5.31 0 9.02-2.5 11.2-6.33v2.17c0 7.81-2.75 13.96-11.52 13.96-4.8 0-9.28-2.44-10.88-4.04l-1.92 2.56s4.8 4.49 12.48 4.49c7.68 0 11.2-3.85 12.8-6.4 1.6-2.57 2.43-6.09 2.43-12.8zm-3.2-8.76c0 6.72-3.84 12.16-11.2 12.16-7.36 0-11.2-5.44-11.2-12.16s3.84-12.1 11.2-12.1c7.36 0 11.2 5.38 11.2 12.1zM1485.19 1472.86a2.73 2.73 0 00-2.75-2.75 2.73 2.73 0 00-2.76 2.75 2.73 2.73 0 002.76 2.75 2.73 2.73 0 002.75-2.75zm-1.09 40.26v-29.7h-3.33v29.7h3.33zM1517.44 1513.12v-17.73c0-7.04-1.98-12.48-10.5-12.48-4.28 0-8.12 2.5-9.6 6.01v-5.5h-3.32v29.7h3.33v-14.72c0-7.04 3.07-12.61 9.47-12.61s7.23 4.93 7.23 9.73v17.6h3.4zM1524.48 1498.27c0 8.77 5.76 15.49 14.72 15.49 4.48 0 8.52-1.92 11.01-6.15v5.5h3.4v-44.15h-3.4v20.03c-2.88-4.35-6.85-6.08-11.13-6.08-8.84 0-14.6 6.53-14.6 15.36zm3.52 0c0-6.91 4.04-12.48 11.2-12.48 7.24 0 11.2 5.57 11.2 12.48 0 6.85-3.96 12.48-11.2 12.48-7.16 0-11.2-5.63-11.2-12.48zM1589.12 1496.8c0-8-5.63-13.9-13.44-13.9-7.87 0-14.4 6.22-14.4 15.37 0 9.09 5.57 15.49 14.21 15.49s12.35-4.48 12.35-4.48l-1.6-2.37s-3.7 3.84-10.43 3.84c-6.72 0-10.69-4.67-11-11.71h24.12s.2-1.28.2-2.24zm-3.39-.64h-20.8c.2-4.16 3.2-10.37 10.56-10.37s10.24 6.53 10.24 10.37zM1625.6 1498.4c0-8.77-5.56-15.5-14.71-15.5-4.48 0-8.58 2.06-11.08 6.28v-5.76h-3.32v41.86h3.32v-17.73c2.88 4.48 6.92 6.2 11.2 6.2 8.84 0 14.6-6.52 14.6-15.35zm-3.51 0c0 6.9-4.04 12.35-11.2 12.35-7.24 0-11.2-5.57-11.2-12.35 0-6.98 3.96-12.61 11.2-12.61 7.16 0 11.2 5.76 11.2 12.6zM1658.57 1496.8c0-8-5.64-13.9-13.44-13.9-7.88 0-14.4 6.22-14.4 15.37 0 9.09 5.56 15.49 14.2 15.49s12.36-4.48 12.36-4.48l-1.6-2.37s-3.72 3.84-10.44 3.84c-6.72 0-10.68-4.67-11-11.71h24.12s.2-1.28.2-2.24zm-3.4-.64h-20.8c.2-4.16 3.2-10.37 10.56-10.37s10.24 6.53 10.24 10.37zM1689.03 1513.12v-17.73c0-7.04-1.98-12.48-10.5-12.48-4.28 0-8.12 2.5-9.6 6.01v-5.5h-3.32v29.7h3.32v-14.72c0-7.04 3.08-12.61 9.48-12.61s7.23 4.93 7.23 9.73v17.6h3.39zM1696.07 1498.27c0 8.77 5.76 15.49 14.72 15.49 4.48 0 8.51-1.92 11-6.15v5.5h3.4v-44.15h-3.4v20.03c-2.87-4.35-6.84-6.08-11.13-6.08-8.83 0-14.59 6.53-14.59 15.36zm3.52 0c0-6.91 4.03-12.48 11.2-12.48 7.23 0 11.2 5.57 11.2 12.48 0 6.85-3.97 12.48-11.2 12.48-7.17 0-11.2-5.63-11.2-12.48zM1760.71 1496.8c0-8-5.63-13.9-13.44-13.9-7.87 0-14.4 6.22-14.4 15.37 0 9.09 5.57 15.49 14.2 15.49 8.65 0 12.36-4.48 12.36-4.48l-1.6-2.37s-3.71 3.84-10.43 3.84-10.69-4.67-11.01-11.71h24.13s.2-1.28.2-2.24zm-3.4-.64h-20.8c.2-4.16 3.2-10.37 10.57-10.37 7.36 0 10.24 6.53 10.24 10.37zM1791.17 1513.12v-17.73c0-7.04-1.98-12.48-10.5-12.48-4.28 0-8.12 2.5-9.6 6.01v-5.5h-3.32v29.7h3.33v-14.72c0-7.04 3.07-12.61 9.47-12.61s7.23 4.93 7.23 9.73v17.6h3.4zM1812.62 1512.8l-.32-2.88s-1.28.83-3.2.83c-3.97 0-4.36-3.9-4.36-7.17v-17.02h7.56v-3.01h-7.5v-9.47h-3.38v9.47h-4.48v3h4.48v15.05c0 4.8.06 6.97 1.08 8.96 1.1 1.98 2.76 3.2 5.64 3.2 1.92 0 3.39-.32 4.48-.96zM1818.7 1468.96h3.2v44.16h-3.2zM1854.98 1483.42h-3.52l-10.24 25.86-10.24-25.86h-3.52l11.97 29.25-1.73 4.93c-1.4 4.03-2.62 4.67-4.41 4.67-1.8 0-2.95-.64-2.95-.64l-.64 3.2s1.54.77 3.59.77 4.6-.64 6.65-5.57l15.04-36.61zM1482.41 1137.47h35.97v6.02h-14.66v39.17h-6.59v-39.17h-14.72v-6.02zM1522.73 1137.47h6.08v18.82a31.48 31.48 0 013.9-2.56c1.41-.69 2.95-1.03 4.61-1.03 3.67 0 6.36 1.33 8.07 3.97 1.45 2.22 2.17 5.27 2.17 9.15v16.84h-6.01l-.07-16.13c0-3.5-.47-5.74-1.4-6.72-.94-.98-2.42-1.47-4.42-1.47a8.5 8.5 0 00-3.01.67c-1.15.45-2.43 1.29-3.84 2.53v21.12h-6.08v-45.19zM1555.37 1153.28h6.08v4.6c.64-1.19 1.73-2.35 3.26-3.48 1.54-1.13 2.95-1.7 4.23-1.7 1.32 0 2.58.3 3.77.9.77.38 1.86 1.1 3.27 2.18l-3.65 5.5a13 13 0 00-1.98-1.6c-.9-.56-1.71-.83-2.44-.83-2.39 0-4.14 1.21-5.24 3.65a16.5 16.5 0 00-1.22 6.78v13.38h-6.08v-29.38zM1582.25 1168.83c0 2.69.86 4.83 2.6 6.43 1.72 1.6 4.01 2.4 6.87 2.4 2.1 0 4.25-.5 6.47-1.53.38-.17 1.6-.81 3.64-1.92v5.95a59.58 59.58 0 01-5.24 2.3c-1.88.64-3.78.96-5.7.96-4.52 0-8.13-1.5-10.82-4.5-2.68-3.02-4.03-6.83-4.03-11.43 0-3.93 1.2-7.38 3.62-10.37a11.55 11.55 0 019.44-4.48c4.44 0 7.83 1.64 10.17 4.93 2.05 2.86 3.08 6.61 3.08 11.26h-20.1zm14.2-4.42a9.34 9.34 0 00-2.36-4.64 6.08 6.08 0 00-4.54-1.76c-1.92 0-3.5.58-4.74 1.73a8.37 8.37 0 00-2.43 4.67h14.08zM1619.94 1163.97c0-1.75-.32-3.12-.96-4.1-.81-1.2-2.05-1.79-3.71-1.79-1.41 0-3.03.5-4.87 1.47a22.7 22.7 0 00-4.28 2.95l.06-6.08a18.55 18.55 0 014.93-2.79c1.83-.7 3.63-1.05 5.37-1.05 3.67 0 6.26 1.36 7.75 4.1 1.1 2.04 1.66 5.07 1.66 9.08 0 .94-.04 2.49-.13 4.64l-.12 3.36c0 .9.06 1.73.19 2.5s.47 1.22 1.02 1.34l3.01-1.02v4.35a25.87 25.87 0 01-3.58 1.83c-1.11.44-2.26.67-3.46.67-.55 0-1.1-.25-1.63-.74a5 5 0 01-1.19-1.57c-1.32.69-2.4 1.2-3.26 1.54a9.56 9.56 0 01-3.52.77c-2.6 0-4.63-.62-6.08-1.86-1.58-1.36-2.37-3.35-2.37-5.95 0-2.77 1.9-5.16 5.7-7.17 2.09-1.1 5.25-2.26 9.47-3.46v-1.02zm0 4.67c-2.39.6-4.27 1.28-5.63 2.05-2.26 1.28-3.4 2.8-3.4 4.54 0 .94.37 1.78 1.1 2.5a3.5 3.5 0 002.55 1.09c.86 0 1.77-.21 2.76-.64 1.2-.6 2.07-1.02 2.62-1.28v-8.26zM1651.94 1137.47h6.08v45.19h-6.08l-.06-1.6a12.5 12.5 0 01-3.43 1.7c-1.34.44-2.59.66-3.74.66-4.35 0-7.72-1.55-10.11-4.67-2.18-2.81-3.27-6.46-3.27-10.94 0-4.35 1.13-7.94 3.4-10.75 2.47-3.08 5.84-4.61 10.1-4.61 1.2 0 2.37.18 3.53.54 1.15.36 2.34.89 3.58 1.57v-17.09zm0 22.53a8.07 8.07 0 00-5.95-2.37c-2.86 0-5 1-6.43 3-1.43 2.01-2.15 4.51-2.15 7.5 0 2.73.7 5.01 2.11 6.85a7.66 7.66 0 006.4 3.07c.9 0 1.97-.2 3.2-.61a8.24 8.24 0 002.82-1.44v-16zM1664.42 1174.08c1.7 1.15 3.18 2 4.42 2.56a12 12 0 004.99 1.28 4.8 4.8 0 002.5-.58c.63-.38.95-1.06.95-2.04 0-1.33-2.09-3.27-6.27-5.83s-6.27-5.44-6.27-8.64c0-2.56.82-4.58 2.46-6.05a9.09 9.09 0 016.3-2.2c1.42 0 2.82.2 4.23.6 1.41.4 2.78 1 4.1 1.76l.06 6.34a16.3 16.3 0 00-3.97-2.2c-1.62-.67-3.02-1-4.22-1-.77 0-1.44.2-2.02.57-.57.39-.86.96-.86 1.73 0 1.37 2.1 3.32 6.3 5.86 4.2 2.54 6.3 5.4 6.3 8.6 0 2.57-.86 4.65-2.58 6.25a9.2 9.2 0 01-6.5 2.4c-1.7 0-3.36-.25-4.96-.74a26.4 26.4 0 01-4.96-2.14v-6.53z" fill-rule="nonzero"/><g><path d="M2284.34 752.4l-18.88-44.3h-1.92l-18.88 44.3h3.65l5.5-13.25h21.06l5.44 13.24h4.03zm-10.81-16.45h-18.44l9.22-22.6 9.22 22.6zM2326.71 747.91l-1.92-2.24s-3.2 4.36-9.92 4.36-11.33-5.32-11.33-12.68c0-7.36 5.25-12.16 11.2-12.16 5.9 0 8.45 2.88 9.73 4.35l2.11-2.24c-.64-.83-3.84-5.12-11.71-5.12-7.8 0-14.85 6.21-14.85 15.37 0 9.08 6.53 15.48 14.53 15.48 8 0 11.07-3.84 12.16-5.12zM2360.5 737.67c0-8.96-6.72-15.49-15.23-15.49-8.45 0-15.17 6.53-15.17 15.5 0 8.95 6.72 15.35 15.17 15.35 8.51 0 15.23-6.4 15.23-15.36zm-3.52-.12c0 6.84-4.48 12.48-11.7 12.48-7.18 0-11.66-5.64-11.66-12.48 0-6.92 4.48-12.49 11.65-12.49 7.23 0 11.71 5.57 11.71 12.49zM2408.31 752.4v-18.05c0-5.96-1.73-12.17-9.92-12.17-3.97 0-7.49 2.37-9.4 6.21-1.29-3.84-4.17-6.2-8.84-6.2-3.97 0-7.74 2.75-8.96 6.01v-5.5h-3.33v29.7h3.33v-15.5c0-6.27 3.07-11.84 8.83-11.84 5.12 0 6.4 4.3 6.4 9.29v18.04h3.33v-15.48c0-6.28 3.07-11.85 8.83-11.85s6.4 5.57 6.4 9.29v18.04h3.33zM2447.03 737.67c0-8.77-5.57-15.49-14.72-15.49-4.48 0-8.57 2.05-11.07 6.28v-5.76h-3.33v41.85h3.33v-17.72c2.88 4.48 6.91 6.2 11.2 6.2 8.83 0 14.6-6.52 14.6-15.36zm-3.52 0c0 6.92-4.03 12.36-11.2 12.36-7.23 0-11.2-5.57-11.2-12.36 0-6.97 3.97-12.6 11.2-12.6 7.17 0 11.2 5.75 11.2 12.6zM2454.71 708.23h3.2v44.16h-3.2zM2493.56 736.07c0-8-5.63-13.89-13.44-13.89-7.87 0-14.4 6.21-14.4 15.37 0 9.08 5.57 15.48 14.2 15.48 8.65 0 12.36-4.48 12.36-4.48l-1.6-2.36s-3.71 3.84-10.43 3.84-10.69-4.68-11.01-11.72h24.13s.19-1.28.19-2.24zm-3.4-.64h-20.8c.2-4.16 3.2-10.37 10.57-10.37 7.36 0 10.24 6.53 10.24 10.37zM2512.76 752.07l-.32-2.88s-1.28.84-3.2.84c-3.97 0-4.35-3.9-4.35-7.17v-17.03h7.55v-3h-7.49v-9.48h-3.39v9.47h-4.48v3.01h4.48v15.04c0 4.8.06 6.98 1.09 8.96 1.09 1.99 2.75 3.2 5.63 3.2 1.92 0 3.4-.32 4.48-.96zM2544.12 736.07c0-8-5.63-13.89-13.44-13.89-7.87 0-14.4 6.21-14.4 15.37 0 9.08 5.57 15.48 14.2 15.48 8.65 0 12.36-4.48 12.36-4.48l-1.6-2.36s-3.71 3.84-10.43 3.84-10.69-4.68-11-11.72h24.12s.2-1.28.2-2.24zm-3.4-.64h-20.8c.2-4.16 3.2-10.37 10.57-10.37 7.36 0 10.24 6.53 10.24 10.37zM2582 744.27c0-5.64-5.56-7.56-9.27-8.84-3.65-1.28-6.85-2.62-6.85-5.7 0-3.07 2.37-4.73 5.7-4.73s5.37 1.15 7.42 3.4l2.05-2.06c-2.3-2.62-5-4.16-9.34-4.16-4.36 0-9.03 2.56-9.03 7.94 0 5.38 5.57 7.3 8.13 8.2 2.56.89 7.87 2.23 7.87 6.07 0 3.84-3.26 5.64-6.97 5.64-3.72 0-6.66-1.86-8.58-4.68l-2.37 1.92c1.86 3.08 5.31 5.76 10.82 5.76 5.5 0 10.43-3.2 10.43-8.76zM2614.52 736.07c0-8-5.63-13.89-13.44-13.89-7.87 0-14.4 6.21-14.4 15.37 0 9.08 5.57 15.48 14.2 15.48 8.65 0 12.36-4.48 12.36-4.48l-1.6-2.36s-3.71 3.84-10.43 3.84-10.69-4.68-11-11.72h24.12s.2-1.28.2-2.24zm-3.4-.64h-20.8c.2-4.16 3.2-10.37 10.57-10.37 7.36 0 10.24 6.53 10.24 10.37zM2633.72 752.07l-.32-2.88s-1.28.84-3.2.84c-3.97 0-4.35-3.9-4.35-7.17v-17.03h7.55v-3h-7.49v-9.48h-3.39v9.47h-4.48v3.01h4.48v15.04c0 4.8.07 6.98 1.09 8.96 1.09 1.99 2.75 3.2 5.63 3.2 1.92 0 3.4-.32 4.48-.96zM2680.44 737.67c0-8.96-6.72-15.49-15.23-15.49-8.45 0-15.17 6.53-15.17 15.5 0 8.95 6.72 15.35 15.17 15.35 8.51 0 15.23-6.4 15.23-15.36zm-3.52-.12c0 6.84-4.48 12.48-11.71 12.48-7.17 0-11.65-5.64-11.65-12.48 0-6.92 4.48-12.49 11.65-12.49 7.23 0 11.71 5.57 11.71 12.49zM2700.6 711.11l.32-2.88s-.96-.64-4.16-.64a7.51 7.51 0 00-6.27 3.4c-.96 1.4-1.73 3.64-1.73 7.8v4.03h-4.48v3.01h4.48v26.56h3.33v-26.56h7.55v-3h-7.55v-4.36c0-4.16.51-8 5.31-8 1.09 0 2.11.2 3.2.64zM2729.72 725.9l.32-3.27s-1.28-.45-3.2-.45c-3.2 0-6.46 2.05-7.55 6.08v-5.56h-3.33v29.7h3.33v-16c0-4.55 1.54-11.02 7.23-11.02 1.6 0 2.5.26 3.2.52zM2760.44 736.07c0-8-5.63-13.89-13.44-13.89-7.87 0-14.4 6.21-14.4 15.37 0 9.08 5.57 15.48 14.21 15.48s12.35-4.48 12.35-4.48l-1.6-2.36s-3.7 3.84-10.43 3.84c-6.72 0-10.69-4.68-11-11.72h24.12s.2-1.28.2-2.24zm-3.39-.64h-20.8c.2-4.16 3.2-10.37 10.56-10.37s10.24 6.53 10.24 10.37zM2794.68 746v-23.3h-3.39v5.63c-1.98-3.52-5.89-6.15-11.2-6.15-7.8 0-14.53 5.83-14.53 15.1 0 9.29 6.72 15.11 14.53 15.11 5.31 0 9.03-2.5 11.2-6.33v2.17c0 7.81-2.75 13.96-11.52 13.96-4.8 0-9.28-2.44-10.88-4.04l-1.92 2.56s4.8 4.48 12.48 4.48c7.68 0 11.2-3.84 12.8-6.4 1.6-2.56 2.43-6.08 2.43-12.8zm-3.2-8.77c0 6.72-3.84 12.16-11.2 12.16-7.36 0-11.2-5.44-11.2-12.16 0-6.73 3.84-12.1 11.2-12.1 7.36 0 11.2 5.37 11.2 12.1zM2809.02 712.14a2.73 2.73 0 00-2.75-2.76 2.73 2.73 0 00-2.75 2.76 2.73 2.73 0 002.75 2.75 2.73 2.73 0 002.75-2.75zm-1.09 40.25v-29.7h-3.33v29.7h3.33zM2835.9 744.27c0-5.64-5.57-7.56-9.28-8.84-3.65-1.28-6.85-2.62-6.85-5.7 0-3.07 2.37-4.73 5.7-4.73s5.37 1.15 7.42 3.4l2.05-2.06c-2.3-2.62-5-4.16-9.34-4.16-4.36 0-9.03 2.56-9.03 7.94 0 5.38 5.57 7.3 8.13 8.2 2.56.89 7.87 2.23 7.87 6.07 0 3.84-3.26 5.64-6.97 5.64-3.72 0-6.66-1.86-8.58-4.68l-2.37 1.92c1.86 3.08 5.31 5.76 10.82 5.76 5.5 0 10.43-3.2 10.43-8.76zM2854.97 752.07l-.32-2.88s-1.28.84-3.2.84c-3.97 0-4.35-3.9-4.35-7.17v-17.03h7.55v-3h-7.49v-9.48h-3.39v9.47h-4.48v3.01h4.48v15.04c0 4.8.07 6.98 1.09 8.96 1.09 1.99 2.75 3.2 5.63 3.2 1.92 0 3.4-.32 4.48-.96zM2886.33 736.07c0-8-5.63-13.89-13.44-13.89-7.87 0-14.4 6.21-14.4 15.37 0 9.08 5.57 15.48 14.21 15.48s12.35-4.48 12.35-4.48l-1.6-2.36s-3.71 3.84-10.43 3.84-10.69-4.68-11-11.72h24.12s.2-1.28.2-2.24zm-3.39-.64h-20.8c.2-4.16 3.2-10.37 10.56-10.37s10.24 6.53 10.24 10.37zM2907.13 725.9l.32-3.27s-1.28-.45-3.2-.45c-3.2 0-6.46 2.05-7.55 6.08v-5.56h-3.33v29.7h3.33v-16c0-4.55 1.53-11.02 7.23-11.02 1.6 0 2.5.26 3.2.52zM2929.66 744.27c0-5.64-5.57-7.56-9.28-8.84-3.65-1.28-6.85-2.62-6.85-5.7 0-3.07 2.37-4.73 5.7-4.73 3.32 0 5.37 1.15 7.42 3.4l2.05-2.06c-2.3-2.62-5-4.16-9.35-4.16s-9.02 2.56-9.02 7.94c0 5.38 5.57 7.3 8.13 8.2 2.56.89 7.87 2.23 7.87 6.07 0 3.84-3.26 5.64-6.98 5.64-3.7 0-6.65-1.86-8.57-4.68l-2.37 1.92c1.86 3.08 5.31 5.76 10.82 5.76 5.5 0 10.43-3.2 10.43-8.76zM2944.57 747.27h-3.84l-3.84 14.08h2.56l5.12-14.08zM2273.59 811.92l-1.92-2.24s-3.2 4.35-9.92 4.35-11.33-5.31-11.33-12.67 5.25-12.16 11.2-12.16c5.89 0 8.45 2.88 9.73 4.35l2.11-2.24c-.64-.83-3.84-5.12-11.71-5.12-7.8 0-14.85 6.2-14.85 15.36 0 9.09 6.53 15.49 14.53 15.49 8 0 11.07-3.84 12.16-5.12zM2300.98 816.4v-17.6c0-7.88-3.58-12.61-11.84-12.61-4.48 0-8 1.73-9.92 3l1.28 2.44c.64-.51 4.16-2.56 8.77-2.56 4.67 0 8.32 2.69 8.32 8.13v1.6l-8.13.32c-8 .32-11.84 3.84-11.84 8.96 0 5.12 4.16 8.96 9.92 8.96s8.96-3.52 10.05-4.8v4.16h3.4zm-3.39-15.04v7.36c-1.4 2.24-4.6 5.44-9.4 5.44-4.8 0-7.24-2.88-7.24-6.08s1.98-5.9 8.2-6.21l8.44-.51zM2334.4 811.92l-1.93-2.24s-3.2 4.35-9.92 4.35-11.33-5.31-11.33-12.67 5.25-12.16 11.2-12.16c5.9 0 8.45 2.88 9.73 4.35l2.11-2.24c-.64-.83-3.84-5.12-11.7-5.12-7.82 0-14.86 6.2-14.86 15.36 0 9.09 6.53 15.49 14.53 15.49 8 0 11.07-3.84 12.16-5.12zM2363.77 816.4v-17.73c0-7.04-1.99-12.48-10.5-12.48-4.29 0-8.13 2.5-9.6 6.01v-19.97h-3.33v44.17h3.33v-14.72c0-7.04 3.07-12.61 9.47-12.61s7.23 4.93 7.23 9.73v17.6h3.4zM2398.97 800.08c0-8-5.63-13.9-13.44-13.9-7.87 0-14.4 6.22-14.4 15.37 0 9.09 5.57 15.49 14.2 15.49 8.65 0 12.36-4.48 12.36-4.48l-1.6-2.37s-3.71 3.84-10.43 3.84-10.7-4.67-11.01-11.71h24.13s.19-1.28.19-2.24zm-3.4-.64h-20.8c.2-4.16 3.2-10.37 10.57-10.37 7.36 0 10.24 6.53 10.24 10.37zM2413.37 811.28h-3.84l-3.84 14.08h2.56l5.12-14.08zM2449.2 775.12l.33-2.89s-.96-.64-4.16-.64a7.51 7.51 0 00-6.27 3.4c-.96 1.4-1.73 3.65-1.73 7.8v4.04h-4.48v3h4.48v26.57h3.33v-26.56h7.55v-3.01h-7.55v-4.35c0-4.16.5-8 5.3-8 1.1 0 2.12.19 3.2.64zM2474.62 816.4v-29.7h-3.33v15.94c0 5.76-2.56 11.52-9.15 11.52-6.53 0-7.36-4.8-7.36-9.28V786.7h-3.33v17.66c0 7.3 2.05 12.68 10.24 12.68 4.16 0 7.68-1.92 9.6-5.44v4.8h3.33zM2507.64 816.4v-17.73c0-7.04-1.98-12.48-10.5-12.48-4.28 0-8.12 2.5-9.6 6.01v-5.5h-3.32v29.7h3.32v-14.72c0-7.04 3.08-12.61 9.48-12.61s7.23 4.93 7.23 9.73v17.6h3.39zM2541.37 811.92l-1.92-2.24s-3.2 4.35-9.92 4.35-11.33-5.31-11.33-12.67 5.25-12.16 11.2-12.16c5.89 0 8.45 2.88 9.73 4.35l2.11-2.24c-.64-.83-3.84-5.12-11.71-5.12-7.8 0-14.85 6.2-14.85 15.36 0 9.09 6.53 15.49 14.53 15.49 8 0 11.07-3.84 12.16-5.12zM2559.16 816.08l-.32-2.88s-1.28.83-3.2.83c-3.97 0-4.35-3.9-4.35-7.17v-17.02h7.55v-3.01h-7.49v-9.47h-3.39v9.47h-4.48v3h4.48v15.05c0 4.8.06 6.97 1.09 8.96 1.09 1.98 2.75 3.2 5.63 3.2 1.92 0 3.4-.32 4.48-.96zM2569.66 776.14a2.73 2.73 0 00-2.75-2.75 2.73 2.73 0 00-2.76 2.75 2.73 2.73 0 002.76 2.75 2.73 2.73 0 002.75-2.75zm-1.1 40.26v-29.7h-3.32v29.7h3.33zM2606.65 801.68c0-8.96-6.72-15.5-15.23-15.5-8.45 0-15.17 6.54-15.17 15.5s6.72 15.36 15.17 15.36c8.5 0 15.23-6.4 15.23-15.36zm-3.52-.13c0 6.85-4.48 12.48-11.71 12.48-7.17 0-11.65-5.63-11.65-12.48 0-6.91 4.48-12.48 11.65-12.48 7.23 0 11.7 5.57 11.7 12.48zM2637.43 816.4v-17.73c0-7.04-1.98-12.48-10.5-12.48-4.28 0-8.12 2.5-9.6 6.01v-5.5h-3.32v29.7h3.33v-14.72c0-7.04 3.07-12.61 9.47-12.61s7.23 4.93 7.23 9.73v17.6h3.4zM2667.2 816.4v-17.6c0-7.88-3.59-12.61-11.85-12.61-4.48 0-8 1.73-9.92 3l1.28 2.44c.64-.51 4.16-2.56 8.77-2.56 4.67 0 8.32 2.69 8.32 8.13v1.6l-8.13.32c-8 .32-11.84 3.84-11.84 8.96 0 5.12 4.16 8.96 9.92 8.96s8.96-3.52 10.05-4.8v4.16h3.4zm-3.4-15.04v7.36c-1.4 2.24-4.6 5.44-9.4 5.44-4.8 0-7.24-2.88-7.24-6.08s1.99-5.9 8.2-6.21l8.44-.51zM2676.47 772.23h3.2v44.17h-3.2zM2723 816.4v-17.6c0-7.88-3.58-12.61-11.84-12.61-4.48 0-8 1.73-9.92 3l1.28 2.44c.64-.51 4.16-2.56 8.77-2.56 4.67 0 8.32 2.69 8.32 8.13v1.6l-8.13.32c-8 .32-11.84 3.84-11.84 8.96 0 5.12 4.16 8.96 9.92 8.96s8.96-3.52 10.05-4.8v4.16h3.4zm-3.39-15.04v7.36c-1.4 2.24-4.6 5.44-9.4 5.44-4.8 0-7.24-2.88-7.24-6.08s1.98-5.9 8.2-6.21l8.44-.51zM2755.39 816.4v-17.73c0-7.04-1.99-12.48-10.5-12.48-4.29 0-8.13 2.5-9.6 6.01v-5.5h-3.33v29.7h3.33v-14.72c0-7.04 3.07-12.61 9.47-12.61s7.23 4.93 7.23 9.73v17.6h3.4zM2762.43 801.55c0 8.77 5.76 15.49 14.72 15.49 4.48 0 8.5-1.92 11-6.15v5.5h3.4v-44.16h-3.4v20.04c-2.87-4.35-6.84-6.08-11.13-6.08-8.83 0-14.6 6.53-14.6 15.36zm3.52 0c0-6.91 4.03-12.48 11.2-12.48 7.23 0 11.2 5.57 11.2 12.48 0 6.85-3.97 12.48-11.2 12.48-7.17 0-11.2-5.63-11.2-12.48zM2274.74 864.08c0-8-5.63-13.89-13.44-13.89-7.87 0-14.4 6.2-14.4 15.36 0 9.09 5.57 15.49 14.21 15.49s12.35-4.48 12.35-4.48l-1.6-2.37s-3.71 3.84-10.43 3.84-10.69-4.67-11-11.71h24.12s.2-1.28.2-2.24zm-3.39-.64h-20.8c.2-4.16 3.2-10.37 10.56-10.37s10.24 6.53 10.24 10.37zM2304.5 880.4l-12.16-15.68 10.69-14.02h-3.65l-8.96 11.97-8.96-11.97h-3.71l10.75 14.02-12.16 15.68h3.84l10.24-13.57 10.24 13.57h3.84zM2334.26 864.08c0-8-5.63-13.89-13.44-13.89-7.87 0-14.4 6.2-14.4 15.36 0 9.09 5.57 15.49 14.21 15.49s12.35-4.48 12.35-4.48l-1.6-2.37s-3.7 3.84-10.43 3.84c-6.72 0-10.69-4.67-11-11.71h24.12s.2-1.28.2-2.24zm-3.39-.64h-20.8c.2-4.16 3.2-10.37 10.56-10.37s10.24 6.53 10.24 10.37zM2366.07 875.92l-1.92-2.24s-3.2 4.35-9.92 4.35-11.33-5.31-11.33-12.67 5.25-12.16 11.2-12.16c5.9 0 8.45 2.88 9.73 4.35l2.11-2.24c-.64-.83-3.84-5.12-11.7-5.12-7.82 0-14.86 6.2-14.86 15.36 0 9.09 6.53 15.49 14.53 15.49 8 0 11.07-3.84 12.16-5.12zM2394.55 880.4v-29.7h-3.33v15.94c0 5.76-2.56 11.52-9.15 11.52-6.53 0-7.36-4.8-7.36-9.28V850.7h-3.33v17.67c0 7.3 2.05 12.67 10.24 12.67 4.16 0 7.68-1.92 9.6-5.44v4.8h3.33zM2416.31 880.08l-.32-2.88s-1.28.83-3.2.83c-3.97 0-4.35-3.9-4.35-7.17v-17.02h7.55v-3h-7.49v-9.48h-3.39v9.47h-4.48v3h4.48v15.05c0 4.8.07 6.98 1.09 8.96 1.09 1.98 2.75 3.2 5.63 3.2 1.92 0 3.4-.32 4.48-.96zM2426.8 840.14a2.73 2.73 0 00-2.74-2.75 2.73 2.73 0 00-2.76 2.75 2.73 2.73 0 002.76 2.75 2.73 2.73 0 002.75-2.75zm-1.08 40.26v-29.7h-3.33v29.7h3.33zM2463.8 865.68c0-8.96-6.72-15.49-15.23-15.49-8.45 0-15.17 6.53-15.17 15.49s6.72 15.36 15.17 15.36c8.51 0 15.23-6.4 15.23-15.36zm-3.52-.13c0 6.85-4.48 12.48-11.71 12.48-7.17 0-11.65-5.63-11.65-12.48 0-6.91 4.48-12.48 11.65-12.48 7.23 0 11.71 5.57 11.71 12.48zM2494.58 880.4v-17.73c0-7.04-1.98-12.48-10.5-12.48-4.28 0-8.12 2.5-9.6 6.02v-5.5h-3.32v29.69h3.33v-14.72c0-7.04 3.07-12.6 9.47-12.6s7.23 4.92 7.23 9.72v17.6h3.4zM2539.51 880.4v-29.7h-3.33v15.94c0 5.76-2.56 11.52-9.15 11.52-6.53 0-7.36-4.8-7.36-9.28V850.7h-3.33v17.67c0 7.3 2.05 12.67 10.24 12.67 4.16 0 7.68-1.92 9.6-5.44v4.8h3.33zM2572.54 880.4v-17.73c0-7.04-1.99-12.48-10.5-12.48-4.29 0-8.13 2.5-9.6 6.02v-5.5h-3.33v29.69h3.33v-14.72c0-7.04 3.07-12.6 9.47-12.6s7.24 4.92 7.24 9.72v17.6h3.39zM2586.55 840.14a2.73 2.73 0 00-2.75-2.75 2.73 2.73 0 00-2.75 2.75 2.73 2.73 0 002.75 2.75 2.73 2.73 0 002.75-2.75zm-1.08 40.26v-29.7h-3.33v29.7h3.33zM2607.55 880.08l-.32-2.88s-1.28.83-3.2.83c-3.97 0-4.36-3.9-4.36-7.17v-17.02h7.56v-3h-7.5v-9.48h-3.38v9.47h-4.48v3h4.48v15.05c0 4.8.06 6.98 1.08 8.96 1.1 1.98 2.76 3.2 5.64 3.2 1.92 0 3.39-.32 4.48-.96zM2631.35 872.27c0-5.63-5.56-7.55-9.28-8.83-3.64-1.28-6.84-2.62-6.84-5.7 0-3.07 2.36-4.73 5.7-4.73 3.32 0 5.37 1.15 7.42 3.39l2.04-2.05c-2.3-2.62-4.99-4.16-9.34-4.16s-9.02 2.56-9.02 7.94c0 5.37 5.56 7.3 8.12 8.19 2.56.9 7.88 2.24 7.88 6.08s-3.27 5.63-6.98 5.63c-3.71 0-6.66-1.85-8.58-4.67l-2.36 1.92c1.85 3.07 5.3 5.76 10.81 5.76 5.5 0 10.43-3.2 10.43-8.77zM2645.63 878.03c0-1.79-1.28-3.07-3.08-3.07-1.72 0-3 1.28-3 3.07 0 1.73 1.28 3.01 3 3.01 1.8 0 3.08-1.28 3.08-3zM2694.4 880.4v-3.14h-21v-18.75h19.4v-3.13h-19.4v-16h20.55v-3.14h-24v44.16h24.44zM2724.03 880.4v-17.6c0-7.87-3.59-12.6-11.84-12.6-4.48 0-8 1.72-9.92 3l1.28 2.43c.64-.51 4.16-2.56 8.76-2.56 4.68 0 8.32 2.69 8.32 8.13v1.6l-8.12.32c-8 .32-11.84 3.84-11.84 8.96 0 5.12 4.16 8.96 9.92 8.96s8.96-3.52 10.04-4.8v4.16h3.4zm-3.4-15.04v7.36c-1.4 2.24-4.6 5.44-9.4 5.44-4.8 0-7.24-2.88-7.24-6.08s1.99-5.89 8.2-6.2l8.44-.52zM2757.43 875.92l-1.92-2.24s-3.2 4.35-9.92 4.35-11.32-5.31-11.32-12.67 5.24-12.16 11.2-12.16c5.88 0 8.44 2.88 9.72 4.35l2.12-2.24c-.64-.83-3.84-5.12-11.72-5.12-7.8 0-14.84 6.2-14.84 15.36 0 9.09 6.52 15.49 14.52 15.49s11.08-3.84 12.16-5.12zM2786.81 880.4v-17.73c0-7.04-1.98-12.48-10.5-12.48-4.28 0-8.12 2.5-9.6 6.02v-19.97h-3.32v44.16h3.33v-14.72c0-7.04 3.07-12.6 9.47-12.6s7.23 4.92 7.23 9.72v17.6h3.4zM2833.66 875.92l-1.92-2.24s-3.2 4.35-9.92 4.35-11.33-5.31-11.33-12.67 5.25-12.16 11.2-12.16c5.89 0 8.45 2.88 9.73 4.35l2.11-2.24c-.64-.83-3.84-5.12-11.71-5.12-7.8 0-14.85 6.2-14.85 15.36 0 9.09 6.53 15.49 14.53 15.49 8 0 11.07-3.84 12.16-5.12zM2867.45 865.68c0-8.96-6.72-15.49-15.23-15.49-8.45 0-15.17 6.53-15.17 15.49s6.72 15.36 15.17 15.36c8.51 0 15.23-6.4 15.23-15.36zm-3.52-.13c0 6.85-4.48 12.48-11.71 12.48-7.17 0-11.65-5.63-11.65-12.48 0-6.91 4.48-12.48 11.65-12.48 7.23 0 11.71 5.57 11.71 12.48zM2888.57 853.9l.32-3.26s-1.28-.45-3.2-.45c-3.2 0-6.46 2.05-7.55 6.08v-5.57h-3.33v29.7h3.33v-16c0-4.54 1.53-11 7.23-11 1.6 0 2.5.25 3.2.5zM2919.3 864.08c0-8-5.64-13.89-13.45-13.89-7.87 0-14.4 6.2-14.4 15.36 0 9.09 5.57 15.49 14.2 15.49 8.65 0 12.36-4.48 12.36-4.48l-1.6-2.37s-3.71 3.84-10.43 3.84-10.69-4.67-11.01-11.71h24.13s.2-1.28.2-2.24zm-3.4-.64h-20.8c.19-4.16 3.2-10.37 10.56-10.37s10.24 6.53 10.24 10.37zM2277.3 929.68c0-8.96-6.72-15.49-15.23-15.49-8.45 0-15.17 6.53-15.17 15.5 0 8.95 6.72 15.35 15.17 15.35 8.51 0 15.23-6.4 15.23-15.36zm-3.52-.13c0 6.85-4.48 12.49-11.71 12.49-7.17 0-11.65-5.64-11.65-12.49 0-6.9 4.48-12.48 11.65-12.48 7.23 0 11.71 5.57 11.71 12.48zM2297.46 903.12l.32-2.88s-.96-.64-4.16-.64a7.51 7.51 0 00-6.27 3.4c-.96 1.4-1.73 3.64-1.73 7.8v4.03h-4.48v3.01h4.48v26.56h3.33v-26.56h7.55v-3h-7.55v-4.36c0-4.16.51-8 5.31-8 1.09 0 2.11.2 3.2.64zM2346.1 944.4v-17.6c0-7.87-3.58-12.6-11.84-12.6-4.48 0-8 1.72-9.92 3l1.28 2.43c.64-.5 4.16-2.56 8.77-2.56 4.67 0 8.32 2.7 8.32 8.13v1.6l-8.13.32c-8 .32-11.84 3.84-11.84 8.96 0 5.12 4.16 8.96 9.92 8.96s8.96-3.52 10.05-4.8v4.16h3.4zm-3.39-15.04v7.36c-1.4 2.24-4.6 5.44-9.4 5.44-4.8 0-7.24-2.88-7.24-6.08s1.98-5.89 8.2-6.2l8.44-.52zM2404.34 938.32l-2.24-2.24c-3.2 3.52-8 5.83-14.08 5.83-10.88 0-18.56-8.13-18.56-19.65 0-11.52 7.68-19.52 18.56-19.52 6.4 0 11.52 2.94 13.76 5.82l2.24-2.56c-3.2-3.2-8.32-6.4-16-6.4-12.48 0-22.27 9.35-22.27 22.79s9.47 22.78 22.27 22.78c8 0 13.12-3.33 16.32-6.85zM2436.02 912.02c0-3.84-1.47-6.47-4.03-8.7-2.56-2.25-6.01-3.08-10.17-3.08h-10.12v44.16h3.46v-20.6h6.66c4.16 0 7.61-.84 10.17-3.08 2.56-2.24 4.03-4.86 4.03-8.7zm-3.64 0c0 6.27-4.87 8.64-10.44 8.64h-6.78v-17.28h6.78c5.57 0 10.44 2.37 10.44 8.64zM2474.74 926.61v-26.37h-3.45v26.7c0 3.32-.07 7.35-2.24 10.36-2.11 2.88-5.5 4.67-9.99 4.67-4.48 0-7.87-1.8-9.98-4.67-2.18-3-2.24-7.04-2.24-10.37v-26.69h-3.46v26.37c0 5 .2 9.4 3.14 13.12 2.88 3.59 7.1 5.44 12.54 5.44 5.44 0 9.67-1.85 12.55-5.44 2.94-3.71 3.13-8.13 3.13-13.12zM2521.91 939.92l-1.92-2.24s-3.2 4.36-9.92 4.36-11.33-5.32-11.33-12.68c0-7.36 5.25-12.16 11.2-12.16 5.9 0 8.45 2.88 9.73 4.35l2.11-2.24c-.64-.83-3.84-5.12-11.7-5.12-7.82 0-14.86 6.21-14.86 15.36 0 9.1 6.53 15.5 14.53 15.5 8 0 11.07-3.85 12.16-5.13zM2549.3 944.4v-17.6c0-7.87-3.58-12.6-11.84-12.6-4.48 0-8 1.72-9.92 3l1.28 2.43c.64-.5 4.16-2.56 8.77-2.56 4.67 0 8.32 2.7 8.32 8.13v1.6l-8.13.32c-8 .32-11.84 3.84-11.84 8.96 0 5.12 4.16 8.96 9.92 8.96s8.96-3.52 10.05-4.8v4.16h3.4zm-3.39-15.04v7.36c-1.4 2.24-4.6 5.44-9.4 5.44-4.8 0-7.24-2.88-7.24-6.08s1.99-5.89 8.2-6.2l8.44-.52zM2581.69 944.4v-17.73c0-7.04-1.98-12.48-10.5-12.48-4.28 0-8.13 2.5-9.6 6.02v-5.5h-3.33v29.7h3.33v-14.73c0-7.04 3.07-12.6 9.48-12.6 6.4 0 7.23 4.92 7.23 9.72v17.6h3.39zM2633.21 929.68c0-8.77-5.57-15.49-14.72-15.49-4.48 0-8.58 2.05-11.07 6.28v-5.76h-3.33v41.85h3.33v-17.72c2.88 4.48 6.9 6.2 11.2 6.2 8.83 0 14.59-6.52 14.59-15.36zm-3.52 0c0 6.92-4.03 12.36-11.2 12.36-7.23 0-11.2-5.57-11.2-12.36 0-6.97 3.97-12.6 11.2-12.6 7.17 0 11.2 5.75 11.2 12.6zM2666.17 928.08c0-8-5.63-13.89-13.44-13.89-7.87 0-14.4 6.21-14.4 15.36 0 9.1 5.57 15.5 14.2 15.5 8.65 0 12.36-4.49 12.36-4.49l-1.6-2.36s-3.71 3.84-10.43 3.84-10.69-4.68-11.01-11.72h24.13s.19-1.28.19-2.24zm-3.4-.64h-20.8c.2-4.16 3.2-10.37 10.57-10.37 7.36 0 10.24 6.53 10.24 10.37zM2686.97 917.9l.32-3.26s-1.28-.45-3.2-.45c-3.2 0-6.46 2.05-7.55 6.08v-5.56h-3.33v29.7h3.33v-16c0-4.55 1.53-11.02 7.23-11.02 1.6 0 2.5.26 3.2.52zM2705.21 903.12l.32-2.88s-.96-.64-4.16-.64a7.51 7.51 0 00-6.27 3.4c-.96 1.4-1.73 3.64-1.73 7.8v4.03h-4.48v3.01h4.48v26.56h3.33v-26.56h7.55v-3h-7.55v-4.36c0-4.16.51-8 5.31-8 1.09 0 2.11.2 3.2.64zM2735.8 929.68c0-8.96-6.72-15.49-15.23-15.49-8.45 0-15.17 6.53-15.17 15.5 0 8.95 6.72 15.35 15.17 15.35 8.51 0 15.23-6.4 15.23-15.36zm-3.52-.13c0 6.85-4.48 12.49-11.7 12.49-7.18 0-11.66-5.64-11.66-12.49 0-6.9 4.48-12.48 11.65-12.48 7.23 0 11.71 5.57 11.71 12.48zM2756.92 917.9l.32-3.26s-1.28-.45-3.2-.45c-3.2 0-6.46 2.05-7.55 6.08v-5.56h-3.33v29.7h3.33v-16c0-4.55 1.54-11.02 7.23-11.02 1.6 0 2.5.26 3.2.52zM2802.81 944.4v-18.05c0-5.95-1.73-12.16-9.92-12.16-3.97 0-7.49 2.37-9.4 6.21-1.29-3.84-4.17-6.2-8.84-6.2-3.97 0-7.74 2.75-8.96 6.01v-5.5h-3.33v29.7h3.33v-15.5c0-6.27 3.07-11.84 8.83-11.84 5.12 0 6.4 4.3 6.4 9.28v18.05h3.33v-15.49c0-6.27 3.07-11.84 8.83-11.84s6.4 5.57 6.4 9.28v18.05h3.33zM2277.3 993.69c0-8.96-6.72-15.5-15.23-15.5-8.45 0-15.17 6.54-15.17 15.5s6.72 15.36 15.17 15.36c8.51 0 15.23-6.4 15.23-15.36zm-3.52-.13c0 6.85-4.48 12.48-11.71 12.48-7.17 0-11.65-5.63-11.65-12.48 0-6.91 4.48-12.48 11.65-12.48 7.23 0 11.71 5.57 11.71 12.48zM2314.1 993.69c0-8.77-5.57-15.5-14.72-15.5-4.48 0-8.57 2.06-11.07 6.28v-5.76h-3.33v41.86h3.33v-17.73c2.88 4.48 6.91 6.2 11.2 6.2 8.83 0 14.6-6.52 14.6-15.35zm-3.52 0c0 6.9-4.03 12.35-11.2 12.35-7.23 0-11.2-5.57-11.2-12.35 0-6.98 3.97-12.61 11.2-12.61 7.17 0 11.2 5.76 11.2 12.6zM2347.06 992.09c0-8-5.63-13.9-13.44-13.9-7.87 0-14.4 6.22-14.4 15.37 0 9.09 5.57 15.49 14.21 15.49s12.35-4.48 12.35-4.48l-1.6-2.37s-3.7 3.84-10.43 3.84c-6.72 0-10.69-4.67-11-11.71h24.12s.2-1.28.2-2.24zm-3.39-.64h-20.8c.2-4.16 3.2-10.37 10.56-10.37s10.24 6.53 10.24 10.37zM2367.86 981.9l.32-3.25s-1.28-.45-3.2-.45c-3.2 0-6.46 2.05-7.55 6.08v-5.57h-3.33v29.7h3.33v-16c0-4.55 1.54-11.01 7.23-11.01 1.6 0 2.5.25 3.2.5zM2392.5 1008.4v-17.6c0-7.87-3.58-12.6-11.84-12.6-4.48 0-8 1.73-9.92 3l1.28 2.44c.64-.51 4.16-2.56 8.77-2.56 4.67 0 8.32 2.69 8.32 8.13v1.6l-8.13.32c-8 .32-11.84 3.84-11.84 8.96 0 5.12 4.16 8.96 9.92 8.96s8.96-3.52 10.05-4.8v4.16h3.4zm-3.39-15.03v7.36c-1.4 2.24-4.6 5.44-9.4 5.44-4.8 0-7.24-2.88-7.24-6.08s1.99-5.9 8.2-6.21l8.44-.51zM2413.62 1008.09l-.32-2.88s-1.28.83-3.2.83c-3.96 0-4.35-3.9-4.35-7.17v-17.02h7.55v-3.01h-7.48v-9.48h-3.4v9.48h-4.48v3h4.48v15.05c0 4.8.07 6.97 1.1 8.96 1.08 1.98 2.74 3.2 5.62 3.2 1.92 0 3.4-.32 4.48-.96zM2424.12 968.15a2.73 2.73 0 00-2.75-2.75 2.73 2.73 0 00-2.75 2.75 2.73 2.73 0 002.75 2.75 2.73 2.73 0 002.75-2.75zm-1.09 40.26v-29.7h-3.33v29.7h3.33zM2461.11 993.69c0-8.96-6.72-15.5-15.23-15.5-8.45 0-15.17 6.54-15.17 15.5s6.72 15.36 15.17 15.36c8.51 0 15.23-6.4 15.23-15.36zm-3.52-.13c0 6.85-4.48 12.48-11.71 12.48-7.17 0-11.65-5.63-11.65-12.48 0-6.91 4.48-12.48 11.65-12.48 7.23 0 11.71 5.57 11.71 12.48zM2491.9 1008.4v-17.72c0-7.04-1.99-12.48-10.5-12.48-4.29 0-8.13 2.5-9.6 6.01v-5.5h-3.33v29.7h3.33v-14.72c0-7.04 3.07-12.61 9.47-12.61s7.23 4.93 7.23 9.73v17.6h3.4zM2519.22 1000.28c0-5.63-5.56-7.55-9.28-8.83-3.64-1.28-6.84-2.63-6.84-5.7 0-3.07 2.36-4.74 5.7-4.74 3.32 0 5.37 1.16 7.42 3.4l2.04-2.05c-2.3-2.63-4.99-4.16-9.34-4.16s-9.02 2.56-9.02 7.93c0 5.38 5.56 7.3 8.12 8.2 2.56.9 7.88 2.24 7.88 6.08s-3.27 5.63-6.98 5.63c-3.71 0-6.66-1.86-8.58-4.67l-2.36 1.92c1.85 3.07 5.3 5.76 10.81 5.76 5.5 0 10.43-3.2 10.43-8.77zM2556.98 1000.28c0-5.63-5.56-7.55-9.28-8.83-3.64-1.28-6.84-2.63-6.84-5.7 0-3.07 2.36-4.74 5.7-4.74 3.32 0 5.37 1.16 7.42 3.4l2.04-2.05c-2.3-2.63-4.99-4.16-9.34-4.16s-9.02 2.56-9.02 7.93c0 5.38 5.56 7.3 8.12 8.2 2.56.9 7.88 2.24 7.88 6.08s-3.27 5.63-6.98 5.63c-3.71 0-6.66-1.86-8.58-4.67l-2.36 1.92c1.85 3.07 5.3 5.76 10.81 5.76 5.5 0 10.43-3.2 10.43-8.77zM2589.5 992.09c0-8-5.63-13.9-13.44-13.9-7.87 0-14.4 6.22-14.4 15.37 0 9.09 5.57 15.49 14.2 15.49 8.65 0 12.36-4.48 12.36-4.48l-1.6-2.37s-3.71 3.84-10.43 3.84-10.7-4.67-11.01-11.71h24.13s.19-1.28.19-2.24zm-3.4-.64h-20.8c.2-4.16 3.2-10.37 10.57-10.37 7.36 0 10.24 6.53 10.24 10.37zM2625.98 993.69c0-8.77-5.57-15.5-14.72-15.5-4.48 0-8.58 2.06-11.07 6.28v-5.76h-3.33v41.86h3.33v-17.73c2.88 4.48 6.9 6.2 11.2 6.2 8.83 0 14.59-6.52 14.59-15.35zm-3.52 0c0 6.9-4.03 12.35-11.2 12.35-7.23 0-11.2-5.57-11.2-12.35 0-6.98 3.97-12.61 11.2-12.61 7.17 0 11.2 5.76 11.2 12.6zM2653.82 1008.4v-17.6c0-7.87-3.59-12.6-11.84-12.6-4.48 0-8 1.73-9.92 3l1.28 2.44c.64-.51 4.16-2.56 8.77-2.56 4.67 0 8.32 2.69 8.32 8.13v1.6l-8.13.32c-8 .32-11.84 3.84-11.84 8.96 0 5.12 4.16 8.96 9.92 8.96s8.96-3.52 10.05-4.8v4.16h3.39zm-3.4-15.03v7.36c-1.4 2.24-4.6 5.44-9.4 5.44-4.8 0-7.23-2.88-7.23-6.08s1.98-5.9 8.19-6.21l8.45-.51zM2676.54 981.9l.32-3.25s-1.28-.45-3.2-.45c-3.2 0-6.47 2.05-7.55 6.08v-5.57h-3.33v29.7h3.33v-16c0-4.55 1.53-11.01 7.23-11.01 1.6 0 2.5.25 3.2.5zM2701.18 1008.4v-17.6c0-7.87-3.59-12.6-11.84-12.6-4.48 0-8 1.73-9.92 3l1.28 2.44c.64-.51 4.16-2.56 8.77-2.56 4.67 0 8.32 2.69 8.32 8.13v1.6l-8.13.32c-8 .32-11.84 3.84-11.84 8.96 0 5.12 4.16 8.96 9.92 8.96s8.96-3.52 10.05-4.8v4.16h3.39zm-3.4-15.03v7.36c-1.4 2.24-4.6 5.44-9.4 5.44-4.8 0-7.23-2.88-7.23-6.08s1.98-5.9 8.19-6.21l8.45-.51zM2722.3 1008.09l-.32-2.88s-1.28.83-3.2.83c-3.97 0-4.35-3.9-4.35-7.17v-17.02h7.55v-3.01h-7.49v-9.48h-3.4v9.48h-4.47v3h4.48v15.05c0 4.8.06 6.97 1.09 8.96 1.08 1.98 2.75 3.2 5.63 3.2 1.92 0 3.4-.32 4.48-.96zM2753.66 992.09c0-8-5.63-13.9-13.44-13.9-7.87 0-14.4 6.22-14.4 15.37 0 9.09 5.57 15.49 14.2 15.49 8.65 0 12.36-4.48 12.36-4.48l-1.6-2.37s-3.71 3.84-10.43 3.84-10.7-4.67-11.01-11.71h24.13s.19-1.28.19-2.24zm-3.4-.64h-20.8c.2-4.16 3.2-10.37 10.57-10.37 7.36 0 10.24 6.53 10.24 10.37zM2761.02 964.24h3.2v44.17h-3.2zM2797.3 978.7h-3.51l-10.24 25.87-10.24-25.86h-3.52l11.97 29.25-1.73 4.93c-1.41 4.03-2.63 4.67-4.42 4.67-1.8 0-2.94-.64-2.94-.64l-.64 3.2s1.53.77 3.58.77 4.6-.64 6.66-5.57l15.04-36.61zM2261.94 1031.13l.32-2.88s-.96-.64-4.16-.64a7.51 7.51 0 00-6.27 3.39c-.96 1.4-1.73 3.65-1.73 7.8v4.04h-4.48v3h4.48v26.57h3.33v-26.56h7.55v-3.01h-7.55v-4.35c0-4.16.51-8 5.31-8 1.09 0 2.11.19 3.2.64zM2278.58 1045.91l.32-3.26s-1.28-.45-3.2-.45c-3.2 0-6.46 2.05-7.55 6.08v-5.57h-3.33v29.7h3.33v-16c0-4.55 1.54-11 7.23-11 1.6 0 2.5.25 3.2.5zM2311.86 1057.69c0-8.96-6.72-15.49-15.23-15.49-8.45 0-15.17 6.53-15.17 15.49s6.72 15.36 15.17 15.36c8.51 0 15.23-6.4 15.23-15.36zm-3.52-.13c0 6.85-4.48 12.48-11.71 12.48-7.17 0-11.65-5.63-11.65-12.48 0-6.91 4.48-12.48 11.65-12.48 7.23 0 11.71 5.57 11.71 12.48zM2359.67 1072.41v-18.05c0-5.95-1.73-12.16-9.92-12.16-3.97 0-7.49 2.37-9.4 6.2-1.29-3.83-4.17-6.2-8.84-6.2-3.97 0-7.74 2.75-8.96 6.02v-5.5h-3.33v29.69h3.33v-15.49c0-6.27 3.07-11.84 8.83-11.84 5.12 0 6.4 4.29 6.4 9.28v18.05h3.33v-15.49c0-6.27 3.07-11.84 8.83-11.84s6.4 5.57 6.4 9.28v18.05h3.33zM2393.91 1072.09l-.32-2.88s-1.28.83-3.2.83c-3.97 0-4.35-3.9-4.35-7.17v-17.02h7.55v-3.01h-7.49v-9.47h-3.39v9.47h-4.48v3h4.48v15.05c0 4.8.07 6.98 1.09 8.96 1.09 1.98 2.75 3.2 5.63 3.2 1.92 0 3.4-.32 4.48-.96zM2423.42 1072.41v-17.73c0-7.04-1.99-12.48-10.5-12.48-4.29 0-8.13 2.5-9.6 6.02v-19.97h-3.33v44.16h3.33v-14.72c0-7.04 3.07-12.6 9.47-12.6s7.23 4.92 7.23 9.72v17.6h3.4zM2458.62 1056.09c0-8-5.64-13.89-13.44-13.89-7.88 0-14.4 6.2-14.4 15.36 0 9.09 5.56 15.49 14.2 15.49s12.36-4.48 12.36-4.48l-1.6-2.37s-3.72 3.84-10.44 3.84c-6.72 0-10.68-4.67-11-11.71h24.12s.2-1.28.2-2.24zm-3.4-.64h-20.8c.2-4.16 3.2-10.37 10.56-10.37s10.24 6.53 10.24 10.37zM2506.62 1057.69c0-8.96-6.72-15.49-15.24-15.49-8.44 0-15.16 6.53-15.16 15.49s6.72 15.36 15.16 15.36c8.52 0 15.24-6.4 15.24-15.36zm-3.52-.13c0 6.85-4.48 12.48-11.72 12.48-7.16 0-11.64-5.63-11.64-12.48 0-6.91 4.48-12.48 11.64-12.48 7.24 0 11.72 5.57 11.72 12.48zM2526.14 1072.09l-.32-2.88s-1.28.83-3.2.83c-3.97 0-4.36-3.9-4.36-7.17v-17.02h7.56v-3.01h-7.5v-9.47h-3.38v9.47h-4.48v3h4.48v15.05c0 4.8.06 6.98 1.08 8.96 1.1 1.98 2.76 3.2 5.64 3.2 1.92 0 3.39-.32 4.48-.96zM2555.64 1072.41v-17.73c0-7.04-1.98-12.48-10.5-12.48-4.28 0-8.12 2.5-9.6 6.02v-19.97h-3.32v44.16h3.32v-14.72c0-7.04 3.08-12.6 9.48-12.6s7.23 4.92 7.23 9.72v17.6h3.4zM2590.84 1056.09c0-8-5.63-13.89-13.44-13.89-7.87 0-14.4 6.2-14.4 15.36 0 9.09 5.57 15.49 14.2 15.49 8.65 0 12.36-4.48 12.36-4.48l-1.6-2.37s-3.71 3.84-10.43 3.84-10.69-4.67-11-11.71h24.12s.2-1.28.2-2.24zm-3.4-.64h-20.8c.2-4.16 3.2-10.37 10.57-10.37 7.36 0 10.24 6.53 10.24 10.37zM2611.64 1045.91l.32-3.26s-1.28-.45-3.2-.45c-3.2 0-6.46 2.05-7.55 6.08v-5.57h-3.33v29.7h3.33v-16c0-4.55 1.54-11 7.23-11 1.6 0 2.5.25 3.2.5zM2634.17 1064.28c0-5.63-5.57-7.55-9.28-8.83-3.65-1.28-6.85-2.63-6.85-5.7 0-3.07 2.37-4.73 5.7-4.73s5.37 1.15 7.42 3.39l2.05-2.05c-2.3-2.62-5-4.16-9.34-4.16-4.36 0-9.03 2.56-9.03 7.94 0 5.37 5.57 7.3 8.13 8.19 2.56.9 7.87 2.24 7.87 6.08s-3.26 5.63-6.97 5.63c-3.72 0-6.66-1.85-8.58-4.67l-2.37 1.92c1.86 3.07 5.31 5.76 10.82 5.76 5.5 0 10.43-3.2 10.43-8.77zM2282.87 637.23a42.12 42.12 0 00-6.85-3.33c-2.3-.8-4.8-1.21-7.49-1.21-4.86 0-8.92 1.67-12.19 5.02a16.98 16.98 0 00-4.9 12.32c0 4.95 1.56 9.05 4.68 12.29 3.11 3.24 7.12 4.86 12.03 4.86 2.6 0 5.22-.42 7.84-1.28a32.4 32.4 0 007.52-3.58l-.06 7.17a61.42 61.42 0 01-7.56 2.94 28.73 28.73 0 01-8 1.09c-6.78 0-12.35-2.24-16.7-6.72-4.35-4.48-6.53-10.13-6.53-16.96a22.6 22.6 0 016.82-16.61 22.53 22.53 0 0116.54-6.82c3.03 0 5.6.28 7.68.84a32.2 32.2 0 017.17 3.07v6.91zM2301.82 642.48c4.22 0 7.82 1.54 10.78 4.64a15.4 15.4 0 014.45 11.04 14.1 14.1 0 01-4.73 10.81 16 16 0 01-11.2 4.36c-4.06 0-7.62-1.54-10.7-4.61-3.06-3.07-4.6-6.64-4.6-10.69 0-4.52 1.54-8.24 4.6-11.17 3.08-2.92 6.88-4.38 11.4-4.38zm-.51 25.09c2.73 0 5.08-.94 7.04-2.82a9.12 9.12 0 002.94-6.85c0-2.64-.96-4.93-2.88-6.85a9.35 9.35 0 00-6.85-2.88c-2.77 0-5.15.95-7.13 2.85a9.32 9.32 0 00-2.98 7.01c0 2.52 1 4.74 3 6.66a9.64 9.64 0 006.86 2.88zM2323.32 643.18h6.08v4.61c.64-1.2 1.73-2.36 3.26-3.49 1.54-1.13 2.95-1.7 4.23-1.7 1.32 0 2.58.3 3.77.9.77.39 1.86 1.11 3.27 2.18l-3.65 5.5a12.95 12.95 0 00-1.98-1.6c-.9-.55-1.71-.83-2.44-.83-2.38 0-4.13 1.22-5.24 3.65a16.5 16.5 0 00-1.22 6.78v13.38h-6.08v-29.38zM2350.2 658.74c0 2.68.86 4.83 2.6 6.43 1.72 1.6 4.01 2.4 6.87 2.4 2.1 0 4.25-.52 6.47-1.54.38-.17 1.6-.81 3.64-1.92v5.95a59.58 59.58 0 01-5.24 2.3c-1.88.65-3.78.97-5.7.97-4.52 0-8.13-1.5-10.82-4.51-2.68-3.01-4.03-6.82-4.03-11.43 0-3.92 1.2-7.38 3.62-10.37a11.55 11.55 0 019.44-4.48c4.44 0 7.83 1.65 10.17 4.93 2.05 2.86 3.08 6.61 3.08 11.27h-20.1zm14.2-4.42a9.34 9.34 0 00-2.36-4.64 6.08 6.08 0 00-4.54-1.76c-1.92 0-3.5.57-4.74 1.73a8.37 8.37 0 00-2.43 4.67h14.08z" fill-rule="nonzero"/></g><g><path d="M168.3 166.04l-2.24-2.24c-3.2 3.52-8 5.82-14.08 5.82-10.88 0-18.56-8.13-18.56-19.65 0-11.52 7.68-19.52 18.56-19.52 6.4 0 11.52 2.94 13.76 5.83l2.24-2.57c-3.2-3.2-8.32-6.4-16-6.4-12.48 0-22.28 9.35-22.28 22.79s9.48 22.78 22.28 22.78c8 0 13.12-3.32 16.32-6.84zM202.86 157.4c0-8.96-6.72-15.5-15.24-15.5-8.44 0-15.16 6.54-15.16 15.5s6.72 15.36 15.16 15.36c8.52 0 15.24-6.4 15.24-15.36zm-3.52-.13c0 6.85-4.48 12.48-11.72 12.48-7.16 0-11.64-5.63-11.64-12.48 0-6.91 4.48-12.48 11.64-12.48 7.24 0 11.72 5.57 11.72 12.48zM233.64 172.12v-17.73c0-7.04-1.98-12.48-10.5-12.48-4.28 0-8.12 2.5-9.6 6.01v-5.5h-3.32v29.7h3.32V157.4c0-7.04 3.08-12.61 9.48-12.61s7.23 4.93 7.23 9.73v17.6h3.4zM266.35 172.12v-17.73c0-7.04-1.99-12.48-10.5-12.48-4.29 0-8.13 2.5-9.6 6.01v-5.5h-3.33v29.7h3.33V157.4c0-7.04 3.07-12.61 9.47-12.61s7.23 4.93 7.23 9.73v17.6h3.4zM301.23 155.8c0-8-5.64-13.9-13.44-13.9-7.88 0-14.4 6.22-14.4 15.37 0 9.09 5.56 15.49 14.2 15.49s12.36-4.48 12.36-4.48l-1.6-2.37s-3.72 3.84-10.44 3.84c-6.72 0-10.68-4.67-11-11.71h24.12s.2-1.28.2-2.24zm-3.4-.64h-20.8c.2-4.16 3.2-10.37 10.56-10.37s10.24 6.53 10.24 10.37zM333.03 167.64l-1.92-2.24s-3.2 4.35-9.92 4.35-11.32-5.31-11.32-12.67 5.24-12.16 11.2-12.16c5.88 0 8.44 2.88 9.72 4.35l2.12-2.24c-.64-.83-3.84-5.12-11.72-5.12-7.8 0-14.84 6.2-14.84 15.36 0 9.09 6.52 15.49 14.52 15.49s11.08-3.84 12.16-5.12zM350.83 171.8l-.32-2.88s-1.28.83-3.2.83c-3.97 0-4.36-3.9-4.36-7.17v-17.02h7.56v-3.01H343v-9.48h-3.38v9.48h-4.48v3h4.48v15.05c0 4.8.06 6.97 1.08 8.96 1.1 1.98 2.76 3.2 5.64 3.2 1.92 0 3.39-.32 4.48-.96zM384.75 157.4c0-8.96-6.72-15.5-15.24-15.5-8.44 0-15.16 6.54-15.16 15.5s6.72 15.36 15.16 15.36c8.52 0 15.24-6.4 15.24-15.36zm-3.52-.13c0 6.85-4.48 12.48-11.72 12.48-7.16 0-11.64-5.63-11.64-12.48 0-6.91 4.48-12.48 11.64-12.48 7.24 0 11.72 5.57 11.72 12.48zM405.87 145.62l.32-3.26s-1.28-.45-3.2-.45c-3.2 0-6.47 2.05-7.56 6.08v-5.57h-3.32v29.7h3.32v-16c0-4.55 1.54-11.01 7.24-11.01 1.6 0 2.5.25 3.2.5zM446.95 172.12v-29.7h-3.32v15.94c0 5.76-2.56 11.52-9.16 11.52-6.52 0-7.36-4.8-7.36-9.28v-18.18h-3.32v17.66c0 7.3 2.04 12.68 10.24 12.68 4.16 0 7.68-1.92 9.6-5.44v4.8h3.32zM474.6 163.99c0-5.63-5.56-7.55-9.28-8.83-3.64-1.28-6.84-2.63-6.84-5.7 0-3.07 2.36-4.74 5.7-4.74 3.32 0 5.37 1.16 7.42 3.4l2.04-2.05c-2.3-2.63-4.99-4.16-9.34-4.16s-9.02 2.56-9.02 7.93c0 5.38 5.56 7.3 8.12 8.2 2.56.9 7.88 2.24 7.88 6.08s-3.27 5.63-6.98 5.63c-3.71 0-6.66-1.86-8.58-4.67l-2.36 1.92c1.85 3.07 5.3 5.76 10.81 5.76 5.5 0 10.43-3.2 10.43-8.77zM507.12 155.8c0-8-5.64-13.9-13.44-13.9-7.88 0-14.4 6.22-14.4 15.37 0 9.09 5.56 15.49 14.2 15.49s12.36-4.48 12.36-4.48l-1.6-2.37s-3.72 3.84-10.44 3.84c-6.72 0-10.68-4.67-11-11.71h24.12s.2-1.28.2-2.24zm-3.4-.64h-20.8c.2-4.16 3.2-10.37 10.56-10.37s10.24 6.53 10.24 10.37zM512.24 157.27c0 8.77 5.76 15.49 14.72 15.49 4.48 0 8.5-1.92 11-6.15v5.5h3.4v-44.16h-3.4V148c-2.88-4.35-6.84-6.08-11.13-6.08-8.83 0-14.6 6.53-14.6 15.36zm3.52 0c0-6.91 4.03-12.48 11.2-12.48 7.23 0 11.2 5.57 11.2 12.48 0 6.85-3.97 12.48-11.2 12.48-7.17 0-11.2-5.63-11.2-12.48zM576.24 171.8l-.32-2.88s-1.28.83-3.2.83c-3.97 0-4.36-3.9-4.36-7.17v-17.02h7.56v-3.01h-7.5v-9.48h-3.38v9.48h-4.48v3h4.48v15.05c0 4.8.06 6.97 1.08 8.96 1.1 1.98 2.76 3.2 5.64 3.2 1.92 0 3.39-.32 4.48-.96zM610.16 157.4c0-8.96-6.72-15.5-15.24-15.5-8.44 0-15.16 6.54-15.16 15.5s6.72 15.36 15.16 15.36c8.52 0 15.24-6.4 15.24-15.36zm-3.52-.13c0 6.85-4.48 12.48-11.72 12.48-7.16 0-11.64-5.63-11.64-12.48 0-6.91 4.48-12.48 11.64-12.48 7.24 0 11.72 5.57 11.72 12.48zM635.05 131.86a2.73 2.73 0 00-2.75-2.75 2.73 2.73 0 00-2.75 2.75 2.73 2.73 0 002.75 2.75 2.73 2.73 0 002.75-2.75zm-1.09 40.26v-29.7h-3.32v29.7h3.32zM667.3 172.12v-17.73c0-7.04-1.97-12.48-10.49-12.48-4.28 0-8.12 2.5-9.6 6.01v-5.5h-3.33v29.7h3.33V157.4c0-7.04 3.08-12.61 9.48-12.61s7.23 4.93 7.23 9.73v17.6h3.39zM688.75 171.8l-.32-2.88s-1.28.83-3.2.83c-3.97 0-4.35-3.9-4.35-7.17v-17.02h7.55v-3.01h-7.49v-9.48h-3.4v9.48h-4.47v3h4.48v15.05c0 4.8.06 6.97 1.09 8.96 1.09 1.98 2.75 3.2 5.63 3.2 1.92 0 3.4-.32 4.48-.96zM720.11 155.8c0-8-5.63-13.9-13.44-13.9-7.87 0-14.4 6.22-14.4 15.37 0 9.09 5.57 15.49 14.2 15.49 8.65 0 12.36-4.48 12.36-4.48l-1.6-2.37s-3.71 3.84-10.43 3.84-10.7-4.67-11.01-11.71h24.13s.19-1.28.19-2.24zm-3.4-.64h-20.8c.2-4.16 3.2-10.37 10.57-10.37 7.36 0 10.24 6.53 10.24 10.37zM740.91 145.62l.32-3.26s-1.28-.45-3.2-.45c-3.2 0-6.46 2.05-7.55 6.08v-5.57h-3.33v29.7h3.33v-16c0-4.55 1.53-11.01 7.23-11.01 1.6 0 2.5.25 3.2.5zM759.15 130.83l.32-2.88s-.96-.64-4.16-.64a7.51 7.51 0 00-6.27 3.4c-.96 1.4-1.73 3.64-1.73 7.8v4.04h-4.48v3h4.48v26.57h3.33v-26.56h7.55v-3.01h-7.55v-4.35c0-4.17.51-8 5.31-8 1.09 0 2.11.19 3.2.63zM782.2 172.12v-17.6c0-7.88-3.59-12.61-11.85-12.61-4.48 0-8 1.73-9.92 3l1.28 2.44c.64-.51 4.16-2.56 8.77-2.56 4.67 0 8.32 2.69 8.32 8.13v1.6l-8.13.32c-8 .32-11.84 3.84-11.84 8.96 0 5.12 4.16 8.96 9.92 8.96s8.96-3.52 10.05-4.8v4.16h3.4zm-3.4-15.04v7.36c-1.4 2.24-4.6 5.44-9.4 5.44-4.8 0-7.24-2.88-7.24-6.08s1.99-5.9 8.2-6.21l8.44-.51zM815.6 167.64l-1.92-2.24s-3.2 4.35-9.92 4.35-11.33-5.31-11.33-12.67 5.25-12.16 11.2-12.16c5.9 0 8.45 2.88 9.73 4.35l2.11-2.24c-.64-.83-3.84-5.12-11.7-5.12-7.82 0-14.86 6.2-14.86 15.36 0 9.09 6.53 15.49 14.53 15.49 8 0 11.07-3.84 12.16-5.12zM846.83 155.8c0-8-5.63-13.9-13.44-13.9-7.87 0-14.4 6.22-14.4 15.37 0 9.09 5.57 15.49 14.21 15.49s12.35-4.48 12.35-4.48l-1.6-2.37s-3.7 3.84-10.43 3.84c-6.72 0-10.69-4.67-11-11.71h24.12s.2-1.28.2-2.24zm-3.39-.64h-20.8c.2-4.16 3.2-10.37 10.56-10.37s10.24 6.53 10.24 10.37zM152.3 236.12v-17.6c0-7.87-3.59-12.6-11.84-12.6-4.48 0-8 1.72-9.92 3l1.28 2.43c.64-.51 4.16-2.56 8.76-2.56 4.68 0 8.32 2.69 8.32 8.13v1.6l-8.12.32c-8 .32-11.84 3.84-11.84 8.96 0 5.12 4.16 8.96 9.92 8.96s8.96-3.52 10.04-4.8v4.16h3.4zm-3.4-15.04v7.36c-1.4 2.24-4.6 5.44-9.4 5.44-4.8 0-7.24-2.88-7.24-6.08s1.99-5.89 8.2-6.2l8.44-.52zM203.5 221.4c0-8.77-5.57-15.49-14.72-15.49-4.48 0-8.58 2.05-11.08 6.27v-5.76h-3.32v41.86h3.32v-17.73c2.88 4.48 6.92 6.21 11.2 6.21 8.84 0 14.6-6.53 14.6-15.36zm-3.52 0c0 6.91-4.04 12.35-11.2 12.35-7.24 0-11.2-5.57-11.2-12.35 0-6.98 3.96-12.6 11.2-12.6 7.16 0 11.2 5.75 11.2 12.6zM224.62 209.62l.32-3.26s-1.28-.45-3.2-.45c-3.2 0-6.47 2.05-7.56 6.08v-5.57h-3.32v29.7h3.32v-16c0-4.55 1.54-11 7.24-11 1.6 0 2.5.25 3.2.5zM257.9 221.4c0-8.96-6.72-15.49-15.24-15.49-8.44 0-15.16 6.53-15.16 15.49s6.72 15.36 15.16 15.36c8.52 0 15.24-6.4 15.24-15.36zm-3.52-.13c0 6.85-4.48 12.48-11.72 12.48-7.16 0-11.64-5.63-11.64-12.48 0-6.91 4.48-12.48 11.64-12.48 7.24 0 11.72 5.57 11.72 12.48zM289.7 231.64l-1.91-2.24s-3.2 4.35-9.92 4.35-11.33-5.31-11.33-12.67 5.25-12.16 11.2-12.16c5.89 0 8.45 2.88 9.73 4.35l2.1-2.24c-.63-.83-3.83-5.12-11.7-5.12-7.81 0-14.85 6.2-14.85 15.36 0 9.09 6.53 15.49 14.53 15.49 8 0 11.07-3.84 12.16-5.12zM320.94 219.8c0-8-5.63-13.89-13.44-13.89-7.87 0-14.4 6.2-14.4 15.36 0 9.09 5.57 15.49 14.2 15.49 8.65 0 12.36-4.48 12.36-4.48l-1.6-2.37s-3.71 3.84-10.43 3.84-10.7-4.67-11.01-11.71h24.13s.19-1.28.19-2.24zm-3.4-.64h-20.8c.2-4.16 3.2-10.37 10.57-10.37 7.36 0 10.24 6.53 10.24 10.37zM346.03 228c0-5.64-5.57-7.56-9.28-8.84-3.65-1.28-6.85-2.62-6.85-5.7 0-3.07 2.37-4.73 5.7-4.73 3.32 0 5.37 1.15 7.42 3.39l2.05-2.05c-2.3-2.62-5-4.16-9.35-4.16s-9.02 2.56-9.02 7.94c0 5.37 5.57 7.3 8.13 8.19 2.56.9 7.87 2.24 7.87 6.08s-3.27 5.63-6.98 5.63c-3.71 0-6.65-1.85-8.57-4.67l-2.37 1.92c1.85 3.07 5.31 5.76 10.81 5.76 5.5 0 10.44-3.2 10.44-8.77zM370.35 228c0-5.64-5.57-7.56-9.28-8.84-3.65-1.28-6.85-2.62-6.85-5.7 0-3.07 2.37-4.73 5.7-4.73 3.32 0 5.37 1.15 7.42 3.39l2.05-2.05c-2.3-2.62-5-4.16-9.35-4.16s-9.02 2.56-9.02 7.94c0 5.37 5.57 7.3 8.13 8.19 2.56.9 7.87 2.24 7.87 6.08s-3.27 5.63-6.98 5.63c-3.71 0-6.65-1.85-8.57-4.67L349.1 231c1.85 3.07 5.31 5.76 10.81 5.76 5.5 0 10.44-3.2 10.44-8.77zM405.42 221.4c0-8.96-6.72-15.49-15.23-15.49-8.45 0-15.17 6.53-15.17 15.49s6.72 15.36 15.17 15.36c8.5 0 15.23-6.4 15.23-15.36zm-3.52-.13c0 6.85-4.48 12.48-11.71 12.48-7.17 0-11.65-5.63-11.65-12.48 0-6.91 4.48-12.48 11.65-12.48 7.23 0 11.7 5.57 11.7 12.48zM426.54 209.62l.32-3.26s-1.28-.45-3.2-.45c-3.2 0-6.47 2.05-7.55 6.08v-5.57h-3.33v29.7h3.33v-16c0-4.55 1.53-11 7.23-11 1.6 0 2.5.25 3.2.5zM485.1 206.42h-3.52l-8 24.9-9.28-24.96h-2.56l-9.28 24.96-8-24.9h-3.52l9.92 29.7h2.88l9.28-24.96 9.28 24.96h2.88l9.92-29.7zM495.6 195.86a2.73 2.73 0 00-2.76-2.75 2.73 2.73 0 00-2.75 2.75 2.73 2.73 0 002.75 2.75 2.73 2.73 0 002.76-2.75zm-1.1 40.26v-29.7h-3.32v29.7h3.33zM516.59 235.8l-.32-2.88s-1.28.83-3.2.83c-3.97 0-4.35-3.9-4.35-7.17v-17.02h7.55v-3h-7.49v-9.48h-3.4v9.47h-4.47v3h4.48v15.05c0 4.8.06 6.98 1.09 8.96 1.08 1.98 2.75 3.2 5.63 3.2 1.92 0 3.39-.32 4.48-.96zM546.1 236.12v-17.73c0-7.04-2-12.48-10.5-12.48-4.3 0-8.13 2.5-9.6 6.02v-19.97h-3.33v44.16H526V221.4c0-7.04 3.07-12.6 9.47-12.6s7.23 4.92 7.23 9.72v17.6h3.4zM588.97 236.12v-17.6c0-7.87-3.58-12.6-11.84-12.6-4.48 0-8 1.72-9.92 3l1.28 2.43c.64-.51 4.16-2.56 8.77-2.56 4.67 0 8.32 2.69 8.32 8.13v1.6l-8.13.32c-8 .32-11.84 3.84-11.84 8.96 0 5.12 4.16 8.96 9.92 8.96s8.96-3.52 10.05-4.8v4.16h3.4zm-3.39-15.04v7.36c-1.4 2.24-4.6 5.44-9.4 5.44-4.8 0-7.24-2.88-7.24-6.08s1.98-5.89 8.2-6.2l8.44-.52zM651.18 236.12v-18.05c0-5.95-1.73-12.16-9.92-12.16-3.97 0-7.49 2.37-9.4 6.2-1.29-3.83-4.17-6.2-8.84-6.2-3.97 0-7.74 2.75-8.96 6.02v-5.5h-3.33v29.69h3.33v-15.49c0-6.27 3.07-11.84 8.83-11.84 5.12 0 6.4 4.29 6.4 9.28v18.05h3.33v-15.49c0-6.27 3.07-11.84 8.83-11.84s6.4 5.57 6.4 9.28v18.05h3.33zM688.62 221.4c0-8.96-6.72-15.49-15.23-15.49-8.45 0-15.17 6.53-15.17 15.49s6.72 15.36 15.17 15.36c8.51 0 15.23-6.4 15.23-15.36zm-3.52-.13c0 6.85-4.48 12.48-11.71 12.48-7.17 0-11.65-5.63-11.65-12.48 0-6.91 4.48-12.48 11.65-12.48 7.23 0 11.71 5.57 11.71 12.48zM708.14 235.8l-.32-2.88s-1.28.83-3.2.83c-3.97 0-4.35-3.9-4.35-7.17v-17.02h7.55v-3h-7.49v-9.48h-3.39v9.47h-4.48v3h4.48v15.05c0 4.8.07 6.98 1.09 8.96 1.09 1.98 2.75 3.2 5.63 3.2 1.92 0 3.4-.32 4.48-.96zM737.65 236.12v-17.73c0-7.04-1.99-12.48-10.5-12.48-4.29 0-8.13 2.5-9.6 6.02v-19.97h-3.33v44.16h3.33V221.4c0-7.04 3.07-12.6 9.47-12.6s7.23 4.92 7.23 9.72v17.6h3.4zM772.85 219.8c0-8-5.64-13.89-13.44-13.89-7.88 0-14.4 6.2-14.4 15.36 0 9.09 5.56 15.49 14.2 15.49s12.36-4.48 12.36-4.48l-1.6-2.37s-3.72 3.84-10.44 3.84c-6.72 0-10.68-4.67-11-11.71h24.12s.2-1.28.2-2.24zm-3.4-.64h-20.8c.2-4.16 3.2-10.37 10.56-10.37s10.24 6.53 10.24 10.37zM793.64 209.62l.32-3.26s-1.28-.45-3.2-.45c-3.2 0-6.46 2.05-7.55 6.08v-5.57h-3.33v29.7h3.33v-16c0-4.55 1.54-11 7.23-11 1.6 0 2.5.25 3.2.5zM828.52 221.27c0-8.83-5.76-15.36-14.59-15.36-4.29 0-8.32 1.73-11.2 6.2v-20.15h-3.33v44.16h3.33v-5.63c2.5 4.35 6.6 6.27 11.07 6.27 8.96 0 14.72-6.72 14.72-15.49zm-3.52 0c0 6.85-4.03 12.48-11.2 12.48-7.23 0-11.2-5.63-11.2-12.48 0-6.91 3.97-12.48 11.2-12.48 7.17 0 11.2 5.57 11.2 12.48zM864.05 221.4c0-8.96-6.72-15.49-15.24-15.49-8.45 0-15.17 6.53-15.17 15.49s6.72 15.36 15.17 15.36c8.52 0 15.24-6.4 15.24-15.36zm-3.52-.13c0 6.85-4.48 12.48-11.72 12.48-7.17 0-11.65-5.63-11.65-12.48 0-6.91 4.48-12.48 11.65-12.48 7.24 0 11.72 5.57 11.72 12.48zM891.89 236.12v-17.6c0-7.87-3.59-12.6-11.84-12.6-4.48 0-8 1.72-9.92 3l1.28 2.43c.64-.51 4.16-2.56 8.76-2.56 4.68 0 8.32 2.69 8.32 8.13v1.6l-8.12.32c-8 .32-11.84 3.84-11.84 8.96 0 5.12 4.16 8.96 9.92 8.96s8.96-3.52 10.04-4.8v4.16h3.4zm-3.4-15.04v7.36c-1.4 2.24-4.6 5.44-9.4 5.44-4.8 0-7.24-2.88-7.24-6.08s1.99-5.89 8.2-6.2l8.44-.52zM914.6 209.62l.33-3.26s-1.28-.45-3.2-.45c-3.2 0-6.47 2.05-7.56 6.08v-5.57h-3.32v29.7h3.32v-16c0-4.55 1.54-11 7.24-11 1.6 0 2.5.25 3.2.5zM917.49 221.27c0 8.77 5.76 15.49 14.72 15.49 4.48 0 8.5-1.92 11-6.14v5.5h3.4v-44.16h-3.4v20.03c-2.88-4.35-6.84-6.08-11.13-6.08-8.83 0-14.6 6.53-14.6 15.36zm3.52 0c0-6.91 4.03-12.48 11.2-12.48 7.23 0 11.2 5.57 11.2 12.48 0 6.85-3.97 12.48-11.2 12.48-7.17 0-11.2-5.63-11.2-12.48zM963.89 233.75c0-1.79-1.28-3.07-3.08-3.07-1.72 0-3 1.28-3 3.07 0 1.73 1.28 3.01 3 3.01 1.8 0 3.08-1.28 3.08-3zM167.02 300.12l-18.88-44.29h-1.92l-18.88 44.3h3.64l5.5-13.26h21.06l5.44 13.25h4.04zm-10.82-16.45h-18.43l9.21-22.59 9.22 22.6zM225.38 300.12v-18.05c0-5.95-1.72-12.16-9.92-12.16-3.96 0-7.48 2.37-9.4 6.21-1.28-3.84-4.16-6.2-8.84-6.2-3.96 0-7.74 2.75-8.96 6.01v-5.5h-3.32v29.7h3.32v-15.5c0-6.27 3.08-11.84 8.84-11.84 5.12 0 6.4 4.3 6.4 9.28v18.05h3.32v-15.49c0-6.27 3.08-11.84 8.84-11.84s6.4 5.57 6.4 9.28v18.05h3.32zM262.83 285.4c0-8.96-6.72-15.49-15.24-15.49-8.45 0-15.17 6.53-15.17 15.5 0 8.95 6.72 15.35 15.17 15.35 8.52 0 15.24-6.4 15.24-15.36zm-3.52-.13c0 6.85-4.48 12.49-11.72 12.49-7.17 0-11.65-5.64-11.65-12.49 0-6.9 4.48-12.48 11.65-12.48 7.24 0 11.72 5.57 11.72 12.48zM282.35 299.8l-.32-2.88s-1.28.84-3.2.84c-3.97 0-4.36-3.9-4.36-7.17v-17.03h7.56v-3h-7.5v-9.48h-3.38v9.47h-4.48v3.01h4.48v15.04c0 4.8.06 6.98 1.08 8.96 1.1 1.99 2.76 3.2 5.64 3.2 1.92 0 3.39-.32 4.48-.96zM311.85 300.12V282.4c0-7.04-1.98-12.48-10.5-12.48-4.28 0-8.12 2.5-9.6 6.02v-19.97h-3.32v44.16h3.32V285.4c0-7.04 3.08-12.6 9.48-12.6s7.23 4.92 7.23 9.72v17.6h3.39zM347.05 283.8c0-8-5.63-13.89-13.44-13.89-7.87 0-14.4 6.21-14.4 15.36 0 9.1 5.57 15.5 14.2 15.5 8.65 0 12.36-4.49 12.36-4.49l-1.6-2.37s-3.71 3.85-10.43 3.85-10.69-4.68-11.01-11.72h24.13s.19-1.28.19-2.24zm-3.4-.64h-20.8c.2-4.16 3.2-10.37 10.57-10.37 7.36 0 10.24 6.53 10.24 10.37zM367.85 273.63l.32-3.27s-1.28-.45-3.2-.45c-3.2 0-6.46 2.05-7.55 6.08v-5.56h-3.33v29.7h3.33v-16c0-4.55 1.53-11.02 7.23-11.02 1.6 0 2.5.26 3.2.52zM402.73 285.27c0-8.83-5.76-15.36-14.6-15.36-4.28 0-8.31 1.73-11.2 6.21v-20.16h-3.32v44.16h3.33v-5.63c2.5 4.35 6.59 6.27 11.07 6.27 8.96 0 14.72-6.72 14.72-15.49zm-3.52 0c0 6.85-4.03 12.49-11.2 12.49-7.23 0-11.2-5.64-11.2-12.49 0-6.9 3.97-12.48 11.2-12.48 7.17 0 11.2 5.57 11.2 12.48zM438.25 285.4c0-8.96-6.72-15.49-15.23-15.49-8.45 0-15.17 6.53-15.17 15.5 0 8.95 6.72 15.35 15.17 15.35 8.51 0 15.23-6.4 15.23-15.36zm-3.52-.13c0 6.85-4.48 12.49-11.71 12.49-7.17 0-11.65-5.64-11.65-12.49 0-6.9 4.48-12.48 11.65-12.48 7.23 0 11.71 5.57 11.71 12.48zM466.1 300.12v-17.6c0-7.87-3.6-12.6-11.85-12.6-4.48 0-8 1.72-9.92 3l1.28 2.43c.64-.5 4.16-2.56 8.77-2.56 4.67 0 8.32 2.7 8.32 8.13v1.6l-8.13.32c-8 .32-11.84 3.84-11.84 8.96 0 5.12 4.16 8.96 9.92 8.96s8.96-3.52 10.05-4.8v4.16h3.4zm-3.4-15.04v7.36c-1.4 2.24-4.6 5.44-9.4 5.44-4.8 0-7.24-2.88-7.24-6.08s1.98-5.89 8.2-6.2l8.44-.52zM488.81 273.63l.32-3.27s-1.28-.45-3.2-.45c-3.2 0-6.46 2.05-7.55 6.08v-5.56h-3.33v29.7h3.33v-16c0-4.55 1.54-11.02 7.23-11.02 1.6 0 2.5.26 3.2.52zM491.7 285.27c0 8.77 5.75 15.5 14.71 15.5 4.48 0 8.51-1.93 11.01-6.15v5.5h3.4v-44.16h-3.4V276c-2.88-4.35-6.85-6.08-11.14-6.08-8.83 0-14.59 6.53-14.59 15.36zm3.51 0c0-6.9 4.03-12.48 11.2-12.48 7.23 0 11.2 5.57 11.2 12.48 0 6.85-3.97 12.49-11.2 12.49-7.17 0-11.2-5.64-11.2-12.49zM583.98 300.12v-18.05c0-5.95-1.73-12.16-9.92-12.16-3.97 0-7.49 2.37-9.4 6.21-1.29-3.84-4.17-6.2-8.84-6.2-3.97 0-7.74 2.75-8.96 6.01v-5.5h-3.33v29.7h3.33v-15.5c0-6.27 3.07-11.84 8.83-11.84 5.12 0 6.4 4.3 6.4 9.28v18.05h3.33v-15.49c0-6.27 3.07-11.84 8.83-11.84s6.4 5.57 6.4 9.28v18.05h3.33zM613.74 300.12v-17.6c0-7.87-3.58-12.6-11.84-12.6-4.48 0-8 1.72-9.92 3l1.28 2.43c.64-.5 4.16-2.56 8.77-2.56 4.67 0 8.32 2.7 8.32 8.13v1.6l-8.13.32c-8 .32-11.84 3.84-11.84 8.96 0 5.12 4.16 8.96 9.92 8.96s8.96-3.52 10.05-4.8v4.16h3.4zm-3.4-15.04v7.36c-1.4 2.24-4.6 5.44-9.4 5.44-4.8 0-7.23-2.88-7.23-6.08s1.98-5.89 8.2-6.2l8.44-.52zM644.97 270.43h-3.52l-10.24 25.85-10.24-25.85h-3.52l11.97 29.25-1.73 4.92c-1.4 4.04-2.62 4.68-4.41 4.68-1.8 0-2.95-.64-2.95-.64l-.64 3.2s1.54.76 3.59.76c2.04 0 4.6-.64 6.65-5.56l15.04-36.61zM686.32 300.12V282.4c0-7.04-1.99-12.48-10.5-12.48-4.29 0-8.13 2.5-9.6 6.02v-19.97h-3.33v44.16h3.33V285.4c0-7.04 3.07-12.6 9.47-12.6s7.24 4.92 7.24 9.72v17.6h3.39zM716.4 300.12v-17.6c0-7.87-3.59-12.6-11.84-12.6-4.48 0-8 1.72-9.92 3l1.28 2.43c.64-.5 4.16-2.56 8.77-2.56 4.67 0 8.32 2.7 8.32 8.13v1.6l-8.13.32c-8 .32-11.84 3.84-11.84 8.96 0 5.12 4.16 8.96 9.92 8.96s8.96-3.52 10.05-4.8v4.16h3.39zm-3.4-15.04v7.36c-1.4 2.24-4.6 5.44-9.4 5.44-4.8 0-7.23-2.88-7.23-6.08s1.98-5.89 8.19-6.2l8.45-.52zM747.44 270.43h-3.52l-10.24 24.9-10.24-24.9h-3.52l12.48 29.7h2.56l12.48-29.7zM777.97 283.8c0-8-5.64-13.89-13.44-13.89-7.88 0-14.4 6.21-14.4 15.36 0 9.1 5.56 15.5 14.2 15.5s12.36-4.49 12.36-4.49l-1.6-2.37s-3.72 3.85-10.44 3.85c-6.72 0-10.68-4.68-11-11.72h24.12s.2-1.28.2-2.24zm-3.4-.64h-20.8c.2-4.16 3.2-10.37 10.56-10.37s10.24 6.53 10.24 10.37zM838.25 300.12v-18.05c0-5.95-1.73-12.16-9.92-12.16-3.97 0-7.49 2.37-9.4 6.21-1.29-3.84-4.17-6.2-8.84-6.2-3.97 0-7.74 2.75-8.96 6.01v-5.5h-3.33v29.7h3.33v-15.5c0-6.27 3.07-11.84 8.83-11.84 5.12 0 6.4 4.3 6.4 9.28v18.05h3.33v-15.49c0-6.27 3.07-11.84 8.83-11.84s6.4 5.57 6.4 9.28v18.05h3.33zM875.7 285.4c0-8.96-6.72-15.49-15.24-15.49-8.44 0-15.17 6.53-15.17 15.5 0 8.95 6.73 15.35 15.17 15.35 8.52 0 15.24-6.4 15.24-15.36zm-3.52-.13c0 6.85-4.48 12.49-11.72 12.49-7.16 0-11.64-5.64-11.64-12.49 0-6.9 4.48-12.48 11.64-12.48 7.24 0 11.72 5.57 11.72 12.48zM896.82 273.63l.32-3.27s-1.28-.45-3.2-.45c-3.2 0-6.47 2.05-7.56 6.08v-5.56h-3.32v29.7h3.32v-16c0-4.55 1.54-11.02 7.24-11.02 1.6 0 2.5.26 3.2.52zM927.54 283.8c0-8-5.64-13.89-13.44-13.89-7.88 0-14.4 6.21-14.4 15.36 0 9.1 5.56 15.5 14.2 15.5s12.36-4.49 12.36-4.49l-1.6-2.37s-3.72 3.85-10.44 3.85c-6.72 0-10.68-4.68-11-11.72h24.12s.2-1.28.2-2.24zm-3.4-.64h-20.8c.2-4.16 3.2-10.37 10.56-10.37s10.24 6.53 10.24 10.37zM143.98 363.8l-.32-2.87s-1.28.83-3.2.83c-3.97 0-4.36-3.9-4.36-7.17v-17.02h7.56v-3.01h-7.5v-9.48h-3.38v9.48h-4.48v3h4.48v15.05c0 4.8.06 6.97 1.08 8.96 1.1 1.98 2.76 3.2 5.64 3.2 1.92 0 3.39-.32 4.48-.96zM173.48 364.13V346.4c0-7.04-1.98-12.48-10.5-12.48-4.28 0-8.12 2.5-9.6 6.01v-19.97h-3.32v44.17h3.32V349.4c0-7.04 3.08-12.61 9.48-12.61s7.23 4.93 7.23 9.73v17.6h3.39zM203.56 364.13v-17.6c0-7.88-3.58-12.61-11.84-12.61-4.48 0-8 1.72-9.92 3l1.28 2.44c.64-.51 4.16-2.56 8.77-2.56 4.67 0 8.32 2.69 8.32 8.13v1.6l-8.13.32c-8 .32-11.84 3.84-11.84 8.96 0 5.12 4.16 8.96 9.92 8.96s8.96-3.52 10.05-4.8v4.16h3.4zm-3.4-15.04v7.36c-1.4 2.24-4.6 5.44-9.4 5.44-4.8 0-7.23-2.88-7.23-6.08s1.98-5.9 8.19-6.21l8.45-.51zM235.94 364.13V346.4c0-7.04-1.98-12.48-10.5-12.48-4.28 0-8.12 2.5-9.6 6.01v-5.5h-3.32v29.7h3.33V349.4c0-7.04 3.07-12.61 9.47-12.61s7.23 4.93 7.23 9.73v17.6h3.4zM286.19 349.4c0-8.95-6.72-15.48-15.24-15.48-8.44 0-15.16 6.53-15.16 15.49s6.72 15.36 15.16 15.36c8.52 0 15.24-6.4 15.24-15.36zm-3.52-.12c0 6.85-4.48 12.48-11.72 12.48-7.16 0-11.64-5.63-11.64-12.48 0-6.91 4.48-12.48 11.64-12.48 7.24 0 11.72 5.57 11.72 12.48zM316.97 364.13V346.4c0-7.04-1.98-12.48-10.5-12.48-4.28 0-8.12 2.5-9.6 6.01v-5.5h-3.32v29.7h3.32V349.4c0-7.04 3.08-12.61 9.48-12.61s7.23 4.93 7.23 9.73v17.6h3.39zM351.85 347.8c0-8-5.63-13.88-13.44-13.88-7.87 0-14.4 6.2-14.4 15.36 0 9.09 5.57 15.49 14.2 15.49 8.65 0 12.36-4.48 12.36-4.48l-1.6-2.37s-3.71 3.84-10.43 3.84-10.69-4.67-11.01-11.71h24.13s.19-1.28.19-2.24zm-3.4-.63h-20.8c.2-4.16 3.2-10.37 10.57-10.37 7.36 0 10.24 6.53 10.24 10.37zM389.74 356c0-5.63-5.57-7.55-9.28-8.83-3.65-1.28-6.85-2.63-6.85-5.7 0-3.07 2.37-4.74 5.7-4.74 3.32 0 5.37 1.16 7.42 3.4l2.05-2.05c-2.3-2.63-5-4.16-9.35-4.16s-9.02 2.56-9.02 7.93c0 5.38 5.57 7.3 8.13 8.2 2.56.9 7.87 2.24 7.87 6.08s-3.26 5.63-6.98 5.63c-3.7 0-6.65-1.86-8.57-4.67l-2.37 1.92c1.86 3.07 5.31 5.76 10.82 5.76 5.5 0 10.43-3.2 10.43-8.77zM424.81 349.4c0-8.95-6.72-15.48-15.23-15.48-8.45 0-15.17 6.53-15.17 15.49s6.72 15.36 15.17 15.36c8.51 0 15.23-6.4 15.23-15.36zm-3.52-.12c0 6.85-4.48 12.48-11.71 12.48-7.17 0-11.65-5.63-11.65-12.48 0-6.91 4.48-12.48 11.65-12.48 7.23 0 11.71 5.57 11.71 12.48zM456.62 359.65l-1.92-2.24s-3.2 4.35-9.92 4.35-11.33-5.31-11.33-12.67 5.25-12.16 11.2-12.16c5.89 0 8.45 2.88 9.73 4.35l2.11-2.24c-.64-.83-3.84-5.12-11.71-5.12-7.8 0-14.85 6.2-14.85 15.36 0 9.09 6.53 15.49 14.53 15.49 8 0 11.07-3.84 12.16-5.12zM486.25 364.13l-14.08-18.37 12.16-11.33h-4.16L465.9 347.8v-27.85h-3.33v44.17h3.33v-12.61l4.03-3.71 12.16 16.32h4.16zM516.33 347.8c0-8-5.63-13.88-13.44-13.88-7.87 0-14.4 6.2-14.4 15.36 0 9.09 5.57 15.49 14.21 15.49s12.35-4.48 12.35-4.48l-1.6-2.37s-3.71 3.84-10.43 3.84-10.69-4.67-11-11.71h24.12s.2-1.28.2-2.24zm-3.39-.63h-20.8c.2-4.16 3.2-10.37 10.56-10.37s10.24 6.53 10.24 10.37zM535.53 363.8l-.32-2.87s-1.28.83-3.2.83c-3.97 0-4.35-3.9-4.35-7.17v-17.02h7.55v-3.01h-7.49v-9.48h-3.39v9.48h-4.48v3h4.48v15.05c0 4.8.07 6.97 1.09 8.96 1.09 1.98 2.75 3.2 5.63 3.2 1.92 0 3.4-.32 4.48-.96zM559.34 356c0-5.63-5.57-7.55-9.28-8.83-3.65-1.28-6.85-2.63-6.85-5.7 0-3.07 2.37-4.74 5.7-4.74s5.37 1.16 7.42 3.4l2.05-2.05c-2.3-2.63-5-4.16-9.34-4.16-4.36 0-9.03 2.56-9.03 7.93 0 5.38 5.57 7.3 8.13 8.2 2.56.9 7.87 2.24 7.87 6.08s-3.26 5.63-6.97 5.63c-3.72 0-6.66-1.86-8.58-4.67l-2.37 1.92c1.86 3.07 5.31 5.76 10.82 5.76 5.5 0 10.43-3.2 10.43-8.77zM599.53 364.13v-17.6c0-7.88-3.58-12.61-11.84-12.61-4.48 0-8 1.72-9.92 3l1.28 2.44c.64-.51 4.16-2.56 8.77-2.56 4.67 0 8.32 2.69 8.32 8.13v1.6l-8.13.32c-8 .32-11.84 3.84-11.84 8.96 0 5.12 4.16 8.96 9.92 8.96s8.96-3.52 10.05-4.8v4.16h3.4zm-3.39-15.04v7.36c-1.4 2.24-4.6 5.44-9.4 5.44-4.8 0-7.24-2.88-7.24-6.08s1.98-5.9 8.2-6.21l8.44-.51zM631.92 364.13V346.4c0-7.04-1.99-12.48-10.5-12.48-4.29 0-8.13 2.5-9.6 6.01v-5.5h-3.33v29.7h3.33V349.4c0-7.04 3.07-12.61 9.47-12.61s7.23 4.93 7.23 9.73v17.6h3.4zM638.96 349.28c0 8.77 5.76 15.49 14.72 15.49 4.48 0 8.5-1.92 11-6.15v5.5h3.4v-44.16h-3.4V340c-2.87-4.36-6.84-6.08-11.13-6.08-8.83 0-14.6 6.53-14.6 15.36zm3.52 0c0-6.91 4.03-12.48 11.2-12.48 7.23 0 11.2 5.57 11.2 12.48 0 6.85-3.97 12.48-11.2 12.48-7.17 0-11.2-5.63-11.2-12.48zM702.96 363.8l-.32-2.87s-1.28.83-3.2.83c-3.97 0-4.35-3.9-4.35-7.17v-17.02h7.55v-3.01h-7.5v-9.48h-3.38v9.48h-4.48v3h4.48v15.05c0 4.8.06 6.97 1.09 8.96 1.08 1.98 2.75 3.2 5.63 3.2 1.92 0 3.39-.32 4.48-.96zM732.46 364.13V346.4c0-7.04-1.98-12.48-10.5-12.48-4.28 0-8.12 2.5-9.6 6.01v-19.97h-3.32v44.17h3.33V349.4c0-7.04 3.07-12.61 9.47-12.61s7.23 4.93 7.23 9.73v17.6h3.4zM767.66 347.8c0-8-5.63-13.88-13.44-13.88-7.87 0-14.4 6.2-14.4 15.36 0 9.09 5.57 15.49 14.21 15.49s12.35-4.48 12.35-4.48l-1.6-2.37s-3.71 3.84-10.43 3.84-10.69-4.67-11-11.71h24.12s.2-1.28.2-2.24zm-3.39-.63h-20.8c.2-4.16 3.2-10.37 10.56-10.37s10.24 6.53 10.24 10.37zM161.26 413.4c0-8.76-5.57-15.48-14.72-15.48-4.48 0-8.58 2.05-11.08 6.27v-5.76h-3.32v41.86h3.32v-17.73c2.88 4.48 6.92 6.21 11.2 6.21 8.84 0 14.6-6.53 14.6-15.36zm-3.52 0c0 6.92-4.04 12.36-11.2 12.36-7.24 0-11.2-5.57-11.2-12.35 0-6.98 3.96-12.61 11.2-12.61 7.16 0 11.2 5.76 11.2 12.6zM182.38 401.63l.32-3.26s-1.28-.45-3.2-.45c-3.2 0-6.47 2.05-7.56 6.08v-5.57h-3.32v29.7h3.32v-16c0-4.55 1.54-11.01 7.24-11.01 1.6 0 2.5.26 3.2.51zM215.66 413.4c0-8.95-6.72-15.48-15.24-15.48-8.44 0-15.16 6.53-15.16 15.49s6.72 15.36 15.16 15.36c8.52 0 15.24-6.4 15.24-15.36zm-3.52-.12c0 6.85-4.48 12.48-11.72 12.48-7.16 0-11.64-5.63-11.64-12.48 0-6.91 4.48-12.48 11.64-12.48 7.24 0 11.72 5.57 11.72 12.48zM247.46 423.65l-1.92-2.24s-3.2 4.35-9.92 4.35-11.32-5.31-11.32-12.67 5.24-12.16 11.2-12.16c5.88 0 8.44 2.88 9.72 4.35l2.12-2.24c-.64-.83-3.84-5.12-11.72-5.12-7.8 0-14.84 6.2-14.84 15.36 0 9.09 6.52 15.49 14.52 15.49s11.08-3.84 12.16-5.12zM278.7 411.8c0-8-5.63-13.88-13.44-13.88-7.87 0-14.4 6.2-14.4 15.36 0 9.09 5.57 15.49 14.2 15.49 8.65 0 12.36-4.48 12.36-4.48l-1.6-2.37s-3.71 3.84-10.43 3.84-10.7-4.67-11.01-11.71h24.13s.19-1.28.19-2.24zm-3.4-.63h-20.8c.2-4.16 3.2-10.37 10.57-10.37 7.36 0 10.24 6.53 10.24 10.37zM303.79 420c0-5.63-5.57-7.55-9.28-8.83-3.65-1.28-6.85-2.63-6.85-5.7 0-3.07 2.37-4.73 5.7-4.73 3.32 0 5.37 1.15 7.42 3.39l2.05-2.05c-2.3-2.62-5-4.16-9.35-4.16s-9.02 2.56-9.02 7.94c0 5.37 5.57 7.3 8.13 8.19 2.56.9 7.87 2.24 7.87 6.08s-3.27 5.63-6.98 5.63c-3.71 0-6.65-1.85-8.57-4.67l-2.37 1.92c1.85 3.07 5.3 5.76 10.81 5.76 5.5 0 10.44-3.2 10.44-8.77zM328.1 420c0-5.63-5.56-7.55-9.27-8.83-3.65-1.28-6.85-2.63-6.85-5.7 0-3.07 2.37-4.73 5.7-4.73 3.32 0 5.37 1.15 7.42 3.39l2.05-2.05c-2.3-2.62-5-4.16-9.35-4.16s-9.02 2.56-9.02 7.94c0 5.37 5.57 7.3 8.13 8.19 2.56.9 7.87 2.24 7.87 6.08s-3.27 5.63-6.98 5.63c-3.71 0-6.65-1.85-8.57-4.67l-2.37 1.92c1.85 3.07 5.31 5.76 10.81 5.76 5.5 0 10.44-3.2 10.44-8.77zM363.18 413.4c0-8.95-6.72-15.48-15.23-15.48-8.45 0-15.17 6.53-15.17 15.49s6.72 15.36 15.17 15.36c8.5 0 15.23-6.4 15.23-15.36zm-3.52-.12c0 6.85-4.48 12.48-11.71 12.48-7.17 0-11.65-5.63-11.65-12.48 0-6.91 4.48-12.48 11.65-12.48 7.23 0 11.7 5.57 11.7 12.48zM384.3 401.63l.32-3.26s-1.28-.45-3.2-.45c-3.2 0-6.47 2.05-7.55 6.08v-5.57h-3.33v29.7h3.33v-16c0-4.55 1.53-11.01 7.23-11.01 1.6 0 2.5.26 3.2.51zM406.83 420c0-5.63-5.57-7.55-9.28-8.83-3.65-1.28-6.85-2.63-6.85-5.7 0-3.07 2.37-4.73 5.7-4.73 3.32 0 5.37 1.15 7.42 3.39l2.05-2.05c-2.3-2.62-5-4.16-9.35-4.16s-9.02 2.56-9.02 7.94c0 5.37 5.57 7.3 8.13 8.19 2.56.9 7.87 2.24 7.87 6.08s-3.27 5.63-6.98 5.63c-3.71 0-6.65-1.85-8.57-4.67l-2.37 1.92c1.85 3.07 5.31 5.76 10.81 5.76 5.5 0 10.44-3.2 10.44-8.77zM454.7 413.4c0-8.95-6.72-15.48-15.23-15.48-8.45 0-15.17 6.53-15.17 15.49s6.72 15.36 15.17 15.36c8.5 0 15.23-6.4 15.23-15.36zm-3.52-.12c0 6.85-4.48 12.48-11.71 12.48-7.17 0-11.65-5.63-11.65-12.48 0-6.91 4.48-12.48 11.65-12.48 7.23 0 11.7 5.57 11.7 12.48zM485.48 428.13V410.4c0-7.04-1.98-12.48-10.5-12.48-4.28 0-8.12 2.5-9.6 6.02v-5.5h-3.32v29.69h3.33v-14.72c0-7.04 3.07-12.61 9.47-12.61s7.23 4.93 7.23 9.73v17.6h3.4zM520.36 411.8c0-8-5.63-13.88-13.44-13.88-7.87 0-14.4 6.2-14.4 15.36 0 9.09 5.57 15.49 14.21 15.49s12.35-4.48 12.35-4.48l-1.6-2.37s-3.7 3.84-10.43 3.84c-6.72 0-10.69-4.67-11-11.71h24.12s.2-1.28.2-2.24zm-3.39-.63h-20.8c.2-4.16 3.2-10.37 10.56-10.37s10.24 6.53 10.24 10.37zM568.36 413.4c0-8.95-6.72-15.48-15.23-15.48-8.45 0-15.17 6.53-15.17 15.49s6.72 15.36 15.17 15.36c8.51 0 15.23-6.4 15.23-15.36zm-3.52-.12c0 6.85-4.48 12.48-11.7 12.48-7.18 0-11.66-5.63-11.66-12.48 0-6.91 4.48-12.48 11.65-12.48 7.23 0 11.71 5.57 11.71 12.48zM589.48 401.63l.32-3.26s-1.28-.45-3.2-.45c-3.2 0-6.46 2.05-7.55 6.08v-5.57h-3.33v29.7h3.33v-16c0-4.55 1.54-11.01 7.23-11.01 1.6 0 2.5.26 3.2.51zM648.17 428.13v-18.05c0-5.95-1.73-12.16-9.92-12.16-3.97 0-7.49 2.37-9.4 6.2-1.29-3.83-4.17-6.2-8.84-6.2-3.97 0-7.74 2.75-8.96 6.02v-5.5h-3.33v29.69h3.33v-15.49c0-6.27 3.07-11.84 8.83-11.84 5.12 0 6.4 4.29 6.4 9.28v18.05h3.33v-15.49c0-6.27 3.07-11.84 8.83-11.84s6.4 5.57 6.4 9.28v18.05h3.33zM685.61 413.4c0-8.95-6.72-15.48-15.23-15.48-8.45 0-15.17 6.53-15.17 15.49s6.72 15.36 15.17 15.36c8.51 0 15.23-6.4 15.23-15.36zm-3.52-.12c0 6.85-4.48 12.48-11.7 12.48-7.18 0-11.66-5.63-11.66-12.48 0-6.91 4.48-12.48 11.65-12.48 7.23 0 11.71 5.57 11.71 12.48zM706.73 401.63l.32-3.26s-1.28-.45-3.2-.45c-3.2 0-6.46 2.05-7.55 6.08v-5.57h-3.33v29.7h3.33v-16c0-4.55 1.54-11.01 7.23-11.01 1.6 0 2.5.26 3.2.51zM737.45 411.8c0-8-5.63-13.88-13.44-13.88-7.87 0-14.4 6.2-14.4 15.36 0 9.09 5.57 15.49 14.21 15.49s12.35-4.48 12.35-4.48l-1.6-2.37s-3.7 3.84-10.43 3.84c-6.72 0-10.69-4.67-11-11.71h24.12s.2-1.28.2-2.24zm-3.39-.63h-20.8c.2-4.16 3.2-10.37 10.56-10.37s10.24 6.53 10.24 10.37zM781.74 423.65l-1.92-2.24s-3.2 4.35-9.92 4.35-11.33-5.31-11.33-12.67 5.25-12.16 11.2-12.16c5.9 0 8.45 2.88 9.73 4.35l2.11-2.24c-.64-.83-3.84-5.12-11.7-5.12-7.82 0-14.86 6.2-14.86 15.36 0 9.09 6.53 15.49 14.53 15.49 8 0 11.07-3.84 12.16-5.12zM815.53 413.4c0-8.95-6.72-15.48-15.23-15.48-8.45 0-15.17 6.53-15.17 15.49s6.72 15.36 15.17 15.36c8.51 0 15.23-6.4 15.23-15.36zm-3.52-.12c0 6.85-4.48 12.48-11.7 12.48-7.18 0-11.66-5.63-11.66-12.48 0-6.91 4.48-12.48 11.65-12.48 7.23 0 11.71 5.57 11.71 12.48zM836.65 401.63l.32-3.26s-1.28-.45-3.2-.45c-3.2 0-6.46 2.05-7.55 6.08v-5.57h-3.33v29.7h3.33v-16c0-4.55 1.54-11.01 7.23-11.01 1.6 0 2.5.26 3.2.51zM867.38 411.8c0-8-5.64-13.88-13.44-13.88-7.88 0-14.4 6.2-14.4 15.36 0 9.09 5.56 15.49 14.2 15.49s12.36-4.48 12.36-4.48l-1.6-2.37s-3.72 3.84-10.44 3.84c-6.72 0-10.69-4.67-11-11.71h24.12s.2-1.28.2-2.24zm-3.4-.63h-20.8c.2-4.16 3.2-10.37 10.56-10.37s10.24 6.53 10.24 10.37zM892.46 420c0-5.63-5.56-7.55-9.28-8.83-3.64-1.28-6.84-2.63-6.84-5.7 0-3.07 2.36-4.73 5.7-4.73 3.32 0 5.37 1.15 7.42 3.39l2.04-2.05c-2.3-2.62-4.99-4.16-9.34-4.16s-9.02 2.56-9.02 7.94c0 5.37 5.56 7.3 8.12 8.19 2.56.9 7.88 2.24 7.88 6.08s-3.27 5.63-6.98 5.63c-3.71 0-6.66-1.85-8.58-4.67l-2.36 1.92c1.85 3.07 5.3 5.76 10.81 5.76 5.5 0 10.43-3.2 10.43-8.77zM127.34 85.07c2.51 2 4.4 3.35 5.63 4.04a13.39 13.39 0 006.65 1.98c1.88 0 3.4-.64 4.55-1.92a6.82 6.82 0 001.73-4.74c0-2.3-1.58-4.58-4.74-6.85-2.94-2-5.89-4.03-8.83-6.08-3.16-2.77-4.74-5.97-4.74-9.6 0-3.54 1.17-6.4 3.5-8.6 2.32-2.2 5.27-3.3 8.86-3.3 1.79 0 3.52.26 5.18.77 1.24.38 2.86 1.04 4.86 1.98v6.98a29.56 29.56 0 00-4.48-2.43 13.09 13.09 0 00-4.99-1.16 6.9 6.9 0 00-4.64 1.5c-1.17 1.01-1.76 2.47-1.76 4.4 0 1.95 1.58 4.07 4.74 6.33l8.9 6.33c3.2 2.9 4.8 6.08 4.8 9.54 0 3.84-1.21 6.95-3.62 9.31-2.41 2.37-5.54 3.56-9.38 3.56-2.13 0-4.29-.45-6.46-1.35a31.52 31.52 0 01-5.76-3.2v-7.49zM172.26 66.06c4.23 0 7.82 1.55 10.79 4.64a15.4 15.4 0 014.45 11.04 14.1 14.1 0 01-4.74 10.82 16 16 0 01-11.2 4.35c-4.05 0-7.61-1.53-10.69-4.6-3.07-3.08-4.6-6.64-4.6-10.7 0-4.51 1.53-8.24 4.6-11.16 3.08-2.92 6.87-4.38 11.4-4.38zm-.5 25.1c2.72 0 5.07-.95 7.03-2.82a9.12 9.12 0 002.95-6.85c0-2.65-.96-4.93-2.88-6.85a9.35 9.35 0 00-6.85-2.88c-2.77 0-5.15.95-7.14 2.85a9.32 9.32 0 00-2.97 7c0 2.52 1 4.74 3 6.66a9.64 9.64 0 006.85 2.88zM214.95 74.45a12.4 12.4 0 00-3.84-1.86 14.64 14.64 0 00-4.35-.76c-2.98 0-5.26.96-6.81 2.88-1.56 1.92-2.34 4.39-2.34 7.42a8.7 8.7 0 002.56 6.53 9.05 9.05 0 006.6 2.5c1.53 0 2.96-.26 4.28-.77a26.57 26.57 0 004.35-2.24v6.08a13.7 13.7 0 01-4.29 2.04c-1.53.43-3.15.64-4.86.64-4.27 0-7.8-1.52-10.6-4.57a15.77 15.77 0 01-4.18-11.04c0-4.4 1.4-8.03 4.19-10.91 2.8-2.88 6.39-4.32 10.78-4.32 1.45 0 2.9.2 4.35.64.34.08 1.73.57 4.16 1.47v6.27zM219.18 50.96h6.08v28.86l11.52-13.05h7.87l-12.67 14.02 16 15.36h-8.9l-13.82-13.7v13.7h-6.08V50.96zM254.12 82.32c0 2.69.87 4.83 2.6 6.43 1.72 1.6 4.02 2.4 6.87 2.4 2.1 0 4.25-.5 6.47-1.53.38-.17 1.6-.81 3.65-1.92v5.95a59.71 59.71 0 01-5.25 2.3c-1.88.64-3.78.96-5.7.96-4.52 0-8.13-1.5-10.81-4.5-2.7-3.02-4.04-6.82-4.04-11.43 0-3.93 1.21-7.38 3.62-10.37a11.56 11.56 0 019.44-4.48c4.44 0 7.83 1.64 10.18 4.93 2.05 2.86 3.07 6.61 3.07 11.26h-20.1zm14.21-4.41a9.35 9.35 0 00-2.37-4.64 6.08 6.08 0 00-4.54-1.76c-1.92 0-3.5.57-4.74 1.72a8.37 8.37 0 00-2.43 4.67h14.08zM286 59.15v7.62h8.19v5l-8.26.06c0 1.74-.04 4.64-.13 8.67l-.12 6.5c0 1.1.28 2.02.86 2.75.58.72 1.42 1.08 2.53 1.08 1.06 0 2.37-.34 3.9-1.02 1.2-.51 2.39-1.17 3.59-1.98v6.46c-2.3.98-3.74 1.58-4.3 1.8-1.57.55-3.09.82-4.54.82-2.86 0-4.99-1.08-6.4-3.26-1.2-1.84-1.79-4.27-1.79-7.3 0-1.66.04-4.45.13-8.35l.13-6.24h-3.59l9.8-12.6z" fill-rule="nonzero"/></g><path d="M1048.11 951.8a15 15 0 10-15 26 15 15 0 0015-26zM1143.96 913.78a15 15 0 1115.02-25.98 15 15 0 01-15.02 25.98z"/><path d="M1048.4 969.3l171.01 98.73 111.45-63.66-171.6-99.08M1274.68 1035.93l191.8 110.73" fill="none" stroke="#000" stroke-width="10"/><path d="M2016.7 504.08a15 15 0 10-15 26 15 15 0 0015-26z"/><path d="M2017 521.57l213.1 123.03" fill="none" stroke="#000" stroke-width="10"/><path d="M438.49 768.1a15 15 0 1015.18-25.9 15 15 0 00-15.18 25.9z"/><path d="M438.32 750.6L50 522.75V79.08h59" fill="none" stroke="#000" stroke-width="10"/></svg>