<svg viewBox="0 0 1395 960" xmlns="http://www.w3.org/2000/svg" fill-rule="evenodd" clip-rule="evenodd" stroke-linecap="round" stroke-linejoin="round" stroke-miterlimit="1.5"><path d="M1216.38 151.4l23.44-1.4-12.94 19.6-10.5-18.2z"/><path d="M1158.47 196.97l66.8-38.57" fill="none" stroke="#000" stroke-width="7"/><g stroke-width="7"><g stroke="#db811f"><path d="M993.92 293.98l55.46 31.98 83.13-48v-64l-55.43-32-27.73 15.98-55.43 32.04v64z" fill="#f3c366"/><path d="M993.92 229.98l55.42 32 83.16-48.02M1049.35 325.94v-64" fill="none"/></g><path d="M1132.5 277.95l27.7-16v-64l-55.41-32-27.71 16 55.4 32 .02 64z" fill="#c8d3d7" stroke="#89c2d4"/><path d="M1132.49 213.96l27.72-16" fill="none" stroke="#89c2d4"/></g><g stroke-width="7"><g stroke="#ae57c1"><path d="M883.05 421.97l138.56-80v-64l-55.43-32-138.55 80v64l55.42 32z" fill="#c690d2"/><path d="M827.63 325.97l55.42 32 138.55-80M883.05 421.97v-64" fill="none"/></g><path d="M1021.6 341.97l27.71-16v-64l-55.42-32-27.71 16 55.4 32 .02 64z" fill="#c8d3d7" stroke="#89c2d4"/><path d="M1021.59 277.97l27.72-16" fill="none" stroke="#89c2d4"/></g><g stroke-width="7"><g stroke="#054d00"><path d="M716.96 517.86l138.55-80v-63.99l-55.43-32-138.55 80v64l55.43 32z" fill="#5cbf93"/><path d="M661.53 421.86l55.43 32 138.55-79.99M716.96 517.86v-64" fill="none"/></g><path d="M855.5 437.86l27.72-16v-64l-55.43-32-27.7 16 55.4 32 .02 64z" fill="#c8d3d7" stroke="#89c2d4"/><path d="M855.5 373.87l27.72-16.01" fill="none" stroke="#89c2d4"/></g><g stroke-width="7"><g stroke="#ae57c1"><path d="M606.1 517.92l55.47 31.98 27.7-16.04-.01-63.99-55.42-32-27.73 15.98v64.07z" fill="#c690d2"/><path d="M606.11 453.88l55.42 32 27.73-16.01M661.53 549.92v-64" fill="none"/></g><path d="M689.26 533.86l27.71-16v-64l-55.42-32-27.71 16 55.4 32 .02 64z" fill="#c8d3d7" stroke="#89c2d4"/><path d="M689.25 469.86l27.72-16" fill="none" stroke="#89c2d4"/></g><g stroke-width="7"><g stroke="#db811f"><path d="M495.25 582.07l55.45 31.98 83.14-48-.01-63.99-55.43-32-27.72 15.98-55.43 32.03v64z" fill="#f3c366"/><path d="M495.25 518.07l55.42 32 83.16-48.01M550.68 614.04v-64" fill="none"/></g><path d="M633.83 566.05l27.7-16v-64l-55.41-32-27.71 16 55.4 32 .02 64z" fill="#c8d3d7" stroke="#89c2d4"/><path d="M633.82 502.05l27.72-16" fill="none" stroke="#89c2d4"/></g><g stroke-width="7"><g stroke="#054d00"><path d="M439.71 614.05l55.46 31.98 27.7-16.04v-64l-55.43-32-27.73 15.98v64.08z" fill="#3d886c"/><path d="M439.72 550l55.42 32 27.73-16M495.14 646.05v-64" fill="none"/></g><path d="M522.87 629.98l27.7-16v-64l-55.42-32-27.7 16 55.4 32 .02 64z" fill="#c8d3d7" stroke="#89c2d4"/><path d="M522.86 565.99l27.72-16.01" fill="none" stroke="#89c2d4"/></g><g stroke-width="7"><g stroke="#db811f"><path d="M328.95 678.02L384.41 710l83.13-48v-63.99l-55.43-32L384.38 582l-55.43 32.04v64z" fill="#f3c366"/><path d="M328.95 614.02l55.43 32 83.16-48M384.38 710v-64" fill="none"/></g><path d="M467.54 662l27.7-16v-64l-55.42-32-27.7 16 55.4 32 .02 64z" fill="#c8d3d7" stroke="#89c2d4"/><path d="M467.52 598l27.73-16" fill="none" stroke="#89c2d4"/></g><g stroke-width="7"><g stroke="#ae57c1"><path d="M218.09 806.02l138.56-80-.01-64-55.43-32-138.55 80 55.54 31.93-.11 64.07z" fill="#c690d2"/><path d="M162.66 710.02l55.43 32 138.55-80M218.09 806.02v-64" fill="none"/></g><path d="M356.64 726.01l27.7-16v-64l-55.42-32-27.7 16 55.4 32 .02 64z" fill="#c8d3d7" stroke="#89c2d4"/><path d="M356.63 662.02l27.72-16" fill="none" stroke="#89c2d4"/><path d="M218.09 805.88l27.7-16v-64l-55.42-32-27.7 16 .12 64.07 55.3 31.92z" fill="#c8d3d7" stroke="#89c2d4"/><path d="M162.66 710.02l55.43 32 27.7-16.15M218.09 742.02l.12 63.93" fill="none" stroke="#89c2d4"/></g><path d="M50 836.97l138.56-80" fill="none" stroke="#000" stroke-width="7"/><path d="M259.44 804.4L236 803l12.94 19.6 10.5-18.2z"/><path d="M250.55 811.4l96.3 55.6" fill="none" stroke="#000" stroke-width="7"/><path d="M1177.28 274.49l-23.44-1.4 12.94 19.58 10.5-18.18z"/><path d="M1168.4 281.48l96.3 55.6" fill="none" stroke="#000" stroke-width="7"/><path d="M1066.44 338.49l-23.44-1.41 12.94 19.6 10.5-18.2z"/><path d="M1057.55 345.48l96.3 55.6" fill="none" stroke="#000" stroke-width="7"/><path d="M898.44 435.48l-23.44-1.4 12.94 19.59 10.5-18.19z"/><path d="M889.55 442.47l96.3 55.6" fill="none" stroke="#000" stroke-width="7"/><path d="M732.98 531l-23.44-1.4 12.94 19.6 10.5-18.2z"/><path d="M724.1 538c43.5 25.13 169.68 97.97 169.68 97.97" fill="none" stroke="#000" stroke-width="7"/><path d="M677.55 563l-23.43-1.4 12.93 19.6 10.5-18.2z"/><path d="M668.67 570l96.3 55.6" fill="none" stroke="#000" stroke-width="7"/><path d="M566.7 627l-23.43-1.4 12.94 19.6 10.5-18.2z"/><path d="M557.82 634l169.69 97.97" fill="none" stroke="#000" stroke-width="7"/><path d="M511.28 659l-23.43-1.4 12.93 19.59 10.5-18.19z"/><path d="M502.4 666l96.3 55.6" fill="none" stroke="#000" stroke-width="7"/><path d="M400.44 723L377 721.6l12.94 19.59 10.5-18.19z"/><path d="M391.55 730l96.3 55.6" fill="none" stroke="#000" stroke-width="7"/><g fill-rule="nonzero"><path d="M365.43 880.06l-2.71-1.57L337 893.34l2.72 1.57 11.36-6.56 35.52 20.51 3-1.73-35.53-20.51 11.36-6.56zM411.82 872.28c-9.86-5.7-23.89-8.99-33.58-3.39-9.65 5.57-4 13.7 5.87 19.4 9.81 5.66 23.83 8.95 33.53 3.35 9.7-5.6 4-13.7-5.82-19.36zm-3.32 1.8c9.97 5.76 13.3 11.96 6.37 15.96-6.93 4-17.73 2.12-27.71-3.64s-13.25-12-6.32-16 17.68-2.08 27.66 3.68zM513.43 793.97l-2.71-1.57L485 807.25l2.72 1.57 11.36-6.56 35.52 20.51 3-1.73-35.53-20.5 11.36-6.57zM563.65 806l-38.25-22.08-10.8 6.24 2.49 1.44 7.87-4.54 35.75 20.64 2.94-1.7zM617.22 734.47l-2.72-1.57-25.72 14.85 2.72 1.57 11.36-6.56 35.53 20.51 3-1.73-35.53-20.5 11.36-6.57zM681.84 738.18l-2.77-1.6-20.78 12 .27-12.64c0-2.24.95-8.86-5.82-12.76-6.81-3.94-16.35-3.56-23.27.44-6.93 4-5.27 8.8-3.6 11.36l3.6-.48c-1.39-2.08-2.89-6.14 2.66-9.34 5.54-3.2 12.69-3.04 17.68-.16 4.98 2.88 5.15 7.58 5.15 10.46l-.28 15.84 2.77.96 24.4-14.08zM746.84 744.09l-2.71-1.57-25.72 14.85 2.72 1.57 11.36-6.56L768 772.89l3-1.73-35.53-20.51 11.36-6.56zM800 742.46c-6.55-3.78-14.3-2.5-17.46-1.12l-.17-.1c1.66-1.6 3.88-5.44-2.22-8.96-6.1-3.52-14.96-2.56-20.78.8-5.82 3.36-6.15 6.75-5.54 9.92l3.6-.16c-.28-2.72-.11-5.5 4.32-8.06 4.44-2.56 10.92-3.3 15.63-.58 4.71 2.72 4.05 6.18-.66 8.9l-2.5 1.44 2.88 1.66 2.5-1.44c4.99-2.88 11.91-3.68 17.35-.54 5.37 3.1 4.2 7.1-1.61 10.46-5.82 3.36-15.02 2.02-15.02 2.02l-.45 2.3s10.37 1.7 18.02-2.72c7.6-4.38 8.59-10.08 2.1-13.82zM782.43 638.94l-2.71-1.57L754 652.22l2.72 1.56 11.36-6.56 35.52 20.52 3-1.73-35.53-20.51 11.36-6.56zM839.57 636.73l-2.77-1.6-5.87 3.39L804.05 623l-2.72 1.57 7.48 27.36 2.22 1.28 19.73-11.4 8.87 5.13 2.94-1.7-8.87-5.12 5.87-3.4zM828 640.22l-16.4 9.47-6.05-22.43L828 640.22zM911.98 648.26l-2.72-1.57-25.72 14.85 2.72 1.56 11.36-6.56 35.53 20.52 3-1.73-35.54-20.51 11.37-6.56zM963.58 645.73c-8.04-4.64-18.85-3.52-25.22.16-1.94 1.12-3.77 2.5-4.6 3.94l-9.65-8.64 14.97-8.64-2.66-1.54-17.18 9.92 13.85 12.16 3.05-.48c0-1.6 2.1-3.58 4.6-5.02 4.99-2.88 13.14-3.94 19.79-.1 6.65 3.84 4.88 8.58-.11 11.46a22.95 22.95 0 01-15.13 2.46l-.56 2.24c3.33.64 11.2 1.02 18.13-2.98 6.92-4 8.75-10.3.72-14.94zM1004.43 511.15l-2.71-1.57L976 524.43l2.71 1.57 11.37-6.56 35.52 20.51 3-1.73-35.53-20.5 11.36-6.57zM1056.86 507.82c-7.2-4.16-17.51-3.52-23.61 0-6.1 3.52-5.76 7.36-3.71 10.34-7.65-4.42-17.8-12.13-7.87-17.86 3.88-2.24 8.03-2.72 12.02-2.78l-.39-2.14s-7.2-.52-14.02 3.42c-11.14 6.43-3.32 14.85 5.99 20.22 8.81 5.1 21.28 9.6 32.26 3.27 7.48-4.32 6.54-10.3-.67-14.47zm-2.55 2.05c4.99 2.88 6.76 7.3.55 10.88-6.26 3.62-14.02 2.66-19-.22-5-2.88-6.66-7.36-.4-10.98 6.21-3.58 13.86-2.56 18.85.32zM1171.43 414.02l-2.71-1.57L1143 427.3l2.71 1.57 11.37-6.56 35.52 20.51 3-1.73-35.53-20.51 11.36-6.56zM1200.31 396.13l-2.5-.48-25.21 14.56 2.66 1.54 22.45-12.96 16.73 31.42 3.05-1.76-17.18-32.32zM1284.43 349.56l-2.71-1.57-25.72 14.85 2.71 1.57 11.37-6.56 35.52 20.5 3-1.72-35.53-20.51 11.36-6.56zM1337.86 347.77c-4.99-2.88-11.53-3.14-17.24-1.44l-.1-.07c1.38-1.95 3.15-5.21-2.78-8.64-5.99-3.45-14.69-2.59-20.5.77-5.83 3.36-7.38 8.42-1.4 11.87 5.94 3.43 11.65 2.37 14.97 1.6l.11.07c-2.88 3.26-2.44 7.04 2.55 9.92 6.93 4 15.96 3.45 23.17-.7 7.2-4.17 8.15-9.38 1.22-13.38zm-22.84-8.2c4.72 2.72 3.83 6.18-.6 8.74-4.44 2.56-10.48 3.1-15.2.38-4.7-2.72-3.76-6.2.68-8.76 4.43-2.56 10.41-3.08 15.12-.36zm19.62 9.86c5.27 3.04 4.38 7.33-.6 10.2-5 2.89-12.42 3.4-17.69.36-5.26-3.04-4.54-7.1.73-10.14 5.26-3.04 12.3-3.46 17.56-.42z"/></g><path d="M375.8 546.3l-16.35-34.86-1.66.96-16.35 53.73 3.15-1.82 4.77-16 18.24-10.53 4.7 10.53 3.5-2.02zm-9.37-11.05l-15.96 9.22 7.98-27.2 7.98 17.98zM405.73 514.3c0-8.78-4.82-12.71-12.75-8.14-3.88 2.24-7.43 6.34-9.59 11.81v-5.76l-2.88 1.67v41.85l2.88-1.66v-17.73c2.5 3.04 5.99 2.75 9.7.6 7.65-4.4 12.64-13.82 12.64-22.65zm-3.05 1.75c0 6.91-3.5 14.37-9.7 17.95-6.26 3.62-9.7.04-9.7-6.75 0-6.97 3.44-14.6 9.7-18.2 6.2-3.6 9.7.15 9.7 7zM437.6 495.9c0-8.78-4.83-12.71-12.75-8.14-3.88 2.24-7.43 6.34-9.59 11.81v-5.76l-2.88 1.67v41.85l2.88-1.66v-17.73c2.5 3.04 5.99 2.75 9.7.6 7.65-4.4 12.64-13.82 12.64-22.65zm-3.05 1.75c0 6.91-3.5 14.37-9.7 17.95-6.26 3.62-9.7.04-9.7-6.75 0-6.97 3.44-14.6 9.7-18.2 6.2-3.6 9.7.15 9.7 7zM447.13 505.1v-44.15l-2.88 1.66v44.16l2.88-1.66zM459.82 457.52c0-1.53-1.05-2.14-2.38-1.37a5.22 5.22 0 00-2.38 4.13c0 1.53 1.05 2.14 2.38 1.37a5.22 5.22 0 002.38-4.13zm-.94 40.8v-29.7L456 470.3V500l2.88-1.67zM488.64 476.66l-1.66-1.28s-2.77 5.95-8.6 9.31c-5.81 3.36-9.8.35-9.8-7 0-7.37 4.54-14.8 9.7-17.77 5.1-2.94 7.31-1.34 8.42-.5l1.83-3.3c-.55-.52-3.32-3.2-10.14.73-6.76 3.9-12.86 13.63-12.86 22.79 0 9.08 5.65 12.22 12.58 8.22s9.59-9.38 10.53-11.2zM512.36 467.44v-17.6c0-7.87-3.1-10.81-10.25-6.69-3.88 2.24-6.93 5.73-8.6 7.97l1.12 1.8a27 27 0 017.59-6.95c4.05-2.34 7.2-1.47 7.2 3.97v1.6l-7.03 4.38c-6.93 4.32-10.26 9.76-10.26 14.88 0 5.12 3.6 6.88 8.6 4 4.98-2.88 7.75-8 8.7-9.82v4.16l2.93-1.7zm-2.93-13.34v7.36c-1.22 2.94-4 7.74-8.15 10.14-4.16 2.4-6.26.74-6.26-2.46s1.71-6.88 7.09-10.3l7.32-4.74zM530.65 456.56l-.27-2.72s-1.11 1.47-2.78 2.43c-3.43 1.99-3.76-1.72-3.76-4.99v-17.02l6.54-3.78v-3l-6.49 3.74v-9.47l-2.94 1.7v9.47l-3.88 2.24v3l3.88-2.24v15.04c0 4.8.06 6.95.95 8.42.94 1.44 2.38 1.82 4.87.38a13.43 13.43 0 003.88-3.2zM539.74 411.38c0-1.54-1.05-2.14-2.38-1.38a5.22 5.22 0 00-2.38 4.13c0 1.54 1.05 2.15 2.38 1.38a5.22 5.22 0 002.38-4.13zm-.94 40.8v-29.7l-2.88 1.67v29.7l2.88-1.67zM571.78 418.42c0-8.96-5.82-12.13-13.2-7.87-7.31 4.22-13.13 14.1-13.13 23.07 0 8.96 5.82 12 13.14 7.77 7.37-4.25 13.19-14.01 13.19-22.97zm-3.05 1.63c0 6.85-3.88 14.72-10.14 18.34-6.21 3.58-10.1.19-10.1-6.66 0-6.91 3.89-14.72 10.1-18.3 6.26-3.62 10.14-.3 10.14 6.62zM598.44 417.75v-17.73c0-7.04-1.72-11.49-9.1-7.23-3.7 2.14-7.03 6.56-8.3 10.81v-5.5l-2.89 1.66v29.7l2.88-1.67v-14.72c0-7.04 2.66-14.14 8.2-17.34 5.55-3.2 6.27 1.31 6.27 6.11v17.6l2.94-1.7zM639.73 377.59c0-8-4.88-11.07-11.64-7.17-6.82 3.93-12.47 13.4-12.47 22.56 0 9.09 4.82 12.7 12.3 8.38 7.48-4.32 10.7-10.65 10.7-10.65l-1.39-1.57s-3.21 5.7-9.03 9.06c-5.82 3.36-9.26.67-9.54-6.21l20.9-12.07s.17-1.37.17-2.33zm-2.94 1.05l-18.01 10.4c.16-4.25 2.77-11.97 9.14-15.65 6.37-3.68 8.87 1.41 8.87 5.25zM665.5 379.03l-10.53-9.6 9.25-19.36-3.16 1.82-7.75 16.45-7.76-7.49-3.22 1.86 9.31 8.64-10.53 21.76 3.33-1.92 8.87-18.7 8.86 8.46 3.33-1.92zM691.27 347.83c0-8-4.88-11.07-11.64-7.17-6.82 3.93-12.47 13.4-12.47 22.56 0 9.09 4.82 12.7 12.3 8.38 7.49-4.32 10.7-10.65 10.7-10.65l-1.38-1.57s-3.22 5.7-9.04 9.06c-5.82 3.36-9.25.67-9.53-6.21l20.9-12.07s.16-1.37.16-2.33zm-2.94 1.05l-18.01 10.4c.17-4.25 2.77-11.97 9.14-15.65 6.38-3.68 8.87 1.41 8.87 5.25zM718.82 343.76l-1.67-1.28s-2.77 5.95-8.59 9.31c-5.82 3.36-9.8.36-9.8-7s4.54-14.79 9.7-17.76c5.1-2.95 7.3-1.35 8.42-.51l1.83-3.3c-.56-.51-3.33-3.2-10.15.74-6.76 3.9-12.86 13.63-12.86 22.78 0 9.09 5.66 12.22 12.59 8.22 6.92-4 9.58-9.37 10.53-11.2zM743.48 334v-29.7l-2.88 1.67v15.94c0 5.76-2.22 12.8-7.93 16.1-5.65 3.26-6.37-1.13-6.37-5.6v-18.18l-2.88 1.66v17.66c0 7.3 1.77 11.65 8.86 7.56 3.6-2.08 6.66-5.76 8.32-10.24v4.8l2.88-1.67zM762.32 322.8l-.27-2.72s-1.11 1.47-2.78 2.43c-3.43 1.99-3.76-1.72-3.76-4.99V300.5l6.54-3.78v-3l-6.49 3.74v-9.47l-2.94 1.7v9.47l-3.88 2.24v3l3.88-2.24v15.04c0 4.8.06 6.95.95 8.42.94 1.44 2.38 1.82 4.87.38a13.43 13.43 0 003.88-3.2zM771.41 277.62c0-1.54-1.05-2.14-2.38-1.38a5.22 5.22 0 00-2.38 4.13c0 1.54 1.05 2.15 2.38 1.38a5.22 5.22 0 002.38-4.13zm-.94 40.8v-29.7l-2.88 1.67v29.7l2.88-1.67zM803.45 284.66c0-8.96-5.82-12.13-13.2-7.87-7.3 4.22-13.13 14.1-13.13 23.07 0 8.96 5.82 12 13.14 7.77 7.37-4.25 13.19-14.01 13.19-22.97zm-3.05 1.63c0 6.85-3.88 14.72-10.14 18.34-6.21 3.58-10.09.19-10.09-6.66 0-6.91 3.88-14.72 10.09-18.3 6.26-3.62 10.14-.3 10.14 6.62zM830.1 283.99v-17.73c0-7.04-1.71-11.49-9.08-7.23-3.72 2.14-7.04 6.56-8.32 10.81v-5.5l-2.88 1.66v29.7l2.88-1.67v-14.72c0-7.04 2.66-14.14 8.2-17.34 5.55-3.2 6.27 1.31 6.27 6.11v17.6l2.94-1.7zM879.49 761.25l-2.72-1.57-25.72 14.85 2.72 1.57 11.36-6.56 35.53 20.5 3-1.72-35.54-20.51 11.37-6.56zM906.2 760.35l-2.55-1.79s-1.5.42-3.16 1.38c-2.77 1.6-3.82 4.25-1.27 6.81l-4.82-2.78-2.89 1.66 25.72 14.85 2.88-1.66-13.85-8c-3.94-2.28-8.2-6.28-3.27-9.12 1.38-.8 2.38-1.12 3.21-1.35zM950.49 761.28l-15.25-8.8c-6.81-3.94-14.02-4.51-21.17-.38-3.88 2.24-5.43 4.86-5.98 6.46l3.21.58c.11-.58 1.39-3.36 5.38-5.67a14.3 14.3 0 0114.24-.1l1.39.8-6.76 4.23c-6.66 4.16-6.93 7.84-2.5 10.4 4.44 2.56 11.36 2.4 16.35-.48 4.99-2.88 4.71-6.24 4.55-7.42l3.6 2.08 2.94-1.7zm-15.97-5.82l6.38 3.68c.72 1.82.72 5.02-3.44 7.42-4.16 2.4-8.76 2.18-11.53.58-2.77-1.6-3.38-3.94 1.72-7.2l6.87-4.48zM975.54 742.34l-3.6-.16s1 3.77-4.83 7.13c-5.82 3.36-14.4 3.01-20.78-.67-6.37-3.68-5.99-8.7-.83-11.68 5.1-2.94 9.8-2.78 12.2-2.69l-.12-2.17c-1.27-.1-7.76-.64-14.58 3.3-6.76 3.9-7.48 10.52.45 15.1 7.87 4.54 19.06 4.48 26 .48 6.92-4 6.26-7.46 6.09-8.64zM992.33 720.8c-6.93-4-16.9-4.13-23.66-.22-6.82 3.93-7.1 10.3.83 14.88 7.87 4.54 18.23 4.96 25.71.64 7.49-4.32 6.82-8.42 6.82-8.42l-3.43-.38s.1 3.77-5.71 7.13c-5.82 3.36-13.3 3.01-19.68-.35l20.9-12.06s-.95-.74-1.78-1.22zm-3.49 1.38l-18.01 10.4c-3.44-2.18-6.21-6.79.16-10.47 6.38-3.68 14.53-1.85 17.85.07zM1021.15 712.35c-4.88-2.81-11.36-.99-15.69.23-4.26 1.18-8.2 2.1-10.86.57-2.66-1.53-2.05-3.55.83-5.21 2.88-1.67 5.65-2.12 9.37-2.02v-2.05c-4.27-.16-7.93.42-11.7 2.6-3.77 2.17-5.6 5.79-.94 8.47 4.66 2.7 11.14.87 14.13.04 3-.84 8.76-2.82 12.09-.9 3.32 1.92 2.05 4.45-1.17 6.3-3.21 1.86-7.37 2.4-11.47 1.96l-.39 2.14c4.27.6 9.6.22 14.36-2.53s6.26-6.81 1.44-9.6z" fill-rule="nonzero"/><g><path fill-rule="nonzero" d="M130.65 57.6h3.46v44.16h-3.46zM167.77 101.76V84.03c0-7.04-1.98-12.48-10.5-12.48-4.28 0-8.12 2.5-9.6 6.02v-5.5h-3.32v29.69h3.33V87.04c0-7.04 3.07-12.6 9.47-12.6s7.23 4.92 7.23 9.72v17.6h3.4zM195.1 93.63c0-5.63-5.57-7.55-9.28-8.83-3.65-1.28-6.85-2.62-6.85-5.7 0-3.07 2.37-4.73 5.7-4.73 3.32 0 5.37 1.15 7.42 3.39l2.05-2.05c-2.3-2.62-5-4.16-9.35-4.16s-9.02 2.56-9.02 7.94c0 5.37 5.57 7.3 8.13 8.19 2.56.9 7.87 2.24 7.87 6.08s-3.26 5.63-6.97 5.63c-3.72 0-6.66-1.85-8.58-4.67l-2.37 1.92c1.86 3.07 5.31 5.76 10.82 5.76 5.5 0 10.43-3.2 10.43-8.77zM214.17 101.44l-.32-2.88s-1.28.83-3.2.83c-3.97 0-4.35-3.9-4.35-7.17V75.2h7.55v-3h-7.49v-9.48h-3.39v9.47h-4.48v3.01h4.48v15.04c0 4.8.06 6.98 1.09 8.96 1.09 1.98 2.75 3.2 5.63 3.2 1.92 0 3.4-.32 4.48-.96zM233.69 75.26L234 72s-1.28-.45-3.2-.45c-3.2 0-6.46 2.05-7.55 6.08v-5.57h-3.33v29.7h3.33v-16c0-4.54 1.53-11 7.23-11 1.6 0 2.5.25 3.2.5zM261.98 101.76v-29.7h-3.33V88c0 5.76-2.56 11.52-9.15 11.52-6.53 0-7.36-4.8-7.36-9.28V72.06h-3.33v17.67c0 7.3 2.05 12.67 10.24 12.67 4.16 0 7.68-1.92 9.6-5.44v4.8h3.33zM312.02 101.76V83.71c0-5.95-1.72-12.16-9.92-12.16-3.97 0-7.49 2.37-9.4 6.21-1.28-3.84-4.16-6.2-8.84-6.2-3.96 0-7.74 2.74-8.96 6v-5.5h-3.32v29.7h3.32V86.27c0-6.27 3.08-11.84 8.84-11.84 5.11 0 6.4 4.29 6.4 9.28v18.05h3.32V86.27c0-6.27 3.07-11.84 8.83-11.84s6.4 5.57 6.4 9.28v18.05h3.33zM346.9 85.44c0-8-5.63-13.89-13.44-13.89-7.87 0-14.4 6.21-14.4 15.36 0 9.09 5.57 15.49 14.21 15.49s12.35-4.48 12.35-4.48l-1.6-2.37s-3.71 3.84-10.43 3.84-10.69-4.67-11-11.71h24.12s.2-1.28.2-2.24zm-3.4-.64h-20.79c.2-4.16 3.2-10.37 10.56-10.37s10.24 6.53 10.24 10.37zM377.36 101.76V84.03c0-7.04-1.98-12.48-10.5-12.48-4.28 0-8.12 2.5-9.6 6.02v-5.5h-3.32v29.69h3.33V87.04c0-7.04 3.07-12.6 9.47-12.6s7.23 4.92 7.23 9.72v17.6h3.4zM398.8 101.44l-.32-2.88s-1.28.83-3.2.83c-3.96 0-4.35-3.9-4.35-7.17V75.2h7.55v-3H391v-9.48h-3.4v9.47h-4.48v3.01h4.48v15.04c0 4.8.07 6.98 1.1 8.96 1.08 1.98 2.74 3.2 5.62 3.2 1.92 0 3.4-.32 4.48-.96zM425.04 101.76v-17.6c0-7.87-3.58-12.6-11.84-12.6-4.48 0-8 1.72-9.92 3l1.28 2.43c.64-.51 4.16-2.56 8.77-2.56 4.67 0 8.32 2.69 8.32 8.13v1.6l-8.13.32c-8 .32-11.84 3.84-11.84 8.96 0 5.12 4.16 8.96 9.92 8.96s8.96-3.52 10.05-4.8v4.16h3.4zm-3.39-15.04v7.36c-1.4 2.24-4.6 5.44-9.4 5.44-4.8 0-7.24-2.88-7.24-6.08s1.98-5.89 8.2-6.2l8.44-.52zM446.16 101.44l-.32-2.88s-1.28.83-3.2.83c-3.97 0-4.35-3.9-4.35-7.17V75.2h7.55v-3h-7.49v-9.48h-3.39v9.47h-4.48v3.01h4.48v15.04c0 4.8.07 6.98 1.09 8.96 1.09 1.98 2.75 3.2 5.63 3.2 1.92 0 3.4-.32 4.48-.96zM456.66 61.5a2.73 2.73 0 00-2.76-2.75 2.73 2.73 0 00-2.75 2.75 2.73 2.73 0 002.76 2.76 2.73 2.73 0 002.75-2.76zm-1.1 40.26v-29.7h-3.32v29.7h3.33zM493.65 87.04c0-8.96-6.72-15.49-15.23-15.49-8.45 0-15.17 6.53-15.17 15.49s6.72 15.36 15.17 15.36c8.5 0 15.23-6.4 15.23-15.36zm-3.52-.13c0 6.85-4.48 12.48-11.71 12.48-7.17 0-11.65-5.63-11.65-12.48 0-6.91 4.48-12.48 11.65-12.48 7.23 0 11.7 5.57 11.7 12.48zM524.43 101.76V84.03c0-7.04-1.98-12.48-10.5-12.48-4.28 0-8.12 2.5-9.6 6.02v-5.5h-3.32v29.69h3.33V87.04c0-7.04 3.07-12.6 9.47-12.6s7.23 4.92 7.23 9.72v17.6h3.4z"/><path fill="#c8d3d7" stroke="#89c2d4" stroke-width="7" d="M50 50h60v60H50z"/><g><path d="M153.05 160.74v-3.14h-22.4v44.16h3.46v-20.54h17.79v-3.14h-17.8v-17.34h18.95zM183.58 201.76v-29.7h-3.33V188c0 5.76-2.56 11.52-9.15 11.52-6.53 0-7.36-4.8-7.36-9.28v-18.18h-3.33v17.67c0 7.3 2.05 12.67 10.24 12.67 4.16 0 7.68-1.92 9.6-5.44v4.8h3.33zM216.6 201.76v-17.73c0-7.04-1.98-12.48-10.5-12.48-4.28 0-8.12 2.5-9.6 6.02v-5.5h-3.32v29.69h3.33v-14.72c0-7.04 3.07-12.6 9.47-12.6s7.23 4.92 7.23 9.72v17.6h3.4zM250.33 197.28l-1.92-2.24s-3.2 4.35-9.92 4.35-11.33-5.31-11.33-12.67 5.25-12.16 11.2-12.16c5.89 0 8.45 2.88 9.73 4.35l2.11-2.24c-.64-.83-3.84-5.12-11.71-5.12-7.8 0-14.85 6.21-14.85 15.36 0 9.09 6.53 15.49 14.53 15.49 8 0 11.07-3.84 12.16-5.12zM268.12 201.44l-.32-2.88s-1.28.83-3.2.83c-3.97 0-4.35-3.9-4.35-7.17V175.2h7.55v-3h-7.49v-9.48h-3.39v9.47h-4.48v3.01h4.48v15.04c0 4.8.07 6.98 1.09 8.96 1.09 1.98 2.75 3.2 5.63 3.2 1.92 0 3.4-.32 4.48-.96zM278.62 161.5a2.73 2.73 0 00-2.76-2.75 2.73 2.73 0 00-2.75 2.75 2.73 2.73 0 002.75 2.76 2.73 2.73 0 002.76-2.76zm-1.1 40.26v-29.7h-3.32v29.7h3.33zM315.6 187.04c0-8.96-6.71-15.49-15.23-15.49-8.44 0-15.16 6.53-15.16 15.49s6.72 15.36 15.17 15.36c8.5 0 15.23-6.4 15.23-15.36zm-3.51-.13c0 6.85-4.48 12.48-11.71 12.48-7.17 0-11.65-5.63-11.65-12.48 0-6.91 4.48-12.48 11.64-12.48 7.24 0 11.72 5.57 11.72 12.48zM346.39 201.76v-17.73c0-7.04-1.98-12.48-10.5-12.48-4.28 0-8.12 2.5-9.6 6.02v-5.5h-3.32v29.69h3.32v-14.72c0-7.04 3.08-12.6 9.48-12.6s7.23 4.92 7.23 9.72v17.6h3.39zM379.99 201.76V157.6H367.5v2.88h9.09v41.28h3.39z" fill-rule="nonzero"/><path fill="#c690d2" stroke="#ae57c1" stroke-width="7" d="M50 150h60v60H50z"/></g><g><path d="M153.05 260.74v-3.14h-22.4v44.16h3.46v-20.54h17.79v-3.14h-17.8v-17.34h18.95zM183.58 301.76v-29.7h-3.33V288c0 5.76-2.56 11.52-9.15 11.52-6.53 0-7.36-4.8-7.36-9.28v-18.18h-3.33v17.67c0 7.3 2.05 12.67 10.24 12.67 4.16 0 7.68-1.92 9.6-5.44v4.8h3.33zM216.6 301.76v-17.73c0-7.04-1.98-12.48-10.5-12.48-4.28 0-8.12 2.5-9.6 6.02v-5.5h-3.32v29.69h3.33v-14.72c0-7.04 3.07-12.6 9.47-12.6s7.23 4.92 7.23 9.72v17.6h3.4zM250.33 297.28l-1.92-2.24s-3.2 4.35-9.92 4.35-11.33-5.31-11.33-12.67 5.25-12.16 11.2-12.16c5.89 0 8.45 2.88 9.73 4.35l2.11-2.24c-.64-.83-3.84-5.12-11.71-5.12-7.8 0-14.85 6.21-14.85 15.36 0 9.09 6.53 15.49 14.53 15.49 8 0 11.07-3.84 12.16-5.12zM268.12 301.44l-.32-2.88s-1.28.83-3.2.83c-3.97 0-4.35-3.9-4.35-7.17V275.2h7.55v-3h-7.49v-9.48h-3.39v9.47h-4.48v3.01h4.48v15.04c0 4.8.07 6.98 1.09 8.96 1.09 1.98 2.75 3.2 5.63 3.2 1.92 0 3.4-.32 4.48-.96zM278.62 261.5a2.73 2.73 0 00-2.76-2.75 2.73 2.73 0 00-2.75 2.75 2.73 2.73 0 002.75 2.76 2.73 2.73 0 002.76-2.76zm-1.1 40.26v-29.7h-3.32v29.7h3.33zM315.6 287.04c0-8.96-6.71-15.49-15.23-15.49-8.44 0-15.16 6.53-15.16 15.49s6.72 15.36 15.17 15.36c8.5 0 15.23-6.4 15.23-15.36zm-3.51-.13c0 6.85-4.48 12.48-11.71 12.48-7.17 0-11.65-5.63-11.65-12.48 0-6.91 4.48-12.48 11.64-12.48 7.24 0 11.72 5.57 11.72 12.48zM346.39 301.76v-17.73c0-7.04-1.98-12.48-10.5-12.48-4.28 0-8.12 2.5-9.6 6.02v-5.5h-3.32v29.69h3.32v-14.72c0-7.04 3.08-12.6 9.48-12.6s7.23 4.92 7.23 9.72v17.6h3.39zM396.63 301.76v-3.2h-24l12.8-12.48c2.24-2.24 9.4-8.32 9.4-16.13 0-7.87-5.88-12.99-13.88-12.99s-11.84 5.76-13.44 9.28l2.56 1.6c1.28-2.88 4.48-7.8 10.88-7.8s10.37 4.28 10.37 10.04c0 5.76-4.61 10.56-7.5 13.44l-16 15.68.65 2.56h28.16z" fill-rule="nonzero"/><path fill="#f3c366" stroke="#db811f" stroke-width="7" d="M50 250h60v60H50z"/></g><g><path d="M153.05 360.74v-3.14h-22.4v44.16h3.46v-20.54h17.79v-3.14h-17.8v-17.34h18.95zM183.58 401.76v-29.7h-3.33V388c0 5.76-2.56 11.52-9.15 11.52-6.53 0-7.36-4.8-7.36-9.28v-18.18h-3.33v17.67c0 7.3 2.05 12.67 10.24 12.67 4.16 0 7.68-1.92 9.6-5.44v4.8h3.33zM216.6 401.76v-17.73c0-7.04-1.98-12.48-10.5-12.48-4.28 0-8.12 2.5-9.6 6.02v-5.5h-3.32v29.69h3.33v-14.72c0-7.04 3.07-12.6 9.47-12.6s7.23 4.92 7.23 9.72v17.6h3.4zM250.33 397.28l-1.92-2.24s-3.2 4.35-9.92 4.35-11.33-5.31-11.33-12.67 5.25-12.16 11.2-12.16c5.89 0 8.45 2.88 9.73 4.35l2.11-2.24c-.64-.83-3.84-5.12-11.71-5.12-7.8 0-14.85 6.21-14.85 15.36 0 9.09 6.53 15.49 14.53 15.49 8 0 11.07-3.84 12.16-5.12zM268.12 401.44l-.32-2.88s-1.28.83-3.2.83c-3.97 0-4.35-3.9-4.35-7.17V375.2h7.55v-3h-7.49v-9.48h-3.39v9.47h-4.48v3.01h4.48v15.04c0 4.8.07 6.98 1.09 8.96 1.09 1.98 2.75 3.2 5.63 3.2 1.92 0 3.4-.32 4.48-.96zM278.62 361.5a2.73 2.73 0 00-2.76-2.75 2.73 2.73 0 00-2.75 2.75 2.73 2.73 0 002.75 2.76 2.73 2.73 0 002.76-2.76zm-1.1 40.26v-29.7h-3.32v29.7h3.33zM315.6 387.04c0-8.96-6.71-15.49-15.23-15.49-8.44 0-15.16 6.53-15.16 15.49s6.72 15.36 15.17 15.36c8.5 0 15.23-6.4 15.23-15.36zm-3.51-.13c0 6.85-4.48 12.48-11.71 12.48-7.17 0-11.65-5.63-11.65-12.48 0-6.91 4.48-12.48 11.64-12.48 7.24 0 11.72 5.57 11.72 12.48zM346.39 401.76v-17.73c0-7.04-1.98-12.48-10.5-12.48-4.28 0-8.12 2.5-9.6 6.02v-5.5h-3.32v29.69h3.32v-14.72c0-7.04 3.08-12.6 9.48-12.6s7.23 4.92 7.23 9.72v17.6h3.39zM395.35 389.8c0-7.56-5.76-10.76-8.96-11.2v-.2c2.56-.64 7.68-3.2 7.68-10.24s-6.08-11.2-12.8-11.2c-6.72 0-10.3 3.2-13.12 6.72l2.24 1.92c2.56-2.88 5.44-5.57 10.56-5.57s9.6 3.01 9.6 8.45c0 5.44-3.84 8.51-9.28 8.51h-2.88v3.33h2.88c5.76 0 10.56 3.2 10.56 9.47 0 6.21-4.67 9.54-11.4 9.54-6.71 0-10.68-6.66-10.68-6.66l-2.56 2.05s4.29 7.68 13.12 7.68c8.77 0 15.04-5.12 15.04-12.6z" fill-rule="nonzero"/><path fill="#5cbf93" stroke="#054d00" stroke-width="7" d="M50 350h60v60H50z"/></g></g></svg>