<?xml version="1.0" encoding="UTF-8" standalone="no"?>
<!DOCTYPE svg PUBLIC "-//W3C//DTD SVG 1.1//EN" "http://www.w3.org/Graphics/SVG/1.1/DTD/svg11.dtd">
<svg width="100%" height="100%" viewBox="0 0 723 212" version="1.1" xmlns="http://www.w3.org/2000/svg" xmlns:xlink="http://www.w3.org/1999/xlink" xml:space="preserve" xmlns:serif="http://www.serif.com/" style="fill-rule:evenodd;clip-rule:evenodd;stroke-linejoin:round;stroke-miterlimit:2;">
    <g id="Layer-2" serif:id="Layer 2">
        <g transform="matrix(1,0,0,1,0,175.883)">
            <path d="M0,-140.304L0,0L102.89,0L102.89,-24.599L26.658,-24.599L26.658,-140.304L0,-140.304Z" style="fill:rgb(29,29,27);fill-rule:nonzero;"/>
        </g>
        <g transform="matrix(1,0,0,1,257.262,35.5793)">
            <path d="M0,140.304C-17.585,140.304 -32.083,135.347 -43.588,125.338C-55,115.423 -60.799,103.357 -60.799,89.14L-60.799,0L-34.328,0L-34.328,81.563C-34.328,92.413 -31.054,100.645 -24.319,105.976C-17.866,111.12 -9.728,113.74 0,113.74C9.728,113.74 17.865,111.12 24.319,105.976C31.054,100.645 34.328,92.413 34.328,81.563L34.328,0L60.799,0L60.799,89.14C60.799,103.357 55.093,115.329 43.588,125.338C32.083,135.347 17.585,140.304 0,140.304" style="fill:rgb(29,29,27);fill-rule:nonzero;"/>
        </g>
        <g transform="matrix(1,0,0,1,550.374,119.668)">
            <path d="M0,-27.874L-43.588,20.671L-87.176,-27.874L-87.176,56.215L-113.74,56.215L-113.74,-84.089L-105.695,-84.089L-43.588,-13.47L18.614,-84.089L26.658,-84.089L26.658,56.215L0.094,56.215L0,-27.874Z" style="fill:rgb(29,29,27);fill-rule:nonzero;"/>
        </g>
        <rect x="695.604" y="35.486" width="26.658" height="140.397" style="fill:rgb(29,29,27);"/>
        <g transform="matrix(-1,0,0,1,722.262,-203.194)">
            <rect x="0" y="203.194" width="722.262" height="8.175" style="fill:rgb(29,29,27);"/>
        </g>
        <g transform="matrix(-1,0,0,1,722.262,203.194)">
            <rect x="0" y="0" width="722.262" height="8.175" style="fill:rgb(29,29,27);"/>
        </g>
    </g>
</svg>
